<svg viewBox="0 0 24 24" fill="none" xmlns="http://www.w3.org/2000/svg">
<path d="M3.5 4.5V1.5H5.5V4.5H8.5V6.5H5.5V9.5H3.5V6.5H0.5V4.5H3.5ZM6.5 10.5V7.5H9.5V4.5H16.5L18.33 6.5H23.5V22.5H3.5V10.5H6.5ZM13.5 19.5C16.26 19.5 18.5 17.26 18.5 14.5C18.5 11.74 16.26 9.5 13.5 9.5C10.74 9.5 8.5 11.74 8.5 14.5C8.5 17.26 10.74 19.5 13.5 19.5ZM10.5 14.5C10.5 16.16 11.84 17.5 13.5 17.5C15.16 17.5 16.5 16.16 16.5 14.5C16.5 12.84 15.16 11.5 13.5 11.5C11.84 11.5 10.5 12.84 10.5 14.5Z" fill="currentColor"/>
</svg>
