<svg  viewBox="0 0 24 24" fill="none" xmlns="http://www.w3.org/2000/svg">
<path d="M19.5 12.5902C20.43 12.5902 21.28 12.8702 22 13.3502V8.59016C22 7.49016 21.1 6.59016 20 6.59016H13.71L12.65 5.53016L14.06 4.12016L13.35 3.41016L9.82 6.94016L10.53 7.65016L11.94 6.24016L13 7.30016V9.59016C13 10.6902 12.1 11.5902 11 11.5902H10.46C11.41 12.6502 12 14.0502 12 15.5902C12 15.9302 11.96 16.2602 11.91 16.5902H15.05C15.3 14.3402 17.19 12.5902 19.5 12.5902Z" fill="currentColor"/>
<path d="M19.5 13.5902C17.57 13.5902 16 15.1602 16 17.0902C16 19.0202 17.57 20.5902 19.5 20.5902C21.43 20.5902 23 19.0202 23 17.0902C23 15.1602 21.43 13.5902 19.5 13.5902ZM19.5 18.5902C18.67 18.5902 18 17.9202 18 17.0902C18 16.2602 18.67 15.5902 19.5 15.5902C20.33 15.5902 21 16.2602 21 17.0902C21 17.9202 20.33 18.5902 19.5 18.5902Z" fill="currentColor"/>
<path d="M4 9.59016H9C9 8.49016 8.1 7.59016 7 7.59016H4C3.45 7.59016 3 8.04016 3 8.59016C3 9.14016 3.45 9.59016 4 9.59016Z" fill="currentColor"/>
<path d="M9.83 14.4102L9.65 13.9402L10.58 13.5902C10.12 12.5302 9.3 11.6802 8.27 11.1602L7.87 12.0502L7.41 11.8402L7.81 10.9402C7.26 10.7202 6.64 10.5902 6 10.5902C5.47 10.5902 4.96 10.7002 4.48 10.8502L4.82 11.7602L4.35 11.9402L4 11.0102C2.94 11.4702 2.09 12.2902 1.57 13.3202L2.46 13.7202L2.25 14.1802L1.35 13.7802C1.13 14.3302 1 14.9502 1 15.5902C1 16.1202 1.11 16.6302 1.26 17.1102L2.17 16.7702L2.35 17.2402L1.42 17.5902C1.88 18.6502 2.7 19.5002 3.73 20.0202L4.13 19.1302L4.59 19.3402L4.19 20.2402C4.74 20.4602 5.36 20.5902 6 20.5902C6.53 20.5902 7.04 20.4802 7.52 20.3302L7.18 19.4202L7.65 19.2402L8 20.1702C9.06 19.7102 9.91 18.8902 10.43 17.8602L9.54 17.4602L9.75 17.0002L10.65 17.4002C10.87 16.8502 11 16.2302 11 15.5902C11 15.0602 10.89 14.5502 10.74 14.0702L9.83 14.4102ZM7.15 18.3602C5.62 18.9902 3.86 18.2702 3.23 16.7402C2.6 15.2102 3.32 13.4502 4.85 12.8202C6.38 12.1902 8.14 12.9102 8.77 14.4402C9.41 15.9702 8.68 17.7302 7.15 18.3602Z" fill="currentColor"/>
</svg>
