<svg viewBox="0 0 24 24" fill="none" xmlns="http://www.w3.org/2000/svg">
<path d="M7.59 5.66305C6.81 4.88305 6.81 3.61305 7.59 2.83305C8.37 2.05305 9.64 2.05305 10.42 2.83305C11.2 3.61305 11.2 4.88305 10.42 5.66305C9.63 6.45305 8.37 6.45305 7.59 5.66305ZM6 19.253V7.25305H4V21.253H15V19.253H6ZM20 20.323L14.93 15.253H11.5V11.573C12.9 12.723 15.1 13.733 17 13.733V11.573C15.34 11.593 13.39 10.703 12.33 9.53305L10.93 7.98305C10.74 7.77305 10.5 7.60305 10.24 7.48305C9.95 7.34305 9.62 7.25305 9.28 7.25305H9.25C8.01 7.25305 7 8.26305 7 9.50305V18.253H15.07L18.57 21.753L20 20.323Z" fill="currentColor"/>
</svg>
