<svg  viewBox="0 0 24 24" fill="none" xmlns="http://www.w3.org/2000/svg">
<path d="M16.5 8.03C14.29 8.03 12.5 9.82 12.5 12.03C12.5 14.24 14.29 16.03 16.5 16.03C18.71 16.03 20.5 14.24 20.5 12.03C20.5 9.82 18.71 8.03 16.5 8.03ZM14 12.03C14 10.65 15.12 9.53 16.5 9.53C16.92 9.53 17.3 9.64 17.65 9.82L14.29 13.18C14.11 12.83 14 12.45 14 12.03ZM16.5 14.53C16.08 14.53 15.7 14.42 15.35 14.24L18.71 10.88C18.89 11.23 19 11.61 19 12.03C19 13.41 17.88 14.53 16.5 14.53Z" fill="currentColor"/>
<path d="M17.5 23.03V17.03H15.5V18.03H5.5V6.03H15.5V7.03H17.5V0.970001L3.5 1.03V23.03H17.5Z" fill="currentColor"/>
</svg>
