<svg width="24" height="24" viewBox="0 0 24 24" fill="none" xmlns="http://www.w3.org/2000/svg">
<path d="M13.3966 4H9.39661V8H13.3966V4Z" fill="black"/>
<path d="M7.39661 16H3.39661V20H7.39661V16Z" fill="black"/>
<path d="M7.39661 10H3.39661V14H7.39661V10Z" fill="black"/>
<path d="M7.39661 4H3.39661V8H7.39661V4Z" fill="black"/>
<path d="M19.3966 4H15.3966V8H19.3966V4Z" fill="black"/>
<path d="M10.3966 17.86V20H12.4966L18.4766 14.03L16.3566 11.91L10.3966 17.86Z" fill="black"/>
<path d="M13.3966 12.03V10H9.39661V14H11.4266L13.3966 12.03Z" fill="black"/>
<path d="M18.4822 9.7915L17.068 11.2057L19.1893 13.327L20.6035 11.9128L18.4822 9.7915Z" fill="black"/>
</svg>
