<svg  viewBox="0 0 24 24" fill="none" xmlns="http://www.w3.org/2000/svg">
<path d="M10.4351 18.75C10.8051 18.29 11.3751 18 12.0051 18C12.6351 18 13.1951 18.29 13.5651 18.75C13.9551 18.66 14.3251 18.54 14.6851 18.39L13.2651 15.21C12.8751 15.36 12.4451 15.44 12.0051 15.44C11.5451 15.44 11.1051 15.35 10.7051 15.19L9.27506 18.38C9.64506 18.54 10.0251 18.67 10.4351 18.75ZM5.15506 10C4.99506 10.59 4.90506 11.21 4.90506 11.85C4.90506 12.6 5.02506 13.32 5.23506 14C5.86506 14.05 6.45506 14.4 6.79506 14.99C7.12506 15.56 7.14506 16.22 6.90506 16.78C7.17506 17.05 7.46506 17.31 7.77506 17.54L9.29506 14.15C8.82506 13.57 8.54506 12.83 8.54506 12.02C8.54506 10.13 10.0951 8.61 12.0051 8.61C13.9151 8.61 15.4651 10.14 15.4651 12.02C15.4651 12.84 15.1751 13.59 14.6851 14.18L16.1851 17.53C16.5051 17.29 16.8051 17.03 17.0851 16.74C16.8651 16.19 16.8851 15.54 17.2051 14.99C17.5351 14.42 18.1051 14.07 18.7251 14C18.9451 13.32 19.0651 12.59 19.0651 11.84C19.0651 11.2 18.9751 10.57 18.8151 9.98C18.1751 9.94 17.5551 9.59 17.2151 8.98C16.8551 8.36 16.8651 7.62 17.1851 7.03C16.2751 6.05 15.0851 5.32 13.7451 4.98C13.3951 5.6 12.7351 6 12.0051 6C11.2751 6 10.6151 5.59 10.2651 4.99C8.92506 5.33 7.73506 6.04 6.82506 7.02C7.15506 7.62 7.17506 8.37 6.80506 9C6.44506 9.62 5.81506 9.97 5.15506 10ZM3.85506 9.58C3.07506 8.98 2.83506 7.88 3.34506 7C3.85506 6.12 4.92506 5.77 5.83506 6.15C6.94506 4.98 8.39506 4.12 10.0151 3.73C10.1451 2.75 10.9851 2 12.0051 2C13.0251 2 13.8551 2.75 13.9851 3.73C15.6151 4.12 17.0551 4.97 18.1651 6.15C19.0751 5.77 20.1551 6.12 20.6551 7C21.1651 7.88 20.9251 8.98 20.1451 9.58C20.3751 10.35 20.4951 11.16 20.4951 12C20.4951 12.84 20.3751 13.65 20.1451 14.42C20.9251 15.02 21.1651 16.12 20.6551 17C20.1451 17.88 19.0751 18.23 18.1651 17.85C17.7651 18.28 17.3151 18.66 16.8251 19L18.1651 22H16.3051L15.3351 19.83C14.9051 20.01 14.4551 20.16 13.9951 20.27C13.8551 21.25 13.0151 22 12.0051 22C10.9951 22 10.1551 21.25 10.0251 20.27C9.54506 20.15 9.08506 20 8.64506 19.81L7.65506 22H5.78506L7.14506 18.97C6.67506 18.64 6.23506 18.26 5.84506 17.85C4.92506 18.23 3.85506 17.88 3.34506 17C2.83506 16.12 3.07506 15.02 3.85506 14.42C3.61506 13.65 3.50506 12.84 3.50506 12C3.50506 11.16 3.61506 10.35 3.85506 9.58Z" fill="currentColor"/>
</svg>
