<svg viewBox="0 0 24 24" fill="none" xmlns="http://www.w3.org/2000/svg">
<path d="M19.705 7.29492L20.645 5.23492L22.705 4.29492L20.645 3.35492L19.705 1.29492L18.765 3.35492L16.705 4.29492L18.765 5.23492L19.705 7.29492Z" fill="currentColor"/>
<path d="M8.20504 7.29492L9.14504 5.23492L11.205 4.29492L9.14504 3.35492L8.20504 1.29492L7.26504 3.35492L5.20504 4.29492L7.26504 5.23492L8.20504 7.29492Z" fill="currentColor"/>
<path d="M19.705 12.7949L18.765 14.8549L16.705 15.7949L18.765 16.7349L19.705 18.7949L20.645 16.7349L22.705 15.7949L20.645 14.8549L19.705 12.7949Z" fill="currentColor"/>
<path d="M18.115 10.1249L13.875 5.88492L1.29504 18.4649L5.53504 22.7049L18.115 10.1249ZM13.915 11.5049L12.505 10.0949L13.885 8.71492L15.295 10.1249L13.915 11.5049Z" fill="currentColor"/>
</svg>
