<svg viewBox="0 0 24 24" fill="none" xmlns="http://www.w3.org/2000/svg">
<path d="M14 8.5V10.5H11L8.31 9.32L7 13.25V22.5H3V12.5L4.58 7.87C4.86 7.03 5.63 6.51 6.46 6.5C6.74 6.5 7.02 6.55 7.3 6.68L11.45 8.51L14 8.5ZM8 1.5C6.9 1.5 6 2.4 6 3.5C6 4.6 6.9 5.5 8 5.5C9.1 5.5 10 4.6 10 3.5C10 2.4 9.1 1.5 8 1.5ZM9 19.5H21V17.5H9V19.5ZM19.5 16.5C20.33 16.5 21 15.83 21 15C21 14.17 20.33 13.5 19.5 13.5C18.67 13.5 18 14.17 18 15C18 15.83 18.67 16.5 19.5 16.5ZM13 13.5V11.5H9V13.5H11V16.5H17V11.5H15V13.5H13Z" fill="currentColor"/>
</svg>
