<svg viewBox="0 0 24 24" fill="none" xmlns="http://www.w3.org/2000/svg">
<path d="M5.95139 5.97876C2.01139 9.92876 2.02139 16.3288 5.97139 20.2788L8.83139 17.4188C5.70139 14.2888 4.65139 9.90876 5.95139 5.97876ZM17.4214 8.82876L20.2814 5.96876C16.3314 2.01876 9.93139 2.00876 5.98139 5.94876C9.91139 4.64876 14.2914 5.69876 17.4214 8.82876ZM5.97139 5.95876L5.96139 5.96876C5.58139 8.97876 7.13139 12.8488 10.2614 15.9888L15.9914 10.2588C12.8614 7.12876 8.98139 5.57876 5.97139 5.95876ZM13.1274 14.5588L14.5554 13.1308L20.9974 19.5728L19.5674 21.0008L13.1274 14.5588Z" fill="currentColor"/>
</svg>
