<svg viewBox="0 0 24 24" fill="none" xmlns="http://www.w3.org/2000/svg">
<path d="M20 8.69043V4.00043H15.31L12 0.69043L8.69 4.00043H4V8.69043L0.690002 12.0004L4 15.3104V20.0004H8.69L12 23.3104L15.31 20.0004H20V15.3104L23.31 12.0004L20 8.69043ZM12 18.0004C11.11 18.0004 10.26 17.8004 9.5 17.4504C11.56 16.5004 13 14.4204 13 12.0004C13 9.58043 11.56 7.50043 9.5 6.55043C10.26 6.20043 11.11 6.00043 12 6.00043C15.31 6.00043 18 8.69043 18 12.0004C18 15.3104 15.31 18.0004 12 18.0004Z" fill="currentColor"/>
</svg>
