<svg  viewBox="0 0 24 24" fill="none" xmlns="http://www.w3.org/2000/svg">
<path d="M3.5 11.5V8.5H10.79C10.02 5.9 11 3.89 11.16 3.53C2.47 3.17 1.5 5.52 1.5 7.5V17C1.5 17.95 1.88 18.81 2.5 19.44V22.5H5.5V20.5H13.5V22.5H16.5V19.44C17.12 18.81 17.5 17.95 17.5 17V13.5C15.59 13.5 13.87 12.74 12.61 11.5H3.5ZM6 17.5C5.17 17.5 4.5 16.83 4.5 16C4.5 15.17 5.17 14.5 6 14.5C6.83 14.5 7.5 15.17 7.5 16C7.5 16.83 6.83 17.5 6 17.5ZM14.5 16C14.5 16.83 13.83 17.5 13 17.5C12.17 17.5 11.5 16.83 11.5 16C11.5 15.17 12.17 14.5 13 14.5C13.83 14.5 14.5 15.17 14.5 16Z" fill="currentColor"/>
<path d="M17.5 1.5C14.74 1.5 12.5 3.74 12.5 6.5C12.5 9.26 14.74 11.5 17.5 11.5C20.26 11.5 22.5 9.26 22.5 6.5C22.5 3.74 20.26 1.5 17.5 1.5ZM18 9.5H17V8.5H18V9.5ZM18 7.5H17V3.5H18V7.5Z" fill="currentColor"/>
</svg>
