<svg  viewBox="0 0 24 24" fill="none" xmlns="http://www.w3.org/2000/svg">
<path d="M14 6.00048H10L9 7.00048H6V17.0005H18V7.00048H15L14 6.00048ZM12 14.0005C10.9 14.0005 10 13.1005 10 12.0005C10 10.9005 10.9 10.0005 12 10.0005C13.1 10.0005 14 10.9005 14 12.0005C14 13.1005 13.1 14.0005 12 14.0005Z" fill="currentColor"/>
<path d="M8.57 0.510481L13.05 4.99048V2.04048C17.77 2.51048 21.53 6.27048 22 10.9905H24C23.34 3.02048 15.49 -1.58952 8.57 0.510481Z" fill="currentColor"/>
<path d="M10.95 21.9605C6.23 21.4905 2.47 17.7305 2 13.0105H0C0.66 20.9805 8.51 25.5905 15.43 23.4905L10.95 19.0105V21.9605Z" fill="currentColor"/>
</svg>
