<svg  viewBox="0 0 24 24" fill="none" xmlns="http://www.w3.org/2000/svg">
<path d="M10.83 3.5C10.41 2.33 9.3 1.5 8 1.5C6.34 1.5 5 2.84 5 4.5C5 6.15 6.34 7.5 8 7.5C9.3 7.5 10.41 6.66 10.83 5.5H16V7.5H18V5.5H19V3.5H10.83ZM8 5.5C7.45 5.5 7 5.05 7 4.5C7 3.95 7.45 3.5 8 3.5C8.55 3.5 9 3.95 9 4.5C9 5.05 8.55 5.5 8 5.5ZM17.11 9.5H6.89L5 15.19V22.5H7V20.5H17V22.5H19V15.19L17.11 9.5ZM9 18C8.45 18 8 17.55 8 17C8 16.45 8.45 16 9 16C9.55 16 10 16.45 10 17C10 17.55 9.55 18 9 18ZM15 18C14.45 18 14 17.55 14 17C14 16.45 14.45 16 15 16C15.55 16 16 16.45 16 17C16 17.55 15.55 18 15 18ZM7.67 13.5L8.33 11.5H15.67L16.33 13.5H7.67Z" fill="currentColor"/>
</svg>
