<svg width="24" height="24" viewBox="0 0 24 24" fill="none" xmlns="http://www.w3.org/2000/svg">
<path d="M21.995 6.5H17.815C17.925 6.19 17.995 5.85 17.995 5.5C17.995 3.84 16.655 2.5 14.995 2.5C13.945 2.5 13.035 3.04 12.495 3.85L11.995 4.52L11.495 3.84C10.955 3.04 10.045 2.5 8.995 2.5C7.335 2.5 5.995 3.84 5.995 5.5C5.995 5.85 6.065 6.19 6.175 6.5H2.005V21.5H21.995V6.5ZM14.995 4.5C15.545 4.5 15.995 4.95 15.995 5.5C15.995 6.05 15.545 6.5 14.995 6.5C14.445 6.5 13.995 6.05 13.995 5.5C13.995 4.95 14.445 4.5 14.995 4.5ZM8.995 4.5C9.545 4.5 9.995 4.95 9.995 5.5C9.995 6.05 9.545 6.5 8.995 6.5C8.445 6.5 7.995 6.05 7.995 5.5C7.995 4.95 8.445 4.5 8.995 4.5ZM19.995 19.5H3.995V17.5H19.995V19.5ZM19.995 14.5H3.995V8.5H9.075L6.995 11.33L8.615 12.5L11.995 7.9L15.375 12.5L16.995 11.33L14.915 8.5H19.995V14.5Z" fill="black"/>
</svg>
