<svg  viewBox="0 0 24 24" fill="none" xmlns="http://www.w3.org/2000/svg">
<path d="M1.22998 22.2644L15.23 17.2644L6.22998 8.26437L1.22998 22.2644Z" fill="currentColor"/>
<path d="M13.76 12.7944L20.23 6.31437L21.71 7.79438L22.77 6.73438L20.23 4.19438L12.7 11.7244L13.76 12.7944Z" fill="currentColor"/>
<path d="M10.17 6.26437L8.69998 7.73438L9.75998 8.79437L12.3 6.25437L9.75998 3.72438L8.69998 4.79438L10.17 6.26437Z" fill="currentColor"/>
<path d="M18.2 10.2344L14.7 13.7344L15.76 14.7944L18.23 12.3244L20.73 14.8144L21.79 13.7544L18.2 10.2344Z" fill="currentColor"/>
<path d="M15.2 5.23437L10.7 9.73438L11.76 10.7944L17.3 5.26437L13.77 1.73438L12.71 2.79437L15.2 5.23437Z" fill="currentColor"/>
</svg>
