<svg  viewBox="0 0 24 24" fill="none" xmlns="http://www.w3.org/2000/svg">
<path d="M15.49 7L16.86 6.37L17.49 5L18.12 6.37L19.49 7L18.12 7.63L17.49 9L16.86 7.63L15.49 7ZM20.5 14C21.6 14 22.5 13.1 22.5 12C22.5 10.9 20.5 8 20.5 8C20.5 8 18.5 10.9 18.5 12C18.5 13.1 19.4 14 20.5 14ZM1.5 22H5.5V11H1.5V22ZM9.74 9.5L15.5 11.65V11C15.5 8.58 13.78 6.56 11.5 6.1V4H13.5C14.07 4 14.6 4.17 15.05 4.45L16.48 3.02C15.65 2.39 14.63 2 13.5 2C12.02 2 8 2 8 2V4H9.5V6.11C7.72 6.48 6.3 7.79 5.75 9.5H9.74ZM22.5 17H13.5L11.41 16.27L11.74 15.33L13.5 16H17.5V14L9.47 11H7.5V20.02L14.5 22L22.5 19V17Z" fill="currentColor"/>
</svg>
