<svg width="24" height="24" viewBox="0 0 24 24" fill="none" xmlns="http://www.w3.org/2000/svg">
<path d="M15.9992 3.00098H16.9992V8.00098H15.9992V3.00098ZM14.9992 5.00098H12.9992V4.00098H14.9992V3.00098H11.9992V6.00098H13.9992V7.00098H11.9992V8.00098H14.9992V5.00098ZM17.9992 3.00098V8.00098H18.9992V6.00098H20.9992V3.00098H17.9992ZM19.9992 5.00098H18.9992V4.00098H19.9992V5.00098ZM20.9992 15.461L15.7292 14.851L13.2092 17.371C10.3792 15.931 8.05923 13.621 6.61923 10.781L9.14923 8.25098L8.53923 3.00098H3.02923C2.44923 13.181 10.8192 21.551 20.9992 20.971V15.461Z" fill="black"/>
</svg>
