<svg  viewBox="0 0 24 24" fill="none" xmlns="http://www.w3.org/2000/svg">
<path d="M20 21C18.61 21 17.22 20.53 16 19.68C13.56 21.39 10.44 21.39 7.99999 19.68C6.77999 20.53 5.38999 21 3.99999 21H1.99999V23H3.99999C5.37999 23 6.73999 22.65 7.99999 22.01C10.52 23.3 13.48 23.3 16 22.01C17.26 22.66 18.62 23 20 23H22V21H20ZM3.94999 19H3.99999C5.59999 19 7.01999 18.12 7.99999 17C8.97999 18.12 10.4 19 12 19C13.6 19 15.02 18.12 16 17C16.98 18.12 18.4 19 20 19H20.05L22.23 11.35L20 10.62V4H15V1H8.99999V4H3.99999V10.62L1.76999 11.35L3.94999 19ZM5.99999 6H18V9.97L12 8L5.99999 9.97V6Z" fill="currentColor"/>
</svg>
