<svg viewBox="0 0 24 24" fill="none" xmlns="http://www.w3.org/2000/svg">
<path d="M1.39 3.91531L9.63 12.1553L8.94 12.8753L6.87 10.7953C6.76 11.1953 6.61 11.5753 6.42 11.9153L8.17 13.6653L7.48 14.3853L5.85 12.7553C5.61 13.0453 5.35 13.3153 5.08 13.5553L6.71 15.1853L6.01 15.9053L4.27 14.1653C2.83 15.1253 1.34 15.5153 1 15.6153V19.6953H10.5L13.83 16.3653L19.77 22.3053L21.18 20.8953L2.81 2.50531L1.39 3.91531ZM18.51 15.3753L17.1 13.9653L21.58 9.48531L23 10.8953L18.51 15.3753ZM20.88 8.77531L16.4 13.2553L9.3 6.16531L13.8 1.69531L20.88 8.77531Z" fill="currentColor"/>
</svg>
