<svg viewBox="0 0 24 24" fill="none" xmlns="http://www.w3.org/2000/svg">
<path d="M17.3049 10.6953V12.6953H16.1349L20.6449 17.2053C21.6949 15.6253 22.3049 13.7353 22.3049 11.6953C22.3049 6.17531 17.8249 1.69531 12.3049 1.69531C10.2649 1.69531 8.37495 2.30531 6.79495 3.35531L14.1349 10.6953H17.3049ZM1.69495 3.91531L3.96495 6.18531C2.91495 7.76531 2.30495 9.65531 2.30495 11.6953C2.30495 17.2153 6.78495 21.6953 12.3049 21.6953C14.3449 21.6953 16.2349 21.0853 17.8149 20.0353L20.0849 22.3053L21.4949 20.8953L3.11495 2.50531L1.69495 3.91531ZM7.30495 10.6953H8.47495L10.4749 12.6953H7.30495V10.6953Z" fill="currentColor"/>
</svg>
