<svg width="24" height="24" viewBox="0 0 24 24" fill="none" xmlns="http://www.w3.org/2000/svg">
<path d="M13.025 9.18005C13.875 9.48005 14.535 10.15 14.845 11H21.975C21.505 6.28005 17.745 2.52005 13.025 2.05005V9.18005ZM11.025 14.82C9.86499 14.4 9.02499 13.3 9.02499 12C9.02499 10.7 9.86499 9.60005 11.025 9.18005V2.05005C5.97499 2.55005 2.02499 6.81005 2.02499 12C2.02499 17.19 5.97499 21.4501 11.025 21.9501V14.82ZM14.845 13C14.545 13.85 13.875 14.51 13.025 14.82V21.9501C17.745 21.4801 21.505 17.72 21.975 13H14.845Z" fill="black"/>
</svg>
