<svg  viewBox="0 0 24 24" fill="none" xmlns="http://www.w3.org/2000/svg">
<path d="M18.685 10.39L21.165 7.91L16.925 3.67L14.445 6.15L18.685 10.39ZM13.025 7.56L3.83501 16.76V21H8.07501L17.265 11.81L13.025 7.56ZM18.835 17.5C18.835 19.69 16.295 21 13.835 21C13.355 21 12.835 20.93 12.835 20.93C12.835 20.59 12.835 18.9 12.835 18.9C12.835 18.9 13.295 19 13.835 19C15.375 19 16.835 18.27 16.835 17.5C16.835 17.03 16.355 16.63 15.605 16.3L17.085 14.82C18.155 15.45 18.835 16.29 18.835 17.5ZM4.41501 13.35C3.44501 12.79 2.83501 12.06 2.83501 11C2.83501 9.2 4.72501 8.37 6.39501 7.64C7.42501 7.18 8.83501 6.56 8.83501 6C8.83501 5.59 8.05501 5 6.83501 5C5.59501 5 4.83501 5.61 4.83501 6H2.83501C2.83501 4.35 4.53501 3 6.83501 3C9.07501 3 10.835 4.32 10.835 6C10.835 7.87 8.90501 8.72 7.19501 9.47C6.25501 9.88 4.83501 10.5 4.83501 11C4.83501 11.31 5.26501 11.6 5.90501 11.86L4.41501 13.35Z" fill="currentColor"/>
</svg>
