<svg viewBox="0 0 24 24" fill="none" xmlns="http://www.w3.org/2000/svg">
<path d="M1.5 12.18V22.5H19.5V20H12.5V19H21.5V16.5H12.5V15.5H22.5V13H12.5V12H20.5V9.5H9.36L11.24 6.2L9.62 4.5L1.5 12.18ZM16.15 4.36L16.08 4.29C15.51 3.67 15.26 2.88 15.41 2.09L15.5 1.5H13.61L13.55 1.93C13.35 3.29 13.82 4.64 14.85 5.65L14.92 5.71C15.49 6.33 15.74 7.12 15.59 7.91L15.48 8.5H17.39L17.45 8.07C17.66 6.71 17.18 5.36 16.15 4.36ZM20.15 4.36L20.08 4.29C19.51 3.67 19.26 2.88 19.41 2.09L19.5 1.5H17.61L17.55 1.93C17.35 3.29 17.82 4.64 18.85 5.65L18.92 5.71C19.49 6.33 19.74 7.12 19.59 7.91L19.48 8.5H21.39L21.45 8.07C21.66 6.71 21.18 5.36 20.15 4.36Z" fill="currentColor"/>
</svg>
