<svg  viewBox="0 0 24 24" fill="none" xmlns="http://www.w3.org/2000/svg">
<path d="M20.9996 10.18V8L15.9996 2H0.999573V14H3.17957C3.59957 15.16 4.69957 16 5.99957 16C7.29957 16 8.39957 15.16 8.81957 14H17.1896C17.6696 15.34 19.0496 16.25 20.6096 15.94C21.7696 15.71 22.7196 14.77 22.9396 13.61C23.2496 12.05 22.3396 10.66 20.9996 10.18ZM18.3996 8H15.9996V5.12L18.3996 8ZM2.99957 4H6.99957V8H2.99957V4ZM5.99957 14C5.44957 14 4.99957 13.55 4.99957 13C4.99957 12.45 5.44957 12 5.99957 12C6.54957 12 6.99957 12.45 6.99957 13C6.99957 13.55 6.54957 14 5.99957 14ZM8.99957 12V10H11.9996V8H8.99957V4H13.9996V12H8.99957ZM19.9996 14C19.4496 14 18.9996 13.55 18.9996 13C18.9996 12.45 19.4496 12 19.9996 12C20.5496 12 20.9996 12.45 20.9996 13C20.9996 13.55 20.5496 14 19.9996 14Z" fill="currentColor"/>
<path d="M6.99957 19H10.9996V17L16.9996 20H12.9996V22L6.99957 19Z" fill="currentColor"/>
</svg>
