<svg  viewBox="0 0 24 24" fill="none" xmlns="http://www.w3.org/2000/svg">
<path d="M19.52 7.23L19.53 7.22L15.81 3.5L14.75 4.56L16.86 6.67C15.81 7.07 15.1 8.14 15.28 9.38C15.44 10.48 16.38 11.37 17.48 11.49C17.95 11.54 18.36 11.46 18.75 11.29V19.5H16.75V12H13.75V3H3.75V21H13.75V13.5H15.25V21H20.25V9C20.25 8.31 19.97 7.68 19.52 7.23ZM17.75 10C17.2 10 16.75 9.55 16.75 9C16.75 8.45 17.2 8 17.75 8C18.3 8 18.75 8.45 18.75 9C18.75 9.55 18.3 10 17.75 10ZM7.75 18V13.5H5.75L9.75 6V11H11.75L7.75 18Z" fill="currentColor"/>
</svg>
