<svg  viewBox="0 0 24 24" fill="none" xmlns="http://www.w3.org/2000/svg">
<path d="M19.8585 11.5015H18.4985V5.50151H12.4985V4.14151C12.4985 2.83151 11.5585 1.64151 10.2585 1.51151C8.75854 1.36151 7.49854 2.53151 7.49854 4.00151V5.50151H1.50854V11.3015H2.89854C4.20854 11.3015 5.39854 12.1815 5.64854 13.4615C5.97854 15.1815 4.66854 16.7015 2.99854 16.7015H1.49854V22.5015H7.29854V21.1015C7.29854 19.7915 8.17854 18.6015 9.45854 18.3515C11.1785 18.0215 12.6985 19.3315 12.6985 21.0015V22.5015H18.4985V16.5015H19.9985C21.4685 16.5015 22.6385 15.2415 22.4885 13.7415C22.3585 12.4415 21.1585 11.5015 19.8585 11.5015Z" fill="currentColor"/>
</svg>
