<svg width="24" height="24" viewBox="0 0 24 24" fill="none" xmlns="http://www.w3.org/2000/svg">
<path d="M19.8349 22.5549L18.2049 20.9249C18.1549 20.9249 18.1049 20.9449 18.0549 20.9449H14.2549C14.2549 18.2349 12.0949 17.9449 11.5549 17.9449C11.0149 17.9449 8.85495 18.2349 8.85495 20.9449H3.05495V15.1449C5.76495 15.1449 6.05495 12.9849 6.05495 12.4449C6.05495 11.9049 5.75495 9.74495 3.06495 9.74495V5.94495C3.06495 5.89495 3.08495 5.85495 3.08495 5.80495L1.44495 4.16495L2.85495 2.75495L21.2349 21.1349L19.8349 22.5549ZM20.0549 17.1149V14.9449C21.4349 14.9449 22.5549 13.8249 22.5549 12.4449C22.5549 11.0649 21.4349 9.94495 20.0549 9.94495V3.94495H14.0549C14.0549 2.56495 12.9349 1.44495 11.5549 1.44495C10.1749 1.44495 9.05495 2.56495 9.05495 3.94495H6.88495L20.0549 17.1149Z" fill="black"/>
</svg>
