<svg viewBox="0 0 24 24" fill="none" xmlns="http://www.w3.org/2000/svg">
<path d="M8.5 14.75C9.19036 14.75 9.75 14.1904 9.75 13.5C9.75 12.8096 9.19036 12.25 8.5 12.25C7.80964 12.25 7.25 12.8096 7.25 13.5C7.25 14.1904 7.80964 14.75 8.5 14.75Z" fill="currentColor"/>
<path d="M19.35 11.09C20.29 15.9 16.51 20.5 11.5 20.5C7.09 20.5 3.5 16.91 3.5 12.5C3.5 12.11 7.37 11.38 9.24 6.81C12.66 11 17.31 10.54 18.33 10.4L16.85 7.15L12.13 5L15.63 3.41C9.01 0.36 1.5 5.27 1.5 12.5C1.5 18.02 5.98 22.5 11.5 22.5C18.71 22.5 23.62 15.05 20.6 8.37L19.35 11.09Z" fill="currentColor"/>
<path d="M14.5 14.75C15.1904 14.75 15.75 14.1904 15.75 13.5C15.75 12.8096 15.1904 12.25 14.5 12.25C13.8096 12.25 13.25 12.8096 13.25 13.5C13.25 14.1904 13.8096 14.75 14.5 14.75Z" fill="currentColor"/>
<path d="M20.1 6.1L19 8.5L17.9 6.1L15.5 5L17.9 3.9L19 1.5L20.1 3.9L22.5 5L20.1 6.1Z" fill="currentColor"/>
</svg>
