<svg width="24" height="24" viewBox="0 0 24 24" fill="none" xmlns="http://www.w3.org/2000/svg">
<path d="M10.255 5.255C11.635 5.255 12.885 5.815 13.795 6.715L11.255 9.255H17.255V3.255L15.205 5.30501C13.935 4.03501 12.185 3.255 10.255 3.255C6.725 3.255 3.825 5.865 3.335 9.255H5.355C5.815 6.975 7.835 5.255 10.255 5.255ZM15.895 14.395C16.555 13.495 17.015 12.425 17.175 11.255H15.155C14.695 13.535 12.675 15.255 10.255 15.255C8.875 15.255 7.625 14.695 6.715 13.795L9.255 11.255H3.255V17.255L5.30501 15.205C6.57501 16.475 8.32501 17.255 10.255 17.255C11.805 17.255 13.235 16.745 14.395 15.895L19.255 20.745L20.745 19.255L15.895 14.395Z" fill="black"/>
</svg>
