<svg  viewBox="0 0 24 24" fill="none" xmlns="http://www.w3.org/2000/svg">
<path d="M10.62 19.75H4.40997V9.75H18.41V14.13L20.41 12.13V3.75H17.41V1.75H15.41V3.75H7.40997V1.75H5.40997V3.75H2.40997V21.75H12.62L10.62 19.75ZM15.95 22.25L12.41 18.71L13.82 17.3L15.94 19.42L20.18 15.18L21.59 16.59L15.95 22.25ZM9.81997 13.75L11.41 15.34L9.99997 16.75L8.40997 15.16L6.81997 16.75L5.40997 15.34L6.99997 13.75L5.40997 12.16L6.81997 10.75L8.40997 12.34L9.99997 10.75L11.41 12.16L9.81997 13.75Z" fill="currentColor"/>
</svg>
