<svg width="24" height="24" viewBox="0 0 24 24" fill="none" xmlns="http://www.w3.org/2000/svg">
<path d="M4.66998 6.89977C5.36998 6.18977 6.06998 5.54977 6.37998 5.67977C6.87998 5.87977 6.37998 6.70977 6.07998 7.19977C5.82998 7.61977 3.21998 11.0898 3.21998 13.5098C3.21998 14.7898 3.69998 15.8498 4.55998 16.4898C5.30998 17.0498 6.29998 17.2198 7.19998 16.9498C8.26998 16.6398 9.14998 15.5498 10.26 14.1798C11.47 12.6898 13.09 10.7398 14.34 10.7398C15.97 10.7398 15.99 11.7498 16.1 12.5298C12.32 13.1698 10.72 16.1998 10.72 17.8998C10.72 19.5998 12.16 20.9898 13.93 20.9898C15.56 20.9898 18.22 19.6598 18.62 14.8898H21.08V12.3898H18.61C18.46 10.7398 17.52 8.18977 14.58 8.18977C12.33 8.18977 10.4 10.0998 9.63998 11.0298C9.05998 11.7598 7.57998 13.5098 7.34998 13.7498C7.09998 14.0498 6.66998 14.5898 6.23998 14.5898C5.78998 14.5898 5.51998 13.7598 5.87998 12.6698C6.22998 11.5798 7.27998 9.80977 7.72998 9.14977C8.50998 8.00977 9.02998 7.22977 9.02998 5.86977C9.02998 3.69977 7.38998 3.00977 6.51998 3.00977C5.19998 3.00977 4.04998 4.00977 3.79998 4.25977C3.43998 4.61977 3.13998 4.91977 2.91998 5.18977L4.66998 6.89977ZM13.96 18.5598C13.65 18.5598 13.22 18.2998 13.22 17.8398C13.22 17.2398 13.95 15.6398 16.09 15.0798C15.79 17.7698 14.66 18.5598 13.96 18.5598Z" fill="black"/>
</svg>
