<svg viewBox="0 0 24 24" fill="none" xmlns="http://www.w3.org/2000/svg">
<path d="M8.56494 3.42543V4.31543L10.5649 6.31543V3.42543H14.5649V7.42543H11.6749L13.6749 9.42543H14.5649V10.3154L16.5649 12.3154V9.42543H20.5649V13.4254H17.6749L19.6749 15.4254H20.5649V16.3154L22.5649 18.3154V1.42543H5.67494L7.67494 3.42543H8.56494ZM16.5649 3.42543H20.5649V7.42543H16.5649V3.42543ZM1.97494 0.56543L0.564941 1.97543L2.56494 3.97543V21.4254H20.0149L22.0249 23.4354L23.4349 22.0254L1.97494 0.56543ZM10.5649 11.9754L12.0149 13.4254H10.5649V11.9754ZM4.56494 5.97543L6.01494 7.42543H4.56494V5.97543ZM8.56494 19.4254H4.56494V15.4254H8.56494V19.4254ZM8.56494 13.4254H4.56494V9.42543H8.01494L8.56494 9.97543V13.4254ZM14.5649 19.4254H10.5649V15.4254H14.0149L14.5649 15.9754V19.4254ZM16.5649 19.4254V17.9754L18.0149 19.4254H16.5649Z" fill="currentColor"/>
</svg>
