<svg  viewBox="0 0 24 24" fill="none" xmlns="http://www.w3.org/2000/svg">
<path d="M16.38 13.1552H15.39L12.85 15.6952V16.6852L18.86 22.6952L22.4 19.1552L16.38 13.1552Z" fill="currentColor"/>
<path d="M17.35 10.4752L18.76 9.06516L20.88 11.1852C22.05 10.0152 22.05 8.11516 20.88 6.94516L17.34 3.40516L15.93 4.81516V1.99516L15.23 1.28516L11.69 4.82516L12.4 5.53516H15.23L13.82 6.94516L14.88 8.00516L11.99 10.8952L7.86001 6.76516V5.34516L4.84001 2.32516L2.01001 5.15516L5.04001 8.18516H6.45001L10.58 12.3152L9.73001 13.1652H7.61001L1.60001 19.1752L5.14001 22.7152L11.15 16.7052V14.5852L16.3 9.43516L17.35 10.4752Z" fill="currentColor"/>
</svg>
