<svg width="24" height="24" viewBox="0 0 24 24" fill="none" xmlns="http://www.w3.org/2000/svg">
<path d="M12.7099 3.34473C16.5799 3.34473 19.7099 6.47473 19.7099 10.3447V11.3447H15.7099V11.5147L21.7099 17.5147V10.3447C21.7099 5.37473 17.6799 1.34473 12.7099 1.34473C10.6899 1.34473 8.8299 2.01473 7.3299 3.14473L8.7599 4.57473C9.8799 3.79473 11.2399 3.34473 12.7099 3.34473Z" fill="black"/>
<path d="M2.8099 1.44473L1.3999 2.85473L4.7299 6.18473C4.0799 7.43473 3.7099 8.84473 3.7099 10.3447V19.3447H9.7099V11.3447H5.7099V10.3447C5.7099 9.40473 5.8999 8.51473 6.2299 7.69473L15.7099 17.1747V19.3447H17.8799L18.8799 20.3447H12.7099V22.3447H20.8799L21.1899 22.6547L22.5999 21.2447L2.8099 1.44473Z" fill="black"/>
</svg>
