<svg viewBox="0 0 24 24" fill="none" xmlns="http://www.w3.org/2000/svg">
<path d="M17.7501 11.9847L22.4301 7.30469L16.6801 1.55469L12.0001 6.23469L7.31006 1.55469L1.56006 7.31469L6.24006 12.0047L1.56006 16.6847L7.31006 22.4347L11.9901 17.7547L16.6801 22.4447L22.4401 16.6847L17.7501 11.9847ZM12.0101 8.97469C12.5601 8.97469 13.0101 9.42469 13.0101 9.97469C13.0101 10.5247 12.5601 10.9747 12.0101 10.9747C11.4601 10.9747 11.0101 10.5247 11.0101 9.97469C11.0101 9.42469 11.4601 8.97469 12.0101 8.97469ZM7.30006 10.9347L3.67006 7.31469L7.30006 3.68469L10.9201 7.30469L7.30006 10.9347ZM10.0101 12.9747C9.46006 12.9747 9.01006 12.5247 9.01006 11.9747C9.01006 11.4247 9.46006 10.9747 10.0101 10.9747C10.5601 10.9747 11.0101 11.4247 11.0101 11.9747C11.0101 12.5247 10.5601 12.9747 10.0101 12.9747ZM12.0101 14.9747C11.4601 14.9747 11.0101 14.5247 11.0101 13.9747C11.0101 13.4247 11.4601 12.9747 12.0101 12.9747C12.5601 12.9747 13.0101 13.4247 13.0101 13.9747C13.0101 14.5247 12.5601 14.9747 12.0101 14.9747ZM14.0101 10.9747C14.5601 10.9747 15.0101 11.4247 15.0101 11.9747C15.0101 12.5247 14.5601 12.9747 14.0101 12.9747C13.4601 12.9747 13.0101 12.5247 13.0101 11.9747C13.0101 11.4247 13.4601 10.9747 14.0101 10.9747ZM16.6701 20.3147L13.0401 16.6947L16.6701 13.0647L20.2901 16.6847L16.6701 20.3147Z" fill="currentColor"/>
</svg>
