<svg width="24" height="24" viewBox="0 0 24 24" fill="none" xmlns="http://www.w3.org/2000/svg">
<path d="M6.74001 3.28518C7.86001 2.52518 9.22001 2.08518 10.71 2.08518C14.64 2.08518 17.71 5.15518 17.71 9.08518C17.71 10.3452 17.33 11.7352 16.64 12.9852C16.62 13.0252 16.59 13.0652 16.56 13.1152L15.08 11.6352C15.48 10.7752 15.71 9.88518 15.71 9.08518C15.71 6.28518 13.51 4.08518 10.71 4.08518C9.79001 4.08518 8.95001 4.34518 8.21001 4.75518L6.74001 3.28518ZM17.92 14.4652L19.35 15.8952C20.82 14.0152 21.71 11.6552 21.71 9.08518C21.71 6.04518 20.48 3.29518 18.49 1.30518L17.07 2.72518C18.7 4.34518 19.71 6.59518 19.71 9.08518C19.71 11.1052 19.04 12.9652 17.92 14.4652ZM10.71 6.58518C10.5 6.58518 10.31 6.61518 10.12 6.66518L13.13 9.67518C13.18 9.48518 13.21 9.29518 13.21 9.08518C13.21 7.70518 12.09 6.58518 10.71 6.58518ZM21.9 21.2752L3.52001 2.89518L2.10001 4.30518L4.23001 6.43518C3.90001 7.24518 3.71001 8.13518 3.71001 9.08518H5.71001C5.71001 8.72518 5.76001 8.37518 5.83001 8.03518L12.44 14.6452C11.56 15.3252 10.66 16.0552 10.17 17.5452C9.67001 19.0452 9.17001 19.5552 8.46001 19.9252C8.27001 20.0252 8.00001 20.0852 7.71001 20.0852C6.61001 20.0852 5.71001 19.1852 5.71001 18.0852H3.71001C3.71001 20.2952 5.50001 22.0852 7.71001 22.0852C8.28001 22.0852 8.84001 21.9652 9.35001 21.7352C10.71 21.0252 11.48 20.0052 12.08 18.1852C12.4 17.2052 12.98 16.7552 13.79 16.1352C13.82 16.1152 13.84 16.0952 13.87 16.0752L20.49 22.6952L21.9 21.2752Z" fill="black"/>
</svg>
