<svg  viewBox="0 0 24 24" fill="none" xmlns="http://www.w3.org/2000/svg">
<path d="M3.11507 2.50495L1.69507 3.91495L3.96507 6.18495C2.91507 7.76495 2.30507 9.65495 2.30507 11.6949C2.30507 17.2149 6.78507 21.6949 12.3051 21.6949C14.3451 21.6949 16.2351 21.0849 17.8151 20.0349L20.0851 22.3049L21.4951 20.8949L3.11507 2.50495ZM12.3051 19.6949C7.89507 19.6949 4.30507 16.1049 4.30507 11.6949C4.30507 10.2149 4.71507 8.83495 5.42507 7.63495L16.3651 18.5749C15.1651 19.2849 13.7851 19.6949 12.3051 19.6949ZM8.24507 4.81495L6.79507 3.35495C8.37507 2.30495 10.2651 1.69495 12.3051 1.69495C17.8251 1.69495 22.3051 6.17495 22.3051 11.6949C22.3051 13.7349 21.6951 15.6249 20.6451 17.2049L19.1851 15.7449C19.8951 14.5549 20.3051 13.1749 20.3051 11.6949C20.3051 7.28495 16.7151 3.69495 12.3051 3.69495C10.8251 3.69495 9.44507 4.10495 8.24507 4.81495Z" fill="currentColor"/>
</svg>
