<svg  viewBox="0 0 24 24" fill="none" xmlns="http://www.w3.org/2000/svg">
<path d="M13.835 5.25C14.935 5.25 15.835 4.35 15.835 3.25C15.835 2.15 14.935 1.25 13.835 1.25C12.735 1.25 11.835 2.15 11.835 3.25C11.835 4.35 12.735 5.25 13.835 5.25ZM17.835 10.53C16.605 10.16 15.615 9.36 15.035 8.35L14.035 6.75C13.625 6.1 12.925 5.75 12.195 5.75C11.415 5.75 10.605 6.25 10.415 7.19C10.225 8.13 7.33501 22.75 7.33501 22.75H9.43501L11.235 14.75L13.335 16.75V22.75H15.335V15.25L13.235 13.25L13.835 10.25C14.835 11.4 16.245 12.26 17.835 12.59V22.75H19.335V8.75H17.835V10.53ZM7.76501 12.88L4.66501 12.28L6.00501 5.41L9.13501 6.02L7.76501 12.88Z" fill="currentColor"/>
</svg>
