<svg width="24" height="24" viewBox="0 0 24 24" fill="none" xmlns="http://www.w3.org/2000/svg">
<path d="M20 8.50142H17V6.71142C17 4.10142 15.09 1.77142 12.49 1.52142C9.51 1.24142 7 3.58142 7 6.50142V8.50142H4V22.5014H20V8.50142ZM12 17.5014C10.9 17.5014 10 16.6014 10 15.5014C10 14.4014 10.9 13.5014 12 13.5014C13.1 13.5014 14 14.4014 14 15.5014C14 16.6014 13.1 17.5014 12 17.5014ZM9 8.50142V6.50142C9 4.84142 10.34 3.50142 12 3.50142C13.66 3.50142 15 4.84142 15 6.50142V8.50142H9Z" fill="black"/>
</svg>
