<svg  viewBox="0 0 24 24" fill="none" xmlns="http://www.w3.org/2000/svg">
<path d="M21 4C19.89 3.65 18.67 3.5 17.5 3.5C15.55 3.5 13.45 3.9 12 5C10.55 3.9 8.45 3.5 6.5 3.5C4.55 3.5 2.45 3.9 1 5V20.5C2.45 19.4 4.55 19 6.5 19C8.45 19 10.55 19.4 12 20.5C13.45 19.4 15.55 19 17.5 19C18.67 19 19.89 19.15 21 19.5C21.75 19.75 22.4 20.05 23 20.5V5C22.4 4.55 21.75 4.25 21 4ZM21 17.5C19.9 17.15 18.7 17 17.5 17C15.8 17 13.35 17.65 12 18.5V7C13.35 6.15 15.8 5.5 17.5 5.5C18.7 5.5 19.9 5.65 21 6V17.5Z" fill="currentColor"/>
</svg>
