<svg  viewBox="0 0 24 24" fill="none" xmlns="http://www.w3.org/2000/svg">
<path d="M19.4818 12.8644C17.8218 8.54437 11.6518 8.49438 13.9918 1.48438C9.52183 3.49437 5.98183 8.66438 9.48183 15.4944C4.53183 13.4144 6.70183 8.20438 6.70183 8.20438C6.70183 8.20438 4.00183 9.86438 4.00183 14.8844C4.38183 20.4844 9.11183 22.2044 10.8118 22.4244C13.2418 22.7344 15.8718 22.2844 17.7618 20.5544C19.8418 18.6244 20.6018 15.5444 19.4818 12.8644ZM10.2018 17.8944C11.6418 17.5444 12.3818 16.5044 12.5818 15.5844C12.9118 14.1544 11.6218 12.7544 12.4918 10.4944C12.8218 12.3644 15.7618 13.5344 15.7618 15.5744C15.8418 18.1044 13.1018 20.2744 10.2018 17.8944Z" fill="currentColor"/>
</svg>
