<svg  viewBox="0 0 24 24" fill="none" xmlns="http://www.w3.org/2000/svg">
<path d="M7.64502 18C6.54502 18 5.65502 18.9 5.65502 20C5.65502 21.1 6.54502 22 7.64502 22C8.74502 22 9.64502 21.1 9.64502 20C9.64502 18.9 8.74502 18 7.64502 18ZM1.64502 4H3.64502L7.24502 11.59L4.26502 17H19.645V15H7.64502L8.74502 13H17.385L22.355 4H5.85502L4.91502 2H1.64502V4ZM17.645 18C16.545 18 15.655 18.9 15.655 20C15.655 21.1 16.545 22 17.645 22C18.745 22 19.645 21.1 19.645 20C19.645 18.9 18.745 18 17.645 18Z" fill="currentColor"/>
</svg>
