<svg  viewBox="0 0 24 24" fill="none" xmlns="http://www.w3.org/2000/svg">
<path d="M16.5 11.0013C17.2 11.0013 17.87 11.1013 18.5 11.2913V8.0013H15.5V6.2113C15.5 3.6013 13.59 1.2713 10.99 1.0213C8.01 0.741299 5.5 3.0813 5.5 6.0013V8.0013H2.5V22.0013H10.76C9.97 20.8713 9.5 19.4913 9.5 18.0013C9.5 14.1313 12.63 11.0013 16.5 11.0013ZM7.5 6.0013C7.5 4.3413 8.84 3.0013 10.5 3.0013C12.16 3.0013 13.5 4.3413 13.5 6.0013V8.0013H7.5V6.0013ZM16.5 13.0013C13.74 13.0013 11.5 15.2413 11.5 18.0013C11.5 20.7613 13.74 23.0013 16.5 23.0013C19.26 23.0013 21.5 20.7613 21.5 18.0013C21.5 15.2413 19.26 13.0013 16.5 13.0013ZM18.15 20.3513L16 18.2013V15.0013H17V17.7913L18.85 19.6413L18.15 20.3513Z" fill="currentColor"/>
</svg>
