<svg width="24" height="24" viewBox="0 0 24 24" fill="none" xmlns="http://www.w3.org/2000/svg">
<path d="M13.5 3C8.53 3 4.5 7.03 4.5 12H1.5L5.5 16L9.5 12H6.5C6.5 8.14 9.64 5 13.5 5C17.36 5 20.5 8.14 20.5 12C20.5 15.86 17.36 19 13.5 19C11.6 19 9.88 18.24 8.62 17.01L7.2 18.42C8.82 20.01 11.05 21 13.5 21C18.47 21 22.5 16.97 22.5 12C22.5 7.03 18.47 3 13.5 3ZM15.5 11V10C15.5 8.9 14.6 8 13.5 8C12.4 8 11.5 8.9 11.5 10V11H10.5V16H16.5V11H15.5ZM14.5 11H12.5V10C12.5 9.45 12.95 9 13.5 9C14.05 9 14.5 9.45 14.5 10V11Z" fill="black"/>
</svg>
