<svg viewBox="0 0 24 24" fill="none" xmlns="http://www.w3.org/2000/svg">
<path d="M12.9983 6.99865H10.9983V10.9986H6.99834V12.9986H10.9983V16.9986H12.9983V12.9986H16.9983V10.9986H12.9983V6.99865ZM12.7283 2.02865C6.64834 1.58865 1.58834 6.64865 2.02834 12.7286C2.40834 18.0086 7.02834 21.9986 12.3183 21.9986H21.9983V12.3186C21.9983 7.01865 18.0183 2.40865 12.7283 2.02865ZM11.9983 19.9986C7.58834 19.9986 3.99834 16.4086 3.99834 11.9986C3.99834 7.58865 7.58834 3.99865 11.9983 3.99865C16.4083 3.99865 19.9983 7.58865 19.9983 11.9986C19.9983 16.4086 16.4083 19.9986 11.9983 19.9986Z" fill="currentColor"/>
</svg>
