<svg width="24" height="24" viewBox="0 0 24 24" fill="none" xmlns="http://www.w3.org/2000/svg">
<path d="M11.42 1.58496H1.58997V11.415L12.58 22.415C12.58 22.415 13.63 21.365 13.99 20.995L22.41 12.585L11.42 1.58496ZM5.08997 6.58496C4.25997 6.58496 3.58997 5.91496 3.58997 5.08496C3.58997 4.25496 4.25997 3.58496 5.08997 3.58496C5.91997 3.58496 6.58997 4.25496 6.58997 5.08496C6.58997 5.91496 5.91997 6.58496 5.08997 6.58496ZM12.59 19.125L8.31997 14.855C7.86997 14.395 7.58997 13.775 7.58997 13.085C7.58997 11.705 8.70997 10.585 10.09 10.585C10.78 10.585 11.41 10.865 11.86 11.325L12.59 12.045L13.32 11.315C13.77 10.865 14.4 10.585 15.09 10.585C16.47 10.585 17.59 11.705 17.59 13.085C17.59 13.775 17.31 14.405 16.86 14.855L12.59 19.125Z" fill="black"/>
</svg>
