<svg width="24" height="24" viewBox="0 0 24 24" fill="none" xmlns="http://www.w3.org/2000/svg">
<path d="M14.5 3H2.5V5H14.5V3Z" fill="black"/>
<path d="M7 17.5H10V15H12.5V12H10V9.5H7V12H4.5V15H7V17.5Z" fill="black"/>
<path d="M13.5 6H3.5C2.4 6 1.5 6.9 1.5 8V19C1.5 20.1 2.4 21 3.5 21H13.5C14.6 21 15.5 20.1 15.5 19V8C15.5 6.9 14.6 6 13.5 6ZM13.5 19H3.5V8H13.5V19Z" fill="black"/>
<path d="M19.5 6C17.82 6 16.5 7.76 16.5 10C16.5 11.77 17.33 13.22 18.5 13.76V20C18.5 20.55 18.95 21 19.5 21C20.05 21 20.5 20.55 20.5 20V13.76C21.67 13.22 22.5 11.77 22.5 10C22.5 7.76 21.18 6 19.5 6ZM19.5 12C19.09 12 18.5 11.22 18.5 10C18.5 8.78 19.09 8 19.5 8C19.91 8 20.5 8.78 20.5 10C20.5 11.22 19.91 12 19.5 12Z" fill="black"/>
</svg>
