<svg  viewBox="0 0 24 24" fill="none" xmlns="http://www.w3.org/2000/svg">
<path d="M14.92 11.0902V5.49023C14.92 3.83023 13.58 2.49023 11.92 2.49023C10.38 2.49023 9.12998 3.65023 8.95998 5.14023L14.92 11.0902ZM18.92 11.4902H17.22C17.22 12.0702 17.12 12.6202 16.95 13.1302L18.22 14.4002C18.66 13.5202 18.92 12.5302 18.92 11.4902ZM4.32998 3.35023L2.91998 4.76023L8.91998 10.7602V11.4902C8.91998 13.1502 10.26 14.4902 11.92 14.4902C12.15 14.4902 12.36 14.4602 12.57 14.4102L14.23 16.0702C13.52 16.4002 12.73 16.5902 11.92 16.5902C9.15998 16.5902 6.61998 14.4902 6.61998 11.4902H4.91998C4.91998 14.9002 7.63998 17.7202 10.92 18.2102V21.4902H12.92V18.2102C13.83 18.0802 14.69 17.7602 15.47 17.3102L19.67 21.5102L21.08 20.1002L4.32998 3.35023Z" fill="currentColor"/>
</svg>
