<svg viewBox="0 0 24 24" fill="none" xmlns="http://www.w3.org/2000/svg">
<path d="M10.705 4.33984C10.705 2.67984 9.36502 1.33984 7.70502 1.33984C7.08502 1.33984 6.51502 1.52984 6.03502 1.83984L10.185 5.98984C10.505 5.51984 10.705 4.94984 10.705 4.33984Z" fill="currentColor"/>
<path d="M14.705 3.33984H18.705V14.5098L20.705 16.5098V1.33984H12.705V8.50984L14.705 10.5098V3.33984Z" fill="currentColor"/>
<path d="M2.80502 1.43984L1.39502 2.84984L5.87502 7.33984H4.70502L5.70502 17.3398H6.70502C6.70502 19.5498 6.70502 21.3398 6.70502 21.3398H14.705V16.1698L21.195 22.6598L22.605 21.2498L2.80502 1.43984ZM12.705 19.3398H8.70502V17.3398H9.70502L10.265 11.7298L12.705 14.1698V19.3398Z" fill="currentColor"/>
</svg>
