<svg  viewBox="0 0 24 24" fill="none" xmlns="http://www.w3.org/2000/svg">
<path d="M14.025 13.9641L15.725 11.0241C15.725 11.0241 15.635 10.9441 15.495 10.8441L14.025 9.68414L14.015 9.70414C14.045 9.46414 14.065 9.23414 14.065 8.99414C14.065 8.75414 14.045 8.52414 14.005 8.30414L14.015 8.31414L15.725 6.97414L14.025 4.02414L12.015 4.83414V4.84414C11.645 4.56414 11.245 4.32414 10.815 4.14414H10.825L10.525 1.99414H7.11503L6.80503 4.14414H6.81503C6.38503 4.32414 5.98503 4.56414 5.61503 4.84414V4.83414L3.60503 4.02414L1.90503 6.97414L3.60503 8.31414L3.61503 8.30414C3.58503 8.52414 3.56503 8.75414 3.56503 8.99414C3.56503 9.23414 3.58503 9.46414 3.61503 9.70414L3.60503 9.68414L2.13503 10.8441C2.00503 10.9441 1.90503 11.0241 1.90503 11.0241L3.60503 13.9641L5.62503 13.1641L5.60503 13.1341C5.97503 13.4241 6.37503 13.6641 6.81503 13.8441H6.80503L7.11503 15.9941H10.515C10.515 15.9941 10.535 15.8641 10.555 15.6941L10.825 13.8441H10.815C11.255 13.6641 11.655 13.4241 12.025 13.1341L12.005 13.1641L14.025 13.9641ZM8.81503 10.9941C7.71503 10.9941 6.81503 10.0941 6.81503 8.99414C6.81503 7.89414 7.71503 6.99414 8.81503 6.99414C9.91503 6.99414 10.815 7.89414 10.815 8.99414C10.815 10.0941 9.91503 10.9941 8.81503 10.9941Z" fill="currentColor"/>
<path d="M20.985 17.9341L20.975 17.9441C20.995 17.7941 21.005 17.6441 21.005 17.4941C21.005 17.3441 20.995 17.1941 20.965 17.0541L20.975 17.0641L22.075 16.2041L20.985 14.3041L19.695 14.8241V14.8341C19.455 14.6541 19.205 14.5041 18.925 14.3841H18.935L18.735 12.9941H16.545L16.345 14.3741H16.355C16.075 14.4941 15.825 14.6441 15.585 14.8241V14.8141L14.295 14.2941L13.205 16.1941L14.295 17.0541L14.305 17.0441C14.285 17.1841 14.275 17.3341 14.275 17.4841C14.275 17.6341 14.285 17.7841 14.305 17.9441L14.295 17.9341L13.355 18.6841C13.275 18.7441 13.205 18.8041 13.205 18.8041L14.295 20.6941L15.595 20.1841L15.585 20.1641C15.825 20.3541 16.085 20.5041 16.365 20.6241H16.355L16.555 22.0041H18.745C18.745 22.0041 18.755 21.9241 18.775 21.8141L18.945 20.6241H18.935C19.215 20.5041 19.475 20.3541 19.715 20.1641L19.705 20.1841L21.005 20.6941L22.095 18.8041C22.095 18.8041 22.035 18.7541 21.945 18.6841L20.985 17.9341ZM17.635 18.7841C16.925 18.7841 16.345 18.2041 16.345 17.4941C16.345 16.7841 16.925 16.2041 17.635 16.2041C18.345 16.2041 18.925 16.7841 18.925 17.4941C18.925 18.2041 18.345 18.7841 17.635 18.7841Z" fill="currentColor"/>
</svg>
