<svg  viewBox="0 0 24 24" fill="none" xmlns="http://www.w3.org/2000/svg">
<path d="M6.12 9C6 9 18 9 17.88 9Z" fill="currentColor"/>
<path d="M17.88 9C17.95 8.71 18 8.41 18 8.09C18 6.78 17.35 5.56 16.26 4.84L12 2L7.74 4.84C6.65 5.56 6 6.78 6 8.09C6 8.41 6.05 8.71 6.12 9" fill="currentColor"/>
<path d="M24 8C24 6.9 22 5 22 5C22 5 20 6.9 20 8C20 8.74 20.4 9.38 21 9.72V14H19V10H5V14H3V9.72C3.6 9.38 4 8.74 4 8C4 6.9 2 5 2 5C2 5 0 6.9 0 8C0 8.74 0.4 9.38 1 9.72V22H10V16H14V22H23V9.72C23.6 9.38 24 8.74 24 8Z" fill="currentColor"/>
</svg>
