<svg width="24" height="24" viewBox="0 0 24 24" fill="none" xmlns="http://www.w3.org/2000/svg">
<path d="M22.82 12.0097L18.83 15.9997L17.02 14.1897L19.2 11.9997L12 4.79969L9.80999 6.98969L7.99999 5.16969L11.99 1.17969L22.82 12.0097ZM21.19 21.1897L19.78 22.5997L16 18.8297L12.01 22.8197L1.17999 11.9897L5.16999 7.99969L1.38999 4.21969L2.79999 2.80969L21.19 21.1897ZM14.19 17.0197L12.8 15.6297L12 16.4297L7.57999 11.9997L8.37999 11.1997L6.97999 9.80969L4.79999 11.9997L12 19.1997L14.19 17.0197ZM16.42 11.9997L12 7.57969L11.2 8.37969L15.62 12.7997L16.42 11.9997Z" fill="black"/>
</svg>
