<svg  viewBox="0 0 24 24" fill="none" xmlns="http://www.w3.org/2000/svg">
<path d="M13.46 8.69531V9.61531L15.21 11.3653V8.69531H16.71V12.8653L19.71 15.8653V5.69531H15.71V1.69531H9.70998V5.69531H9.53998L12.54 8.69531H13.46ZM11.21 3.19531H14.21V5.69531H11.21V3.19531ZM21.9 20.8853L3.51998 2.50531L2.09998 3.91531L5.70998 7.52531V20.6953H7.70998V21.6953H9.70998V20.6953H15.71V21.6953H17.71V20.6953H18.88L20.49 22.3053L21.9 20.8853ZM8.70998 17.6953V10.5253L10.21 12.0253V17.6953H8.70998ZM11.96 17.6953V13.7753L13.46 15.2753V17.6953H11.96Z" fill="currentColor"/>
</svg>
