<svg viewBox="0 0 24 24" fill="none" xmlns="http://www.w3.org/2000/svg">
<path d="M11.595 7.41453L8.135 3.95453L9.655 2.29453H15.655L17.485 4.29453H22.655V18.4645L17.535 13.3445C17.615 13.0045 17.655 12.6545 17.655 12.2945C17.655 9.53453 15.415 7.29453 12.655 7.29453C12.295 7.29453 11.945 7.33453 11.595 7.41453ZM21.145 22.6045L18.825 20.2945H2.655V4.29453H2.825L1.345 2.80453L2.755 1.39453L22.555 21.1945L21.145 22.6045ZM15.145 16.6145L13.645 15.1145C13.325 15.2145 13.005 15.2945 12.655 15.2945C10.995 15.2945 9.655 13.9545 9.655 12.2945C9.655 11.9445 9.735 11.6245 9.845 11.3145L8.345 9.81453C7.905 10.5345 7.655 11.3845 7.655 12.2945C7.655 15.0545 9.895 17.2945 12.655 17.2945C13.565 17.2945 14.415 17.0445 15.145 16.6145Z" fill="currentColor"/>
</svg>
