<svg viewBox="0 0 24 24" fill="none" xmlns="http://www.w3.org/2000/svg">
<path d="M11.215 7.37547L6.83501 2.99547C7.90501 2.54547 9.07501 2.29547 10.305 2.29547C11.865 2.29547 13.335 2.69547 14.605 3.39547L11.215 7.37547ZM21.495 20.4855L3.11501 2.10547L1.69501 3.51547L9.66501 11.4855L5.57501 16.2955H14.475L15.605 17.4255C14.725 17.7555 14.135 18.6755 14.345 19.7055C14.495 20.4655 15.125 21.0955 15.885 21.2455C16.915 21.4555 17.835 20.8655 18.165 19.9855L20.075 21.8955L21.495 20.4855ZM6.30501 17.2955C5.20501 17.2955 4.30501 18.1955 4.30501 19.2955C4.30501 20.3955 5.20501 21.2955 6.30501 21.2955C7.40501 21.2955 8.30501 20.3955 8.30501 19.2955C8.30501 18.1955 7.40501 17.2955 6.30501 17.2955ZM17.305 5.56547C17.885 4.88547 18.275 4.29547 18.955 4.29547C19.725 4.29547 20.305 4.95547 20.305 5.77547V6.29547H22.305V5.77547C22.305 3.85547 20.825 2.29547 18.955 2.29547C17.295 2.29547 16.415 3.56547 15.775 4.32547L12.275 8.43547L17.305 13.4655V5.56547Z" fill="currentColor"/>
</svg>
