<svg  viewBox="0 0 24 24" fill="none" xmlns="http://www.w3.org/2000/svg">
<path d="M6.49498 2.64531C7.95498 1.85531 10.195 1.69531 12.715 1.69531C17.135 1.69531 20.715 2.19531 20.715 5.69531V15.6953C20.715 16.0453 20.635 16.3653 20.525 16.6753L14.545 10.6953H18.715V5.69531H9.54498L6.49498 2.64531ZM20.495 22.3053L18.885 20.6953H16.715V18.6953H8.71498V20.6953H5.71498V17.9153C5.10498 17.3653 4.71498 16.5753 4.71498 15.6953V6.52531L2.10498 3.91531L3.51498 2.50531L21.895 20.8853L20.495 22.3053ZM9.71498 15.1953C9.71498 14.3653 9.04498 13.6953 8.21498 13.6953C7.38498 13.6953 6.71498 14.3653 6.71498 15.1953C6.71498 16.0253 7.38498 16.6953 8.21498 16.6953C9.04498 16.6953 9.71498 16.0253 9.71498 15.1953ZM8.88498 10.6953L6.71498 8.52531V10.6953H8.88498Z" fill="currentColor"/>
</svg>
