<svg width="24" height="24" viewBox="0 0 24 24" fill="none" xmlns="http://www.w3.org/2000/svg">
<path d="M12.71 1.69507C13.81 1.69507 14.71 2.59507 14.71 3.69507C14.71 4.79507 13.81 5.69507 12.71 5.69507C11.61 5.69507 10.71 4.79507 10.71 3.69507C10.71 2.59507 11.61 1.69507 12.71 1.69507ZM10.71 19.6951C9.05001 19.6951 7.71001 18.3551 7.71001 16.6951C7.71001 15.3851 8.55001 14.2851 9.71001 13.8651V11.7951C7.43001 12.2551 5.71001 14.2751 5.71001 16.6951C5.71001 19.4551 7.95001 21.6951 10.71 21.6951C13.13 21.6951 15.15 19.9751 15.61 17.6951H13.54C13.13 18.8551 12.02 19.6951 10.71 19.6951ZM21.9 20.8851L3.52001 2.50507L2.10001 3.91507L10.71 12.5251V16.6951H14.88L20.49 22.3051L21.9 20.8851ZM19.71 10.6951C18.17 10.7151 16.62 9.94507 15.64 8.86507L14.35 7.43507C14.11 7.19507 13.91 7.07507 13.72 6.97507C13.36 6.78507 13 6.67507 12.52 6.71507C12.03 6.75507 11.61 6.98507 11.29 7.32507L14.71 10.7451C16 11.8151 17.96 12.6851 19.71 12.6951V10.6951Z" fill="black"/>
</svg>
