<svg  viewBox="0 0 24 24" fill="none" xmlns="http://www.w3.org/2000/svg">
<path d="M16.69 21.8105C18.35 21.8105 19.69 20.4705 19.69 18.8105C19.69 17.1505 18.35 15.8105 16.69 15.8105C15.39 15.8105 14.29 16.6505 13.87 17.8105H8.83L10.82 14.7505C11.11 14.7905 11.4 14.8105 11.69 14.8105C11.98 14.8105 12.27 14.7905 12.56 14.7505L13.58 16.3205C14 15.7905 14.54 15.3705 15.18 15.1105L14.58 14.1805C17 13.0805 18.69 10.6505 18.69 7.81055H4.69C4.69 10.6505 6.38 13.0805 8.81 14.1805L4.31 21.1005L5.99 22.1905L7.53 19.8105H13.87C14.29 20.9705 15.39 21.8105 16.69 21.8105ZM16.69 17.8105C17.24 17.8105 17.69 18.2605 17.69 18.8105C17.69 19.3605 17.24 19.8105 16.69 19.8105C16.14 19.8105 15.69 19.3605 15.69 18.8105C15.69 18.2605 16.14 17.8105 16.69 17.8105Z" fill="currentColor"/>
<path d="M9.1 6.81055H10.1C10.25 5.66055 10.33 5.17055 9.21 3.85055C8.79 3.35055 8.53 3.08055 8.75 1.81055H7.76C7.55 2.92055 7.79 3.86055 8.65 4.77055C8.87 5.01055 9.44 5.44055 9.1 6.81055Z" fill="currentColor"/>
<path d="M11.58 6.81055H12.58C12.73 5.66055 12.81 5.17055 11.69 3.85055C11.27 3.35055 11.01 3.07055 11.23 1.81055H10.24C10.03 2.92055 10.27 3.86055 11.13 4.77055C11.36 5.01055 11.93 5.44055 11.58 6.81055Z" fill="currentColor"/>
<path d="M14.1 6.81055H15.1C15.25 5.66055 15.33 5.17055 14.21 3.85055C13.79 3.35055 13.53 3.08055 13.75 1.81055H12.76C12.55 2.92055 12.79 3.86055 13.65 4.77055C13.87 5.01055 14.44 5.44055 14.1 6.81055Z" fill="currentColor"/>
</svg>
