<svg viewBox="0 0 24 24" fill="none" xmlns="http://www.w3.org/2000/svg">
<path d="M4 6.54563C6.6 7.31563 9.28 7.70563 12 7.70563C14.72 7.70563 17.41 7.31563 20 6.54563V17.4556C17.4 16.6856 14.72 16.2956 12 16.2956C9.28 16.2956 6.59 16.6856 4 17.4556V6.54563ZM2 3.76562V20.2356C2 20.2356 2.77 19.9756 2.88 19.9356C5.82 18.8456 8.91 18.2956 12 18.2956C15.09 18.2956 18.18 18.8456 21.12 19.9356C21.23 19.9756 22 20.2356 22 20.2356V3.76562C22 3.76562 21.23 4.02563 21.12 4.06563C18.18 5.14563 15.09 5.70563 12 5.70563C8.91 5.70563 5.82 5.14563 2.88 4.06563C2.77 4.01563 2 3.76562 2 3.76562Z" fill="currentColor"/>
</svg>
