<svg  viewBox="0 0 24 24" fill="none" xmlns="http://www.w3.org/2000/svg">
<path d="M14.98 11.095C15.15 11.115 15.32 11.145 15.5 11.145C17.71 11.145 19.5 9.35498 19.5 7.14498C19.5 4.93498 17.71 3.14498 15.5 3.14498C13.29 3.14498 11.5 4.93498 11.5 7.14498C11.5 7.32498 11.53 7.49498 11.55 7.66498L14.98 11.095ZM17.19 13.305L23.03 19.145H23.5V17.145C23.5 15.005 19.94 13.645 17.19 13.305ZM0.5 2.26498L4.5 6.26498V9.14498H1.5V11.145H4.5V14.145H6.5V11.145H9.38L11.89 13.655C9.69 14.255 7.5 15.445 7.5 17.145V19.145H17.38L21.38 23.145L22.79 21.735L1.91 0.85498L0.5 2.26498ZM7.38 9.14498H6.5V8.26498L7.38 9.14498Z" fill="currentColor"/>
</svg>
