<svg viewBox="0 0 24 24" fill="none" xmlns="http://www.w3.org/2000/svg">
<path d="M14.7092 10.5L16.9992 8.21V12H17.4992L20.3492 9.15L18.2092 7L20.3592 4.85L17.4992 2H16.9992V5.79L14.7092 3.5L13.9992 4.21L16.7892 7L13.9992 9.79L14.7092 10.5ZM17.9992 3.91L18.9392 4.85L17.9992 5.79V3.91ZM17.9992 8.21L18.9392 9.15L17.9992 10.09V8.21ZM20.9992 16.46L15.7292 15.85L13.2092 18.37C10.3792 16.93 8.05917 14.62 6.61917 11.78L9.14917 9.25L8.53917 4H3.02917C2.44917 14.18 10.8192 22.55 20.9992 21.97V16.46Z" fill="currentColor"/>
</svg>
