<svg  viewBox="0 0 24 24" fill="none" xmlns="http://www.w3.org/2000/svg">
<path d="M6.98501 1V6H8.98501V4H18.985V20H8.98501V18H6.98501V23H20.985V1H6.98501ZM9.48501 15.5C9.77501 15.38 10.035 15.21 10.285 15.02L10.265 15.05L11.675 15.6L12.945 13.4L11.765 12.45L11.745 12.48C11.765 12.32 11.795 12.16 11.795 12C11.795 11.84 11.765 11.68 11.745 11.52L11.765 11.55L12.945 10.6L11.685 8.4L10.275 8.95L10.295 8.98C10.035 8.79 9.77501 8.62 9.48501 8.5L9.25502 7H6.71501L6.48501 8.5C6.19501 8.62 5.93501 8.79 5.68501 8.98L5.70501 8.95L4.28501 8.4L3.01501 10.6L4.19501 11.55L4.21501 11.52C4.20501 11.68 4.17501 11.84 4.17501 12C4.17501 12.16 4.20501 12.32 4.22501 12.48L4.20501 12.45L3.02501 13.4L4.29501 15.6L5.70501 15.05L5.68501 15.02C5.93501 15.21 6.19501 15.38 6.48501 15.5L6.71501 17H9.25502L9.48501 15.5ZM5.98501 12C5.98501 10.9 6.88502 10 7.98501 10C9.08501 10 9.98501 10.9 9.98501 12C9.98501 13.1 9.08501 14 7.98501 14C6.88502 14 5.98501 13.1 5.98501 12Z" fill="currentColor"/>
</svg>
