<svg viewBox="0 0 24 24" fill="none" xmlns="http://www.w3.org/2000/svg">
<path d="M23.31 16.7295C20.36 13.9395 16.38 12.2195 12 12.2195C7.61 12.2195 3.63 13.9395 0.69 16.7295L0 17.4195L3.64 21.0595L7.57 18.3395L7.56 14.8495C8.96 14.3995 10.46 14.1495 12 14.1495C13.55 14.1495 15.04 14.3895 16.44 14.8495L16.43 18.3395L20.36 21.0595L24 17.4195C24 17.4095 23.48 16.8995 23.31 16.7295ZM6.99 6.48945L11.93 11.4295L19 4.35945L17.59 2.93945L11.93 8.59945L8.39 5.05945H10.99V3.05945H4.99V9.05945H6.99V6.48945Z" fill="currentColor"/>
</svg>
