<svg  viewBox="0 0 24 24" fill="none" xmlns="http://www.w3.org/2000/svg">
<path d="M13.88 10.4159V10.2359L15.89 12.2459L21.12 9.80594L20.49 8.44594L16.21 10.4459L13.88 8.11594V6.71594L16.21 4.38594L20.49 6.38594L21.12 5.02594L15.89 2.58594L13.88 4.59594V4.41594H11.88V6.41594H8.7C8.28 5.25594 7.18001 4.41594 5.88 4.41594C4.22 4.41594 2.88 5.75594 2.88 7.41594C2.88 8.51594 3.48 9.46594 4.36 9.99594L6.96 18.4159H3.88V21.4159H16.88V18.4159H13.26L8.29 9.17594C8.46 8.94594 8.6 8.69594 8.7 8.41594H11.88V10.4159H13.88ZM5.88 8.41594C5.33 8.41594 4.88 7.96594 4.88 7.41594C4.88 6.86594 5.33 6.41594 5.88 6.41594C6.43 6.41594 6.88 6.86594 6.88 7.41594C6.88 7.96594 6.43 8.41594 5.88 8.41594Z" fill="currentColor"/>
</svg>
