<svg width="24" height="24" viewBox="0 0 24 24" fill="none" xmlns="http://www.w3.org/2000/svg">
<path d="M10.4699 6.21982H18.8199V2.22982H6.81995V2.57982L10.4699 6.21982ZM11.4799 7.22982L20.4799 16.2198H22.8199V10.2298C22.8199 8.56982 21.4799 7.22982 19.8199 7.22982H11.4799ZM19.8199 9.21982C20.3699 9.21982 20.8199 9.66982 20.8199 10.2198C20.8199 10.7698 20.3699 11.2198 19.8199 11.2198C19.2699 11.2198 18.8199 10.7698 18.8199 10.2198C18.8199 9.66982 19.2699 9.21982 19.8199 9.21982ZM2.22995 0.819824L0.819946 2.22982L5.81995 7.22982C4.15995 7.22982 2.81995 8.55982 2.81995 10.2198V16.2198H6.81995V20.2198H18.8199L21.7699 23.1798L23.1799 21.7698L2.22995 0.819824ZM8.81995 18.2298V14.2198H12.8199L16.8199 18.2198L8.81995 18.2298Z" fill="black"/>
</svg>
