<svg width="24" height="24" viewBox="0 0 24 24" fill="none" xmlns="http://www.w3.org/2000/svg">
    <path d="M1.97494 0.564941L0.564941 1.97494L4.95494 6.36494L7.16494 11.0249L4.18494 16.4349H15.0249L16.4049 17.8149C15.9049 18.1749 15.5749 18.7649 15.5749 19.4349C15.5749 20.5349 16.4649 21.4349 17.5649 21.4349C18.2349 21.4349 18.8249 21.1049 19.1849 20.5949L22.0249 23.4349L23.4349 22.0249L1.97494 0.564941ZM7.56494 14.4349L8.66494 12.4349H11.0249L13.0249 14.4349H7.56494ZM16.6149 12.3749H17.3449L22.2649 3.43494H7.68494L16.6149 12.3749ZM7.56494 17.4349C6.46494 17.4349 5.57494 18.3349 5.57494 19.4349C5.57494 20.5349 6.46494 21.4349 7.56494 21.4349C8.66494 21.4349 9.56494 20.5349 9.56494 19.4349C9.56494 18.3349 8.66494 17.4349 7.56494 17.4349Z" fill="currentColor" />
</svg>
