<svg width="24" height="24" viewBox="0 0 24 24" fill="none" xmlns="http://www.w3.org/2000/svg">
<path d="M11.29 6.71004H13.29V9.04004L20.49 16.24L21.29 15.44V7.98004L16.02 2.71004H8.56004L7.76004 3.51004L11.29 7.04004V6.71004ZM2.70004 1.29004L1.29004 2.70004L4.93004 6.34004L3.29004 7.98004V15.44L8.56004 20.71H16.02L17.66 19.07L21.3 22.71L22.71 21.3L2.70004 1.29004ZM11.29 12.7L11.3 12.71H11.29V12.7ZM12.29 17.01C11.57 17.01 10.99 16.43 10.99 15.71C10.99 14.99 11.57 14.41 12.29 14.41C13.01 14.41 13.59 14.99 13.59 15.71C13.59 16.43 13.01 17.01 12.29 17.01Z" fill="black"/>
</svg>
