<svg viewBox="0 0 24 24" fill="none" xmlns="http://www.w3.org/2000/svg">
<path d="M7.90999 7.03086L1.42999 13.5209L7.91999 20.0009L14.41 13.5209L7.90999 7.03086ZM4.25999 13.5209L7.91999 9.86086L11.57 13.5209L7.90999 17.1809L4.25999 13.5209ZM19.93 7.26086C18.18 5.50086 15.87 4.62086 13.57 4.62086V1.38086L9.32999 5.62086L13.57 9.86086V6.62086C15.36 6.62086 17.15 7.30086 18.52 8.67086C21.25 11.4009 21.25 15.8409 18.52 18.5709C17.15 19.9409 15.36 20.6209 13.57 20.6209C12.6 20.6209 11.63 20.4109 10.73 20.0109L9.23999 21.5009C10.59 22.2409 12.08 22.6209 13.57 22.6209C15.87 22.6209 18.18 21.7409 19.93 19.9809C23.45 16.4709 23.45 10.7709 19.93 7.26086Z" fill="currentColor"/>
</svg>
