<svg  viewBox="0 0 24 24" fill="none" xmlns="http://www.w3.org/2000/svg">
<path d="M7.81497 21.1347C4.54497 19.5947 2.20497 16.4147 1.84497 12.6547H0.344971C0.854971 18.8147 6.00497 23.6547 12.295 23.6547L12.955 23.6247L9.14497 19.8047L7.81497 21.1347ZM20.345 3.65473V3.29473C20.345 1.98473 19.405 0.794727 18.105 0.664727C16.605 0.514727 15.345 1.68473 15.345 3.15473V3.65473H14.345V9.65473H21.345V3.65473H20.345ZM19.545 3.65473H16.145V3.15473C16.145 2.21473 16.905 1.45473 17.845 1.45473C18.785 1.45473 19.545 2.21473 19.545 3.15473V3.65473ZM20.025 10.8547L18.615 12.2647L20.835 14.4847L15.175 20.1447L3.85497 8.82473L9.51497 3.16473L11.615 5.26473L13.025 3.85473L9.51497 0.344727L1.03497 8.82473L15.175 22.9647L23.655 14.4847L20.025 10.8547Z" fill="currentColor"/>
</svg>
