<svg width="24" height="24" viewBox="0 0 24 24" fill="none" xmlns="http://www.w3.org/2000/svg">
    <path d="M16.005 9.5H8.00498V23.5H16.005V9.5ZM12.005 15.5C10.905 15.5 10.005 14.6 10.005 13.5C10.005 12.4 10.905 11.5 12.005 11.5C13.105 11.5 14.005 12.4 14.005 13.5C14.005 14.6 13.105 15.5 12.005 15.5ZM7.05498 6.55L8.46498 7.96C9.37498 7.06 10.625 6.5 12.005 6.5C13.385 6.5 14.635 7.06 15.545 7.96L16.955 6.55C15.685 5.28 13.935 4.5 12.005 4.5C10.075 4.5 8.32498 5.28 7.05498 6.55ZM12.005 0.5C8.96498 0.5 6.21498 1.73 4.22498 3.72L5.63498 5.13C7.26498 3.51 9.51498 2.5 12.005 2.5C14.495 2.5 16.745 3.51 18.365 5.14L19.775 3.73C17.795 1.73 15.045 0.5 12.005 0.5Z" fill="currentColor" />
</svg>
