<svg  viewBox="0 0 24 24" fill="none" xmlns="http://www.w3.org/2000/svg">
    <path d="M19.435 12.99L19.425 13.01C19.465 12.68 19.505 12.34 19.505 12C19.505 11.66 19.475 11.34 19.435 11.01L19.445 11.03L21.885 9.11L19.455 4.89L16.585 6.05L16.595 6.06C16.075 5.66 15.505 5.32 14.885 5.06H14.895L14.435 2H9.56499L9.12499 5.07H9.13499C8.51499 5.33 7.94499 5.67 7.42499 6.07L7.43499 6.06L4.55499 4.89L2.11499 9.11L4.55499 11.03L4.56499 11.01C4.52499 11.34 4.49499 11.66 4.49499 12C4.49499 12.34 4.52499 12.68 4.57499 13.01L4.56499 12.99L2.46499 14.64L2.13499 14.9L4.56499 19.1L7.44499 17.95L7.42499 17.91C7.95499 18.32 8.52499 18.66 9.15499 18.92H9.12499L9.57499 22H14.425C14.425 22 14.455 21.82 14.485 21.58L14.865 18.93H14.855C15.475 18.67 16.055 18.33 16.585 17.92L16.565 17.96L19.445 19.11L21.875 14.91C21.875 14.91 21.735 14.79 21.545 14.65L19.435 12.99ZM11.995 15.5C10.065 15.5 8.49499 13.93 8.49499 12C8.49499 10.07 10.065 8.5 11.995 8.5C13.925 8.5 15.495 10.07 15.495 12C15.495 13.93 13.925 15.5 11.995 15.5Z" fill="currentColor" />
</svg>
