<svg width="24" height="24" viewBox="0 0 24 24" fill="none" xmlns="http://www.w3.org/2000/svg">
    <path d="M17.65 18C16.55 18 15.66 18.9 15.66 20C15.66 21.1 16.55 22 17.65 22C18.75 22 19.65 21.1 19.65 20C19.65 18.9 18.75 18 17.65 18ZM7.65002 18C6.55002 18 5.66002 18.9 5.66002 20C5.66002 21.1 6.55002 22 7.65002 22C8.75002 22 9.65002 21.1 9.65002 20C9.65002 18.9 8.75002 18 7.65002 18ZM7.65002 15L8.75002 13H16.2C16.95 13 17.61 12.59 17.95 11.97L22.35 4H5.86002L4.92002 2H1.65002V4H3.65002L7.25002 11.59L4.27002 17H19.65V15H7.65002Z" fill="currentColor" />
</svg>
