<svg width="24" height="24" viewBox="0 0 24 24" fill="none" xmlns="http://www.w3.org/2000/svg">
<path d="M21.98 10.5L24 8.48C20.93 5.4 16.69 3.5 12 3.5C7.31 3.5 3.07 5.4 0 8.48L12 20.5L15.05 17.45V14.5C15.05 14.05 15.14 13.62 15.28 13.21C15.82 11.64 17.29 10.5 19.05 10.5H21.98Z" fill="black"/>
<path d="M22 14.61C22 13.61 21.32 12.69 20.34 12.53C20.22 12.51 20.1 12.51 19.98 12.51H19.97C18.88 12.53 18 13.41 18 14.5V15.5C17.45 15.5 17 15.5 17 15.5V20.5H23V15.5C23 15.5 22.55 15.5 22 15.5V14.61ZM21 15.5H19V14.5C19 13.95 19.45 13.5 20 13.5C20.55 13.5 21 13.95 21 14.5V15.5Z" fill="black"/>
</svg>
