<svg  viewBox="0 0 24 24" fill="none" xmlns="http://www.w3.org/2000/svg">
<path d="M14.0073 3.75195C14.0073 4.85195 13.1073 5.75195 12.0073 5.75195C10.9073 5.75195 10.0073 4.85195 10.0073 3.75195C10.0073 2.65195 10.9073 1.75195 12.0073 1.75195C13.1073 1.75195 14.0073 2.65195 14.0073 3.75195ZM17.2273 17.152L19.1573 17.782L18.6973 19.212L15.3773 18.132L14.9073 19.552L18.2273 20.632C19.5373 21.062 20.9473 20.342 21.3773 19.022C21.8073 17.712 21.0873 16.302 19.7673 15.872L20.2273 14.442C22.3273 15.122 23.4773 17.382 22.7973 19.482C22.1173 21.582 19.8573 22.732 17.7573 22.052L1.00732 16.612L1.46732 15.182L5.39732 16.462L5.85732 15.032L1.93732 13.752L2.39732 12.322L4.00732 12.852V8.75195L9.47732 6.40195C9.86732 6.23195 10.3173 6.19195 10.7573 6.33195C11.7073 6.64195 12.2173 7.65195 11.9173 8.60195L10.8673 11.842L14.5073 11.252L17.2273 17.152ZM6.00732 13.502L6.48732 13.662L7.23732 11.352L7.92732 9.25195L6.00732 10.072V13.502ZM13.9473 17.662L7.28732 15.502L6.82732 16.932L13.4873 19.092L13.9473 17.662ZM14.6373 16.302L13.4573 13.742L9.48732 14.632L14.6373 16.302Z" fill="currentColor"/>
</svg>
