<svg  viewBox="0 0 24 24" fill="none" xmlns="http://www.w3.org/2000/svg">
<path d="M8.99954 11.0948H12.6295L8.99954 15.2948V17.0948H14.9995V15.0948H11.3695L14.9995 10.8948V9.09479H8.99954V11.0948ZM16.0555 3.44079L17.3375 1.90579L21.9445 5.75578L20.6645 7.29579L16.0555 3.44079ZM3.33554 7.28479L2.05554 5.74879L6.66154 1.90479L7.94154 3.44079L3.33554 7.28479ZM11.9995 6.09479C15.8595 6.09479 18.9995 9.23479 18.9995 13.0948C18.9995 16.9548 15.8595 20.0948 11.9995 20.0948C8.13954 20.0948 4.99954 16.9548 4.99954 13.0948C4.99954 9.23479 8.13954 6.09479 11.9995 6.09479ZM11.9995 4.09479C7.02954 4.09479 2.99954 8.12479 2.99954 13.0948C2.99954 18.0648 7.02954 22.0948 11.9995 22.0948C16.9695 22.0948 20.9995 18.0648 20.9995 13.0948C20.9995 8.12479 16.9695 4.09479 11.9995 4.09479Z" fill="currentColor"/>
</svg>
