<svg viewBox="0 0 24 24" fill="none" xmlns="http://www.w3.org/2000/svg">
<path d="M14.75 6C15.16 6 15.5 6.34 15.5 6.75C15.5 7.16 15.16 7.5 14.75 7.5C14.34 7.5 14 7.16 14 6.75C14 6.34 14.34 6 14.75 6ZM14.75 4.5C13.51 4.5 12.5 5.51 12.5 6.75C12.5 7.99 13.51 9 14.75 9C15.99 9 17 7.99 17 6.75C17 5.51 15.99 4.5 14.75 4.5ZM20.5 5.5C20.78 5.5 21 5.72 21 6C21 6.28 20.78 6.5 20.5 6.5C20.22 6.5 20 6.28 20 6C20 5.72 20.22 5.5 20.5 5.5ZM20.5 4C19.4 4 18.5 4.9 18.5 6C18.5 7.1 19.4 8 20.5 8C21.6 8 22.5 7.1 22.5 6C22.5 4.9 21.6 4 20.5 4ZM18.5 2.5C18.5 3.33 17.83 4 17 4C16.17 4 15.5 3.33 15.5 2.5C15.5 1.67 16.17 1 17 1C17.83 1 18.5 1.67 18.5 2.5ZM1.5 12.68V23H19.5V20.5H12.5V19.5H21.5V17H12.5V16H22.5V13.5H12.5V12.5H20.5V10H9.36L11.24 6.7L9.62 5L1.5 12.68Z" fill="currentColor"/>
</svg>
