<svg  viewBox="0 0 24 24" fill="none" xmlns="http://www.w3.org/2000/svg">
<path d="M6.13504 7C5.79504 7.55 5.73504 7.97 5.73504 8.38C5.73504 9.15 6.73504 11 6.73504 12C6.73504 12.95 6.33504 13.5 6.33504 13.5H4.83504C4.83504 13.5 5.23504 12.95 5.23504 12C5.23504 11 4.23504 9.15 4.23504 8.38C4.23504 7.97 4.29504 7.55 4.63504 7H6.13504ZM11.135 7C10.795 7.55 10.735 7.97 10.735 8.38C10.735 9.15 11.735 11 11.735 12C11.735 12.95 11.335 13.5 11.335 13.5H12.835C12.835 13.5 13.235 12.95 13.235 12C13.235 11 12.235 9.15 12.235 8.38C12.235 7.97 12.295 7.55 12.635 7H11.135ZM7.88504 7C7.54504 7.55 7.48504 7.97 7.48504 8.38C7.48504 9.15 8.48504 11.01 8.48504 12C8.48504 12.95 8.08504 13.5 8.08504 13.5H9.58504C9.58504 13.5 9.98504 12.95 9.98504 12C9.98504 11 8.98504 9.15 8.98504 8.38C8.98504 7.97 9.04504 7.55 9.38504 7H7.88504ZM21.205 6.5C21.205 6.5 21.335 5.44 21.335 5C21.335 3.35 19.985 2 18.335 2C16.795 2 15.525 3.16 15.355 4.65L14.265 15H2.66504C2.64504 18.87 5.75504 22 9.48504 22C12.965 22 15.825 19.27 16.195 15.77L17.345 4.9C17.395 4.39 17.815 4 18.335 4C18.885 4 19.335 4.45 19.335 5C19.335 5.3 19.235 6.25 19.235 6.25L21.205 6.5Z" fill="currentColor"/>
</svg>
