<svg  viewBox="0 0 24 24" fill="none" xmlns="http://www.w3.org/2000/svg">
<path d="M19 2.00488H5V21.9949H19V2.00488ZM12 4.00488C13.1 4.00488 14 4.90488 14 6.00488C14 7.10488 13.1 8.00488 12 8.00488C10.89 8.00488 10 7.10488 10 6.00488C10 4.90488 10.89 4.00488 12 4.00488ZM12 20.0049C9.24 20.0049 7 17.7649 7 15.0049C7 12.2449 9.24 10.0049 12 10.0049C14.76 10.0049 17 12.2449 17 15.0049C17 17.7649 14.76 20.0049 12 20.0049ZM12 12.0049C10.34 12.0049 9 13.3449 9 15.0049C9 16.6649 10.34 18.0049 12 18.0049C13.66 18.0049 15 16.6649 15 15.0049C15 13.3449 13.66 12.0049 12 12.0049Z" fill="currentColor"/>
</svg>
