<svg width="24" height="24" viewBox="0 0 24 24" fill="none" xmlns="http://www.w3.org/2000/svg">
<path d="M20.3923 8.55934L19.1523 10.4193C19.7455 11.6024 20.0359 12.9142 19.9975 14.2371C19.9591 15.56 19.5931 16.8527 18.9323 17.9993H5.0723C4.21347 16.5094 3.8576 14.7825 4.05744 13.0744C4.25729 11.3664 5.00221 9.76816 6.18178 8.51677C7.36135 7.26537 8.91277 6.42738 10.606 6.12703C12.2993 5.82669 14.0443 6.07997 15.5823 6.84934L17.4423 5.60934C15.4718 4.33226 13.1148 3.7893 10.7842 4.07561C8.45364 4.36192 6.29812 5.45923 4.69536 7.17528C3.0926 8.89133 2.14483 11.1167 2.01812 13.4613C1.8914 15.806 2.59382 18.1206 4.0023 19.9993H20.0023C21.2289 18.3606 21.923 16.3849 21.991 14.3391C22.0589 12.2933 21.4974 10.2759 20.3823 8.55934H20.3923Z" fill="black"/>
<path d="M10.5923 15.4093C10.7781 15.5953 10.9986 15.7428 11.2414 15.8435C11.4842 15.9441 11.7445 15.9959 12.0073 15.9959C12.2701 15.9959 12.5304 15.9441 12.7732 15.8435C13.016 15.7428 13.2366 15.5953 13.4223 15.4093L19.0823 6.91934L10.5923 12.5793C10.4064 12.7651 10.2588 12.9857 10.1582 13.2285C10.0575 13.4713 10.0057 13.7315 10.0057 13.9943C10.0057 14.2572 10.0575 14.5174 10.1582 14.7602C10.2588 15.003 10.4064 15.2236 10.5923 15.4093Z" fill="black"/>
</svg>
