<svg  viewBox="0 0 24 24" fill="none" xmlns="http://www.w3.org/2000/svg">
<path d="M20.49 3.50906C19.93 2.94906 18.34 2.53906 16.33 2.53906C13.25 2.53906 9.18001 3.49906 6.35001 6.32906C1.66001 11.0291 2.10001 19.0691 3.51001 20.4891C4.07001 21.0491 5.66001 21.4591 7.67001 21.4591C10.75 21.4591 14.82 20.4991 17.65 17.6691C22.34 12.9691 21.9 4.92906 20.49 3.50906ZM7.76001 7.75906C10.4 5.11906 14.11 4.63906 15.79 4.56906C13.74 5.50906 11.33 7.01906 9.18001 9.17906C7.02001 11.3391 5.51001 13.7591 4.57001 15.8091C4.66001 13.3291 5.44001 10.0691 7.76001 7.75906ZM16.24 16.2391C13.6 18.8791 9.89001 19.3591 8.21001 19.4291C10.26 18.4891 12.67 16.9791 14.82 14.8191C16.98 12.6591 18.49 10.2391 19.44 8.18906C19.34 10.6691 18.56 13.9291 16.24 16.2391Z" fill="currentColor"/>
</svg>
