<svg  viewBox="0 0 24 24" fill="none" xmlns="http://www.w3.org/2000/svg">
<path d="M19.6 2.48971C17.26 0.149714 12.98 0.619713 10.05 3.54971C8.44998 5.14971 7.52998 7.41971 7.50998 9.00971C7.48998 10.5897 7.76998 12.8997 6.15998 14.5097L1.91998 18.7497L3.33998 20.1697L7.57998 15.9297C9.18998 14.3197 11.5 14.5997 13.08 14.5797C14.66 14.5597 16.94 13.6397 18.54 12.0397C21.46 9.10971 21.94 4.82971 19.6 2.48971ZM10.4 11.6797C8.86998 10.1497 9.34998 7.06971 11.46 4.95971C13.57 2.84971 16.64 2.36971 18.18 3.89971C19.71 5.42971 19.23 8.50971 17.12 10.6197C15.01 12.7297 11.94 13.2097 10.4 11.6797Z" fill="currentColor"/>
<path d="M18.08 16.9997C18.61 16.9997 19.12 17.2097 19.49 17.5897C20.27 18.3697 20.27 19.6397 19.49 20.4197C19.12 20.7897 18.61 20.9997 18.08 20.9997C17.55 20.9997 17.04 20.7897 16.67 20.4097C15.89 19.6297 15.89 18.3597 16.67 17.5797C17.04 17.2097 17.55 16.9997 18.08 16.9997ZM18.08 14.9997C17.06 14.9997 16.03 15.3897 15.25 16.1697C13.69 17.7297 13.69 20.2597 15.25 21.8297C16.03 22.6097 17.06 22.9997 18.08 22.9997C19.1 22.9997 20.13 22.6097 20.91 21.8297C22.47 20.2697 22.47 17.7397 20.91 16.1697C20.13 15.3897 19.1 14.9997 18.08 14.9997Z" fill="currentColor"/>
</svg>
