<svg  viewBox="0 0 24 24" fill="none" xmlns="http://www.w3.org/2000/svg">
<path d="M17.09 11.0008H21.9501C21.7901 9.39078 21.24 7.89078 20.41 6.60078C18.68 7.43078 17.42 9.05078 17.09 11.0008Z" fill="currentColor"/>
<path d="M6.91005 11.0008C6.58005 9.05078 5.32005 7.43078 3.59005 6.60078C2.76005 7.89078 2.21005 9.39078 2.05005 11.0008H6.91005Z" fill="currentColor"/>
<path d="M15.07 11.0008C15.39 8.41078 16.95 6.21078 19.13 5.00078C17.53 3.37078 15.39 2.29078 13 2.05078V11.0008H15.07Z" fill="currentColor"/>
<path d="M8.93005 11.0008H11V2.05078C8.61005 2.29078 6.46005 3.37078 4.87005 5.00078C7.05005 6.21078 8.61005 8.41078 8.93005 11.0008Z" fill="currentColor"/>
<path d="M15.07 13.0008H13V21.9508C15.39 21.7108 17.54 20.6308 19.13 19.0008C16.95 17.7908 15.39 15.5908 15.07 13.0008Z" fill="currentColor"/>
<path d="M3.59005 17.4008C5.31005 16.5708 6.58005 14.9408 6.91005 13.0008H2.05005C2.21005 14.6108 2.76005 16.1108 3.59005 17.4008Z" fill="currentColor"/>
<path d="M17.09 13.0008C17.42 14.9508 18.68 16.5708 20.41 17.4008C21.24 16.1108 21.7901 14.6108 21.9501 13.0008H17.09Z" fill="currentColor"/>
<path d="M8.93005 13.0008C8.61005 15.5908 7.05005 17.7908 4.87005 19.0008C6.47005 20.6308 8.61005 21.7108 11 21.9508V13.0008H8.93005Z" fill="currentColor"/>
</svg>
