<svg  viewBox="0 0 24 24" fill="none" xmlns="http://www.w3.org/2000/svg">
<path d="M12.0016 11.3889C12.0016 10.7389 11.6116 10.1589 11.0216 9.90888L5.44162 7.54888C3.96162 9.22888 3.12162 11.2489 2.64162 12.9989H10.3916C11.2816 12.9989 12.0016 12.2789 12.0016 11.3889Z" fill="currentColor"/>
<path d="M21.9616 11.2189C21.5516 6.80888 17.4016 3.72888 12.9816 4.01888C10.4716 4.17888 8.54162 4.95888 7.05162 6.05888L11.7916 8.06888C13.1216 8.63888 13.9916 9.93888 13.9916 11.3889C13.9916 13.3789 12.3716 14.9989 10.3816 14.9989H2.21162C2.00162 16.3089 2.00162 17.1989 2.00162 17.1989V19.9989H14.0016C18.6716 19.9989 22.4116 15.9889 21.9616 11.2189Z" fill="currentColor"/>
</svg>
