<svg  viewBox="0 0 24 24" fill="none" xmlns="http://www.w3.org/2000/svg">
<path d="M3.02 15.6204C2.94 18.0404 3.34 19.9604 3.69 20.3104C4.04 20.6604 5.97 21.0704 8.38 20.9804L3.02 15.6204Z" fill="currentColor"/>
<path d="M13.08 3.28041C10.75 3.70041 8.29 4.62041 6.46 6.46041C4.63 8.30041 3.7 10.7504 3.28 13.0804L10.91 20.7104C13.25 20.3004 15.7 19.3704 17.53 17.5304C19.36 15.6904 20.29 13.2404 20.71 10.9104L13.08 3.28041ZM9.9 15.5004L8.5 14.1004L14.1 8.50041L15.5 9.9004L9.9 15.5004Z" fill="currentColor"/>
<path d="M20.98 8.38041C21.06 5.96041 20.66 4.04041 20.31 3.69041C19.96 3.34041 18.03 2.93041 15.62 3.02041L20.98 8.38041Z" fill="currentColor"/>
</svg>
