<svg  viewBox="0 0 24 24" fill="none" xmlns="http://www.w3.org/2000/svg">
<path d="M21.79 17.8602L23.79 19.8602H24V17.8602H21.79ZM13 8.99018V6.86018L17 10.6002L15.72 11.7902L20.9 16.9702L22 15.8602V3.88018H7.8L12.93 9.01018C12.96 9.00017 12.98 8.99018 13 8.99018ZM1.11 2.84018L2 3.74018V15.8802L4 17.8702L0 17.8602V19.8602H18.13L20.84 22.5702L22.25 21.1602L2.52 1.43018L1.11 2.84018ZM9.08 10.8102L10.67 12.4002C9.13 12.7802 7.96 13.5702 7 14.8602C7.31 13.3802 7.94 11.9302 9.08 10.8102Z" fill="currentColor"/>
</svg>
