<svg viewBox="0 0 24 24" fill="none" xmlns="http://www.w3.org/2000/svg">
<path d="M17 19.5C17 20.6 16.1 21.5 15 21.5C13.9 21.5 13 20.6 13 19.5C13 18.4 13.9 17.5 15 17.5C16.1 17.5 17 18.4 17 19.5ZM5 17.5C3.9 17.5 3 18.4 3 19.5C3 20.6 3.9 21.5 5 21.5C6.1 21.5 7 20.6 7 19.5C7 18.4 6.1 17.5 5 17.5ZM21 6.5V5.98C21 4.06 19.52 2.5 17.65 2.5C15.99 2.5 15.11 3.77 14.47 4.53L4.27 16.5H16V5.77C16.58 5.09 16.97 4.5 17.65 4.5C18.42 4.5 19 5.16 19 5.98V6.5H21ZM13.3 3.6C12.03 2.9 10.56 2.5 9 2.5C7.03 2.5 5.21 3.14 3.72 4.22L8.61 9.11L13.3 3.6Z" fill="currentColor"/>
</svg>
