<svg  viewBox="0 0 24 24" fill="none" xmlns="http://www.w3.org/2000/svg">
    <path d="M1.10001 3.38989H3.12001C1.23001 5.70989 0.100006 8.66989 0.100006 11.8899C0.100006 15.1099 1.23001 18.0699 3.12001 20.3899H1.10001V21.8899H6.10001V16.8899H4.60001V19.7999C2.74001 17.6899 1.60001 14.9199 1.60001 11.8899C1.60001 8.85989 2.74001 6.09989 4.60001 3.97989V6.88989H6.10001V1.88989H1.10001V3.38989ZM21.81 11.0699L23.9 18.4599L15.67 22.1099L8.83001 19.2599L9.44001 17.6399L13.24 16.8899L8.89001 7.05989C8.55001 6.29989 8.89001 5.41989 9.65001 5.07989C10.41 4.73989 11.29 5.07989 11.63 5.83989L14.06 11.3299L15.32 10.7699L21.81 11.0699Z" fill="currentColor" />
</svg>
