<svg width="24" height="24" viewBox="0 0 24 24" fill="none" xmlns="http://www.w3.org/2000/svg">
    <path d="M1.6601 5.94989L0.600098 4.88989L4.1001 1.38989L7.6001 4.88989L6.5401 5.94989L4.9201 4.32989C4.7101 5.14989 4.6001 6.00989 4.6001 6.88989C4.6001 9.30989 5.4201 11.5399 6.8001 13.3199L5.7301 14.3899C4.0901 12.3399 3.1001 9.72989 3.1001 6.88989C3.1001 5.96989 3.2001 5.06989 3.4001 4.20989L1.6601 5.94989ZM21.3101 11.5699L23.4001 18.9599L15.1701 22.6099L8.3301 19.7599L8.9401 18.1399L12.7401 17.3899L8.3901 7.55989C8.0501 6.79989 8.3901 5.91989 9.1501 5.57989C9.9101 5.23989 10.7901 5.57989 11.1301 6.33989L13.5601 11.8299L14.8201 11.2699L21.3101 11.5699Z" fill="currentColor" />
</svg>
