<svg width="24" height="24" viewBox="0 0 24 24" fill="none" xmlns="http://www.w3.org/2000/svg">
    <path d="M3.40001 12.0699C3.20001 11.2099 3.10001 10.3099 3.10001 9.38989C3.10001 6.54989 4.09001 3.93989 5.73001 1.88989L6.80001 2.95989C5.42001 4.73989 4.60001 6.96989 4.60001 9.38989C4.60001 10.2699 4.71001 11.1299 4.92001 11.9499L6.54001 10.3299L7.60001 11.3899L4.10001 14.8899L0.600006 11.3899L1.66001 10.3299L3.40001 12.0699Z" fill="currentColor" />
    <path d="M21.31 11.0699L23.4 18.4599L15.17 22.1099L8.33001 19.2599L8.94001 17.6399L12.74 16.8899L8.39001 7.05989C8.05001 6.29989 8.39001 5.41989 9.15001 5.07989C9.91001 4.73989 10.79 5.07989 11.13 5.83989L13.56 11.3299L14.82 10.7699L21.31 11.0699Z" fill="currentColor" />
</svg>
