<svg  viewBox="0 0 24 24" fill="none" xmlns="http://www.w3.org/2000/svg">
<path d="M17.5 13.5C15.59 13.5 13.87 12.74 12.61 11.5H4.31L5.35 8.5H10.79C10.6 7.87 10.5 7.2 10.5 6.5C10.5 5.8 10.6 5.13 10.79 4.5H7.5V6.5H3.93L1.5 13.5V22.5H4.5V20.5H16.5V22.5H19.5V13.5L19.41 13.23C18.8 13.4 18.16 13.5 17.5 13.5ZM6 17.5C5.17 17.5 4.5 16.83 4.5 16C4.5 15.17 5.17 14.5 6 14.5C6.83 14.5 7.5 15.17 7.5 16C7.5 16.83 6.83 17.5 6 17.5ZM15 17.5C14.17 17.5 13.5 16.83 13.5 16C13.5 15.17 14.17 14.5 15 14.5C15.83 14.5 16.5 15.17 16.5 16C16.5 16.83 15.83 17.5 15 17.5Z" fill="currentColor"/>
<path d="M17.5 1.5C14.74 1.5 12.5 3.74 12.5 6.5C12.5 9.26 14.74 11.5 17.5 11.5C20.26 11.5 22.5 9.26 22.5 6.5C22.5 3.74 20.26 1.5 17.5 1.5ZM18 9.5H17V8.5H18V9.5ZM18 7.5H17V3.5H18V7.5Z" fill="currentColor"/>
</svg>
