<svg viewBox="0 0 24 24" fill="none" xmlns="http://www.w3.org/2000/svg">
<path d="M12.625 6C16.495 6 19.625 9.13 19.625 13C19.625 14.12 19.355 15.18 18.885 16.12L20.355 17.59C21.155 16.25 21.625 14.68 21.625 13C21.625 10.88 20.885 8.93 19.655 7.39L21.075 5.97C20.645 5.46 20.175 4.98 19.665 4.56L18.245 5.98C16.695 4.74 14.745 4 12.625 4C10.945 4 9.375 4.47 8.035 5.27L9.505 6.74C10.445 6.27 11.505 6 12.625 6ZM11.625 8V8.86L13.625 10.86V8H11.625ZM9.625 1H15.625V3H9.625V1ZM3.785 3.86L2.375 5.27L5.125 8.02C4.185 9.45 3.625 11.16 3.625 13C3.625 17.97 7.645 22 12.625 22C14.465 22 16.175 21.45 17.605 20.5L20.105 23L21.515 21.59L3.785 3.86ZM12.625 20C8.755 20 5.625 16.87 5.625 13C5.625 11.71 5.975 10.51 6.585 9.48L16.155 19.05C15.115 19.65 13.915 20 12.625 20Z" fill="currentColor"/>
</svg>
