<svg viewBox="0 0 24 24" fill="none" xmlns="http://www.w3.org/2000/svg">
    <path d="M8.68994 9.74V6C8.68994 4.62 9.80994 3.5 11.1899 3.5C12.5699 3.5 13.6899 4.62 13.6899 6V9.74C14.8999 8.93 15.6899 7.56 15.6899 6C15.6899 3.51 13.6799 1.5 11.1899 1.5C8.69994 1.5 6.68994 3.51 6.68994 6C6.68994 7.56 7.47994 8.93 8.68994 9.74ZM13.7699 12H12.6899V6C12.6899 5.17 12.0199 4.5 11.1899 4.5C10.3599 4.5 9.68994 5.17 9.68994 6V16.74L5.64994 15.89L4.43994 17.12L9.81994 22.5H18.4899L19.5599 14.88L13.7699 12Z" fill="currentColor" />
</svg>
