<svg  viewBox="0 0 24 24" fill="none" xmlns="http://www.w3.org/2000/svg">
<path d="M19.425 10L17.425 4H7.985L6.515 8.4L5.115 7L6.115 6L4.705 4.59L1.295 8L2.705 9.41L3.705 8.41L5.295 10H2.705V18H4.885C5.295 19.16 6.405 20 7.705 20C9.005 20 10.105 19.16 10.525 18H14.895C15.305 19.16 16.405 20 17.715 20C19.015 20 20.125 19.16 20.535 18H22.705V10H19.425ZM7.705 18C7.155 18 6.705 17.55 6.705 17C6.705 16.45 7.155 16 7.705 16C8.255 16 8.705 16.45 8.705 17C8.705 17.55 8.255 18 7.705 18ZM11.705 10H8.115L8.095 9.98L9.425 6H11.705V10ZM13.705 10V6H15.985L17.315 10H13.705ZM17.705 18C17.155 18 16.705 17.55 16.705 17C16.705 16.45 17.155 16 17.705 16C18.255 16 18.705 16.45 18.705 17C18.705 17.55 18.255 18 17.705 18Z" fill="currentColor"/>
</svg>
