<svg viewBox="0 0 24 24" fill="none" xmlns="http://www.w3.org/2000/svg">
    <path d="M21.4949 20.8848L3.11495 2.50482L1.69495 3.91482L3.96495 6.18482C2.91495 7.76482 2.30495 9.65482 2.30495 11.6948C2.30495 17.2148 6.78495 21.6948 12.3049 21.6948C14.3449 21.6948 16.2349 21.0848 17.8149 20.0348L20.0849 22.3048L21.4949 20.8848ZM10.8949 16.2948L6.65495 12.0548L8.06495 10.6448L10.8949 13.4748L11.0749 13.2948L12.4849 14.7048L10.8949 16.2948ZM13.8949 10.4548L6.79495 3.35482C8.37495 2.30482 10.2649 1.69482 12.3049 1.69482C17.8249 1.69482 22.3049 6.17482 22.3049 11.6948C22.3049 13.7348 21.6949 15.6248 20.6449 17.2048L15.3049 11.8648L17.9549 9.21482L16.5449 7.80482L13.8949 10.4548Z" fill="currentColor" />
</svg>
