<svg  viewBox="0 0 24 24" fill="none" xmlns="http://www.w3.org/2000/svg">
<path d="M12.5 5.25H8.5V3.75H10V1.75H5V3.75H6.5V5.25H2.5V7.25C2.5 7.25 2.95 7.25 3.5 7.25V16.75H6.5V20.75L8.5 22.25V16.75H11.5V7.25C12.05 7.25 12.5 7.25 12.5 7.25V5.25ZM9.5 8.75H7V10.25H9.5V11.75H7V13.25H9.5V14.75H5.5V7.25H9.5V8.75ZM20 10.25V9.75H21V7.75H14L13.99 9.75H15V10.25C15 10.75 13.5 11.41 13.5 13.25V21.75H21.5V13.25C21.5 11.41 20 10.75 20 10.25ZM17 10.25V9.75H18V10.25C18 11.85 19.5 12.25 19.5 13.25V13.75H15.5C15.5 13.54 15.5 13.36 15.5 13.25C15.5 12.25 17 11.85 17 10.25ZM15.5 19.75C15.5 19.75 15.5 19.12 15.5 18.25H19.5V19.75H15.5Z" fill="currentColor"/>
</svg>
