<svg width="24" height="24" viewBox="0 0 24 24" fill="none" xmlns="http://www.w3.org/2000/svg">
<path d="M2.52002 4.5H20.52V9.5H22.52V2.5H0.52002V18.5H11.52V16.5H2.52002V4.5Z" fill="black"/>
<path d="M14.52 10.5L8.52002 6.5V14.5L14.52 10.5Z" fill="black"/>
<path d="M22.24 16.07L23.47 15.09L22.22 12.92L20.75 13.5C20.52 13.33 20.27 13.19 20 13.08L19.77 11.5H17.27L17.03 13.08C16.77 13.19 16.52 13.34 16.29 13.5L14.81 12.92L13.56 15.09L14.8 16.08C14.77 16.37 14.76 16.66 14.79 16.94L13.56 17.92L14.81 20.09L16.29 19.5C16.52 19.67 16.77 19.81 17.04 19.92L17.27 21.5H19.77L20.01 19.92C20.27 19.81 20.52 19.66 20.75 19.5L22.23 20.08L23.48 17.91L22.24 16.92C22.27 16.64 22.27 16.35 22.24 16.07ZM18.52 18C17.69 18 17.02 17.33 17.02 16.5C17.02 15.67 17.69 15 18.52 15C19.35 15 20.02 15.67 20.02 16.5C20.02 17.33 19.35 18 18.52 18Z" fill="black"/>
</svg>
