<svg width="24" height="24" viewBox="0 0 24 24" fill="none" xmlns="http://www.w3.org/2000/svg">
<path d="M21.1349 17.2896H22.3049V5.28961H9.13495L21.1349 17.2896ZM17.8049 8.28961C18.6349 8.28961 19.3049 8.95961 19.3049 9.78961C19.3049 10.6196 18.6349 11.2896 17.8049 11.2896C16.9749 11.2896 16.3049 10.6196 16.3049 9.78961C16.3049 8.95961 16.9749 8.28961 17.8049 8.28961ZM21.4949 20.4796L3.11495 2.09961L1.69495 3.50961L3.47495 5.28961H2.30495V17.2896H15.4749L20.0849 21.8996L21.4949 20.4796ZM9.30495 12.2896V14.2896H7.30495V12.2896H5.30495V10.2896H7.30495V9.11961L10.4749 12.2896H9.30495Z" fill="black"/>
</svg>
