<svg viewBox="0 0 24 24" fill="none" xmlns="http://www.w3.org/2000/svg">
    <path d="M12 6.46992C14.76 6.46992 17 8.70992 17 11.4699C17 11.9799 16.9 12.4699 16.76 12.9299L19.82 15.9899C21.21 14.7599 22.31 13.2199 23 11.4599C21.27 7.07992 17 3.96992 12 3.96992C10.73 3.96992 9.51 4.16992 8.36 4.53992L10.53 6.70992C11 6.56992 11.49 6.46992 12 6.46992ZM3.42 2.41992L2.01 3.83992L4.69 6.51992C3.06 7.79992 1.77 9.49992 1 11.4699C2.73 15.8599 7 18.9699 12 18.9699C13.52 18.9699 14.97 18.6699 16.31 18.1499L19.74 21.5799L21.15 20.1699L3.42 2.41992ZM12 16.4699C9.24 16.4699 7 14.2299 7 11.4699C7 10.6999 7.18 9.96992 7.49 9.32992L9.06 10.8999C9.03 11.0799 9 11.2699 9 11.4699C9 13.1299 10.34 14.4699 12 14.4699C12.2 14.4699 12.38 14.4399 12.57 14.3999L14.14 15.9699C13.49 16.2899 12.77 16.4699 12 16.4699ZM14.97 11.1399C14.82 9.73992 13.72 8.64992 12.33 8.49992L14.97 11.1399Z" fill="currentColor" />
</svg>
