<svg viewBox="0 0 24 24" fill="none" xmlns="http://www.w3.org/2000/svg">
<path d="M19 13.001C19 15.081 18.2 16.971 16.9 18.391V17.001H14V13.001H7V11.001H10V8.00102H14V3.46102C13.05 3.16102 12.05 3.00102 11 3.00102C5.48 3.00102 1 7.48102 1 13.001C1 18.521 5.48 23.001 11 23.001C16.52 23.001 21 18.521 21 13.001C21 12.661 20.98 12.331 20.95 12.001H18.92C18.96 12.331 19 12.661 19 13.001ZM10 20.931C6.05 20.441 3 17.081 3 13.001C3 12.381 3.08 11.791 3.21 11.211L8 16.001V19.001H10V20.931ZM22 4.00102V3.64102C22 2.33102 21.06 1.14102 19.76 1.01102C18.26 0.861024 17 2.03102 17 3.50102V4.00102H16V10.001H23V4.00102H22ZM21 4.00102H18V3.50102C18 2.67102 18.67 2.00102 19.5 2.00102C20.33 2.00102 21 2.67102 21 3.50102V4.00102Z" fill="currentColor"/>
</svg>
