<svg  viewBox="0 0 24 24" fill="none" xmlns="http://www.w3.org/2000/svg">
<path d="M22.98 17C22.98 20.31 20.29 23 16.98 23V21.5C19.46 21.5 21.48 19.48 21.48 17H22.98ZM0.97998 7C0.97998 3.69 3.66998 1 6.97998 1V2.5C4.49998 2.5 2.47998 4.52 2.47998 7H0.97998ZM8.87998 3.43L3.39998 8.91C0.179981 12.13 0.179981 17.35 3.39998 20.58C6.61998 23.81 11.84 23.8 15.07 20.58L23.02 12.63L21.25 10.86L15.95 16.16L15.24 15.45L22.66 8.03L20.89 6.26L14.17 12.98L13.46 12.27L21.24 4.49L19.48 2.73L11.7 10.51L11 9.8L17.36 3.44L15.59 1.67L7.07998 10.18C8.29998 11.75 8.18998 14.02 6.74998 15.46L6.03998 14.75C7.20998 13.58 7.20998 11.67 6.03998 10.51L5.68998 10.16L10.64 5.21L8.87998 3.43Z" fill="currentColor"/>
</svg>
