<svg viewBox="0 0 24 24" fill="none" xmlns="http://www.w3.org/2000/svg">
<path d="M6.76 5.34078L4.96 3.55078L3.55 4.96078L5.34 6.75078L6.76 5.34078ZM4 11.0008H1V13.0008H4V11.0008ZM13 1.05078H11V4.00078H13V1.05078ZM20.45 4.96078L19.04 3.55078L17.25 5.34078L18.66 6.75078L20.45 4.96078ZM17.24 18.6608L19.03 20.4608L20.44 19.0508L18.64 17.2608L17.24 18.6608ZM20 11.0008V13.0008H23V11.0008H20ZM12 6.00078C8.69 6.00078 6 8.69078 6 12.0008C6 15.3108 8.69 18.0008 12 18.0008C15.31 18.0008 18 15.3108 18 12.0008C18 8.69078 15.31 6.00078 12 6.00078ZM11 22.9508H13V20.0008H11V22.9508ZM3.55 19.0408L4.96 20.4508L6.75 18.6508L5.34 17.2408L3.55 19.0408Z" fill="currentColor"/>
</svg>
