<svg width="24" height="24" viewBox="0 0 24 24" fill="none" xmlns="http://www.w3.org/2000/svg">
<path d="M15.9251 3C13.7151 3 11.7151 3.9 10.2651 5.34L11.3251 6.4C12.5051 5.22 14.1251 4.49 15.9151 4.49C17.7051 4.49 19.3351 5.22 20.5051 6.4L21.5651 5.34C20.1351 3.9 18.1351 3 15.9251 3Z" fill="black"/>
<path d="M19.4651 7.46C18.5551 6.56 17.3051 6 15.9251 6C14.5451 6 13.2951 6.56 12.3851 7.46L13.4451 8.52C14.0751 7.89 14.9551 7.49 15.9151 7.49C16.8751 7.49 17.7551 7.88 18.3851 8.52L19.4651 7.46Z" fill="black"/>
<path d="M14.5151 9.59L15.9251 11L17.3351 9.59C16.9751 9.22 16.4751 9 15.9251 9C15.3751 9 14.8751 9.22 14.5151 9.59Z" fill="black"/>
<path d="M20.4351 15L15.4351 14L12.5351 16.9C10.0351 15.47 7.96506 13.4 6.53506 10.9L9.43506 8L8.43506 3H2.43506C2.43506 6.28 3.32506 9.35 4.86506 12C6.44506 14.73 8.71506 16.99 11.4351 18.57C14.0851 20.1 17.1551 21 20.4351 21V15Z" fill="black"/>
</svg>
