<svg width="24" height="24" viewBox="0 0 24 24" fill="none" xmlns="http://www.w3.org/2000/svg">
<path d="M5.87296 7H7.87296C8.42296 7 8.87296 7.45 8.87296 8V16C8.87296 16.55 8.42296 17 7.87296 17C7.32296 17 6.87296 16.55 6.87296 16V9H5.87296C5.32296 9 4.87296 8.55 4.87296 8C4.87296 7.45 5.32296 7 5.87296 7ZM16.703 11.72L18.623 8.51C19.023 7.85 18.543 7 17.773 7C17.423 7 17.093 7.18 16.913 7.49L15.543 9.77L14.163 7.48C13.983 7.18 13.663 7 13.313 7C12.533 7 12.053 7.85 12.453 8.51L14.373 11.72L12.113 15.49C11.713 16.16 12.193 17 12.973 17C13.323 17 13.653 16.82 13.833 16.51L15.543 13.66L17.253 16.51C17.433 16.81 17.763 17 18.113 17H18.123C18.903 17 19.383 16.15 18.983 15.49L16.703 11.72Z" fill="black"/>
</svg>
