<svg width="24" height="24" viewBox="0 0 24 24" fill="none" xmlns="http://www.w3.org/2000/svg">
<path d="M8.41 14.965C8.22 14.965 8.04 14.935 7.89 14.885C7.73 14.825 7.6 14.755 7.49 14.645C7.38 14.545 7.29 14.425 7.23 14.275C7.17 14.135 7.14 13.975 7.14 13.805H5.84C5.84 14.165 5.91 14.485 6.05 14.755C6.19 15.025 6.38 15.255 6.61 15.445C6.85 15.625 7.12 15.765 7.43 15.855C7.73 15.955 8.05 16.005 8.39 16.005C8.76 16.005 9.11 15.955 9.42 15.855C9.74 15.755 10.02 15.605 10.25 15.415C10.48 15.225 10.67 14.985 10.8 14.695C10.93 14.405 11 14.085 11 13.725C11 13.535 10.98 13.345 10.93 13.165C10.88 12.985 10.81 12.815 10.7 12.655C10.6 12.495 10.46 12.355 10.3 12.225C10.13 12.095 9.93 11.995 9.69 11.915C9.89 11.825 10.06 11.715 10.21 11.585C10.36 11.455 10.48 11.315 10.58 11.165C10.68 11.015 10.75 10.865 10.8 10.705C10.85 10.545 10.87 10.385 10.87 10.225C10.87 9.865 10.81 9.545 10.69 9.265C10.57 8.985 10.4 8.755 10.18 8.575C9.98 8.385 9.71 8.245 9.41 8.145C9.1 8.055 8.76 8.005 8.39 8.005C8.03 8.005 7.7 8.055 7.39 8.165C7.09 8.275 6.82 8.425 6.6 8.615C6.39 8.805 6.22 9.025 6.09 9.285C5.97 9.545 5.91 9.825 5.91 10.135H7.21C7.21 9.965 7.24 9.815 7.3 9.685C7.36 9.555 7.44 9.435 7.55 9.345C7.66 9.255 7.78 9.175 7.93 9.125C8.08 9.075 8.23 9.045 8.41 9.045C8.81 9.045 9.11 9.145 9.3 9.355C9.49 9.555 9.59 9.845 9.59 10.215C9.59 10.395 9.56 10.555 9.51 10.705C9.46 10.855 9.37 10.975 9.26 11.075C9.15 11.175 9.01 11.255 8.85 11.315C8.69 11.375 8.49 11.405 8.27 11.405H7.5V12.435H8.27C8.49 12.435 8.69 12.455 8.87 12.505C9.05 12.555 9.2 12.635 9.32 12.735C9.44 12.845 9.54 12.975 9.61 13.135C9.68 13.295 9.71 13.485 9.71 13.705C9.71 14.115 9.59 14.425 9.36 14.635C9.13 14.865 8.81 14.965 8.41 14.965ZM17.71 10.245C17.53 9.775 17.28 9.375 16.96 9.045C16.64 8.715 16.26 8.455 15.82 8.275C15.39 8.095 14.9 8.005 14.36 8.005H12V16.005H14.3C14.85 16.005 15.36 15.915 15.81 15.735C16.26 15.555 16.65 15.305 16.97 14.975C17.29 14.645 17.54 14.245 17.71 13.785C17.88 13.315 17.97 12.795 17.97 12.215V11.815C17.97 11.235 17.88 10.715 17.71 10.245ZM16.58 12.205C16.58 12.625 16.53 12.995 16.44 13.335C16.34 13.665 16.2 13.955 16.01 14.185C15.82 14.415 15.58 14.595 15.3 14.715C15.01 14.835 14.68 14.895 14.31 14.895H13.4V9.115H14.37C15.09 9.115 15.64 9.345 16.01 9.805C16.39 10.265 16.58 10.925 16.58 11.795V12.205ZM15.15 3.845L16.48 2.515C19.57 3.975 21.82 6.885 22.37 10.375C22.43 10.785 22.81 11.065 23.23 10.995C23.64 10.935 23.92 10.545 23.85 10.135C23.25 6.325 20.89 3.125 17.61 1.385C15.94 0.495003 13.78 -0.124997 11.34 0.0250027L15.15 3.845ZM8.85 20.155L7.52 21.485C4.43 20.025 2.18 17.115 1.63 13.625C1.57 13.215 1.19 12.935 0.769998 13.005C0.359998 13.065 0.079998 13.455 0.149998 13.865C0.749998 17.675 3.11 20.875 6.39 22.615C8.06 23.505 10.22 24.125 12.66 23.975L8.85 20.155Z" fill="black"/>
</svg>
