<svg  viewBox="0 0 24 24" fill="none" xmlns="http://www.w3.org/2000/svg">
<path d="M20 2.70801H4.01C2.91 2.70801 2.01 3.60801 2.01 4.70801L2 20.288C2 21.178 3.08 21.628 3.71 20.998L6 18.708H20C21.1 18.708 22 17.808 22 16.708V4.70801C22 3.60801 21.1 2.70801 20 2.70801ZM12 6.70801C13.1 6.70801 14 7.60801 14 8.70801C14 9.80801 13.1 10.708 12 10.708C10.9 10.708 10 9.80801 10 8.70801C10 7.60801 10.9 6.70801 12 6.70801ZM16 14.708H8V14.138C8 13.328 8.48 12.608 9.22 12.288C10.07 11.918 11.01 11.708 12 11.708C12.99 11.708 13.93 11.918 14.78 12.288C15.52 12.608 16 13.328 16 14.138V14.708Z" fill="currentColor"/>
</svg>
