<svg  viewBox="0 0 24 24" fill="none" xmlns="http://www.w3.org/2000/svg">
<path d="M15.5 9C16.05 9 16.5 8.55 16.5 8C16.5 7.45 16.05 7 15.5 7H10.5C9.4 7 8.5 7.9 8.5 9V15C8.5 16.1 9.4 17 10.5 17H14.5C15.6 17 16.5 16.1 16.5 15V12C16.5 11.45 16.05 11 15.5 11H13.5C12.95 11 12.5 11.45 12.5 12C12.5 12.55 12.95 13 13.5 13H14.5V15H10.5V9H15.5Z" fill="currentColor"/>
<path d="M22.5 11H21.5V10C21.5 9.45 21.05 9 20.5 9C19.95 9 19.5 9.45 19.5 10V11H18.5C17.95 11 17.5 11.45 17.5 12C17.5 12.55 17.95 13 18.5 13H19.5V14C19.5 14.55 19.95 15 20.5 15C21.05 15 21.5 14.55 21.5 14V13H22.5C23.05 13 23.5 12.55 23.5 12C23.5 11.45 23.05 11 22.5 11Z" fill="currentColor"/>
<path d="M6.5 12V8C6.5 7.45 6.05 7 5.5 7C4.95 7 4.5 7.45 4.5 8V12H2.5V8C2.5 7.45 2.05 7 1.5 7C0.95 7 0.5 7.45 0.5 8V13C0.5 13.55 0.95 14 1.5 14H4.5V16C4.5 16.55 4.95 17 5.5 17C6.05 17 6.5 16.55 6.5 16V14C7.05 14 7.5 13.55 7.5 13C7.5 12.45 7.05 12 6.5 12Z" fill="currentColor"/>
</svg>
