<svg  viewBox="0 0 24 24" fill="none" xmlns="http://www.w3.org/2000/svg">
<path d="M15.87 15.1408L12.5 13.1408V8.61077C12.5 8.21077 12.18 7.89077 11.78 7.89077H11.72C11.32 7.89077 11 8.21077 11 8.61077V13.3308C11 13.6808 11.18 14.0108 11.49 14.1908L15.14 16.3808C15.48 16.5808 15.92 16.4808 16.12 16.1408C16.33 15.7908 16.22 15.3408 15.87 15.1408ZM21.18 4.90077L18.1 2.34077C17.68 1.99077 17.05 2.04077 16.69 2.47077C16.34 2.89077 16.4 3.52077 16.82 3.88077L19.89 6.44077C20.31 6.79077 20.94 6.74077 21.3 6.31077C21.66 5.89077 21.6 5.26077 21.18 4.90077ZM4.10001 6.44077L7.17001 3.88077C7.60001 3.52077 7.66001 2.89077 7.30001 2.47077C6.95001 2.04077 6.32001 1.99077 5.90001 2.34077L2.82001 4.90077C2.40001 5.26077 2.34001 5.89077 2.70001 6.31077C3.05001 6.74077 3.68001 6.79077 4.10001 6.44077ZM12 3.89077C7.03001 3.89077 3.00001 7.92077 3.00001 12.8908C3.00001 17.8608 7.03001 21.8908 12 21.8908C16.97 21.8908 21 17.8608 21 12.8908C21 7.92077 16.97 3.89077 12 3.89077ZM12 19.8908C8.14001 19.8908 5.00001 16.7508 5.00001 12.8908C5.00001 9.03077 8.14001 5.89077 12 5.89077C15.86 5.89077 19 9.03077 19 12.8908C19 16.7508 15.86 19.8908 12 19.8908Z" fill="currentColor"/>
</svg>
