<svg  viewBox="0 0 24 24" fill="none" xmlns="http://www.w3.org/2000/svg">
<path d="M13 7.16211C13 6.61211 12.56 6.16211 12 6.16211C11.45 6.16211 11 6.60211 11 7.16211V9.16211H9C8.45 9.16211 8 9.60211 8 10.1621C8 10.7121 8.44 11.1621 9 11.1621H11V13.1621C11 13.7121 11.44 14.1621 12 14.1621C12.55 14.1621 13 13.7221 13 13.1621V11.1621H15C15.55 11.1621 16 10.7221 16 10.1621C16 9.61211 15.56 9.16211 15 9.16211H13V7.16211ZM12 2.16211C16.2 2.16211 20 5.38211 20 10.3621C20 13.5421 17.55 17.2821 12.66 21.5921C12.28 21.9221 11.71 21.9221 11.33 21.5921C6.45 17.2821 4 13.5421 4 10.3621C4 5.38211 7.8 2.16211 12 2.16211Z" fill="currentColor"/>
</svg>
