<svg width="24" height="24" viewBox="0 0 24 24" fill="none" xmlns="http://www.w3.org/2000/svg">
<path d="M8.99715 9.5H14.9971C15.5471 9.5 15.9971 9.95 15.9971 10.5C15.9971 11.05 15.5471 11.5 14.9971 11.5H8.99715C8.44715 11.5 7.99715 11.05 7.99715 10.5C7.99715 9.95 8.44715 9.5 8.99715 9.5ZM20.9271 10.5C21.5471 10.5 21.9971 9.91 21.8571 9.31C21.3171 7.12 19.3471 5.5 16.9971 5.5H13.9471C13.4271 5.5 12.9971 5.93 12.9971 6.45C12.9971 6.97 13.4271 7.4 13.9471 7.4H16.9971C18.4471 7.4 19.6671 8.4 20.0071 9.74C20.1171 10.18 20.4771 10.5 20.9271 10.5ZM3.95715 9.88C4.23715 8.41 5.61715 7.4 7.11715 7.4H10.0471C10.5671 7.4 10.9971 6.97 10.9971 6.45C10.9971 5.93 10.5671 5.5 10.0471 5.5H7.21715C4.60715 5.5 2.27715 7.41 2.02715 10.01C1.73715 12.99 4.07715 15.5 6.99715 15.5H10.0471C10.5671 15.5 10.9971 15.07 10.9971 14.55C10.9971 14.03 10.5671 13.6 10.0471 13.6H6.99715C5.08715 13.6 3.57715 11.86 3.95715 9.88ZM17.9971 10.5C17.4471 10.5 16.9971 10.95 16.9971 11.5V13.5H14.9971C14.4471 13.5 13.9971 13.95 13.9971 14.5C13.9971 15.05 14.4471 15.5 14.9971 15.5H16.9971V17.5C16.9971 18.05 17.4471 18.5 17.9971 18.5C18.5471 18.5 18.9971 18.05 18.9971 17.5V15.5H20.9971C21.5471 15.5 21.9971 15.05 21.9971 14.5C21.9971 13.95 21.5471 13.5 20.9971 13.5H18.9971V11.5C18.9971 10.95 18.5471 10.5 17.9971 10.5Z" fill="black"/>
</svg>
