<svg width="24" height="24" viewBox="0 0 24 24" fill="none" xmlns="http://www.w3.org/2000/svg">
<path d="M15 11.8908H13V9.89077C13 9.34076 12.55 8.89077 12 8.89077C11.45 8.89077 11 9.34076 11 9.89077V11.8908H9.00001C8.45001 11.8908 8.00001 12.3408 8.00001 12.8908C8.00001 13.4408 8.45001 13.8908 9.00001 13.8908H11V15.8908C11 16.4408 11.45 16.8908 12 16.8908C12.55 16.8908 13 16.4408 13 15.8908V13.8908H15C15.55 13.8908 16 13.4408 16 12.8908C16 12.3408 15.55 11.8908 15 11.8908ZM21.18 4.90077L18.1 2.34077C17.68 1.99077 17.05 2.04077 16.69 2.47077C16.34 2.89077 16.4 3.52077 16.82 3.88077L19.89 6.44077C20.31 6.79077 20.94 6.74077 21.3 6.31077C21.66 5.89077 21.6 5.26077 21.18 4.90077ZM4.10001 6.44077L7.17001 3.88077C7.60001 3.52077 7.66001 2.89077 7.30001 2.47077C6.95001 2.04077 6.32001 1.99077 5.90001 2.34077L2.82001 4.90077C2.40001 5.26077 2.34001 5.89077 2.70001 6.31077C3.05001 6.74077 3.68001 6.79077 4.10001 6.44077ZM12 3.89077C7.03001 3.89077 3.00001 7.92077 3.00001 12.8908C3.00001 17.8608 7.03001 21.8908 12 21.8908C16.97 21.8908 21 17.8608 21 12.8908C21 7.92077 16.97 3.89077 12 3.89077ZM12 19.8908C8.14001 19.8908 5.00001 16.7508 5.00001 12.8908C5.00001 9.03077 8.14001 5.89077 12 5.89077C15.86 5.89077 19 9.03077 19 12.8908C19 16.7508 15.86 19.8908 12 19.8908Z" fill="black"/>
</svg>
