<svg  viewBox="0 0 24 24" fill="none" xmlns="http://www.w3.org/2000/svg">
<path d="M18.5 16.5V14.5C18.5 13.95 18.05 13.5 17.5 13.5C16.95 13.5 16.5 13.95 16.5 14.5V16.5H14.5C13.95 16.5 13.5 16.95 13.5 17.5C13.5 18.05 13.95 18.5 14.5 18.5H16.5V20.5C16.5 21.05 16.95 21.5 17.5 21.5C18.05 21.5 18.5 21.05 18.5 20.5V18.5H20.5C21.05 18.5 21.5 18.05 21.5 17.5C21.5 16.95 21.05 16.5 20.5 16.5H18.5Z" fill="currentColor"/>
<path d="M17.5 2.5C16.95 2.5 16.5 2.95 16.5 3.5V10.5C16.5 11.05 16.95 11.5 17.5 11.5C18.05 11.5 18.5 11.05 18.5 10.5V3.5C18.5 2.95 18.05 2.5 17.5 2.5Z" fill="currentColor"/>
<path d="M3.5 18.5C4.05 18.5 4.5 18.05 4.5 17.5V3.5C4.5 2.95 4.05 2.5 3.5 2.5C2.95 2.5 2.5 2.95 2.5 3.5V17.5C2.5 18.05 2.95 18.5 3.5 18.5Z" fill="currentColor"/>
<path d="M10.5 6.5C11.05 6.5 11.5 6.05 11.5 5.5V3.5C11.5 2.95 11.05 2.5 10.5 2.5C9.95 2.5 9.5 2.95 9.5 3.5V5.5C9.5 6.05 9.95 6.5 10.5 6.5Z" fill="currentColor"/>
<path d="M10.5 12.5C11.05 12.5 11.5 12.05 11.5 11.5V9.5C11.5 8.95 11.05 8.5 10.5 8.5C9.95 8.5 9.5 8.95 9.5 9.5V11.5C9.5 12.05 9.95 12.5 10.5 12.5Z" fill="currentColor"/>
<path d="M10.5 18.5C11.05 18.5 11.5 18.05 11.5 17.5V15.5C11.5 14.95 11.05 14.5 10.5 14.5C9.95 14.5 9.5 14.95 9.5 15.5V17.5C9.5 18.05 9.95 18.5 10.5 18.5Z" fill="currentColor"/>
</svg>
