<svg  viewBox="0 0 24 24" fill="none" xmlns="http://www.w3.org/2000/svg">
<path d="M20.2915 5.89205L10.2915 15.8921C9.90153 16.2821 9.27153 16.2821 8.88153 15.8921L6.05153 13.0621C5.66153 12.6721 5.66153 12.0421 6.05153 11.6521C6.44153 11.2621 7.07153 11.2621 7.46153 11.6521L9.58153 13.7721L18.8715 4.48205C19.2615 4.09205 19.8915 4.09205 20.2815 4.48205C20.6815 4.87205 20.6815 5.50205 20.2915 5.89205ZM11.0015 20.0021C6.29153 20.0021 2.52153 15.9121 3.05153 11.1021C3.44153 7.58205 6.17153 4.69205 9.66153 4.11205C11.4715 3.81205 13.1915 4.13205 14.6515 4.89205C15.0415 5.09205 15.5115 5.02205 15.8215 4.71205C16.3015 4.23205 16.1815 3.42205 15.5815 3.11205C14.1115 2.36205 12.4515 1.95205 10.6815 2.00205C5.54153 2.16205 1.27153 6.34205 1.01153 11.4721C0.721527 17.2421 5.30153 22.0021 11.0015 22.0021C12.2015 22.0021 13.3415 21.792 14.4115 21.4021C15.0915 21.1521 15.2815 20.2721 14.7615 19.7521C14.4915 19.482 14.0815 19.3821 13.7215 19.5221C12.8715 19.8321 11.9515 20.0021 11.0015 20.0021ZM18.0015 15.0021H16.0015C15.4515 15.0021 15.0015 15.4521 15.0015 16.0021C15.0015 16.5521 15.4515 17.0021 16.0015 17.0021H18.0015V19.0021C18.0015 19.552 18.4515 20.0021 19.0015 20.0021C19.5515 20.0021 20.0015 19.552 20.0015 19.0021V17.0021H22.0015C22.5515 17.0021 23.0015 16.5521 23.0015 16.0021C23.0015 15.4521 22.5515 15.0021 22.0015 15.0021H20.0015V13.0021C20.0015 12.4521 19.5515 12.0021 19.0015 12.0021C18.4515 12.0021 18.0015 12.4521 18.0015 13.0021V15.0021Z" fill="currentColor"/>
</svg>
