<svg  viewBox="0 0 24 24" fill="none" xmlns="http://www.w3.org/2000/svg">
<path d="M3.08943 4.5H16.0894C16.6394 4.5 17.0894 4.05 17.0894 3.5C17.0894 2.95 16.6394 2.5 16.0894 2.5H3.08943C2.53943 2.5 2.08943 2.95 2.08943 3.5C2.08943 4.05 2.53943 4.5 3.08943 4.5Z" fill="currentColor"/>
<path d="M15.0894 15.5H17.0894V12.5H17.2694C17.8994 12.5 18.3694 11.92 18.2494 11.3L17.2494 6.3C17.1594 5.84 16.7494 5.5 16.2694 5.5H2.90943C2.42943 5.5 2.01943 5.84 1.92943 6.3L0.929429 11.3C0.809429 11.92 1.27943 12.5 1.90943 12.5H2.08943V17.5C2.08943 18.05 2.53943 18.5 3.08943 18.5H10.0894C10.6394 18.5 11.0894 18.05 11.0894 17.5V12.5H15.0894V15.5ZM9.08943 16.5H4.08943V12.5H9.08943V16.5Z" fill="currentColor"/>
<path d="M22.0894 16.5H20.0894V14.5C20.0894 13.95 19.6394 13.5 19.0894 13.5C18.5394 13.5 18.0894 13.95 18.0894 14.5V16.5H16.0894C15.5394 16.5 15.0894 16.95 15.0894 17.5C15.0894 18.05 15.5394 18.5 16.0894 18.5H18.0894V20.5C18.0894 21.05 18.5394 21.5 19.0894 21.5C19.6394 21.5 20.0894 21.05 20.0894 20.5V18.5H22.0894C22.6394 18.5 23.0894 18.05 23.0894 17.5C23.0894 16.95 22.6394 16.5 22.0894 16.5Z" fill="currentColor"/>
</svg>
