<svg  viewBox="0 0 24 24" fill="none" xmlns="http://www.w3.org/2000/svg">
<path d="M23 4.5C23 5.05 22.55 5.5 22 5.5H21V6.5C21 7.05 20.55 7.5 20 7.5C19.45 7.5 19 7.05 19 6.5V5.5H18C17.45 5.5 17 5.05 17 4.5C17 3.95 17.45 3.5 18 3.5H19V2.5C19 1.95 19.45 1.5 20 1.5C20.55 1.5 21 1.95 21 2.5V3.5H22C22.55 3.5 23 3.95 23 4.5ZM20.52 9.45C20.83 10.41 21 11.44 21 12.5C21 18.02 16.52 22.5 11 22.5C5.48 22.5 1 18.02 1 12.5C1 6.98 5.48 2.5 11 2.5C12.5 2.5 13.92 2.84 15.2 3.44C15.08 3.77 15 4.12 15 4.5C15 5.85 15.9 7 17.13 7.37C17.5 8.6 18.65 9.5 20 9.5C20.18 9.5 20.35 9.48 20.52 9.45ZM6 10C6 10.83 6.67 11.5 7.5 11.5C8.33 11.5 9 10.83 9 10C9 9.17 8.33 8.5 7.5 8.5C6.67 8.5 6 9.17 6 10ZM15.31 14.5H6.69C6.31 14.5 6.06 14.92 6.25 15.25C7.2 16.89 8.97 18 11 18C13.03 18 14.8 16.89 15.75 15.25C15.94 14.92 15.7 14.5 15.31 14.5ZM16 10C16 9.17 15.33 8.5 14.5 8.5C13.67 8.5 13 9.17 13 10C13 10.83 13.67 11.5 14.5 11.5C15.33 11.5 16 10.83 16 10Z" fill="currentColor"/>
</svg>
