<svg  viewBox="0 0 24 24" fill="none" xmlns="http://www.w3.org/2000/svg">
<path d="M16 9.93391C17.08 9.93391 18.09 10.1839 19 10.6139V6.31391C19 5.48391 18.48 4.73391 17.7 4.44391L11.7 2.19391C11.25 2.02391 10.75 2.02391 10.3 2.19391L4.3 4.44391C3.52 4.74391 3 5.48391 3 6.32391V11.0239C3 16.0739 6.41 20.7839 11 21.9339C11.03 21.9239 11.05 21.9139 11.08 21.9139C9.8 20.6439 9 18.8839 9 16.9339C9 13.0639 12.13 9.93391 16 9.93391Z" fill="currentColor"/>
<path d="M16 11.9339C13.24 11.9339 11 14.1739 11 16.9339C11 19.6939 13.24 21.9339 16 21.9339C18.76 21.9339 21 19.6939 21 16.9339C21 14.1739 18.76 11.9339 16 11.9339ZM18.5 17.4339H16.5V19.4339C16.5 19.7139 16.28 19.9339 16 19.9339C15.72 19.9339 15.5 19.7139 15.5 19.4339V17.4339H13.5C13.22 17.4339 13 17.2139 13 16.9339C13 16.6539 13.22 16.4339 13.5 16.4339H15.5V14.4339C15.5 14.1539 15.72 13.9339 16 13.9339C16.28 13.9339 16.5 14.1539 16.5 14.4339V16.4339H18.5C18.78 16.4339 19 16.6539 19 16.9339C19 17.2139 18.78 17.4339 18.5 17.4339Z" fill="currentColor"/>
</svg>
