<svg  viewBox="0 0 24 24" fill="none" xmlns="http://www.w3.org/2000/svg">
<path d="M18.2962 1.01L8.29624 1C7.19624 1 6.29624 1.9 6.29624 3V6C6.29624 6.55 6.74624 7 7.29624 7C7.84624 7 8.29624 6.55 8.29624 6V5H18.2962V19H8.29624V18C8.29624 17.45 7.84624 17 7.29624 17C6.74624 17 6.29624 17.45 6.29624 18V21C6.29624 22.1 7.19624 23 8.29624 23H18.2962C19.3962 23 20.2962 22.1 20.2962 21V3C20.2962 1.9 19.3962 1.01 18.2962 1.01ZM11.2962 15C11.8462 15 12.2962 14.55 12.2962 14V9C12.2962 8.45 11.8462 8 11.2962 8H6.29624C5.74624 8 5.29624 8.45 5.29624 9C5.29624 9.55 5.74624 10 6.29624 10H8.88624L3.99624 14.89C3.60624 15.28 3.60624 15.91 3.99624 16.3C4.38624 16.69 5.01624 16.69 5.40624 16.3L10.2962 11.41V14C10.2962 14.55 10.7462 15 11.2962 15Z" fill="currentColor"/>
</svg>
