<svg  viewBox="0 0 24 24" fill="none" xmlns="http://www.w3.org/2000/svg">
<path d="M17.5 1.16211C18.05 1.16211 18.5 1.61211 18.5 2.16211V4.16211H20.5C21.05 4.16211 21.5 4.61211 21.5 5.16211C21.5 5.71211 21.05 6.16211 20.5 6.16211H18.5V8.16211C18.5 8.71211 18.05 9.16211 17.5 9.16211C16.95 9.16211 16.5 8.71211 16.5 8.16211V6.16211H14.5C13.95 6.16211 13.5 5.71211 13.5 5.16211C13.5 4.61211 13.95 4.16211 14.5 4.16211H16.5V2.16211C16.5 1.61211 16.95 1.16211 17.5 1.16211ZM10.5 13.1621C11.6 13.1621 12.5 12.2621 12.5 11.1621C12.5 10.0621 11.6 9.16211 10.5 9.16211C9.4 9.16211 8.5 10.0621 8.5 11.1621C8.5 12.2621 9.4 13.1621 10.5 13.1621ZM13.22 3.63211C12.78 3.99211 12.5 4.54211 12.5 5.16211C12.5 6.26211 13.4 7.16211 14.5 7.16211H15.5V8.16211C15.5 9.26211 16.4 10.1621 17.5 10.1621C17.82 10.1621 18.12 10.0821 18.39 9.95211C18.46 10.4021 18.5 10.8721 18.5 11.3621C18.5 14.5421 16.05 18.2821 11.16 22.5921C10.78 22.9221 10.21 22.9221 9.83 22.5921C4.95 18.2821 2.5 14.5421 2.5 11.3621C2.5 6.38211 6.3 3.16211 10.5 3.16211C11.44 3.16211 12.36 3.32211 13.22 3.63211Z" fill="currentColor"/>
</svg>
