<svg  viewBox="0 0 24 24" fill="none" xmlns="http://www.w3.org/2000/svg">
<path d="M13.9919 8.01318H15.9919V10.0132C15.9919 10.5632 16.4419 11.0132 16.9919 11.0132C17.5419 11.0132 17.9919 10.5632 17.9919 10.0132V8.01318H19.9919C20.5419 8.01318 20.9919 7.56318 20.9919 7.01318C20.9919 6.46318 20.5419 6.01318 19.9919 6.01318H17.9919V4.01318C17.9919 3.46318 17.5419 3.01318 16.9919 3.01318C16.4419 3.01318 15.9919 3.46318 15.9919 4.01318V6.01318H13.9919C13.4419 6.01318 12.9919 6.46318 12.9919 7.01318C12.9919 7.56318 13.4419 8.01318 13.9919 8.01318ZM19.2019 15.2832L16.6619 14.9932C16.0519 14.9232 15.4519 15.1332 15.0219 15.5632L13.1819 17.4032C10.3519 15.9632 8.03185 13.6532 6.59185 10.8132L8.44185 8.96318C8.87185 8.53318 9.08185 7.92318 9.01185 7.32318L8.72185 4.80318C8.61185 3.79318 7.75185 3.02318 6.74185 3.02318H5.01185C3.88185 3.02318 2.94185 3.96318 3.01185 5.09318C3.54185 13.6332 10.3719 20.4532 18.9019 20.9832C20.0319 21.0532 20.9719 20.1132 20.9719 18.9832V17.2532C20.9819 16.2532 20.2119 15.3932 19.2019 15.2832Z" fill="currentColor"/>
</svg>
