<svg width="24" height="24" viewBox="0 0 24 24" fill="none" xmlns="http://www.w3.org/2000/svg">
<path d="M10.5 10.5C10.5 9.95 10.95 9.5 11.5 9.5C12.05 9.5 12.5 9.95 12.5 10.5V17.5H10.5V10.5ZM19.5 13.5C18.95 13.5 18.5 13.95 18.5 14.5V19.5H4.5V5.5H9.5C10.05 5.5 10.5 5.05 10.5 4.5C10.5 3.95 10.05 3.5 9.5 3.5H4.5C3.4 3.5 2.5 4.4 2.5 5.5V19.5C2.5 20.6 3.4 21.5 4.5 21.5H18.5C19.6 21.5 20.5 20.6 20.5 19.5V14.5C20.5 13.95 20.05 13.5 19.5 13.5ZM20.5 5.5H18.5V3.5C18.5 2.95 18.05 2.5 17.5 2.5C16.95 2.5 16.5 2.95 16.5 3.5V5.5H14.5C13.95 5.5 13.5 5.95 13.5 6.5C13.5 7.05 13.95 7.5 14.5 7.5H16.5V9.5C16.5 10.05 16.95 10.5 17.5 10.5C18.05 10.5 18.5 10.05 18.5 9.5V7.5H20.5C21.05 7.5 21.5 7.05 21.5 6.5C21.5 5.95 21.05 5.5 20.5 5.5ZM15.5 13.5C14.95 13.5 14.5 13.95 14.5 14.5V17.5H16.5V14.5C16.5 13.95 16.05 13.5 15.5 13.5ZM6.5 12.5V17.5H8.5V12.5C8.5 11.95 8.05 11.5 7.5 11.5C6.95 11.5 6.5 11.95 6.5 12.5Z" fill="black"/>
</svg>
