<svg width="24" height="24" viewBox="0 0 24 24" fill="none" xmlns="http://www.w3.org/2000/svg">
<path d="M11.56 17.845C8.37998 17.695 5.84998 15.075 5.84998 11.855C5.84998 8.545 8.53998 5.855 11.85 5.855C15.07 5.855 17.69 8.385 17.84 11.565L15.74 10.935C15.33 9.165 13.74 7.855 11.85 7.855C9.63998 7.855 7.84998 9.645 7.84998 11.855C7.84998 13.745 9.15998 15.335 10.93 15.745L11.56 17.845ZM21.85 11.855C21.85 12.155 21.84 12.455 21.81 12.755L19.84 12.165C19.85 12.065 19.85 11.955 19.85 11.855C19.85 7.435 16.27 3.855 11.85 3.855C7.42998 3.855 3.84998 7.435 3.84998 11.855C3.84998 16.275 7.42998 19.855 11.85 19.855C11.95 19.855 12.06 19.855 12.16 19.845L12.75 21.815C12.45 21.845 12.15 21.855 11.85 21.855C6.32998 21.855 1.84998 17.375 1.84998 11.855C1.84998 6.335 6.32998 1.855 11.85 1.855C17.37 1.855 21.85 6.335 21.85 11.855ZM18.08 16.115L20.35 15.355C20.81 15.205 20.8 14.545 20.34 14.405L12.74 12.125C12.36 12.015 12 12.365 12.12 12.745L14.4 20.345C14.54 20.815 15.2 20.825 15.35 20.355L16.11 18.085L20.02 21.995C20.22 22.195 20.53 22.195 20.73 21.995L22 20.725C22.2 20.525 22.2 20.215 22 20.015L18.08 16.115Z" fill="black"/>
</svg>
