<svg  viewBox="0 0 24 24" fill="none" xmlns="http://www.w3.org/2000/svg">
<path d="M19.5 12.4898C20.43 12.4898 21.28 12.7698 22 13.2498V8.48977C22 7.38977 21.1 6.48977 20 6.48977H13.71L12.65 5.42977L13.71 4.36977C13.91 4.16977 13.91 3.85977 13.71 3.65977C13.51 3.45977 13.2 3.45977 13 3.65977L10.17 6.48977C9.97 6.68977 9.97 6.99977 10.17 7.19977C10.37 7.39977 10.68 7.39977 10.88 7.19977L11.94 6.13977L13 7.19977V9.48977C13 10.5898 12.1 11.4898 11 11.4898H10.46C11.41 12.5498 12 13.9498 12 15.4898C12 15.8298 11.96 16.1598 11.91 16.4898H15.05C15.3 14.2498 17.19 12.4898 19.5 12.4898Z" fill="currentColor"/>
<path d="M19.5 13.4898C17.57 13.4898 16 15.0598 16 16.9898C16 18.9198 17.57 20.4898 19.5 20.4898C21.43 20.4898 23 18.9198 23 16.9898C23 15.0598 21.43 13.4898 19.5 13.4898ZM19.5 18.4898C18.67 18.4898 18 17.8198 18 16.9898C18 16.1598 18.67 15.4898 19.5 15.4898C20.33 15.4898 21 16.1598 21 16.9898C21 17.8198 20.33 18.4898 19.5 18.4898Z" fill="currentColor"/>
<path d="M4 9.48977H9C9 8.38977 8.1 7.48977 7 7.48977H4C3.45 7.48977 3 7.93976 3 8.48977C3 9.04977 3.45 9.48977 4 9.48977Z" fill="currentColor"/>
<path d="M9.83 14.3098L9.65 13.8398L10.58 13.4898C10.12 12.4298 9.3 11.5798 8.27 11.0598L7.87 11.9498L7.41 11.7398L7.81 10.8398C7.26 10.6298 6.64 10.4898 6 10.4898C5.47 10.4898 4.96 10.5998 4.48 10.7498L4.82 11.6598L4.35 11.8398L4 10.9198C2.94 11.3798 2.09 12.1998 1.57 13.2298L2.46 13.6298L2.25 14.0898L1.35 13.6898C1.13 14.2398 1 14.8498 1 15.4898C1 16.0198 1.11 16.5298 1.26 17.0098L2.17 16.6698L2.35 17.1398L1.42 17.4898C1.88 18.5498 2.7 19.3998 3.73 19.9198L4.13 19.0298L4.59 19.2398L4.19 20.1398C4.76 20.3598 5.37 20.4898 6.01 20.4898C6.54 20.4898 7.05 20.3798 7.53 20.2298L7.18 19.3198L7.65 19.1398L8 20.0698C9.06 19.6098 9.91 18.7898 10.43 17.7598L9.54 17.3598L9.75 16.8998L10.65 17.2998C10.87 16.7298 11 16.1198 11 15.4798C11 14.9498 10.89 14.4398 10.74 13.9598L9.83 14.3098ZM7.15 18.2698C5.62 18.8998 3.86 18.1798 3.23 16.6498C2.6 15.1198 3.32 13.3598 4.85 12.7298C6.38 12.0998 8.14 12.8198 8.77 14.3498C9.41 15.8798 8.68 17.6298 7.15 18.2698Z" fill="currentColor"/>
</svg>
