<svg  viewBox="0 0 24 24" fill="none" xmlns="http://www.w3.org/2000/svg">
<path d="M14.3478 18.4512C14.0678 19.3412 13.3378 20.0712 12.4478 20.3512C10.9378 20.8312 9.5078 20.1212 8.8578 18.9312C8.5078 18.2812 9.0278 17.5012 9.7678 17.5012H9.7778C10.1178 17.5012 10.4578 17.6612 10.6178 17.9612C10.7878 18.2812 11.1178 18.5012 11.5078 18.5012C12.0578 18.5012 12.5078 18.0512 12.5078 17.5012C12.5078 16.9512 12.0578 16.5012 11.5078 16.5012H2.9978C2.4478 16.5012 1.9978 16.0512 1.9978 15.5012C1.9978 14.9512 2.4478 14.5012 2.9978 14.5012H11.4978C13.4578 14.5012 14.9978 16.4012 14.3478 18.4512ZM18.9078 6.17124C18.6178 4.91124 17.5878 3.88124 16.3278 3.59124C14.5678 3.19124 12.9578 4.12124 12.3078 5.57124C11.9978 6.24124 12.4778 7.00124 13.2078 7.00124C13.5978 7.00124 13.9578 6.78124 14.1078 6.43124C14.3378 5.88124 14.8678 5.50124 15.4978 5.50124C16.3278 5.50124 16.9978 6.17124 16.9978 7.00124C16.9978 7.83124 16.3278 8.50124 15.4978 8.50124H2.9978C2.4478 8.50124 1.9978 8.95124 1.9978 9.50124C1.9978 10.0512 2.4478 10.5012 2.9978 10.5012H15.4978C17.6978 10.5012 19.4278 8.46124 18.9078 6.17124ZM18.3978 11.5012H2.9978C2.4478 11.5012 1.9978 11.9512 1.9978 12.5012C1.9978 13.0512 2.4478 13.5012 2.9978 13.5012H18.4978C19.3278 13.5012 19.9978 14.1712 19.9978 15.0012C19.9978 15.6312 19.6178 16.1612 19.0678 16.3912C18.7078 16.5412 18.4978 16.9012 18.4978 17.2912C18.4978 18.0212 19.2578 18.5012 19.9278 18.2012C21.3578 17.5612 22.2778 15.9912 21.9278 14.2712C21.5878 12.6312 20.0678 11.5012 18.3978 11.5012Z" fill="currentColor"/>
</svg>
