<svg  viewBox="0 0 24 24" fill="none" xmlns="http://www.w3.org/2000/svg">
<path d="M15.5 18C15.5 18.55 15.05 19 14.5 19H10.5C9.95 19 9.5 18.55 9.5 18C9.5 17.45 9.95 17 10.5 17H11.5C11.03 12.79 7.61 9.45 3.38 9.04C2.87 8.99 2.5 8.56 2.5 8.05C2.5 7.46 3.02 6.99 3.61 7.05C7.53 7.44 10.87 9.87 12.5 13.3C13.63 10.87 15.49 9.05 17.28 7.78L15.36 5.86C15.04 5.54 15.26 5 15.71 5H21C21.28 5 21.5 5.22 21.5 5.5V10.79C21.5 11.24 20.96 11.46 20.65 11.14L18.71 9.2C16.43 10.78 13.95 13.3 13.5 17H14.5C15.05 17 15.5 17.45 15.5 18Z" fill="currentColor"/>
</svg>
