<svg viewBox="0 0 24 24" fill="none" xmlns="http://www.w3.org/2000/svg">
<path d="M5.50532 6.13938C4.60532 5.49938 4.38532 4.25938 5.01532 3.34938C5.64532 2.44938 6.89532 2.22938 7.80532 2.85938C8.70532 3.49938 8.92532 4.73938 8.29532 5.64938C7.65532 6.54938 6.41532 6.76938 5.50532 6.13938ZM16.1553 20.4994C16.1553 19.9494 15.7053 19.4994 15.1553 19.4994H9.08532C7.60532 19.4994 6.34532 18.4194 6.12532 16.9594L4.31532 8.27938C4.22532 7.82938 3.82532 7.49938 3.35532 7.49938C2.73532 7.49938 2.27532 8.06938 2.39532 8.67938L4.14532 17.2594C4.52532 19.6994 6.62532 21.4994 9.09532 21.4994H15.1553C15.7053 21.4994 16.1553 21.0494 16.1553 20.4994ZM15.6953 15.4994H11.5053L10.4753 11.3994C11.7553 12.1194 13.1053 12.6794 14.5753 12.6994C15.1553 12.7094 15.6253 12.2094 15.6253 11.6294C15.6253 11.0394 15.1353 10.5894 14.5453 10.5694C13.2353 10.5294 11.9153 10.0094 10.9353 9.23938L9.29532 7.96938C9.06532 7.78938 8.80532 7.66938 8.53532 7.58938C8.21532 7.49938 7.87532 7.46938 7.54532 7.52938H7.52532C6.29532 7.74938 5.47532 8.91938 5.68532 10.1394L7.03532 16.0594C7.31532 17.4794 8.54532 18.4994 9.98532 18.4994H16.8353L19.9253 20.9194C20.3453 21.2494 20.9453 21.2094 21.3153 20.8394C21.7653 20.3894 21.7153 19.6594 21.2153 19.2694L16.9253 15.9194C16.5753 15.6494 16.1453 15.4994 15.6953 15.4994Z" fill="currentColor"/>
</svg>
