<svg viewBox="0 0 24 24" fill="none" xmlns="http://www.w3.org/2000/svg">
<path d="M7.79999 5.87594C7.01999 5.09594 7.01999 3.82594 7.79999 3.04594C8.57999 2.26594 9.84999 2.26594 10.63 3.04594C11.41 3.82594 11.41 5.09594 10.63 5.87594C9.83999 6.66594 8.57999 6.66594 7.79999 5.87594ZM6.20999 16.4659V8.46594C6.20999 7.91594 5.75999 7.46594 5.20999 7.46594C4.65999 7.46594 4.20999 7.91594 4.20999 8.46594V16.4659C4.20999 19.2259 6.44999 21.4659 9.20999 21.4659H14.21C14.76 21.4659 15.21 21.0159 15.21 20.4659C15.21 19.9159 14.76 19.4659 14.21 19.4659H9.20999C7.54999 19.4659 6.20999 18.1259 6.20999 16.4659ZM19.49 19.8159L15.72 16.0459C15.35 15.6759 14.84 15.4659 14.31 15.4659H11.71V11.7859C12.8 12.6759 14.37 13.4859 15.91 13.8059C16.58 13.9459 17.21 13.4459 17.21 12.7659C17.21 12.2359 16.82 11.8059 16.29 11.7159C14.87 11.4759 13.41 10.7059 12.54 9.74594L11.14 8.19594C10.95 7.98594 10.71 7.81594 10.45 7.69594C10.16 7.55594 9.82999 7.46594 9.48999 7.46594H9.45999C8.21999 7.46594 7.20999 8.47594 7.20999 9.71594V15.4659C7.20999 17.1259 8.54999 18.4659 10.21 18.4659H15.28L18.06 21.2459C18.45 21.6359 19.1 21.6359 19.49 21.2459C19.89 20.8559 19.89 20.2159 19.49 19.8159Z" fill="currentColor"/>
</svg>
