<svg viewBox="0 0 24 24" fill="none" xmlns="http://www.w3.org/2000/svg">
<path d="M22.1087 14.54L21.4187 16.43L9.05866 11.96L10.4487 8.16999C10.8287 7.13999 11.9687 6.60999 13.0087 6.97999L19.6987 9.38999C21.7987 10.15 22.8787 12.45 22.1087 14.54ZM2.30866 12.73L7.85866 14.73V18.25C7.85866 18.8 8.30866 19.25 8.85866 19.25H14.8587C15.4087 19.25 15.8587 18.8 15.8587 18.25V17.62L19.4387 18.91C19.9587 19.1 20.5387 18.83 20.7287 18.31C20.9187 17.79 20.6487 17.21 20.1287 17.02L2.98866 10.84C2.46866 10.65 1.88866 10.92 1.69866 11.44C1.51866 11.96 1.78866 12.54 2.30866 12.73ZM7.15866 10.45C8.64866 9.72999 9.27866 7.93999 8.56866 6.44999C7.84866 4.95999 6.05866 4.32999 4.55866 5.04999C3.06866 5.75999 2.43866 7.54999 3.15866 9.04999C3.86866 10.54 5.65866 11.17 7.15866 10.45Z" fill="currentColor"/>
</svg>
