<svg viewBox="0 0 24 24" fill="none" xmlns="http://www.w3.org/2000/svg">
<path d="M3.49939 12.3145V4.31445C3.49939 3.76445 3.04939 3.31445 2.49939 3.31445C1.94939 3.31445 1.49939 3.76445 1.49939 4.31445V12.3145C1.49939 15.0745 3.73939 17.3145 6.49939 17.3145H11.4994C12.0494 17.3145 12.4994 16.8645 12.4994 16.3145C12.4994 15.7645 12.0494 15.3145 11.4994 15.3145H6.49939C4.83939 15.3145 3.49939 13.9745 3.49939 12.3145ZM22.3294 17.5545C21.9494 16.8345 21.0394 16.5845 20.2994 16.9245L19.2094 17.4245L15.7994 10.4445C15.4594 9.76445 14.7694 9.31445 14.0094 9.31445H10.4994V3.31445H4.49939V11.3145C4.49939 12.9745 5.83939 14.3145 7.49939 14.3145H14.4994L17.0594 19.5645C17.5394 20.5445 18.6994 20.9545 19.6894 20.5045L21.6394 19.6145C22.3994 19.2545 22.7294 18.3145 22.3294 17.5545Z" fill="currentColor"/>
</svg>
