<svg  viewBox="0 0 24 24" fill="none" xmlns="http://www.w3.org/2000/svg">
<path d="M22.0962 14.5033C22.0962 15.2033 21.4262 15.7033 20.7562 15.5133L17.6062 14.5833L10.5962 7.57332V3.40332C10.5962 2.57332 11.2662 1.90332 12.0962 1.90332C12.9262 1.90332 13.5962 2.57332 13.5962 3.40332V8.90332L21.5762 13.6033C21.8962 13.7833 22.0962 14.1333 22.0962 14.5033ZM3.60625 3.41332C3.21625 3.02332 2.58625 3.02332 2.19625 3.41332C1.80625 3.80332 1.80625 4.43332 2.19625 4.82332L7.86625 10.4933L2.61625 13.6033C2.29625 13.7833 2.09625 14.1333 2.09625 14.5033C2.09625 15.2033 2.76625 15.7033 3.43625 15.5133L10.5962 13.4133V18.9033L8.33625 20.2533C8.18625 20.3433 8.09625 20.5133 8.09625 20.6833V21.2633C8.09625 21.5933 8.40625 21.8333 8.71625 21.7533L11.6362 21.0233L12.0962 20.9033L12.4762 20.9933L12.8962 21.1033L14.7962 21.5833L15.4662 21.7533C15.7862 21.8333 16.0862 21.5933 16.0862 21.2633V20.6833C16.0862 20.5033 15.9962 20.3433 15.8462 20.2533L13.5962 18.9033V16.2333L19.1662 21.8033C19.5562 22.1933 20.1862 22.1933 20.5762 21.8033C20.9662 21.4133 20.9662 20.7833 20.5762 20.3933L3.60625 3.41332Z" fill="currentColor"/>
</svg>
