<svg  viewBox="0 0 24 24" fill="none" xmlns="http://www.w3.org/2000/svg">
<path d="M10.2617 6.18448C10.8817 6.00448 11.5417 5.89448 12.2217 5.89448C16.0817 5.89448 19.2217 9.03448 19.2217 12.8945C19.2217 13.5745 19.1117 14.2345 18.9317 14.8545L20.4917 16.4145C20.9617 15.3345 21.2217 14.1445 21.2217 12.8945C21.2217 7.92448 17.1917 3.89448 12.2217 3.89448C10.9717 3.89448 9.78175 4.15448 8.69175 4.61448L10.2617 6.18448ZM3.93175 2.68448C3.55175 2.30448 2.93175 2.30448 2.54175 2.68448L2.52175 2.71448C2.13175 3.10448 2.13175 3.72448 2.52175 4.10448L3.20175 4.78448L3.03175 4.92448C2.61175 5.26448 2.56175 5.88448 2.90175 6.30448L2.93175 6.33448C3.28175 6.75448 3.89175 6.80448 4.31175 6.45448L4.62175 6.20448L5.42175 7.00448C4.05175 8.58448 3.22175 10.6445 3.22175 12.8945C3.22175 17.8645 7.25175 21.8945 12.2217 21.8945C14.4717 21.8945 16.5317 21.0645 18.1117 19.6945L19.5217 21.1045C19.9017 21.4845 20.5217 21.4845 20.9117 21.1045L20.9417 21.0745C21.3217 20.6945 21.3217 20.0745 20.9417 19.6845L3.93175 2.68448ZM12.2217 19.8945C8.36175 19.8945 5.22175 16.7545 5.22175 12.8945C5.22175 11.1945 5.83175 9.63448 6.84175 8.42448L16.6917 18.2745C15.4817 19.2845 13.9217 19.8945 12.2217 19.8945ZM20.1317 6.45448C20.5517 6.80448 21.1617 6.74448 21.5117 6.33448L21.5417 6.30448C21.8917 5.88448 21.8317 5.27448 21.4217 4.92448L18.3217 2.33448C17.9017 1.98448 17.2917 2.04448 16.9417 2.45448L16.9117 2.48448C16.5617 2.90448 16.6217 3.51448 17.0317 3.86448L20.1317 6.45448ZM7.65175 3.57448C7.83175 3.23448 7.80175 2.80448 7.54175 2.48448L7.51175 2.45448C7.21175 2.09448 6.71175 2.02448 6.31175 2.23448L7.65175 3.57448Z" fill="currentColor"/>
</svg>
