<svg width="24" height="24" viewBox="0 0 24 24" fill="none" xmlns="http://www.w3.org/2000/svg">
<path d="M15.87 15.1407L12.5 13.1407V8.61069C12.5 8.21069 12.18 7.89069 11.78 7.89069H11.72C11.32 7.89069 11 8.21069 11 8.61069V13.3307C11 13.6807 11.18 14.0107 11.49 14.1907L15.14 16.3807C15.48 16.5807 15.92 16.4807 16.12 16.1407C16.33 15.7907 16.22 15.3407 15.87 15.1407ZM21.18 4.90069L18.1 2.34069C17.68 1.99069 17.05 2.04069 16.69 2.47069C16.34 2.89069 16.4 3.52069 16.82 3.88069L19.89 6.44069C20.31 6.79069 20.94 6.74069 21.3 6.31069C21.66 5.89069 21.6 5.26069 21.18 4.90069ZM4.10001 6.44069L7.17001 3.88069C7.60001 3.52069 7.66001 2.89069 7.30001 2.47069C6.95001 2.04069 6.32001 1.99069 5.90001 2.34069L2.82001 4.90069C2.40001 5.26069 2.34001 5.89069 2.70001 6.31069C3.05001 6.74069 3.68001 6.79069 4.10001 6.44069ZM12 3.89069C7.03001 3.89069 3.00001 7.92069 3.00001 12.8907C3.00001 17.8607 7.03001 21.8907 12 21.8907C16.97 21.8907 21 17.8607 21 12.8907C21 7.92069 16.97 3.89069 12 3.89069ZM12 19.8907C8.14001 19.8907 5.00001 16.7507 5.00001 12.8907C5.00001 9.03069 8.14001 5.89069 12 5.89069C15.86 5.89069 19 9.03069 19 12.8907C19 16.7507 15.86 19.8907 12 19.8907Z" fill="black"/>
</svg>
