<svg  viewBox="0 0 24 24" fill="none" xmlns="http://www.w3.org/2000/svg">
<path d="M21.08 11H17.08V7.5C17.08 6.67 16.41 6 15.58 6C14.75 6 14.08 6.67 14.08 7.5V11H10.08V4.5C10.08 3.67 9.41004 3 8.58004 3C7.75004 3 7.08004 3.67 7.08004 4.5V11H2.92004C2.37004 11 1.92004 11.45 1.92004 12C1.92004 12.55 2.37004 13 2.92004 13H7.08004V19.5C7.08004 20.33 7.75004 21 8.58004 21C9.41004 21 10.08 20.33 10.08 19.5V13H14.08V16.5C14.08 17.33 14.75 18 15.58 18C16.41 18 17.08 17.33 17.08 16.5V13H21.08C21.63 13 22.08 12.55 22.08 12C22.08 11.45 21.63 11 21.08 11Z" fill="currentColor"/>
</svg>
