<svg viewBox="0 0 24 24" fill="none" xmlns="http://www.w3.org/2000/svg">
<path d="M20.2254 6.85914C18.2254 6.25914 16.1654 6.81914 14.8354 8.14914L12.0054 10.6591L10.4854 11.9991H10.4954L7.80543 14.3891C6.99543 15.1991 5.85543 15.5391 4.68543 15.3091C3.43543 15.0591 2.40543 14.0591 2.11543 12.8191C1.59543 10.5891 3.27543 8.61914 5.40543 8.61914C6.31543 8.61914 7.16543 8.96914 7.84543 9.64914L8.31543 10.0591C8.69543 10.3991 9.26543 10.3991 9.64543 10.0591C10.0954 9.65914 10.0954 8.95914 9.64543 8.55914L9.22543 8.19914C8.20543 7.17914 6.84543 6.61914 5.40543 6.61914C2.42543 6.61914 0.00543213 9.03914 0.00543213 11.9991C0.00543213 14.9591 2.42543 17.3791 5.40543 17.3791C6.84543 17.3791 8.20543 16.8191 9.17543 15.8491L12.0054 13.3491L12.0154 13.3591L13.5254 11.9991H13.5154L16.2054 9.60914C17.0154 8.79914 18.1554 8.45914 19.3254 8.68914C20.5754 8.93914 21.6054 9.93914 21.8954 11.1791C22.4154 13.4091 20.7354 15.3791 18.6054 15.3791C17.7054 15.3791 16.8454 15.0291 16.1654 14.3491L15.6854 13.9291C15.3054 13.5891 14.7354 13.5891 14.3554 13.9291C13.9054 14.3291 13.9054 15.0291 14.3554 15.4291L14.7754 15.7991C15.7954 16.8091 17.1454 17.3691 18.5954 17.3691C21.8654 17.3691 24.4554 14.4691 23.9254 11.1191C23.6254 9.12914 22.1554 7.42914 20.2254 6.85914Z" fill="currentColor"/>
</svg>
