<svg  viewBox="0 0 24 24" fill="none" xmlns="http://www.w3.org/2000/svg">
<path d="M9.77994 11.0596L8.35994 12.4796C7.67994 11.7896 7.01994 10.8996 6.56994 9.53961L8.50994 9.04961C8.82994 9.93961 9.27994 10.5496 9.77994 11.0596ZM10.1499 5.04961L7.34994 2.24961C7.14994 2.04961 6.83994 2.04961 6.63994 2.24961L3.84994 5.04961C3.53994 5.35961 3.75994 5.89961 4.20994 5.89961H6.01994C6.03994 6.70961 6.09994 7.43961 6.20994 8.06961L8.14994 7.57961C8.07994 7.09961 8.02994 6.52961 8.01994 5.89961H9.79994C10.2399 5.89961 10.4599 5.35961 10.1499 5.04961ZM20.1499 5.04961L17.3599 2.25961C17.1599 2.05961 16.8499 2.05961 16.6499 2.25961L13.8599 5.04961C13.5399 5.35961 13.7599 5.89961 14.2099 5.89961H15.9899C15.8899 9.57961 14.7099 10.6496 13.4499 11.7796C12.9499 12.2196 12.4399 12.6996 11.9999 13.3296C11.6599 12.8396 11.2699 12.4496 10.8699 12.0896L9.45994 13.4996C10.3899 14.3496 10.9999 15.0396 10.9999 16.8996V20.8996C10.9999 21.4496 11.4499 21.8996 11.9999 21.8996C12.5499 21.8996 12.9999 21.4496 12.9999 20.8996V16.8996C12.9999 14.8796 13.7099 14.2396 14.7899 13.2696C16.1699 12.0296 17.8699 10.4896 17.9899 5.89961H19.7899C20.2399 5.89961 20.4599 5.35961 20.1499 5.04961Z" fill="currentColor"/>
</svg>
