<svg width="24" height="24" viewBox="0 0 24 24" fill="none" xmlns="http://www.w3.org/2000/svg">
<path d="M12.7178 2.02763C6.62781 1.59763 1.59781 6.62763 2.02781 12.7176C2.38781 18.0076 7.00781 21.9976 12.3078 21.9976H15.9978C16.5478 21.9976 16.9978 21.5476 16.9978 20.9976C16.9978 20.4476 16.5478 19.9976 15.9978 19.9976H12.3278C8.59781 19.9976 5.17781 17.5776 4.24781 13.9676C2.75781 8.16763 8.15781 2.75763 13.9578 4.25763C17.5778 5.17763 19.9978 8.59763 19.9978 12.3276V13.4276C19.9978 14.2176 19.2878 14.9976 18.4978 14.9976C17.7078 14.9976 16.9978 14.2176 16.9978 13.4276V12.1776C16.9978 9.66763 15.2178 7.40763 12.7378 7.05763C9.33781 6.56763 6.46781 9.50763 7.07781 12.9276C7.41781 14.8376 8.90781 16.4176 10.7978 16.8676C12.6378 17.2976 14.3878 16.7076 15.5378 15.5376C16.4278 16.7576 18.2078 17.3976 19.8378 16.7476C21.1778 16.2176 21.9978 14.8476 21.9978 13.4076V12.3176C21.9978 7.00763 18.0078 2.38763 12.7178 2.02763ZM11.9978 14.9976C10.3378 14.9976 8.99781 13.6576 8.99781 11.9976C8.99781 10.3376 10.3378 8.99763 11.9978 8.99763C13.6578 8.99763 14.9978 10.3376 14.9978 11.9976C14.9978 13.6576 13.6578 14.9976 11.9978 14.9976Z" fill="black"/>
</svg>
