<svg width="24" height="24" viewBox="0 0 24 24" fill="none" xmlns="http://www.w3.org/2000/svg">
<path d="M15.17 18H5.16998V6H15.17V7H17.17V3C17.17 1.9 16.27 1 15.17 1H5.16998C4.06998 1 3.16998 1.9 3.16998 3V21C3.16998 22.1 4.06998 23 5.16998 23H15.17C16.27 23 17.17 22.1 17.17 21V17H15.17V18Z" fill="black"/>
<path d="M18.55 9.62L18.95 10.49C19.04 10.69 19.32 10.69 19.41 10.49L19.81 9.62L20.68 9.22C20.88 9.13 20.88 8.85 20.68 8.76L19.81 8.36L19.41 7.49C19.32 7.29 19.04 7.29 18.95 7.49L18.55 8.36L17.68 8.76C17.48 8.85 17.48 9.13 17.68 9.22L18.55 9.62Z" fill="black"/>
<path d="M13.71 9L12.92 10.75L11.17 11.54C10.78 11.72 10.78 12.27 11.17 12.45L12.92 13.24L13.71 15C13.89 15.39 14.44 15.39 14.62 15L15.41 13.25L17.17 12.46C17.56 12.28 17.56 11.73 17.17 11.55L15.42 10.76L14.63 9C14.45 8.61 13.89 8.61 13.71 9Z" fill="black"/>
<path d="M18.94 13.5L18.54 14.37L17.67 14.77C17.47 14.86 17.47 15.14 17.67 15.23L18.54 15.63L18.94 16.5C19.03 16.7 19.31 16.7 19.4 16.5L19.8 15.63L20.67 15.23C20.87 15.14 20.87 14.86 20.67 14.77L19.8 14.37L19.4 13.5C19.31 13.31 19.03 13.31 18.94 13.5Z" fill="black"/>
</svg>
