<svg width="24" height="24" viewBox="0 0 24 24" fill="none" xmlns="http://www.w3.org/2000/svg">
<path d="M4 10C5.1 10 6 9.1 6 8C6 6.9 5.1 6 4 6C2.9 6 2 6.9 2 8C2 9.1 2.9 10 4 10ZM10 22C11.1 22 12 21.1 12 20C12 18.9 11.1 18 10 18C8.9 18 8 18.9 8 20C8 21.1 8.9 22 10 22ZM4 22C5.1 22 6 21.1 6 20C6 18.9 5.1 18 4 18C2.9 18 2 18.9 2 20C2 21.1 2.9 22 4 22ZM4 16C5.1 16 6 15.1 6 14C6 12.9 5.1 12 4 12C2.9 12 2 12.9 2 14C2 15.1 2.9 16 4 16ZM10 16C11.1 16 12 15.1 12 14C12 12.9 11.1 12 10 12C8.9 12 8 12.9 8 14C8 15.1 8.9 16 10 16ZM10.07 6C10.05 6 10.02 6 10 6C8.9 6 8 6.9 8 8C8 9.1 8.9 10 10 10C10.22 10 10.43 9.96 10.63 9.9C10.22 9.01 10 8.03 10 7C10 6.66 10.02 6.33 10.07 6ZM17 14C15.97 14 14.99 13.78 14.1 13.37C14.04 13.57 14 13.78 14 14C14 15.1 14.9 16 16 16C17.1 16 18 15.1 18 14C18 13.98 18 13.95 18 13.93C17.67 13.98 17.34 14 17 14ZM16 22C17.1 22 18 21.1 18 20C18 18.9 17.1 18 16 18C14.9 18 14 18.9 14 20C14 21.1 14.9 22 16 22ZM17 2C14.24 2 12 4.24 12 7C12 9.76 14.24 12 17 12C19.76 12 22 9.76 22 7C22 4.24 19.76 2 17 2ZM17.5 9.5C17.5 9.78 17.28 10 17 10C16.73 10 16.5 9.78 16.5 9.5C16.5 9.22 16.72 9 17 9C17.28 9 17.5 9.22 17.5 9.5ZM17 8C16.72 8 16.5 7.78 16.5 7.5V4.5C16.5 4.22 16.72 4 17 4C17.28 4 17.5 4.22 17.5 4.5V7.5C17.5 7.78 17.28 8 17 8Z" fill="black"/>
</svg>
