<svg  viewBox="0 0 24 24" fill="none" xmlns="http://www.w3.org/2000/svg">
<path d="M6.35498 18.78L6.60498 21L8.22498 19.46L10.995 11.86C10.315 11.69 9.71498 11.35 9.22498 10.88L6.35498 18.78Z" fill="currentColor"/>
<path d="M14.765 10.88C14.275 11.35 13.665 11.69 12.995 11.86L15.765 19.46L17.385 21L17.645 18.78L14.765 10.88Z" fill="currentColor"/>
<path d="M14.935 8.6C15.235 7.04 14.335 5.66 12.995 5.18V4C12.995 3.45 12.545 3 11.995 3C11.445 3 10.995 3.45 10.995 4V5.18C9.83498 5.6 8.99498 6.7 8.99498 8C8.99498 9.84 10.655 11.3 12.555 10.95C13.735 10.73 14.705 9.78 14.935 8.6ZM11.995 9C11.445 9 10.995 8.55 10.995 8C10.995 7.45 11.445 7 11.995 7C12.545 7 12.995 7.45 12.995 8C12.995 8.55 12.545 9 11.995 9Z" fill="currentColor"/>
</svg>
