<svg width="24" height="24" viewBox="0 0 24 24" fill="none" xmlns="http://www.w3.org/2000/svg">
<path d="M8 17.2804L11.39 12.6204C11.72 12.1604 12.37 12.0704 12.81 12.4204L21 18.7804V19.2804C21 19.8304 20.55 20.2804 20 20.2804H4C3.45 20.2804 3 19.8304 3 19.2804V13.5604C3.22 13.5604 3.44 13.6304 3.62 13.7804L8 17.2804ZM3 11.2804C3.44 11.2804 3.88 11.4304 4.25 11.7204L7.62 14.4104L10.39 10.6004C11.05 9.69043 12.34 9.50043 13.24 10.2004L21 16.2504V8.28043C21 7.73043 20.55 7.28043 20 7.28043H17L12.82 3.94043C12.37 3.58043 11.72 3.67043 11.38 4.14043L7 10.2804L3.6 7.73043C3.42 7.60043 3.21 7.53043 3 7.53043V11.2804Z" fill="black"/>
</svg>
