<svg viewBox="0 0 24 24" fill="none" xmlns="http://www.w3.org/2000/svg">
<path d="M20.305 6.14992L20.795 5.08992L21.855 4.59992C22.245 4.41992 22.245 3.86992 21.855 3.68992L20.795 3.19992L20.305 2.14992C20.125 1.75992 19.575 1.75992 19.395 2.14992L18.905 3.20992L17.855 3.69992C17.465 3.87992 17.465 4.42992 17.855 4.60992L18.915 5.09992L19.405 6.14992C19.575 6.53992 20.135 6.53992 20.305 6.14992Z" fill="currentColor"/>
<path d="M17.565 9.26992L14.735 6.43992C14.345 6.04992 13.715 6.04992 13.325 6.43992L2.14504 17.6099C1.75504 17.9999 1.75504 18.6299 2.14504 19.0199L4.97504 21.8499C5.36504 22.2399 5.99504 22.2399 6.38504 21.8499L17.555 10.6799C17.955 10.2999 17.955 9.65992 17.565 9.26992ZM14.065 11.3599L12.655 9.94992L14.035 8.56992L15.445 9.97992L14.065 11.3599Z" fill="currentColor"/>
</svg>
