<svg viewBox="0 0 24 24" fill="none" xmlns="http://www.w3.org/2000/svg">
<path d="M21.9499 3.6052L20.8899 3.1152L20.3999 2.0552C20.2199 1.6652 19.6699 1.6652 19.4899 2.0552L18.9999 3.1152L17.9499 3.6052C17.5599 3.7852 17.5599 4.3352 17.9499 4.5152L19.0099 5.0052L19.4999 6.0552C19.6799 6.4452 20.2299 6.4452 20.4099 6.0552L20.8999 4.9952L21.9499 4.5052C22.3399 4.3352 22.3399 3.7752 21.9499 3.6052Z" fill="currentColor"/>
<path d="M14.1199 8.4752L15.5299 9.88519L14.0699 11.3452L15.4799 12.7552L17.6499 10.5852C18.0399 10.1952 18.0399 9.5652 17.6499 9.1752L14.8199 6.3452C14.4299 5.9552 13.7999 5.9552 13.4099 6.3452L11.2399 8.5152L12.6499 9.9252L14.1199 8.4752Z" fill="currentColor"/>
<path d="M2.04995 4.9852L8.40995 11.3452L2.23995 17.5152C1.84995 17.9052 1.84995 18.5352 2.23995 18.9252L5.06995 21.7552C5.45995 22.1452 6.08995 22.1452 6.47995 21.7552L12.6499 15.5852L19.0099 21.9452C19.3999 22.3352 20.0299 22.3352 20.4199 21.9452C20.8099 21.5552 20.8099 20.9252 20.4199 20.5352L3.45995 3.5652C3.06995 3.1752 2.43995 3.1752 2.04995 3.5652C1.65995 3.9652 1.65995 4.5952 2.04995 4.9852Z" fill="currentColor"/>
</svg>
