<svg width="24" height="24" viewBox="0 0 24 24" fill="none" xmlns="http://www.w3.org/2000/svg">
<path d="M13.891 10.5475L12.831 10.0575C12.441 9.87746 12.441 9.32746 12.831 9.14746L13.891 8.65746L14.381 7.60746C14.561 7.21746 15.111 7.21746 15.291 7.60746L15.781 8.66746L16.831 9.15746C17.221 9.33746 17.221 9.88746 16.831 10.0675L15.771 10.5575L15.281 11.6075C15.101 11.9975 14.551 11.9975 14.371 11.6075L13.891 10.5475ZM4.28101 13.6075L4.77101 12.5475L5.83101 12.0575C6.22101 11.8775 6.22101 11.3275 5.83101 11.1475L4.77101 10.6575L4.28101 9.60746C4.11101 9.21746 3.55101 9.21746 3.38101 9.60746L2.89101 10.6675L1.83101 11.1575C1.44101 11.3375 1.44101 11.8875 1.83101 12.0675L2.89101 12.5575L3.38101 13.6075C3.55101 13.9975 4.11101 13.9975 4.28101 13.6075ZM8.79101 8.59746L9.42101 7.19746L10.821 6.56746C11.211 6.38746 11.211 5.83746 10.821 5.65746L9.42101 5.02746L8.79101 3.62746C8.61101 3.23746 8.06101 3.23746 7.88101 3.62746L7.25101 5.02746L5.85101 5.65746C5.46101 5.83746 5.46101 6.38746 5.85101 6.56746L7.25101 7.19746L7.88101 8.59746C8.05101 8.98746 8.61101 8.98746 8.79101 8.59746ZM22.171 8.87746C21.771 8.47746 21.101 8.48746 20.721 8.91746L14.331 16.0975L11.041 12.8075C10.651 12.4175 10.021 12.4175 9.63101 12.8075L3.59101 18.8575C3.18101 19.2675 3.18101 19.9475 3.59101 20.3575C4.00101 20.7675 4.68101 20.7675 5.09101 20.3575L10.341 15.0975L13.591 18.3475C14.001 18.7575 14.661 18.7375 15.041 18.3075L22.211 10.2375C22.561 9.84746 22.541 9.24746 22.171 8.87746Z" fill="black"/>
</svg>
