<svg viewBox="0 0 24 24" fill="none" xmlns="http://www.w3.org/2000/svg">
<path d="M19.1062 7.99953L19.8962 6.24953L21.6462 5.45953C22.0362 5.27953 22.0362 4.72953 21.6462 4.54953L19.8962 3.75953L19.1062 1.99953C18.9262 1.60953 18.3762 1.60953 18.1962 1.99953L17.4062 3.74953L15.6462 4.53953C15.2562 4.71953 15.2562 5.26953 15.6462 5.44953L17.3962 6.23953L18.1862 7.99953C18.3662 8.38953 18.9262 8.38953 19.1062 7.99953ZM11.1462 9.49953L9.55625 5.99953C9.20625 5.21953 8.08625 5.21953 7.73625 5.99953L6.14625 9.49953L2.64625 11.0895C1.86625 11.4495 1.86625 12.5595 2.64625 12.9095L6.14625 14.4995L7.73625 17.9995C8.09625 18.7795 9.20625 18.7795 9.55625 17.9995L11.1462 14.4995L14.6462 12.9095C15.4262 12.5495 15.4262 11.4395 14.6462 11.0895L11.1462 9.49953ZM18.1862 15.9995L17.3962 17.7495L15.6462 18.5395C15.2562 18.7195 15.2562 19.2695 15.6462 19.4495L17.3962 20.2395L18.1862 21.9995C18.3662 22.3895 18.9162 22.3895 19.0962 21.9995L19.8862 20.2495L21.6462 19.4595C22.0362 19.2795 22.0362 18.7295 21.6462 18.5495L19.8962 17.7595L19.1062 15.9995C18.9262 15.6095 18.3662 15.6095 18.1862 15.9995Z" fill="currentColor"/>
</svg>
