<svg viewBox="0 0 24 24" fill="none" xmlns="http://www.w3.org/2000/svg">
<path d="M20.305 6.14992L20.795 5.08992L21.855 4.59992C22.245 4.41992 22.245 3.86992 21.855 3.68992L20.795 3.19992L20.305 2.14992C20.125 1.75992 19.575 1.75992 19.395 2.14992L18.905 3.20992L17.855 3.69992C17.465 3.87992 17.465 4.42992 17.855 4.60992L18.915 5.09992L19.405 6.14992C19.575 6.53992 20.135 6.53992 20.305 6.14992Z" fill="currentColor"/>
<path d="M8.80504 6.14992L9.29504 5.08992L10.355 4.59992C10.745 4.41992 10.745 3.86992 10.355 3.68992L9.29504 3.20992L8.80504 2.14992C8.63504 1.75992 8.07504 1.75992 7.90504 2.14992L7.41504 3.20992L6.35504 3.69992C5.96504 3.87992 5.96504 4.42992 6.35504 4.60992L7.41504 5.09992L7.90504 6.14992C8.07504 6.53992 8.63504 6.53992 8.80504 6.14992Z" fill="currentColor"/>
<path d="M19.405 13.6499L18.915 14.7099L17.855 15.1999C17.465 15.3799 17.465 15.9299 17.855 16.1099L18.915 16.5999L19.405 17.6599C19.585 18.0499 20.135 18.0499 20.315 17.6599L20.805 16.5999L21.855 16.0999C22.245 15.9199 22.245 15.3699 21.855 15.1899L20.795 14.6999L20.305 13.6399C20.135 13.2599 19.575 13.2599 19.405 13.6499Z" fill="currentColor"/>
<path d="M17.565 9.26992L14.735 6.43992C14.345 6.04992 13.715 6.04992 13.325 6.43992L2.14504 17.6099C1.75504 17.9999 1.75504 18.6299 2.14504 19.0199L4.97504 21.8499C5.36504 22.2399 5.99504 22.2399 6.38504 21.8499L17.555 10.6799C17.955 10.2999 17.955 9.65992 17.565 9.26992ZM14.065 11.3599L12.655 9.94992L14.035 8.56992L15.445 9.97992L14.065 11.3599Z" fill="currentColor"/>
</svg>
