<svg viewBox="0 0 24 24" fill="none" xmlns="http://www.w3.org/2000/svg">
<path d="M12.03 5.8H11.97L10.95 8.69H13.05L12.03 5.8Z" fill="currentColor"/>
<path d="M4 21.5C4.55 21.5 5 21.05 5 20.5V17.5C5 16.95 4.55 16.5 4 16.5C3.45 16.5 3 16.95 3 17.5V20.5C3 21.05 3.45 21.5 4 21.5Z" fill="currentColor"/>
<path d="M12 14.5C15.31 14.5 18 11.81 18 8.5C18 5.19 15.31 2.5 12 2.5C8.69 2.5 6 5.19 6 8.5C6 11.81 8.69 14.5 12 14.5ZM12 4.5C12.38 4.5 12.71 4.73 12.85 5.09L14.97 10.74C15.11 11.11 14.84 11.5 14.44 11.5C14.2 11.5 13.99 11.35 13.91 11.12L13.42 9.71H10.59L10.09 11.12C10.01 11.35 9.8 11.5 9.56 11.5C9.17 11.5 8.89 11.11 9.03 10.74L11.15 5.09C11.29 4.73 11.62 4.5 12 4.5Z" fill="currentColor"/>
<path d="M8 21.5C8.55 21.5 9 21.05 9 20.5V17.5C9 16.95 8.55 16.5 8 16.5C7.45 16.5 7 16.95 7 17.5V20.5C7 21.05 7.45 21.5 8 21.5Z" fill="currentColor"/>
<path d="M12 21.5C12.55 21.5 13 21.05 13 20.5V17.5C13 16.95 12.55 16.5 12 16.5C11.45 16.5 11 16.95 11 17.5V20.5C11 21.05 11.45 21.5 12 21.5Z" fill="currentColor"/>
<path d="M15 17.5V20.5C15 21.05 15.45 21.5 16 21.5H20C20.55 21.5 21 21.05 21 20.5V17.5C21 16.95 20.55 16.5 20 16.5H16C15.45 16.5 15 16.95 15 17.5Z" fill="currentColor"/>
</svg>
