<svg viewBox="0 0 24 24" fill="none" xmlns="http://www.w3.org/2000/svg">
<path d="M18.15 2.74716L14.15 6.74716C14.05 6.84716 14 6.96716 14 7.10716V15.2772C14 15.7072 14.51 15.9372 14.83 15.6472L18.83 12.0472C18.94 11.9572 19 11.8172 19 11.6772V3.10716C19 2.65716 18.46 2.43716 18.15 2.74716ZM22.47 6.59716C22 6.35716 21.51 6.15716 21 5.98716V18.0172C19.86 17.6072 18.69 17.3972 17.5 17.3972C15.6 17.3972 13.72 17.9372 12 18.9772V6.87716C10.38 5.94716 8.51 5.39716 6.5 5.39716C4.71 5.39716 3.02 5.83716 1.53 6.59716C1.2 6.75716 1 7.10716 1 7.47716V19.5572C1 20.3172 1.81 20.7872 2.48 20.4272C3.69 19.7972 5.05 19.3972 6.5 19.3972C8.57 19.3972 10.48 20.2172 12 21.3972C13.52 20.2172 15.43 19.3972 17.5 19.3972C18.95 19.3972 20.31 19.7972 21.52 20.4372C22.19 20.7972 23 20.3272 23 19.5672V7.47716C23 7.10716 22.8 6.75716 22.47 6.59716Z" fill="currentColor"/>
</svg>
