<svg width="24" height="24" viewBox="0 0 24 24" fill="none" xmlns="http://www.w3.org/2000/svg">
<path d="M12.0024 17.9985C12.5547 17.9985 13.0024 17.5508 13.0024 16.9985C13.0024 16.4462 12.5547 15.9985 12.0024 15.9985C11.4502 15.9985 11.0024 16.4462 11.0024 16.9985C11.0024 17.5508 11.4502 17.9985 12.0024 17.9985Z" fill="black"/>
<path d="M7.00244 12.9985C7.55473 12.9985 8.00244 12.5508 8.00244 11.9985C8.00244 11.4462 7.55473 10.9985 7.00244 10.9985C6.45016 10.9985 6.00244 11.4462 6.00244 11.9985C6.00244 12.5508 6.45016 12.9985 7.00244 12.9985Z" fill="black"/>
<path d="M17.0024 12.9985C17.5547 12.9985 18.0024 12.5508 18.0024 11.9985C18.0024 11.4462 17.5547 10.9985 17.0024 10.9985C16.4502 10.9985 16.0024 11.4462 16.0024 11.9985C16.0024 12.5508 16.4502 12.9985 17.0024 12.9985Z" fill="black"/>
<path d="M12.0024 2.99854C11.4524 2.99854 11.0024 3.44854 11.0024 3.99854V5.99854C11.0024 6.54854 11.4524 6.99854 12.0024 6.99854C12.5524 6.99854 13.0024 6.54854 13.0024 5.99854V5.07854C16.3124 5.55854 18.8724 8.32854 19.0024 11.7385C19.1424 15.5885 15.9724 18.9385 12.1224 18.9985C8.19244 19.0585 5.00244 15.9085 5.00244 11.9985C5.00244 10.3185 5.59244 8.77853 6.58244 7.57854L11.2924 12.2985C11.6824 12.6885 12.3124 12.6885 12.7024 12.2985C13.0924 11.9085 13.0924 11.2785 12.7024 10.8885L7.26244 5.45854C6.88244 5.07854 6.26244 5.06854 5.86244 5.43854C4.10244 7.06854 3.00244 9.39854 3.00244 11.9985C3.00244 17.0385 7.14244 21.1185 12.2124 20.9985C16.9124 20.8885 20.8424 16.9885 20.9924 12.2885C21.1624 7.18854 17.0724 2.99854 12.0024 2.99854Z" fill="black"/>
</svg>
