<svg viewBox="0 0 24 24" fill="none" xmlns="http://www.w3.org/2000/svg">
<path d="M14 9.5C14 10.05 13.55 10.5 13 10.5H11.42C11.14 10.5 10.87 10.44 10.62 10.33L8.32 9.32L7 13.25V21.5C7 22.05 6.55 22.5 6 22.5H4C3.45 22.5 3 22.05 3 21.5V12.83C3 12.61 3.04 12.39 3.11 12.18L4.59 7.86C4.96 6.75 6.22 6.19 7.3 6.68L11.45 8.51L13 8.5C13.55 8.5 14 8.95 14 9.5ZM8 1.5C6.9 1.5 6 2.4 6 3.5C6 4.6 6.9 5.5 8 5.5C9.1 5.5 10 4.6 10 3.5C10 2.4 9.1 1.5 8 1.5ZM10 19.5H20C20.55 19.5 21 19.05 21 18.5C21 17.95 20.55 17.5 20 17.5H10C9.45 17.5 9 17.95 9 18.5C9 19.05 9.45 19.5 10 19.5ZM19.5 16.5C20.33 16.5 21 15.83 21 15C21 14.17 20.33 13.5 19.5 13.5C18.67 13.5 18 14.17 18 15C18 15.83 18.67 16.5 19.5 16.5ZM13 12.5C13 11.95 12.55 11.5 12 11.5H10C9.45 11.5 9 11.95 9 12.5C9 13.05 9.45 13.5 10 13.5H11V14.5C11 15.6 11.9 16.5 13 16.5H15C16.1 16.5 17 15.6 17 14.5V12.5C17 11.95 16.55 11.5 16 11.5C15.45 11.5 15 11.95 15 12.5V13.5H13V12.5Z" fill="currentColor"/>
</svg>
