<svg  viewBox="0 0 24 24" fill="none" xmlns="http://www.w3.org/2000/svg">
<path d="M21.8975 3H6.89754C6.20754 3 5.66754 3.35 5.30754 3.88L0.267539 11.45C0.0475391 11.79 0.0475391 12.22 0.267539 12.56L5.30754 20.12C5.66754 20.64 6.20754 21 6.89754 21H21.8975C22.9975 21 23.8975 20.1 23.8975 19V5C23.8975 3.9 22.9975 3 21.8975 3ZM18.1975 16.3C17.8075 16.69 17.1775 16.69 16.7875 16.3L13.8975 13.41L11.0075 16.3C10.6175 16.69 9.98754 16.69 9.59754 16.3C9.20754 15.91 9.20754 15.28 9.59754 14.89L12.4875 12L9.59754 9.11C9.20754 8.72 9.20754 8.09 9.59754 7.7C9.98754 7.31 10.6175 7.31 11.0075 7.7L13.8975 10.59L16.7875 7.7C17.1775 7.31 17.8075 7.31 18.1975 7.7C18.5875 8.09 18.5875 8.72 18.1975 9.11L15.3075 12L18.1975 14.89C18.5775 15.27 18.5775 15.91 18.1975 16.3Z" fill="currentColor"/>
</svg>
