<svg  viewBox="0 0 24 24" fill="none" xmlns="http://www.w3.org/2000/svg">
<path d="M21.2511 16C21.2511 20.42 17.6711 24 13.2511 24C9.99108 24 7.06108 22.01 5.85108 18.98L2.82108 11.37C2.51108 10.58 3.25108 9.79 4.06108 10.05L4.85108 10.31C5.41108 10.49 5.87108 10.92 6.09108 11.47L7.37108 14.68C7.45108 14.88 7.63108 15 7.83108 15H8.25108V3.25C8.25108 2.56 8.81108 2 9.50108 2C10.1911 2 10.7511 2.56 10.7511 3.25V11.5C10.7511 11.78 10.9711 12 11.2511 12C11.5311 12 11.7511 11.78 11.7511 11.5V1.25C11.7511 0.56 12.3111 0 13.0011 0C13.6911 0 14.2511 0.56 14.2511 1.25V11.5C14.2511 11.78 14.4711 12 14.7511 12C15.0311 12 15.2511 11.78 15.2511 11.5V2.75C15.2511 2.06 15.8111 1.5 16.5011 1.5C17.1911 1.5 17.7511 2.06 17.7511 2.75V11.5C17.7511 11.78 17.9711 12 18.2511 12C18.5311 12 18.7511 11.78 18.7511 11.5V5.75C18.7511 5.06 19.3111 4.5 20.0011 4.5C20.6911 4.5 21.2511 5.06 21.2511 5.75V16Z" fill="currentColor"/>
</svg>
