<svg  viewBox="0 0 24 24" fill="none" xmlns="http://www.w3.org/2000/svg">
<path d="M18.77 8.56172L17.6 8.09172C16.98 7.84172 16.29 8.26172 16.23 8.93172L15.49 17.0117H17L19.6 10.5117C19.91 9.74172 19.54 8.86172 18.77 8.56172Z" fill="currentColor"/>
<path d="M6.40001 8.09172L5.23001 8.56172C4.46001 8.86172 4.09001 9.74172 4.40001 10.5117L7.00001 17.0117H8.50001L7.76001 8.93172C7.70001 8.26172 7.02001 7.84172 6.40001 8.09172Z" fill="currentColor"/>
<path d="M13.36 6.01172H10.65C9.76001 6.01172 9.07001 6.77172 9.15001 7.65172L10 17.0017H14L14.85 7.64172C14.93 6.77172 14.24 6.01172 13.36 6.01172Z" fill="currentColor"/>
<path d="M3.18001 13.7317L2.18001 15.6617C1.99001 16.0217 1.95001 16.4417 2.06001 16.8517C2.35001 17.8617 3.49001 18.2617 4.44001 17.7917L5.49001 17.2717L4.09001 13.7817C3.93001 13.3817 3.38001 13.3517 3.18001 13.7317Z" fill="currentColor"/>
<path d="M21.82 15.6617L20.82 13.7317C20.62 13.3517 20.07 13.3817 19.91 13.7717L18.51 17.2617L19.56 17.7817C20.5 18.2517 21.65 17.8517 21.94 16.8417C22.05 16.4417 22.01 16.0217 21.82 15.6617Z" fill="currentColor"/>
</svg>
