<svg width="24" height="24" viewBox="0 0 24 24" fill="none" xmlns="http://www.w3.org/2000/svg">
<path d="M13 19.5V8.33C13.85 8.03 14.53 7.35 14.83 6.5H18L15.22 12.99C15.05 13.38 14.99 13.83 15.11 14.24C15.5 15.54 16.87 16.5 18.5 16.5C20.13 16.5 21.51 15.54 21.89 14.24C22.01 13.83 21.95 13.38 21.78 12.99L19 6.5H20C20.55 6.5 21 6.05 21 5.5C21 4.95 20.55 4.5 20 4.5H14.83C14.42 3.33 13.31 2.5 12 2.5C10.69 2.5 9.58 3.33 9.17 4.5H4C3.45 4.5 3 4.95 3 5.5C3 6.05 3.45 6.5 4 6.5H5L2.22 12.99C2.05 13.38 1.99 13.83 2.11 14.24C2.49 15.54 3.87 16.5 5.5 16.5C7.13 16.5 8.51 15.54 8.89 14.24C9.01 13.83 8.95 13.38 8.78 12.99L6 6.5H9.17C9.47 7.35 10.15 8.03 11 8.33V19.5H13ZM11 19.5H3C2.45 19.5 2 19.95 2 20.5C2 21.05 2.45 21.5 3 21.5H21C21.55 21.5 22 21.05 22 20.5C22 19.95 21.55 19.5 21 19.5H13H11ZM20.37 13.5H16.63L18.5 9.14L20.37 13.5ZM7.37 13.5H3.63L5.5 9.14L7.37 13.5ZM12 6.5C11.45 6.5 11 6.05 11 5.5C11 4.95 11.45 4.5 12 4.5C12.55 4.5 13 4.95 13 5.5C13 6.05 12.55 6.5 12 6.5Z" fill="black"/>
</svg>
