<svg viewBox="0 0 24 24" fill="none" xmlns="http://www.w3.org/2000/svg">
<path d="M13.3399 14.7692L14.7699 13.3392L20.4999 19.0692C20.8899 19.4592 20.8899 20.0992 20.4999 20.4992C20.1099 20.8892 19.4699 20.8892 19.0699 20.4992L13.3399 14.7692ZM17.6299 9.03923L18.8999 7.76923C19.7899 6.87923 19.6699 5.33923 18.5899 4.68923C14.6999 2.30923 9.55988 2.79923 6.18988 6.15923C10.1199 4.85923 14.4999 5.90923 17.6299 9.03923ZM6.15988 6.18923C2.79988 9.55923 2.30988 14.6992 4.67988 18.5892C5.33988 19.6692 6.86988 19.7992 7.75988 18.8992L9.02988 17.6292C5.90988 14.4992 4.85988 10.1192 6.15988 6.18923ZM6.17988 6.16923L6.16988 6.17923C5.78988 9.18923 7.33988 13.0592 10.4699 16.1992L16.1999 10.4692C13.0699 7.33923 9.18988 5.78923 6.17988 6.16923Z" fill="currentColor"/>
</svg>
