<svg  viewBox="0 0 24 24" fill="none" xmlns="http://www.w3.org/2000/svg">
<path d="M19 1.10156H5C3.9 1.10156 3.01 2.00156 3.01 3.10156L3 16.0316C3 16.7216 3.35 17.3316 3.88 17.6916L11.45 22.7316C11.79 22.9516 12.22 22.9516 12.56 22.7316L20.12 17.6916C20.65 17.3316 21 16.7216 21 16.0316V3.10156C21 2.00156 20.1 1.10156 19 1.10156ZM18.3 7.80156L10.71 15.3916C10.32 15.7816 9.69 15.7816 9.3 15.3916L5.71 11.8016C5.32 11.4116 5.32 10.7816 5.71 10.3916C6.1 10.0016 6.73 10.0016 7.12 10.3916L10 13.2716L16.88 6.39156C17.27 6.00156 17.9 6.00156 18.29 6.39156C18.68 6.78156 18.69 7.41156 18.3 7.80156Z" fill="currentColor"/>
</svg>
