<svg  viewBox="0 0 24 24" fill="none" xmlns="http://www.w3.org/2000/svg">
<path d="M10.0006 14H10.7406L8.82061 5.56C8.61061 4.65 7.80061 4 6.87061 4H4.00061C3.45061 4 3.00061 4.45 3.00061 5C3.00061 5.55 3.45061 6 4.00061 6H6.87061L8.29061 12.25H8.28061C6.12061 12.9 4.47061 14.73 4.09061 17H0.000610352V19H6.00061V18C6.00061 15.79 7.79061 14 10.0006 14Z" fill="currentColor"/>
<path d="M18.7506 8H18.1906L16.8406 4.31C16.5506 3.52 15.8006 3 14.9606 3H12.0006C11.4506 3 11.0006 3.45 11.0006 4C11.0006 4.55 11.4506 5 12.0006 5H14.9606L16.0606 8H10.4006L10.8606 10H15.0006C14.5706 10.58 14.2506 11.25 14.1006 12H11.3106L11.7706 14H14.1006C14.5406 16.23 16.4106 17.88 18.7506 17.99C21.9106 18.14 24.6306 15.16 23.8706 11.89C23.3406 9.57 21.1306 8 18.7506 8ZM18.8806 16C17.3406 15.94 16.0406 14.63 16.0006 13.08C15.9806 12.12 16.3906 11.28 17.0506 10.72L17.6706 12.42C17.8606 12.94 18.4306 13.21 18.9506 13.02C19.4706 12.83 19.7406 12.26 19.5506 11.74L18.9206 10.01C18.9206 10.01 18.9206 10.01 18.9306 10C20.6406 9.96 22.0006 11.29 22.0006 13C22.0006 14.72 20.6206 16.06 18.8806 16Z" fill="currentColor"/>
<path d="M10.0006 15C8.34061 15 7.00061 16.34 7.00061 18C7.00061 19.66 8.34061 21 10.0006 21C11.6606 21 13.0006 19.66 13.0006 18C13.0006 16.34 11.6606 15 10.0006 15ZM10.0006 19C9.45061 19 9.00061 18.55 9.00061 18C9.00061 17.45 9.45061 17 10.0006 17C10.5506 17 11.0006 17.45 11.0006 18C11.0006 18.55 10.5506 19 10.0006 19Z" fill="currentColor"/>
</svg>
