<svg  viewBox="0 0 24 24" fill="none" xmlns="http://www.w3.org/2000/svg">
<path d="M7 19.3605C5.9 19.3605 5 20.2605 5 21.3605H19C19 20.2605 18.1 19.3605 17 19.3605H13V17.3605H16C17.1 17.3605 18 16.4605 18 15.3605H10C8.34 15.3605 7 14.0205 7 12.3605C7 11.2705 7.59 10.3205 8.46 9.8005C8.17 9.3905 8 8.9005 8 8.3605C8 8.1505 8.04 7.9405 8.09 7.7405C6.28 8.4905 5 10.2805 5 12.3605C5 15.1205 7.24 17.3605 10 17.3605V19.3605H7Z" fill="currentColor"/>
<path d="M10.56 5.8705C11.91 5.9005 13 7.0005 13 8.3605C13 9.1105 12.67 9.7705 12.15 10.2305L12.4 10.9105C12.59 11.4305 13.16 11.7005 13.68 11.5105C13.87 12.0305 14.44 12.3005 14.96 12.1105C15.48 11.9205 15.75 11.3505 15.56 10.8305C16.08 10.6405 16.35 10.0705 16.16 9.5505L14.1 3.9005C13.91 3.3805 13.34 3.1105 12.82 3.3005C12.63 2.7805 12.06 2.5105 11.54 2.7005C11.02 2.8905 10.75 3.4605 10.94 3.9805C10.42 4.1705 10.15 4.7405 10.34 5.2605L10.56 5.8705Z" fill="currentColor"/>
<path d="M10.5 9.8605C11.3284 9.8605 12 9.18893 12 8.3605C12 7.53207 11.3284 6.8605 10.5 6.8605C9.67157 6.8605 9 7.53207 9 8.3605C9 9.18893 9.67157 9.8605 10.5 9.8605Z" fill="currentColor"/>
</svg>
