<svg width="24" height="24" viewBox="0 0 24 24" fill="none" xmlns="http://www.w3.org/2000/svg">
<path d="M12.66 2.41352C12.28 2.08352 11.71 2.08352 11.33 2.41352C6.45 6.71352 4 10.4535 4 13.6335C4 18.6135 7.8 21.8335 12 21.8335C16.2 21.8335 20 18.6135 20 13.6335C20 10.4535 17.55 6.71352 12.66 2.41352ZM14 17.8335H10C9.45 17.8335 9 17.3835 9 16.8335C9 16.2835 9.45 15.8335 10 15.8335H14C14.55 15.8335 15 16.2835 15 16.8335C15 17.3835 14.55 17.8335 14 17.8335ZM14 12.8335H13V13.8335C13 14.3835 12.55 14.8335 12 14.8335C11.45 14.8335 11 14.3835 11 13.8335V12.8335H10C9.45 12.8335 9 12.3835 9 11.8335C9 11.2835 9.45 10.8335 10 10.8335H11V9.83352C11 9.28352 11.45 8.83352 12 8.83352C12.55 8.83352 13 9.28352 13 9.83352V10.8335H14C14.55 10.8335 15 11.2835 15 11.8335C15 12.3835 14.55 12.8335 14 12.8335Z" fill="black"/>
</svg>
