<svg  viewBox="0 0 24 24" fill="none" xmlns="http://www.w3.org/2000/svg">
<path d="M6.00002 12.9966C6.55002 12.4466 6.55002 11.5566 6.00002 11.0066V10.9966C5.45002 10.4466 4.55002 10.4466 4.00002 10.9966C3.45002 11.5466 3.45002 12.4466 4.00002 12.9966C4.55002 13.5466 5.45002 13.5466 6.00002 12.9966ZM20 10.9966C19.44 10.4366 18.55 10.4366 18 10.9866V10.9966C17.45 11.5466 17.45 12.4366 18 12.9866V12.9966C18.55 13.5466 19.44 13.5466 19.99 12.9966H20C20.55 12.4466 20.55 11.5466 20 10.9966ZM17 6.99663L12.71 2.70663C12.08 2.07663 11 2.51663 11 3.40663V9.58663L7.11002 5.69663C6.72002 5.30663 6.09002 5.30663 5.70002 5.69663C5.31002 6.08663 5.31002 6.71663 5.70002 7.10663L10.59 11.9966L5.70002 16.8866C5.31002 17.2766 5.31002 17.9066 5.70002 18.2966C6.09002 18.6866 6.72002 18.6866 7.11002 18.2966L11 14.4066V20.5866C11 21.4766 12.08 21.9266 12.71 21.2966L17 16.9966C17.39 16.6066 17.39 15.9766 17 15.5766L13.41 11.9966L17 8.41663C17.39 8.02663 17.39 7.38663 17 6.99663ZM14.88 16.2866L13 18.1666V14.4066L14.88 16.2866ZM13 9.58663V5.82663L14.88 7.70663L13 9.58663Z" fill="currentColor"/>
</svg>
