<svg width="24" height="24" viewBox="0 0 24 24" fill="none" xmlns="http://www.w3.org/2000/svg">
<path d="M15.7712 10.2766L14.3912 11.6566C14.1912 11.8566 14.1912 12.1666 14.3912 12.3666L15.7712 13.7466C16.0512 14.0266 16.5212 13.8966 16.6212 13.5166C16.7312 13.0166 16.7912 12.5166 16.7912 11.9966C16.7912 11.4866 16.7312 10.9866 16.6112 10.5166C16.5212 10.1366 16.0512 9.99663 15.7712 10.2766ZM19.8912 7.77663C19.6412 7.22663 18.9112 7.10663 18.4912 7.53663C18.2312 7.79663 18.1812 8.17663 18.3212 8.51663C18.7812 9.58663 19.0412 10.7566 19.0412 11.9866C19.0412 13.2266 18.7812 14.4066 18.3112 15.4766C18.1712 15.7966 18.2212 16.1666 18.4712 16.4166C18.8812 16.8266 19.5712 16.7066 19.8212 16.1866C20.4512 14.8866 20.8012 13.4266 20.8012 11.8866C20.7912 10.4366 20.4712 9.03663 19.8912 7.77663ZM11.2012 11.9966L14.7912 8.41663C15.1812 8.02663 15.1812 7.39663 14.7912 6.99663L10.5012 2.70663C9.87123 2.07663 8.79123 2.51663 8.79123 3.40663V9.58663L4.90123 5.69663C4.51123 5.30663 3.88123 5.30663 3.49123 5.69663C3.10123 6.08663 3.10123 6.71663 3.49123 7.10663L8.38123 11.9966L3.49123 16.8866C3.10123 17.2766 3.10123 17.9066 3.49123 18.2966C3.88123 18.6866 4.51123 18.6866 4.90123 18.2966L8.79123 14.4066V20.5866C8.79123 21.4766 9.87123 21.9266 10.5012 21.2966L14.7912 16.9966C15.1812 16.6066 15.1812 15.9766 14.7912 15.5766L11.2012 11.9966ZM10.7912 5.82663L12.6712 7.70663L10.7912 9.58663V5.82663ZM10.7912 18.1666V14.4066L12.6712 16.2866L10.7912 18.1666Z" fill="black"/>
</svg>
