<svg width="24" height="24" viewBox="0 0 24 24" fill="none" xmlns="http://www.w3.org/2000/svg">
<path d="M19.95 6.89237L21.75 5.09238C21.95 4.89237 21.95 4.58238 21.75 4.38238L19.6 2.25238C19.28 1.94238 18.75 2.16238 18.75 2.60238V5.68238L16.8 3.74238C16.61 3.55238 16.29 3.55238 16.1 3.74238C15.91 3.93238 15.91 4.25238 16.1 4.44238L18.54 6.89237L16.1 9.33237C15.91 9.52237 15.91 9.83238 16.1 10.0324C16.29 10.2324 16.61 10.2324 16.8 10.0324L18.75 8.08238V11.1724C18.75 11.6224 19.29 11.8424 19.6 11.5224L21.74 9.37237C21.94 9.17237 21.93 8.86237 21.74 8.66237L19.95 6.89237ZM19.75 3.80238L20.69 4.74238L19.75 5.68238V3.80238ZM19.75 9.97237V8.09237L20.69 9.03238L19.75 9.97237Z" fill="black"/>
<path d="M15.1 10.8924H4.90998L5.94998 7.89237H15.1V5.89238H5.59998C4.93998 5.89238 4.38998 6.31238 4.17998 6.90238L2.09998 12.8924V20.3924C2.09998 21.2224 2.76998 21.8924 3.59998 21.8924C4.42998 21.8924 5.09998 21.2224 5.09998 20.3924V19.8924H17.1V20.3924C17.1 21.2224 17.77 21.8924 18.6 21.8924C19.43 21.8924 20.1 21.2224 20.1 20.3924V12.8924H17.1C16 12.8924 15.1 11.9924 15.1 10.8924ZM6.59998 16.8924C5.76998 16.8924 5.09998 16.2224 5.09998 15.3924C5.09998 14.5624 5.76998 13.8924 6.59998 13.8924C7.42998 13.8924 8.09998 14.5624 8.09998 15.3924C8.09998 16.2224 7.42998 16.8924 6.59998 16.8924ZM15.6 16.8924C14.77 16.8924 14.1 16.2224 14.1 15.3924C14.1 14.5624 14.77 13.8924 15.6 13.8924C16.43 13.8924 17.1 14.5624 17.1 15.3924C17.1 16.2224 16.43 16.8924 15.6 16.8924Z" fill="black"/>
</svg>
