<svg width="24" height="24" viewBox="0 0 24 24" fill="none" xmlns="http://www.w3.org/2000/svg">
<path d="M19.2944 17.8866L6.11437 4.69663C5.72437 4.30663 5.09437 4.30663 4.70437 4.69663C4.31437 5.08663 4.31437 5.71663 4.70437 6.10663L10.5944 11.9966L5.70437 16.8866C5.31437 17.2766 5.31437 17.9066 5.70437 18.2966C6.09437 18.6866 6.72437 18.6866 7.11437 18.2966L11.0044 14.4066V20.5866C11.0044 21.4766 12.0844 21.9266 12.7144 21.2966L16.3044 17.7066L17.8944 19.2966C18.2844 19.6866 18.9144 19.6866 19.3044 19.2966C19.6844 18.9066 19.6844 18.2666 19.2944 17.8866ZM13.0044 18.1666V14.4066L14.8844 16.2866L13.0044 18.1666ZM13.0044 5.82663L14.8844 7.70663L13.4144 9.17663L14.8244 10.5866L17.0044 8.41663C17.3944 8.02663 17.3944 7.39663 17.0044 6.99663L12.7144 2.70663C12.0844 2.07663 11.0044 2.51663 11.0044 3.40663V6.76663L13.0044 8.76663V5.82663Z" fill="black"/>
</svg>
