<svg viewBox="0 0 24 24" fill="none" xmlns="http://www.w3.org/2000/svg">
<path d="M15.7812 10.2742L14.4012 11.6542C14.2012 11.8542 14.2012 12.1642 14.4012 12.3642L15.7812 13.7442C16.0612 14.0242 16.5312 13.8942 16.6312 13.5142C16.7412 13.0142 16.8012 12.5142 16.8012 11.9942C16.8012 11.4842 16.7412 10.9842 16.6212 10.5142C16.5312 10.1342 16.0612 9.99417 15.7812 10.2742ZM19.9012 7.77417C19.6512 7.22417 18.9212 7.10417 18.5012 7.53417C18.2412 7.79417 18.1912 8.17417 18.3312 8.51417C18.7912 9.58417 19.0512 10.7542 19.0512 11.9842C19.0512 13.2242 18.7912 14.4042 18.3212 15.4742C18.1812 15.7942 18.2312 16.1642 18.4812 16.4142C18.8912 16.8242 19.5812 16.7042 19.8312 16.1842C20.4612 14.8842 20.8112 13.4242 20.8112 11.8842C20.8012 10.4342 20.4812 9.03417 19.9012 7.77417ZM11.1912 11.9942L14.7812 8.41417C15.1712 8.02417 15.1712 7.39417 14.7812 6.99417L10.4912 2.70417C9.86122 2.07417 8.78122 2.52417 8.78122 3.41417V9.59417L4.89122 5.69417C4.50122 5.30417 3.87122 5.30417 3.48122 5.69417C3.09122 6.08417 3.09122 6.71417 3.48122 7.10417L8.37122 11.9942L3.48122 16.8842C3.09122 17.2742 3.09122 17.9042 3.48122 18.2942C3.87122 18.6842 4.50122 18.6842 4.89122 18.2942L8.78122 14.4042V20.5842C8.78122 21.4742 9.86122 21.9242 10.4912 21.2942L14.7912 16.9942C15.1812 16.6042 15.1812 15.9742 14.7912 15.5742L11.1912 11.9942ZM10.7812 5.82417L12.6612 7.70417L10.7812 9.58417V5.82417ZM10.7812 18.1642V14.4042L12.6612 16.2842L10.7812 18.1642Z" fill="currentColor"/>
</svg>
