<svg width="24" height="24" viewBox="0 0 24 24" fill="none" xmlns="http://www.w3.org/2000/svg">
<path d="M17.65 6.99663L13.36 2.70663C12.73 2.07663 11.65 2.51663 11.65 3.40663V9.58663L7.76 5.69663C7.37 5.30663 6.74 5.30663 6.35 5.69663C5.96 6.08663 5.96 6.71663 6.35 7.10663L11.24 11.9966L6.35 16.8866C5.96 17.2766 5.96 17.9066 6.35 18.2966C6.74 18.6866 7.37 18.6866 7.76 18.2966L11.65 14.4066V20.5866C11.65 21.4766 12.73 21.9266 13.36 21.2966L17.65 16.9966C18.04 16.6066 18.04 15.9766 17.65 15.5866L14.06 11.9966L17.65 8.41663C18.04 8.02663 18.04 7.38663 17.65 6.99663ZM13.65 5.82663L15.53 7.70663L13.65 9.58663V5.82663ZM15.53 16.2866L13.65 18.1666V14.4066L15.53 16.2866Z" fill="black"/>
</svg>
