<svg width="24" height="24" viewBox="0 0 24 24" fill="none" xmlns="http://www.w3.org/2000/svg">
<path d="M20 6.25952C20 6.80952 19.55 7.25952 19 7.25952H15C14.45 7.25952 14 6.80952 14 6.25952C14 5.70952 14.45 5.25952 15 5.25952H19C19.55 5.25952 20 5.70952 20 6.25952ZM18 11.1595C17.68 11.2295 17.34 11.2595 17 11.2595C14.24 11.2595 12 9.01952 12 6.25952C12 5.12952 12.37 4.09952 13 3.25952H6C4.9 3.25952 4 4.15952 4 5.25952V19.7395C4 20.4595 4.73 20.9395 5.39 20.6595L11 18.2595L16.61 20.6595C17.27 20.9395 18 20.4595 18 19.7395V11.1595Z" fill="black"/>
</svg>
