<svg  viewBox="0 0 24 24" fill="none" xmlns="http://www.w3.org/2000/svg">
<path d="M20 6.25763C20 6.80763 19.55 7.25763 19 7.25763H18V8.25763C18 8.80763 17.55 9.25763 17 9.25763C16.45 9.25763 16 8.80763 16 8.25763V7.25763H15C14.45 7.25763 14 6.80763 14 6.25763C14 5.70763 14.45 5.25763 15 5.25763H16V4.25763C16 3.70763 16.45 3.25763 17 3.25763C17.55 3.25763 18 3.70763 18 4.25763V5.25763H19C19.55 5.25763 20 5.70763 20 6.25763ZM18 19.7376C18 20.4576 17.27 20.9376 16.61 20.6576L11 18.2576L5.39 20.6576C4.73 20.9476 4 20.4576 4 19.7376V5.25763C4 4.15763 4.9 3.25763 6 3.25763H13C12.37 4.09763 12 5.12763 12 6.25763C12 9.01763 14.24 11.2576 17 11.2576C17.34 11.2576 17.68 11.2276 18 11.1576V19.7376Z" fill="currentColor"/>
</svg>
