<svg  viewBox="0 0 24 24" fill="none" xmlns="http://www.w3.org/2000/svg">
<path d="M3.31873 5.25763C3.31873 4.15763 4.21873 3.25763 5.31873 3.25763H12.3187C11.6887 4.09763 11.3187 5.12763 11.3187 6.25763C11.3187 9.01763 13.5587 11.2576 16.3187 11.2576C16.6587 11.2576 16.9987 11.2276 17.3187 11.1576V19.7376C17.3187 20.4576 16.5887 20.9376 15.9287 20.6576L10.3187 18.2576L4.70873 20.6576C4.04873 20.9476 3.31873 20.4576 3.31873 19.7376V5.25763ZM20.3887 3.59763C20.7787 3.98763 20.7787 4.61763 20.3887 5.00763L16.8487 8.54763C16.4587 8.93763 15.8287 8.93763 15.4387 8.54763L14.0287 7.13763C13.6387 6.74763 13.6387 6.11763 14.0287 5.72763C14.4187 5.33763 15.0487 5.33763 15.4387 5.72763L16.1487 6.43763L18.9787 3.60763C19.3687 3.20763 19.9987 3.20763 20.3887 3.59763Z" fill="currentColor"/>
</svg>
