<svg  viewBox="0 0 24 24" fill="none" xmlns="http://www.w3.org/2000/svg">
<path d="M20 23.0015H4C2.9 23.0015 2 22.1015 2 21.0015C2 19.9015 2.9 19.0015 4 19.0015H20C21.1 19.0015 22 19.9015 22 21.0015C22 22.1015 21.1 23.0015 20 23.0015ZM13.06 4.19152L16.81 7.94152L8.04 16.7115C7.86 16.9015 7.6 17.0015 7.34 17.0015H5C4.45 17.0015 4 16.5515 4 16.0015V13.6615C4 13.3915 4.11 13.1415 4.29 12.9515L13.06 4.19152ZM17.88 6.87152L14.13 3.12152L15.96 1.29152C16.35 0.901523 16.98 0.901523 17.37 1.29152L19.71 3.63152C20.1 4.02152 20.1 4.65152 19.71 5.04152L17.88 6.87152Z" fill="currentColor"/>
</svg>
