<svg viewBox="0 0 24 24" fill="none" xmlns="http://www.w3.org/2000/svg">
<path d="M20 8.68992V4.99992C20 4.44992 19.55 3.99992 19 3.99992H15.31L12.71 1.39992C12.32 1.00992 11.69 1.00992 11.3 1.39992L8.69004 3.99992H5.00004C4.45004 3.99992 4.00004 4.44992 4.00004 4.99992V8.68992L1.40004 11.2899C1.01004 11.6799 1.01004 12.3099 1.40004 12.6999L4.00004 15.2999V18.9999C4.00004 19.5499 4.45004 19.9999 5.00004 19.9999H8.69004L11.29 22.5999C11.68 22.9899 12.31 22.9899 12.7 22.5999L15.3 19.9999H19C19.55 19.9999 20 19.5499 20 18.9999V15.3099L22.6 12.7099C22.99 12.3199 22.99 11.6899 22.6 11.2999L20 8.68992ZM12 17.9999C8.69004 17.9999 6.00004 15.3099 6.00004 11.9999C6.00004 8.68992 8.69004 5.99992 12 5.99992C15.31 5.99992 18 8.68992 18 11.9999C18 15.3099 15.31 17.9999 12 17.9999ZM12 7.99992C9.79004 7.99992 8.00004 9.78992 8.00004 11.9999C8.00004 14.2099 9.79004 15.9999 12 15.9999C14.21 15.9999 16 14.2099 16 11.9999C16 9.78992 14.21 7.99992 12 7.99992Z" fill="currentColor"/>
</svg>
