<svg width="24" height="24" viewBox="0 0 24 24" fill="none" xmlns="http://www.w3.org/2000/svg">
<path d="M19.9999 8.68965V5.99965C19.9999 4.89965 19.0999 3.99965 17.9999 3.99965H15.3099L13.4099 2.09965C12.6299 1.31965 11.3599 1.31965 10.5799 2.09965L8.68989 3.99965H5.99989C4.89989 3.99965 3.99989 4.89965 3.99989 5.99965V8.68965L2.09989 10.5896C1.31989 11.3696 1.31989 12.6396 2.09989 13.4196L3.99989 15.3196V17.9996C3.99989 19.0996 4.89989 19.9996 5.99989 19.9996H8.68989L10.5899 21.8996C11.3699 22.6796 12.6399 22.6796 13.4199 21.8996L15.3199 19.9996H17.9999C19.0999 19.9996 19.9999 19.0996 19.9999 17.9996V15.3096L21.8999 13.4096C22.6799 12.6296 22.6799 11.3596 21.8999 10.5796L19.9999 8.68965ZM11.9999 17.9996C8.68989 17.9996 5.99989 15.3096 5.99989 11.9996C5.99989 8.68965 8.68989 5.99965 11.9999 5.99965C15.3099 5.99965 17.9999 8.68965 17.9999 11.9996C17.9999 15.3096 15.3099 17.9996 11.9999 17.9996ZM11.9999 7.99965C9.78989 7.99965 7.99989 9.78965 7.99989 11.9996C7.99989 14.2096 9.78989 15.9996 11.9999 15.9996C14.2099 15.9996 15.9999 14.2096 15.9999 11.9996C15.9999 9.78965 14.2099 7.99965 11.9999 7.99965Z" fill="black"/>
</svg>
