<svg width="24" height="24" viewBox="0 0 24 24" fill="none" xmlns="http://www.w3.org/2000/svg">
<path d="M20 15.3096L21.9 13.4096C22.68 12.6296 22.68 11.3596 21.9 10.5796L20 8.68965V5.99965C20 4.89965 19.1 3.99965 18 3.99965H15.31L13.41 2.09965C12.63 1.31965 11.36 1.31965 10.58 2.09965L8.69001 3.99965H6.00001C4.90001 3.99965 4.00001 4.89965 4.00001 5.99965V8.68965L2.10001 10.5896C1.32001 11.3696 1.32001 12.6396 2.10001 13.4196L4.00001 15.3196V17.9996C4.00001 19.0996 4.90001 19.9996 6.00001 19.9996H8.69001L10.59 21.8996C11.37 22.6796 12.64 22.6796 13.42 21.8996L15.32 19.9996H18C19.1 19.9996 20 19.0996 20 17.9996V15.3096ZM12 16.8996V7.09965C12 6.48965 12.55 5.98965 13.15 6.10965C15.91 6.64965 18 9.07965 18 11.9996C18 14.9196 15.91 17.3496 13.15 17.8896C12.55 18.0096 12 17.5096 12 16.8996Z" fill="black"/>
</svg>
