<svg width="24" height="24" viewBox="0 0 24 24" fill="none" xmlns="http://www.w3.org/2000/svg">
<path d="M10.85 12.6496H13.15L12 8.99965L10.85 12.6496ZM20 8.68965V5.99965C20 4.89965 19.1 3.99965 18 3.99965H15.31L13.41 2.09965C12.63 1.31965 11.36 1.31965 10.58 2.09965L8.69001 3.99965H6.00001C4.90001 3.99965 4.00001 4.89965 4.00001 5.99965V8.68965L2.10001 10.5896C1.32001 11.3696 1.32001 12.6396 2.10001 13.4196L4.00001 15.3196V17.9996C4.00001 19.0996 4.90001 19.9996 6.00001 19.9996H8.69001L10.59 21.8996C11.37 22.6796 12.64 22.6796 13.42 21.8996L15.32 19.9996H18C19.1 19.9996 20 19.0996 20 17.9996V15.3096L21.9 13.4096C22.68 12.6296 22.68 11.3596 21.9 10.5796L20 8.68965ZM14.09 15.3996L13.6 13.9996H10.4L9.91001 15.3996C9.78001 15.7596 9.45001 15.9996 9.07001 15.9996C8.45001 15.9996 8.02001 15.3896 8.23001 14.8096L10.67 7.94965C10.87 7.37965 11.4 6.99965 12 6.99965C12.6 6.99965 13.13 7.37965 13.34 7.93965L15.78 14.7996C15.99 15.3796 15.56 15.9896 14.94 15.9896C14.55 15.9996 14.22 15.7596 14.09 15.3996Z" fill="black"/>
</svg>
