<svg width="24" height="24" viewBox="0 0 24 24" fill="none" xmlns="http://www.w3.org/2000/svg">
<path d="M19.3363 5.31543V15.8154L21.2863 17.7654C21.3163 17.6154 21.3363 17.4654 21.3363 17.3154V5.31543C21.3363 4.21543 20.4363 3.31543 19.3363 3.31543H6.83626L8.83626 5.31543H19.3363Z" fill="black"/>
<path d="M4.19626 3.26543C3.84626 2.91543 3.27626 2.91543 2.92626 3.26543C2.57626 3.61543 2.57626 4.18543 2.92626 4.53543L3.33626 4.95543V17.3154C3.33626 18.4154 4.23626 19.3154 5.33626 19.3154H17.6963L19.1163 20.7354C19.4663 21.0854 20.0363 21.0854 20.3863 20.7354C20.7363 20.3854 20.7363 19.8154 20.3863 19.4654L4.19626 3.26543ZM5.33626 17.3154V6.95543L15.6963 17.3154H5.33626Z" fill="black"/>
</svg>
