<svg  viewBox="0 0 24 24" fill="none" xmlns="http://www.w3.org/2000/svg">
<path d="M15.005 3C15.555 3 16.005 3.45 16.005 4V10H17.595C18.485 10 18.935 11.08 18.305 11.71L15.715 14.3C15.325 14.69 14.695 14.69 14.305 14.3L11.715 11.71C11.085 11.08 11.525 10 12.415 10H14.005V4C14.005 3.45 14.455 3 15.005 3ZM6.005 19.59C6.005 20.37 6.635 21 7.415 21H16.585C17.365 21 17.995 20.37 17.995 19.59C17.995 18.87 17.555 18.56 16.995 18H19.995C21.095 18 21.995 17.1 21.995 16V14C21.995 13.45 21.545 13 20.995 13C20.445 13 19.995 13.45 19.995 14V16H4.005V5H11.005C11.555 5 12.005 4.55 12.005 4C12.005 3.45 11.555 3 11.005 3H4.005C2.905 3 2.005 3.9 2.005 5V16C2.005 17.1 2.905 18 4.005 18H7.005C6.455 18.55 6.005 18.87 6.005 19.59Z" fill="currentColor"/>
</svg>
