<svg  viewBox="0 0 24 24" fill="none" xmlns="http://www.w3.org/2000/svg">
<path d="M19 7.79624H17.19C16.74 7.01624 16.12 6.34624 15.37 5.83624L16.3 4.90624C16.69 4.51624 16.69 3.88624 16.3 3.49624C15.91 3.10624 15.28 3.10624 14.89 3.49624L13.42 4.96624C12.96 4.85624 12.49 4.79624 12 4.79624C11.51 4.79624 11.04 4.85624 10.59 4.96624L9.11 3.49624C8.72 3.10624 8.09 3.10624 7.7 3.49624C7.31 3.88624 7.31 4.51624 7.7 4.90624L8.62 5.83624C7.88 6.34624 7.26 7.01624 6.81 7.79624H5C4.45 7.79624 4 8.24623 4 8.79624C4 9.34624 4.45 9.79624 5 9.79624H6.09C6.04 10.1262 6 10.4562 6 10.7962V11.7962H5C4.45 11.7962 4 12.2462 4 12.7962C4 13.3462 4.45 13.7962 5 13.7962H6V14.7962C6 15.1362 6.04 15.4662 6.09 15.7962H5C4.45 15.7962 4 16.2462 4 16.7962C4 17.3462 4.45 17.7962 5 17.7962H6.81C7.85 19.5862 9.78 20.7962 12 20.7962C14.22 20.7962 16.15 19.5862 17.19 17.7962H19C19.55 17.7962 20 17.3462 20 16.7962C20 16.2462 19.55 15.7962 19 15.7962H17.91C17.96 15.4662 18 15.1362 18 14.7962V13.7962H19C19.55 13.7962 20 13.3462 20 12.7962C20 12.2462 19.55 11.7962 19 11.7962H18V10.7962C18 10.4562 17.96 10.1262 17.91 9.79624H19C19.55 9.79624 20 9.34624 20 8.79624C20 8.24623 19.55 7.79624 19 7.79624ZM13 15.7962H11C10.45 15.7962 10 15.3462 10 14.7962C10 14.2462 10.45 13.7962 11 13.7962H13C13.55 13.7962 14 14.2462 14 14.7962C14 15.3462 13.55 15.7962 13 15.7962ZM13 11.7962H11C10.45 11.7962 10 11.3462 10 10.7962C10 10.2462 10.45 9.79624 11 9.79624H13C13.55 9.79624 14 10.2462 14 10.7962C14 11.3462 13.55 11.7962 13 11.7962Z" fill="currentColor"/>
</svg>
