<svg viewBox="0 0 24 24" fill="none" xmlns="http://www.w3.org/2000/svg">
<path d="M12 15.5559C12.55 15.5559 13 16.0059 13 16.5559V20.5559H16C16.55 20.5559 17 20.1059 17 19.5559V14.3459L17.57 15.2659C17.86 15.7359 18.48 15.8759 18.95 15.5859C19.42 15.2959 19.56 14.6759 19.27 14.2059L12.85 3.91586C12.46 3.28586 11.54 3.28586 11.15 3.91586L4.72999 14.2059C4.43999 14.6759 4.57999 15.2959 5.04999 15.5859C5.51999 15.8759 6.12999 15.7359 6.42999 15.2659L6.99999 14.3559V19.5559C6.99999 20.1059 7.44999 20.5559 7.99999 20.5559H11V16.5559C11 16.0059 11.45 15.5559 12 15.5559ZM13 12.5559C13 13.1059 12.55 13.5559 12 13.5559C11.45 13.5559 11 13.1059 11 12.5559C11 12.0059 11.45 11.5559 12 11.5559C12.55 11.5559 13 12.0059 13 12.5559Z" fill="currentColor"/>
</svg>
