<svg viewBox="0 0 24 24" fill="none" xmlns="http://www.w3.org/2000/svg">
<path d="M4.36787 4.55C4.88787 3.62 5.86787 3 6.99787 3C7.37787 3 7.71787 2.78 7.88787 2.47C8.03787 2.16 8.38787 2 8.72787 2C9.46786 2 9.98787 2.8 9.62787 3.45C9.10787 4.38 8.12787 5 6.99787 5C6.61787 5 6.27787 5.22 6.10787 5.53C5.95787 5.84 5.60787 6 5.26787 6C4.52787 6 4.00787 5.2 4.36787 4.55ZM22.3879 13.19C22.0479 13.63 21.4279 13.71 20.9879 13.38L19.9979 12.62V21C19.9979 21.55 19.5479 22 18.9979 22H4.99787C4.44787 22 3.99787 21.55 3.99787 21V12.62L3.00787 13.38C2.56787 13.72 1.93787 13.63 1.60787 13.19C1.27787 12.75 1.35787 12.12 1.79787 11.79L3.99787 10.11V8C3.99787 7.45 4.44787 7 4.99787 7C5.54787 7 5.99787 7.45 5.99787 8V8.58L11.3879 4.46C11.7479 4.19 12.2479 4.19 12.5979 4.46L22.1979 11.79C22.6379 12.13 22.7279 12.76 22.3879 13.19ZM10.0579 8H13.9479L11.9979 6.52L10.0579 8ZM5.99787 11.1V12H17.9979V11.1L16.5579 10H7.43787L5.99787 11.1ZM5.99787 14V16H17.9979V14H5.99787ZM17.9979 20V18H5.99787V20H17.9979Z" fill="currentColor"/>
</svg>
