<svg  viewBox="0 0 24 24" fill="none" xmlns="http://www.w3.org/2000/svg">
<path d="M12.68 6.62945C13.38 6.38945 13.9 5.72945 13.98 4.98945C14.03 4.51945 13.93 4.07945 13.7 3.71945L12.42 1.49945C12.23 1.16945 11.75 1.16945 11.55 1.49945L10.27 3.71945C10.1 4.01945 10 4.36945 10 4.74945C10 6.06945 11.3 7.09945 12.68 6.62945ZM16.53 16.6695L15.53 15.6695L14.45 16.7395C13.15 18.0395 10.87 18.0495 9.56 16.7395L8.49 15.6695L7.4 16.7395C6.75 17.3895 5.88 17.7495 4.96 17.7495C4.23 17.7495 3.56 17.5195 3 17.1395V20.7495C3 21.8495 3.9 22.7495 5 22.7495H19C20.1 22.7495 21 21.8495 21 20.7495V17.1395C20.25 17.6495 19.29 17.8895 18.26 17.6595C17.6 17.5195 17.01 17.1495 16.53 16.6695ZM18 9.74945H13V8.74945C13 8.19945 12.55 7.74945 12 7.74945C11.45 7.74945 11 8.19945 11 8.74945V9.74945H6C4.34 9.74945 3 11.0895 3 12.7495V14.2095C3 15.0595 3.5 15.8795 4.31 16.1495C5.04 16.3895 5.83 16.2095 6.34 15.6895L8.48 13.5595L10.61 15.6895C11.37 16.4495 12.62 16.4495 13.38 15.6895L15.52 13.5595L17.65 15.6895C18.08 16.1195 18.68 16.3195 19.3 16.2395C20.29 16.1095 20.99 15.1795 20.99 14.1795V12.7595C21 11.0895 19.66 9.74945 18 9.74945Z" fill="currentColor"/>
</svg>
