<svg width="24" height="24" viewBox="0 0 24 24" fill="none" xmlns="http://www.w3.org/2000/svg">
<path d="M19.0987 7.70391L12.2087 14.5939L6.61874 9.00391H10.2087C10.7587 9.00391 11.2087 8.55391 11.2087 8.00391C11.2087 7.45391 10.7587 7.00391 10.2087 7.00391H4.20874C3.65874 7.00391 3.20874 7.45391 3.20874 8.00391V14.0039C3.20874 14.5539 3.65874 15.0039 4.20874 15.0039C4.75874 15.0039 5.20874 14.5539 5.20874 14.0039V10.4139L11.4987 16.7039C11.8887 17.0939 12.5187 17.0939 12.9087 16.7039L20.4987 9.11391C20.8887 8.72391 20.8887 8.09391 20.4987 7.70391C20.1187 7.32391 19.4787 7.32391 19.0987 7.70391Z" fill="black"/>
</svg>
