<svg  viewBox="0 0 24 24" fill="none" xmlns="http://www.w3.org/2000/svg">
<path d="M3.49252 9.11391L11.0825 16.7039C11.4725 17.0939 12.1025 17.0939 12.4925 16.7039L18.7925 10.4039V14.0039C18.7925 14.5539 19.2425 15.0039 19.7925 15.0039C20.3425 15.0039 20.7925 14.5539 20.7925 14.0039V8.00391C20.7925 7.45391 20.3425 7.00391 19.7925 7.00391H13.7925C13.2425 7.00391 12.7925 7.45391 12.7925 8.00391C12.7925 8.55391 13.2425 9.00391 13.7925 9.00391H17.3825L11.7925 14.5939L4.90252 7.70391C4.51252 7.31391 3.88252 7.31391 3.49252 7.70391C3.11252 8.09391 3.11252 8.73391 3.49252 9.11391Z" fill="currentColor"/>
</svg>
