<svg width="24" height="24" viewBox="0 0 24 24" fill="none" xmlns="http://www.w3.org/2000/svg">
<path d="M17.705 19.8489C18.095 19.4589 18.095 18.8289 17.705 18.4389L15.005 15.7389L13.595 17.1489L16.295 19.8489C16.685 20.2389 17.325 20.2389 17.705 19.8489ZM8.715 8.14889H11.005V13.7389L6.295 18.4389C5.905 18.8289 5.905 19.4589 6.295 19.8489C6.685 20.2389 7.315 20.2389 7.705 19.8489L13.005 14.5489V8.14889H15.295C15.745 8.14889 15.965 7.60889 15.645 7.29889L12.355 4.00889C12.155 3.80889 11.845 3.80889 11.645 4.00889L8.355 7.29889C8.045 7.60889 8.265 8.14889 8.715 8.14889Z" fill="black"/>
</svg>
