<svg width="24" height="24" viewBox="0 0 24 24" fill="none" xmlns="http://www.w3.org/2000/svg">
<path d="M4.57998 16.0302L6.57998 14.4402C7.05998 14.0602 7.33998 13.4802 7.33998 12.8702V10.2702C10.36 9.29016 13.63 9.28016 16.66 10.2702V12.8802C16.66 13.4902 16.94 14.0702 17.42 14.4502L19.41 16.0302C20.21 16.6602 21.35 16.6002 22.07 15.8802L23.29 14.6602C24.09 13.8602 24.09 12.5302 23.24 11.7802C16.83 6.12016 7.16998 6.12016 0.759981 11.7802C-0.090019 12.5302 -0.090019 13.8602 0.709981 14.6602L1.92998 15.8802C2.63998 16.6002 3.77998 16.6602 4.57998 16.0302Z" fill="black"/>
</svg>
