<svg  viewBox="0 0 24 24" fill="none" xmlns="http://www.w3.org/2000/svg">
<path d="M16 7.00032H15L14 6.00032H10L9.00002 7.00032H8.00002C6.90002 7.00032 6.00002 7.90032 6.00002 9.00032V15.0003C6.00002 16.1003 6.90002 17.0003 8.00002 17.0003H16C17.1 17.0003 18 16.1003 18 15.0003V9.00032C18 7.90032 17.1 7.00032 16 7.00032ZM12 14.0003C10.9 14.0003 10 13.1003 10 12.0003C10 10.9003 10.9 10.0003 12 10.0003C13.1 10.0003 14 10.9003 14 12.0003C14 13.1003 13.1 14.0003 12 14.0003Z" fill="currentColor"/>
<path d="M9.45002 0.280323C9.05002 0.360323 8.90002 0.840323 9.19002 1.12032L12.2 4.13032C12.52 4.44032 13.05 4.22032 13.05 3.78032V2.04032C17.5 2.48032 21.11 5.86032 21.89 10.2103C21.97 10.6703 22.39 10.9903 22.86 10.9903C23.48 10.9903 23.95 10.4203 23.84 9.81032C22.61 2.89032 15.79 -1.11968 9.45002 0.280323Z" fill="currentColor"/>
<path d="M11.8 19.8703C11.48 19.5503 10.95 19.7803 10.95 20.2203V21.9603C6.50002 21.5203 2.89002 18.1403 2.11002 13.7903C2.03002 13.3303 1.61002 13.0103 1.14002 13.0103C0.520016 13.0103 0.050016 13.5803 0.160016 14.1903C1.40002 21.1103 8.22002 25.1203 14.56 23.7203C14.95 23.6303 15.11 23.1603 14.82 22.8703L11.8 19.8703Z" fill="currentColor"/>
</svg>
