<svg  viewBox="0 0 24 24" fill="none" xmlns="http://www.w3.org/2000/svg">
<path d="M18 12.7495C18 12.1995 17.55 11.7495 17 11.7495H13C12.45 11.7495 12 12.1995 12 12.7495V16.7495C12 17.2995 12.45 17.7495 13 17.7495H17C17.55 17.7495 18 17.2995 18 16.7495V15.7495L19.27 16.4195C19.6 16.5995 20 16.3595 20 15.9795V13.5195C20 13.1395 19.6 12.8995 19.27 13.0795L18 13.7495V12.7495ZM10.8 3.64945L4.8 8.14945C4.3 8.52945 4 9.11945 4 9.74945V18.7495C4 19.8495 4.9 20.7495 6 20.7495H19C19.55 20.7495 20 20.2995 20 19.7495C20 19.1995 19.55 18.7495 19 18.7495H6V9.74945L12 5.24945L18 9.74945V10.7495H20V9.74945C20 9.11945 19.7 8.52945 19.2 8.14945L13.2 3.64945C12.49 3.11945 11.51 3.11945 10.8 3.64945Z" fill="currentColor"/>
</svg>
