<svg width="24" height="24" viewBox="0 0 24 24" fill="none" xmlns="http://www.w3.org/2000/svg">
<path d="M10.8 3.64945L4.8 8.14945C4.3 8.52945 4 9.11945 4 9.74945V18.7495C4 19.8495 4.9 20.7495 6 20.7495H18C19.1 20.7495 20 19.8495 20 18.7495V9.74945C20 9.11945 19.7 8.52945 19.2 8.14945L13.2 3.64945C12.49 3.11945 11.51 3.11945 10.8 3.64945ZM15.27 15.6695L14 14.9995V15.9995C14 16.5495 13.55 16.9995 13 16.9995H9C8.45 16.9995 8 16.5495 8 15.9995V11.9995C8 11.4495 8.45 10.9995 9 10.9995H13C13.55 10.9995 14 11.4495 14 11.9995V12.9995L15.27 12.3295C15.6 12.1495 16 12.3895 16 12.7695V15.2295C16 15.6095 15.6 15.8495 15.27 15.6695Z" fill="black"/>
</svg>
