<svg viewBox="0 0 24 24" fill="none" xmlns="http://www.w3.org/2000/svg">
<path d="M13.8096 2.85488C13.9796 2.55488 13.8096 2.15488 13.4596 2.11488C10.8396 1.74488 8.15958 2.39488 6.01958 3.97488C5.82958 4.12488 5.76958 4.40488 5.89958 4.62488L8.90958 9.84488C9.09958 10.1749 9.57958 10.1749 9.77958 9.84488L13.8096 2.85488ZM21.2996 8.32488C20.3196 5.85488 18.3796 3.86488 15.9496 2.82488C15.7196 2.72488 15.4496 2.82488 15.3196 3.04488L12.3096 8.25488C12.1196 8.57488 12.3596 8.99488 12.7496 8.99488H20.8296C21.1796 8.99488 21.4296 8.64488 21.2996 8.32488ZM21.3696 9.99488H15.1696C14.7896 9.99488 14.5396 10.4149 14.7396 10.7449L18.9996 18.1349C19.1696 18.4349 19.5996 18.4849 19.8196 18.2149C21.5596 16.0349 22.2996 13.1849 21.8696 10.4249C21.8396 10.1749 21.6196 9.99488 21.3696 9.99488ZM4.17958 5.78488C2.44958 7.97488 1.69958 10.8049 2.12958 13.5749C2.15958 13.8149 2.37958 13.9949 2.62958 13.9949H8.82958C9.20958 13.9949 9.45958 13.5749 9.25958 13.2449L4.99958 5.86488C4.81958 5.56488 4.38958 5.51488 4.17958 5.78488ZM2.69958 15.6649C3.67958 18.1349 5.61958 20.1249 8.04958 21.1649C8.27958 21.2649 8.54958 21.1649 8.67958 20.9449L11.6896 15.7349C11.8796 15.4049 11.6396 14.9849 11.2596 14.9849H3.16958C2.81958 14.9949 2.56958 15.3449 2.69958 15.6649ZM10.5296 21.8849C13.1496 22.2549 15.8296 21.6049 17.9696 20.0249C18.1696 19.8749 18.2296 19.5849 18.0996 19.3649L15.0896 14.1449C14.8996 13.8149 14.4196 13.8149 14.2196 14.1449L10.1796 21.1349C10.0096 21.4349 10.1896 21.8349 10.5296 21.8849Z" fill="currentColor"/>
</svg>
