<svg viewBox="0 0 24 24" fill="none" xmlns="http://www.w3.org/2000/svg">
<path d="M17 0.354492H7C5.9 0.354492 5 1.25449 5 2.35449V16.3545C5 17.4545 5.9 18.3545 7 18.3545H17C18.1 18.3545 19 17.4545 19 16.3545V2.35449C19 1.25449 18.1 0.354492 17 0.354492ZM17 12.8545C17 11.1845 13.67 10.3545 12 10.3545C10.33 10.3545 7 11.1845 7 12.8545V3.35449C7 2.80449 7.45 2.35449 8 2.35449H16C16.55 2.35449 17 2.80449 17 3.35449V12.8545ZM10.85 19.2045C10.54 18.8945 10 19.1145 10 19.5645V20.3545H6C5.45 20.3545 5 20.8045 5 21.3545C5 21.9045 5.45 22.3545 6 22.3545H10V23.1445C10 23.5945 10.54 23.8145 10.85 23.4945L12.64 21.7045C12.84 21.5045 12.84 21.1945 12.64 20.9945L10.85 19.2045ZM18 20.3545H15C14.45 20.3545 14 20.8045 14 21.3545C14 21.9045 14.45 22.3545 15 22.3545H18C18.55 22.3545 19 21.9045 19 21.3545C19 20.8045 18.55 20.3545 18 20.3545ZM12 8.35449C13.1 8.35449 14 7.45449 14 6.35449C14 5.25449 13.1 4.35449 12 4.35449C10.9 4.35449 10.01 5.25449 10.01 6.35449C10.01 7.45449 10.9 8.35449 12 8.35449Z" fill="currentColor"/>
</svg>
