<svg width="24" height="24" viewBox="0 0 24 24" fill="none" xmlns="http://www.w3.org/2000/svg">
<path d="M18 12.0054C18 12.5554 18.45 13.0054 19 13.0054H21C21.55 13.0054 22 12.5554 22 12.0054C22 11.4554 21.55 11.0054 21 11.0054H19C18.45 11.0054 18 11.4554 18 12.0054Z" fill="black"/>
<path d="M16.59 16.8254C16.26 17.2654 16.35 17.8754 16.79 18.1954C17.32 18.5854 17.88 19.0054 18.41 19.4054C18.85 19.7354 19.47 19.6454 19.79 19.2054C19.79 19.1954 19.8 19.1954 19.8 19.1854C20.13 18.7454 20.04 18.1254 19.6 17.8054C19.07 17.4054 18.51 16.9854 17.99 16.5954C17.55 16.2654 16.93 16.3654 16.6 16.8054C16.6 16.8154 16.59 16.8254 16.59 16.8254Z" fill="black"/>
<path d="M19.81 4.81542C19.81 4.80542 19.8 4.80542 19.8 4.79542C19.47 4.35542 18.85 4.26542 18.42 4.59542C17.89 4.99542 17.32 5.41542 16.8 5.81542C16.36 6.14542 16.28 6.76542 16.61 7.19542C16.61 7.20542 16.62 7.20542 16.62 7.21542C16.95 7.65542 17.56 7.74542 18 7.41542C18.53 7.02542 19.09 6.59542 19.62 6.19542C20.05 5.87542 20.13 5.25542 19.81 4.81542Z" fill="black"/>
<path d="M8 9.00542H4C2.9 9.00542 2 9.90542 2 11.0054V13.0054C2 14.1054 2.9 15.0054 4 15.0054H5V18.0054C5 18.5554 5.45 19.0054 6 19.0054C6.55 19.0054 7 18.5554 7 18.0054V15.0054H8L13 18.0054V6.00542L8 9.00542Z" fill="black"/>
<path d="M15.5 12.0054C15.5 10.6754 14.92 9.47542 14 8.65542V15.3454C14.92 14.5354 15.5 13.3354 15.5 12.0054Z" fill="black"/>
</svg>
