<svg  viewBox="0 0 24 24" fill="none" xmlns="http://www.w3.org/2000/svg">
<path d="M7.005 14.5V13.5H17.005V14.5C17.005 15.05 17.455 15.5 18.005 15.5C18.555 15.5 19.005 15.05 19.005 14.5V8.19C19.005 8.19 17.665 4.16 17.445 3.5C17.395 3.34 17.325 3.21 17.255 3.1C17.235 3.08 17.225 3.06 17.205 3.03C16.825 2.51 16.285 2.5 16.285 2.5H7.725C7.725 2.5 7.18501 2.51 6.80501 3.04C6.78501 3.06 6.775 3.08 6.755 3.1C6.685 3.21 6.615 3.34 6.565 3.5C6.345 4.16 5.005 8.19 5.005 8.19V14.5C5.005 15.05 5.455 15.5 6.005 15.5C6.555 15.5 7.005 15.05 7.005 14.5ZM9.005 11C8.455 11 8.005 10.55 8.005 10C8.005 9.45 8.455 9 9.005 9C9.55501 9 10.005 9.45 10.005 10C10.005 10.55 9.55501 11 9.005 11ZM15.005 11C14.455 11 14.005 10.55 14.005 10C14.005 9.45 14.455 9 15.005 9C15.555 9 16.005 9.45 16.005 10C16.005 10.55 15.555 11 15.005 11ZM8.335 4.5H15.675L15.905 5.19L16.335 6.5H7.675L8.335 4.5Z" fill="currentColor"/>
<path d="M4.005 17.51C4.005 18.05 4.455 18.5 4.995 18.5H11.005V20.51C11.005 21.06 11.455 21.5 11.995 21.5H12.005C12.555 21.5 12.995 21.05 12.995 20.51V18.5H19.005C19.555 18.5 19.995 18.05 19.995 17.51C19.995 16.96 19.545 16.52 19.005 16.52H4.995C4.455 16.51 4.005 16.96 4.005 17.51Z" fill="currentColor"/>
</svg>
