<svg  viewBox="0 0 24 24" fill="none" xmlns="http://www.w3.org/2000/svg">
<path d="M8.00119 7.49828C9.30119 7.49828 10.4112 6.65828 10.8312 5.49828H16.0012V6.49828C16.0012 7.04828 16.4512 7.49828 17.0012 7.49828C17.5512 7.49828 18.0012 7.04828 18.0012 6.49828V5.49828C18.5512 5.49828 19.0012 5.04828 19.0012 4.49828C19.0012 3.94828 18.5512 3.49828 18.0012 3.49828H10.8312C10.3512 2.14828 8.95119 1.25828 7.40119 1.55828C6.23119 1.78828 5.28119 2.74828 5.05119 3.91828C4.70119 5.81828 6.15119 7.49828 8.00119 7.49828ZM8.00119 3.49828C8.55119 3.49828 9.00119 3.94828 9.00119 4.49828C9.00119 5.04828 8.55119 5.49828 8.00119 5.49828C7.45119 5.49828 7.00119 5.04828 7.00119 4.49828C7.00119 3.94828 7.45119 3.49828 8.00119 3.49828ZM16.3912 9.49828H7.61119C7.18119 9.49828 6.80119 9.77828 6.66119 10.1783L5.00119 15.1883V21.4983C5.00119 22.0483 5.45119 22.4983 6.00119 22.4983C6.55119 22.4983 7.00119 22.0483 7.00119 21.4983V20.4983H17.0012V21.4983C17.0012 22.0483 17.4512 22.4983 18.0012 22.4983C18.5512 22.4983 19.0012 22.0483 19.0012 21.4983V15.1883L17.3412 10.1783C17.2012 9.77828 16.8212 9.49828 16.3912 9.49828ZM9.00119 17.9983C8.45119 17.9983 8.00119 17.5483 8.00119 16.9983C8.00119 16.4483 8.45119 15.9983 9.00119 15.9983C9.55119 15.9983 10.0012 16.4483 10.0012 16.9983C10.0012 17.5483 9.55119 17.9983 9.00119 17.9983ZM15.0012 17.9983C14.4512 17.9983 14.0012 17.5483 14.0012 16.9983C14.0012 16.4483 14.4512 15.9983 15.0012 15.9983C15.5512 15.9983 16.0012 16.4483 16.0012 16.9983C16.0012 17.5483 15.5512 17.9983 15.0012 17.9983ZM7.67119 13.4983L8.33119 11.4983H15.6712L16.3312 13.4983H7.67119Z" fill="currentColor"/>
</svg>
