<svg  viewBox="0 0 24 24" fill="none" xmlns="http://www.w3.org/2000/svg">
<path d="M10.65 2.94094L6.93 9.02094C6.52 9.68094 7 10.5409 7.78 10.5409H15.21C15.99 10.5409 16.47 9.68094 16.06 9.02094L12.35 2.94094C11.96 2.30094 11.04 2.30094 10.65 2.94094Z" fill="currentColor"/>
<path d="M17 21.5409C19.4853 21.5409 21.5 19.5262 21.5 17.0409C21.5 14.5557 19.4853 12.5409 17 12.5409C14.5147 12.5409 12.5 14.5557 12.5 17.0409C12.5 19.5262 14.5147 21.5409 17 21.5409Z" fill="currentColor"/>
<path d="M3.5 21.0409H9.5C10.05 21.0409 10.5 20.5909 10.5 20.0409V14.0409C10.5 13.4909 10.05 13.0409 9.5 13.0409H3.5C2.95 13.0409 2.5 13.4909 2.5 14.0409V20.0409C2.5 20.5909 2.95 21.0409 3.5 21.0409Z" fill="currentColor"/>
</svg>
