<svg  viewBox="0 0 24 24" fill="none" xmlns="http://www.w3.org/2000/svg">
<path d="M3.05086 21.7284L12.0909 18.4984C13.4709 18.0084 13.8709 16.2384 12.8309 15.1984L8.30086 10.6684C7.26086 9.62844 5.50086 10.0284 5.00086 11.4084L1.77086 20.4484C1.49086 21.2484 2.25086 22.0084 3.05086 21.7284Z" fill="currentColor"/>
<path d="M14.1209 12.4384L19.1809 7.37844C19.6709 6.88844 20.4609 6.88844 20.9509 7.37844L21.0109 7.43844C21.3009 7.72844 21.7809 7.72844 22.0709 7.43844C22.3609 7.14844 22.3609 6.66844 22.0709 6.37844L22.0109 6.31844C20.9409 5.24844 19.1909 5.24844 18.1209 6.31844L13.0609 11.3784C12.7709 11.6684 12.7709 12.1484 13.0609 12.4384C13.3509 12.7284 13.8309 12.7284 14.1209 12.4384Z" fill="currentColor"/>
<path d="M9.12086 7.31844L9.06086 7.37844C8.77086 7.66844 8.77086 8.14844 9.06086 8.43844C9.35086 8.72844 9.83086 8.72844 10.1209 8.43844L10.1809 8.37844C11.2509 7.30844 11.2509 5.55844 10.1809 4.48844L10.1309 4.43844C9.83086 4.13844 9.35086 4.13844 9.06086 4.43844C8.77086 4.72844 8.77086 5.20844 9.06086 5.49844L9.12086 5.55844C9.60086 6.03844 9.60086 6.83844 9.12086 7.31844Z" fill="currentColor"/>
<path d="M16.1209 12.3184L15.0609 13.3784C14.7709 13.6684 14.7709 14.1484 15.0609 14.4384C15.3509 14.7284 15.8309 14.7284 16.1209 14.4384L17.1809 13.3784C17.6709 12.8884 18.4609 12.8884 18.9509 13.3784L20.0309 14.4584C20.3209 14.7484 20.8009 14.7484 21.0909 14.4584C21.3809 14.1684 21.3809 13.6884 21.0909 13.3984L20.0109 12.3184C18.9309 11.2484 17.1909 11.2484 16.1209 12.3184Z" fill="currentColor"/>
<path d="M14.1209 6.31844L11.0609 9.37844C10.7709 9.66844 10.7709 10.1484 11.0609 10.4384C11.3509 10.7284 11.8309 10.7284 12.1209 10.4384L15.1809 7.37844C16.2509 6.30844 16.2509 4.55844 15.1809 3.48844L14.1209 2.42844C13.8309 2.13844 13.3509 2.13844 13.0609 2.42844C12.7709 2.71844 12.7709 3.19844 13.0609 3.48844L14.1209 4.54844C14.6009 5.03844 14.6009 5.83844 14.1209 6.31844Z" fill="currentColor"/>
</svg>
