<svg  viewBox="0 0 24 24" fill="none" xmlns="http://www.w3.org/2000/svg">
<path d="M19.0946 7.18113L6.50458 19.7911C5.87458 20.4211 6.32458 21.5011 7.21458 21.5011H19.8046C20.3546 21.5011 20.8046 21.0511 20.8046 20.5011V7.89113C20.8046 7.00113 19.7246 6.55113 19.0946 7.18113ZM18.8046 19.5011H16.8046V12.2811L18.8046 10.2811V19.5011Z" fill="currentColor"/>
<path d="M8.41458 10.1811C8.13458 10.3511 8.09458 10.7411 8.32458 10.9711L9.14458 11.7911C9.53458 12.1811 10.1646 12.1811 10.5546 11.7911L11.3746 10.9711C11.6046 10.7411 11.5546 10.3511 11.2846 10.1811C10.4146 9.64113 9.29458 9.64113 8.41458 10.1811Z" fill="currentColor"/>
<path d="M7.22458 8.80113C8.79458 7.68113 10.9246 7.68113 12.4946 8.80113C12.8546 9.06113 13.3446 9.02113 13.6546 8.70113C14.0446 8.31113 14.0046 7.64113 13.5546 7.32113C11.3546 5.75113 8.36458 5.75113 6.15458 7.32113C5.70458 7.64113 5.65458 8.31113 6.05458 8.70113C6.37458 9.02113 6.86458 9.06113 7.22458 8.80113Z" fill="currentColor"/>
<path d="M15.0646 6.19113C15.4046 6.47113 15.8946 6.47113 16.2046 6.16113L16.3246 6.04113C16.6746 5.69113 16.6346 5.12113 16.2446 4.80113C12.5746 1.75113 7.22458 1.73113 3.54458 4.74113C3.11458 5.09113 3.07458 5.73113 3.46458 6.11113C3.78458 6.44113 4.30458 6.48113 4.65458 6.19113C7.66458 3.71113 12.0546 3.71113 15.0646 6.19113Z" fill="currentColor"/>
</svg>
