<svg viewBox="0 0 24 24" fill="none" xmlns="http://www.w3.org/2000/svg">
<path d="M9.54124 15.5C8.99124 15.5 8.54124 15.95 8.54124 16.5V20.5H5.54124C4.99124 20.5 4.54124 20.05 4.54124 19.5V15.83L4.16124 16.21C3.77124 16.6 3.14124 16.6 2.75124 16.21C2.36124 15.82 2.36124 15.19 2.75124 14.8L8.84124 8.71C9.23124 8.32 9.86124 8.32 10.2512 8.71L16.3412 14.8C16.7312 15.19 16.7312 15.82 16.3412 16.21C15.9512 16.6 15.3212 16.6 14.9312 16.21L14.5412 15.83V19.5C14.5412 20.05 14.0912 20.5 13.5412 20.5H10.5412V16.5C10.5412 15.95 10.0912 15.5 9.54124 15.5ZM17.0412 8V8.89L15.9612 9.97C15.7812 10.15 15.7512 10.45 15.9112 10.66C16.1012 10.89 16.4412 10.9 16.6512 10.7L17.0412 10.31V11C17.0412 11.28 17.2612 11.5 17.5412 11.5C17.8212 11.5 18.0412 11.28 18.0412 11V10.31L18.4312 10.7C18.6412 10.91 18.9812 10.89 19.1712 10.66C19.3412 10.46 19.3112 10.16 19.1212 9.97L18.0412 8.89V8H18.9312L20.0112 9.08C20.1912 9.26 20.4912 9.29 20.7012 9.13C20.9312 8.94 20.9412 8.6 20.7412 8.39L20.3512 8H21.0412C21.3212 8 21.5412 7.78 21.5412 7.5C21.5412 7.22 21.3212 7 21.0412 7H20.3512L20.7412 6.61C20.9512 6.4 20.9312 6.06 20.7012 5.87C20.5012 5.7 20.2012 5.73 20.0112 5.92L18.9312 7H18.0412V6.11L19.1212 5.03C19.3012 4.85 19.3312 4.55 19.1712 4.34C18.9812 4.11 18.6412 4.1 18.4312 4.3L18.0412 4.69V4C18.0412 3.72 17.8212 3.5 17.5412 3.5C17.2612 3.5 17.0412 3.72 17.0412 4V4.69L16.6512 4.3C16.4412 4.09 16.1012 4.11 15.9112 4.34C15.7412 4.54 15.7712 4.84 15.9612 5.03L17.0412 6.11V7H16.1512L15.0712 5.92C14.8912 5.74 14.5912 5.71 14.3812 5.87C14.1512 6.06 14.1412 6.4 14.3412 6.61L14.7312 7H14.0412C13.7612 7 13.5412 7.22 13.5412 7.5C13.5412 7.78 13.7612 8 14.0412 8H14.7312L14.3412 8.39C14.1312 8.6 14.1512 8.94 14.3812 9.13C14.5812 9.3 14.8812 9.27 15.0712 9.08L16.1512 8H17.0412Z" fill="currentColor"/>
</svg>
