<svg width="24" height="24" viewBox="0 0 24 24" fill="none" xmlns="http://www.w3.org/2000/svg">
<path d="M21.7962 8.53098C21.7962 7.98098 21.3462 7.53098 20.7962 7.53098H13.7962C13.2462 7.53098 12.7962 7.98098 12.7962 8.53098C12.7962 9.08098 13.2462 9.53098 13.7962 9.53098H20.7962C21.3462 9.53098 21.7962 9.08098 21.7962 8.53098ZM12.7962 16.531C12.7962 17.081 13.2462 17.531 13.7962 17.531H20.7962C21.3462 17.531 21.7962 17.081 21.7962 16.531C21.7962 15.981 21.3462 15.531 20.7962 15.531H13.7962C13.2462 15.531 12.7962 15.981 12.7962 16.531ZM10.2662 5.16098C10.6562 5.55098 10.6562 6.18098 10.2662 6.57098L6.03624 10.821C5.64623 11.211 5.01624 11.211 4.61624 10.821L2.49624 8.69098C2.10624 8.30098 2.10624 7.67098 2.49624 7.28098C2.88624 6.89098 3.51624 6.89098 3.90624 7.28098L5.32624 8.70098L8.86623 5.16098C9.24623 4.78098 9.88624 4.78098 10.2662 5.16098ZM10.2762 13.171C10.6662 13.561 10.6662 14.191 10.2762 14.581L6.04624 18.831C5.65624 19.221 5.02624 19.221 4.62624 18.831L2.49624 16.691C2.10624 16.301 2.10624 15.671 2.49624 15.281C2.88624 14.891 3.51624 14.891 3.90624 15.281L5.32624 16.701L8.86623 13.161C9.24623 12.781 9.88623 12.781 10.2762 13.171Z" fill="black"/>
</svg>
