<svg width="24" height="24" viewBox="0 0 24 24" fill="none" xmlns="http://www.w3.org/2000/svg">
<path d="M11.2087 8.54043C11.2087 7.99043 10.7587 7.54043 10.2087 7.54043H3.20874C2.65874 7.54043 2.20874 7.99043 2.20874 8.54043C2.20874 9.09043 2.65874 9.54043 3.20874 9.54043H10.2087C10.7587 9.54043 11.2087 9.09043 11.2087 8.54043ZM11.2087 16.5404C11.2087 15.9904 10.7587 15.5404 10.2087 15.5404H3.20874C2.65874 15.5404 2.20874 15.9904 2.20874 16.5404C2.20874 17.0904 2.65874 17.5404 3.20874 17.5404H10.2087C10.7587 17.5404 11.2087 17.0904 11.2087 16.5404ZM17.2587 10.8304C16.8687 11.2204 16.2387 11.2204 15.8487 10.8304L13.7287 8.71043C13.3387 8.32043 13.3387 7.69043 13.7287 7.30043C14.1187 6.91043 14.7487 6.91043 15.1387 7.30043L16.5487 8.71043L20.0887 5.17043C20.4787 4.78043 21.1087 4.78043 21.4987 5.17043C21.8887 5.56043 21.8887 6.19043 21.4987 6.58043L17.2587 10.8304ZM17.2587 18.8304C16.8687 19.2204 16.2387 19.2204 15.8487 18.8304L13.7287 16.7104C13.3387 16.3204 13.3387 15.6904 13.7287 15.3004C14.1187 14.9104 14.7487 14.9104 15.1387 15.3004L16.5487 16.7104L20.0887 13.1704C20.4787 12.7804 21.1087 12.7804 21.4987 13.1704C21.8887 13.5604 21.8887 14.1904 21.4987 14.5804L17.2587 18.8304Z" fill="black"/>
</svg>
