<svg viewBox="0 0 24 24" fill="none" xmlns="http://www.w3.org/2000/svg">
<path d="M21.6 18.2012L13 11.7512V10.8412C14.65 10.3512 15.8 8.67124 15.43 6.79124C15.17 5.48124 14.13 4.39124 12.82 4.09124C11.06 3.69124 9.45002 4.62124 8.80002 6.07124C8.50002 6.74124 8.98002 7.50124 9.71002 7.50124C10.1 7.50124 10.46 7.28123 10.61 6.93124C10.84 6.38124 11.37 6.00124 12 6.00124C12.83 6.00124 13.5 6.67124 13.5 7.50124C13.5 8.34124 12.81 9.02124 11.97 9.00124C11.43 8.99124 11 9.45124 11 9.99124V11.7512L2.40002 18.2012C1.63002 18.7812 2.04002 20.0012 3.00002 20.0012H21C21.96 20.0012 22.37 18.7812 21.6 18.2012ZM6.00002 18.0012L12 13.5012L18 18.0012H6.00002Z" fill="currentColor"/>
</svg>
