<svg viewBox="0 0 24 24" fill="none" xmlns="http://www.w3.org/2000/svg">
<path d="M13.5 3.04604V9.96604H21.5C21.5 5.93604 18.52 2.59604 14.64 2.04604C14.04 1.95604 13.5 2.43604 13.5 3.04604ZM19.82 15.856C20.87 14.506 21.5 12.806 21.5 10.966H6.94L6.26 9.53604C6.1 9.18604 5.74 8.96604 5.36 8.96604H3.5C2.95 8.96604 2.5 9.41604 2.5 9.96604C2.5 10.516 2.95 10.966 3.5 10.966H4.72C4.72 10.966 6.61 15.036 6.84 15.386C5.51 16.096 4.7 17.656 5.1 19.326C5.4 20.586 6.44 21.596 7.7 21.876C9.8 22.336 11.68 20.916 11.95 18.966H14.03C14.3 20.906 16.17 22.326 18.25 21.886C19.52 21.616 20.56 20.616 20.88 19.356C21.23 17.966 20.74 16.676 19.82 15.856ZM8.5 19.966C7.67 19.966 7 19.296 7 18.466C7 17.636 7.67 16.966 8.5 16.966C9.33 16.966 10 17.636 10 18.466C10 19.296 9.33 19.966 8.5 19.966ZM17.5 19.966C16.67 19.966 16 19.296 16 18.466C16 17.636 16.67 16.966 17.5 16.966C18.33 16.966 19 17.636 19 18.466C19 19.296 18.33 19.966 17.5 19.966Z" fill="currentColor"/>
</svg>
