<svg  viewBox="0 0 24 24" fill="none" xmlns="http://www.w3.org/2000/svg">
<path d="M18 12.72V10.73C18 9.97 17.57 9.28 16.89 8.94L13 7V5.5H14C14.55 5.5 15 5.05 15 4.5C15 3.95 14.55 3.5 14 3.5H13V2.5C13 1.95 12.55 1.5 12 1.5C11.45 1.5 11 1.95 11 2.5V3.5H10C9.45 3.5 9 3.95 9 4.5C9 5.05 9.45 5.5 10 5.5H11V7L7.11 8.95C6.43 9.29 6 9.98 6 10.74V12.73L3.19 13.98C2.47 14.29 2 15.01 2 15.8V20.5C2 21.6 2.9 22.5 4 22.5H10V19.61C10 18.61 10.68 17.69 11.66 17.53C12.92 17.32 14 18.29 14 19.5V22.5H20C21.1 22.5 22 21.6 22 20.5V15.8C22 15.01 21.53 14.29 20.81 13.97L18 12.72ZM12 14C11.17 14 10.5 13.33 10.5 12.5C10.5 11.67 11.17 11 12 11C12.83 11 13.5 11.67 13.5 12.5C13.5 13.33 12.83 14 12 14Z" fill="currentColor"/>
</svg>
