<svg  viewBox="0 0 24 24" fill="none" xmlns="http://www.w3.org/2000/svg">
<path d="M15.49 7L16.86 6.37L17.49 5L18.12 6.37L19.49 7L18.12 7.63L17.49 9L16.86 7.63L15.49 7ZM20.5 14C21.6 14 22.5 13.1 22.5 12C22.5 11.22 21.51 9.56 20.92 8.64C20.72 8.33 20.28 8.33 20.08 8.64C19.49 9.56 18.5 11.22 18.5 12C18.5 13.1 19.4 14 20.5 14ZM9.74 9.5L15.5 11.65V11C15.5 8.58 13.78 6.56 11.5 6.1V4H13.5C13.85 4 14.18 4.06 14.5 4.18C14.87 4.31 15.28 4.23 15.55 3.96C16.06 3.45 15.89 2.57 15.22 2.32C14.69 2.11 14.11 2 13.5 2H9C8.45 2 8 2.45 8 3C8 3.55 8.45 4 9 4H9.5V6.11C7.72 6.48 6.3 7.79 5.75 9.5H9.74ZM3.5 11C2.4 11 1.5 11.9 1.5 13V20C1.5 21.1 2.4 22 3.5 22C4.6 22 5.5 21.1 5.5 20V13C5.5 11.9 4.6 11 3.5 11ZM20.49 17H13.66C13.55 17 13.44 16.98 13.33 16.94L11.86 16.43C11.6 16.34 11.47 16.06 11.56 15.8C11.65 15.54 11.94 15.4 12.2 15.5L13.32 15.93C13.43 15.97 13.56 16 13.68 16H16.31C16.96 16 17.49 15.47 17.49 14.82C17.49 14.33 17.18 13.89 16.72 13.71L9.8 11.13C9.58 11.04 9.34 11 9.1 11H7.5V20.02L13.87 21.83C14.28 21.95 14.72 21.93 15.12 21.78L22.5 19C22.5 17.89 21.6 17 20.49 17Z" fill="currentColor"/>
</svg>
