<svg  viewBox="0 0 24 24" fill="none" xmlns="http://www.w3.org/2000/svg">
<path d="M7.42631 3.29008H19.5963C20.6963 3.29008 21.5963 4.19008 21.5963 5.29008V17.2901C21.5963 17.3401 21.5863 17.3901 21.5763 17.4501L18.1963 14.0701C18.4363 13.8801 18.5963 13.6101 18.5963 13.2901V12.7901C18.5963 12.5101 18.3763 12.2901 18.0963 12.2901H17.5963C17.3163 12.2901 17.0963 12.5101 17.0963 12.7901H16.9263L15.0963 10.9601V9.79008H17.0963C17.0963 10.0701 17.3163 10.2901 17.5963 10.2901H18.0963C18.3763 10.2901 18.5963 10.0701 18.5963 9.79008V9.29008C18.5963 8.74008 18.1463 8.29008 17.5963 8.29008H14.5963C14.0463 8.29008 13.5963 8.74008 13.5963 9.29008V9.46008L7.42631 3.29008ZM21.0863 21.1901C20.6963 21.5801 20.0663 21.5801 19.6763 21.1901L17.7763 19.2901H5.59631C4.48631 19.2901 3.59631 18.3901 3.59631 17.2901V5.29008C3.59631 5.24008 3.61631 5.19008 3.61631 5.14008L2.69631 4.22008C2.30631 3.83008 2.30631 3.20008 2.69631 2.81008C3.08631 2.42008 3.71631 2.42008 4.10631 2.81008L21.0763 19.7801C21.4763 20.1701 21.4763 20.8001 21.0863 21.1901ZM11.5963 13.1201L10.7663 12.2901H10.5963C10.3163 12.2901 10.0963 12.5101 10.0963 12.7901H8.09631V9.79008H8.26631L6.99631 8.51008C6.75631 8.70008 6.59631 8.97008 6.59631 9.29008V13.2901C6.59631 13.8401 7.04631 14.2901 7.59631 14.2901H10.5963C11.1463 14.2901 11.5963 13.8401 11.5963 13.2901V13.1201Z" fill="currentColor"/>
</svg>
