<svg  viewBox="0 0 24 24" fill="none" xmlns="http://www.w3.org/2000/svg">
<path d="M21.2944 4.12437L16.7044 8.71437L18.2944 10.3044C18.9244 10.9344 18.4744 12.0144 17.5844 12.0144H13.0044C12.4544 12.0144 12.0044 11.5644 12.0044 11.0144V6.41436C12.0044 5.52436 13.0844 5.07437 13.7144 5.70437L15.3044 7.29436L19.8944 2.70437C20.2844 2.31437 20.9144 2.31437 21.3044 2.70437C21.6844 3.10437 21.6844 3.73437 21.2944 4.12437ZM4.12437 21.2944L8.71437 16.7044L10.3044 18.2944C10.9344 18.9244 12.0144 18.4744 12.0144 17.5844V13.0044C12.0144 12.4544 11.5644 12.0044 11.0144 12.0044H6.41436C5.52436 12.0044 5.07437 13.0844 5.70437 13.7144L7.29436 15.3044L2.70437 19.8944C2.31437 20.2844 2.31437 20.9144 2.70437 21.3044C3.10437 21.6844 3.73437 21.6844 4.12437 21.2944Z" fill="currentColor"/>
</svg>
