<svg  viewBox="0 0 24 24" fill="none" xmlns="http://www.w3.org/2000/svg">
<path d="M22 17.48C22 18.86 20.88 19.98 19.5 19.98L13 20C11.34 20 10 18.66 10 17C10 15.4 11.26 14.1 12.84 14.02C13.4 12.83 14.6 12 16 12C17.76 12 19.2 13.3 19.45 14.99C19.47 14.99 19.48 14.98 19.5 14.98C20.88 14.98 22 16.1 22 17.48ZM8 15C8 14.45 7.55 14 7 14C6.45 14 6 14.45 6 15V16.44C4.78 15.34 4 13.77 4 12C4 9.62 5.39 7.57 7.4 6.6C7.77 6.42 8 6.04 8 5.63C8 4.92 7.27 4.45 6.63 4.75C3.89 6.03 2 8.79 2 12C2 14.4 3.06 16.54 4.73 18H3C2.45 18 2 18.45 2 19C2 19.55 2.45 20 3 20H7C7.55 20 8 19.55 8 19V15ZM17 6C17.55 6 18 5.55 18 5C18 4.45 17.55 4 17 4H13C12.45 4 12 4.45 12 5V9C12 9.55 12.45 10 13 10C13.55 10 14 9.55 14 9V7.56C14.98 8.45 15.68 9.64 15.92 11H17.94C17.69 9.01 16.71 7.26 15.28 6H17Z" fill="currentColor"/>
</svg>
