<svg  viewBox="0 0 24 24" fill="none" xmlns="http://www.w3.org/2000/svg">
<path d="M23.9988 14.209C23.9988 11.569 21.9488 9.42898 19.3488 9.24898C18.6688 5.79898 15.6388 3.20898 11.9988 3.20898C10.6688 3.20898 9.42876 3.56898 8.34876 4.17898L9.83876 5.66898C10.5088 5.37898 11.2288 5.20898 11.9988 5.20898C15.0388 5.20898 17.4988 7.66898 17.4988 10.709V11.209H18.9988C20.6588 11.209 21.9988 12.549 21.9988 14.209C21.9988 15.199 21.5188 16.059 20.7888 16.609L22.1988 18.019C23.2888 17.099 23.9988 15.749 23.9988 14.209ZM3.70876 3.76898C3.31876 4.15898 3.31876 4.78898 3.70876 5.17898L5.76876 7.23898H5.34876C2.06876 7.58898 -0.411237 10.579 0.058763 14.029C0.458763 17.049 3.18876 19.209 6.21876 19.209H17.7288L19.0188 20.499C19.4088 20.889 20.0388 20.889 20.4288 20.499C20.8188 20.109 20.8188 19.479 20.4288 19.089L5.11876 3.76898C4.72876 3.37898 4.09876 3.37898 3.70876 3.76898ZM5.99876 17.209C3.78876 17.209 1.99876 15.419 1.99876 13.209C1.99876 10.999 3.78876 9.20898 5.99876 9.20898H7.72876L15.7288 17.209H5.99876Z" fill="currentColor"/>
</svg>
