<svg  viewBox="0 0 24 24" fill="none" xmlns="http://www.w3.org/2000/svg">
<path d="M13.75 7.5H10.75C10.2 7.5 9.75 7.95 9.75 8.5V12.5C9.75 13.05 10.2 13.5 10.75 13.5H13.75C14.3 13.5 14.75 13.05 14.75 12.5V8.5C14.75 7.95 14.3 7.5 13.75 7.5ZM13.25 12H11.25V9H13.25V12ZM20.25 14H18.25V15H20.5C20.91 15 21.25 15.34 21.25 15.75C21.25 16.16 20.91 16.5 20.5 16.5H17.75C17.2 16.5 16.75 16.05 16.75 15.5V14C16.75 13.45 17.2 13 17.75 13H19.75V12H17.5C17.09 12 16.75 11.66 16.75 11.25C16.75 10.84 17.09 10.5 17.5 10.5H20.25C20.8 10.5 21.25 10.95 21.25 11.5V13C21.25 13.55 20.8 14 20.25 14ZM7.75 12.5C7.75 13.05 7.3 13.5 6.75 13.5H3.75C3.2 13.5 2.75 13.05 2.75 12.5V8.5C2.75 7.95 3.2 7.5 3.75 7.5H6.75C7.3 7.5 7.75 7.95 7.75 8.5V8.75C7.75 9.16 7.41 9.5 7 9.5C6.67 9.5 6.4 9.29 6.29 9H4.25V12H6.29C6.39 11.71 6.67 11.5 7 11.5C7.41 11.5 7.75 11.84 7.75 12.25V12.5Z" fill="currentColor"/>
</svg>
