<svg  viewBox="0 0 24 24" fill="none" xmlns="http://www.w3.org/2000/svg">
<path d="M19.475 11.295L15.595 7.41501C15.205 7.02501 15.205 6.39501 15.595 6.00501C15.985 5.61501 16.615 5.61501 17.005 6.00501L21.595 10.595C21.985 10.985 21.985 11.615 21.595 12.005L18.715 14.885L17.305 13.465L19.475 11.295ZM2.40505 4.22501L5.89505 7.71501L3.01505 10.595C2.62505 10.985 2.62505 11.615 3.01505 12.005L7.60505 16.595C7.99505 16.985 8.62505 16.985 9.01505 16.595C9.40505 16.205 9.40505 15.575 9.01505 15.185L5.13505 11.295L7.30505 9.12501L19.375 21.195C19.765 21.585 20.395 21.585 20.785 21.195C21.175 20.805 21.175 20.175 20.785 19.785L3.81505 2.80501C3.42505 2.41501 2.79505 2.41501 2.40505 2.80501C2.01505 3.20501 2.01505 3.83501 2.40505 4.22501Z" fill="currentColor"/>
</svg>
