<svg viewBox="0 0 24 24" fill="none" xmlns="http://www.w3.org/2000/svg">
<path d="M20.71 5.63152L18.37 3.29152C17.98 2.90152 17.35 2.90152 16.96 3.29152L13.84 6.41152L12.61 5.20152C12.22 4.81152 11.59 4.82152 11.2 5.20152C10.81 5.59152 10.81 6.22152 11.2 6.61152L11.92 7.33152L3.15 16.1015C3.05 16.2015 3 16.3215 3 16.4615V20.5015C3 20.7815 3.22 21.0015 3.5 21.0015H7.54C7.67 21.0015 7.8 20.9515 7.89 20.8515L16.66 12.0815L17.38 12.8015C17.77 13.1915 18.4 13.1915 18.79 12.8015C19.18 12.4115 19.18 11.7815 18.79 11.3915L17.57 10.1715L20.69 7.05152C21.1 6.65152 21.1 6.02152 20.71 5.63152ZM6.92 19.0015L5 17.0815L13.06 9.02152L14.98 10.9415L6.92 19.0015Z" fill="currentColor"/>
</svg>
