<svg  viewBox="0 0 24 24" fill="none" xmlns="http://www.w3.org/2000/svg">
<path d="M11.9951 4H4.99512C3.33512 4 1.99512 5.34 1.99512 7V15C1.99512 16.66 3.33512 18 4.99512 18L4.22512 18.77C3.94512 19.05 3.94512 19.49 4.22512 19.77C4.50512 20.05 4.94512 20.05 5.22512 19.77L6.99512 18H8.99512V13H4.49512C4.21512 13 3.99512 12.78 3.99512 12.5V6.5C3.99512 6.22 4.21512 6 4.49512 6H12.4951C12.7751 6 12.9951 6.22 12.9951 6.5V8H14.9951V7C14.9951 5.34 13.6551 4 11.9951 4ZM4.99512 14C5.54512 14 5.99512 14.45 5.99512 15C5.99512 15.55 5.54512 16 4.99512 16C4.44512 16 3.99512 15.55 3.99512 15C3.99512 14.45 4.44512 14 4.99512 14ZM20.5651 9.66C20.4251 9.26 20.0451 9 19.5951 9H12.4051C11.9451 9 11.5751 9.26 11.4251 9.66L10.0051 13.77V19.01C10.0051 19.56 10.4551 20 11.0051 20C11.5551 20 12.0051 19.55 12.0051 19V18H20.0051V19C20.0051 19.55 20.4551 20 21.0051 20C21.5551 20 21.9951 19.56 22.0051 19.01L21.9951 13.77L20.5651 9.66ZM12.7651 10H19.2451C19.4551 10 19.6451 10.14 19.7151 10.34L20.4051 12.34C20.5151 12.66 20.2751 13 19.9351 13H12.0851C11.7451 13 11.5051 12.66 11.6151 12.34L12.3051 10.34C12.3551 10.14 12.5451 10 12.7651 10ZM11.9951 16C11.4451 16 10.9951 15.55 10.9951 15C10.9951 14.45 11.4451 14 11.9951 14C12.5451 14 12.9951 14.45 12.9951 15C12.9951 15.55 12.5451 16 11.9951 16ZM19.9951 16C19.4451 16 18.9951 15.55 18.9951 15C18.9951 14.45 19.4451 14 19.9951 14C20.5451 14 20.9951 14.45 20.9951 15C20.9951 15.55 20.5451 16 19.9951 16Z" fill="currentColor"/>
</svg>
