<svg width="24" height="24" viewBox="0 0 24 24" fill="none" xmlns="http://www.w3.org/2000/svg">
<path d="M1.84121 2.35883C1.45121 2.74883 1.45121 3.37883 1.84121 3.76883L2.45121 4.37883V15.5488C2.45121 16.6488 3.35121 17.5488 4.45121 17.5488H15.6212L20.2312 22.1588C20.6212 22.5488 21.2512 22.5488 21.6412 22.1588C22.0312 21.7688 22.0312 21.1388 21.6412 20.7488L3.26121 2.35883C2.87121 1.96883 2.23121 1.96883 1.84121 2.35883ZM6.83121 8.75883L8.62121 10.5488H7.45121C6.90121 10.5488 6.45121 10.0988 6.45121 9.54883C6.45121 9.22883 6.60121 8.94883 6.83121 8.75883ZM7.45121 13.5488C6.90121 13.5488 6.45121 13.0988 6.45121 12.5488C6.45121 11.9988 6.90121 11.5488 7.45121 11.5488H9.62121L11.6212 13.5488H7.45121ZM15.2812 11.5488L14.2812 10.5488H17.4512C18.0012 10.5488 18.4512 10.0988 18.4512 9.54883C18.4512 8.99883 18.0012 8.54883 17.4512 8.54883H12.2812L11.2812 7.54883H17.4512C18.0012 7.54883 18.4512 7.09883 18.4512 6.54883C18.4512 5.99883 18.0012 5.54883 17.4512 5.54883H9.28121L5.28121 1.54883H20.4512C21.5512 1.54883 22.4512 2.44883 22.4512 3.54883V18.7188L17.2812 13.5488H17.4512C18.0012 13.5488 18.4512 13.0988 18.4512 12.5488C18.4512 11.9988 18.0012 11.5488 17.4512 11.5488H15.2812Z" fill="black"/>
</svg>
