<svg  viewBox="0 0 24 24" fill="none" xmlns="http://www.w3.org/2000/svg">
<path d="M12.0055 21C14.2146 21 16.0055 19.2091 16.0055 17C16.0055 14.7909 14.2146 13 12.0055 13C9.79635 13 8.00549 14.7909 8.00549 17C8.00549 19.2091 9.79635 21 12.0055 21Z" fill="currentColor"/>
<path d="M12.0055 3C8.49549 3 5.28549 4.29 2.80549 6.41C2.36549 6.79 2.32549 7.47 2.74549 7.89L6.34549 11.49C6.70549 11.85 7.26549 11.88 7.66549 11.57C8.86549 10.63 10.3755 10.07 12.0055 10.07C13.6455 10.07 15.1455 10.63 16.3455 11.56C16.7455 11.87 17.3055 11.84 17.6555 11.48L21.2555 7.88C21.6755 7.46 21.6355 6.78 21.1855 6.4C18.7255 4.28 15.5155 3 12.0055 3Z" fill="currentColor"/>
</svg>
