<svg width="24" height="24" viewBox="0 0 24 24" fill="none" xmlns="http://www.w3.org/2000/svg">
<path d="M4 10.5C4 11.05 4.45 11.5 5 11.5H19C19.55 11.5 20 11.05 20 10.5C20 9.95 19.55 9.5 19 9.5H5C4.45 9.5 4 9.95 4 10.5Z" fill="black"/>
<path d="M14.79 4.5H13V2.5C13 1.95 12.55 1.5 12 1.5C11.45 1.5 11 1.95 11 2.5V4.5H9.21C8.76 4.5 8.54 5.04 8.85 5.35L11.64 8.14C11.84 8.34 12.15 8.34 12.35 8.14L15.14 5.35C15.46 5.04 15.24 4.5 14.79 4.5Z" fill="black"/>
<path d="M9.21 19.5H11V21.5C11 22.05 11.45 22.5 12 22.5C12.55 22.5 13 22.05 13 21.5V19.5H14.79C15.24 19.5 15.46 18.96 15.14 18.65L12.35 15.86C12.15 15.66 11.84 15.66 11.64 15.86L8.85 18.65C8.54 18.96 8.76 19.5 9.21 19.5Z" fill="black"/>
<path d="M5 14.5H19C19.55 14.5 20 14.05 20 13.5C20 12.95 19.55 12.5 19 12.5H5C4.45 12.5 4 12.95 4 13.5C4 14.05 4.45 14.5 5 14.5Z" fill="black"/>
</svg>
