<svg  viewBox="0 0 24 24" fill="none" xmlns="http://www.w3.org/2000/svg">
<path d="M11.7316 22.3931C6.78157 22.2531 2.65157 18.1231 2.51157 13.1731C2.35157 7.8031 6.67157 3.3931 12.0016 3.3931V2.1031C12.0016 1.6531 12.5416 1.4331 12.8516 1.7531L15.6416 4.5431C15.8416 4.7431 15.8416 5.0531 15.6416 5.2531L12.8516 8.0431C12.5416 8.3531 12.0016 8.1331 12.0016 7.6831V6.3931C8.42157 6.3931 5.50157 9.3131 5.50157 12.8931C5.50157 15.1031 6.61157 17.0631 8.31157 18.2431C8.82157 17.3231 9.94157 16.6231 11.2916 16.4431C11.2016 15.7531 11.0316 15.0231 10.8016 14.4131C10.4716 14.6931 10.0516 14.8731 9.58157 14.8931C8.44157 14.9431 7.50157 13.9031 7.50157 12.7631V11.9031C7.50157 11.6131 7.45157 11.3331 7.36157 11.0731C7.24157 10.7331 7.50157 10.3831 7.86157 10.4131C9.16157 10.5031 11.4616 10.9331 11.5016 12.8931C11.5016 13.1831 11.4416 13.4531 11.3316 13.6931C10.9116 13.3731 10.4716 13.0931 10.0016 12.8931C10.5816 13.3231 11.3716 14.2631 12.0016 15.4931C12.6716 13.8731 13.6816 12.2231 15.0016 10.8931C14.2416 11.4131 13.5316 12.0131 12.8716 12.7031C12.6116 12.2831 12.4716 11.7731 12.5116 11.2331C12.5916 9.8931 13.7916 8.8931 15.1316 8.8931H16.0016C16.5616 8.8931 16.9716 8.7531 17.2816 8.5831C17.6216 8.3931 18.0416 8.6331 18.0316 9.0231C17.9916 10.7631 17.5616 13.8931 15.0016 13.8931C14.5116 13.8931 14.0616 13.7531 13.6816 13.5131C13.4416 14.1531 13.0916 15.2731 12.9216 16.4731C14.1816 16.6931 15.2016 17.3631 15.6916 18.2431C17.2616 17.1531 18.3316 15.3931 18.4816 13.3731C18.5016 13.1131 18.7116 12.8931 18.9816 12.8931H20.8016C21.2716 12.8931 21.5116 13.1331 21.4916 13.4131C21.2116 18.5031 16.9116 22.5331 11.7316 22.3931Z" fill="currentColor"/>
</svg>
