<svg  viewBox="0 0 24 24" fill="none" xmlns="http://www.w3.org/2000/svg">
<path d="M7.00494 4C7.00494 2.89 6.11494 2 5.00494 2C3.89494 2 3.00494 2.89 3.00494 4C3.00494 5.11 3.89494 6 5.00494 6C6.11494 6 7.00494 5.11 7.00494 4ZM10.1949 4.5C9.78494 4.5 9.43494 4.75 9.27494 5.13C8.83494 6.23 7.76494 7 6.50494 7H3.50494C2.67494 7 2.00494 7.67 2.00494 8.5V11H8.00494V8.74C9.43494 8.29 10.5849 7.21 11.1249 5.83C11.3849 5.19 10.8849 4.5 10.1949 4.5ZM19.0049 17C20.1149 17 21.0049 16.11 21.0049 15C21.0049 13.89 20.1149 13 19.0049 13C17.8949 13 17.0049 13.89 17.0049 15C17.0049 16.11 17.8949 17 19.0049 17ZM20.5049 18H17.5049C16.2449 18 15.1749 17.23 14.7349 16.13C14.5849 15.75 14.2249 15.5 13.8149 15.5C13.1249 15.5 12.6249 16.19 12.8749 16.83C13.4249 18.21 14.5649 19.29 15.9949 19.74V22H21.9949V19.5C22.0049 18.67 21.3349 18 20.5049 18ZM17.2549 11.09C17.2549 11.09 17.2549 11.08 17.2649 11.09C16.2049 11.36 15.3649 12.2 15.0949 13.26V13.25C14.9849 13.68 14.5849 14 14.1149 14C13.5649 14 13.1149 13.55 13.1149 13C13.1149 12.95 13.1349 12.86 13.1349 12.86C13.5649 11.01 15.0249 9.55 16.8849 9.13C16.9249 9.13 16.9649 9.12 17.0049 9.12C17.5549 9.12 18.0049 9.57 18.0049 10.12C18.0049 10.58 17.6849 10.98 17.2549 11.09ZM18.0049 6.06C18.0049 6.57 17.6349 6.98 17.1449 7.05C13.9549 7.44 11.4449 9.96 11.0549 13.15C10.9849 13.63 10.5649 14 10.0649 14C9.51494 14 9.06494 13.55 9.06494 13C9.06494 12.98 9.06494 12.96 9.06494 12.94C9.06494 12.93 9.06494 12.92 9.06494 12.91C9.56494 8.79 12.8549 5.53 16.9849 5.06H16.9949C17.5549 5.06 18.0049 5.51 18.0049 6.06Z" fill="currentColor"/>
</svg>
