<svg  viewBox="0 0 24 24" fill="none" xmlns="http://www.w3.org/2000/svg">
<path d="M15.9299 10.5996C16.3199 10.5996 16.5899 10.9696 16.4799 11.3396L15.3999 14.9996H18.2499L18.8399 14.2196C18.9399 14.0796 19.0999 13.9996 19.2699 13.9996C19.6299 13.9996 19.8899 14.3496 19.7899 14.6996L19.3999 15.9996L19.7899 17.2996C19.8899 17.6496 19.6299 17.9996 19.2699 17.9996C19.0999 17.9996 18.9399 17.9196 18.8399 17.7796L18.2499 16.9996H15.3999L16.4799 20.6596C16.5899 21.0296 16.3099 21.3996 15.9299 21.3996C15.7299 21.3996 15.5399 21.2896 15.4299 21.1196L12.9999 16.9996H10.0299C9.49994 16.9996 9.02994 16.5996 8.99994 16.0696C8.95994 15.4796 9.42994 14.9996 9.99994 14.9996H12.9999L15.4299 10.8796C15.5399 10.7096 15.7299 10.5996 15.9299 10.5996ZM8.06994 2.59961C7.67994 2.59961 7.40994 2.96961 7.51994 3.33961L8.59994 6.99961H5.74994L5.15994 6.21961C5.05994 6.07961 4.89994 5.99961 4.72994 5.99961C4.36994 5.99961 4.10994 6.34961 4.20994 6.69961L4.59994 7.99961L4.20994 9.29961C4.10994 9.64961 4.36994 9.99961 4.72994 9.99961C4.89994 9.99961 5.05994 9.91961 5.15994 9.77961L5.74994 8.99961H8.59994L7.51994 12.6596C7.40994 13.0296 7.68994 13.3996 8.06994 13.3996C8.26994 13.3996 8.45994 13.2896 8.56994 13.1196L10.9999 8.99961H13.9699C14.4999 8.99961 14.9699 8.59961 14.9999 8.06961C15.0399 7.47961 14.5699 6.99961 13.9999 6.99961H10.9999L8.56994 2.87961C8.45994 2.70961 8.26994 2.59961 8.06994 2.59961Z" fill="currentColor"/>
</svg>
