<svg  viewBox="0 0 24 24" fill="none" xmlns="http://www.w3.org/2000/svg">
<path d="M21.0075 18.4068L16.0675 13.4668L13.9475 15.5868L18.8875 20.5268C19.4775 21.1168 20.4275 21.1168 21.0075 20.5268C21.5875 19.9368 21.5875 18.9868 21.0075 18.4068Z" fill="currentColor"/>
<path d="M17.6675 10.4168C19.5975 10.4168 21.1675 8.8468 21.1675 6.9168C21.1675 6.3368 21.0075 5.7968 20.7575 5.3168L18.0575 8.0168L16.5675 6.5268L19.2675 3.8268C18.7875 3.5768 18.2475 3.4168 17.6675 3.4168C15.7375 3.4168 14.1675 4.9868 14.1675 6.9168C14.1675 7.3268 14.2475 7.7168 14.3775 8.0768L12.5275 9.9268L10.7475 8.1468C11.1375 7.7568 11.1375 7.1268 10.7475 6.7368L10.0375 6.0268L12.1575 3.9068C10.9875 2.7368 9.0875 2.7368 7.9175 3.9068L5.0975 6.7368C4.7075 7.1268 4.7075 7.7568 5.0975 8.1468L5.8075 8.8568H3.2675C3.0775 8.8568 2.8975 8.9268 2.7675 9.0668C2.4875 9.3468 2.4875 9.7868 2.7675 10.0668L5.3075 12.6068C5.5875 12.8868 6.0275 12.8868 6.3075 12.6068C6.4375 12.4768 6.5175 12.2968 6.5175 12.1068V9.5668L7.21749 10.2668C7.60749 10.6568 8.23749 10.6568 8.62749 10.2668L10.4075 12.0468L4.0575 18.3968C3.4675 18.9868 3.4675 19.9368 4.0575 20.5168C4.6475 21.1068 5.5975 21.1068 6.1775 20.5168L16.4975 10.2068C16.8675 10.3368 17.2575 10.4168 17.6675 10.4168Z" fill="currentColor"/>
</svg>
