<svg  viewBox="0 0 24 24" fill="none" xmlns="http://www.w3.org/2000/svg">
<path d="M4.20618 5.19922H6.20618V6.19922C6.20618 7.29922 7.10618 8.19922 8.20618 8.19922H14.2062C15.3062 8.19922 16.2062 7.29922 16.2062 6.19922V5.19922H18.2062V10.1992H20.2062V5.19922C20.2062 4.09922 19.3062 3.19922 18.2062 3.19922H14.0262C13.6062 2.03922 12.5062 1.19922 11.2062 1.19922C9.90618 1.19922 8.80618 2.03922 8.38618 3.19922H4.20618C3.10618 3.19922 2.20618 4.09922 2.20618 5.19922V19.1992C2.20618 20.2992 3.10618 21.1992 4.20618 21.1992H9.20618V19.1992H4.20618V5.19922ZM11.2062 3.19922C11.7562 3.19922 12.2062 3.64922 12.2062 4.19922C12.2062 4.74922 11.7562 5.19922 11.2062 5.19922C10.6562 5.19922 10.2062 4.74922 10.2062 4.19922C10.2062 3.64922 10.6562 3.19922 11.2062 3.19922Z" fill="currentColor"/>
<path d="M21.5062 21.0992L19.5062 19.0992C20.0862 18.0892 20.4562 16.8692 20.0162 15.4492C19.4862 13.7292 17.9762 12.3992 16.1762 12.2292C13.3062 11.9492 10.9462 14.2992 11.2262 17.1792C11.4062 18.9692 12.7262 20.4892 14.4462 21.0192C15.8762 21.4592 17.0862 21.0892 18.0962 20.5092L20.0962 22.5092C20.4862 22.8992 21.1062 22.8992 21.4962 22.5092C21.8862 22.1192 21.8962 21.4892 21.5062 21.0992ZM15.7062 19.1992C14.3062 19.1992 13.2062 18.0992 13.2062 16.6992C13.2062 15.2992 14.3062 14.1992 15.7062 14.1992C17.1062 14.1992 18.2062 15.2992 18.2062 16.6992C18.2062 18.0992 17.1062 19.1992 15.7062 19.1992Z" fill="currentColor"/>
</svg>
