<svg width="24" height="24" viewBox="0 0 24 24" fill="none" xmlns="http://www.w3.org/2000/svg">
<path d="M4.70874 6H6.70874V7C6.70874 8.1 7.60874 9 8.70874 9H14.7087C15.8087 9 16.7087 8.1 16.7087 7V6H18.7087V12H20.7087V6C20.7087 4.9 19.8087 4 18.7087 4H14.5287C14.1087 2.84 13.0087 2 11.7087 2C10.4087 2 9.30874 2.84 8.88874 4H4.70874C3.60874 4 2.70874 4.9 2.70874 6V20C2.70874 21.1 3.60874 22 4.70874 22H9.70874V20H4.70874V6ZM11.7087 4C12.2587 4 12.7087 4.45 12.7087 5C12.7087 5.55 12.2587 6 11.7087 6C11.1587 6 10.7087 5.55 10.7087 5C10.7087 4.45 11.1587 4 11.7087 4Z" fill="black"/>
<path d="M20.9987 17.29L18.4187 14.71C18.0287 14.32 17.3987 14.32 17.0087 14.71C16.6187 15.1 16.6187 15.73 17.0087 16.12L17.8787 17H12.7087C12.1587 17 11.7087 17.45 11.7087 18C11.7087 18.55 12.1587 19 12.7087 19H17.8787L17.0087 19.88C16.6187 20.27 16.6187 20.9 17.0087 21.29C17.3987 21.68 18.0287 21.68 18.4187 21.29L20.9987 18.71C21.3887 18.31 21.3887 17.68 20.9987 17.29Z" fill="black"/>
</svg>
