<svg width="24" height="24" viewBox="0 0 24 24" fill="none" xmlns="http://www.w3.org/2000/svg">
<path d="M21.0862 20.8933L4.10625 3.91332C3.71625 3.52332 3.08625 3.52332 2.69625 3.91332C2.30625 4.30332 2.30625 4.93332 2.69625 5.32332L3.59625 6.23332V19.4033C3.59625 20.5033 4.49625 21.4033 5.59625 21.4033H18.7662L19.6662 22.3033C20.0562 22.6933 20.6862 22.6933 21.0762 22.3033C21.4762 21.9133 21.4762 21.2833 21.0862 20.8933ZM5.59625 19.4033V8.23332L16.7662 19.4033H5.59625ZM17.5962 8.40332V5.40332H19.5962V16.5733L21.5962 18.5733V5.40332C21.5962 4.30332 20.6962 3.40332 19.5962 3.40332H15.4162C14.9962 2.24332 13.8962 1.40332 12.5962 1.40332C11.2962 1.40332 10.1962 2.24332 9.77625 3.40332H6.42625L11.4262 8.40332H17.5962ZM12.5962 3.40332C13.1462 3.40332 13.5962 3.85332 13.5962 4.40332C13.5962 4.95332 13.1462 5.40332 12.5962 5.40332C12.0462 5.40332 11.5962 4.95332 11.5962 4.40332C11.5962 3.85332 12.0462 3.40332 12.5962 3.40332Z" fill="black"/>
</svg>
