<svg  viewBox="0 0 24 24" fill="none" xmlns="http://www.w3.org/2000/svg">
<path d="M12 2C7.31 2 3.5 5.81 3.5 10.5C3.5 15.19 7.31 19 12 19H12.5V22C17.36 19.66 20.5 15 20.5 10.5C20.5 5.81 16.69 2 12 2ZM13 16.5H11V14.5H13V16.5ZM13.4 11.72C13.39 11.73 13.38 11.75 13.37 11.77C13.32 11.85 13.27 11.93 13.23 12.01C13.21 12.04 13.2 12.08 13.19 12.12C13.16 12.19 13.13 12.26 13.11 12.33C13.04 12.54 13.01 12.76 13.01 13.01H11C11 12.5 11.08 12.07 11.2 11.71C11.2 11.7 11.2 11.69 11.21 11.68C11.22 11.64 11.25 11.62 11.26 11.58C11.32 11.42 11.39 11.28 11.48 11.14C11.51 11.09 11.55 11.04 11.58 10.99C11.61 10.95 11.63 10.9 11.66 10.87L11.67 10.88C12.51 9.78 13.88 9.44 13.99 8.2C14.08 7.22 13.38 6.27 12.42 6.07C11.38 5.85 10.44 6.46 10.12 7.35C9.98 7.71 9.65 8 9.24 8H9.04C8.44 8 8 7.41 8.17 6.83C8.72 5.01 10.54 3.74 12.6 4.04C14.29 4.29 15.64 5.68 15.93 7.37C16.37 9.81 14.3 10.4 13.4 11.72Z" fill="currentColor"/>
</svg>
