<svg  viewBox="0 0 24 24" fill="none" xmlns="http://www.w3.org/2000/svg">
<path d="M21.269 10.9126C20.059 10.5826 18.959 9.45259 18.979 8.02259C18.989 7.46259 18.579 7.00259 18.019 7.01259C15.829 7.04259 13.999 5.23259 13.999 3.03259C13.999 2.54259 13.649 2.13259 13.159 2.07259C6.52902 1.23259 1.99902 6.82259 1.99902 12.0126C1.99902 17.5326 6.47902 22.0126 11.999 22.0126C17.609 22.0126 22.109 17.3926 21.999 11.8326C21.989 11.3926 21.689 11.0226 21.269 10.9126ZM8.49902 15.0126C7.66902 15.0126 6.99902 14.3426 6.99902 13.5126C6.99902 12.6826 7.66902 12.0126 8.49902 12.0126C9.32902 12.0126 9.99902 12.6826 9.99902 13.5126C9.99902 14.3426 9.32902 15.0126 8.49902 15.0126ZM10.499 10.0126C9.66902 10.0126 8.99902 9.34259 8.99902 8.51259C8.99902 7.68259 9.66902 7.01259 10.499 7.01259C11.329 7.01259 11.999 7.68259 11.999 8.51259C11.999 9.34259 11.329 10.0126 10.499 10.0126ZM14.999 16.0126C14.449 16.0126 13.999 15.5626 13.999 15.0126C13.999 14.4626 14.449 14.0126 14.999 14.0126C15.549 14.0126 15.999 14.4626 15.999 15.0126C15.999 15.5626 15.549 16.0126 14.999 16.0126Z" fill="currentColor"/>
</svg>
