<svg viewBox="0 0 24 24" fill="none" xmlns="http://www.w3.org/2000/svg">
<path d="M22.3929 13.19C22.7329 12.75 22.6429 12.12 22.2029 11.79L12.6029 4.46C12.2429 4.19 11.7429 4.19 11.3929 4.46L6.00286 8.58V8C6.00286 7.45 5.55286 7 5.00286 7C4.45286 7 4.00286 7.45 4.00286 8V10.11L1.79286 11.79C1.35286 12.12 1.27286 12.75 1.60286 13.19C1.94286 13.63 2.56286 13.71 3.00286 13.38L4.00286 12.62V21C4.00286 21.55 4.45286 22 5.00286 22H11.0029V17C11.0029 16.45 11.4529 16 12.0029 16C12.5529 16 13.0029 16.45 13.0029 17V22H19.0029C19.5529 22 20.0029 21.55 20.0029 21V12.62L20.9929 13.38C21.4329 13.72 22.0629 13.63 22.3929 13.19ZM5.27286 6C4.53286 6 4.01286 5.2 4.37286 4.55C4.89286 3.62 5.87286 3 7.00286 3C7.38286 3 7.72286 2.78 7.89286 2.47C8.04286 2.16 8.39286 2 8.73286 2C9.47286 2 9.99286 2.8 9.63286 3.45C9.11286 4.38 8.13286 5 7.00286 5C6.62286 5 6.28286 5.22 6.11286 5.53C5.96286 5.84 5.61286 6 5.27286 6Z" fill="currentColor"/>
</svg>
