<svg viewBox="0 0 24 24" fill="none" xmlns="http://www.w3.org/2000/svg">
<path d="M18 10.0019V7.17188C18 5.55188 16.78 4.09188 15.16 4.00188C13.95 3.94188 12.89 4.59188 12.36 5.57188C12.01 6.22188 12.53 7.00188 13.27 7.00188H13.28C13.62 7.00188 13.96 6.84188 14.12 6.54188C14.28 6.22188 14.62 6.00188 15 6.00188C15.55 6.00188 16 6.45188 16 7.00188V10.0019H8C9.1 10.0019 10 9.10188 10 8.00188V5.00188C10 4.45188 9.55 4.00188 9 4.00188H5C4.45 4.00188 4 4.45188 4 5.00188V8.00188C4 9.10188 4.9 10.0019 6 10.0019H3C2.45 10.0019 2 10.4519 2 11.0019C2 11.5519 2.45 12.0019 3 12.0019H4V19.0019C4 19.5519 4.45 20.0019 5 20.0019H19C19.55 20.0019 20 19.5519 20 19.0019V12.0019H21C21.55 12.0019 22 11.5519 22 11.0019C22 10.4519 21.55 10.0019 21 10.0019H18ZM13 18.0019H11V12.0019H13V18.0019Z" fill="currentColor"/>
</svg>
