<svg  viewBox="0 0 24 24" fill="none" xmlns="http://www.w3.org/2000/svg">
<path d="M20 3.20898H4C2.89 3.20898 2.01 4.09898 2.01 5.20898L2 17.209C2 18.319 2.89 19.209 4 19.209H8C8.55 19.209 9 18.759 9 18.209C9 17.659 8.55 17.209 8 17.209H4V11.209H22V5.20898C22 4.10898 21.1 3.20898 20 3.20898ZM20 7.20898H4V5.20898H20V7.20898ZM14.93 18.379L12.81 16.259C12.42 15.869 11.79 15.869 11.4 16.259C11.01 16.649 11.01 17.279 11.4 17.669L14.23 20.499C14.62 20.889 15.25 20.889 15.64 20.499L21.3 14.839C21.69 14.449 21.69 13.819 21.3 13.429C20.91 13.039 20.28 13.039 19.89 13.429L14.93 18.379Z" fill="currentColor"/>
</svg>
