<svg width="24" height="24" viewBox="0 0 24 24" fill="none" xmlns="http://www.w3.org/2000/svg">
<path d="M21.6406 20.48L3.26058 2.1C2.87058 1.71 2.24058 1.71 1.85058 2.1C1.45058 2.49 1.45058 3.11999 1.84058 3.50999L2.68058 4.35C2.54058 4.63 2.46058 4.95 2.46058 5.29L2.45058 17.29C2.45058 18.4 3.34058 19.29 4.45058 19.29H17.6206L20.2306 21.9C20.6206 22.29 21.2506 22.29 21.6406 21.9C22.0306 21.51 22.0306 20.87 21.6406 20.48ZM4.45058 11.29V7.29H5.62058L9.62058 11.29H4.45058ZM7.28058 3.29H20.4506C21.5606 3.29 22.4506 4.18 22.4506 5.29V17.29C22.4506 17.63 22.3706 17.95 22.2206 18.23L15.2806 11.29H20.4506V7.29H11.2806L7.28058 3.29Z" fill="black"/>
</svg>
