<svg viewBox="0 0 24 24" fill="none" xmlns="http://www.w3.org/2000/svg">
<path d="M18.3151 17.32C17.9551 16.96 17.3951 16.92 17.0051 17.24C16.6851 17.49 16.3551 17.72 16.0051 17.93V15H18.0051C19.1051 15 20.0051 14.1 20.0051 13V10C20.0051 8.9 19.1051 8 18.0051 8H12.0051V5C12.0051 3.9 11.1051 3 10.0051 3H7.99512C5.78512 3 3.99512 4.79 3.99512 7V13C3.99512 14.1 4.89512 15 5.99512 15H7.99512V17.93C7.64512 17.73 7.30512 17.5 6.99512 17.24C6.60512 16.92 6.03512 16.97 5.68512 17.32C5.26512 17.74 5.29512 18.44 5.76512 18.82C7.46512 20.18 9.63512 21 11.9951 21C14.3551 21 16.5251 20.18 18.2351 18.82C18.7051 18.44 18.7351 17.74 18.3151 17.32ZM13.9951 18.75C13.3551 18.91 12.6851 19 11.9951 19C11.3051 19 10.6351 18.91 9.99512 18.75V15H13.9951V18.75Z" fill="currentColor"/>
</svg>
