<svg viewBox="0 0 24 24" fill="none" xmlns="http://www.w3.org/2000/svg">
<path d="M16 8.99021V13.9902H18V7.99021C18 6.89021 17.1 5.99021 16 5.99021H10V7.99021H15C15.55 7.99021 16 8.44021 16 8.99021ZM19 15.9902H9.00003C8.45003 15.9902 8.00003 15.5402 8.00003 14.9902V4.99021C8.00003 4.44021 7.55003 3.99021 7.00003 3.99021C6.45003 3.99021 6.00003 4.44021 6.00003 4.99021V5.99021H5.00003C4.45003 5.99021 4.00003 6.44021 4.00003 6.99021C4.00003 7.54021 4.45003 7.99021 5.00003 7.99021H6.00003V15.9902C6.00003 17.0902 6.90003 17.9902 8.00003 17.9902H16V18.9902C16 19.5402 16.45 19.9902 17 19.9902C17.55 19.9902 18 19.5402 18 18.9902V17.9902H19C19.55 17.9902 20 17.5402 20 16.9902C20 16.4402 19.55 15.9902 19 15.9902ZM17.66 1.39021C15.99 0.500214 13.83 -0.119786 11.39 0.0302135L15.2 3.84021L16.53 2.51021C19.62 3.97021 21.87 6.88021 22.42 10.3702C22.48 10.7802 22.86 11.0602 23.28 10.9902C23.69 10.9302 23.97 10.5402 23.9 10.1302C23.3 6.33021 20.94 3.13021 17.66 1.39021ZM7.47003 21.4802C4.38002 20.0202 2.13003 17.1102 1.58003 13.6202C1.52003 13.2102 1.14003 12.9302 0.720026 13.0002C0.310026 13.0602 0.0300255 13.4502 0.100026 13.8602C0.700026 17.6702 3.06003 20.8702 6.34003 22.6102C8.01003 23.5002 10.17 24.1202 12.61 23.9702L8.80003 20.1502L7.47003 21.4802Z" fill="currentColor"/>
</svg>
