<svg viewBox="0 0 24 24" fill="none" xmlns="http://www.w3.org/2000/svg">
<path d="M17.3304 17.86C16.8604 17.62 16.3004 17.81 16.0204 18.26C15.6604 18.86 15.0504 19.25 14.1204 19.25H9.22036C10.0504 18.25 10.7204 16.91 10.7204 15.25C10.7204 14.9 10.6904 14.56 10.6404 14.25H13.1204C13.6704 14.25 14.1204 13.8 14.1204 13.25C14.1204 12.7 13.6704 12.25 13.1204 12.25H9.94036C9.12036 10.67 8.12036 9.85 8.12036 8.25C8.12036 6.32 9.69036 4.75 11.6204 4.75C12.8204 4.75 13.8804 5.36 14.5104 6.28C14.7804 6.68 15.2804 6.87 15.7304 6.68C16.3304 6.43 16.5304 5.69 16.1604 5.15C15.1704 3.7 13.5004 2.75 11.6204 2.75C8.58036 2.75 6.12036 5.21 6.12036 8.25C6.12036 10.03 6.91036 11.15 7.61036 12.25H7.12036C6.57036 12.25 6.12036 12.7 6.12036 13.25C6.12036 13.8 6.57036 14.25 7.12036 14.25H8.59036C8.67036 14.56 8.72036 14.89 8.72036 15.25C8.72036 17.15 7.43036 18.36 6.66036 18.91C6.32036 19.15 6.12036 19.54 6.12036 19.96C6.12036 20.67 6.70036 21.25 7.41036 21.25H14.1204C15.6704 21.25 17.0704 20.49 17.7504 19.25C18.0304 18.74 17.8404 18.11 17.3304 17.86Z" fill="currentColor"/>
</svg>
