<svg viewBox="0 0 24 24" fill="none" xmlns="http://www.w3.org/2000/svg">
<path d="M9.03955 15.84L7.56955 16.76C6.89955 17.18 6.03955 16.7 6.03955 15.91C6.03955 15.57 6.21955 15.25 6.50955 15.06L9.03955 13.48V11.12L7.56955 12.04C6.89955 12.46 6.03955 11.98 6.03955 11.19C6.03955 10.85 6.21955 10.53 6.50955 10.34L9.03955 8.76V4C9.03955 3.45 9.48955 3 10.0396 3C10.5896 3 11.0396 3.45 11.0396 4V7.51L13.5096 5.96C14.1796 5.54 15.0396 6.02 15.0396 6.81C15.0396 7.15 14.8596 7.47 14.5696 7.66L11.0396 9.87L11.0496 12.22L13.5096 10.68C14.1796 10.26 15.0396 10.74 15.0396 11.53C15.0396 11.87 14.8596 12.19 14.5696 12.38L11.0396 14.59V19C13.5096 19 15.5596 17.21 15.9696 14.85C16.0496 14.36 16.4596 14 16.9496 14C17.5596 14 18.0396 14.54 17.9496 15.14C17.4096 18.46 14.5196 21 11.0396 21H10.0396C9.48955 21 9.03955 20.55 9.03955 20V15.84Z" fill="currentColor"/>
</svg>
