<svg viewBox="0 0 24 24" fill="none" xmlns="http://www.w3.org/2000/svg">
<path d="M8.00152 21C8.55152 21 9.00152 20.55 9.00152 20V18H12.0015C12.5515 18 13.0015 17.55 13.0015 17C13.0015 16.45 12.5515 16 12.0015 16H9.00152V14H13.5015C16.7215 14 19.2915 11.24 18.9715 7.96C18.7015 5.1 16.1415 3 13.2615 3H8.00152C7.45152 3 7.00152 3.45 7.00152 4V12H6.00152C5.45152 12 5.00152 12.45 5.00152 13C5.00152 13.55 5.45152 14 6.00152 14H7.00152V16H6.00152C5.45152 16 5.00152 16.45 5.00152 17C5.00152 17.55 5.45152 18 6.00152 18H7.00152V20C7.00152 20.55 7.45152 21 8.00152 21ZM13.5015 12H9.00152V5H13.5015C15.4315 5 17.0015 6.57 17.0015 8.5C17.0015 10.43 15.4315 12 13.5015 12Z" fill="currentColor"/>
</svg>
