<svg width="24" height="24" viewBox="0 0 24 24" fill="none" xmlns="http://www.w3.org/2000/svg">
<path d="M11 10.9754H9C8.45 10.9754 8 11.4254 8 11.9754C8 12.5254 8.45 12.9754 9 12.9754H11V14.9754C11 15.5254 11.45 15.9754 12 15.9754C12.55 15.9754 13 15.5254 13 14.9754V12.9754H15C15.55 12.9754 16 12.5254 16 11.9754C16 11.4254 15.55 10.9754 15 10.9754H13V8.97539C13 8.42539 12.55 7.97539 12 7.97539C11.45 7.97539 11 8.42539 11 8.97539V10.9754ZM12 18.9754C8.13 18.9754 5 15.8454 5 11.9754C5 8.44539 7.61 5.54539 11 5.05539V2.02539C5.94 2.52539 2 6.78539 2 11.9754C2 17.4954 6.47 21.9754 11.99 21.9754C15.3 21.9754 18.23 20.3654 20.05 17.8854L17.45 16.3554C16.17 17.9554 14.21 18.9754 12 18.9754ZM13 2.02539V5.05539C16.39 5.54539 19 8.44539 19 11.9754C19 12.8754 18.82 13.7254 18.52 14.5154L21.12 16.0454C21.68 14.8054 22 13.4254 22 11.9754C22 6.79539 18.05 2.52539 13 2.02539Z" fill="black"/>
</svg>
