<svg  viewBox="0 0 24 24" fill="none" xmlns="http://www.w3.org/2000/svg">
<path d="M13.0012 3.69071V3.71071C13.0012 4.38071 13.4512 4.94071 14.0812 5.14071C16.9312 6.03071 19.0012 8.68071 19.0012 11.8207C19.0012 12.3407 18.9412 12.8307 18.8312 13.3107C18.6912 13.9507 18.9512 14.6107 19.5212 14.9507L19.5312 14.9607C20.3912 15.4607 21.5112 15.0107 21.7412 14.0507C21.9112 13.3307 22.0012 12.5807 22.0012 11.8207C22.0012 7.32071 19.0212 3.50071 14.9212 2.25071C13.9712 1.96071 13.0012 2.69071 13.0012 3.69071ZM10.9412 18.7407C7.95118 18.3107 5.52118 15.8807 5.08118 12.9007C4.54118 9.30071 6.74118 6.13071 9.91118 5.14071C10.5512 4.95071 11.0012 4.38071 11.0012 3.71071V3.69071C11.0012 2.69071 10.0312 1.96071 9.07118 2.25071C4.56118 3.63071 1.41118 8.11071 2.09118 13.2107C2.68118 17.5907 6.22118 21.1307 10.6012 21.7207C13.7412 22.1407 16.6412 21.1107 18.7312 19.1907C19.4712 18.5107 19.3412 17.3007 18.4712 16.8007C17.8912 16.4607 17.1712 16.5707 16.6712 17.0207C15.2012 18.3607 13.1612 19.0707 10.9412 18.7407Z" fill="currentColor"/>
</svg>
