<svg  viewBox="0 0 24 24" fill="none" xmlns="http://www.w3.org/2000/svg">
<path d="M20.4099 8.7807C20.8999 8.7807 21.0999 8.1507 20.6999 7.8707L13.1499 2.5807C12.4599 2.1007 11.5399 2.1007 10.8599 2.5807L3.29994 7.8707C2.89994 8.1507 3.09994 8.7807 3.58994 8.7807H10.9999V20.7807C10.9999 21.3307 11.4499 21.7807 11.9999 21.7807C12.5499 21.7807 12.9999 21.3307 12.9999 20.7807V8.7807H20.4099Z" fill="currentColor"/>
<path d="M7.99994 15.7807H4.89995L4.32994 12.7607C4.22994 12.2207 3.70994 11.8607 3.15994 11.9607C2.61994 12.0607 2.25994 12.5807 2.35994 13.1307L2.99994 16.5207V20.7807C2.99994 21.3307 3.44994 21.7807 3.99994 21.7807H4.00995C4.55995 21.7807 5.00995 21.3407 5.00995 20.7907L5.01994 17.7807H6.99994V20.7807C6.99994 21.3307 7.44994 21.7807 7.99994 21.7807C8.54994 21.7807 8.99994 21.3307 8.99994 20.7807V16.7807C8.99994 16.2307 8.54994 15.7807 7.99994 15.7807Z" fill="currentColor"/>
<path d="M20.8399 11.9607C20.2999 11.8607 19.7799 12.2207 19.6699 12.7607L19.0999 15.7807H15.9999C15.4499 15.7807 14.9999 16.2307 14.9999 16.7807V20.7807C14.9999 21.3307 15.4499 21.7807 15.9999 21.7807C16.5499 21.7807 16.9999 21.3307 16.9999 20.7807V17.7807H18.9799L18.9999 20.7907C18.9999 21.3407 19.4499 21.7807 19.9999 21.7807C20.5499 21.7807 20.9999 21.3307 20.9999 20.7807V16.5207L21.6399 13.1307C21.7399 12.5907 21.3799 12.0607 20.8399 11.9607Z" fill="currentColor"/>
</svg>
