<svg  viewBox="0 0 24 24" fill="none" xmlns="http://www.w3.org/2000/svg">
<path d="M17.3416 1.12801C14.4016 0.578014 11.7116 1.87801 10.2216 4.04801C10.2316 4.03801 10.2316 4.02801 10.2416 4.01801C9.84163 3.99801 9.42163 3.99801 9.00163 3.99801C4.58163 3.99801 1.00163 4.49801 1.00163 7.99801V17.998C1.00163 18.878 1.39163 19.668 2.00163 20.218V21.498C2.00163 22.328 2.67163 22.998 3.50163 22.998C4.33163 22.998 5.00163 22.328 5.00163 21.498V20.998H13.0016V21.498C13.0016 22.318 13.6716 22.998 14.5016 22.998C15.3216 22.998 16.0016 22.328 16.0016 21.498V20.218C16.6116 19.668 17.0016 18.878 17.0016 17.998V14.918C20.7216 14.378 23.5016 10.938 22.9216 6.94801C22.5016 4.04801 20.2216 1.65801 17.3416 1.12801ZM4.50163 18.998C3.67163 18.998 3.00163 18.328 3.00163 17.498C3.00163 16.668 3.67163 15.998 4.50163 15.998C5.33163 15.998 6.00163 16.668 6.00163 17.498C6.00163 18.328 5.33163 18.998 4.50163 18.998ZM3.00163 12.998V7.99801H9.00163C9.00163 9.95801 9.81163 11.728 11.1116 12.998H3.00163ZM13.5016 18.998C12.6716 18.998 12.0016 18.328 12.0016 17.498C12.0016 16.668 12.6716 15.998 13.5016 15.998C14.3316 15.998 15.0016 16.668 15.0016 17.498C15.0016 18.328 14.3316 18.998 13.5016 18.998ZM16.0016 12.998C13.2416 12.998 11.0016 10.758 11.0016 7.99801C11.0016 5.23801 13.2416 2.99801 16.0016 2.99801C18.7616 2.99801 21.0016 5.23801 21.0016 7.99801C21.0016 10.758 18.7616 12.998 16.0016 12.998ZM15.7516 3.99801C15.3416 3.99801 15.0016 4.33801 15.0016 4.74801V8.42801C15.0016 8.77801 15.1916 9.10801 15.4916 9.28801L18.0116 10.798C18.3516 10.998 18.7916 10.888 18.9916 10.558C19.2016 10.218 19.0916 9.76801 18.7416 9.56801L16.5016 8.24801V4.74801C16.5016 4.33801 16.1616 3.99801 15.7516 3.99801Z" fill="currentColor"/>
</svg>
