<svg width="28" height="29" viewBox="0 0 28 29" fill="none" xmlns="http://www.w3.org/2000/svg">
<g filter="url(#filter0_d_425_88255)">
<path d="M18.2387 11.5089L19.8087 9.93889L16.0587 6.18889L14.4887 7.75889L10.3487 3.62889C9.56875 2.84889 8.29875 2.84889 7.51875 3.62889L5.61875 5.52889C4.83875 6.30889 4.83875 7.57889 5.61875 8.35889L9.74875 12.4889L5.14875 17.0989C5.04875 17.1989 4.99875 17.3189 4.99875 17.4589V20.4989C4.99875 20.7789 5.21875 20.9989 5.49875 20.9989H8.53875C8.66875 20.9989 8.79875 20.9489 8.88875 20.8489L13.5087 16.2289L17.6387 20.3589C18.9587 21.6789 20.3987 20.4289 20.4687 20.3589L22.3687 18.4589C23.1488 17.6789 23.1488 16.4089 22.3687 15.6289L18.2387 11.5089ZM11.1787 11.0689L7.03875 6.93889L8.92875 5.03889L10.1987 6.30889L9.72875 6.79889C9.33875 7.18889 9.33875 7.81889 9.72875 8.20889C10.1187 8.59889 10.7487 8.59889 11.1387 8.20889L11.6187 7.72889L13.0687 9.17889L11.1787 11.0689ZM19.0587 18.9589L14.9287 14.8289L16.8287 12.9289L18.2787 14.3789L17.7987 14.8589C17.4087 15.2489 17.4087 15.8789 17.7987 16.2689C18.1887 16.6589 18.8187 16.6589 19.2087 16.2689L19.6887 15.7889L20.9587 17.0589L19.0587 18.9589Z" fill="currentColor"/>
<path d="M22.7087 7.03889C23.0987 6.64889 23.0987 6.01889 22.7087 5.62889L20.3687 3.28889C19.8987 2.81889 19.2487 2.99889 18.9587 3.28889L17.1287 5.11889L20.8787 8.86889L22.7087 7.03889Z" fill="currentColor"/>
</g>
<defs>
<filter id="filter0_d_425_88255" x="-2" y="0" width="32" height="32" filterUnits="userSpaceOnUse" color-interpolation-filters="sRGB">
<feFlood flood-opacity="0" result="BackgroundImageFix"/>
<feColorMatrix in="SourceAlpha" type="matrix" values="0 0 0 0 0 0 0 0 0 0 0 0 0 0 0 0 0 0 127 0" result="hardAlpha"/>
<feOffset dy="4"/>
<feGaussianBlur stdDeviation="2"/>
<feComposite in2="hardAlpha" operator="out"/>
<feColorMatrix type="matrix" values="0 0 0 0 0 0 0 0 0 0 0 0 0 0 0 0 0 0 0.25 0"/>
<feBlend mode="normal" in2="BackgroundImageFix" result="effect1_dropShadow_425_88255"/>
<feBlend mode="normal" in="SourceGraphic" in2="effect1_dropShadow_425_88255" result="shape"/>
</filter>
</defs>
</svg>
