<svg  viewBox="0 0 24 24" fill="none" xmlns="http://www.w3.org/2000/svg">
<path d="M0.806263 1.355C0.416263 1.745 0.416263 2.375 0.806263 2.765L1.49626 3.445V15.355C1.49626 16.455 2.39626 17.355 3.49626 17.355H10.4963V19.355H9.49626C8.94626 19.355 8.49626 19.805 8.49626 20.355C8.49626 20.905 8.94626 21.355 9.49626 21.355H15.4963C16.0463 21.355 16.4963 20.905 16.4963 20.355C16.4963 19.805 16.0463 19.355 15.4963 19.355H14.4963V17.355H15.3963L20.6863 22.645C21.0763 23.035 21.7063 23.035 22.0963 22.645C22.4863 22.255 22.4863 21.625 22.0963 21.235L2.21626 1.355C1.82626 0.965 1.19626 0.965 0.806263 1.355ZM3.48626 14.355V5.445L13.3963 15.355H4.48626C3.93626 15.355 3.48626 14.905 3.48626 14.355ZM5.04626 1.355L7.04626 3.355H20.4963C21.0463 3.355 21.4963 3.805 21.4963 4.355V14.355C21.4963 14.905 21.0463 15.355 20.4963 15.355H19.0463L21.0463 17.355H21.4863C22.5863 17.355 23.4863 16.455 23.4863 15.355V3.355C23.4863 2.255 22.5863 1.355 21.4863 1.355H5.04626Z" fill="currentColor"/>
</svg>
