<svg  viewBox="0 0 24 24" fill="none" xmlns="http://www.w3.org/2000/svg">
<path d="M7.00501 5H17.005V6C17.005 6.55 17.455 7 18.005 7C18.555 7 19.005 6.55 19.005 6V3C19.005 1.9 18.105 1.01 17.005 1.01L7.00501 1C5.90501 1 5.00501 1.9 5.00501 3V6C5.00501 6.55 5.45501 7 6.00501 7C6.55501 7 7.00501 6.55 7.00501 6V5ZM16.125 15.88L19.295 12.71C19.685 12.32 19.685 11.69 19.295 11.3L16.125 8.13C15.735 7.74 15.095 7.74 14.705 8.13C14.315 8.52 14.315 9.15 14.705 9.54L17.175 12L14.705 14.47C14.315 14.86 14.315 15.49 14.705 15.88C15.095 16.27 15.735 16.27 16.125 15.88ZM9.29501 14.46L6.83501 12L9.29501 9.54C9.68501 9.15 9.68501 8.52 9.29501 8.13C8.90501 7.74 8.26501 7.74 7.87501 8.13L4.70501 11.3C4.31501 11.69 4.31501 12.32 4.70501 12.71L7.87501 15.88C8.26501 16.27 8.90501 16.27 9.29501 15.88C9.69501 15.49 9.68501 14.85 9.29501 14.46ZM17.005 19H7.00501V18C7.00501 17.45 6.55501 17 6.00501 17C5.45501 17 5.00501 17.45 5.00501 18V21C5.00501 22.1 5.90501 23 7.00501 23H17.005C18.105 23 19.005 22.1 19.005 21V18C19.005 17.45 18.555 17 18.005 17C17.455 17 17.005 17.45 17.005 18V19Z" fill="currentColor"/>
</svg>
