<svg  viewBox="0 0 24 24" fill="none" xmlns="http://www.w3.org/2000/svg">
<path d="M8.28127 4.295H18.4513V14.465L20.2813 16.295H21.4513C22.0013 16.295 22.4513 15.845 22.4513 15.295C22.4513 14.745 22.0013 14.295 21.4513 14.295H20.4513V12.295H21.4513C22.0013 12.295 22.4513 11.845 22.4513 11.295C22.4513 10.745 22.0013 10.295 21.4513 10.295H20.4513V8.295H21.4513C22.0013 8.295 22.4513 7.845 22.4513 7.295C22.4513 6.745 22.0013 6.295 21.4513 6.295H20.4513V4.295C20.4513 3.195 19.5513 2.295 18.4513 2.295H6.28127L8.28127 4.295ZM15.4513 9.295H13.4513C13.3913 9.295 13.3213 9.285 13.2613 9.275L12.4713 8.485C12.4613 8.425 12.4513 8.355 12.4513 8.295V7.295C12.4513 6.745 12.9013 6.295 13.4513 6.295H15.4513C16.0013 6.295 16.4513 6.745 16.4513 7.295V8.295C16.4513 8.845 16.0013 9.295 15.4513 9.295ZM11.4513 7.295V7.465L10.2813 6.295H10.4513C11.0013 6.295 11.4513 6.745 11.4513 7.295ZM16.4513 11.295V12.465L14.2813 10.295H15.4513C16.0013 10.295 16.4513 10.745 16.4513 11.295ZM1.84127 2.105C1.45127 2.495 1.45127 3.125 1.84127 3.515L2.45127 4.125C2.45127 4.185 2.45127 4.235 2.45127 4.295V18.295C2.45127 19.395 3.35127 20.295 4.45127 20.295H18.4513C18.5113 20.295 18.5613 20.295 18.6113 20.285L20.2213 21.895C20.6113 22.285 21.2413 22.285 21.6313 21.895C22.0213 21.505 22.0213 20.875 21.6313 20.485L3.26127 2.105C2.87127 1.715 2.23127 1.715 1.84127 2.105ZM4.45127 18.295V6.125L6.45127 8.125V10.295C6.45127 10.845 6.90127 11.295 7.45127 11.295H9.62127L10.6413 12.315C10.5813 12.305 10.5113 12.295 10.4513 12.295H7.45127C6.90127 12.295 6.45127 12.745 6.45127 13.295V15.295C6.45127 15.845 6.90127 16.295 7.45127 16.295H10.4513C11.0013 16.295 11.4513 15.845 11.4513 15.295V13.295C11.4513 13.235 11.4413 13.165 11.4313 13.105L12.4513 14.125V15.295C12.4513 15.845 12.9013 16.295 13.4513 16.295H14.6313L16.6313 18.295H4.45127Z" fill="currentColor"/>
</svg>
