<svg  viewBox="0 0 24 24" fill="none" xmlns="http://www.w3.org/2000/svg">
<path d="M17 16.0012L13 12.0012V8.82121C14.35 8.33121 15.26 6.93121 14.93 5.36121C14.68 4.18121 13.7 3.24121 12.51 3.04121C10.63 2.73121 9 4.17121 9 6.00121C9 7.30121 9.84 8.40121 11 8.82121V12.0012L7 16.0012H4C3.45 16.0012 3 16.4512 3 17.0012V20.0012C3 20.5512 3.45 21.0012 4 21.0012H7C7.55 21.0012 8 20.5512 8 20.0012V17.9512L12 13.7512L16 17.9512V20.0012C16 20.5512 16.45 21.0012 17 21.0012H20C20.55 21.0012 21 20.5512 21 20.0012V17.0012C21 16.4512 20.55 16.0012 20 16.0012H17Z" fill="currentColor"/>
</svg>
