<svg width="24" height="24" viewBox="0 0 24 24" fill="none" xmlns="http://www.w3.org/2000/svg">
<path d="M16.4919 8.01318C16.7719 8.01318 16.9919 7.79318 16.9919 7.51318V3.51318C16.9919 3.23318 16.7719 3.01318 16.4919 3.01318C16.2119 3.01318 15.9919 3.23318 15.9919 3.51318V7.51318C15.9919 7.79318 16.2119 8.01318 16.4919 8.01318ZM12.4919 7.01318C12.2119 7.01318 11.9919 7.23318 11.9919 7.51318C11.9919 7.79318 12.2119 8.01318 12.4919 8.01318H14.4419C14.7419 8.01318 14.9919 7.76318 14.9919 7.46318V5.56318C14.9919 5.26318 14.7419 5.01318 14.4419 5.01318H12.9919V4.01318H14.4919C14.7719 4.01318 14.9919 3.79318 14.9919 3.51318C14.9919 3.23318 14.7719 3.01318 14.4919 3.01318H12.5419C12.2419 3.01318 11.9919 3.26318 11.9919 3.56318V5.45318C11.9919 5.76318 12.2419 6.01318 12.5419 6.01318H13.9919V7.01318H12.4919ZM20.4419 3.01318H18.5519C18.2419 3.01318 17.9919 3.26318 17.9919 3.56318V7.51318C17.9919 7.79318 18.2119 8.01318 18.4919 8.01318C18.7719 8.01318 18.9919 7.79318 18.9919 7.51318V6.01318H20.4419C20.7419 6.01318 20.9919 5.76318 20.9919 5.46318V3.56318C20.9919 3.26318 20.7419 3.01318 20.4419 3.01318ZM19.9919 5.01318H18.9919V4.01318H19.9919V5.01318ZM19.2019 15.2832L16.6619 14.9932C16.0519 14.9232 15.4519 15.1332 15.0219 15.5632L13.1819 17.4032C10.3519 15.9632 8.03185 13.6532 6.59185 10.8132L8.44185 8.96318C8.87185 8.53318 9.08185 7.92318 9.01185 7.32318L8.72185 4.80318C8.61185 3.79318 7.75185 3.02318 6.74185 3.02318H5.01185C3.88185 3.02318 2.94185 3.96318 3.01185 5.09318C3.54185 13.6332 10.3719 20.4532 18.9019 20.9832C20.0319 21.0532 20.9719 20.1132 20.9719 18.9832V17.2532C20.9819 16.2532 20.2119 15.3932 19.2019 15.2832Z" fill="black"/>
</svg>
