<svg  viewBox="0 0 24 24" fill="none" xmlns="http://www.w3.org/2000/svg">
<path d="M2.84982 19.85L3.84982 20.85C3.94982 20.95 4.06982 21 4.20982 21H19.7998C19.9298 21 20.0598 20.95 20.1498 20.85L21.1498 19.85C21.4598 19.54 21.2398 19 20.7998 19H3.20982C2.75982 19 2.53982 19.54 2.84982 19.85Z" fill="currentColor"/>
<path d="M2.99982 18H19.9698C20.2598 14.74 17.6898 12 14.4898 12C12.1398 12 10.1398 13.48 9.34982 15.55C8.93982 15.32 8.47982 15.17 7.99982 15.08V9H9.74982C10.9898 9 11.9998 7.99 11.9998 6.75H20.2498C20.6598 6.75 20.9998 6.41 20.9998 6C20.9998 5.59 20.6598 5.25 20.2498 5.25H11.9998C11.9998 4.01 10.9898 3 9.74982 3H3.74982C3.33982 3 2.99982 3.34 2.99982 3.75C2.99982 4.16 3.33982 4.5 3.74982 4.5H3.99982V5.25H3.74982C3.33982 5.25 2.99982 5.59 2.99982 6C2.99982 6.41 3.33982 6.75 3.74982 6.75H3.99982V7.5H3.74982C3.33982 7.5 2.99982 7.84 2.99982 8.25C2.99982 8.66 3.33982 9 3.74982 9H3.99982V16.39C3.55982 16.85 3.21982 17.39 2.99982 18ZM7.99982 4.5H9.99982V5.25H7.99982V4.5ZM7.99982 6.75H9.99982V7.5H7.99982V6.75ZM5.49982 4.5H6.49982V5.25H5.49982V4.5ZM5.49982 6.75H6.49982V7.5H5.49982V6.75ZM5.49982 9H6.49982V15.06C6.14982 15.12 5.81982 15.23 5.49982 15.36V9Z" fill="currentColor"/>
</svg>
