<svg  viewBox="0 0 24 24" fill="none" xmlns="http://www.w3.org/2000/svg">
<path d="M13 5.25C14.1 5.25 15 4.35 15 3.25C15 2.15 14.1 1.25 13 1.25C11.9 1.25 11 2.15 11 3.25C11 4.35 11.9 5.25 13 5.25ZM9.3 8.65L6.74 21.56C6.61 22.17 7.09 22.75 7.72 22.75H7.8C8.27 22.75 8.67 22.43 8.78 21.97L10.4 14.75L12.5 16.75V21.75C12.5 22.3 12.95 22.75 13.5 22.75C14.05 22.75 14.5 22.3 14.5 21.75V16.11C14.5 15.56 14.28 15.04 13.88 14.66L12.4 13.25L13 10.25C14.07 11.49 15.62 12.38 17.36 12.66C17.96 12.75 18.5 12.27 18.5 11.66C18.5 11.17 18.14 10.76 17.65 10.68C16.13 10.43 14.87 9.53 14.2 8.35L13.2 6.75C12.64 5.86 11.52 5.5 10.55 5.91L6.72 7.53C5.98 7.85 5.5 8.57 5.5 9.38V11.75C5.5 12.3 5.95 12.75 6.5 12.75C7.05 12.75 7.5 12.3 7.5 11.75V9.35L9.3 8.65Z" fill="currentColor"/>
</svg>
