<svg  viewBox="0 0 24 24" fill="none" xmlns="http://www.w3.org/2000/svg">
<path d="M12 2.5C8 2.5 4 3 4 6.5V16C4 16.95 4.38 17.81 5 18.44V20C5 20.83 5.67 21.5 6.5 21.5C7.33 21.5 8 20.83 8 20V19.5H16V20C16 20.82 16.67 21.5 17.5 21.5C18.32 21.5 19 20.83 19 20V18.44C19.62 17.81 20 16.95 20 16V6.5C20 3 16.42 2.5 12 2.5ZM8.5 16.5C7.67 16.5 7 15.83 7 15C7 14.17 7.67 13.5 8.5 13.5C9.33 13.5 10 14.17 10 15C10 15.83 9.33 16.5 8.5 16.5ZM15.5 16.5C14.67 16.5 14 15.83 14 15C14 14.17 14.67 13.5 15.5 13.5C16.33 13.5 17 14.17 17 15C17 15.83 16.33 16.5 15.5 16.5ZM18 10.5H6V7.5H18V10.5Z" fill="currentColor"/>
</svg>
