<svg viewBox="0 0 24 24" fill="none" xmlns="http://www.w3.org/2000/svg">
<path d="M21.8088 11.2007L12.8088 2.2007C12.4187 1.8107 11.7888 1.8107 11.3988 2.2007L8.30875 5.2907L13.0988 10.0807V7.4107L16.2487 10.5607C16.4487 10.7607 16.4487 11.0707 16.2487 11.2707L15.2688 12.2507L18.7188 15.7007L21.8088 12.6107C22.1887 12.2307 22.1887 11.6007 21.8088 11.2007Z" fill="currentColor"/>
<path d="M3.60875 3.4207C3.21875 3.0307 2.58875 3.0307 2.19875 3.4207C1.80875 3.8107 1.80875 4.4407 2.19875 4.8307L5.47875 8.1107L2.38875 11.2007C1.99875 11.5907 1.99875 12.2207 2.38875 12.6107L11.3888 21.6107C11.7788 22.0007 12.4087 22.0007 12.7987 21.6107L15.8888 18.5207L19.1687 21.8007C19.5587 22.1907 20.1887 22.1907 20.5787 21.8007C20.9687 21.4107 20.9687 20.7807 20.5787 20.3907L3.60875 3.4207ZM10.0887 13.9107C10.0887 14.4607 9.63875 14.9107 9.08875 14.9107C8.53875 14.9107 8.08875 14.4607 8.08875 13.9107V10.9107C8.08875 10.8607 8.10875 10.8107 8.11875 10.7607L10.0887 12.7307V13.9107Z" fill="currentColor"/>
</svg>
