<svg  viewBox="0 0 24 24" fill="none" xmlns="http://www.w3.org/2000/svg">
<path d="M12 2.5C8 2.5 4 3 4 6.5V16C4 17.93 5.57 19.5 7.5 19.5L6.29 20.31C6.11 20.43 6 20.63 6 20.85C6 21.21 6.29 21.5 6.65 21.5H17.35C17.71 21.5 18 21.21 18 20.85C18 20.63 17.89 20.43 17.71 20.31L16.5 19.5C18.43 19.5 20 17.93 20 16V6.5C20 3 16.42 2.5 12 2.5ZM12 16.5C11.17 16.5 10.5 15.83 10.5 15C10.5 14.17 11.17 13.5 12 13.5C12.83 13.5 13.5 14.17 13.5 15C13.5 15.83 12.83 16.5 12 16.5ZM18 10.5H6V7.5H18V10.5Z" fill="currentColor"/>
</svg>
