<svg viewBox="0 0 24 24" fill="none" xmlns="http://www.w3.org/2000/svg">
<path d="M17.2912 10.709V12.709H16.4112L20.7412 17.039C21.7212 15.499 22.2912 13.669 22.2912 11.709C22.2912 6.18898 17.8112 1.70898 12.2912 1.70898C10.3312 1.70898 8.50125 2.27898 6.96125 3.25898L14.4112 10.709H17.2912ZM21.4612 20.589L3.41125 2.53898C3.02125 2.14898 2.39125 2.14898 2.00125 2.53898C1.61125 2.92898 1.61125 3.55898 2.00125 3.94898L4.07125 6.01898C2.95125 7.63898 2.29125 9.59898 2.29125 11.709C2.29125 17.229 6.77125 21.709 12.2912 21.709C14.4012 21.709 16.3612 21.049 17.9712 19.929L20.0412 21.999C20.4312 22.389 21.0612 22.389 21.4512 21.999C21.8512 21.609 21.8512 20.979 21.4612 20.589ZM7.29125 12.709V10.709H8.75125L10.7512 12.709H7.29125Z" fill="currentColor"/>
</svg>
