<svg viewBox="0 0 24 24" fill="none" xmlns="http://www.w3.org/2000/svg">
<path d="M17.0963 10.9043V12.9043H15.9263L20.4363 17.4143C21.4863 15.8343 22.0963 13.9443 22.0963 11.9043C22.0963 6.3843 17.6163 1.9043 12.0963 1.9043C10.0563 1.9043 8.16631 2.5143 6.58631 3.5643L13.9263 10.9043H17.0963ZM2.19631 4.8343L3.75631 6.3943C2.38631 8.4643 1.75631 11.0743 2.27631 13.8443C3.02631 17.7943 6.19631 20.9743 10.1563 21.7243C12.9263 22.2443 15.5363 21.6243 17.6063 20.2443L19.1663 21.8043C19.5563 22.1943 20.1863 22.1943 20.5763 21.8043C20.9663 21.4143 20.9663 20.7843 20.5763 20.3943L3.60631 3.4143C3.21631 3.0243 2.58631 3.0243 2.19631 3.4143C1.80631 3.8143 1.80631 4.4443 2.19631 4.8343ZM7.09631 10.9043H8.26631L10.2663 12.9043H7.09631V10.9043Z" fill="currentColor"/>
</svg>
