<svg viewBox="0 0 24 24" fill="none" xmlns="http://www.w3.org/2000/svg">
<path d="M2.5175 3.00376C2.1275 3.39376 2.1275 4.02376 2.5175 4.41376L9.7075 11.6038C9.8875 11.8038 9.8875 12.1038 9.6975 12.3038C9.5975 12.4038 9.4675 12.4538 9.3475 12.4538C9.2275 12.4538 9.0875 12.4038 8.9975 12.3038L7.2875 10.5938C7.1775 10.9938 7.0275 11.3738 6.8375 11.7138L8.2375 13.1138C8.4375 13.3138 8.4375 13.6238 8.2375 13.8238C8.1375 13.9238 8.0075 13.9738 7.8875 13.9738C7.7675 13.9738 7.6275 13.9238 7.5375 13.8238L6.2675 12.5538C6.0275 12.8438 5.7675 13.1138 5.4975 13.3538L6.7775 14.6338C6.9775 14.8338 6.9775 15.1438 6.7775 15.3438C6.6775 15.4438 6.5475 15.4938 6.4175 15.4938C6.2875 15.4938 6.1575 15.4438 6.0675 15.3438L4.6875 13.9638C3.9775 14.4338 3.2575 14.7738 2.6675 15.0038C1.9075 15.3038 1.4175 16.0438 1.4175 16.8638V17.4938C1.4175 18.5938 2.3175 19.4938 3.4175 19.4938H10.0875C10.6175 19.4938 11.1275 19.2838 11.4975 18.9038L14.2375 16.1638L19.4675 21.3938C19.8575 21.7838 20.4875 21.7838 20.8775 21.3938C21.2675 21.0038 21.2675 20.3738 20.8775 19.9838L3.9275 3.00376C3.5375 2.61376 2.9075 2.61376 2.5175 3.00376ZM18.9275 15.1738L17.5175 13.7638L21.9975 9.28376C22.7775 10.0638 22.7775 11.3338 21.9975 12.1138L18.9275 15.1738ZM21.2975 8.57376L16.8175 13.0538L9.7175 5.96376L12.8075 2.89376C13.5875 2.11376 14.8475 2.12376 15.6275 2.89376L21.2975 8.57376Z" fill="currentColor"/>
</svg>
