<svg  viewBox="0 0 24 24" fill="none" xmlns="http://www.w3.org/2000/svg">
<path d="M1.50124 1.54982C1.11124 1.93982 1.11124 2.56982 1.50124 2.95982L2.79124 4.25982V18.1598C2.79124 19.2598 3.69124 20.1598 4.79124 20.1598H18.6912L20.9812 22.4498C21.3712 22.8398 22.0012 22.8398 22.3912 22.4498C22.7812 22.0598 22.7812 21.4298 22.3912 21.0398L2.91124 1.54982C2.52124 1.15982 1.89124 1.15982 1.50124 1.54982ZM6.79124 18.1598H4.79124V16.1598H6.79124V18.1598ZM6.79124 14.1598H4.79124V12.1598H6.79124V14.1598ZM4.79124 10.1598V8.15982H6.79124V10.1598H4.79124ZM10.7912 18.1598H8.79124V16.1598H10.7912V18.1598ZM8.79124 14.1598V12.1598H10.7912V14.1598H8.79124ZM12.7912 18.1598V16.1598H14.6912L16.6912 18.1598H12.7912ZM8.79124 4.15982H10.7912V6.15982H10.3412L12.7912 8.60982V8.15982H19.7912C20.3412 8.15982 20.7912 8.60982 20.7912 9.15982V16.6098L22.7912 18.6098V8.15982C22.7912 7.05982 21.8912 6.15982 20.7912 6.15982H12.7912V4.15982C12.7912 3.05982 11.8912 2.15982 10.7912 2.15982H6.34124L8.79124 4.60982V4.15982ZM16.7912 10.1598H18.7912V12.1598H16.7912V10.1598Z" fill="currentColor"/>
</svg>
