<svg width="24" height="24" viewBox="0 0 24 24" fill="none" xmlns="http://www.w3.org/2000/svg">
<path d="M17.265 6.00439C16.875 5.61439 16.245 5.61439 15.855 6.00439L10.215 11.6444L11.625 13.0544L17.265 7.40439C17.645 7.02439 17.645 6.38439 17.265 6.00439ZM21.505 5.99439L11.625 15.8744L8.14498 12.4044C7.75498 12.0144 7.12498 12.0144 6.73498 12.4044C6.34498 12.7944 6.34498 13.4244 6.73498 13.8144L10.915 17.9944C11.305 18.3844 11.935 18.3844 12.325 17.9944L22.915 7.41439C23.305 7.02439 23.305 6.39439 22.915 6.00439H22.905C22.525 5.60439 21.895 5.60439 21.505 5.99439ZM1.08498 13.8244L5.26498 18.0044C5.65498 18.3944 6.28498 18.3944 6.67498 18.0044L7.37498 17.3044L2.49498 12.4044C2.10498 12.0144 1.47498 12.0144 1.08498 12.4044C0.69498 12.7944 0.69498 13.4344 1.08498 13.8244Z" fill="black"/>
</svg>
