<svg width="24" height="24" viewBox="0 0 24 24" fill="none" xmlns="http://www.w3.org/2000/svg">
<path d="M20.4699 5.63505C20.8599 6.02505 20.8599 6.64505 20.4699 7.03505L9.12995 18.3751C8.73995 18.7651 8.11995 18.7651 7.72995 18.3751L3.52995 14.1751C3.13995 13.7851 3.13995 13.1651 3.52995 12.7751C3.91995 12.3851 4.53995 12.3851 4.92995 12.7751L8.42995 16.2751L19.07 5.63505C19.4599 5.24505 20.08 5.24505 20.4699 5.63505ZM18.36 3.51505L8.42995 13.4451L5.63995 10.6551C4.85995 9.87505 3.58995 9.87505 2.80995 10.6551L1.40995 12.0551C0.629951 12.8351 0.629951 14.1051 1.40995 14.8851L7.00995 20.4851C7.78995 21.2651 9.05995 21.2651 9.83995 20.4851L22.59 7.74505C23.37 6.96505 23.37 5.69505 22.59 4.91505L21.19 3.51505C20.4 2.73505 19.14 2.73505 18.36 3.51505Z" fill="black"/>
</svg>
