<svg  viewBox="0 0 24 24" fill="none" xmlns="http://www.w3.org/2000/svg">
<path d="M14.2526 5.3237C16.4426 6.0037 18.1826 7.7437 18.8626 9.9337C19.0526 10.5637 19.6226 11.0037 20.2726 11.0037H20.3126C21.3126 11.0037 22.0326 10.0437 21.7426 9.0937C20.7726 5.9137 18.2626 3.4037 15.0826 2.4337C14.1426 2.1437 13.1826 2.86369 13.1826 3.86369V3.90369C13.1826 4.56369 13.6226 5.1337 14.2526 5.3237ZM18.8626 14.0737C18.1826 16.2737 16.4426 18.0037 14.2526 18.6837C13.6226 18.8737 13.1826 19.4437 13.1826 20.0937V20.1337C13.1826 21.1337 14.1426 21.8537 15.0926 21.5637C18.2726 20.5937 20.7826 18.0837 21.7526 14.9037C22.0426 13.9537 21.3226 12.9937 20.3326 12.9937H20.2826C19.6226 13.0037 19.0526 13.4437 18.8626 14.0737ZM11.1826 20.1137C11.1826 19.4437 10.7326 18.8737 10.0926 18.6737C7.25262 17.7837 5.18262 15.1337 5.18262 12.0037C5.18262 8.87369 7.25262 6.22369 10.0926 5.33369C10.7326 5.13369 11.1826 4.56369 11.1826 3.89369V3.8837C11.1826 2.8837 10.2126 2.14369 9.25262 2.4437C5.16262 3.6937 2.18262 7.50369 2.18262 12.0037C2.18262 16.5037 5.16262 20.3137 9.25262 21.5637C10.2126 21.8637 11.1826 21.1237 11.1826 20.1137Z" fill="currentColor"/>
</svg>
