<svg width="24" height="24" viewBox="0 0 24 24" fill="none" xmlns="http://www.w3.org/2000/svg">
<path d="M10.8 3.64945L4.8 8.14945C4.3 8.52945 4 9.11945 4 9.74945V18.7495C4 19.8495 4.9 20.7495 6 20.7495H18C19.1 20.7495 20 19.8495 20 18.7495V9.74945C20 9.11945 19.7 8.52945 19.2 8.14945L13.2 3.64945C12.49 3.11945 11.51 3.11945 10.8 3.64945ZM12 17.2495C11.45 17.2495 11 16.7995 11 16.2495H13C13 16.7995 12.55 17.2495 12 17.2495ZM15.5 15.7495H8.5C8.22 15.7495 8 15.5295 8 15.2495C8 14.9695 8.22 14.7495 8.5 14.7495H9V12.4095C9 10.8695 9.82 9.58945 11.25 9.24945V8.99945C11.25 8.58945 11.59 8.24945 12 8.24945C12.41 8.24945 12.75 8.58945 12.75 8.99945V9.24945C14.19 9.58945 15 10.8695 15 12.4095V14.7495H15.5C15.78 14.7495 16 14.9695 16 15.2495C16 15.5295 15.78 15.7495 15.5 15.7495Z" fill="black"/>
</svg>
