<svg width="24" height="24" viewBox="0 0 24 24" fill="none" xmlns="http://www.w3.org/2000/svg">
<path d="M19.0837 11.42L15.0437 5.77C14.7037 5.29 14.1537 5 13.5637 5C12.0737 5 11.2137 6.68 12.0737 7.89L15.0037 12L12.0737 16.11C11.2037 17.32 12.0737 19 13.5637 19C14.1537 19 14.7137 18.71 15.0537 18.23L19.0937 12.58C19.3337 12.23 19.3337 11.77 19.0837 11.42Z" fill="black"/>
<path d="M12.0837 11.42L8.0537 5.77C7.7037 5.29 7.1537 5 6.5637 5C5.0737 5 4.2037 6.68 5.0737 7.89L8.0037 12L5.0737 16.11C4.2037 17.32 5.0737 19 6.5637 19C7.1537 19 7.7137 18.71 8.0537 18.23L12.0937 12.58C12.3337 12.23 12.3337 11.77 12.0837 11.42Z" fill="black"/>
</svg>
