<svg  viewBox="0 0 24 24" fill="none" xmlns="http://www.w3.org/2000/svg">
<path d="M17.4413 3.54512C16.5013 2.94512 15.4513 2.50512 14.3213 2.24512C13.7013 2.10512 13.1113 2.58512 13.1113 3.22512C13.1113 3.67512 13.4113 4.09512 13.8513 4.19512C14.7613 4.39512 15.6213 4.75512 16.3813 5.24512C16.7713 5.49512 17.2713 5.41512 17.6013 5.08512C18.0513 4.63512 17.9813 3.88512 17.4413 3.54512ZM20.8813 10.9951C21.5213 10.9951 22.0113 10.4051 21.8613 9.78512C21.6013 8.66512 21.1613 7.61512 20.5613 6.66512C20.2213 6.12512 19.4613 6.05512 19.0113 6.50512C18.6913 6.82512 18.6113 7.33512 18.8513 7.72512C19.3413 8.49512 19.7013 9.34512 19.9013 10.2551C20.0113 10.6951 20.4213 10.9951 20.8813 10.9951ZM19.0113 17.4851C19.4613 17.9351 20.2213 17.8651 20.5613 17.3351C21.1613 16.3951 21.6013 15.3451 21.8613 14.2251C22.0013 13.6051 21.5113 13.0151 20.8813 13.0151C20.4313 13.0151 20.0113 13.3151 19.9113 13.7551C19.7113 14.6651 19.3413 15.5151 18.8613 16.2851C18.6113 16.6551 18.6913 17.1651 19.0113 17.4851ZM13.1113 20.7651C13.1113 21.4051 13.7013 21.8951 14.3213 21.7451C15.4413 21.4851 16.4913 21.0451 17.4313 20.4451C17.9713 20.1051 18.0413 19.3451 17.5913 18.8951C17.2713 18.5751 16.7613 18.4951 16.3813 18.7451C15.6213 19.2351 14.7713 19.5951 13.8513 19.7951C13.4113 19.8951 13.1113 20.3051 13.1113 20.7651ZM13.1113 11.9951V7.99512C13.1113 7.44512 12.6613 6.99512 12.1113 6.99512C11.5613 6.99512 11.1113 7.44512 11.1113 7.99512V11.9951H9.52133C8.63133 11.9951 8.18133 13.0751 8.81133 13.7051L11.4013 16.2951C11.7913 16.6851 12.4213 16.6851 12.8113 16.2951L15.4013 13.7051C16.0313 13.0751 15.5813 11.9951 14.6913 11.9951H13.1113ZM11.1113 20.7651C11.1113 21.4051 10.5213 21.8951 9.90133 21.7551C5.44133 20.7451 2.11133 16.7651 2.11133 11.9951C2.11133 7.22512 5.44133 3.24512 9.90133 2.24512C10.5213 2.10512 11.1113 2.58512 11.1113 3.22512C11.1113 3.68512 10.8013 4.09512 10.3513 4.19512C6.78133 4.99512 4.11133 8.18512 4.11133 11.9951C4.11133 15.8051 6.78133 18.9951 10.3513 19.7951C10.8013 19.8951 11.1113 20.3051 11.1113 20.7651Z" fill="currentColor"/>
</svg>
