<svg  viewBox="0 0 24 24" fill="none" xmlns="http://www.w3.org/2000/svg">
<path d="M6 17.7172H18C18.55 17.7172 19 18.1672 19 18.7172C19 19.2672 18.55 19.7172 18 19.7172H6C5.45 19.7172 5 19.2672 5 18.7172C5 18.1672 5.45 17.7172 6 17.7172ZM11.01 13.6172C10.23 14.3872 8.97 14.3872 8.19 13.6072L6 11.4172C5.45 10.8672 5.46 9.97723 6.03 9.44723C6.57 8.92723 7.43 8.94723 7.95 9.46723L9.6 11.1172L16.03 4.68723C16.57 4.14723 17.44 4.14723 17.98 4.68723L18.02 4.72723C18.56 5.26723 18.56 6.14723 18.01 6.68723L11.01 13.6172Z" fill="currentColor"/>
</svg>
