<svg  viewBox="0 0 24 24" fill="none" xmlns="http://www.w3.org/2000/svg">
<path d="M18.6742 3.75C18.6742 4.85 17.7742 5.75 16.6742 5.75C15.5742 5.75 14.6742 4.85 14.6742 3.75C14.6742 2.65 15.5742 1.75 16.6742 1.75C17.7742 1.75 18.6742 2.65 18.6742 3.75ZM15.9542 20.15L16.7142 20.42C17.3342 20.63 17.9842 20.75 18.6742 20.75C19.3542 20.75 20.0142 20.63 20.6242 20.42C20.8942 20.33 21.1942 20.4 21.4042 20.6C21.7942 21 21.6342 21.66 21.1042 21.84C20.3442 22.11 19.5242 22.25 18.6742 22.25C17.8142 22.25 16.9942 22.11 16.2242 21.84L2.87422 16.97C2.48422 16.83 2.28422 16.4 2.42422 16.02C2.56422 15.63 2.99422 15.42 3.38422 15.57L9.57422 17.82L11.2942 13.38L7.72422 9.65C6.82422 8.71 7.04422 7.18 8.17422 6.53L11.6542 4.52C12.7542 3.88 14.1742 4.42 14.5642 5.63L14.8942 6.71C15.3342 8.13 16.3742 9.28 17.7242 9.85L18.0142 8.96C18.1442 8.57 18.5642 8.35 18.9542 8.48C19.3542 8.61 19.5642 9.03 19.4342 9.43L18.8342 11.28C18.6642 11.8 18.1142 12.1 17.5942 11.93C15.5742 11.3 13.9542 9.78 13.1742 7.83L10.6442 9.28L12.8742 11.83C13.3642 12.39 13.5042 13.17 13.2342 13.87L11.4542 18.5L14.5442 19.62L16.6442 13.18C17.1042 13.36 17.5842 13.49 18.0842 13.59L15.9542 20.15Z" fill="currentColor"/>
</svg>
