<svg  viewBox="0 0 24 24" fill="none" xmlns="http://www.w3.org/2000/svg">
<path d="M15 16.0015L11 20.0015H19C20.1 20.0015 21 19.1015 21 18.0015C21 16.9015 20.1 16.0015 19 16.0015H15Z" fill="currentColor"/>
<path d="M12.06 7.19152L3.29 15.9615C3.11 16.1415 3 16.4015 3 16.6615V19.0015C3 19.5515 3.45 20.0015 4 20.0015H6.34C6.61 20.0015 6.86 19.8915 7.05 19.7115L15.82 10.9415L12.06 7.19152Z" fill="currentColor"/>
<path d="M18.71 8.04152C19.1 7.65152 19.1 7.02152 18.71 6.63152L16.37 4.29152C15.98 3.90152 15.35 3.90152 14.96 4.29152L13.13 6.12152L16.88 9.87152L18.71 8.04152Z" fill="currentColor"/>
</svg>
