<svg viewBox="0 0 24 24" fill="none" xmlns="http://www.w3.org/2000/svg">
<path d="M2.43634 11.29C1.83634 11.86 1.49634 12.64 1.49634 13.47V19.5C1.49634 21.16 2.83634 22.5 4.49634 22.5H18.1763C18.8263 22.5 19.4263 22.03 19.4963 21.38C19.5763 20.63 18.9863 20 18.2563 20H12.9963C12.7163 20 12.4963 19.78 12.4963 19.5C12.4963 19.22 12.7163 19 12.9963 19H20.1763C20.8263 19 21.4263 18.53 21.4963 17.88C21.5763 17.13 20.9863 16.5 20.2563 16.5H12.9963C12.7163 16.5 12.4963 16.28 12.4963 16C12.4963 15.72 12.7163 15.5 12.9963 15.5H21.1763C21.8263 15.5 22.4263 15.03 22.4963 14.38C22.5763 13.63 21.9863 13 21.2563 13H12.9963C12.7163 13 12.4963 12.78 12.4963 12.5C12.4963 12.22 12.7163 12 12.9963 12H19.1763C19.8263 12 20.4263 11.53 20.4963 10.88C20.5763 10.13 19.9863 9.5 19.2563 9.5H9.35634L10.8463 6.89C10.9363 6.73 10.9863 6.56 10.9863 6.36C10.9863 6.1 10.8963 5.86 10.7263 5.66L10.3063 5.21C9.92634 4.82 9.29634 4.8 8.89634 5.18L2.43634 11.29ZM17.4863 7.57C17.4863 8.09 17.0663 8.5 16.5563 8.5C16.0363 8.5 15.6263 8.08 15.6263 7.57C15.6563 6.9 15.4063 6.24 14.9163 5.71L14.8463 5.65C13.9463 4.76 13.4663 3.62 13.5063 2.43C13.4963 1.92 13.9163 1.5 14.4263 1.5C14.9363 1.5 15.3563 1.92 15.3563 2.43C15.3263 3.1 15.5763 3.76 16.0663 4.29L16.1363 4.36C17.0463 5.24 17.5263 6.38 17.4863 7.57ZM21.4963 7.57C21.4963 8.08 21.0763 8.5 20.5563 8.5C20.0363 8.5 19.6263 8.08 19.6263 7.57C19.6563 6.9 19.4063 6.24 18.9163 5.71L18.8463 5.65C17.9463 4.76 17.4663 3.62 17.5063 2.43C17.5063 1.92 17.9263 1.5 18.4363 1.5C18.9463 1.5 19.3663 1.92 19.3663 2.43C19.3363 3.1 19.5863 3.76 20.0763 4.29L20.1463 4.36C21.0463 5.24 21.5263 6.38 21.4963 7.57Z" fill="currentColor"/>
</svg>
