<svg  viewBox="0 0 24 24" fill="none" xmlns="http://www.w3.org/2000/svg">
<path d="M19.56 11.3653L13 8.44527V7.00527C13 6.45527 12.55 6.00527 12 6.00527C11.45 6.00527 11 5.55527 11 5.00527C11 4.45527 11.45 4.00527 12 4.00527C12.38 4.00527 12.72 4.22527 12.88 4.53527C13.04 4.84527 13.39 5.00527 13.73 5.00527C14.47 5.00527 14.99 4.21527 14.64 3.56527C14.04 2.46527 12.78 1.78527 11.4 2.05527C10.23 2.28527 9.28 3.25527 9.06 4.42527C8.77 5.98527 9.67 7.35527 11 7.82527V8.45527L4.44 11.3753C3.56 11.7553 3 12.6253 3 13.5753V13.5853C3 14.9253 4.08 16.0053 5.42 16.0053H7V20.0053C7 21.1053 7.9 22.0053 9 22.0053H15C16.1 22.0053 17 21.1053 17 20.0053V16.0053H18.58C19.92 16.0053 21 14.9253 21 13.5853V13.5753C21 12.6253 20.44 11.7553 19.56 11.3653ZM18.58 14.0053H16.72C16.37 13.4053 15.74 13.0053 15 13.0053H9C8.26 13.0053 7.62 13.4053 7.28 14.0053H5.42C4.96 14.0053 4.84 13.3553 5.25 13.1953L12 10.1953L18.75 13.1953C19.17 13.3853 19.03 14.0053 18.58 14.0053Z" fill="currentColor"/>
</svg>
