<svg  viewBox="0 0 24 24" fill="none" xmlns="http://www.w3.org/2000/svg">
<path d="M21.8002 9.71L18.0802 17.9C17.8502 18.39 17.1202 18.23 17.1202 17.69V11H15.6202C15.3402 11 15.1202 10.78 15.1202 10.5V4.5C15.1202 4.22 15.3402 4 15.6202 4H21.3802C21.7302 4 21.9802 4.36 21.8402 4.69L20.1202 9H21.3402C21.7102 9 21.9502 9.38 21.8002 9.71ZM15.1202 13V20H4.12024C3.02024 20 2.12024 19.1 2.12024 18V15C2.12024 13.9 3.02024 13 4.12024 13H15.1202ZM6.37024 16.5C6.37024 16.09 6.03024 15.75 5.62024 15.75C5.21024 15.75 4.87024 16.09 4.87024 16.5C4.87024 16.91 5.21024 17.25 5.62024 17.25C6.03024 17.25 6.37024 16.91 6.37024 16.5ZM13.1202 4V11H4.12024C3.02024 11 2.12024 10.1 2.12024 9V6C2.12024 4.9 3.02024 4 4.12024 4H13.1202ZM6.37024 7.5C6.37024 7.09 6.03024 6.75 5.62024 6.75C5.21024 6.75 4.87024 7.09 4.87024 7.5C4.87024 7.91 5.21024 8.25 5.62024 8.25C6.03024 8.25 6.37024 7.91 6.37024 7.5Z" fill="currentColor"/>
</svg>
