<svg  viewBox="0 0 24 24" fill="none" xmlns="http://www.w3.org/2000/svg">
<path d="M15.4987 4C14.9487 4 14.4987 4.45 14.4987 5V11.9L16.4987 9.9V5C16.4987 4.45 16.0487 4 15.4987 4Z" fill="currentColor"/>
<path d="M3.49875 20C4.04875 20 4.49875 19.55 4.49875 19V5C4.49875 4.45 4.04875 4 3.49875 4C2.94875 4 2.49875 4.45 2.49875 5V19C2.49875 19.55 2.94875 20 3.49875 20Z" fill="currentColor"/>
<path d="M9.49875 8C10.0487 8 10.4987 7.55 10.4987 7V5C10.4987 4.45 10.0487 4 9.49875 4C8.94875 4 8.49875 4.45 8.49875 5V7C8.49875 7.55 8.94875 8 9.49875 8Z" fill="currentColor"/>
<path d="M9.49875 14C10.0487 14 10.4987 13.55 10.4987 13V11C10.4987 10.45 10.0487 10 9.49875 10C8.94875 10 8.49875 10.45 8.49875 11V13C8.49875 13.55 8.94875 14 9.49875 14Z" fill="currentColor"/>
<path d="M9.49875 20C10.0487 20 10.4987 19.55 10.4987 19V17C10.4987 16.45 10.0487 16 9.49875 16C8.94875 16 8.49875 16.45 8.49875 17V19C8.49875 19.55 8.94875 20 9.49875 20Z" fill="currentColor"/>
<path d="M21.0587 12.59L19.9087 11.44C19.3187 10.85 18.3687 10.85 17.7887 11.44L12.4987 16.73V19.5C12.4987 19.78 12.7187 20 12.9987 20H15.7687L21.0587 14.71C21.6487 14.12 21.6487 13.17 21.0587 12.59ZM15.0787 18.45H14.0487V17.42L17.4987 13.97L18.5287 15L15.0787 18.45Z" fill="currentColor"/>
</svg>
