<svg  viewBox="0 0 24 24" fill="none" xmlns="http://www.w3.org/2000/svg">
<path d="M13.9337 9.5C13.9337 10.05 13.4837 10.5 12.9337 10.5H3.93375C3.38375 10.5 2.93375 10.05 2.93375 9.5C2.93375 8.95 3.38375 8.5 3.93375 8.5H12.9337C13.4837 8.5 13.9337 8.95 13.9337 9.5ZM2.93375 5.5C2.93375 6.05 3.38375 6.5 3.93375 6.5H12.9337C13.4837 6.5 13.9337 6.05 13.9337 5.5C13.9337 4.95 13.4837 4.5 12.9337 4.5H3.93375C3.38375 4.5 2.93375 4.95 2.93375 5.5ZM9.93375 13.5C9.93375 12.95 9.48375 12.5 8.93375 12.5H3.93375C3.38375 12.5 2.93375 12.95 2.93375 13.5C2.93375 14.05 3.38375 14.5 3.93375 14.5H8.93375C9.48375 14.5 9.93375 14.05 9.93375 13.5ZM17.9437 11.37L18.6537 10.66C19.0437 10.27 19.6737 10.27 20.0637 10.66L20.7737 11.37C21.1637 11.76 21.1637 12.39 20.7737 12.78L20.0637 13.49L17.9437 11.37ZM17.2337 12.08L12.0737 17.24C11.9837 17.33 11.9337 17.45 11.9337 17.59V19C11.9337 19.28 12.1537 19.5 12.4337 19.5H13.8437C13.9737 19.5 14.1037 19.45 14.1937 19.35L19.3537 14.19L17.2337 12.08Z" fill="currentColor"/>
</svg>
