<svg  viewBox="0 0 24 24" fill="none" xmlns="http://www.w3.org/2000/svg">
<path d="M17.08 6.25L18.85 8.02L14.01 12.86C13.92 12.95 13.79 13 13.66 13H12.6C12.32 13 12.1 12.78 12.1 12.5V11.44C12.1 11.31 12.15 11.18 12.25 11.09L17.08 6.25ZM20.35 5.81L19.29 4.75C19.09 4.55 18.78 4.55 18.58 4.75L17.73 5.6L19.5 7.37L20.35 6.52C20.55 6.32 20.55 6 20.35 5.81ZM19.5 18C19.5 18.55 19.05 19 18.5 19H4.5C3.95 19 3.5 18.55 3.5 18C3.5 17.45 3.95 17 4.5 17H5.5V10C5.5 7.21 7.41 4.86 10 4.2V3.5C10 2.67 10.67 2 11.5 2C12.33 2 13 2.67 13 3.5V4.2C13.82 4.41 14.57 4.79 15.21 5.29L10.69 9.81C10.31 10.19 10.1 10.69 10.1 11.22V13C10.1 14.1 11 15 12.1 15H13.87C14.4 15 14.91 14.79 15.28 14.41L17.5 12.2V17H18.5C19.05 17 19.5 17.45 19.5 18ZM9.5 20H13.5C13.5 21.1 12.6 22 11.5 22C10.4 22 9.5 21.1 9.5 20Z" fill="currentColor"/>
</svg>
