<svg  viewBox="0 0 24 24" fill="none" xmlns="http://www.w3.org/2000/svg">
<path d="M13.0388 13.6666H9.49878C8.94878 13.6666 8.49878 13.2166 8.49878 12.6666V9.12656C8.49878 8.86656 8.60878 8.60656 8.78878 8.42656L14.1088 3.10656C13.2788 2.82656 12.3988 2.66656 11.4988 2.66656C7.29878 2.66656 3.49878 5.88656 3.49878 10.8666C3.49878 14.0466 5.93878 17.7866 10.8288 22.0866C11.2088 22.4166 11.7888 22.4166 12.1688 22.0866C17.0588 17.7866 19.4988 14.0366 19.4988 10.8666C19.4988 9.85656 19.3388 8.92656 19.0488 8.06656L13.7388 13.3766C13.5588 13.5566 13.2988 13.6666 13.0388 13.6666Z" fill="currentColor"/>
<path d="M10.4988 11.6666H12.6188L18.7788 5.50656L16.6588 3.38656L10.4988 9.54656V11.6666Z" fill="currentColor"/>
<path d="M20.2088 2.66656L19.4988 1.95656C19.1088 1.56656 18.4788 1.56656 18.0888 1.95656L17.3688 2.67656L19.4888 4.79656L20.2088 4.07656C20.5988 3.68656 20.5988 3.05656 20.2088 2.66656Z" fill="currentColor"/>
</svg>
