<svg  viewBox="0 0 24 24" fill="none" xmlns="http://www.w3.org/2000/svg">
<path d="M2.69497 2.91497C2.30497 3.30497 2.30497 3.93497 2.69497 4.32497L9.30497 10.935L3.74497 16.505C3.64497 16.605 3.59497 16.725 3.59497 16.865V19.905C3.59497 20.185 3.81497 20.405 4.09497 20.405H7.13497C7.26497 20.405 7.39497 20.355 7.48497 20.255L13.045 14.695L19.655 21.305C20.045 21.695 20.675 21.695 21.065 21.305C21.455 20.915 21.455 20.285 21.065 19.895L4.11497 2.91497C3.71497 2.52497 3.08497 2.52497 2.69497 2.91497Z" fill="currentColor"/>
<path d="M21.305 6.44497C21.695 6.05497 21.695 5.42497 21.305 5.03497L18.965 2.69497C18.575 2.30497 17.945 2.30497 17.555 2.69497L15.725 4.52497L19.475 8.27497L21.305 6.44497Z" fill="currentColor"/>
<path d="M14.6474 5.59743L12.1301 8.1147L15.8778 11.8623L18.395 9.34506L14.6474 5.59743Z" fill="currentColor"/>
</svg>
