<svg  viewBox="0 0 24 24" fill="none" xmlns="http://www.w3.org/2000/svg">
<path d="M10.9338 21.5H3.93378C2.82378 21.5 1.93378 20.6 1.93378 19.5L1.94378 5.5C1.94378 4.4 2.82378 3.5 3.93378 3.5H4.93378V2.5C4.93378 1.95 5.38378 1.5 5.93378 1.5C6.48378 1.5 6.93378 1.95 6.93378 2.5V3.5H14.9338V2.5C14.9338 1.95 15.3838 1.5 15.9338 1.5C16.4838 1.5 16.9338 1.95 16.9338 2.5V3.5H17.9338C19.0338 3.5 19.9338 4.4 19.9338 5.5V11.5H17.9338V9.5H3.93378V19.5H10.9338V21.5ZM21.0638 16.49L21.7738 15.78C22.1638 15.39 22.1638 14.76 21.7738 14.37L21.0638 13.66C20.6738 13.27 20.0438 13.27 19.6538 13.66L18.9438 14.37L21.0638 16.49ZM20.3538 17.2L15.3438 22.21C15.1638 22.39 14.9038 22.5 14.6438 22.5H13.4338C13.1538 22.5 12.9338 22.28 12.9338 22V20.79C12.9338 20.52 13.0438 20.27 13.2238 20.08L18.2338 15.07L20.3538 17.2Z" fill="currentColor"/>
</svg>
