<svg  viewBox="0 0 24 24" fill="none" xmlns="http://www.w3.org/2000/svg">
<path d="M12 2.16211C7.8 2.16211 4 5.38211 4 10.3621C4 13.5421 6.45 17.2821 11.34 21.5921C11.72 21.9221 12.29 21.9221 12.67 21.5921C17.55 17.2821 20 13.5421 20 10.3621C20 5.38211 16.2 2.16211 12 2.16211ZM9.73 13.6621H8.5V12.2221L12.43 8.30211L13.86 9.73211L10.09 13.5121C9.99 13.6121 9.87 13.6621 9.73 13.6621ZM15.28 8.32211L14.58 9.02211L13.14 7.58211L13.84 6.88211C13.99 6.73211 14.23 6.73211 14.38 6.88211L15.28 7.78211C15.43 7.93211 15.43 8.17211 15.28 8.32211Z" fill="currentColor"/>
</svg>
