<svg  viewBox="0 0 24 24" fill="none" xmlns="http://www.w3.org/2000/svg">
<path d="M10.5 3.25C10.5 2.15 11.4 1.25 12.5 1.25C13.6 1.25 14.5 2.15 14.5 3.25C14.5 4.35 13.6 5.25 12.5 5.25C11.4 5.25 10.5 4.35 10.5 3.25ZM17.53 10.75C15.96 10.76 14.59 9.85 13.93 8.54L13.14 6.87C12.97 6.52 12.7 6.22 12.34 6.02C11.72 5.66 10.99 5.68 10.4 5.99V5.98L6.01 8.48C5.39 8.83 5 9.49 5 10.21V12.75C5 13.3 5.45 13.75 6 13.75C6.55 13.75 7 13.3 7 12.75V10.21L8.5 9.36C8.18 10.46 8 11.6 8 12.75V18.08L6 20.75C5.67 21.19 5.76 21.82 6.2 22.15C6.64 22.48 7.27 22.39 7.6 21.95L9.64 19.23C9.87 18.92 10.01 18.54 10.04 18.15L10.22 15.21L12 17.75V21.75C12 22.3 12.45 22.75 13 22.75C13.55 22.75 14 22.3 14 21.75V16.88C14 16.47 13.87 16.07 13.64 15.73L12.04 13.44C12.04 13.44 12.04 13.44 12.04 13.43C11.93 12.27 12.11 11.11 12.5 10.03C13.31 11.26 14.55 12.17 16.01 12.55V12.75C16.01 13.03 16.23 13.25 16.51 13.25C16.79 13.25 17 13.03 17 12.75V12.25C17 11.97 17.22 11.75 17.5 11.75C17.78 11.75 18 11.97 18 12.25V22.25C18 22.53 18.22 22.75 18.5 22.75C18.78 22.75 19 22.53 19 22.25V12.25C19 11.43 18.34 10.74 17.53 10.75Z" fill="currentColor"/>
</svg>
