<svg  viewBox="0 0 24 24" fill="none" xmlns="http://www.w3.org/2000/svg">
<path d="M9.91624 5H3.91624C3.36624 5 2.91624 5.45 2.91624 6C2.91624 6.55 3.36624 7 3.91624 7H5.91624V10C5.91624 10.55 6.36625 11 6.91624 11C7.46625 11 7.91624 10.55 7.91624 10V7H9.91624C10.4662 7 10.9162 6.55 10.9162 6C10.9162 5.45 10.4662 5 9.91624 5Z" fill="currentColor"/>
<path d="M9.91624 2H3.91624C3.36624 2 2.91624 2.45 2.91624 3C2.91624 3.55 3.36624 4 3.91624 4H9.91624C10.4662 4 10.9162 3.55 10.9162 3C10.9162 2.45 10.4662 2 9.91624 2Z" fill="currentColor"/>
<path d="M20.8062 13.11C20.4162 12.72 19.7862 12.72 19.3962 13.11L13.0362 19.47C12.6462 19.86 12.6462 20.49 13.0362 20.88C13.4262 21.27 14.0562 21.27 14.4462 20.88L20.8062 14.52C21.1962 14.13 21.1962 13.5 20.8062 13.11Z" fill="currentColor"/>
<path d="M14.4162 16C15.2447 16 15.9162 15.3284 15.9162 14.5C15.9162 13.6716 15.2447 13 14.4162 13C13.5878 13 12.9162 13.6716 12.9162 14.5C12.9162 15.3284 13.5878 16 14.4162 16Z" fill="currentColor"/>
<path d="M19.4162 21C20.2447 21 20.9162 20.3284 20.9162 19.5C20.9162 18.6716 20.2447 18 19.4162 18C18.5878 18 17.9162 18.6716 17.9162 19.5C17.9162 20.3284 18.5878 21 19.4162 21Z" fill="currentColor"/>
<path d="M15.4162 11C16.7962 11 17.9162 9.88 17.9162 8.5V4H19.9162C20.4662 4 20.9162 3.55 20.9162 3C20.9162 2.45 20.4662 2 19.9162 2H17.9162C17.3662 2 16.9162 2.45 16.9162 3V6.51C16.4962 6.19 15.9862 6 15.4162 6C14.0362 6 12.9162 7.12 12.9162 8.5C12.9162 9.88 14.0362 11 15.4162 11Z" fill="currentColor"/>
<path d="M10.3662 18.09C10.7562 17.7 10.7562 17.07 10.3662 16.68C9.97624 16.29 9.34624 16.29 8.95624 16.68L8.24624 17.39L7.53624 16.68L7.88624 16.33C8.86624 15.35 8.86624 13.77 7.88624 12.79C7.39625 12.3 6.75624 12.06 6.11624 12.06C5.47624 12.06 4.83624 12.3 4.34624 12.79C3.36624 13.77 3.36624 15.35 4.34624 16.33L4.69625 16.68L3.63625 17.74C2.65625 18.72 2.65625 20.3 3.63625 21.28C4.13625 21.76 4.77624 22 5.41624 22C6.05624 22 6.69624 21.76 7.18624 21.27L8.24624 20.21L8.95624 20.92C9.34624 21.31 9.97624 21.31 10.3662 20.92C10.7562 20.53 10.7562 19.9 10.3662 19.51L9.65624 18.8L10.3662 18.09ZM5.76624 14.2C5.88624 14.08 6.02624 14.05 6.11624 14.05C6.20624 14.05 6.34625 14.08 6.46625 14.2C6.65625 14.4 6.65625 14.71 6.46625 14.91L6.11624 15.26L5.76624 14.9C5.64625 14.78 5.61624 14.64 5.61624 14.55C5.61624 14.46 5.64625 14.32 5.76624 14.2ZM5.76624 19.85C5.64625 19.97 5.50624 20 5.41624 20C5.32625 20 5.18624 19.97 5.06625 19.85C4.94625 19.73 4.91624 19.59 4.91624 19.5C4.91624 19.41 4.94625 19.27 5.06625 19.15L6.12625 18.09L6.83625 18.8L5.76624 19.85Z" fill="currentColor"/>
</svg>
