<svg  viewBox="0 0 24 24" fill="none" xmlns="http://www.w3.org/2000/svg">
<path d="M12.0016 2.5C11.5416 2.5 11.0716 2.54 10.6016 2.64C7.84162 3.17 5.64162 5.4 5.12162 8.16C4.64162 10.77 5.60162 13.17 7.34162 14.72C7.77162 15.1 8.00162 15.63 8.00162 16.19V18.5C8.00162 19.6 8.90162 20.5 10.0016 20.5H10.2816C10.6316 21.1 11.2616 21.5 12.0016 21.5C12.7416 21.5 13.3816 21.1 13.7216 20.5H14.0016C15.1016 20.5 16.0016 19.6 16.0016 18.5V16.19C16.0016 15.64 16.2216 15.1 16.6416 14.73C18.0916 13.45 19.0016 11.58 19.0016 9.5C19.0016 5.63 15.8716 2.5 12.0016 2.5ZM12.5016 13.5H11.5016V10.91L9.67162 9.09L10.3816 8.38L12.0016 10L13.6216 8.38L14.3316 9.09L12.5016 10.92V13.5ZM13.5016 18.5C13.4916 18.5 13.4816 18.49 13.4716 18.49V18.5H10.5316V18.49C10.5216 18.49 10.5116 18.5 10.5016 18.5C10.2216 18.5 10.0016 18.28 10.0016 18C10.0016 17.72 10.2216 17.5 10.5016 17.5C10.5116 17.5 10.5216 17.51 10.5316 17.51V17.5H13.4716V17.51C13.4816 17.51 13.4916 17.5 13.5016 17.5C13.7816 17.5 14.0016 17.72 14.0016 18C14.0016 18.28 13.7816 18.5 13.5016 18.5ZM13.5016 16.5H10.5016C10.2216 16.5 10.0016 16.28 10.0016 16C10.0016 15.72 10.2216 15.5 10.5016 15.5H13.5016C13.7816 15.5 14.0016 15.72 14.0016 16C14.0016 16.28 13.7816 16.5 13.5016 16.5Z" fill="currentColor"/>
</svg>
