<svg viewBox="0 0 24 24" fill="none" xmlns="http://www.w3.org/2000/svg">
<path d="M18 8.5H17V6.5C17 3.74 14.76 1.5 12 1.5C9.24 1.5 7 3.74 7 6.5V8.5H6C4.9 8.5 4 9.4 4 10.5V20.5C4 21.6 4.9 22.5 6 22.5H18C19.1 22.5 20 21.6 20 20.5V10.5C20 9.4 19.1 8.5 18 8.5ZM8.9 6.5C8.9 4.79 10.29 3.4 12 3.4C13.71 3.4 15.1 4.79 15.1 6.5V8.5H8.9V6.5ZM15 16.5H13V18.5C13 19.05 12.55 19.5 12 19.5C11.45 19.5 11 19.05 11 18.5V16.5H9C8.45 16.5 8 16.05 8 15.5C8 14.95 8.45 14.5 9 14.5H11V12.5C11 11.95 11.45 11.5 12 11.5C12.55 11.5 13 11.95 13 12.5V14.5H15C15.55 14.5 16 14.95 16 15.5C16 16.05 15.55 16.5 15 16.5Z" fill="currentColor"/>
</svg>
