<svg viewBox="0 0 24 24" fill="none" xmlns="http://www.w3.org/2000/svg">
<path d="M7 2C8.1 2 9 2.9 9 4C9 5.1 8.1 6 7 6C5.9 6 5 5.1 5 4C5 2.9 5.9 2 7 2ZM16 9.5C16 10.33 16.67 11 17.5 11C18.33 11 19 10.33 19 9.5C19 8.67 18.33 8 17.5 8C16.67 8 16 8.67 16 9.5ZM19 12H16.16C15.58 12.01 15.02 12.32 14.71 12.86L13.79 14.18L10.22 8C9.85 7.37 9.19 7.01 8.51 7H5.5C4.4 7 3.5 7.9 3.5 9V14C3.5 14.55 3.95 15 4.5 15H5V21C5 21.55 5.45 22 6 22H9C9.55 22 10 21.55 10 21V11.61L12.24 15.5C12.42 15.81 12.75 16 13.11 16H14.21C14.54 16 14.84 15.84 15.03 15.57L15.5 14.9V21C15.5 21.55 15.95 22 16.5 22H18.5C19.05 22 19.5 21.55 19.5 21V17C20.05 17 20.5 16.55 20.5 16V13.5C20.5 12.68 19.83 12 19 12Z" fill="currentColor"/>
</svg>
