<svg viewBox="0 0 24 24" fill="none" xmlns="http://www.w3.org/2000/svg">
<path d="M15.5152 18.5C13.0052 18.5 10.8352 17.08 9.75521 15H14.8952C15.2752 15 15.6252 14.79 15.7852 14.45C16.1152 13.79 15.6352 13 14.8952 13H9.09521C9.04521 12.67 9.01521 12.34 9.01521 12C9.01521 11.66 9.04521 11.33 9.09521 11H14.8952C15.2752 11 15.6252 10.79 15.7852 10.45C16.1252 9.78 15.6452 9 14.8952 9H9.75521C10.8352 6.92 13.0152 5.5 15.5152 5.5C16.7652 5.5 17.9352 5.86 18.9352 6.47C19.4352 6.78 20.0852 6.73 20.5052 6.31C21.0852 5.73 20.9552 4.78 20.2552 4.35C18.8752 3.5 17.2452 3 15.5152 3C11.5952 3 8.27521 5.51 7.03521 9H4.13521C3.75521 9 3.40521 9.21 3.23521 9.55C2.90521 10.22 3.38521 11 4.13521 11H6.57521C6.53521 11.33 6.51521 11.66 6.51521 12C6.51521 12.34 6.53521 12.67 6.57521 13H4.13521C3.75521 13 3.40521 13.21 3.24521 13.55C2.90521 14.22 3.38521 15 4.13521 15H7.03521C8.27521 18.49 11.5952 21 15.5152 21C17.2552 21 18.8752 20.51 20.2552 19.65C20.9452 19.22 21.0752 18.26 20.4952 17.68C20.0752 17.26 19.4252 17.21 18.9252 17.53C17.9352 18.15 16.7752 18.5 15.5152 18.5Z" fill="currentColor"/>
</svg>
