<svg  viewBox="0 0 24 24" fill="none" xmlns="http://www.w3.org/2000/svg">
<path d="M19.52 7.22805L19.53 7.21805L16.34 4.02805C16.05 3.73805 15.57 3.73805 15.28 4.02805C14.99 4.31805 14.99 4.79805 15.28 5.08805L16.86 6.66805C15.81 7.06805 15.1 8.13805 15.28 9.37805C15.44 10.478 16.38 11.368 17.48 11.488C17.95 11.538 18.36 11.458 18.75 11.288V18.498C18.75 19.048 18.3 19.498 17.75 19.498C17.2 19.498 16.75 19.048 16.75 18.498V13.998C16.75 12.898 15.85 11.998 14.75 11.998H13.75V4.99805C13.75 3.89805 12.85 2.99805 11.75 2.99805H5.75C4.65 2.99805 3.75 3.89805 3.75 4.99805V19.998C3.75 20.548 4.2 20.998 4.75 20.998H12.75C13.3 20.998 13.75 20.548 13.75 19.998V13.498H15.25V18.358C15.25 19.668 16.19 20.858 17.49 20.988C18.99 21.138 20.25 19.968 20.25 18.498V8.99805C20.25 8.30805 19.97 7.67805 19.52 7.22805ZM17.75 9.99805C17.2 9.99805 16.75 9.54805 16.75 8.99805C16.75 8.44805 17.2 7.99805 17.75 7.99805C18.3 7.99805 18.75 8.44805 18.75 8.99805C18.75 9.54805 18.3 9.99805 17.75 9.99805ZM7.75 16.118V13.498H6.58C6.2 13.498 5.96 13.098 6.14 12.758L8.81 7.75805C9.05 7.30805 9.75 7.47805 9.75 7.99805V10.998H10.89C11.27 10.998 11.51 11.408 11.32 11.748L8.68 16.368C8.43 16.808 7.75 16.628 7.75 16.118Z" fill="currentColor"/>
</svg>
