<svg viewBox="0 0 24 24" fill="none" xmlns="http://www.w3.org/2000/svg">
<path d="M16 11H8C7.45 11 7 11.45 7 12C7 12.55 7.45 13 8 13H16C16.55 13 17 12.55 17 12C17 11.45 16.55 11 16 11ZM19 4H18V3C18 2.45 17.55 2 17 2C16.45 2 16 2.45 16 3V4H8V3C8 2.45 7.55 2 7 2C6.45 2 6 2.45 6 3V4H5C3.89 4 3 4.9 3 6V20C3 21.1 3.89 22 5 22H19C20.1 22 21 21.1 21 20V6C21 4.9 20.1 4 19 4ZM18 20H6C5.45 20 5 19.55 5 19V9H19V19C19 19.55 18.55 20 18 20ZM13 15H8C7.45 15 7 15.45 7 16C7 16.55 7.45 17 8 17H13C13.55 17 14 16.55 14 16C14 15.45 13.55 15 13 15Z" fill="currentColor"/>
</svg>
