<svg  viewBox="0 0 24 24" fill="none" xmlns="http://www.w3.org/2000/svg">
<path d="M18.0007 5.99866L15.0907 12.2587L20.3407 17.5087C21.3907 15.9287 22.0007 14.0387 22.0007 11.9987C22.0007 6.47866 17.5207 1.99866 12.0007 1.99866C9.96067 1.99866 8.07067 2.60866 6.49067 3.65866L11.7407 8.90866L18.0007 5.99866ZM2.81067 5.63866L3.66067 6.48866C2.29067 8.55866 1.66067 11.1687 2.18067 13.9387C2.93067 17.8887 6.10067 21.0687 10.0607 21.8187C12.8307 22.3387 15.4407 21.7187 17.5107 20.3387L18.3607 21.1887C18.7507 21.5787 19.3807 21.5787 19.7707 21.1887C20.1607 20.7987 20.1607 20.1687 19.7707 19.7787L4.22067 4.21866C3.83067 3.82866 3.20067 3.82866 2.81067 4.21866C2.42067 4.60866 2.42067 5.24866 2.81067 5.63866ZM8.91067 11.7387L12.2607 15.0887L6.00067 17.9987L8.91067 11.7387Z" fill="currentColor"/>
</svg>
