<svg width="24" height="24" viewBox="0 0 24 24" fill="none" xmlns="http://www.w3.org/2000/svg">
<path d="M20.3363 22.0538C19.9463 22.4438 19.3163 22.4438 18.9263 22.0538L18.0063 21.1338C17.9463 21.1338 17.8963 21.1538 17.8463 21.1538H14.0463C14.0463 18.4438 11.8863 18.1538 11.3463 18.1538C10.8063 18.1538 8.64631 18.4438 8.64631 21.1538H4.84631C3.74631 21.1538 2.84631 20.2538 2.84631 19.1538V15.3538C5.55631 15.3538 5.84631 13.1938 5.84631 12.6538C5.84631 12.1138 5.54631 9.95381 2.85631 9.95381V6.15381C2.85631 6.10381 2.87631 6.06381 2.87631 6.01381L1.94631 5.08381C1.55631 4.69381 1.55631 4.06381 1.94631 3.67381C2.33631 3.28381 2.96631 3.28381 3.35631 3.67381L20.3263 20.6438C20.7263 21.0338 20.7263 21.6638 20.3363 22.0538ZM19.8463 17.3238V15.1538C21.2263 15.1538 22.3463 14.0338 22.3463 12.6538C22.3463 11.2738 21.2263 10.1538 19.8463 10.1538V6.15381C19.8463 5.05381 18.9463 4.15381 17.8463 4.15381H13.8463C13.8463 2.77381 12.7263 1.65381 11.3463 1.65381C9.96631 1.65381 8.84631 2.77381 8.84631 4.15381H6.67631L19.8463 17.3238Z" fill="black"/>
</svg>
