<svg viewBox="0 0 24 24" fill="none" xmlns="http://www.w3.org/2000/svg">
<path d="M21.8586 4.20113L20.4486 3.55113L19.7986 2.14113C19.6186 1.75113 19.0686 1.75113 18.8886 2.14113L18.2486 3.55113L16.8386 4.20113C16.4486 4.38113 16.4486 4.93113 16.8386 5.11113L18.2486 5.75113L18.8986 7.16113C19.0786 7.55113 19.6286 7.55113 19.8086 7.16113L20.4486 5.75113L21.8586 5.10113C22.2486 4.93113 22.2486 4.37113 21.8586 4.20113Z" fill="currentColor"/>
<path d="M8.84863 14.4011C9.53899 14.4011 10.0986 13.8415 10.0986 13.1511C10.0986 12.4608 9.53899 11.9011 8.84863 11.9011C8.15828 11.9011 7.59863 12.4608 7.59863 13.1511C7.59863 13.8415 8.15828 14.4011 8.84863 14.4011Z" fill="currentColor"/>
<path d="M14.8486 14.4011C15.539 14.4011 16.0986 13.8415 16.0986 13.1511C16.0986 12.4608 15.539 11.9011 14.8486 11.9011C14.1583 11.9011 13.5986 12.4608 13.5986 13.1511C13.5986 13.8415 14.1583 14.4011 14.8486 14.4011Z" fill="currentColor"/>
<path d="M19.3486 8.95113C18.5686 8.95113 17.8586 8.49113 17.5286 7.78113L17.1186 6.88113L16.2186 6.47113C15.5086 6.14113 15.0486 5.43113 15.0486 4.65113C15.0486 3.99113 15.3886 3.39113 15.9186 3.02113C14.6786 2.47113 13.2986 2.15113 11.8486 2.15113C6.32863 2.15113 1.84863 6.63113 1.84863 12.1511C1.84863 17.6711 6.32863 22.1511 11.8486 22.1511C17.3686 22.1511 21.8486 17.6711 21.8486 12.1511C21.8486 10.7011 21.5286 9.32113 20.9786 8.08113C20.6086 8.61113 20.0086 8.95113 19.3486 8.95113ZM11.8486 20.1511C7.43863 20.1511 3.84863 16.5611 3.84863 12.1511C3.84863 12.1011 3.85863 12.0511 3.84863 12.0111C6.44863 11.0311 8.53863 9.02113 9.58863 6.46113C11.4286 8.71113 14.2186 10.1511 17.3486 10.1511C18.0986 10.1511 18.8186 10.0611 19.5186 9.91113C19.7286 10.6211 19.8486 11.3711 19.8486 12.1511C19.8486 16.5611 16.2586 20.1511 11.8486 20.1511Z" fill="currentColor"/>
</svg>
