<svg viewBox="0 0 24 24" fill="none" xmlns="http://www.w3.org/2000/svg">
<path d="M9.00065 14.248C9.69101 14.248 10.2506 13.6884 10.2506 12.998C10.2506 12.3077 9.69101 11.748 9.00065 11.748C8.31029 11.748 7.75065 12.3077 7.75065 12.998C7.75065 13.6884 8.31029 14.248 9.00065 14.248Z" fill="currentColor"/>
<path d="M17.5006 9.99805C18.2506 9.99805 18.9706 9.90805 19.6706 9.75805C19.8806 10.468 20.0006 11.218 20.0006 11.998C20.0006 13.218 19.7206 14.368 19.2306 15.398L20.7206 16.888C21.5306 15.438 22.0006 13.778 22.0006 11.998C22.0006 6.47805 17.5206 1.99805 12.0006 1.99805C10.2206 1.99805 8.56065 2.46805 7.11065 3.27805L12.4406 8.60805C13.9306 9.48805 15.6506 9.99805 17.5006 9.99805Z" fill="currentColor"/>
<path d="M2.60065 4.42805L4.08065 5.90805C2.51065 7.94805 1.70065 10.598 2.10065 13.458C2.72065 17.788 6.21065 21.278 10.5406 21.898C13.3906 22.308 16.0507 21.488 18.0907 19.918L19.5707 21.398C19.9606 21.788 20.5907 21.788 20.9806 21.398C21.3706 21.008 21.3706 20.378 20.9806 19.988L4.01065 3.00805C3.62065 2.61805 2.99065 2.61805 2.60065 3.00805C2.21065 3.40805 2.21065 4.03805 2.60065 4.42805ZM16.6606 18.488C15.3506 19.438 13.7406 19.998 12.0006 19.998C7.59065 19.998 4.00065 16.408 4.00065 11.998C4.00065 11.948 4.01065 11.898 4.00065 11.858C5.39065 11.338 6.63065 10.508 7.64065 9.46805L16.6606 18.488Z" fill="currentColor"/>
</svg>
