<svg viewBox="0 0 24 24" fill="none" xmlns="http://www.w3.org/2000/svg">
<path d="M15.9451 4C15.9451 2.89 16.8351 2 17.9451 2C19.0551 2 19.9451 2.89 19.9451 4C19.9451 5.11 19.0551 6 17.9451 6C16.8351 6 15.9451 5.11 15.9451 4ZM19.9451 21V16H21.0551C21.7351 16 22.2151 15.33 22.0051 14.68L19.9051 8.37C19.6251 7.55 18.8651 7 18.0051 7H17.8851C17.0251 7 16.2551 7.55 15.9851 8.37L15.1251 10.95C16.2051 11.55 16.9451 12.68 16.9451 14V22H18.9451C19.4951 22 19.9451 21.55 19.9451 21ZM12.4451 11.5C13.2751 11.5 13.9451 10.83 13.9451 10C13.9451 9.17 13.2751 8.5 12.4451 8.5C11.6151 8.5 10.9451 9.17 10.9451 10C10.9451 10.83 11.6151 11.5 12.4451 11.5ZM5.44507 6C6.55507 6 7.44507 5.11 7.44507 4C7.44507 2.89 6.55507 2 5.44507 2C4.33507 2 3.44507 2.89 3.44507 4C3.44507 5.11 4.33507 6 5.44507 6ZM7.44507 21V15H7.94507C8.49507 15 8.94507 14.55 8.94507 14V9C8.94507 7.9 8.04507 7 6.94507 7H3.94507C2.84507 7 1.94507 7.9 1.94507 9V14C1.94507 14.55 2.39507 15 2.94507 15H3.44507V21C3.44507 21.55 3.89507 22 4.44507 22H6.44507C6.99507 22 7.44507 21.55 7.44507 21ZM9.94507 14V17C9.94507 17.55 10.3951 18 10.9451 18V21C10.9451 21.55 11.3951 22 11.9451 22H12.9451C13.4951 22 13.9451 21.55 13.9451 21V18C14.4951 18 14.9451 17.55 14.9451 17V14C14.9451 13.18 14.2651 12.5 13.4451 12.5H11.4451C10.6251 12.5 9.94507 13.18 9.94507 14Z" fill="currentColor"/>
</svg>
