<svg  viewBox="0 0 24 24" fill="none" xmlns="http://www.w3.org/2000/svg">
<path d="M21.9524 5H18.0524V2C18.0524 1.45 17.6024 1 17.0524 1C16.5024 1 16.0524 1.45 16.0524 2V5H12.1524C11.5624 5 11.1024 5.51 11.1524 6.1L11.2724 7.31C14.9524 8.16 18.0524 10.77 18.0524 15L18.0724 23H19.7724C20.6124 23 21.3024 22.35 21.4024 21.53L22.9424 6.1C23.0024 5.51 22.5424 5 21.9524 5ZM15.0524 21H2.05237C1.50237 21 1.05237 21.45 1.05237 22C1.05237 22.55 1.50237 23 2.05237 23H15.0524C15.6024 23 16.0524 22.55 16.0524 22C16.0524 21.45 15.6024 21 15.0524 21ZM2.15237 15H14.9524C15.5724 15 16.0624 14.44 15.9424 13.84C15.2924 10.61 11.9224 8.99 8.55237 8.99C5.18237 8.99 1.82237 10.61 1.16237 13.84C1.04237 14.44 1.54237 15 2.15237 15ZM15.0524 17H2.05237C1.50237 17 1.05237 17.45 1.05237 18C1.05237 18.55 1.50237 19 2.05237 19H15.0524C15.6024 19 16.0524 18.55 16.0524 18C16.0524 17.45 15.6024 17 15.0524 17Z" fill="currentColor"/>
</svg>
