<svg  viewBox="0 0 24 24" fill="none" xmlns="http://www.w3.org/2000/svg">
<path d="M19.6603 4.16717C17.0203 2.36717 13.7603 3.20717 12.0003 5.26717C10.2403 3.20717 6.98027 2.35717 4.34027 4.16717C2.94027 5.12717 2.06027 6.74717 2.00027 8.45717C1.86027 12.3372 5.30027 15.4472 10.5503 20.2172L10.6503 20.3072C11.4103 20.9972 12.5803 20.9972 13.3403 20.2972L13.4503 20.1972C18.7003 15.4372 22.1303 12.3272 22.0003 8.44717C21.9403 6.74717 21.0603 5.12717 19.6603 4.16717ZM12.1003 18.7272L12.0003 18.8272L11.9003 18.7272C7.14027 14.4172 4.00027 11.5672 4.00027 8.67717C4.00027 6.67717 5.50027 5.17717 7.50027 5.17717C9.04027 5.17717 10.5403 6.16717 11.0703 7.53717H12.9403C13.4603 6.16717 14.9603 5.17717 16.5003 5.17717C18.5003 5.17717 20.0003 6.67717 20.0003 8.67717C20.0003 11.5672 16.8603 14.4172 12.1003 18.7272Z" fill="currentColor"/>
</svg>
