<svg viewBox="0 0 24 24" fill="none" xmlns="http://www.w3.org/2000/svg">
<path d="M21 10.7915C21 10.2415 20.55 9.79148 20 9.79148H19V6.79148L16.71 4.50148C16.32 4.11148 15.69 4.11148 15.3 4.50148L14 5.79148L12.71 4.50148C12.32 4.11148 11.69 4.11148 11.3 4.50148L10 5.79148L8.71 4.50148C8.32 4.11148 7.69 4.11148 7.3 4.50148L5 6.79148V9.79148H4C3.45 9.79148 3 10.2415 3 10.7915C3 11.3415 3.45 11.7915 4 11.7915H5V13.7915H4C3.45 13.7915 3 14.2415 3 14.7915C3 15.3415 3.45 15.7915 4 15.7915H5V18.7915C5 19.3415 5.45 19.7915 6 19.7915H18C18.55 19.7915 19 19.3415 19 18.7915V15.7915H20C20.55 15.7915 21 15.3415 21 14.7915C21 14.2415 20.55 13.7915 20 13.7915H19V11.7915H20C20.55 11.7915 21 11.3415 21 10.7915ZM16 6.62148L17 7.62148V9.79148H15V7.62148L16 6.62148ZM12 6.62148L13 7.62148V9.79148H11V7.62148L12 6.62148ZM11 13.7915V11.7915H13V13.7915H11ZM13 15.7915V17.7915H11V15.7915H13ZM7 7.62148L8 6.62148L9 7.62148V9.79148H7V7.62148ZM7 11.7915H9V13.7915H7V11.7915ZM7 15.7915H9V17.7915H7V15.7915ZM17 17.7915H15V15.7915H17V17.7915ZM17 13.7915H15V11.7915H17V13.7915Z" fill="currentColor"/>
</svg>
