<svg  viewBox="0 0 24 24" fill="none" xmlns="http://www.w3.org/2000/svg">
<path d="M23 10.6496V10.0396C23 9.23961 22.52 8.49961 21.77 8.19961C18.12 6.71961 14.96 4.26961 13.29 2.82961C12.55 2.18961 11.45 2.18961 10.71 2.82961C9.03 4.26961 5.88 6.70961 2.23 8.19961C1.48 8.49961 1 9.22961 1 10.0396V10.6496C1 12.1396 1.93 13.3996 3.24 13.9096C3.21 15.5896 3.08 17.4596 2.72 19.1996C2.46 20.4596 3.38 21.6496 4.67 21.6496H19.34C20.63 21.6496 21.55 20.4596 21.29 19.1996C20.93 17.4496 20.79 15.5796 20.77 13.9096C22.07 13.3996 23 12.1396 23 10.6496ZM12 4.35961C13.33 5.49961 15.49 7.19961 18.11 8.64961H5.89C8.51 7.19961 10.67 5.49961 12 4.35961ZM13 10.6496H16C16 11.4796 15.33 12.1496 14.5 12.1496C13.67 12.1496 13 11.4796 13 10.6496ZM9.5 12.1496C8.67 12.1496 8 11.4796 8 10.6496H11C11 11.4796 10.33 12.1496 9.5 12.1496ZM6 10.6496C6 11.4796 5.33 12.1496 4.5 12.1496C3.67 12.1496 3 11.4796 3 10.6496H6ZM4.66 19.6496C5.05 17.7896 5.2 15.8296 5.23 14.0696C5.91 13.9196 6.52 13.5796 6.99 13.0896C7.24 13.3396 7.53 13.5396 7.84 13.7096C7.74 15.5796 7.58 17.7096 7.32 19.6396H4.66V19.6496ZM9.35 19.6496C9.59 17.8196 9.74 15.8696 9.83 14.1196C10.67 14.0396 11.44 13.6696 12 13.0996C12.56 13.6696 13.32 14.0396 14.17 14.1196C14.27 15.8696 14.41 17.8196 14.65 19.6496H9.35ZM16.67 19.6496C16.4 17.7096 16.24 15.5796 16.15 13.7196C16.46 13.5496 16.76 13.3496 17 13.0996C17.47 13.5796 18.08 13.9296 18.76 14.0796C18.79 15.8396 18.94 17.7996 19.33 19.6596H16.67V19.6496ZM19.5 12.1496C18.67 12.1496 18 11.4796 18 10.6496H21C21 11.4796 20.33 12.1496 19.5 12.1496Z" fill="currentColor"/>
</svg>
