<svg  viewBox="0 0 24 24" fill="none" xmlns="http://www.w3.org/2000/svg">
<path d="M19.4162 4.50148C19.0262 4.11148 18.3962 4.11148 18.0062 4.50148L9.52619 12.9915L5.98619 9.45148C5.59619 9.06148 4.96619 9.06148 4.57619 9.45148C4.18619 9.84148 4.18619 10.4715 4.57619 10.8615L8.81619 15.1015C9.20619 15.4915 9.83619 15.4915 10.2262 15.1015L19.4162 5.91148C19.8162 5.52148 19.8162 4.89148 19.4162 4.50148Z" fill="currentColor"/>
<path d="M5.99619 19.7915H17.9962C18.5462 19.7915 18.9962 19.3415 18.9962 18.7915C18.9962 18.2415 18.5462 17.7915 17.9962 17.7915H5.99619C5.44619 17.7915 4.99619 18.2415 4.99619 18.7915C4.99619 19.3415 5.44619 19.7915 5.99619 19.7915Z" fill="currentColor"/>
</svg>
