<svg  viewBox="0 0 24 24" fill="none" xmlns="http://www.w3.org/2000/svg">
<path d="M9.70556 5.57332V3.40332C9.70556 2.85332 10.1556 2.40332 10.7056 2.40332H14.7056C15.2556 2.40332 15.7056 2.85332 15.7056 3.40332V8.40332H17.2956C18.1856 8.40332 18.6256 9.48332 17.9956 10.1133L16.1156 11.9933L9.70556 5.57332ZM21.1956 19.8933L4.21556 2.91332C3.82556 2.52332 3.19556 2.52332 2.80556 2.91332C2.41556 3.30332 2.41556 3.93332 2.80556 4.32332L7.30556 8.82332C7.04556 9.19332 7.02556 9.73332 7.40556 10.1033L11.9956 14.6933C12.3456 15.0433 12.8756 15.0633 13.2656 14.7833L15.8756 17.4033H6.70556C6.15556 17.4033 5.70556 17.8533 5.70556 18.4033C5.70556 18.9533 6.15556 19.4033 6.70556 19.4033H17.8756L19.7756 21.3033C20.1656 21.6933 20.7956 21.6933 21.1856 21.3033C21.5856 20.9133 21.5856 20.2833 21.1956 19.8933Z" fill="currentColor"/>
</svg>
