<svg  viewBox="0 0 24 24" fill="none" xmlns="http://www.w3.org/2000/svg">
<path d="M11.6937 2H4.52368C3.42368 2 2.52368 2.9 2.52368 4V20C2.52368 21.1 3.42368 22 4.52368 22H13.5237V16C13.5237 14.9 14.4237 14 15.5237 14H18.5237V8.83C18.5237 8.3 18.3137 7.79 17.9337 7.42L13.1037 2.59C12.7337 2.21 12.2237 2 11.6937 2ZM11.5237 8V3.5L17.0237 9H12.5237C11.9737 9 11.5237 8.55 11.5237 8ZM21.1837 17C21.1837 17.55 20.7337 18 20.1837 18H18.9437L21.1837 20.24C21.5737 20.63 21.5737 21.26 21.1837 21.65C20.7937 22.04 20.1637 22.04 19.7737 21.65L17.5237 19.41V20.65C17.5237 21.2 17.0737 21.65 16.5237 21.65C15.9737 21.65 15.5237 21.2 15.5237 20.65V17C15.5237 16.45 15.9737 16 16.5237 16H20.1837C20.7337 16 21.1837 16.45 21.1837 17Z" fill="currentColor"/>
</svg>
