<svg width="24" height="24" viewBox="0 0 24 24" fill="none" xmlns="http://www.w3.org/2000/svg">
<path d="M20.4974 4.90495C21.0074 4.24495 20.5374 3.29495 19.7074 3.29495H7.53739L15.5074 11.265L20.4974 4.90495Z" fill="black"/>
<path d="M21.1974 19.785L4.21739 2.80495C3.82739 2.41495 3.19739 2.41495 2.80739 2.80495C2.41739 3.19495 2.41739 3.82495 2.80739 4.21495L10.7074 12.295V17.295C10.7074 18.395 11.6074 19.295 12.7074 19.295C13.8074 19.295 14.7074 18.395 14.7074 17.295V16.125L19.7774 21.195C20.1674 21.5849 20.7974 21.5849 21.1874 21.195C21.5774 20.805 21.5874 20.1749 21.1974 19.785Z" fill="black"/>
</svg>
