<svg viewBox="0 0 24 24" fill="none" xmlns="http://www.w3.org/2000/svg">
<path d="M20 4.79148H16L12.71 1.50148C12.32 1.11148 11.69 1.11148 11.3 1.50148L8 4.79148H4C2.9 4.79148 2 5.69148 2 6.79148V20.7915C2 21.8915 2.9 22.7915 4 22.7915H20C21.1 22.7915 22 21.8915 22 20.7915V6.79148C22 5.69148 21.1 4.79148 20 4.79148ZM19 20.7915H5C4.45 20.7915 4 20.3415 4 19.7915V7.79148C4 7.24148 4.45 6.79148 5 6.79148H8.52L12.04 3.29148L15.52 6.79148H19C19.55 6.79148 20 7.24148 20 7.79148V19.7915C20 20.3415 19.55 20.7915 19 20.7915ZM17 8.79148H7C6.45 8.79148 6 9.24148 6 9.79148V17.7915C6 18.3415 6.45 18.7915 7 18.7915H17C17.55 18.7915 18 18.3415 18 17.7915V9.79148C18 9.24148 17.55 8.79148 17 8.79148Z" fill="currentColor"/>
</svg>
