<svg  viewBox="0 0 24 24" fill="none" xmlns="http://www.w3.org/2000/svg">
<path d="M21.5963 6.29008C21.5963 5.74008 21.1463 5.29008 20.5963 5.29008H9.42631L11.4263 7.29008H20.5963C21.1463 7.29008 21.5963 6.84008 21.5963 6.29008ZM18.5963 11.2901C18.5963 10.7401 18.1463 10.2901 17.5963 10.2901H14.4263L16.4263 12.2901H17.5963C18.1463 12.2901 18.5963 11.8401 18.5963 11.2901ZM14.5763 16.1001C14.5863 16.1601 14.5963 16.2301 14.5963 16.2901C14.5963 16.8401 14.1463 17.2901 13.5963 17.2901H11.5963C11.0463 17.2901 10.5963 16.8401 10.5963 16.2901C10.5963 15.7401 11.0463 15.2901 11.5963 15.2901H13.5963C13.6563 15.2901 13.7263 15.3001 13.7863 15.3101L10.7663 12.2901H7.59631C7.04631 12.2901 6.59631 11.8401 6.59631 11.2901C6.59631 10.7401 7.04631 10.2901 7.59631 10.2901H8.76631L5.76631 7.29008H4.59631C4.04631 7.29008 3.59631 6.84008 3.59631 6.29008C3.59631 5.97008 3.74631 5.69008 3.97631 5.50008L2.69631 4.22008C2.30631 3.83008 2.30631 3.20008 2.69631 2.81008C3.08631 2.42008 3.71631 2.42008 4.10631 2.81008L21.0763 19.7801C21.4663 20.1701 21.4663 20.8001 21.0763 21.1901C20.6863 21.5801 20.0563 21.5801 19.6663 21.1901L14.5763 16.1001Z" fill="currentColor"/>
</svg>
