<svg width="24" height="24" viewBox="0 0 24 24" fill="none" xmlns="http://www.w3.org/2000/svg">
<path d="M10.4763 5.47119C11.8563 5.47119 13.1063 6.03119 14.0163 6.93119L12.3263 8.62119C12.0163 8.93119 12.2363 9.47119 12.6863 9.47119H16.9763C17.2563 9.47119 17.4763 9.25119 17.4763 8.97119V4.68119C17.4763 4.23119 16.9363 4.01119 16.6263 4.33119L15.4263 5.53119C14.1563 4.25119 12.4063 3.47119 10.4763 3.47119C7.43626 3.47119 4.85626 5.41119 3.89626 8.11119C3.65626 8.77119 4.12626 9.47119 4.82626 9.47119C5.24626 9.47119 5.61626 9.21119 5.75626 8.81119C6.43626 6.87119 8.29626 5.47119 10.4763 5.47119ZM16.1163 14.6112C16.5163 14.0712 16.8363 13.4612 17.0663 12.8112C17.2963 12.1612 16.8163 11.4712 16.1263 11.4712C15.7063 11.4712 15.3363 11.7312 15.1963 12.1312C14.5163 14.0712 12.6563 15.4712 10.4763 15.4712C9.09626 15.4712 7.84626 14.9112 6.93626 14.0112L8.62626 12.3212C8.93626 12.0112 8.71626 11.4712 8.26626 11.4712H3.97626C3.69626 11.4712 3.47626 11.6912 3.47626 11.9712V16.2612C3.47626 16.7112 4.01626 16.9312 4.32626 16.6112L5.52626 15.4112C6.79626 16.6912 8.54626 17.4712 10.4763 17.4712C12.0263 17.4712 13.4563 16.9612 14.6163 16.1112L18.7263 20.2212C19.1363 20.6312 19.8063 20.6312 20.2163 20.2212C20.6263 19.8112 20.6263 19.1412 20.2163 18.7312L16.1163 14.6112Z" fill="black"/>
</svg>
