<svg viewBox="0 0 24 24" fill="none" xmlns="http://www.w3.org/2000/svg">
<path d="M2.58801 3.17578V13.1758C2.58801 13.7258 3.03801 14.1758 3.58801 14.1758H5.58801V21.3258C5.58801 21.8358 6.25801 22.0158 6.51801 21.5758L11.708 12.6758C12.098 12.0058 11.618 11.1758 10.848 11.1758H8.58801L11.968 3.58578C12.258 2.91578 11.768 2.17578 11.048 2.17578H3.58801C3.03801 2.17578 2.58801 2.62578 2.58801 3.17578ZM17.588 2.17578C16.988 2.17578 16.458 2.55578 16.248 3.11578L13.808 9.97578C13.608 10.5658 14.038 11.1758 14.658 11.1758C15.038 11.1758 15.378 10.9358 15.498 10.5758L15.988 9.17578H19.188L19.678 10.5758C19.808 10.9358 20.138 11.1758 20.518 11.1758C21.138 11.1758 21.568 10.5658 21.358 9.98578L18.918 3.12578C18.718 2.55578 18.188 2.17578 17.588 2.17578ZM16.438 7.82578L17.588 4.17578L18.738 7.82578H16.438Z" fill="currentColor"/>
</svg>
