<svg width="24" height="24" viewBox="0 0 24 24" fill="none" xmlns="http://www.w3.org/2000/svg">
<path d="M20.5 19.3432H3.5C2.95 19.3432 2.5 19.7932 2.5 20.3432C2.5 20.8932 2.95 21.3432 3.5 21.3432H20.5C21.05 21.3432 21.5 20.8932 21.5 20.3432C21.5 19.7932 21.05 19.3432 20.5 19.3432ZM3.51 11.9532L19.34 16.1932C20.14 16.4032 20.96 15.9332 21.18 15.1332C21.39 14.3332 20.92 13.5132 20.12 13.2932L14.81 11.8732L12.23 3.42325C12.12 3.06325 11.84 2.79325 11.48 2.69325C10.8 2.51325 10.13 3.02325 10.13 3.73325V10.6132L5.15 9.29325L4.4 7.43325C4.28 7.14325 4.04 6.92325 3.73 6.84325L3.4 6.75325C3.08 6.66325 2.77 6.90325 2.77 7.23325V10.9832C2.77 11.4432 3.07 11.8332 3.51 11.9532Z" fill="black"/>
</svg>
