<svg  viewBox="0 0 24 24" fill="none" xmlns="http://www.w3.org/2000/svg">
<path d="M16.5 3.5H14.5C13.4 3.5 12.5 4.4 12.5 5.5V10.5C12.5 11.6 13.4 12.5 14.5 12.5H16.5C17.6 12.5 18.5 11.6 18.5 10.5V5.5C18.5 4.4 17.6 3.5 16.5 3.5ZM6.5 3.5C7.05 3.5 7.5 3.95 7.5 4.5V7.5L10 15.5H17.5C18.05 15.5 18.5 15.95 18.5 16.5C18.5 17.05 18.05 17.5 17.5 17.5H9.99C9.11 17.5 8.33 16.92 8.07 16.07L5.58 7.78C5.53 7.59 5.5 7.4 5.5 7.21V4.5C5.5 3.95 5.95 3.5 6.5 3.5ZM18.5 19.5C18.5 20.05 18.05 20.5 17.5 20.5H9.5C8.95 20.5 8.5 20.05 8.5 19.5C8.5 18.95 8.95 18.5 9.5 18.5H17.5C18.05 18.5 18.5 18.95 18.5 19.5Z" fill="currentColor"/>
</svg>
