<svg  viewBox="0 0 24 24" fill="none" xmlns="http://www.w3.org/2000/svg">
<path d="M21.5 14.6601C21.5 14.3001 21.31 13.9701 21.01 13.7701L13.5 9.08008V3.58008C13.5 2.75008 12.83 2.08008 12 2.08008C11.17 2.08008 10.5 2.75008 10.5 3.58008V9.08008L2.99 13.7701C2.69 13.9601 2.5 14.3001 2.5 14.6601C2.5 15.3601 3.18 15.8701 3.86 15.6601L10.5 13.5801V19.0801L8.7 20.4301C8.57 20.5201 8.5 20.6701 8.5 20.8301V21.4201C8.5 21.7501 8.82 21.9901 9.14 21.9001L12 21.0801L14.86 21.9001C15.18 21.9901 15.5 21.7501 15.5 21.4201V20.8301C15.5 20.6701 15.43 20.5201 15.3 20.4301L13.5 19.0801V13.5801L20.14 15.6601C20.82 15.8701 21.5 15.3601 21.5 14.6601Z" fill="currentColor"/>
</svg>
