<svg width="24" height="24" viewBox="0 0 24 24" fill="none" xmlns="http://www.w3.org/2000/svg">
<path d="M20.3857 18.6549H3.38572C2.83572 18.6549 2.38572 19.1049 2.38572 19.6549C2.38572 20.2049 2.83572 20.6549 3.38572 20.6549H20.3857C20.9357 20.6549 21.3857 20.2049 21.3857 19.6549C21.3857 19.1049 20.9357 18.6549 20.3857 18.6549ZM21.9557 9.29494C21.7357 8.49494 20.9157 8.02494 20.1157 8.23494L14.8057 9.65494L8.34572 3.63494C8.07572 3.37494 7.68572 3.28494 7.32572 3.38494C6.64572 3.57494 6.32572 4.35494 6.67572 4.96494L10.1157 10.9249L5.14572 12.2549L3.57572 11.0149C3.32572 10.8249 3.00572 10.7549 2.69572 10.8349L2.36572 10.9249C2.04572 11.0049 1.89572 11.3749 2.06572 11.6549L3.94572 14.9049C4.17572 15.2949 4.63572 15.4849 5.06572 15.3749L20.8857 11.1349C21.6857 10.9149 22.1657 10.0949 21.9557 9.29494Z" fill="black"/>
</svg>
