<svg width="24" height="24" viewBox="0 0 24 24" fill="none" xmlns="http://www.w3.org/2000/svg">
<path d="M7.00498 15H17.005C18.105 15 19.005 14.1 19.005 13V11C19.005 9.9 18.105 9 17.005 9H7.00498C5.90498 9 5.00498 9.9 5.00498 11V13C5.00498 14.1 5.90498 15 7.00498 15Z" fill="black"/>
<path d="M12.005 2C11.445 2 11.005 2.45 11.005 3V4C11.005 4.55 11.455 5 12.005 5C12.555 5 13.005 4.55 13.005 4V3C13.005 2.45 12.555 2 12.005 2Z" fill="black"/>
<path d="M19.795 5.3C19.405 4.91 18.775 4.91 18.385 5.3L18.005 5.68C17.615 6.07 17.615 6.7 18.005 7.09C18.395 7.48 19.025 7.48 19.415 7.09L19.795 6.71C20.185 6.33 20.185 5.69 19.795 5.3Z" fill="black"/>
<path d="M12.005 22C12.565 22 13.005 21.55 13.005 21V20C13.005 19.45 12.555 19 12.005 19C11.455 19 11.005 19.45 11.005 20V21C11.005 21.55 11.455 22 12.005 22Z" fill="black"/>
<path d="M17.995 18.41L18.375 18.8C18.765 19.19 19.395 19.19 19.785 18.8L19.795 18.79C20.185 18.4 20.185 17.77 19.795 17.38L19.405 17C19.015 16.61 18.385 16.61 17.995 17C17.605 17.4 17.605 18.03 17.995 18.41Z" fill="black"/>
<path d="M6.00498 5.69L5.61498 5.31C5.22498 4.92 4.59498 4.92 4.20498 5.31C3.81498 5.7 3.81498 6.33 4.20498 6.72L4.59498 7.1C4.98498 7.49 5.61498 7.49 6.00498 7.1C6.38498 6.71 6.38498 6.07 6.00498 5.69Z" fill="black"/>
<path d="M4.20498 18.79C4.59498 19.19 5.23498 19.19 5.62498 18.79L6.00498 18.4C6.39498 18.01 6.39498 17.38 6.00498 16.99C5.61498 16.6 4.98498 16.6 4.59498 16.99L4.20498 17.38C3.81498 17.77 3.81498 18.4 4.20498 18.79Z" fill="black"/>
</svg>
