<svg width="24" height="24" viewBox="0 0 24 24" fill="none" xmlns="http://www.w3.org/2000/svg">
<path d="M12 2.16113C7.8 2.16113 4 5.38113 4 10.3611C4 13.5411 6.45 17.2811 11.34 21.5911C11.72 21.9211 12.29 21.9211 12.67 21.5911C17.55 17.2811 20 13.5411 20 10.3611C20 5.38113 16.2 2.16113 12 2.16113ZM12 15.1611C11.45 15.1611 11 14.7111 11 14.1611C11 13.6111 11.45 13.1611 12 13.1611C12.55 13.1611 13 13.6111 13 14.1611C13 14.7111 12.55 15.1611 12 15.1611ZM12 11.1611C11.45 11.1611 11 10.7111 11 10.1611V7.16113C11 6.61113 11.45 6.16113 12 6.16113C12.55 6.16113 13 6.61113 13 7.16113V10.1611C13 10.7111 12.55 11.1611 12 11.1611Z" fill="black"/>
</svg>
