<svg  viewBox="0 0 24 24" fill="none" xmlns="http://www.w3.org/2000/svg">
<path d="M9.5 5.25C10.6 5.25 11.5 4.35 11.5 3.25C11.5 2.15 10.6 1.25 9.5 1.25C8.4 1.25 7.5 2.15 7.5 3.25C7.5 4.35 8.4 5.25 9.5 5.25ZM5.75 8.65L3.23 21.56C3.11 22.18 3.58 22.75 4.21 22.75H4.3C4.77 22.75 5.18 22.42 5.28 21.96L6.85 14.75L9 16.75V21.75C9 22.3 9.45 22.75 10 22.75C10.55 22.75 11 22.3 11 21.75V15.61C11 15.34 10.89 15.09 10.71 14.9L8.95 13.15L9.55 10.15C10.62 11.47 12.13 12.38 13.86 12.66C14.46 12.76 15 12.27 15 11.66C15 11.17 14.64 10.76 14.16 10.68C12.67 10.43 11.41 9.53 10.65 8.3L9.7 6.7C9.35 6.1 8.7 5.75 8 5.75C7.75 5.75 7.5 5.8 7.25 5.9L2.62 7.8C2.25 7.95 2 8.32 2 8.72V11.75C2 12.3 2.45 12.75 3 12.75C3.55 12.75 4 12.3 4 11.75V9.4L5.75 8.65ZM21 1.75H14C13.45 1.75 13 2.2 13 2.75V7.75C13 8.3 13.45 8.75 14 8.75H16.75V22C16.75 22.41 17.09 22.75 17.5 22.75C17.91 22.75 18.25 22.41 18.25 22V8.75H21C21.55 8.75 22 8.3 22 7.75V2.75C22 2.2 21.55 1.75 21 1.75ZM20.15 5.6L18.87 6.89C18.56 7.21 18.02 6.98 18.02 6.54V6H15.26C14.85 6 14.51 5.66 14.51 5.25C14.51 4.84 14.85 4.5 15.26 4.5H18.02V3.96C18.02 3.51 18.56 3.29 18.87 3.61L20.15 4.9C20.34 5.09 20.34 5.41 20.15 5.6Z" fill="currentColor"/>
</svg>
