<svg  viewBox="0 0 24 24" fill="none" xmlns="http://www.w3.org/2000/svg">
<path d="M13.0313 9.29883L12.1613 8.42883L12.3913 7.76883H12.4913L13.0313 9.29883ZM10.8013 7.06883L11.0013 6.54883C11.2313 5.94883 11.8013 5.54883 12.4513 5.54883C13.1013 5.54883 13.6713 5.94883 13.9013 6.54883L16.0713 12.3388L22.4513 18.7188V3.54883C22.4513 2.44883 21.5513 1.54883 20.4513 1.54883H5.28125L10.8013 7.06883ZM21.6413 22.1588C21.2513 22.5488 20.6213 22.5488 20.2313 22.1588L19.6213 21.5488H4.45125C3.35125 21.5488 2.45125 20.6488 2.45125 19.5488V4.37883L1.84125 3.76883C1.45125 3.37883 1.45125 2.74883 1.84125 2.35883C2.23125 1.96883 2.86125 1.96883 3.25125 2.35883L21.6313 20.7388C22.0313 21.1288 22.0313 21.7688 21.6413 22.1588ZM12.5513 14.4788L9.25125 11.1788L7.35125 16.2488C7.12125 16.8788 7.58125 17.5488 8.25125 17.5488H8.26125C8.67125 17.5488 9.03125 17.2888 9.16125 16.9088L10.0213 14.4788H12.5513Z" fill="currentColor"/>
</svg>
