<svg viewBox="0 0 24 24" fill="none" xmlns="http://www.w3.org/2000/svg">
<path d="M10.8 3.64945L4.8 8.14945C4.3 8.52945 4 9.11945 4 9.74945V18.7495C4 19.8495 4.9 20.7495 6 20.7495H18C19.1 20.7495 20 19.8495 20 18.7495V9.74945C20 9.11945 19.7 8.52945 19.2 8.14945L13.2 3.64945C12.49 3.11945 11.51 3.11945 10.8 3.64945ZM12.5 12.2495C12.5 13.0795 11.83 13.7495 11 13.7495V17.2495C11 17.5295 10.78 17.7495 10.5 17.7495C10.22 17.7495 10 17.5295 10 17.2495V13.7495C9.17 13.7495 8.5 13.0795 8.5 12.2495V9.74945C8.5 9.46945 8.72 9.24945 9 9.24945C9.28 9.24945 9.5 9.46945 9.5 9.74945V12.2495H10V9.74945C10 9.46945 10.22 9.24945 10.5 9.24945C10.78 9.24945 11 9.46945 11 9.74945V12.2495H11.5V9.74945C11.5 9.46945 11.72 9.24945 12 9.24945C12.28 9.24945 12.5 9.46945 12.5 9.74945V12.2495ZM14.5 17.7495C14.22 17.7495 14 17.5295 14 17.2495V14.2495H13.5C13.22 14.2495 13 14.0295 13 13.7495V11.2495C13 10.3695 13.57 9.61945 14.36 9.35945C14.67 9.24945 15 9.49945 15 9.83945V17.2495C15 17.5295 14.78 17.7495 14.5 17.7495Z" fill="currentColor"/>
</svg>
