<svg  viewBox="0 0 24 24" fill="none" xmlns="http://www.w3.org/2000/svg">
<path d="M14.14 11.6286H14.08C14.89 11.6286 15.36 10.7186 14.9 10.0586L9.82002 2.79859C9.42002 2.22859 8.58002 2.22859 8.18002 2.79859L3.10002 10.0586C2.64002 10.7186 3.11002 11.6286 3.92002 11.6286H3.86002L0.990018 16.0886C0.560018 16.7486 1.04002 17.6286 1.83002 17.6286H7.00002V19.6286C7.00002 20.7286 7.90002 21.6286 9.00002 21.6286C10.1 21.6286 11 20.7286 11 19.6286V17.6286H16.17C16.96 17.6286 17.44 16.7486 17.01 16.0886L14.14 11.6286Z" fill="currentColor"/>
<path d="M23.01 16.0886L20.14 11.6286H20.08C20.89 11.6286 21.36 10.7186 20.9 10.0586L15.82 2.79859C15.42 2.22859 14.58 2.22859 14.18 2.79859L12.61 5.03859L15.72 9.47859C16.15 10.0886 16.2 10.8886 15.86 11.5486C15.78 11.7086 15.68 11.8486 15.56 11.9786L17.85 15.5486C18.25 16.1686 18.27 16.9486 17.92 17.5886C17.91 17.6086 17.9 17.6186 17.89 17.6286H22.17C22.96 17.6286 23.44 16.7486 23.01 16.0886Z" fill="currentColor"/>
<path d="M13 19.6286C13 20.7286 13.9 21.6286 15 21.6286C16.1 21.6286 17 20.7286 17 19.6286V18.6286H13V19.6286Z" fill="currentColor"/>
</svg>
