<svg width="24" height="24" viewBox="0 0 24 24" fill="none" xmlns="http://www.w3.org/2000/svg">
<path d="M8.10425 10.3545V14.3545C8.10425 14.9045 8.55425 15.3545 9.10425 15.3545C9.65425 15.3545 10.1042 14.9045 10.1042 14.3545V4.35449H12.1042V14.3545C12.1042 14.9045 12.5542 15.3545 13.1042 15.3545C13.6542 15.3545 14.1042 14.9045 14.1042 14.3545V4.35449H15.1042C15.6542 4.35449 16.1042 3.90449 16.1042 3.35449C16.1042 2.80449 15.6542 2.35449 15.1042 2.35449H8.27425C6.18425 2.35449 4.32425 3.88449 4.12425 5.96449C3.89425 8.34449 5.76425 10.3545 8.10425 10.3545ZM19.7542 18.0045L16.9642 15.2145C16.6442 14.8945 16.1042 15.1145 16.1042 15.5645V17.3545H5.10425C4.55425 17.3545 4.10425 17.8045 4.10425 18.3545C4.10425 18.9045 4.55425 19.3545 5.10425 19.3545H16.1042V21.1445C16.1042 21.5945 16.6442 21.8145 16.9542 21.4945L19.7442 18.7045C19.9442 18.5145 19.9442 18.1945 19.7542 18.0045Z" fill="black"/>
</svg>
