<svg  viewBox="0 0 24 24" fill="none" xmlns="http://www.w3.org/2000/svg">
<path d="M21 16H19C18.72 16 18.5 16.22 18.5 16.5C18.5 16.78 18.72 17 19 17H20.5V17.5H20C19.72 17.5 19.5 17.72 19.5 18C19.5 18.28 19.72 18.5 20 18.5H20.5V19H19C18.72 19 18.5 19.22 18.5 19.5C18.5 19.78 18.72 20 19 20H21C21.28 20 21.5 19.78 21.5 19.5V16.5C21.5 16.22 21.28 16 21 16ZM19 5H19.5V7.5C19.5 7.78 19.72 8 20 8C20.28 8 20.5 7.78 20.5 7.5V4.5C20.5 4.22 20.28 4 20 4H19C18.72 4 18.5 4.22 18.5 4.5C18.5 4.78 18.72 5 19 5ZM21.5 10.72V10.5C21.5 10.22 21.28 10 21 10H19C18.72 10 18.5 10.22 18.5 10.5C18.5 10.78 18.72 11 19 11H20.3L18.62 12.96C18.54 13.05 18.5 13.17 18.5 13.28V13.5C18.5 13.78 18.72 14 19 14H21C21.28 14 21.5 13.78 21.5 13.5C21.5 13.22 21.28 13 21 13H19.7L21.38 11.04C21.46 10.95 21.5 10.83 21.5 10.72ZM15.5 5H3.5C2.95 5 2.5 5.45 2.5 6C2.5 6.55 2.95 7 3.5 7H15.5C16.05 7 16.5 6.55 16.5 6C16.5 5.45 16.05 5 15.5 5ZM15.5 17H3.5C2.95 17 2.5 17.45 2.5 18C2.5 18.55 2.95 19 3.5 19H15.5C16.05 19 16.5 18.55 16.5 18C16.5 17.45 16.05 17 15.5 17ZM15.5 11H3.5C2.95 11 2.5 11.45 2.5 12C2.5 12.55 2.95 13 3.5 13H15.5C16.05 13 16.5 12.55 16.5 12C16.5 11.45 16.05 11 15.5 11Z" fill="currentColor"/>
</svg>
