<svg width="24" height="24" viewBox="0 0 24 24" fill="none" xmlns="http://www.w3.org/2000/svg">
<path d="M8.5 7H20.5C21.05 7 21.5 6.55 21.5 6C21.5 5.45 21.05 5 20.5 5H8.5C7.95 5 7.5 5.45 7.5 6C7.5 6.55 7.95 7 8.5 7ZM20.5 17H8.5C7.95 17 7.5 17.45 7.5 18C7.5 18.55 7.95 19 8.5 19H20.5C21.05 19 21.5 18.55 21.5 18C21.5 17.45 21.05 17 20.5 17ZM20.5 11H8.5C7.95 11 7.5 11.45 7.5 12C7.5 12.55 7.95 13 8.5 13H20.5C21.05 13 21.5 12.55 21.5 12C21.5 11.45 21.05 11 20.5 11ZM5 16H3C2.72 16 2.5 16.22 2.5 16.5C2.5 16.78 2.72 17 3 17H4.5V17.5H4C3.72 17.5 3.5 17.72 3.5 18C3.5 18.28 3.72 18.5 4 18.5H4.5V19H3C2.72 19 2.5 19.22 2.5 19.5C2.5 19.78 2.72 20 3 20H5C5.28 20 5.5 19.78 5.5 19.5V16.5C5.5 16.22 5.28 16 5 16ZM3 5H3.5V7.5C3.5 7.78 3.72 8 4 8C4.28 8 4.5 7.78 4.5 7.5V4.5C4.5 4.22 4.28 4 4 4H3C2.72 4 2.5 4.22 2.5 4.5C2.5 4.78 2.72 5 3 5ZM5 10H3C2.72 10 2.5 10.22 2.5 10.5C2.5 10.78 2.72 11 3 11H4.3L2.62 12.96C2.54 13.05 2.5 13.17 2.5 13.28V13.5C2.5 13.78 2.72 14 3 14H5C5.28 14 5.5 13.78 5.5 13.5C5.5 13.22 5.28 13 5 13H3.7L5.38 11.04C5.46 10.95 5.5 10.83 5.5 10.72V10.5C5.5 10.22 5.28 10 5 10Z" fill="black"/>
</svg>
