<svg  viewBox="0 0 24 24" fill="none" xmlns="http://www.w3.org/2000/svg">
<path d="M18.0006 13.7629C18.0006 10.6729 14.4006 5.88289 12.7706 3.89289C12.3706 3.40289 11.6206 3.40289 11.2206 3.89289C10.7606 4.46289 10.1406 5.25289 9.49062 6.16289L17.9306 14.6029C17.9706 14.3229 18.0006 14.0429 18.0006 13.7629ZM19.2906 18.7729L6.12062 5.60289C5.73062 5.21289 5.10062 5.21289 4.71062 5.60289C4.32062 5.99289 4.32062 6.62289 4.71062 7.01289L7.32062 9.62289C6.55062 11.0929 6.00062 12.5529 6.00062 13.7629C6.00062 17.0729 8.69062 19.7629 12.0006 19.7629C13.5206 19.7629 14.9006 19.1929 15.9506 18.2629L17.8706 20.1829C18.2606 20.5729 18.8906 20.5729 19.2806 20.1829C19.6806 19.8029 19.6806 19.1629 19.2906 18.7729Z" fill="currentColor"/>
</svg>
