<svg  viewBox="0 0 24 24" fill="none" xmlns="http://www.w3.org/2000/svg">
<path d="M7.18728 7.00508C7.63728 7.00508 7.85728 6.46508 7.53728 6.15508L5.24728 3.85508C5.04728 3.65508 4.73728 3.65508 4.53728 3.85508L2.24728 6.15508C1.93728 6.46508 2.15728 7.00508 2.60728 7.00508H3.89728V17.0051H2.60728C2.15728 17.0051 1.93728 17.5451 2.25728 17.8551L4.54728 20.1451C4.74728 20.3451 5.05728 20.3451 5.25728 20.1451L7.54728 17.8551C7.85728 17.5451 7.63728 17.0051 7.18728 17.0051H5.89728V7.00508H7.18728ZM10.8973 7.00508H20.8973C21.4473 7.00508 21.8973 6.55508 21.8973 6.00508C21.8973 5.45508 21.4473 5.00508 20.8973 5.00508H10.8973C10.3473 5.00508 9.89728 5.45508 9.89728 6.00508C9.89728 6.55508 10.3473 7.00508 10.8973 7.00508ZM20.8973 17.0051H10.8973C10.3473 17.0051 9.89728 17.4551 9.89728 18.0051C9.89728 18.5551 10.3473 19.0051 10.8973 19.0051H20.8973C21.4473 19.0051 21.8973 18.5551 21.8973 18.0051C21.8973 17.4551 21.4473 17.0051 20.8973 17.0051ZM20.8973 11.0051H10.8973C10.3473 11.0051 9.89728 11.4551 9.89728 12.0051C9.89728 12.5551 10.3473 13.0051 10.8973 13.0051H20.8973C21.4473 13.0051 21.8973 12.5551 21.8973 12.0051C21.8973 11.4551 21.4473 11.0051 20.8973 11.0051Z" fill="currentColor"/>
</svg>
