<svg  viewBox="0 0 24 24" fill="none" xmlns="http://www.w3.org/2000/svg">
<path d="M20 18.5H4C2.9 18.5 2 19.4 2 20.5C2 21.6 2.9 22.5 4 22.5H20C21.1 22.5 22 21.6 22 20.5C22 19.4 21.1 18.5 20 18.5Z" fill="currentColor"/>
<path d="M7.11 15.5C7.59 15.5 8.02 15.2 8.17 14.75L9.18 11.92H14.83L15.82 14.74C15.98 15.2 16.41 15.5 16.89 15.5C17.68 15.5 18.22 14.71 17.94 13.98L13.69 2.67C13.43 1.97 12.75 1.5 12 1.5C11.25 1.5 10.57 1.97 10.31 2.67L6.06 13.98C5.78 14.71 6.33 15.5 7.11 15.5ZM11.94 4.1H12.06L14.09 9.89H9.91L11.94 4.1Z" fill="currentColor"/>
</svg>
