<svg width="24" height="24" viewBox="0 0 24 24" fill="none" xmlns="http://www.w3.org/2000/svg">
<path d="M8.5 6C8.5 6.83 9.17 7.5 10 7.5H13.5V18C13.5 18.83 14.17 19.5 15 19.5C15.83 19.5 16.5 18.83 16.5 18V7.5H20C20.83 7.5 21.5 6.83 21.5 6C21.5 5.17 20.83 4.5 20 4.5H10C9.17 4.5 8.5 5.17 8.5 6ZM4 12.5H5.5V18C5.5 18.83 6.17 19.5 7 19.5C7.83 19.5 8.5 18.83 8.5 18V12.5H10C10.83 12.5 11.5 11.83 11.5 11C11.5 10.17 10.83 9.5 10 9.5H4C3.17 9.5 2.5 10.17 2.5 11C2.5 11.83 3.17 12.5 4 12.5Z" fill="black"/>
</svg>
