<svg width="24" height="24" viewBox="0 0 24 24" fill="none" xmlns="http://www.w3.org/2000/svg">
<path d="M19.2912 7.21387C20.1212 7.21387 20.7912 6.54387 20.7912 5.71387C20.7912 4.88387 20.1212 4.21387 19.2912 4.21387H7.18124L10.1812 7.21387H12.0112L11.4612 8.49387L13.5512 10.5839L15.0012 7.21387H19.2912ZM18.2312 18.0939L4.91124 4.77387C4.52124 4.38387 3.89124 4.38387 3.50124 4.77387C3.11124 5.16387 3.11124 5.79387 3.50124 6.18387L9.76124 12.4439L8.11124 16.2839C7.72124 17.2039 8.39124 18.2139 9.38124 18.2139C9.93124 18.2139 10.4312 17.8839 10.6512 17.3739L11.8612 14.5439L16.8112 19.4939C17.2012 19.8839 17.8312 19.8839 18.2212 19.4939C18.6212 19.1139 18.6212 18.4839 18.2312 18.0939Z" fill="black"/>
</svg>
