<svg width="24" height="24" viewBox="0 0 24 24" fill="none" xmlns="http://www.w3.org/2000/svg">
<path d="M8.94 16.3566C9.23 16.6466 9.62 16.7966 10 16.7966C10.38 16.7966 10.77 16.6466 11.06 16.3566L16.56 10.8566C17.15 10.2766 17.15 9.3266 16.56 8.7366L8.32 0.496602C7.93 0.106602 7.3 0.106602 6.91 0.496602C6.52 0.886602 6.52 1.5166 6.91 1.9066L8.59 3.5866L3.44 8.7366C2.85 9.3266 2.85 10.2766 3.44 10.8566L8.94 16.3566ZM10 5.0066L14.79 9.7966H5.21L10 5.0066Z" fill="black"/>
<path d="M19 16.7966C20.1 16.7966 21 15.8966 21 14.7966C21 13.4666 19 11.2966 19 11.2966C19 11.2966 17 13.4666 17 14.7966C17 15.8966 17.9 16.7966 19 16.7966Z" fill="black"/>
<path d="M20 19.7966H4C2.9 19.7966 2 20.6966 2 21.7966C2 22.8966 2.9 23.7966 4 23.7966H20C21.1 23.7966 22 22.8966 22 21.7966C22 20.6966 21.1 19.7966 20 19.7966Z" fill="black"/>
</svg>
