<svg width="24" height="24" viewBox="0 0 24 24" fill="none" xmlns="http://www.w3.org/2000/svg">
<path d="M9.895 10.3525V14.3525C9.895 14.9025 10.345 15.3525 10.895 15.3525C11.445 15.3525 11.895 14.9025 11.895 14.3525V4.35254H13.895V14.3525C13.895 14.9025 14.345 15.3525 14.895 15.3525C15.445 15.3525 15.895 14.9025 15.895 14.3525V4.35254H16.895C17.445 4.35254 17.895 3.90254 17.895 3.35254C17.895 2.80254 17.445 2.35254 16.895 2.35254H10.065C7.975 2.35254 6.115 3.88254 5.915 5.96254C5.685 8.34254 7.555 10.3525 9.895 10.3525ZM7.895 17.3525V15.5625C7.895 15.1125 7.355 14.8925 7.045 15.2125L4.255 18.0025C4.055 18.2025 4.055 18.5125 4.255 18.7125L7.045 21.5025C7.355 21.8125 7.895 21.5925 7.895 21.1425V19.3525H18.895C19.445 19.3525 19.895 18.9025 19.895 18.3525C19.895 17.8025 19.445 17.3525 18.895 17.3525H7.895Z" fill="black"/>
</svg>
