<svg  viewBox="0 0 24 24" fill="none" xmlns="http://www.w3.org/2000/svg">
<path d="M19.605 2.85254H3.60498C2.50498 2.85254 1.60498 3.75254 1.60498 4.85254V16.8525C1.60498 17.9525 2.50498 18.8525 3.60498 18.8525H12.605V16.8525H3.60498V6.85254L10.545 11.1925C11.195 11.6025 12.015 11.6025 12.665 11.1925L19.605 6.85254V11.8525H21.605V4.85254C21.605 3.75254 20.705 2.85254 19.605 2.85254ZM11.605 9.85254L3.60498 4.85254H19.605L11.605 9.85254ZM18.605 15.0625C18.605 14.6125 19.145 14.3925 19.455 14.7125L22.245 17.5025C22.445 17.7025 22.445 18.0125 22.245 18.2125L19.455 21.0025C19.145 21.3125 18.605 21.0925 18.605 20.6425V18.8525H15.605C15.055 18.8525 14.605 18.4025 14.605 17.8525C14.605 17.3025 15.055 16.8525 15.605 16.8525H18.605V15.0625Z" fill="currentColor"/>
</svg>
