<svg  viewBox="0 0 24 24" fill="none" xmlns="http://www.w3.org/2000/svg">
<path d="M18.9533 13.649C18.4533 13.649 18.0433 14.019 17.9733 14.509C17.4933 17.879 14.2033 20.349 10.5533 19.469C8.30332 18.929 6.64332 17.199 6.16332 14.939C5.35332 11.069 8.30332 7.64896 12.0333 7.64896V10.439C12.0333 10.889 12.5733 11.109 12.8833 10.789L16.6733 6.99896C16.8733 6.79896 16.8733 6.48896 16.6733 6.28896L12.8833 2.49896C12.5733 2.18896 12.0333 2.40896 12.0333 2.84896V5.64896C7.09332 5.64896 3.19332 10.129 4.19332 15.249C4.79332 18.359 7.09332 20.749 10.1833 21.439C15.0133 22.519 19.3333 19.239 19.9533 14.769C20.0433 14.179 19.5533 13.649 18.9533 13.649ZM12.5133 15.799C12.4633 15.869 12.4033 15.929 12.3333 15.969C12.2633 16.009 12.1633 16.029 12.0633 16.029C11.8933 16.029 11.7533 15.979 11.6433 15.879C11.5333 15.779 11.4733 15.639 11.4533 15.469H10.6133C10.6233 15.669 10.6633 15.839 10.7433 15.999C10.8233 16.159 10.9333 16.279 11.0633 16.389C11.1933 16.499 11.3533 16.579 11.5233 16.629C11.6933 16.679 11.8733 16.709 12.0533 16.709C12.2933 16.709 12.5133 16.669 12.6933 16.589C12.8733 16.509 13.0233 16.409 13.1433 16.279C13.2633 16.149 13.3533 15.999 13.4133 15.829C13.4733 15.659 13.5033 15.479 13.5033 15.289C13.5033 15.069 13.4733 14.859 13.4133 14.689C13.3533 14.519 13.2733 14.359 13.1633 14.239C13.0533 14.119 12.9133 14.019 12.7533 13.959C12.5933 13.899 12.4133 13.859 12.2033 13.859C12.1333 13.859 12.0633 13.869 12.0033 13.879C11.9433 13.889 11.8733 13.899 11.8233 13.919C11.7733 13.939 11.7233 13.949 11.6733 13.969C11.6233 13.989 11.5933 14.009 11.5633 14.019L11.6733 13.099H13.3733V12.389H10.9833L10.7333 14.559L11.4033 14.729C11.4333 14.699 11.4633 14.669 11.5033 14.639C11.5433 14.609 11.5733 14.589 11.6233 14.569C11.6733 14.549 11.7233 14.529 11.7733 14.519C11.8233 14.509 11.9033 14.499 11.9733 14.499C12.0933 14.499 12.1933 14.519 12.2733 14.549C12.3533 14.579 12.4333 14.639 12.4833 14.699C12.5333 14.759 12.5833 14.839 12.6133 14.939C12.6433 15.039 12.6533 15.129 12.6533 15.249C12.6533 15.369 12.6433 15.469 12.6233 15.559C12.6033 15.649 12.5633 15.729 12.5133 15.799Z" fill="currentColor"/>
</svg>
