<svg  viewBox="0 0 24 24" fill="none" xmlns="http://www.w3.org/2000/svg">
<path d="M18.9534 13.6486C18.4534 13.6486 18.0434 14.0186 17.9734 14.5086C17.4934 17.8786 14.2034 20.3486 10.5534 19.4686C8.30338 18.9286 6.64338 17.1986 6.16338 14.9386C5.35338 11.0686 8.30338 7.64862 12.0334 7.64862V10.4386C12.0334 10.8886 12.5734 11.1086 12.8834 10.7886L16.6734 6.99862C16.8734 6.79862 16.8734 6.48862 16.6734 6.28862L12.8834 2.49862C12.5734 2.18862 12.0334 2.40862 12.0334 2.85862V5.64862C7.09338 5.64862 3.19338 10.1286 4.19338 15.2486C4.79338 18.3586 7.09338 20.7486 10.1834 21.4386C15.0134 22.5186 19.3334 19.2386 19.9534 14.7686C20.0434 14.1786 19.5534 13.6486 18.9534 13.6486ZM10.9334 16.6486V12.3786H10.8434L9.07338 13.0086V13.6986L10.0834 13.3886V16.6486H10.9334ZM14.3534 12.4286C14.1734 12.3586 13.9834 12.3286 13.7634 12.3286C13.5434 12.3286 13.3534 12.3586 13.1734 12.4286C12.9934 12.4986 12.8434 12.6086 12.7234 12.7586C12.6034 12.9086 12.4934 13.0986 12.4334 13.3286C12.3734 13.5586 12.3334 13.8286 12.3334 14.1486V14.8886C12.3334 15.2086 12.3734 15.4886 12.4434 15.7086C12.5134 15.9286 12.6134 16.1286 12.7434 16.2786C12.8734 16.4286 13.0234 16.5386 13.2034 16.6086C13.3834 16.6786 13.5734 16.7086 13.7934 16.7086C14.0134 16.7086 14.2034 16.6786 14.3834 16.6086C14.5634 16.5386 14.7134 16.4286 14.8334 16.2786C14.9534 16.1286 15.0534 15.9386 15.1234 15.7086C15.1934 15.4786 15.2234 15.2086 15.2234 14.8886V14.1486C15.2234 13.8286 15.1834 13.5486 15.1134 13.3286C15.0434 13.1086 14.9434 12.9086 14.8134 12.7586C14.6834 12.6086 14.5234 12.4986 14.3534 12.4286ZM14.3634 14.9986C14.3634 15.1886 14.3534 15.3486 14.3234 15.4786C14.2934 15.6086 14.2634 15.7186 14.2134 15.7986C14.1634 15.8786 14.1034 15.9386 14.0234 15.9686C13.9434 15.9986 13.8634 16.0186 13.7734 16.0186C13.6834 16.0186 13.5934 15.9986 13.5234 15.9686C13.4534 15.9386 13.3834 15.8786 13.3334 15.7986C13.2834 15.7186 13.2434 15.6086 13.2134 15.4786C13.1834 15.3486 13.1734 15.1886 13.1734 14.9986V14.0286C13.1734 13.8386 13.1834 13.6786 13.2134 13.5486C13.2434 13.4186 13.2734 13.3186 13.3334 13.2386C13.3934 13.1586 13.4434 13.0986 13.5234 13.0686C13.6034 13.0386 13.6834 13.0186 13.7734 13.0186C13.8634 13.0186 13.9534 13.0386 14.0234 13.0686C14.0934 13.0986 14.1634 13.1586 14.2134 13.2386C14.2634 13.3186 14.3034 13.4186 14.3334 13.5486C14.3634 13.6786 14.3734 13.8386 14.3734 14.0286V14.9986H14.3634Z" fill="currentColor"/>
</svg>
