<svg width="24" height="24" viewBox="0 0 24 24" fill="none" xmlns="http://www.w3.org/2000/svg">
<path d="M18.9534 13.6486C18.4534 13.6486 18.0434 14.0186 17.9734 14.5086C17.4934 17.8786 14.2034 20.3486 10.5534 19.4686C8.30338 18.9286 6.64338 17.1986 6.16338 14.9386C5.35338 11.0686 8.30338 7.64862 12.0334 7.64862V10.4386C12.0334 10.8886 12.5734 11.1086 12.8834 10.7886L16.6734 6.99862C16.8734 6.79862 16.8734 6.48862 16.6734 6.28862L12.8834 2.49862C12.5734 2.18862 12.0334 2.40862 12.0334 2.85862V5.64862C7.09338 5.64862 3.19338 10.1286 4.19338 15.2486C4.79338 18.3586 7.09338 20.7486 10.1834 21.4386C15.0134 22.5186 19.3334 19.2386 19.9534 14.7686C20.0434 14.1786 19.5534 13.6486 18.9534 13.6486ZM10.5734 15.8686C10.5134 15.9186 10.4534 15.9586 10.3734 15.9886C10.2934 16.0186 10.2034 16.0286 10.1034 16.0286C10.0134 16.0286 9.93338 16.0186 9.85338 15.9886C9.77338 15.9586 9.71338 15.9286 9.65338 15.8786C9.59338 15.8286 9.55338 15.7786 9.52338 15.7086C9.49338 15.6386 9.47338 15.5686 9.47338 15.4886H8.62338C8.62338 15.6986 8.66338 15.8786 8.74338 16.0386C8.82338 16.1986 8.93338 16.3186 9.07338 16.4186C9.21338 16.5186 9.36338 16.5986 9.53338 16.6486C9.70338 16.6986 9.88338 16.7186 10.0634 16.7186C10.2734 16.7186 10.4734 16.6886 10.6634 16.6386C10.8534 16.5886 11.0034 16.4986 11.1434 16.3986C11.2834 16.2986 11.3834 16.1586 11.4634 16.0086C11.5434 15.8586 11.5834 15.6786 11.5834 15.4786C11.5834 15.2486 11.5234 15.0386 11.4034 14.8686C11.2834 14.6986 11.1034 14.5686 10.8634 14.4786C10.9634 14.4286 11.0634 14.3786 11.1434 14.3086C11.2234 14.2386 11.2934 14.1686 11.3434 14.0886C11.3934 14.0086 11.4434 13.9286 11.4734 13.8386C11.5034 13.7486 11.5134 13.6586 11.5134 13.5686C11.5134 13.3686 11.4734 13.1986 11.4034 13.0386C11.3334 12.8786 11.2334 12.7586 11.1034 12.6586C10.9734 12.5586 10.8234 12.4786 10.6434 12.4286C10.4634 12.3786 10.2734 12.3486 10.0534 12.3486C9.86338 12.3486 9.67338 12.3786 9.51338 12.4286C9.35338 12.4786 9.19338 12.5586 9.07338 12.6586C8.95338 12.7586 8.84338 12.8786 8.77338 13.0286C8.70338 13.1786 8.66338 13.3286 8.66338 13.5086H9.51338C9.51338 13.4386 9.53338 13.3686 9.56338 13.3086C9.59338 13.2486 9.63338 13.1986 9.68338 13.1586C9.73338 13.1186 9.79338 13.0886 9.86338 13.0586C9.93338 13.0286 10.0034 13.0286 10.0834 13.0286C10.1834 13.0286 10.2634 13.0386 10.3334 13.0686C10.4034 13.0986 10.4634 13.1286 10.5134 13.1786C10.5634 13.2286 10.5934 13.2886 10.6234 13.3486C10.6534 13.4086 10.6634 13.4886 10.6634 13.5686C10.6634 13.7486 10.6134 13.8886 10.5034 13.9986C10.3934 14.1086 10.2434 14.1586 10.0234 14.1586H9.59338V14.8186H10.0434C10.1534 14.8186 10.2434 14.8286 10.3334 14.8586C10.4234 14.8886 10.4934 14.9186 10.5534 14.9686C10.6134 15.0186 10.6634 15.0886 10.6934 15.1686C10.7234 15.2486 10.7434 15.3486 10.7434 15.4586C10.7434 15.5486 10.7334 15.6286 10.7034 15.6986C10.6734 15.7686 10.6234 15.8086 10.5734 15.8686ZM14.4734 12.4286C14.2934 12.3586 14.1034 12.3286 13.8834 12.3286C13.6634 12.3286 13.4734 12.3586 13.2934 12.4286C13.1134 12.4986 12.9634 12.6086 12.8434 12.7586C12.7234 12.9086 12.6134 13.0986 12.5534 13.3286C12.4934 13.5586 12.4534 13.8286 12.4534 14.1486V14.8886C12.4534 15.2086 12.4934 15.4886 12.5634 15.7086C12.6334 15.9286 12.7334 16.1286 12.8634 16.2786C12.9934 16.4286 13.1434 16.5386 13.3234 16.6086C13.5034 16.6786 13.6934 16.7086 13.9134 16.7086C14.1334 16.7086 14.3234 16.6786 14.5034 16.6086C14.6834 16.5386 14.8334 16.4286 14.9534 16.2786C15.0734 16.1286 15.1734 15.9386 15.2434 15.7086C15.3134 15.4786 15.3434 15.2086 15.3434 14.8886V14.1486C15.3434 13.8286 15.3034 13.5486 15.2334 13.3286C15.1634 13.1086 15.0634 12.9086 14.9334 12.7586C14.8034 12.6086 14.6534 12.4986 14.4734 12.4286ZM14.4834 14.9986C14.4834 15.1886 14.4734 15.3486 14.4434 15.4786C14.4134 15.6086 14.3834 15.7186 14.3334 15.7986C14.2834 15.8786 14.2234 15.9386 14.1434 15.9686C14.0634 15.9986 13.9834 16.0186 13.8934 16.0186C13.8034 16.0186 13.7134 15.9986 13.6434 15.9686C13.5734 15.9386 13.5034 15.8786 13.4534 15.7986C13.4034 15.7186 13.3634 15.6086 13.3334 15.4786C13.3034 15.3486 13.2934 15.1886 13.2934 14.9986V14.0286C13.2934 13.8386 13.3034 13.6786 13.3334 13.5486C13.3634 13.4186 13.3934 13.3186 13.4534 13.2386C13.5134 13.1586 13.5634 13.0986 13.6434 13.0686C13.7234 13.0386 13.8034 13.0186 13.8934 13.0186C13.9834 13.0186 14.0734 13.0386 14.1434 13.0686C14.2134 13.0986 14.2834 13.1586 14.3334 13.2386C14.3834 13.3186 14.4234 13.4186 14.4534 13.5486C14.4834 13.6786 14.4934 13.8386 14.4934 14.0286V14.9986H14.4834Z" fill="black"/>
</svg>
