<svg viewBox="0 0 24 24" fill="none" xmlns="http://www.w3.org/2000/svg">
<path d="M18.9978 12.3269H20.6978C21.1578 12.3269 21.3778 11.7569 21.0278 11.4569L12.6678 3.92687C12.2878 3.58687 11.7078 3.58687 11.3278 3.92687L2.96778 11.4569C2.62778 11.7569 2.83778 12.3269 3.29778 12.3269H4.99778V15.3269H3.99778C3.44778 15.3269 2.99778 15.7769 2.99778 16.3269C2.99778 16.8769 3.44778 17.3269 3.99778 17.3269H4.99778V19.3269C4.99778 19.8769 5.44778 20.3269 5.99778 20.3269C6.54778 20.3269 6.99778 19.8769 6.99778 19.3269V17.3269H10.9978V19.3269C10.9978 19.8769 11.4478 20.3269 11.9978 20.3269C12.5478 20.3269 12.9978 19.8769 12.9978 19.3269V17.3269H16.9978V19.3269C16.9978 19.8769 17.4478 20.3269 17.9978 20.3269C18.5478 20.3269 18.9978 19.8769 18.9978 19.3269V17.3269H19.9978C20.5478 17.3269 20.9978 16.8769 20.9978 16.3269C20.9978 15.7769 20.5478 15.3269 19.9978 15.3269H18.9978V12.3269ZM6.99778 15.3269V10.5169L10.9978 6.91688V15.3269H6.99778ZM12.9978 15.3269V6.91688L16.9978 10.5169V15.3269H12.9978Z" fill="currentColor"/>
</svg>
