<svg width="24" height="24" viewBox="0 0 24 24" fill="none" xmlns="http://www.w3.org/2000/svg">
<path d="M10.4038 19.9637H4.61377V9.96375H18.6138V12.9237C18.6138 13.8137 19.6938 14.2637 20.3238 13.6337C20.5138 13.4437 20.6138 13.1937 20.6138 12.9237V5.96375C20.6138 4.86375 19.7138 3.96375 18.6138 3.96375H17.6138V2.96375C17.6138 2.41375 17.1638 1.96375 16.6138 1.96375C16.0638 1.96375 15.6138 2.41375 15.6138 2.96375V3.96375H7.61377V2.96375C7.61377 2.41375 7.16377 1.96375 6.61377 1.96375C6.06377 1.96375 5.61377 2.41375 5.61377 2.96375V3.96375H4.61377C3.50377 3.96375 2.62377 4.86375 2.62377 5.96375L2.61377 19.9637C2.61377 21.0637 3.50377 21.9637 4.61377 21.9637H10.4038C11.2938 21.9637 11.7438 20.8837 11.1138 20.2537C10.9238 20.0737 10.6738 19.9637 10.4038 19.9637ZM13.3238 18.2237C13.7138 17.8337 14.3438 17.8337 14.7338 18.2237L16.1438 19.6337L19.6838 16.0937C20.0738 15.7037 20.7038 15.7037 21.0938 16.0937C21.4838 16.4837 21.4838 17.1137 21.0938 17.5037L16.8538 21.7437C16.4638 22.1337 15.8338 22.1337 15.4438 21.7437L13.3238 19.6237C12.9338 19.2437 12.9338 18.6137 13.3238 18.2237ZM10.9038 16.2537C10.5138 16.6437 9.88377 16.6437 9.49377 16.2537L8.61377 15.3737L7.73377 16.2537C7.34377 16.6437 6.71377 16.6437 6.32377 16.2537C5.93377 15.8637 5.93377 15.2337 6.32377 14.8437L7.20377 13.9637L6.32377 13.0837C5.93377 12.6937 5.93377 12.0637 6.32377 11.6737C6.71377 11.2837 7.34377 11.2837 7.73377 11.6737L8.61377 12.5537L9.49377 11.6737C9.88377 11.2837 10.5138 11.2837 10.9038 11.6737C11.2938 12.0637 11.2938 12.6937 10.9038 13.0837L10.0238 13.9637L10.9038 14.8437C11.2938 15.2337 11.2938 15.8637 10.9038 16.2537Z" fill="black"/>
</svg>
