<svg  viewBox="0 0 24 24" fill="none" xmlns="http://www.w3.org/2000/svg">
<path d="M17.75 14.5C17.75 14.78 17.53 15 17.25 15C15.74 15 14.48 16.12 14.28 17.58C14.25 17.82 14.03 18 13.79 18C13.49 18 13.25 17.73 13.29 17.43C13.55 15.66 14.97 14.26 16.75 14.03V3.25C16.75 2.56 16.19 2 15.5 2C14.81 2 14.25 2.56 14.25 3.25V10.5C14.25 10.78 14.03 11 13.75 11C13.47 11 13.25 10.78 13.25 10.5V1.25C13.25 0.56 12.69 0 12 0C11.31 0 10.75 0.56 10.75 1.25V10.5C10.75 10.78 10.53 11 10.25 11C9.97 11 9.75 10.78 9.75 10.5V2.75C9.75 2.06 9.19 1.5 8.5 1.5C7.81 1.5 7.25 2.06 7.25 2.75V11.5C7.25 11.78 7.03 12 6.75 12C6.47 12 6.25 11.78 6.25 11.5V5.75C6.25 5.06 5.69 4.5 5 4.5C4.31 4.5 3.75 5.06 3.75 5.75V15.75C3.75 20.31 7.44 24 12 24C16.56 24 20.25 20.31 20.25 15.75V9.25C20.25 8.56 19.69 8 19 8C18.31 8 17.75 8.56 17.75 9.25V14.5Z" fill="currentColor"/>
</svg>
