<svg  viewBox="0 0 24 24" fill="none" xmlns="http://www.w3.org/2000/svg">
<path d="M2.8075 20.5868H12.8075C13.3575 20.5868 13.8075 21.0368 13.8075 21.5868C13.8075 22.1368 13.3575 22.5868 12.8075 22.5868H2.8075C2.2575 22.5868 1.8075 22.1368 1.8075 21.5868C1.8075 21.0368 2.2575 20.5868 2.8075 20.5868ZM6.04749 7.65684L8.87749 4.82684L21.6075 17.5568C22.3875 18.3368 22.3875 19.6068 21.6075 20.3868C20.8275 21.1668 19.5575 21.1668 18.7775 20.3868L6.04749 7.65684ZM14.5375 1.99684L17.3675 4.82684C18.1475 5.60684 18.1475 6.87684 17.3675 7.65684L15.9475 9.07684L10.2975 3.41684L11.7075 2.00684C12.4875 1.21684 13.7575 1.21684 14.5375 1.99684ZM4.6375 9.06684L10.2975 14.7268L8.8875 16.1368C8.1075 16.9168 6.83749 16.9168 6.0575 16.1368L3.2275 13.3068C2.4475 12.5268 2.4475 11.2568 3.2275 10.4768L4.6375 9.06684Z" fill="currentColor"/>
</svg>
