<svg width="24" height="24" viewBox="0 0 24 24" fill="none" xmlns="http://www.w3.org/2000/svg">
<path d="M9.35376 4.00002C4.93376 4.00002 1.35376 7.58002 1.35376 12C1.35376 16.42 4.93376 20 9.35376 20C13.7738 20 17.3538 16.42 17.3538 12C17.3538 7.58002 13.7738 4.00002 9.35376 4.00002ZM9.35376 15.5C8.80376 15.5 8.35376 15.05 8.35376 14.5V10.5H7.10376C6.69376 10.5 6.35376 10.16 6.35376 9.75002C6.35376 9.34002 6.69376 9.00002 7.10376 9.00002H11.6038C12.0138 9.00002 12.3538 9.34002 12.3538 9.75002C12.3538 10.16 12.0138 10.5 11.6038 10.5H10.3538V14.5C10.3538 15.05 9.90376 15.5 9.35376 15.5ZM20.6038 3.75002L22.3538 4.54002C22.7438 4.72002 22.7438 5.27002 22.3538 5.45002L20.6038 6.24002L19.8138 8.00002C19.6338 8.39002 19.0838 8.39002 18.9038 8.00002L18.1138 6.25002L16.3538 5.46002C15.9638 5.28002 15.9638 4.73002 16.3538 4.55002L18.1038 3.76002L18.8938 2.00002C19.0738 1.61002 19.6238 1.61002 19.8038 2.00002L20.6038 3.75002ZM20.6038 17.75L22.3538 18.54C22.7438 18.72 22.7438 19.27 22.3538 19.45L20.6038 20.24L19.8138 22C19.6338 22.39 19.0838 22.39 18.9038 22L18.1138 20.25L16.3538 19.46C15.9638 19.28 15.9638 18.73 16.3538 18.55L18.1038 17.76L18.8938 16C19.0738 15.61 19.6238 15.61 19.8038 16L20.6038 17.75Z" fill="black"/>
</svg>
