<svg width="24" height="24" viewBox="0 0 24 24" fill="none" xmlns="http://www.w3.org/2000/svg">
<path d="M3.65001 6.04977C4.12001 6.50977 4.86001 6.52977 5.36001 6.10977C5.73001 5.78977 6.05001 5.59977 6.23001 5.67977C6.73001 5.87977 6.23001 6.70977 5.93001 7.19977C5.68001 7.61977 3.07001 11.0898 3.07001 13.5098C3.07001 14.7898 3.55001 15.8498 4.41001 16.4898C5.16001 17.0498 6.15001 17.2198 7.05001 16.9498C8.12001 16.6398 9.00001 15.5498 10.11 14.1798C11.32 12.6898 12.94 10.7398 14.19 10.7398C15.82 10.7398 15.84 11.7498 15.95 12.5298C12.17 13.1698 10.57 16.1998 10.57 17.8998C10.57 19.5998 12.01 20.9898 13.78 20.9898C15.41 20.9898 18.07 19.6598 18.47 14.8898H19.68C20.37 14.8898 20.93 14.3298 20.93 13.6398C20.93 12.9498 20.37 12.3898 19.68 12.3898H18.46C18.31 10.7398 17.37 8.18977 14.43 8.18977C12.18 8.18977 10.25 10.0998 9.49001 11.0298C8.91001 11.7598 7.43001 13.5098 7.20001 13.7498C6.95001 14.0498 6.52001 14.5898 6.09001 14.5898C5.64001 14.5898 5.37001 13.7598 5.73001 12.6698C6.08001 11.5798 7.13001 9.80977 7.58001 9.14977C8.36001 8.00977 8.88001 7.22977 8.88001 5.86977C8.88001 3.69977 7.24001 3.00977 6.37001 3.00977C5.28001 3.00977 4.33001 3.63977 3.67001 4.22977C3.14001 4.70977 3.14001 5.54977 3.65001 6.04977ZM13.81 18.5598C13.5 18.5598 13.07 18.2998 13.07 17.8398C13.07 17.2398 13.8 15.6398 15.94 15.0798C15.64 17.7698 14.51 18.5598 13.81 18.5598Z" fill="black"/>
</svg>
