<svg viewBox="0 0 24 24" fill="none" xmlns="http://www.w3.org/2000/svg">
<path d="M19 20.6988C19.8284 20.6988 20.5 20.0272 20.5 19.1988C20.5 18.3704 19.8284 17.6988 19 17.6988C18.1716 17.6988 17.5 18.3704 17.5 19.1988C17.5 20.0272 18.1716 20.6988 19 20.6988Z" fill="currentColor"/>
<path d="M10.5 17.7288V8.67878L14.72 6.52878C15.45 6.15878 15.45 5.09878 14.71 4.73878L9.95 2.40878C9.28 2.07878 8.5 2.55878 8.5 3.29878V18.6988C8.5 19.2488 8.05 19.6988 7.5 19.6988C6.95 19.6988 6.5 19.2488 6.5 18.6988V17.9688C4.71 18.3188 3.5 18.9588 3.5 19.6988C3.5 20.7988 6.19 21.6988 9.5 21.6988C12.81 21.6988 15.5 20.7988 15.5 19.6988C15.5 18.7088 13.34 17.8888 10.5 17.7288Z" fill="currentColor"/>
</svg>
