<svg width="24" height="24" viewBox="0 0 24 24" fill="none" xmlns="http://www.w3.org/2000/svg">
<path d="M11.3 2.19268L5.3 4.44268C4.52 4.74268 4 5.48268 4 6.32268V11.0227C4 16.0727 7.41 20.7827 12 21.9327C16.59 20.7827 20 16.0727 20 11.0227V6.32268C20 5.49268 19.48 4.74268 18.7 4.45268L12.7 2.20268C12.25 2.02268 11.75 2.02268 11.3 2.19268ZM12 15.9327C11.45 15.9327 11 15.4827 11 14.9327C11 14.3827 11.45 13.9327 12 13.9327C12.55 13.9327 13 14.3827 13 14.9327C13 15.4827 12.55 15.9327 12 15.9327ZM12 11.9327C11.45 11.9327 11 11.4827 11 10.9327V7.93268C11 7.38268 11.45 6.93268 12 6.93268C12.55 6.93268 13 7.38268 13 7.93268V10.9327C13 11.4827 12.55 11.9327 12 11.9327Z" fill="black"/>
</svg>
