<svg width="24" height="24" viewBox="0 0 24 24" fill="none" xmlns="http://www.w3.org/2000/svg">
<path d="M18.7 4.46539L12.7 2.21539C12.25 2.04539 11.75 2.04539 11.3 2.21539L5.3 4.46539C4.52 4.76539 4 5.50539 4 6.34539V11.0454C4 15.9854 7.27 20.6154 11.71 21.8754C11.9 21.9254 12.1 21.9254 12.28 21.8754C16.73 20.6154 20 15.9854 20 11.0454V6.34539C20 5.50539 19.48 4.76539 18.7 4.46539ZM14.8 14.7454C14.41 15.1354 13.78 15.1354 13.39 14.7554L12 13.3754L10.61 14.7554C10.22 15.1454 9.59 15.1454 9.2 14.7554C8.81 14.3654 8.81 13.7354 9.2 13.3454L10.59 11.9554L9.2 10.5654C8.81 10.1754 8.81 9.54539 9.2 9.15539C9.59 8.76539 10.22 8.76539 10.61 9.15539L12 10.5454L13.39 9.15539C13.78 8.76539 14.41 8.76539 14.8 9.15539C15.19 9.54539 15.19 10.1754 14.8 10.5654L13.42 11.9554L14.8 13.3354C15.19 13.7254 15.19 14.3554 14.8 14.7454Z" fill="black"/>
</svg>
