<svg width="24" height="24" viewBox="0 0 24 24" fill="none" xmlns="http://www.w3.org/2000/svg">
<path d="M11.3 2.1878L5.3 4.4378C4.52 4.7378 4 5.4778 4 6.3178V11.0278C4 16.0778 7.41 20.7878 12 21.9378C16.59 20.7878 20 16.0778 20 11.0278V6.3178C20 5.4878 19.48 4.7378 18.7 4.4478L12.7 2.1978C12.25 2.0178 11.75 2.0178 11.3 2.1878ZM10.23 14.7578L8.11 12.6378C7.72 12.2478 7.72 11.6178 8.11 11.2278C8.5 10.8378 9.13 10.8378 9.52 11.2278L10.93 12.6378L14.47 9.0978C14.86 8.7078 15.49 8.7078 15.88 9.0978C16.27 9.4878 16.27 10.1178 15.88 10.5078L11.64 14.7478C11.26 15.1478 10.62 15.1478 10.23 14.7578Z" fill="black"/>
</svg>
