<svg viewBox="0 0 24 24" fill="none" xmlns="http://www.w3.org/2000/svg">
<path d="M8.56504 3.43004V4.32004L10.565 6.32004V3.43004H14.565V7.43004H11.675L13.675 9.43004H14.565V10.32L16.565 12.32V9.43004H20.565V13.43H17.675L19.675 15.43H20.565V16.32L22.565 18.32V3.43004C22.565 2.33004 21.665 1.43004 20.565 1.43004H5.67504L7.67504 3.43004H8.56504ZM16.565 3.43004H19.565C20.115 3.43004 20.565 3.88004 20.565 4.43004V7.43004H16.565V3.43004ZM22.725 21.31L2.68504 1.27004C2.29504 0.880039 1.66504 0.880039 1.27504 1.27004C0.885044 1.66004 0.885044 2.29004 1.27504 2.68004L2.56504 3.98004V19.43C2.56504 20.53 3.46504 21.43 4.56504 21.43H20.015L21.315 22.73C21.705 23.12 22.335 23.12 22.725 22.73C23.115 22.34 23.115 21.7 22.725 21.31ZM10.565 11.98L12.015 13.43H10.565V11.98ZM4.56504 5.98004L6.01504 7.43004H4.56504V5.98004ZM8.56504 19.43H5.56504C5.01504 19.43 4.56504 18.98 4.56504 18.43V15.43H8.56504V19.43ZM8.56504 13.43H4.56504V9.43004H8.01504L8.56504 9.98004V13.43ZM14.565 19.43H10.565V15.43H14.015L14.565 15.98V19.43ZM16.565 19.43V17.98L18.015 19.43H16.565Z" fill="currentColor"/>
</svg>
