<svg  viewBox="0 0 24 24" fill="none" xmlns="http://www.w3.org/2000/svg">
<path d="M15 7.295C15 5.875 14.5 4.565 13.67 3.535C14.09 3.395 14.53 3.295 15 3.295C17.21 3.295 19 5.085 19 7.295C19 9.505 17.21 11.295 15 11.295C14.94 11.295 14.88 11.295 14.82 11.295L14.05 10.525C14.65 9.585 15 8.475 15 7.295ZM7.24 3.705C7.77 3.445 8.37 3.295 9 3.295C11.21 3.295 13 5.085 13 7.295C13 7.925 12.85 8.525 12.59 9.055L7.24 3.705ZM21.19 20.485C21.58 20.875 21.58 21.505 21.19 21.895C20.8 22.285 20.17 22.285 19.78 21.895L16.79 18.905C16.6 19.145 16.32 19.295 16 19.295H2C1.45 19.295 1 18.845 1 18.295V16.295C1 13.635 6.33 12.295 9 12.295C9.37 12.295 9.8 12.325 10.25 12.375L9.17 11.295C9.11 11.295 9.06 11.295 9 11.295C6.79 11.295 5 9.505 5 7.295C5 7.235 5 7.185 5 7.125L1.39 3.515C1 3.125 1 2.495 1.39 2.105C1.78 1.715 2.41 1.715 2.8 2.105L21.19 20.485ZM18.89 15.365C18.6 14.145 17.76 13.175 16.66 12.425C19.42 12.825 23 14.115 23 16.295V18.295C23 18.615 22.85 18.895 22.62 19.085L18.89 15.365Z" fill="currentColor"/>
</svg>
