<svg width="24" height="24" viewBox="0 0 24 24" fill="none" xmlns="http://www.w3.org/2000/svg">
<path d="M11 11H5V8C5 7.45 4.55 7 4 7C3.45 7 3 7.45 3 8V16C3 16.55 3.45 17 4 17C4.55 17 5 16.55 5 16V13H11V16C11 16.55 11.45 17 12 17C12.55 17 13 16.55 13 16V8C13 7.45 12.55 7 12 7C11.45 7 11 7.45 11 8V11ZM20 11H19V10C19 9.45 18.55 9 18 9C17.45 9 17 9.45 17 10V11H16C15.45 11 15 11.45 15 12C15 12.55 15.45 13 16 13H17V14C17 14.55 17.45 15 18 15C18.55 15 19 14.55 19 14V13H20C20.55 13 21 12.55 21 12C21 11.45 20.55 11 20 11Z" fill="black"/>
</svg>
