<svg  viewBox="0 0 24 24" fill="none" xmlns="http://www.w3.org/2000/svg">
<path d="M12.5224 6C11.4224 6 10.5224 5.1 10.5224 4C10.5224 2.9 11.4224 2 12.5224 2C13.6224 2 14.5224 2.9 14.5224 4C14.5224 5.1 13.6224 6 12.5224 6ZM18.4724 2C19.0624 2 19.5324 2.51 19.4724 3.09C19.4524 3.24 19.2624 7.15 15.5224 8.4V21C15.5224 21.55 15.0724 22 14.5224 22C13.9724 22 13.5224 21.55 13.5224 21V16H11.5224V21C11.5224 21.55 11.0724 22 10.5224 22C9.97241 22 9.52242 21.55 9.52242 21V10.1C9.22241 10.2 9.02241 10.3 8.92241 10.4C8.46241 10.76 7.75242 11.27 7.56242 13.07C7.51242 13.59 7.09242 14 6.56242 14C5.98242 14 5.51242 13.51 5.56242 12.93C5.69242 11.33 6.18242 9.95 7.63242 8.71C8.73242 7.81 10.5224 7 12.5224 7C14.5224 7 15.2024 6.54 16.0024 5.94C16.4324 5.6 17.2824 4.95 17.4824 2.92C17.5324 2.4 17.9524 2 18.4724 2ZM5.52242 16H6.52242C7.07242 16 7.52242 16.45 7.52242 17V21C7.52242 21.55 7.07242 22 6.52242 22H5.52242C4.97242 22 4.52242 21.55 4.52242 21V17C4.52242 16.45 4.97242 16 5.52242 16Z" fill="currentColor"/>
</svg>
