<svg viewBox="0 0 24 24" fill="none" xmlns="http://www.w3.org/2000/svg">
<path d="M17.9994 13.6992V12.4492H19.0994L19.8194 14.0392C19.9294 14.2892 20.1794 14.4492 20.4494 14.4492C20.9494 14.4492 21.2794 13.9392 21.0894 13.4892L20.5994 12.3492C21.0994 12.0492 21.4994 11.5492 21.4994 10.9492V9.94922C21.4994 9.11922 20.8294 8.44922 19.9994 8.44922H17.4994C16.9494 8.44922 16.4994 8.89922 16.4994 9.44922V13.3492L17.5394 14.3892C17.8094 14.2792 17.9994 14.0092 17.9994 13.6992ZM17.9994 9.94922H19.9994V10.9492H17.9994V9.94922ZM13.4994 9.94922V10.3492L14.9994 11.8492V9.94922C14.9994 9.12922 14.3194 8.44922 13.4994 8.44922H11.5994L13.0994 9.94922H13.4994ZM21.5294 20.4792L3.52936 2.47922C3.23936 2.18922 2.76936 2.18922 2.47936 2.47922C2.18936 2.76922 2.18936 3.23922 2.47936 3.52922L7.45936 8.50922C7.18936 8.61922 6.99936 8.88922 6.99936 9.19922V10.4492H4.99936V9.19922C4.99936 8.78922 4.65936 8.44922 4.24936 8.44922C3.83936 8.44922 3.49936 8.78922 3.49936 9.19922V13.6992C3.49936 14.1092 3.83936 14.4492 4.24936 14.4492C4.65936 14.4492 4.99936 14.1092 4.99936 13.6992V11.9492H6.99936V13.6992C6.99936 14.1092 7.33936 14.4492 7.74936 14.4492C8.15936 14.4492 8.49936 14.1092 8.49936 13.6992V9.54922L9.99936 11.0492V13.9492C9.99936 14.2292 10.2194 14.4492 10.4994 14.4492H12.9994C13.1194 14.4492 13.2394 14.4392 13.3594 14.4092L20.4694 21.5192C20.7594 21.8092 21.2294 21.8092 21.5194 21.5192C21.8094 21.2392 21.8094 20.7692 21.5294 20.4792Z" fill="currentColor"/>
</svg>
