<svg  viewBox="0 0 24 24" fill="none" xmlns="http://www.w3.org/2000/svg">
<path d="M18 18.5062V17.5062C18 16.6762 17.33 16.0062 16.5 16.0062H14C13.45 16.0062 13 16.4562 13 17.0062V21.3162C13 21.6962 13.31 22.0062 13.69 22.0062H13.8C14.18 22.0062 14.49 21.6962 14.49 21.3162V20.0062H15.59L16.31 21.5962C16.42 21.8462 16.67 22.0062 16.94 22.0062C17.44 22.0062 17.77 21.4962 17.58 21.0362L17.1 19.9062C17.6 19.6062 18 19.1062 18 18.5062ZM16.5 18.5062H14.5V17.5062H16.5V18.5062ZM3.5 18.0062H1.5V16.7562C1.5 16.3462 1.16 16.0062 0.75 16.0062C0.34 16.0062 0 16.3462 0 16.7562V21.2562C0 21.6662 0.34 22.0062 0.75 22.0062C1.16 22.0062 1.5 21.6662 1.5 21.2562V19.5062H3.5V21.2562C3.5 21.6662 3.84 22.0062 4.25 22.0062C4.66 22.0062 5 21.6662 5 21.2562V16.7562C5 16.3462 4.66 16.0062 4.25 16.0062C3.84 16.0062 3.5 16.3462 3.5 16.7562V18.0062ZM10 16.0062H7.5C6.95 16.0062 6.5 16.4562 6.5 17.0062V21.0062C6.5 21.5562 6.95 22.0062 7.5 22.0062H10C10.82 22.0062 11.5 21.3362 11.5 20.5062V17.5062C11.5 16.6762 10.82 16.0062 10 16.0062ZM10 20.5062H8V17.5062H10V20.5062ZM23.25 20.0062H22V21.2562C22 21.6662 21.66 22.0062 21.25 22.0062C20.84 22.0062 20.5 21.6662 20.5 21.2562V20.0062H19.25C18.84 20.0062 18.5 19.6662 18.5 19.2562C18.5 18.8462 18.84 18.5062 19.25 18.5062H20.5V17.2562C20.5 16.8462 20.84 16.5062 21.25 16.5062C21.66 16.5062 22 16.8462 22 17.2562V18.5062H23.25C23.66 18.5062 24 18.8462 24 19.2562C24 19.6662 23.66 20.0062 23.25 20.0062ZM10.98 4.15624L9.42 2.59624C14.52 0.176235 19.83 5.48624 17.41 10.5862L15.85 9.02624C16.66 6.06624 13.94 3.34624 10.98 4.15624ZM5.63 3.05624C5.24 3.44624 5.24 4.07624 5.63 4.46624L6.59 5.42624C4.17 10.5262 9.47 15.8362 14.58 13.4162L15.53 14.3662C15.92 14.7562 16.55 14.7562 16.94 14.3662C17.33 13.9762 17.33 13.3462 16.94 12.9562L7.04 3.04624C6.66 2.66624 6.02 2.66624 5.63 3.05624ZM8.15 6.98624L13.02 11.8562C10.06 12.6662 7.34 9.94624 8.15 6.98624Z" fill="currentColor"/>
</svg>
