<svg width="24" height="24" viewBox="0 0 24 24" fill="none" xmlns="http://www.w3.org/2000/svg">
<path d="M11.4 2.5195C6.62 2.8295 3 7.0195 3 11.8095V18.4995C3 20.1595 4.34 21.4995 6 21.4995H7C8.1 21.4995 9 20.5995 9 19.4995V15.4995C9 14.3995 8.1 13.4995 7 13.4995H5V11.7895C5 7.9495 7.96 4.6095 11.79 4.4995C15.76 4.3895 19 7.5595 19 11.4995V13.4995H17C15.9 13.4995 15 14.3995 15 15.4995V19.4995C15 20.5995 15.9 21.4995 17 21.4995H18C19.66 21.4995 21 20.1595 21 18.4995V11.4995C21 6.3295 16.64 2.1795 11.4 2.5195Z" fill="black"/>
</svg>
