<svg  viewBox="0 0 24 24" fill="none" xmlns="http://www.w3.org/2000/svg">
<path d="M12.7094 3.5C16.5794 3.5 19.7094 6.63 19.7094 10.5V11.5H17.7094C17.1094 11.5 16.5794 11.77 16.2194 12.18L21.7094 17.67V10.5C21.7094 5.53 17.6794 1.5 12.7094 1.5C10.6894 1.5 8.82937 2.17 7.32937 3.3L8.75937 4.73C9.87937 3.95 11.2394 3.5 12.7094 3.5Z" fill="currentColor"/>
<path d="M21.8994 20.69L3.51937 2.31C3.12937 1.92 2.49937 1.92 2.10937 2.31C1.70937 2.7 1.70937 3.33 2.09937 3.72L4.72937 6.35C4.07937 7.59 3.70937 9 3.70937 10.5V17.5C3.70937 18.6 4.60937 19.5 5.70937 19.5H7.70937C8.80937 19.5 9.70937 18.6 9.70937 17.5V13.5C9.70937 12.4 8.80937 11.5 7.70937 11.5H5.70937V10.5C5.70937 9.56 5.89937 8.67 6.22937 7.85L15.7094 17.33V17.5C15.7094 18.6 16.6094 19.5 17.7094 19.5H17.8794L18.8794 20.5H13.7094C13.1594 20.5 12.7094 20.95 12.7094 21.5C12.7094 22.05 13.1594 22.5 13.7094 22.5H19.7094C20.0694 22.5 20.3894 22.4 20.6794 22.24C21.0594 22.47 21.5694 22.44 21.8994 22.11C22.2894 21.72 22.2894 21.08 21.8994 20.69Z" fill="currentColor"/>
</svg>
