<svg  viewBox="0 0 24 24" fill="none" xmlns="http://www.w3.org/2000/svg">
<path d="M17.5562 3.3647C17.2362 2.9747 17.2662 2.4047 17.6262 2.0447L17.6362 2.0347C18.0562 1.6147 18.7562 1.6547 19.1262 2.1147C20.6662 4.0047 21.5962 6.4247 21.5962 9.0647C21.5962 11.6347 20.7062 14.0047 19.2362 15.8747L17.8062 14.4447C18.9262 12.9447 19.5962 11.0847 19.5962 9.0647C19.5962 6.8947 18.8262 4.9047 17.5562 3.3647ZM8.08625 4.7247C8.82625 4.3047 9.67625 4.0647 10.5962 4.0647C13.3962 4.0647 15.5962 6.2647 15.5962 9.0647C15.5962 9.8647 15.3662 10.7547 14.9662 11.6047L16.4462 13.0847C16.4662 13.0447 16.4962 13.0047 16.5262 12.9547C17.2162 11.7147 17.5962 10.3247 17.5962 9.0647C17.5962 5.1347 14.5262 2.0647 10.5962 2.0647C9.10625 2.0647 7.74625 2.5047 6.62625 3.2647L8.08625 4.7247ZM10.5962 6.5647C10.3862 6.5647 10.1962 6.5947 10.0062 6.6447L13.0162 9.6547C13.0662 9.4647 13.0962 9.2747 13.0962 9.0647C13.0962 7.6847 11.9762 6.5647 10.5962 6.5647ZM21.0862 20.5547L4.10625 3.5747C3.71625 3.1847 3.08625 3.1847 2.69625 3.5747C2.30625 3.9647 2.30625 4.5947 2.69625 4.9847L4.11625 6.4047C3.91625 6.8947 3.76625 7.4047 3.68625 7.9447C3.58625 8.5347 4.06625 9.0647 4.65625 9.0647H4.69625C5.17625 9.0647 5.58625 8.7147 5.65625 8.2447C5.67625 8.1647 5.69625 8.0847 5.71625 8.0147L12.3362 14.6347C11.4562 15.3147 10.5562 16.0447 10.0662 17.5347C9.56625 19.0347 9.06625 19.5447 8.35625 19.9147C8.15625 20.0047 7.88625 20.0647 7.59625 20.0647C6.71625 20.0647 5.96625 19.4847 5.69625 18.6947C5.56625 18.3047 5.16625 18.0647 4.74625 18.0647C4.08625 18.0647 3.59625 18.7047 3.79625 19.3247C4.32625 20.9147 5.82625 22.0647 7.59625 22.0647C8.16625 22.0647 8.72625 21.9447 9.23625 21.7147C10.5962 21.0047 11.3662 19.9847 11.9662 18.1647C12.2862 17.1847 12.8662 16.7347 13.6762 16.1147C13.7062 16.0947 13.7262 16.0747 13.7562 16.0547L19.6662 21.9647C20.0562 22.3547 20.6862 22.3547 21.0762 21.9647C21.4762 21.5747 21.4762 20.9447 21.0862 20.5547Z" fill="currentColor"/>
</svg>
