<svg  viewBox="0 0 24 24" fill="none" xmlns="http://www.w3.org/2000/svg">
<path d="M19.5702 4.29959C17.6502 3.00959 15.4902 3.12959 13.7702 4.03959L12.0002 9.34959H13.6602C14.3302 9.34959 14.8102 9.99959 14.6202 10.6396L12.8002 16.7096C12.7102 16.9996 12.2802 16.9096 12.3102 16.6096L13.0002 10.3496H11.3302C10.6702 10.3496 10.1902 9.70959 10.3702 9.07959L11.5502 4.96959C9.70016 3.23959 6.71016 2.66959 4.27016 4.38959C2.82016 5.41959 2.00016 7.04959 2.00016 8.83959C1.99016 12.6496 5.53016 15.5496 10.6602 20.1396C11.4202 20.8196 12.5802 20.8296 13.3502 20.1496C18.3302 15.7296 22.2202 12.5696 21.9902 8.52959C21.9002 6.79959 21.0002 5.26959 19.5702 4.29959Z" fill="currentColor"/>
</svg>
