<svg viewBox="0 0 24 24" fill="none" xmlns="http://www.w3.org/2000/svg">
<path d="M19.5963 2.4043H6.42631L21.5963 17.5743V4.4043C21.5963 3.3043 20.6963 2.4043 19.5963 2.4043Z" fill="currentColor"/>
<path d="M4.10631 2.9143C3.71631 2.5243 3.08631 2.5243 2.69631 2.9143C2.30631 3.3043 2.30631 3.9343 2.69631 4.3243L3.59631 5.2343V18.4043C3.59631 19.5043 4.49631 20.4043 5.59631 20.4043H18.7663L19.6663 21.3043C20.0563 21.6943 20.6863 21.6943 21.0763 21.3043C21.4663 20.9143 21.4663 20.2843 21.0763 19.8943L4.10631 2.9143ZM7.59631 16.4043C7.18631 16.4043 6.94631 15.9343 7.19631 15.6043L9.19631 12.9343C9.39631 12.6643 9.79631 12.6643 9.99631 12.9343L11.8463 15.4043L12.6663 14.3043L14.7663 16.4043H7.59631Z" fill="currentColor"/>
</svg>
