<svg  viewBox="0 0 24 24" fill="none" xmlns="http://www.w3.org/2000/svg">
<path d="M2.19631 3.41381C1.80631 3.80381 1.80631 4.44381 2.19631 4.83381L3.75631 6.39381C2.50631 8.27381 1.87631 10.5938 2.16631 13.0838C2.68631 17.6238 6.37631 21.3138 10.9163 21.8338C13.4063 22.1238 15.7263 21.4938 17.6063 20.2438L19.1663 21.8038C19.5563 22.1938 20.1863 22.1938 20.5763 21.8038C20.9663 21.4138 20.9663 20.7838 20.5763 20.3938L3.60631 3.41381C3.21631 3.02381 2.58631 3.02381 2.19631 3.41381ZM12.0963 19.9038C7.68631 19.9038 4.09631 16.3138 4.09631 11.9038C4.09631 10.4238 4.50631 9.04381 5.21631 7.84381L16.1563 18.7838C14.9563 19.4938 13.5763 19.9038 12.0963 19.9038ZM8.03631 5.02381L6.58631 3.56381C8.16631 2.51381 10.0563 1.90381 12.0963 1.90381C17.6163 1.90381 22.0963 6.38381 22.0963 11.9038C22.0963 13.9438 21.4863 15.8338 20.4363 17.4138L18.9763 15.9538C19.6863 14.7638 20.0963 13.3838 20.0963 11.9038C20.0963 7.49381 16.5063 3.90381 12.0963 3.90381C10.6163 3.90381 9.23631 4.31381 8.03631 5.02381Z" fill="currentColor"/>
</svg>
