<svg  viewBox="0 0 24 24" fill="none" xmlns="http://www.w3.org/2000/svg">
<path d="M13.7499 5.25C14.8499 5.25 15.7499 4.35 15.7499 3.25C15.7499 2.15 14.8499 1.25 13.7499 1.25C12.6499 1.25 11.7499 2.15 11.7499 3.25C11.7499 4.35 12.6499 5.25 13.7499 5.25ZM18.4999 8.75C18.0899 8.75 17.7499 9.09 17.7499 9.5V10.53C16.5199 10.16 15.5299 9.36 14.9499 8.35L13.9499 6.75C13.5399 6.1 12.8399 5.75 12.1099 5.75C11.3299 5.75 10.5199 6.25 10.3299 7.19L7.49989 21.51C7.36989 22.15 7.85989 22.75 8.51989 22.75C9.00989 22.75 9.42989 22.41 9.53989 21.94L11.1499 14.75L13.2499 16.75V21.75C13.2499 22.3 13.6999 22.75 14.2499 22.75C14.7999 22.75 15.2499 22.3 15.2499 21.75V16.11C15.2499 15.56 15.0299 15.04 14.6299 14.66L13.1499 13.25L13.7499 10.25C14.7499 11.4 16.1599 12.26 17.7499 12.59V22C17.7499 22.41 18.0899 22.75 18.4999 22.75C18.9099 22.75 19.2499 22.41 19.2499 22V9.5C19.2499 9.09 18.9099 8.75 18.4999 8.75ZM7.67989 12.88L5.55989 12.47C5.01989 12.36 4.65989 11.84 4.76989 11.3L5.52989 7.37C5.73989 6.29 6.78989 5.58 7.86989 5.79L9.02989 6.02L7.67989 12.88Z" fill="currentColor"/>
</svg>
