<svg  viewBox="0 0 24 24" fill="none" xmlns="http://www.w3.org/2000/svg">
<path d="M14.09 7.50414L15.29 5.50414C15.48 5.18414 15.48 4.79414 15.29 4.47414L14.09 2.47414C13.91 2.17414 13.58 1.99414 13.23 1.99414H10.78C10.43 1.99414 10.1 2.17414 9.92001 2.48414L8.72001 4.48414C8.53001 4.80414 8.53001 5.19414 8.72001 5.51414L9.92001 7.51414C10.09 7.81414 10.42 7.99414 10.77 7.99414H13.22C13.58 7.99414 13.91 7.81414 14.09 7.50414Z" fill="currentColor"/>
<path d="M9.91001 9.48414L8.71001 11.4841C8.52001 11.8041 8.52001 12.1941 8.71001 12.5141L9.91001 14.5141C10.09 14.8141 10.42 15.0041 10.77 15.0041H13.23C13.58 15.0041 13.91 14.8241 14.09 14.5141L15.29 12.5141C15.48 12.1941 15.48 11.8041 15.29 11.4841L14.09 9.48414C13.91 9.17414 13.58 8.99414 13.23 8.99414H10.77C10.42 8.99414 10.09 9.17414 9.91001 9.48414Z" fill="currentColor"/>
<path d="M17.01 11.5041H19.46C19.81 11.5041 20.14 11.3241 20.32 11.0141L21.52 9.01414C21.71 8.69414 21.71 8.30414 21.52 7.98414L20.32 5.98414C20.14 5.68414 19.81 5.49414 19.46 5.49414H17.01C16.66 5.49414 16.33 5.67414 16.15 5.98414L14.95 7.98414C14.76 8.30414 14.76 8.69414 14.95 9.01414L16.15 11.0141C16.34 11.3241 16.66 11.5041 17.01 11.5041Z" fill="currentColor"/>
<path d="M19.47 12.5041H17.01C16.66 12.5041 16.33 12.6841 16.15 12.9941L14.95 14.9941C14.76 15.3141 14.76 15.7041 14.95 16.0241L16.15 18.0241C16.33 18.3241 16.66 18.5141 17.01 18.5141H19.47C19.82 18.5141 20.15 18.3341 20.33 18.0241L21.53 16.0241C21.72 15.7041 21.72 15.3141 21.53 14.9941L20.33 12.9941C20.15 12.6941 19.82 12.5041 19.47 12.5041Z" fill="currentColor"/>
<path d="M7.84001 11.0241L9.04001 9.02414C9.23001 8.70414 9.23001 8.31414 9.04001 7.99414L7.84001 5.99414C7.66002 5.69414 7.34001 5.50414 6.99001 5.50414H4.53001C4.18001 5.50414 3.85001 5.69414 3.67001 5.99414L2.47001 7.99414C2.28001 8.31414 2.28001 8.70414 2.47001 9.02414L3.67001 11.0241C3.85001 11.3241 4.18001 11.5141 4.53001 11.5141H6.98001C7.34001 11.5041 7.66002 11.3241 7.84001 11.0241Z" fill="currentColor"/>
<path d="M6.99001 12.5041H4.53001C4.18001 12.5041 3.85001 12.6841 3.67001 12.9941L2.47001 14.9941C2.28001 15.3141 2.28001 15.7041 2.47001 16.0241L3.67001 18.0241C3.85001 18.3241 4.18001 18.5141 4.53001 18.5141H6.99001C7.34001 18.5141 7.67001 18.3341 7.85001 18.0241L9.05001 16.0241C9.24002 15.7041 9.24002 15.3141 9.05001 14.9941L7.85001 12.9941C7.66001 12.6941 7.34001 12.5041 6.99001 12.5041Z" fill="currentColor"/>
<path d="M9.91001 16.4841L8.71001 18.4841C8.52001 18.8041 8.52001 19.1941 8.71001 19.5141L9.91001 21.5141C10.09 21.8141 10.42 22.0041 10.77 22.0041H13.23C13.58 22.0041 13.91 21.8241 14.09 21.5141L15.29 19.5141C15.48 19.1941 15.48 18.8041 15.29 18.4841L14.09 16.4841C13.91 16.1841 13.58 15.9941 13.23 15.9941H10.77C10.42 15.9941 10.09 16.1741 9.91001 16.4841Z" fill="currentColor"/>
</svg>
