<svg viewBox="0 0 24 24" fill="none" xmlns="http://www.w3.org/2000/svg">
<path d="M7 7.5C8.10457 7.5 9 6.60457 9 5.5C9 4.39543 8.10457 3.5 7 3.5C5.89543 3.5 5 4.39543 5 5.5C5 6.60457 5.89543 7.5 7 7.5Z" fill="currentColor"/>
<path d="M21 11.5H11.15C10.84 11.28 10.56 11.04 10.33 10.78L8.93 9.23C8.74 9.02 8.5 8.85 8.24 8.73C7.95 8.59 7.62 8.5 7.28 8.5H7.25C6.01 8.5 5 9.51 5 10.75V11.5H3C2.45 11.5 2 11.95 2 12.5V19.5C2 20.6 2.9 21.5 4 21.5H20C21.1 21.5 22 20.6 22 19.5V12.5C22 11.95 21.55 11.5 21 11.5ZM7 18.5C7 19.05 6.55 19.5 6 19.5C5.45 19.5 5 19.05 5 18.5V14.5C5 13.95 5.45 13.5 6 13.5C6.55 13.5 7 13.95 7 14.5V18.5ZM11 18.5C11 19.05 10.55 19.5 10 19.5C9.45 19.5 9 19.05 9 18.5V14.5C9 13.95 9.45 13.5 10 13.5C10.55 13.5 11 13.95 11 14.5V18.5ZM15 18.5C15 19.05 14.55 19.5 14 19.5C13.45 19.5 13 19.05 13 18.5V14.5C13 13.95 13.45 13.5 14 13.5C14.55 13.5 15 13.95 15 14.5V18.5ZM19 18.5C19 19.05 18.55 19.5 18 19.5C17.45 19.5 17 19.05 17 18.5V14.5C17 13.95 17.45 13.5 18 13.5C18.55 13.5 19 13.95 19 14.5V18.5ZM15.06 9.5C15.56 9.5 15.99 9.11 16 8.61C16.04 7.21 15.42 6.13 14.65 5.36C14 4.64 13.85 4.09 13.88 3.45C13.9 2.93 13.47 2.5 12.94 2.5C12.44 2.5 12.01 2.9 12 3.4C11.97 4.69 12.5 5.83 13.35 6.65C13.96 7.24 14.13 7.92 14.13 8.54C14.12 9.06 14.53 9.5 15.06 9.5ZM19.06 9.5C19.56 9.5 19.99 9.11 20 8.61C20.04 7.21 19.42 6.13 18.65 5.36C18 4.64 17.85 4.09 17.88 3.45C17.9 2.93 17.47 2.5 16.94 2.5C16.44 2.5 16.01 2.9 16 3.4C15.97 4.69 16.5 5.83 17.35 6.65C17.96 7.24 18.13 7.92 18.13 8.54C18.12 9.06 18.53 9.5 19.06 9.5Z" fill="currentColor"/>
</svg>
