<svg width="24" height="24" viewBox="0 0 24 24" fill="none" xmlns="http://www.w3.org/2000/svg">
<path d="M8.23996 9.80569H2.21996C1.72996 9.80569 1.52996 10.4257 1.92996 10.7157L6.83996 14.2257L4.94996 20.3257C4.80996 20.7857 5.33996 21.1657 5.72996 20.8757L10.66 17.1157L15.59 20.8657C15.98 21.1557 16.51 20.7857 16.37 20.3157L14.48 14.2157L19.39 10.7057C19.79 10.4257 19.59 9.79569 19.1 9.79569H13.08L11.13 3.37569C10.99 2.90569 10.32 2.90569 10.17 3.37569L8.23996 9.80569ZM20.56 20.3157L19.16 15.7957L22.07 13.7157C22.47 13.4357 22.27 12.8057 21.78 12.8057H19.9L16.82 15.0057L18.28 19.7257L19.78 20.8657C20.17 21.1557 20.7 20.7757 20.56 20.3157ZM16.66 7.80569L15.32 3.38569C15.18 2.91569 14.51 2.91569 14.36 3.38569L13.79 5.25569L14.57 7.80569H16.66Z" fill="black"/>
</svg>
