<svg width="24" height="24" viewBox="0 0 24 24" fill="none" xmlns="http://www.w3.org/2000/svg">
<path d="M3.51937 2.35871C3.12937 1.96871 2.49937 1.96871 2.10937 2.35871C1.70937 2.74871 1.70937 3.37871 2.09937 3.76871L10.2894 11.9587L7.28937 14.9687C6.91937 15.3487 6.70937 15.8587 6.70937 16.3887V19.5487C6.70937 20.6487 7.60937 21.5487 8.70937 21.5487H16.7094C17.5694 21.5487 18.2894 21.0087 18.5794 20.2487L20.4894 22.1587C20.8794 22.5487 21.5094 22.5487 21.8994 22.1587C22.2894 21.7687 22.2894 21.1387 21.8994 20.7487L3.51937 2.35871ZM16.7094 18.5487C16.7094 19.0987 16.2594 19.5487 15.7094 19.5487H9.70937C9.15937 19.5487 8.70937 19.0987 8.70937 18.5487V16.0487L11.5494 13.2087L16.7094 18.3787V18.5487Z" fill="black"/>
<path d="M8.70937 4.54871C8.70937 3.99871 9.15937 3.54871 9.70937 3.54871H15.7094C16.2594 3.54871 16.7094 3.99871 16.7094 4.54871V7.04871L13.8694 9.88871L15.1194 11.1387L18.1194 8.14871C18.4994 7.76871 18.7094 7.25871 18.7094 6.72871V3.54871C18.7094 2.43871 17.8094 1.54871 16.7094 1.54871H8.70937C7.84937 1.54871 7.12937 2.08871 6.83937 2.84871L8.70937 4.71871V4.54871Z" fill="black"/>
</svg>
