<svg viewBox="0 0 24 24" fill="none" xmlns="http://www.w3.org/2000/svg">
<path d="M18.9978 12.3269H20.6978C21.1578 12.3269 21.3778 11.7569 21.0278 11.4569L12.6678 3.92687C12.2878 3.58687 11.7078 3.58687 11.3278 3.92687L2.96778 11.4569C2.62778 11.7569 2.83778 12.3269 3.29778 12.3269H4.99778V19.3269C4.99778 19.8769 5.44778 20.3269 5.99778 20.3269C6.54778 20.3269 6.99778 19.8769 6.99778 19.3269V18.3269H16.9978V19.3269C16.9978 19.8769 17.4478 20.3269 17.9978 20.3269C18.5478 20.3269 18.9978 19.8769 18.9978 19.3269V12.3269ZM7.20778 10.3269H16.7878L16.9978 10.5169V12.3269H6.99778V10.5169L7.20778 10.3269ZM14.5678 8.32688H9.42778L11.9978 6.01688L14.5678 8.32688ZM6.99778 16.3269V14.3269H16.9978V16.3269H6.99778Z" fill="currentColor"/>
</svg>
