<svg viewBox="0 0 24 24" fill="none" xmlns="http://www.w3.org/2000/svg">
<path d="M18.9978 9.62688V5.32688C18.9978 4.77688 18.5478 4.32688 17.9978 4.32688H16.9978C16.4478 4.32688 15.9978 4.77688 15.9978 5.32688V6.92688L12.6678 3.92687C12.2878 3.58687 11.7078 3.58687 11.3278 3.92687L2.96778 11.4569C2.62778 11.7569 2.83778 12.3269 3.29778 12.3269H4.99778V19.3269C4.99778 19.8769 5.44778 20.3269 5.99778 20.3269H8.99778C9.54778 20.3269 9.99778 19.8769 9.99778 19.3269V14.3269H13.9978V19.3269C13.9978 19.8769 14.4478 20.3269 14.9978 20.3269H17.9978C18.5478 20.3269 18.9978 19.8769 18.9978 19.3269V12.3269H20.6978C21.1578 12.3269 21.3778 11.7569 21.0278 11.4569L18.9978 9.62688ZM9.99778 10.3269C9.99778 9.22688 10.8978 8.32688 11.9978 8.32688C13.0978 8.32688 13.9978 9.22688 13.9978 10.3269H9.99778Z" fill="currentColor"/>
</svg>
