<svg viewBox="0 0 24 24" fill="none" xmlns="http://www.w3.org/2000/svg">
<path d="M22 18.458C22 18.038 21.73 17.658 21.33 17.518C20.62 17.248 20.21 16.628 18.67 16.628C16.76 16.628 16.53 17.628 15.34 17.628C14.1 17.628 13.95 16.628 12 16.628C10.05 16.628 9.9 17.628 8.66 17.628C7.47 17.628 7.24 16.628 5.33 16.628C3.79 16.628 3.38 17.248 2.67 17.508C2.27 17.658 2 18.028 2 18.458C2 19.158 2.69 19.648 3.35 19.408C4.15 19.118 4.53 18.628 5.35 18.628C6.54 18.628 6.77 19.628 8.68 19.628C10.63 19.628 10.76 18.628 12 18.628C13.24 18.628 13.37 19.628 15.32 19.628C17.23 19.628 17.46 18.628 18.65 18.628C19.48 18.628 19.86 19.118 20.65 19.408C21.31 19.648 22 19.148 22 18.458ZM18.91 10.438C19.24 9.98805 19.14 9.36805 18.69 9.03805L12.59 4.56805C12.24 4.30805 11.76 4.30805 11.41 4.56805L5.31 9.03805C4.86 9.36805 4.77 9.98805 5.09 10.438C5.42 10.888 6.04 10.978 6.49 10.658L7 10.278V13.628H5.74C5.47 13.628 5.22 13.518 5.03 13.338L4.37 12.678C3.98 12.288 3.35 12.288 2.96 12.678C2.57 13.068 2.57 13.698 2.96 14.088L3.62 14.748C4.18 15.308 4.95 15.628 5.74 15.628H18.25C19.05 15.628 19.81 15.308 20.37 14.748L21.03 14.088C21.42 13.698 21.42 13.068 21.03 12.678C20.64 12.288 20.01 12.288 19.62 12.678L18.96 13.338C18.78 13.518 18.52 13.628 18.26 13.628H17V10.278L17.51 10.648C17.96 10.978 18.58 10.878 18.91 10.438ZM13 13.628H11V11.628H13V13.628Z" fill="currentColor"/>
</svg>
