<svg width="24" height="24" viewBox="0 0 24 24" fill="none" xmlns="http://www.w3.org/2000/svg">
<path d="M11.6975 19.9639L10.8375 19.1039C9.65751 17.9239 9.66751 16.0039 10.8575 14.8439L11.6975 14.0239C11.3075 13.9839 11.0175 13.9639 10.6975 13.9639C8.02751 13.9639 2.69751 15.3039 2.69751 17.9639V19.9639H11.6975ZM10.6975 11.9639C12.9075 11.9639 14.6975 10.1739 14.6975 7.96387C14.6975 5.75387 12.9075 3.96387 10.6975 3.96387C8.48751 3.96387 6.69751 5.75387 6.69751 7.96387C6.69751 10.1739 8.48751 11.9639 10.6975 11.9639Z" fill="black"/>
<path d="M15.8775 19.7439C15.4875 20.1339 14.8475 20.1339 14.4575 19.7439L12.3875 17.6539C12.0075 17.2639 12.0075 16.6439 12.3875 16.2639L12.3975 16.2539C12.7875 15.8639 13.4175 15.8639 13.7975 16.2539L15.1675 17.6239L19.5975 13.1639C19.9875 12.7739 20.6175 12.7739 21.0075 13.1639L21.0175 13.1739C21.3975 13.5639 21.3975 14.1839 21.0175 14.5639L15.8775 19.7439Z" fill="black"/>
</svg>
