<svg  viewBox="0 0 24 24" fill="none" xmlns="http://www.w3.org/2000/svg">
<path d="M18 11.9279L16.5 13.5679L18.5 15.7479H5.5L7.5 13.5679L6 11.9279L3 15.1979V19.7479C3 20.8479 3.9 21.7479 5 21.7479H19C20.1 21.7479 21 20.8479 21 19.7479V15.2079L18 11.9279Z" fill="currentColor"/>
<path d="M10.59 14.1679C11.37 14.9579 12.64 14.9679 13.43 14.1779L18.41 9.19793C19.19 8.41793 19.19 7.14793 18.41 6.36793L14.87 2.83793C14.09 2.05793 12.82 2.05793 12.04 2.83793L7.09 7.78793C6.31 8.56793 6.31 9.81793 7.08 10.6079L10.59 14.1679ZM13.46 4.24793L16.99 7.77793L12.05 12.7179L8.52 9.18793L13.46 4.24793Z" fill="currentColor"/>
</svg>
