<svg  viewBox="0 0 24 24" fill="none" xmlns="http://www.w3.org/2000/svg">
<path d="M18.38 6.82789C17.79 3.82789 15.14 1.58789 12 1.58789C8.86 1.58789 6.21 3.82789 5.62 6.82789C4.08 7.39789 3 8.87789 3 10.5879C3 12.7979 4.79 14.5879 7 14.5879C7.12 14.5879 7.23 14.5679 7.34 14.5679L11.17 21.8779C11.55 22.5979 12.58 22.5879 12.95 21.8679L16.68 14.5579C16.79 14.5679 16.89 14.5879 17 14.5879C19.21 14.5879 21 12.7979 21 10.5879C21 8.87789 19.92 7.39789 18.38 6.82789ZM12.05 19.2179L9.32 14.0079C10.15 14.3779 11.06 14.5879 12 14.5879C12.95 14.5879 13.88 14.3779 14.72 13.9879L12.05 19.2179Z" fill="currentColor"/>
</svg>
