<svg viewBox="0 0 24 24" fill="none" xmlns="http://www.w3.org/2000/svg">
<path d="M21.8994 20.4791L3.51937 2.09914C3.12937 1.70914 2.49937 1.70914 2.10937 2.09914C1.70937 2.48914 1.70937 3.11914 2.09937 3.50914L3.70937 5.11914V18.2891C3.70937 19.3891 4.60937 20.2891 5.70937 20.2891H18.8794L20.4894 21.8991C20.8794 22.2891 21.5094 22.2891 21.8994 21.8991C22.2894 21.5091 22.2894 20.8691 21.8994 20.4791ZM6.72937 17.2891C6.30937 17.2891 6.07937 16.8091 6.33937 16.4791L8.82937 13.2791C9.02937 13.0291 9.40937 13.0191 9.60937 13.2691L11.7094 15.7991L12.8794 14.2891L15.8794 17.2891H6.72937ZM21.7094 17.4591L6.53937 2.28914H19.7094C20.8094 2.28914 21.7094 3.18914 21.7094 4.28914V17.4591Z" fill="currentColor"/>
</svg>
