<svg viewBox="0 0 24 24" fill="none" xmlns="http://www.w3.org/2000/svg">
<path d="M17.9988 14.9985V18.9985C17.9988 19.5485 17.5488 19.9985 16.9988 19.9985H4.99878C4.44878 19.9985 3.99878 19.5485 3.99878 18.9985V6.99847C3.99878 6.44847 4.44878 5.99847 4.99878 5.99847H8.01878C8.56878 5.99847 9.01878 5.54847 9.01878 4.99847C9.01878 4.44847 8.56878 3.99847 8.01878 3.99847H3.99878C2.89878 3.99847 1.99878 4.89847 1.99878 5.99847V19.9985C1.99878 21.0985 2.89878 21.9985 3.99878 21.9985H17.9988C19.0988 21.9985 19.9988 21.0985 19.9988 19.9985V14.9985C19.9988 14.4485 19.5488 13.9985 18.9988 13.9985C18.4488 13.9985 17.9988 14.4485 17.9988 14.9985ZM15.4988 17.9985H6.51878C6.09878 17.9985 5.86878 17.5185 6.12878 17.1885L7.86878 14.9585C8.06878 14.7085 8.44878 14.6985 8.64878 14.9485L10.2088 16.8285L12.5588 13.8085C12.7588 13.5485 13.1588 13.5485 13.3488 13.8185L15.8988 17.2085C16.1488 17.5285 15.9088 17.9985 15.4988 17.9985ZM19.2988 8.88847C19.7788 8.11847 20.0488 7.21847 19.9888 6.22847C19.8588 4.07847 18.1488 2.25847 16.0188 2.02847C13.2988 1.72847 10.9988 3.83847 10.9988 6.49847C10.9988 8.98847 13.0088 10.9985 15.4888 10.9985C16.3688 10.9985 17.1888 10.7385 17.8788 10.2985L20.2888 12.7085C20.6788 13.0985 21.3188 13.0985 21.7088 12.7085C22.0988 12.3185 22.0988 11.6785 21.7088 11.2885L19.2988 8.88847ZM15.4988 8.99847C14.1188 8.99847 12.9988 7.87847 12.9988 6.49847C12.9988 5.11847 14.1188 3.99847 15.4988 3.99847C16.8788 3.99847 17.9988 5.11847 17.9988 6.49847C17.9988 7.87847 16.8788 8.99847 15.4988 8.99847Z" fill="currentColor"/>
</svg>
