<svg width="24" height="24" viewBox="0 0 24 24" fill="none" xmlns="http://www.w3.org/2000/svg">
<path d="M17.505 3.67773C15.555 3.67773 13.455 4.07773 12.005 5.17773C10.555 4.07773 8.455 3.67773 6.505 3.67773C5.05501 3.67773 3.515 3.89773 2.225 4.46773C1.495 4.79773 1.005 5.50773 1.005 6.31773V17.5977C1.005 18.8977 2.225 19.8577 3.485 19.5377C4.465 19.2877 5.505 19.1777 6.505 19.1777C8.065 19.1777 9.72501 19.4377 11.065 20.0977C11.665 20.3977 12.345 20.3977 12.935 20.0977C14.275 19.4277 15.935 19.1777 17.495 19.1777C18.495 19.1777 19.535 19.2877 20.515 19.5377C21.775 19.8677 22.995 18.9077 22.995 17.5977V6.31773C22.995 5.50773 22.505 4.79773 21.775 4.46773C20.495 3.89773 18.955 3.67773 17.505 3.67773ZM21.005 16.4077C21.005 17.0377 20.425 17.4977 19.805 17.3877C19.055 17.2477 18.275 17.1877 17.505 17.1877C15.805 17.1877 13.355 17.8377 12.005 18.6877V7.17773C13.355 6.32773 15.805 5.67773 17.505 5.67773C18.425 5.67773 19.335 5.76773 20.205 5.95773C20.665 6.05773 21.005 6.46773 21.005 6.93773V16.4077Z" fill="black"/>
</svg>
