<svg width="24" height="24" viewBox="0 0 24 24" fill="none" xmlns="http://www.w3.org/2000/svg">
<path d="M3.9558 11.38C4.2358 9.91 5.6158 8.9 7.1158 8.9H10.0458C10.5658 8.9 10.9958 8.47 10.9958 7.95C10.9958 7.43 10.5658 7 10.0458 7H7.2158C4.6058 7 2.2758 8.91 2.0258 11.51C1.7358 14.49 4.0758 17 6.9958 17H10.0458C10.5658 17 10.9958 16.57 10.9958 16.05C10.9958 15.53 10.5658 15.1 10.0458 15.1H6.9958C5.0858 15.1 3.5758 13.36 3.9558 11.38ZM8.9958 13H14.9958C15.5458 13 15.9958 12.55 15.9958 12C15.9958 11.45 15.5458 11 14.9958 11H8.9958C8.4458 11 7.9958 11.45 7.9958 12C7.9958 12.55 8.4458 13 8.9958 13ZM16.7758 7H13.9458C13.4258 7 12.9958 7.43 12.9958 7.95C12.9958 8.47 13.4258 8.9 13.9458 8.9H16.8758C18.3758 8.9 19.7558 9.91 20.0358 11.38C20.4158 13.36 18.9058 15.1 16.9958 15.1H13.9458C13.4258 15.1 12.9958 15.53 12.9958 16.05C12.9958 16.57 13.4258 17 13.9458 17H16.9958C19.9158 17 22.2558 14.49 21.9758 11.51C21.7258 8.91 19.3858 7 16.7758 7Z" fill="black"/>
</svg>
