<svg  viewBox="0 0 24 24" fill="none" xmlns="http://www.w3.org/2000/svg">
<path d="M20.0217 16.5C19.1917 16.5 18.5217 15.83 18.5217 15V12.5C18.5217 11.67 19.1917 11 20.0217 11C20.8517 11 21.5217 11.67 21.5217 12.5V15C21.5217 15.83 20.8517 16.5 20.0217 16.5ZM20.0217 20C20.3017 20 20.5217 19.78 20.5217 19.5C20.5217 19.05 20.5217 18.46 20.5217 18.46C22.0317 18.24 23.2317 17.06 23.4717 15.57C23.5217 15.27 23.2817 15 22.9817 15C22.7417 15 22.5317 15.17 22.4917 15.41C22.2917 16.59 21.2617 17.5 20.0217 17.5C18.7817 17.5 17.7517 16.6 17.5517 15.41C17.5117 15.17 17.3017 15 17.0617 15C16.7617 15 16.5217 15.27 16.5617 15.57C16.8117 17.07 18.0117 18.25 19.5117 18.46C19.5117 18.46 19.5117 19.05 19.5117 19.5C19.5217 19.78 19.7417 20 20.0217 20ZM8.52167 12C6.31167 12 4.52167 10.21 4.52167 8C4.52167 5.79 6.31167 4 8.52167 4C8.99167 4 9.44167 4.08 9.86167 4.23C9.02167 5.26 8.52167 6.57 8.52167 8C8.52167 9.43 9.02167 10.74 9.86167 11.77C9.44167 11.92 8.99167 12 8.52167 12ZM6.63167 13.13C5.31167 14.05 4.52167 15.57 4.52167 17.22V20H0.521667V17.22C0.521667 16.1 1.13167 15.07 2.13167 14.56C3.37167 13.92 4.89167 13.37 6.63167 13.13ZM10.5217 8C10.5217 5.79 12.3117 4 14.5217 4C16.7317 4 18.5217 5.79 18.5217 8C18.5217 10.21 16.7317 12 14.5217 12C12.3117 12 10.5217 10.21 10.5217 8ZM17.8417 20C16.1717 19.19 15.0217 17.48 15.0217 15.5C15.0217 14.61 15.2517 13.77 15.6617 13.05C15.2917 13.02 14.9117 13 14.5217 13C11.9917 13 9.81167 13.7 8.13167 14.56C7.13167 15.07 6.52167 16.1 6.52167 17.22V20H17.8417Z" fill="currentColor"/>
</svg>
