<svg width="24" height="24" viewBox="0 0 24 24" fill="none" xmlns="http://www.w3.org/2000/svg">
<path d="M12 5.25C12.4142 5.25 12.75 4.91421 12.75 4.5C12.75 4.08579 12.4142 3.75 12 3.75C11.5858 3.75 11.25 4.08579 11.25 4.5C11.25 4.91421 11.5858 5.25 12 5.25Z" fill="black"/>
<path d="M12 5.25C12.4142 5.25 12.75 4.91421 12.75 4.5C12.75 4.08579 12.4142 3.75 12 3.75C11.5858 3.75 11.25 4.08579 11.25 4.5C11.25 4.91421 11.5858 5.25 12 5.25Z" fill="black"/>
<path d="M12 5.25C12.4142 5.25 12.75 4.91421 12.75 4.5C12.75 4.08579 12.4142 3.75 12 3.75C11.5858 3.75 11.25 4.08579 11.25 4.5C11.25 4.91421 11.5858 5.25 12 5.25Z" fill="black"/>
<path d="M19 4H14.82C14.4 2.84 13.3 2 12 2C10.7 2 9.6 2.84 9.18 4H5C4.86 4 4.73 4.01 4.6 4.04C4.21 4.12 3.86 4.32 3.59 4.59C3.41 4.77 3.26 4.99 3.16 5.23C3.06 5.46 3 5.72 3 6V20C3 20.27 3.06 20.54 3.16 20.78C3.26 21.02 3.41 21.23 3.59 21.42C3.86 21.69 4.21 21.89 4.6 21.97C4.73 21.99 4.86 22 5 22H19C20.1 22 21 21.1 21 20V6C21 4.9 20.1 4 19 4ZM10.3 15.88C9.91 16.27 9.27 16.27 8.88 15.88L6.71 13.71C6.32 13.32 6.32 12.69 6.71 12.3L8.88 10.13C9.27 9.74 9.91 9.74 10.3 10.13C10.69 10.52 10.69 11.15 10.3 11.54L8.83 13L10.29 14.46C10.68 14.85 10.69 15.49 10.3 15.88ZM12 5.25C11.59 5.25 11.25 4.91 11.25 4.5C11.25 4.09 11.59 3.75 12 3.75C12.41 3.75 12.75 4.09 12.75 4.5C12.75 4.91 12.41 5.25 12 5.25ZM13.7 15.88C13.31 15.49 13.31 14.86 13.7 14.47L15.17 13L13.7 11.53C13.31 11.14 13.31 10.51 13.7 10.12C14.09 9.73 14.73 9.73 15.12 10.12L17.29 12.29C17.68 12.68 17.68 13.31 17.29 13.7L15.12 15.87C14.73 16.27 14.09 16.27 13.7 15.88Z" fill="black"/>
</svg>
