<svg  viewBox="0 0 24 24" fill="none" xmlns="http://www.w3.org/2000/svg">
<path d="M6.66875 13.25C4.45875 13.25 2.66875 15.04 2.66875 17.25C2.66875 19.46 4.45875 21.25 6.66875 21.25C8.87875 21.25 10.6687 19.46 10.6687 17.25C10.6687 15.04 8.87875 13.25 6.66875 13.25ZM12.6487 14.25V20.25C12.6487 20.8 13.0987 21.25 13.6487 21.25H19.6487C20.1987 21.25 20.6487 20.8 20.6487 20.25V14.25C20.6487 13.7 20.1987 13.25 19.6487 13.25H13.6487C13.0987 13.25 12.6487 13.7 12.6487 14.25ZM5.77875 3.82L2.47875 9.76C2.10875 10.43 2.58875 11.25 3.34875 11.25H9.94875C10.7087 11.25 11.1887 10.43 10.8187 9.76L7.51875 3.82C7.13875 3.14 6.15875 3.14 5.77875 3.82ZM18.8987 2.75C17.8387 2.75 17.0887 3.31 16.6487 3.92C16.2087 3.31 15.4587 2.75 14.3987 2.75C12.8387 2.75 11.6487 4.03 11.6487 5.5C11.6487 7.33 13.6787 8.67 15.9987 10.68C16.3687 11 16.9187 11 17.2987 10.68C19.6187 8.67 21.6487 7.33 21.6487 5.5C21.6487 4.03 20.4587 2.75 18.8987 2.75Z" fill="currentColor"/>
</svg>
