<svg width="24" height="24" viewBox="0 0 24 24" fill="none" xmlns="http://www.w3.org/2000/svg">
<path d="M21.1956 20.1914L4.21562 3.21145C3.82562 2.82145 3.19562 2.82145 2.80562 3.21145C2.41562 3.60145 2.41562 4.23145 2.80562 4.62145L6.30562 8.12145C5.30562 9.43145 4.70562 11.0614 4.70562 12.8214C4.70562 17.1814 8.28562 20.7014 12.7056 20.7014C14.4556 20.7014 16.0656 20.1414 17.3756 19.2014L19.7756 21.6014C20.1656 21.9914 20.7956 21.9914 21.1856 21.6014C21.5856 21.2114 21.5856 20.5814 21.1956 20.1914ZM12.7056 18.7014C9.39562 18.7014 6.70562 16.0714 6.70562 12.8314C6.70562 11.6414 7.06562 10.5114 7.72562 9.55145L12.7056 14.5314V18.7014ZM9.08562 5.26145L11.9956 2.39145C12.3856 2.01145 13.0056 2.01145 13.3956 2.39145L18.3456 7.26145C19.8056 8.69144 20.7056 10.6614 20.7056 12.8314C20.7056 14.0114 20.4356 15.1214 19.9656 16.1314L12.7056 8.87145V4.51145L10.5056 6.67144L9.08562 5.26145Z" fill="black"/>
</svg>
