<svg  viewBox="0 0 24 24" fill="none" xmlns="http://www.w3.org/2000/svg">
<path d="M18 7.89547H16C15.45 7.89547 15 8.34547 15 8.89547C15 9.44547 15.45 9.89547 16 9.89547H18V20.8955H6V9.89547H8C8.55 9.89547 9 9.44547 9 8.89547C9 8.34547 8.55 7.89547 8 7.89547H6C4.9 7.89547 4 8.79547 4 9.89547V20.8955C4 21.9955 4.9 22.8955 6 22.8955H18C19.1 22.8955 20 21.9955 20 20.8955V9.89547C20 8.79547 19.1 7.89547 18 7.89547Z" fill="currentColor"/>
<path d="M12 15.8955C12.55 15.8955 13 15.4455 13 14.8955V4.89547H14.79C15.24 4.89547 15.46 4.35547 15.14 4.04547L12.35 1.25547C12.15 1.05547 11.84 1.05547 11.64 1.25547L8.85 4.04547C8.54 4.35547 8.76 4.89547 9.21 4.89547H11V14.8955C11 15.4455 11.45 15.8955 12 15.8955Z" fill="currentColor"/>
</svg>
