<svg  viewBox="0 0 24 24" fill="none" xmlns="http://www.w3.org/2000/svg">
<path d="M1.99862 21.3413C1.99862 20.7913 2.44862 20.3413 2.99862 20.3413C3.86862 20.3413 4.72862 20.1013 5.52862 19.6413C5.81862 19.4813 6.17862 19.4713 6.46862 19.6413C8.05862 20.5413 9.94862 20.5413 11.5286 19.6413C11.8186 19.4813 12.1786 19.4813 12.4686 19.6413C14.0586 20.5413 15.9486 20.5413 17.5286 19.6413C17.8186 19.4813 18.1786 19.4813 18.4686 19.6413C19.2686 20.1013 20.1286 20.3413 20.9986 20.3413C21.5486 20.3413 21.9986 20.7913 21.9986 21.3413C21.9986 21.8913 21.5486 22.3413 20.9986 22.3413C19.9686 22.3413 18.9386 22.0913 17.9986 21.5913C16.0786 22.6113 13.8186 22.5913 11.9086 21.5413C10.1186 22.4113 7.98862 22.5213 6.32862 21.4013C5.29862 22.0313 4.14862 22.3413 2.99862 22.3413C2.44862 22.3413 1.99862 21.8913 1.99862 21.3413ZM11.9986 4.84126C10.8986 4.84126 9.99862 5.74126 9.99862 6.84126C9.99862 7.94126 10.8986 8.84126 11.9986 8.84126C13.0986 8.84126 13.9986 7.94126 13.9986 6.84126C13.9986 5.74126 13.0986 4.84126 11.9986 4.84126ZM21.4686 17.7913C21.0486 17.9313 20.5686 18.0713 20.0586 18.2113C19.5286 18.0613 19.0286 17.7813 18.6086 17.4413C18.2586 17.1513 17.7386 17.1513 17.3786 17.4413C16.7186 17.9713 15.8986 18.3413 14.9986 18.3413C14.0986 18.3413 13.2786 17.9713 12.6086 17.4313C12.2586 17.1513 11.7386 17.1513 11.3886 17.4313C10.7186 17.9713 9.89862 18.3413 8.99862 18.3413C8.09862 18.3413 7.27862 17.9713 6.60862 17.4313C6.25862 17.1413 5.73862 17.1513 5.37862 17.4313C4.94862 17.7813 4.45862 18.0513 3.92862 18.2013C3.41862 18.0613 2.94862 17.9213 2.52862 17.7813C1.60862 17.4813 1.60862 16.1813 2.52862 15.8813C3.73862 15.4913 5.31862 15.0613 7.12862 14.7513L8.47862 10.5813C8.78862 9.63126 9.79862 9.11126 10.7486 9.42126C10.8386 9.45126 10.9386 9.49126 11.0186 9.53126L13.4886 10.8313L16.3286 9.33126L17.9786 5.62126L17.6186 4.69126C17.5186 4.44126 17.5286 4.17126 17.6386 3.93126L18.3786 2.25126C18.5986 1.74126 19.1986 1.52126 19.6986 1.74126L21.0686 2.35126C21.5686 2.58126 21.7986 3.17126 21.5686 3.67126L20.8186 5.35126C20.7086 5.59126 20.5086 5.78126 20.2586 5.88126L19.3586 6.24126L15.6386 14.5813C17.9686 14.8813 19.9886 15.4213 21.4586 15.8913C22.3886 16.1913 22.3986 17.4913 21.4686 17.7913ZM15.0186 12.3013L14.4286 12.6113C13.8486 12.9213 13.1486 12.9213 12.5686 12.6113L11.7586 12.1813L11.0486 14.3513C11.3586 14.3513 11.6786 14.3413 11.9986 14.3413C12.7086 14.3413 13.3986 14.3713 14.0686 14.4213L15.0186 12.3013Z" fill="currentColor"/>
</svg>
