<svg  viewBox="0 0 24 24" fill="none" xmlns="http://www.w3.org/2000/svg">
<path d="M6.7051 18.2846C7.0951 18.6746 7.7251 18.6746 8.1151 18.2846L12.0051 14.4146L15.8851 18.2946C16.2751 18.6846 16.9051 18.6846 17.2951 18.2946C17.6851 17.9046 17.6851 17.2746 17.2951 16.8846L12.7051 12.2946C12.3151 11.9046 11.6851 11.9046 11.2951 12.2946L6.7051 16.8746C6.3151 17.2646 6.3151 17.8946 6.7051 18.2846Z" fill="currentColor"/>
<path d="M6.7051 11.6946C7.0951 12.0846 7.7251 12.0846 8.1151 11.6946L12.0051 7.82461L15.8851 11.7046C16.2751 12.0946 16.9051 12.0946 17.2951 11.7046C17.6851 11.3146 17.6851 10.6846 17.2951 10.2946L12.7051 5.70461C12.3151 5.31461 11.6851 5.31461 11.2951 5.70461L6.7051 10.2846C6.3151 10.6746 6.3151 11.3046 6.7051 11.6946Z" fill="currentColor"/>
</svg>
