<svg width="24" height="24" viewBox="0 0 24 24" fill="none" xmlns="http://www.w3.org/2000/svg">
<path d="M17.2944 5.71461C16.9044 5.32461 16.2744 5.32461 15.8844 5.71461L12.0044 9.58461L8.11437 5.70461C7.72437 5.31461 7.09437 5.31461 6.70437 5.70461C6.31437 6.09461 6.31437 6.72461 6.70437 7.11461L11.2944 11.7046C11.6844 12.0946 12.3144 12.0946 12.7044 11.7046L17.2944 7.11461C17.6844 6.73461 17.6844 6.10461 17.2944 5.71461Z" fill="black"/>
<path d="M17.2944 12.3046C16.9044 11.9146 16.2744 11.9146 15.8844 12.3046L12.0044 16.1746L8.12437 12.2946C7.73437 11.9046 7.10437 11.9046 6.71437 12.2946C6.32437 12.6846 6.32437 13.3146 6.71437 13.7046L11.3044 18.2946C11.6944 18.6846 12.3244 18.6846 12.7144 18.2946L17.3044 13.7046C17.6844 13.3246 17.6844 12.6946 17.2944 12.3046Z" fill="black"/>
</svg>
