<svg width="24" height="24" viewBox="0 0 24 24" fill="none" xmlns="http://www.w3.org/2000/svg">
<path d="M12 14.5C13.66 14.5 14.99 13.16 14.99 11.5L15 5.5C15 3.84 13.66 2.5 12 2.5C10.34 2.5 8.99998 3.84 8.99998 5.5V11.5C8.99998 13.16 10.34 14.5 12 14.5ZM18.08 11.5C17.66 11.5 17.31 11.8 17.25 12.21C16.88 14.82 14.53 16.6 12 16.6C9.46998 16.6 7.11998 14.83 6.74998 12.21C6.68998 11.8 6.32998 11.5 5.91998 11.5C5.39998 11.5 4.99998 11.96 5.06998 12.47C5.52998 15.44 8.02998 17.77 11 18.22V20.5C11 21.05 11.45 21.5 12 21.5C12.55 21.5 13 21.05 13 20.5V18.22C15.96 17.79 18.47 15.44 18.93 12.47C19 11.96 18.6 11.5 18.08 11.5Z" fill="black"/>
</svg>
