<svg  viewBox="0 0 24 24" fill="none" xmlns="http://www.w3.org/2000/svg">
<path d="M21 3.5H3C1.9 3.5 1 4.4 1 5.5V18.5C1 19.6 1.9 20.5 3 20.5H21C22.1 20.5 23 19.6 23 18.5V5.5C23 4.4 22.1 3.5 21 3.5ZM7 11.5V13.5H5V11.5H7ZM5 9.5V7.5H7V9.5H5ZM11 11.5V13.5H9V11.5H11ZM9 9.5V7.5H11V9.5H9ZM16 16C16 16.28 15.78 16.5 15.5 16.5H8.5C8.22 16.5 8 16.28 8 16C8 15.72 8.22 15.5 8.5 15.5H15.5C15.78 15.5 16 15.72 16 16ZM15 11.5V13.5H13V11.5H15ZM13 9.5V7.5H15V9.5H13ZM17 13.5V11.5H19V13.5H17ZM19 9.5H17V7.5H19V9.5Z" fill="currentColor"/>
</svg>
