<svg width="24" height="24" viewBox="0 0 24 24" fill="none" xmlns="http://www.w3.org/2000/svg">
<path d="M5.70498 6.71075C5.31498 7.10075 5.31498 7.73075 5.70498 8.12075L9.58498 12.0008L5.70498 15.8808C5.31498 16.2708 5.31498 16.9008 5.70498 17.2908C6.09498 17.6808 6.72498 17.6808 7.11498 17.2908L11.705 12.7008C12.095 12.3108 12.095 11.6808 11.705 11.2908L7.12498 6.71075C6.73498 6.32075 6.09498 6.32075 5.70498 6.71075Z" fill="black"/>
<path d="M12.295 6.71075C11.905 7.10075 11.905 7.73075 12.295 8.12075L16.175 12.0008L12.295 15.8808C11.905 16.2708 11.905 16.9008 12.295 17.2908C12.685 17.6808 13.315 17.6808 13.705 17.2908L18.295 12.7008C18.685 12.3108 18.685 11.6808 18.295 11.2908L13.705 6.70075C13.325 6.32075 12.685 6.32075 12.295 6.71075Z" fill="black"/>
</svg>
