<svg  viewBox="0 0 24 24" fill="none" xmlns="http://www.w3.org/2000/svg">
<path d="M12 8.40641L15.89 12.2964C16.28 12.6864 16.91 12.6864 17.3 12.2964C17.69 11.9064 17.69 11.2764 17.3 10.8864L12.71 6.29641C12.32 5.90641 11.69 5.90641 11.3 6.29641L6.7 10.8864C6.31 11.2764 6.31 11.9064 6.7 12.2964C7.09 12.6864 7.72 12.6864 8.11 12.2964L12 8.40641ZM7 17.9964H17C17.55 17.9964 18 17.5464 18 16.9964C18 16.4464 17.55 15.9964 17 15.9964H7C6.45 15.9964 6 16.4464 6 16.9964C6 17.5464 6.45 17.9964 7 17.9964Z" fill="currentColor"/>
</svg>
