<svg  viewBox="0 0 24 24" fill="none" xmlns="http://www.w3.org/2000/svg">
<path d="M18.285 17.2895C18.675 16.8995 18.675 16.2695 18.285 15.8795L14.415 11.9995L18.295 8.11949C18.685 7.72949 18.685 7.09949 18.295 6.70949C17.905 6.31949 17.275 6.31949 16.885 6.70949L12.295 11.2995C11.905 11.6895 11.905 12.3195 12.295 12.7095L16.885 17.2995C17.265 17.6795 17.895 17.6795 18.285 17.2895Z" fill="currentColor"/>
<path d="M11.695 17.2895C12.085 16.8995 12.085 16.2695 11.695 15.8795L7.82498 11.9995L11.705 8.11949C12.095 7.72949 12.095 7.09949 11.705 6.70949C11.315 6.31949 10.685 6.31949 10.295 6.70949L5.70498 11.2995C5.31498 11.6895 5.31498 12.3195 5.70498 12.7095L10.295 17.2995C10.675 17.6795 11.305 17.6795 11.695 17.2895Z" fill="currentColor"/>
</svg>
