<svg  viewBox="0 0 24 24" fill="none" xmlns="http://www.w3.org/2000/svg">
<path d="M19.2912 7.99461V10.9946H6.12124L9.00124 8.11461C9.39124 7.72461 9.39124 7.09461 9.00124 6.70461C8.61124 6.31461 7.98124 6.31461 7.59124 6.70461L3.00124 11.2946C2.61124 11.6846 2.61124 12.3146 3.00124 12.7046L7.59124 17.2946C7.98124 17.6846 8.61124 17.6846 9.00124 17.2946C9.39124 16.9046 9.39124 16.2746 9.00124 15.8846L6.12124 12.9946H20.2912C20.8412 12.9946 21.2912 12.5446 21.2912 11.9946V7.99461C21.2912 7.44461 20.8412 6.99461 20.2912 6.99461C19.7412 6.99461 19.2912 7.44461 19.2912 7.99461Z" fill="currentColor"/>
</svg>
