<svg width="24" height="24" viewBox="0 0 24 24" fill="none" xmlns="http://www.w3.org/2000/svg">
<path d="M21.4862 12.7788C21.7362 12.4288 21.7362 11.9688 21.4862 11.6188L17.5262 6.0388C17.1662 5.5288 16.5662 5.1988 15.8962 5.1988H8.55622L19.2562 15.9288L21.4862 12.7788ZM2.61622 4.9188L3.48622 5.7888C3.12622 6.1488 2.89622 6.6488 2.89622 7.1988V17.1988C2.89622 18.2988 3.79622 19.1988 4.89622 19.1988H16.8962L18.1862 20.4888C18.5762 20.8788 19.2062 20.8788 19.5962 20.4888C19.9862 20.0988 19.9862 19.4688 19.5962 19.0788L4.03622 3.5088C3.65622 3.1288 3.02622 3.1188 2.63622 3.4988C2.22622 3.8788 2.22622 4.5288 2.61622 4.9188Z" fill="black"/>
</svg>
