<svg  viewBox="0 0 24 24" fill="none" xmlns="http://www.w3.org/2000/svg">
<path d="M6.29128 8.11L10.1813 12L6.29128 15.89C5.90128 16.28 5.90128 16.91 6.29128 17.3C6.68128 17.69 7.31128 17.69 7.70128 17.3L12.2913 12.71C12.6813 12.32 12.6813 11.69 12.2913 11.3L7.70128 6.7C7.31128 6.31 6.68128 6.31 6.29128 6.7C5.91128 7.09 5.91128 7.73 6.29128 8.11ZM17.0013 6C17.5513 6 18.0013 6.45 18.0013 7V17C18.0013 17.55 17.5513 18 17.0013 18C16.4513 18 16.0013 17.55 16.0013 17V7C16.0013 6.45 16.4513 6 17.0013 6Z" fill="currentColor"/>
</svg>
