<svg  viewBox="0 0 24 24" fill="none" xmlns="http://www.w3.org/2000/svg">
<path d="M19.9163 10.8643C20.4263 10.4643 20.4263 9.6843 19.9163 9.2843L13.1562 4.0243C12.4362 3.4643 11.4263 3.4643 10.6962 4.0243L9.33625 5.0943L17.2163 12.9743L19.9163 10.8643ZM19.9163 14.3543L19.9062 14.3443C19.5462 14.0643 19.0463 14.0643 18.6863 14.3443L18.6362 14.3843L20.0363 15.7843C20.4063 15.3743 20.3762 14.7143 19.9163 14.3543ZM21.3663 19.9543L4.04625 2.6343C3.65625 2.2443 3.02625 2.2443 2.63625 2.6343C2.24625 3.0243 2.24625 3.6543 2.63625 4.0443L6.15625 7.5643L3.93625 9.2843C3.42625 9.6843 3.42625 10.4643 3.93625 10.8643L10.6962 16.1243C11.4163 16.6843 12.4262 16.6843 13.1562 16.1243L14.0262 15.4443L15.4462 16.8643L12.5262 19.1343C12.1663 19.4143 11.6562 19.4143 11.2962 19.1343L5.14625 14.3543C4.78625 14.0743 4.28625 14.0743 3.92625 14.3543C3.41625 14.7543 3.41625 15.5243 3.92625 15.9243L10.6862 21.1843C11.4062 21.7443 12.4163 21.7443 13.1462 21.1843L16.8663 18.2943L19.9363 21.3643C20.3263 21.7543 20.9563 21.7543 21.3463 21.3643C21.7563 20.9743 21.7563 20.3443 21.3663 19.9543Z" fill="currentColor"/>
</svg>
