<svg  viewBox="0 0 24 24" fill="none" xmlns="http://www.w3.org/2000/svg">
<path d="M12.605 18.5341C12.245 18.8141 11.735 18.8141 11.375 18.5341L5.225 13.7541C4.865 13.4741 4.365 13.4741 4.005 13.7541C3.495 14.1541 3.495 14.9241 4.005 15.3241L10.765 20.5841C11.485 21.1441 12.495 21.1441 13.225 20.5841L19.985 15.3241C20.495 14.9241 20.495 14.1541 19.985 13.7541L19.975 13.7441C19.615 13.4641 19.115 13.4641 18.755 13.7441L12.605 18.5341ZM13.235 15.5141L19.995 10.2541C20.505 9.85414 20.505 9.07414 19.995 8.67414L13.235 3.41414C12.515 2.85414 11.505 2.85414 10.775 3.41414L4.015 8.68414C3.505 9.08414 3.505 9.86414 4.015 10.2641L10.775 15.5241C11.495 16.0841 12.515 16.0841 13.235 15.5141Z" fill="currentColor"/>
</svg>
