<svg viewBox="0 0 24 24" fill="none" xmlns="http://www.w3.org/2000/svg">
<path d="M20.105 12.02C20.605 11.97 20.985 11.54 20.985 11.03C20.985 10.44 20.475 9.97 19.885 10.03C18.385 10.18 16.985 10.64 15.725 11.33L17.205 12.81C18.105 12.4 19.075 12.12 20.105 12.02ZM20.985 15.07C20.985 14.46 20.445 13.98 19.845 14.07C19.465 14.13 19.095 14.23 18.735 14.35L20.355 15.97C20.725 15.82 20.985 15.48 20.985 15.07ZM13.955 4.12C14.015 3.53 13.555 3.01 12.955 3.01C12.455 3.01 12.015 3.38 11.965 3.88C11.865 4.91 11.585 5.89 11.175 6.79L12.655 8.27C13.345 7.01 13.805 5.61 13.955 4.12ZM9.915 4.14C10.015 3.54 9.525 3 8.915 3C8.505 3 8.165 3.26 8.015 3.62L9.635 5.24C9.765 4.89 9.855 4.52 9.915 4.14ZM20.425 18.86L5.105 3.54C4.715 3.15 4.085 3.15 3.695 3.54C3.305 3.93 3.305 4.56 3.695 4.95L5.845 7.1C5.255 7.51 4.585 7.8 3.855 7.92C3.375 8.02 3.015 8.42 3.015 8.92C3.015 9.53 3.555 10.01 4.155 9.92C5.325 9.73 6.385 9.24 7.285 8.55L8.715 9.98C7.375 11.08 5.715 11.8 3.905 11.97C3.405 12.02 3.025 12.45 3.025 12.96C3.025 13.55 3.535 14.02 4.125 13.96C6.405 13.73 8.485 12.81 10.135 11.4L12.615 13.88C11.215 15.53 10.285 17.6 10.055 19.88C9.995 20.47 10.455 20.99 11.055 20.99C11.555 20.99 11.995 20.62 12.045 20.12C12.225 18.3 12.945 16.64 14.035 15.3L15.465 16.73C14.775 17.63 14.285 18.69 14.095 19.86C13.995 20.46 14.485 21 15.095 21C15.585 21 15.995 20.64 16.075 20.15C16.195 19.42 16.495 18.75 16.895 18.16L19.025 20.29C19.415 20.68 20.045 20.68 20.435 20.29C20.815 19.88 20.815 19.25 20.425 18.86Z" fill="currentColor"/>
</svg>
