<svg viewBox="0 0 24 24" fill="none" xmlns="http://www.w3.org/2000/svg">
<path d="M11.04 20.9898C11.54 20.9898 11.98 20.6198 12.03 20.1198C12.44 15.8498 15.84 12.4498 20.11 12.0398C20.61 11.9898 20.99 11.5598 20.99 11.0498C20.99 10.4598 20.48 9.98977 19.89 10.0498C14.7 10.5698 10.57 14.6998 10.05 19.8798C9.99001 20.4698 10.45 20.9898 11.04 20.9898ZM17.99 20.9898H20.99V17.9898C19.33 17.9898 17.99 19.3298 17.99 20.9898ZM15.08 20.9898C15.57 20.9898 15.98 20.6298 16.06 20.1398C16.42 18.0598 18.06 16.4198 20.14 16.0598C20.63 15.9798 20.99 15.5698 20.99 15.0798C20.99 14.4698 20.45 13.9898 19.85 14.0798C16.89 14.5598 14.56 16.8898 14.08 19.8498C13.98 20.4498 14.47 20.9898 15.08 20.9898ZM12.96 3.00977C12.46 3.00977 12.02 3.37977 11.97 3.87977C11.56 8.14977 8.16001 11.5498 3.89001 11.9598C3.39001 12.0098 3.01001 12.4398 3.01001 12.9498C3.01001 13.5398 3.52001 14.0098 4.11001 13.9498C9.30001 13.4298 13.43 9.29977 13.95 4.11977C14.02 3.53977 13.56 3.00977 12.96 3.00977ZM6.02001 3.00977H3.02001V6.00977C4.68001 6.00977 6.02001 4.66977 6.02001 3.00977ZM8.93001 3.00977C8.44001 3.00977 8.03001 3.36977 7.95001 3.85977C7.59001 5.93977 5.95001 7.57977 3.87001 7.93977C3.38001 8.02977 3.02001 8.42977 3.02001 8.92977C3.02001 9.53977 3.56001 10.0198 4.16001 9.92977C7.12001 9.44977 9.45001 7.11977 9.93001 4.15977C10.02 3.54977 9.53001 3.00977 8.93001 3.00977Z" fill="currentColor"/>
</svg>
