<svg width="24" height="24" viewBox="0 0 24 24" fill="none" xmlns="http://www.w3.org/2000/svg">
<path d="M21.321 7.08586C20.921 6.68586 20.251 6.69585 19.871 7.12585L16.541 10.8659L10.891 5.62586C10.101 4.89586 8.88102 4.91586 8.12102 5.67586L2.68102 11.1259C2.29102 11.5159 2.29102 12.1459 2.68102 12.5359L2.77102 12.6259C3.16102 13.0159 3.79102 13.0159 4.18102 12.6259L9.62102 7.17586L15.211 12.3659L13.481 14.3159L10.901 11.7359C10.121 10.9559 8.85102 10.9559 8.07102 11.7359L2.68102 17.1159C2.29102 17.5059 2.29102 18.1359 2.68102 18.5259L2.78102 18.6159C3.17102 19.0059 3.80102 19.0059 4.19102 18.6159L9.49102 13.3159L11.991 15.8159C12.801 16.6259 14.131 16.5859 14.901 15.7259L16.681 13.7159L19.871 16.6759C20.261 17.0359 20.871 17.0259 21.251 16.6459L21.261 16.6359C21.661 16.2359 21.651 15.5859 21.231 15.2059L18.011 12.2159L21.361 8.44586C21.711 8.05586 21.691 7.45586 21.321 7.08586Z" fill="black"/>
</svg>
