<svg  viewBox="0 0 24 24" fill="none" xmlns="http://www.w3.org/2000/svg">
<path d="M14.0995 8.2952H16.9695C18.4295 8.2952 19.7695 9.2752 20.0495 10.7152C20.3595 12.3552 19.3095 13.8252 17.8295 14.1952L19.3595 15.7252C21.1295 14.8152 22.3095 12.9052 22.0595 10.7152C21.7795 8.1552 19.4695 6.2952 16.8895 6.2952H14.0995C13.5495 6.2952 13.0995 6.74519 13.0995 7.2952C13.0995 7.8452 13.5495 8.2952 14.0995 8.2952ZM3.60954 2.8052C3.21954 2.4152 2.58954 2.4152 2.19954 2.8052C1.80954 3.1952 1.80954 3.8252 2.19954 4.2152L4.83954 6.8552C3.06954 7.76519 1.88954 9.6752 2.13954 11.8652C2.41954 14.4352 4.72954 16.2952 7.30954 16.2952H10.0995C10.6495 16.2952 11.0995 15.8452 11.0995 15.2952C11.0995 14.7452 10.6495 14.2952 10.0995 14.2952H7.22954C5.76954 14.2952 4.42954 13.3152 4.14954 11.8752C3.83954 10.2352 4.89954 8.7652 6.36954 8.3952L8.48954 10.5152C8.25954 10.7052 8.09954 10.9752 8.09954 11.2952C8.09954 11.8452 8.54954 12.2952 9.09954 12.2952H10.2695L19.1695 21.1952C19.5595 21.5852 20.1895 21.5852 20.5795 21.1952C20.9695 20.8052 20.9695 20.1752 20.5795 19.7852L3.60954 2.8052ZM14.0995 10.2952L15.8095 12.0052C15.9895 11.8252 16.0995 11.5752 16.0995 11.2952C16.0995 10.7452 15.6495 10.2952 15.0995 10.2952H14.0995Z" fill="currentColor"/>
</svg>
