<svg viewBox="0 0 24 24" fill="none" xmlns="http://www.w3.org/2000/svg">
<path d="M12 16.4766C13.3807 16.4766 14.5 15.3574 14.5 13.9766C14.5 12.5959 13.3807 11.4766 12 11.4766C10.6193 11.4766 9.5 12.5959 9.5 13.9766C9.5 15.3574 10.6193 16.4766 12 16.4766Z" fill="currentColor"/>
<path d="M16.6 3.34665C18.7 3.61665 20.37 5.27665 20.63 7.37665C20.67 7.71665 20.95 7.97665 21.29 7.97665C21.68 7.97665 22 7.63665 21.95 7.24665C21.62 4.52665 19.45 2.35665 16.73 2.02665C16.34 1.97665 16 2.29665 16 2.68665C16 3.02665 16.26 3.30665 16.6 3.34665Z" fill="currentColor"/>
<path d="M19.23 7.16665C18.93 5.97665 18 5.04665 16.81 4.74665C16.4 4.64665 16 4.96665 16 5.39665C16 5.68665 16.19 5.96665 16.48 6.03665C17.2 6.21665 17.77 6.77665 17.94 7.49665C18.01 7.78665 18.28 7.97665 18.58 7.97665C19.01 7.97665 19.33 7.57665 19.23 7.16665Z" fill="currentColor"/>
<path d="M17 8.97665C17 7.87665 16.1 6.97665 15 6.97665V4.97665C15 4.42665 14.55 3.97665 14 3.97665H9.88C9.32 3.97665 8.78 4.21665 8.4 4.62665L7.17 5.97665H4C2.9 5.97665 2 6.87665 2 7.97665V19.9766C2 21.0766 2.9 21.9766 4 21.9766H20C21.1 21.9766 22 21.0766 22 19.9766V10.9766C22 9.87665 21.1 8.97665 20 8.97665H17ZM12 18.4766C9.52 18.4766 7.5 16.4566 7.5 13.9766C7.5 11.4966 9.52 9.47665 12 9.47665C14.48 9.47665 16.5 11.4966 16.5 13.9766C16.5 16.4566 14.48 18.4766 12 18.4766Z" fill="currentColor"/>
</svg>
