<svg width="24" height="24" viewBox="0 0 24 24" fill="none" xmlns="http://www.w3.org/2000/svg">
<path d="M19 1.70898H5C3.89 1.70898 3 2.60898 3 3.70898V17.709C3 18.809 3.9 19.709 5 19.709H9L11.29 21.999C11.68 22.389 12.31 22.389 12.7 21.999L15 19.709H19C20.1 19.709 21 18.809 21 17.709V3.70898C21 2.60898 20.1 1.70898 19 1.70898ZM13 17.709H11V15.709H13V17.709ZM15.07 9.95898L14.17 10.879C13.59 11.469 13.18 11.979 13.05 12.939C12.99 13.369 12.64 13.699 12.2 13.699H11.89C11.37 13.699 10.97 13.239 11.04 12.719C11.15 11.809 11.57 10.999 12.18 10.379L13.42 9.11898C13.78 8.75898 14 8.25898 14 7.70898C14 6.60898 13.1 5.70898 12 5.70898C11.13 5.70898 10.38 6.27898 10.11 7.05898C9.98 7.42898 9.67 7.69898 9.28 7.69898H8.98C8.4 7.69898 8 7.13898 8.16 6.57898C8.65 4.91898 10.18 3.70898 12 3.70898C14.21 3.70898 16 5.49898 16 7.70898C16 8.58898 15.64 9.38898 15.07 9.95898Z" fill="black"/>
</svg>
