<svg  viewBox="0 0 24 24" fill="none" xmlns="http://www.w3.org/2000/svg">
<path d="M3.64003 3.82514C3.25003 4.21514 3.25003 4.84514 3.64003 5.23514L6.11003 7.70514C6.00003 8.21514 5.93003 8.73514 5.93003 9.26514C5.93003 13.4351 10.35 19.1851 12.16 21.3751C12.56 21.8551 13.29 21.8551 13.69 21.3751C14.34 20.5951 15.31 19.3651 16.3 17.9151L18.95 20.5651C19.34 20.9551 19.97 20.9551 20.36 20.5651C20.75 20.1751 20.75 19.5451 20.36 19.1551L5.05003 3.82514C4.66003 3.43514 4.03003 3.43514 3.64003 3.82514ZM12.93 2.26514C11.09 2.26514 9.43003 2.97514 8.18003 4.12514L11.37 7.31514C11.8 6.97514 12.34 6.76514 12.93 6.76514C14.31 6.76514 15.43 7.88514 15.43 9.26514C15.43 9.85514 15.22 10.3951 14.87 10.8251L18.42 14.3751C19.3 12.6251 19.93 10.8351 19.93 9.26514C19.93 5.39514 16.8 2.26514 12.93 2.26514Z" fill="currentColor"/>
</svg>
