<svg  viewBox="0 0 24 24" fill="none" xmlns="http://www.w3.org/2000/svg">
<path d="M8.5 15C8.5 16.38 9.62 17.5 11 17.5C12.23 17.5 13.25 16.6 13.46 15.43C12.46 14.42 11.63 13.45 10.98 12.5C9.61 12.52 8.5 13.63 8.5 15Z" fill="currentColor"/>
<path d="M17.65 18.08C17.28 18.4 16.73 18.4 16.35 18.08C15.09 17 15.65 17.47 15.05 16.94C14.22 18.68 12.32 19.81 10.2 19.44C8.37 19.12 6.89 17.64 6.57 15.81C6.15 13.37 7.7 11.23 9.88 10.67C9.3 9.45 9 8.28 9 7.15C9 6.4 9.1 5.68 9.28 5H8.88C8.32 5 7.78 5.24 7.4 5.65L6.17 7H3C1.9 7 1 7.9 1 9V21C1 22.1 1.9 23 3 23H19C20.1 23 21 22.1 21 21V14.97C19.59 16.46 18.35 17.48 17.65 18.08Z" fill="currentColor"/>
<path d="M16.34 15.42C16.71 15.75 17.29 15.75 17.67 15.42C21.22 12.25 23 9.5 23 7.15C23 3.42 20.15 1 17 1C13.85 1 11 3.42 11 7.15C11 9.5 12.78 12.25 16.34 15.42ZM16.27 6.25L17 4L17.73 6.25H20L18.15 7.72L18.85 10L17 8.59L15.15 10L15.85 7.72L14 6.25H16.27Z" fill="currentColor"/>
</svg>
