<svg  viewBox="0 0 24 24" fill="none" xmlns="http://www.w3.org/2000/svg">
<path d="M21.8984 7.89L20.8484 4.52C20.6284 3.62 19.8484 3 18.9384 3H5.04837C4.14837 3 3.35837 3.63 3.14837 4.52L2.09837 7.89C1.63837 9.86 2.94837 11 2.99837 11.06V19C2.99837 20.1 3.89837 21 4.99837 21H18.9984C20.0984 21 20.9984 20.1 20.9984 19V11.06C22.1184 9.94 22.0884 8.65 21.8984 7.89ZM12.9984 5H14.9584L15.4984 8.52C15.5884 9.23 15.1084 10 14.2184 10C13.5484 10 12.9984 9.41 12.9984 8.69V5ZM6.43837 8.86C6.35837 9.51 5.83837 10 5.22837 10C4.29837 10 3.87837 9.03 4.03837 8.36L5.04837 5H7.01837L6.43837 8.86ZM10.4984 16H8.99837V17H10.4984C10.7784 17 10.9984 17.22 10.9984 17.5C10.9984 17.78 10.7784 18 10.4984 18H8.49837C8.21837 18 7.99837 17.78 7.99837 17.5V15.5C7.99837 15.22 8.21837 15 8.49837 15H9.99837V14H8.49837C8.21837 14 7.99837 13.78 7.99837 13.5C7.99837 13.22 8.21837 13 8.49837 13H10.4984C10.7784 13 10.9984 13.22 10.9984 13.5V15.5C10.9984 15.78 10.7784 16 10.4984 16ZM10.9984 8.69C10.9984 9.41 10.4484 10 9.70837 10C8.95837 10 8.40837 9.3 8.48837 8.52L9.03837 5H10.9984V8.69ZM15.4984 18C15.2184 18 14.9984 17.78 14.9984 17.5V16H13.4984C13.2184 16 12.9984 15.78 12.9984 15.5V13.5C12.9984 13.22 13.2184 13 13.4984 13C13.7784 13 13.9984 13.22 13.9984 13.5V15H14.9984V13.5C14.9984 13.22 15.2184 13 15.4984 13C15.7784 13 15.9984 13.22 15.9984 13.5V17.5C15.9984 17.78 15.7784 18 15.4984 18ZM18.7684 10C18.1584 10 17.6284 9.51 17.5584 8.86L16.9784 5L18.9084 4.99L19.9584 8.36C20.1184 9.03 19.7084 10 18.7684 10Z" fill="currentColor"/>
</svg>
