<svg  viewBox="0 0 24 24" fill="none" xmlns="http://www.w3.org/2000/svg">
<path d="M21.48 13.7664L13.5 9.06641V3.56641C13.5 2.73641 12.83 2.06641 12 2.06641C11.17 2.06641 10.5 2.73641 10.5 3.56641V9.06641L2.52 13.7664C2.2 13.9464 2 14.2964 2 14.6664C2 15.3664 2.67 15.8664 3.34 15.6764L10.5 13.5764V19.0664L8.24 20.4164C8.09 20.5064 8 20.6764 8 20.8464V21.4264C8 21.7564 8.31 21.9964 8.62 21.9164L11.54 21.1864L12 21.0664L12.38 21.1564L12.8 21.2664L14.7 21.7464L15.37 21.9164C15.69 21.9964 15.99 21.7564 15.99 21.4264V20.8464C15.99 20.6664 15.9 20.5064 15.75 20.4164L13.5 19.0664V13.5664L20.66 15.6664C21.33 15.8664 22 15.3664 22 14.6664C22 14.2964 21.8 13.9464 21.48 13.7664Z" fill="currentColor"/>
</svg>
