<svg  viewBox="0 0 24 24" fill="none" xmlns="http://www.w3.org/2000/svg">
<path d="M7.79947 13.3317L10.6295 10.5017L4.43946 4.32166C3.95946 3.84166 3.12947 3.97166 2.82947 4.59166C2.11947 6.08166 2.37947 7.91166 3.60947 9.15166L7.79947 13.3317ZM14.5795 11.5217C16.1095 12.2317 18.2595 11.7317 19.8495 10.1417C21.7595 8.23166 22.1295 5.49166 20.6595 4.02166C19.1995 2.56166 16.4595 2.92166 14.5395 4.83166C12.9495 6.42166 12.4495 8.57166 13.1595 10.1017L4.10947 19.1517C3.71947 19.5417 3.71947 20.1717 4.10947 20.5617C4.49946 20.9517 5.12947 20.9517 5.51947 20.5617L11.6995 14.4017L17.8795 20.5817C18.2695 20.9717 18.8995 20.9717 19.2895 20.5817C19.6795 20.1917 19.6795 19.5617 19.2895 19.1717L13.1095 12.9917L14.5795 11.5217Z" fill="currentColor"/>
</svg>
