<svg  viewBox="0 0 24 24" fill="none" xmlns="http://www.w3.org/2000/svg">
<path d="M18.9 5.82285H18.37L19.08 3.85285C19.32 3.20285 18.98 2.48285 18.33 2.25285C17.68 2.01285 16.96 2.35285 16.72 3.00285L15.7 5.82285H5.10999C3.73999 5.82285 2.77999 7.16285 3.20999 8.45285L5.00999 13.8228L3.21999 19.1928C2.77999 20.4828 3.74999 21.8228 5.10999 21.8228H18.89C20.25 21.8228 21.22 20.4828 20.79 19.1928L19.01 13.8228L20.79 8.45285C21.22 7.16285 20.26 5.82285 18.9 5.82285ZM15.01 14.8228H13.01V16.8228C13.01 17.3728 12.56 17.8228 12.01 17.8228C11.46 17.8228 11.01 17.3728 11.01 16.8228V14.8228H9.00999C8.45999 14.8228 8.00999 14.3728 8.00999 13.8228C8.00999 13.2728 8.45999 12.8228 9.00999 12.8228H11.01V10.8228C11.01 10.2728 11.46 9.82285 12.01 9.82285C12.56 9.82285 13.01 10.2728 13.01 10.8228V12.8228H15.01C15.56 12.8228 16.01 13.2728 16.01 13.8228C16.01 14.3728 15.56 14.8228 15.01 14.8228Z" fill="currentColor"/>
</svg>
