<svg  viewBox="0 0 24 24" fill="none" xmlns="http://www.w3.org/2000/svg">
<path d="M12 11.4426C10.18 9.74258 7.88 8.55258 5.32 8.09258C4.11 7.88258 3 8.84258 3 10.0726V16.3126C3 17.9926 3.72 18.8726 4.71 19.0026C7.21 19.3226 9.48 20.3526 11.34 21.8726C11.69 22.1626 12.26 22.1926 12.61 21.9126C14.48 20.3826 16.77 19.3326 19.29 19.0126C20.23 18.8826 21 17.9526 21 16.9926V10.0726C21 8.84258 19.89 7.88258 18.68 8.09258C16.12 8.55258 13.82 9.74258 12 11.4426ZM12 7.89258C13.66 7.89258 15 6.55258 15 4.89258C15 3.23258 13.66 1.89258 12 1.89258C10.34 1.89258 9 3.23258 9 4.89258C9 6.55258 10.34 7.89258 12 7.89258Z" fill="currentColor"/>
</svg>
