<svg  viewBox="0 0 24 24" fill="none" xmlns="http://www.w3.org/2000/svg">
<path d="M17 4.95797C17.83 4.95797 18.5 4.28797 18.5 3.45797C18.5 2.79797 17.84 1.81797 17.39 1.23797C17.19 0.977969 16.8 0.977969 16.6 1.23797C16.16 1.81797 15.5 2.79797 15.5 3.45797C15.5 4.28797 16.17 4.95797 17 4.95797ZM12 4.95797C12.83 4.95797 13.5 4.28797 13.5 3.45797C13.5 2.79797 12.84 1.81797 12.39 1.23797C12.19 0.977969 11.8 0.977969 11.6 1.23797C11.16 1.81797 10.5 2.79797 10.5 3.45797C10.5 4.28797 11.17 4.95797 12 4.95797ZM7 4.95797C7.83 4.95797 8.5 4.28797 8.5 3.45797C8.5 2.79797 7.84 1.81797 7.39 1.23797C7.19 0.977969 6.8 0.977969 6.6 1.23797C6.16 1.81797 5.5 2.79797 5.5 3.45797C5.5 4.28797 6.17 4.95797 7 4.95797ZM18.92 7.96797C18.72 7.37797 18.16 6.95797 17.5 6.95797H6.5C5.84 6.95797 5.29 7.37797 5.08 7.96797L3.11 13.638C3.04 13.848 3 14.068 3 14.298V21.458C3 22.288 3.67 22.958 4.5 22.958C5.33 22.958 6 22.288 6 21.458V20.958H18V21.458C18 22.278 18.67 22.958 19.5 22.958C20.32 22.958 21 22.288 21 21.458V14.298C21 14.078 20.96 13.848 20.89 13.638L18.92 7.96797ZM6.5 17.958C5.67 17.958 5 17.288 5 16.458C5 15.628 5.67 14.958 6.5 14.958C7.33 14.958 8 15.628 8 16.458C8 17.288 7.33 17.958 6.5 17.958ZM17.5 17.958C16.67 17.958 16 17.288 16 16.458C16 15.628 16.67 14.958 17.5 14.958C18.33 14.958 19 15.628 19 16.458C19 17.288 18.33 17.958 17.5 17.958ZM5 12.958L6.27 9.13797C6.41 8.73797 6.79 8.45797 7.22 8.45797H16.78C17.21 8.45797 17.59 8.73797 17.73 9.13797L19 12.958H5Z" fill="currentColor"/>
</svg>
