<svg  viewBox="0 0 24 24" fill="none" xmlns="http://www.w3.org/2000/svg">
<path d="M13.404 3.00179C8.31401 2.86179 4.14401 6.94179 4.14401 12.0018H2.35401C1.90401 12.0018 1.68401 12.5418 2.00401 12.8518L4.79401 15.6418C4.99401 15.8418 5.30401 15.8418 5.50401 15.6418L8.30401 12.8518C8.60401 12.5418 8.38401 12.0018 7.93401 12.0018H6.14401C6.14401 8.11179 9.34401 4.94179 13.244 5.00179C16.954 5.05179 20.084 8.18179 20.144 11.9018C20.204 15.8118 17.044 19.0018 13.144 19.0018C11.554 19.0018 10.094 18.4718 8.91401 17.5718C8.51401 17.2718 7.95401 17.3018 7.60401 17.6618C7.17401 18.0918 7.21401 18.8018 7.69401 19.1618C9.20401 20.3118 11.094 21.0018 13.144 21.0018C18.204 21.0018 22.284 16.8318 22.144 11.7518C22.014 7.05179 18.094 3.13179 13.404 3.00179ZM15.144 11.0018V10.0018C15.144 8.90179 14.244 8.00179 13.144 8.00179C12.044 8.00179 11.144 8.90179 11.144 10.0018V11.0018C10.594 11.0018 10.144 11.4518 10.144 12.0018V15.0018C10.144 15.5518 10.594 16.0018 11.144 16.0018H15.144C15.694 16.0018 16.144 15.5518 16.144 15.0018V12.0018C16.144 11.4518 15.694 11.0018 15.144 11.0018ZM14.144 11.0018H12.144V10.0018C12.144 9.45179 12.594 9.00179 13.144 9.00179C13.694 9.00179 14.144 9.45179 14.144 10.0018V11.0018Z" fill="currentColor"/>
</svg>
