<svg viewBox="0 0 24 24" fill="none" xmlns="http://www.w3.org/2000/svg">
<path d="M18.995 3H5.00501C3.90501 3 3.005 3.9 3.005 5V19C3.005 20.1 3.90501 21 5.00501 21H18.995C20.095 21 20.995 20.1 20.995 19V5C20.995 3.9 20.095 3 18.995 3ZM15.005 10.5C15.005 11.33 14.335 12 13.505 12C14.335 12 15.005 12.67 15.005 13.5V15C15.005 16.11 14.105 17 13.005 17H9.995C9.445 17 8.995 16.55 8.995 16C8.995 15.45 9.445 15 9.995 15H13.005L12.995 13H11.995C11.445 13 10.995 12.55 10.995 12C10.995 11.45 11.445 11 11.995 11H12.995L13.005 9H9.995C9.445 9 9.005 8.55 9.005 8C9.005 7.45 9.445 7 9.995 7H13.005C14.105 7 15.005 7.9 15.005 9V10.5Z" fill="currentColor"/>
</svg>
