<svg viewBox="0 0 24 24" fill="none" xmlns="http://www.w3.org/2000/svg">
<path d="M11.9993 10.5C8.52925 10.5 5.63925 13.04 5.08925 16.36C4.98925 16.96 5.47925 17.5 6.08925 17.5C6.57925 17.5 6.98925 17.14 7.06925 16.65C7.47925 14.29 9.52925 12.5 11.9993 12.5C14.4693 12.5 16.5193 14.29 16.9293 16.65C17.0093 17.14 17.4193 17.5 17.9093 17.5C18.5193 17.5 18.9993 16.96 18.8993 16.36C18.3593 13.04 15.4693 10.5 11.9993 10.5ZM11.9993 6.5C6.29925 6.5 1.60925 10.84 1.04925 16.4C0.999253 16.99 1.45925 17.5 2.05925 17.5C2.56925 17.5 2.99925 17.12 3.04925 16.62C3.48925 12.07 7.33925 8.5 11.9993 8.5C16.6593 8.5 20.5093 12.07 20.9593 16.62C21.0093 17.12 21.4393 17.5 21.9493 17.5C22.5393 17.5 23.0093 16.99 22.9493 16.4C22.3893 10.84 17.6993 6.5 11.9993 6.5Z" fill="currentColor"/>
</svg>
