<svg width="24" height="24" viewBox="0 0 24 24" fill="none" xmlns="http://www.w3.org/2000/svg">
<path d="M14.9986 4.85254H20.9986C21.5486 4.85254 21.9986 5.30254 21.9986 5.85254C21.9986 6.40254 21.5486 6.85254 20.9986 6.85254H14.9986C14.4486 6.85254 13.9986 6.40254 13.9986 5.85254C13.9986 5.30254 14.4486 4.85254 14.9986 4.85254ZM14.9986 10.3525H20.9986C21.5486 10.3525 21.9986 10.8025 21.9986 11.3525C21.9986 11.9025 21.5486 12.3525 20.9986 12.3525H14.9986C14.4486 12.3525 13.9986 11.9025 13.9986 11.3525C13.9986 10.8025 14.4486 10.3525 14.9986 10.3525ZM14.9986 15.8525H20.9986C21.5486 15.8525 21.9986 16.3025 21.9986 16.8525C21.9986 17.4025 21.5486 17.8525 20.9986 17.8525H14.9986C14.4486 17.8525 13.9986 17.4025 13.9986 16.8525C13.9986 16.3025 14.4486 15.8525 14.9986 15.8525ZM9.84859 19.0025L11.6386 17.2125C11.8386 17.0125 11.8386 16.7025 11.6386 16.5025L9.84859 14.7125C9.53859 14.3925 8.99859 14.6125 8.99859 15.0625V18.6525C8.99859 19.0925 9.53859 19.3125 9.84859 19.0025ZM8.99859 15.8525H8.69859C6.34859 15.8525 4.24859 14.1425 4.01859 11.8025C3.75859 9.12254 5.86859 6.85254 8.49859 6.85254H10.9986C11.5486 6.85254 11.9986 6.40254 11.9986 5.85254C11.9986 5.30254 11.5486 4.85254 10.9986 4.85254H8.49859C4.63859 4.85254 1.53859 8.25254 2.05859 12.2125C2.47859 15.4925 5.42859 17.8525 8.72859 17.8525H8.99859" fill="black"/>
</svg>
