<svg width="24" height="24" viewBox="0 0 24 24" fill="none" xmlns="http://www.w3.org/2000/svg">
<path d="M2.5 14H4.5C5.05 14 5.5 14.45 5.5 15C5.5 15.55 5.05 16 4.5 16H1.5C0.95 16 0.5 15.55 0.5 15V9C0.5 8.45 0.95 8 1.5 8C2.05 8 2.5 8.45 2.5 9V14ZM5.5 10H6.5V15C6.5 15.55 6.95 16 7.5 16C8.05 16 8.5 15.55 8.5 15V10H9.5C10.05 10 10.5 9.55 10.5 9C10.5 8.45 10.05 8 9.5 8H5.5C4.95 8 4.5 8.45 4.5 9C4.5 9.55 4.95 10 5.5 10ZM12.5 16H15.5C16.05 16 16.5 15.55 16.5 15C16.5 14.45 16.05 14 15.5 14H13.5V13H15.5C16.05 13 16.5 12.55 16.5 12C16.5 11.45 16.05 11 15.5 11H13.5V10H15.5C16.05 10 16.5 9.55 16.5 9C16.5 8.45 16.05 8 15.5 8H12.5C11.95 8 11.5 8.45 11.5 9V15C11.5 15.55 11.95 16 12.5 16ZM22.5 11H21.5V10C21.5 9.45 21.05 9 20.5 9C19.95 9 19.5 9.45 19.5 10V11H18.5C17.95 11 17.5 11.45 17.5 12C17.5 12.55 17.95 13 18.5 13H19.5V14C19.5 14.55 19.95 15 20.5 15C21.05 15 21.5 14.55 21.5 14V13H22.5C23.05 13 23.5 12.55 23.5 12C23.5 11.45 23.05 11 22.5 11Z" fill="black"/>
</svg>
