<svg  viewBox="0 0 24 24" fill="none" xmlns="http://www.w3.org/2000/svg">
<path d="M5.5 14H7.5C8.05 14 8.5 14.45 8.5 15C8.5 15.55 8.05 16 7.5 16H4.5C3.95 16 3.5 15.55 3.5 15V9C3.5 8.45 3.95 8 4.5 8C5.05 8 5.5 8.45 5.5 9V14ZM9.5 10H10.5V15C10.5 15.55 10.95 16 11.5 16C12.05 16 12.5 15.55 12.5 15V10H13.5C14.05 10 14.5 9.55 14.5 9C14.5 8.45 14.05 8 13.5 8H9.5C8.95 8 8.5 8.45 8.5 9C8.5 9.55 8.95 10 9.5 10ZM20.5 9C20.5 8.45 20.05 8 19.5 8H16.5C15.95 8 15.5 8.45 15.5 9V15C15.5 15.55 15.95 16 16.5 16H19.5C20.05 16 20.5 15.55 20.5 15C20.5 14.45 20.05 14 19.5 14H17.5V13H19.5C20.05 13 20.5 12.55 20.5 12C20.5 11.45 20.05 11 19.5 11H17.5V10H19.5C20.05 10 20.5 9.55 20.5 9Z" fill="currentColor"/>
</svg>
