<svg width="24" height="22" viewBox="0 0 24 22" fill="none" xmlns="http://www.w3.org/2000/svg">
<path d="M3.37 13.0267C4.16 12.7689 4.54 12.3333 5.36 12.3333C6.55 12.3333 6.78 13.2222 8.69 13.2222C10.64 13.2222 10.78 12.3333 12.02 12.3333C13.21 12.3333 13.44 13.2222 15.35 13.2222C17.3 13.2222 17.44 12.3333 18.68 12.3333C19.49 12.3333 19.85 12.7422 20.61 13.0089C21.28 13.24 22 12.7867 22 12.1556C22 11.7733 21.72 11.4356 21.31 11.3022C20.34 10.9911 20.09 10.5644 18.66 10.5644C16.71 10.5644 16.57 11.4533 15.33 11.4533C14.14 11.4533 13.91 10.5644 12 10.5644C10.05 10.5644 9.91 11.4533 8.67 11.4533C7.48 11.4533 7.25 10.5644 5.34 10.5644C3.79 10.5644 3.38 11.1244 2.66 11.3556C2.27 11.48 2.01 11.8178 2.01 12.1911C2.01 12.8044 2.71 13.24 3.37 13.0267Z" fill="currentColor"/>
<path d="M2 17.2222C2 18.2 2.9 19 4 19H20C21.1 19 22 18.2 22 17.2222V16.3333C22 15.3556 21.1 14.5556 20 14.5556H4C2.9 14.5556 2 15.3556 2 16.3333V17.2222Z" fill="currentColor"/>
<path d="M22 8.33333C22.02 4.77778 17.72 3 12 3C6.29 3 2 4.77778 2 8.33333C2 8.82222 2.45 9.22222 3 9.22222H21C21.55 9.22222 22 8.82222 22 8.33333Z" fill="currentColor"/>
</svg>
