<svg width="24" height="24" viewBox="0 0 24 24" fill="none" xmlns="http://www.w3.org/2000/svg">
<path d="M6.20374 8.50151H3.20374C2.65374 8.50151 2.20374 8.05151 2.20374 7.50151C2.20374 6.95151 2.65374 6.50151 3.20374 6.50151H6.20374C6.75374 6.50151 7.20374 6.95151 7.20374 7.50151C7.20374 8.05151 6.75374 8.50151 6.20374 8.50151ZM6.20374 11.5015H3.20374C2.65374 11.5015 2.20374 11.9515 2.20374 12.5015C2.20374 13.0515 2.65374 13.5015 3.20374 13.5015H6.20374C6.75374 13.5015 7.20374 13.0515 7.20374 12.5015C7.20374 11.9515 6.75374 11.5015 6.20374 11.5015ZM20.0837 17.7915L16.9637 14.6715C16.1037 15.2315 15.0737 15.5515 13.9637 15.4915C11.5937 15.3815 9.56374 13.5315 9.24374 11.1815C8.80374 7.83151 11.6937 5.00151 15.0737 5.57151C17.0237 5.90151 18.6437 7.42151 19.0737 9.35151C19.4037 10.8115 19.0837 12.1715 18.3737 13.2515L21.5037 16.3815C21.8937 16.7715 21.8937 17.4015 21.5037 17.7915C21.1137 18.1815 20.4737 18.1815 20.0837 17.7915ZM17.2037 10.5015C17.2037 8.85151 15.8537 7.50151 14.2037 7.50151C12.5537 7.50151 11.2037 8.85151 11.2037 10.5015C11.2037 12.1515 12.5537 13.5015 14.2037 13.5015C15.8537 13.5015 17.2037 12.1515 17.2037 10.5015ZM3.20374 18.5015H11.2037C11.7537 18.5015 12.2037 18.0515 12.2037 17.5015C12.2037 16.9515 11.7537 16.5015 11.2037 16.5015H3.20374C2.65374 16.5015 2.20374 16.9515 2.20374 17.5015C2.20374 18.0515 2.65374 18.5015 3.20374 18.5015Z" fill="black"/>
</svg>
