<svg  viewBox="0 0 24 24" fill="none" xmlns="http://www.w3.org/2000/svg">
<path d="M14.655 4.98097L9.655 3.23097C9.235 3.08097 8.77501 3.08097 8.35501 3.22097L4.36501 4.56097C3.55501 4.84097 3.005 5.60097 3.005 6.46097V18.311C3.005 19.721 4.415 20.681 5.725 20.171L8.655 19.031C8.875 18.941 9.12501 18.941 9.34501 19.021L14.345 20.771C14.765 20.921 15.225 20.921 15.645 20.781L19.635 19.441C20.445 19.171 20.995 18.401 20.995 17.541V5.69097C20.995 4.28097 19.585 3.32097 18.275 3.83097L15.345 4.97097C15.125 5.05097 14.885 5.06097 14.655 4.98097ZM15.005 18.891L9.005 16.781V5.11097L15.005 7.22097V18.891Z" fill="currentColor"/>
</svg>
