<svg  viewBox="0 0 24 24" fill="none" xmlns="http://www.w3.org/2000/svg">
<path d="M12.2618 3.73828C17.2318 3.73828 21.1618 8.29828 20.0818 13.4583C19.4018 16.6883 16.6818 19.1983 13.4118 19.6583C11.8218 19.8783 10.2718 19.6483 8.83177 18.9583C8.56177 18.8283 8.27177 18.7683 7.97177 18.7683C7.78177 18.7683 7.59177 18.7983 7.41177 18.8483L5.10177 19.5283C4.72177 19.6383 4.36177 19.2883 4.47177 18.8983L5.17177 16.5083C5.30177 16.0583 5.24177 15.5883 5.03177 15.1583C4.52177 14.0783 4.26177 12.9183 4.26177 11.7383C4.26177 7.32828 7.85177 3.73828 12.2618 3.73828ZM12.2618 1.73828C6.74177 1.73828 2.26177 6.21828 2.26177 11.7383C2.26177 13.2783 2.62177 14.7183 3.23177 16.0283L1.77177 20.9883C1.55177 21.7383 2.26177 22.4483 3.02177 22.2183L7.98177 20.7583C9.64177 21.5483 11.5418 21.9083 13.5618 21.6483C18.1218 21.0583 21.7718 17.2983 22.2218 12.7283C22.7918 6.76828 18.1118 1.73828 12.2618 1.73828Z" fill="currentColor"/>
<path fill-rule="evenodd" clip-rule="evenodd" d="M12.2618 7.73828C11.7118 7.73828 11.2618 8.18828 11.2618 8.73828V10.7383H9.26177C8.71177 10.7383 8.26177 11.1883 8.26177 11.7383C8.26177 12.2883 8.71177 12.7383 9.26177 12.7383H11.2618V14.7383C11.2618 15.2883 11.7118 15.7383 12.2618 15.7383C12.8118 15.7383 13.2618 15.2883 13.2618 14.7383V12.7383H15.2618C15.8118 12.7383 16.2618 12.2883 16.2618 11.7383C16.2618 11.1883 15.8118 10.7383 15.2618 10.7383H13.2618V8.73828C13.2618 8.18828 12.8118 7.73828 12.2618 7.73828Z" fill="currentColor"/>
</svg>
