<svg width="24" height="24" viewBox="0 0 24 24" fill="none" xmlns="http://www.w3.org/2000/svg">
<path d="M19 11C20.13 11 21.16 10.61 22 9.98V19C22 20.1 21.1 21 20 21H4C2.9 21 2 20.1 2 19V7C2 5.9 2.9 5 4 5H14.1C14.04 5.32 14 5.66 14 6C14 7.48 14.65 8.79 15.67 9.71L12 12L5.3 7.81C4.73 7.46 4 7.86 4 8.53C4 8.82 4.15 9.09 4.4 9.25L11.47 13.67C11.79 13.87 12.21 13.87 12.53 13.67L17.3 10.69C17.84 10.88 18.4 11 19 11ZM16 6C16 7.66 17.34 9 19 9C20.66 9 22 7.66 22 6C22 4.34 20.66 3 19 3C17.34 3 16 4.34 16 6Z" fill="black"/>
</svg>
