<svg width="24" height="24" viewBox="0 0 24 24" fill="none" xmlns="http://www.w3.org/2000/svg">
<path d="M16.23 7.38449H18.83C18.77 6.91449 18.47 6.44449 18.04 6.21449L11.4 2.83449C10.84 2.54449 10.17 2.54449 9.6 2.82449L2.8 6.21449C2.32 6.47449 2 7.02449 2 7.55449V15.3845C2 16.4845 2.9 17.3845 4 17.3845V7.78449L10.5 4.38449L16.23 7.38449Z" fill="black"/>
<path d="M20 8.38449H7C5.9 8.38449 5 9.28449 5 10.3845V19.3845C5 20.4845 5.9 21.3845 7 21.3845H20C21.1 21.3845 22 20.4845 22 19.3845V10.3845C22 9.28449 21.1 8.38449 20 8.38449ZM20 11.8445C20 12.1745 19.81 12.4845 19.52 12.6345L13.91 15.5145C13.66 15.6445 13.35 15.6445 13.1 15.5145L7.49 12.6345C7.19 12.4845 7 12.1745 7 11.8445C7 11.1745 7.7 10.7445 8.3 11.0545L13.5 13.7245L18.7 11.0545C19.3 10.7445 20 11.1745 20 11.8445Z" fill="black"/>
</svg>
