<svg  viewBox="0 0 24 24" fill="none" xmlns="http://www.w3.org/2000/svg">
<path d="M17.7587 20.499C17.3687 20.889 16.7387 20.889 16.3487 20.499L14.2287 18.379C13.8387 17.989 13.8387 17.359 14.2287 16.969C14.6187 16.579 15.2487 16.579 15.6387 16.969L17.0487 18.379L20.5887 14.839C20.9787 14.449 21.6087 14.449 21.9987 14.839C22.3887 15.229 22.3887 15.859 21.9987 16.249L17.7587 20.499ZM11.7887 19.209H3.70874C2.60874 19.209 1.70874 18.309 1.70874 17.209V5.20898C1.70874 4.10898 2.60874 3.20898 3.70874 3.20898H19.7087C20.8087 3.20898 21.7087 4.10898 21.7087 5.20898V11.889C20.7987 11.459 19.7887 11.209 18.7087 11.209C14.8387 11.209 11.7087 14.339 11.7087 18.209C11.7087 18.549 11.7387 18.879 11.7887 19.209ZM11.1787 11.879C11.4987 12.079 11.9187 12.079 12.2387 11.879L19.3087 7.45898C19.5587 7.29898 19.7087 7.02898 19.7087 6.73898C19.7087 6.06898 18.9787 5.66898 18.4087 6.01898L11.7087 10.209L5.00874 6.01898C4.43874 5.66898 3.70874 6.06898 3.70874 6.73898C3.70874 7.02898 3.85874 7.29898 4.10874 7.45898L11.1787 11.879Z" fill="currentColor"/>
</svg>
