<svg  viewBox="0 0 24 24" fill="none" xmlns="http://www.w3.org/2000/svg">
<path d="M17.7587 19.29C17.3687 19.68 16.7387 19.68 16.3487 19.29L14.2287 17.17C13.8387 16.78 13.8387 16.15 14.2287 15.76C14.6187 15.37 15.2487 15.37 15.6387 15.76L17.0487 17.17L20.5887 13.63C20.9787 13.24 21.6087 13.24 21.9987 13.63C22.3887 14.02 22.3887 14.65 21.9987 15.04L17.7587 19.29ZM11.7087 17C11.7087 13.13 14.8387 10 18.7087 10C19.7887 10 20.7987 10.25 21.7087 10.68V4C21.7087 2.9 20.8087 2 19.7087 2H3.70874C2.60874 2 1.70874 2.9 1.70874 4V22L5.70874 18H11.7087C11.7087 17.83 11.7187 17.67 11.7387 17.5C11.7187 17.33 11.7087 17.17 11.7087 17Z" fill="currentColor"/>
</svg>
