<svg width="24" height="24" viewBox="0 0 24 24" fill="none" xmlns="http://www.w3.org/2000/svg">
<path d="M3.5 5H13.5C14.05 5 14.5 4.55 14.5 4C14.5 3.45 14.05 3 13.5 3H3.5C2.95 3 2.5 3.45 2.5 4C2.5 4.55 2.95 5 3.5 5Z" fill="black"/>
<path d="M13.5 6H3.5C2.4 6 1.5 6.9 1.5 8V19C1.5 20.1 2.4 21 3.5 21H13.5C14.6 21 15.5 20.1 15.5 19V8C15.5 6.9 14.6 6 13.5 6ZM11 15H10V16C10 16.83 9.33 17.5 8.5 17.5C7.67 17.5 7 16.83 7 16V15H6C5.17 15 4.5 14.33 4.5 13.5C4.5 12.67 5.17 12 6 12H7V11C7 10.17 7.67 9.5 8.5 9.5C9.33 9.5 10 10.17 10 11V12H11C11.83 12 12.5 12.67 12.5 13.5C12.5 14.33 11.83 15 11 15Z" fill="black"/>
<path d="M19.5 6C17.82 6 16.5 7.76 16.5 10C16.5 11.77 17.33 13.22 18.5 13.76V20C18.5 20.55 18.95 21 19.5 21C20.05 21 20.5 20.55 20.5 20V13.76C21.67 13.22 22.5 11.77 22.5 10C22.5 7.76 21.18 6 19.5 6Z" fill="black"/>
</svg>
