<svg  viewBox="0 0 24 24" fill="none" xmlns="http://www.w3.org/2000/svg">
<path d="M9.20129 5.57332V4.40332C9.20129 3.30332 10.1013 2.40332 11.2013 2.40332H13.2013C14.3013 2.40332 15.2013 3.30332 15.2013 4.40332C15.2013 5.50332 14.3013 6.40332 13.2013 6.40332H11.2013V7.57332L9.20129 5.57332ZM19.6213 14.4033L21.8013 16.5733C22.0213 16.7933 22.0213 17.1533 21.8013 17.3733C21.5813 17.5933 21.2213 17.5933 21.0013 17.3733L15.0213 11.3933C14.8013 11.1733 14.8013 10.8133 15.0213 10.5933C15.2413 10.3733 15.6013 10.3733 15.8213 10.5933L18.1713 12.9433V9.01332C18.1713 8.56332 18.7113 8.34332 19.0213 8.66332L21.8413 11.4833C22.0413 11.6833 22.0413 11.9933 21.8413 12.1933L19.6213 14.4033ZM19.3713 12.9533L20.5013 11.8233L19.3713 10.6933V12.9533ZM20.6913 19.8933C21.0813 20.2833 21.0813 20.9133 20.6913 21.3033C20.3013 21.6933 19.6713 21.6933 19.2813 21.3033L16.0013 18.0233L15.8413 18.1833C15.6113 18.4133 15.2213 18.4133 14.9913 18.1833C14.7613 17.9533 14.7613 17.5633 14.9913 17.3333L15.1513 17.1733L11.2013 13.2333V16.2533C11.2013 18.3233 9.52129 20.2633 7.46129 20.3933C5.14129 20.5333 3.20129 18.6933 3.20129 16.4033C3.20129 14.1933 4.99129 12.4033 7.21129 12.4033C7.94129 12.4033 8.62129 12.6133 9.21129 12.9533V11.2333L2.30129 4.32332C1.91129 3.93332 1.91129 3.30332 2.30129 2.91332C2.69129 2.52332 3.32129 2.52332 3.71129 2.91332L20.6913 19.8933Z" fill="currentColor"/>
</svg>
