<svg  viewBox="0 0 24 24" fill="none" xmlns="http://www.w3.org/2000/svg">
<path d="M9.20874 5L9.21874 13.55C8.61874 13.21 7.93874 13 7.21874 13C4.99874 13 3.20874 14.79 3.20874 17C3.20874 19.21 4.99874 21 7.21874 21C9.43874 21 11.2087 19.21 11.2087 17V7H13.2087C14.3087 7 15.2087 6.1 15.2087 5C15.2087 3.9 14.3087 3 13.2087 3H11.2087C10.1087 3 9.20874 3.9 9.20874 5ZM20.4987 11.72L18.0287 9.25C17.7087 8.94 17.1787 9.16 17.1787 9.6V13.54L14.8487 11.21C14.6187 10.98 14.2387 10.98 13.9987 11.21C13.7687 11.44 13.7687 11.83 13.9987 12.06L16.9387 15L14.0087 17.93C13.7787 18.16 13.7787 18.54 14.0087 18.78C14.2387 19.01 14.6187 19.01 14.8587 18.78L17.1887 16.45V20.39C17.1887 20.84 17.7287 21.06 18.0387 20.74L20.4987 18.28C20.8887 17.89 20.8887 17.26 20.4987 16.87L18.6287 15L20.4987 13.14C20.8887 12.75 20.8887 12.11 20.4987 11.72ZM18.3787 11.3L19.5087 12.43L18.3787 13.56V11.3ZM19.5087 17.57L18.3787 18.7V16.44L19.5087 17.57Z" fill="currentColor"/>
</svg>
