<svg width="24" height="24" viewBox="0 0 24 24" fill="none" xmlns="http://www.w3.org/2000/svg">
<path d="M18.1097 13.001H13.0497C12.7097 16.101 10.7897 18.721 8.10972 20.051C8.07972 21.861 6.44972 23.281 4.55972 22.951C3.35972 22.741 2.36972 21.751 2.15972 20.551C1.81972 18.651 3.26972 17.001 5.10972 17.001C6.05972 17.001 6.88972 17.451 7.43972 18.141C9.33972 17.111 10.6997 15.231 11.0197 13.001H7.91972C7.43972 14.341 6.05972 15.241 4.49972 14.941C3.31972 14.711 2.36972 13.741 2.14972 12.561C1.80972 10.661 3.26972 9.00098 5.10972 9.00098C6.40972 9.00098 7.50972 9.84098 7.92972 11.001H11.0297C10.7097 8.77098 9.33972 6.90098 7.43972 5.86098C6.79972 6.66098 5.76972 7.14098 4.62972 6.96098C3.39972 6.77098 2.36972 5.77098 2.15972 4.54098C1.82972 2.65098 3.27972 1.00098 5.10972 1.00098C6.74972 1.00098 8.06972 2.31098 8.09972 3.95098C10.7797 5.28098 12.6997 7.90098 13.0397 11.001H18.1097V9.21098C18.1097 8.76098 18.6497 8.54098 18.9597 8.86098L21.7497 11.651C21.9497 11.851 21.9497 12.161 21.7497 12.361L18.9597 15.151C18.6497 15.461 18.1097 15.241 18.1097 14.791V13.001Z" fill="black"/>
</svg>
