<svg  viewBox="0 0 24 24" fill="none" xmlns="http://www.w3.org/2000/svg">
<path d="M17.505 3.67773C15.555 3.67773 13.455 4.07773 12.005 5.17773C10.555 4.07773 8.455 3.67773 6.505 3.67773C5.05501 3.67773 3.515 3.89773 2.225 4.46773C1.495 4.79773 1.005 5.50773 1.005 6.31773V17.5977C1.005 18.8977 2.225 19.8577 3.485 19.5377C4.465 19.2877 5.505 19.1777 6.505 19.1777C8.065 19.1777 9.72501 19.4377 11.065 20.0977C11.665 20.3977 12.345 20.3977 12.935 20.0977C14.275 19.4277 15.935 19.1777 17.495 19.1777C18.495 19.1777 19.535 19.2877 20.515 19.5377C21.775 19.8677 22.995 18.9077 22.995 17.5977V6.31773C22.995 5.50773 22.505 4.79773 21.775 4.46773C20.495 3.89773 18.955 3.67773 17.505 3.67773ZM21.005 16.4077C21.005 17.0377 20.425 17.4977 19.805 17.3877C19.055 17.2477 18.275 17.1877 17.505 17.1877C15.805 17.1877 13.355 17.8377 12.005 18.6877V7.17773C13.355 6.32773 15.805 5.67773 17.505 5.67773C18.425 5.67773 19.335 5.76773 20.205 5.95773C20.665 6.05773 21.005 6.46773 21.005 6.93773V16.4077Z" fill="currentColor"/>
<path d="M13.985 10.1877C13.665 10.1877 13.375 9.98773 13.275 9.66773C13.145 9.27773 13.365 8.84773 13.755 8.72773C15.295 8.22773 17.285 8.06773 19.115 8.27773C19.525 8.32773 19.825 8.69773 19.775 9.10773C19.725 9.51773 19.355 9.81773 18.945 9.76773C17.325 9.57773 15.555 9.72773 14.215 10.1577C14.135 10.1677 14.055 10.1877 13.985 10.1877Z" fill="currentColor"/>
<path d="M13.985 12.8477C13.665 12.8477 13.375 12.6477 13.275 12.3277C13.145 11.9377 13.365 11.5077 13.755 11.3877C15.285 10.8877 17.285 10.7277 19.115 10.9377C19.525 10.9877 19.825 11.3577 19.775 11.7677C19.725 12.1777 19.355 12.4777 18.945 12.4277C17.325 12.2377 15.555 12.3877 14.215 12.8177C14.135 12.8377 14.055 12.8477 13.985 12.8477Z" fill="currentColor"/>
<path d="M13.985 15.5077C13.665 15.5077 13.375 15.3077 13.275 14.9877C13.145 14.5977 13.365 14.1677 13.755 14.0477C15.285 13.5477 17.285 13.3877 19.115 13.5977C19.525 13.6477 19.825 14.0177 19.775 14.4277C19.725 14.8377 19.355 15.1277 18.945 15.0877C17.325 14.8977 15.555 15.0477 14.215 15.4777C14.135 15.4977 14.055 15.5077 13.985 15.5077Z" fill="currentColor"/>
</svg>
