<svg width="24" height="24" viewBox="0 0 24 24" fill="none" xmlns="http://www.w3.org/2000/svg">
<path d="M17.7049 19.8484C18.0949 19.4584 18.0949 18.8284 17.7049 18.4384L15.0049 15.7384L13.5949 17.1484L16.2949 19.8484C16.6849 20.2384 17.3249 20.2384 17.7049 19.8484ZM8.71494 8.1484H11.0049V13.7384L6.29494 18.4384C5.90494 18.8284 5.90494 19.4584 6.29494 19.8484C6.68494 20.2384 7.31494 20.2384 7.70494 19.8484L12.4149 15.1484C12.7949 14.7684 13.0049 14.2684 13.0049 13.7384V8.1484H15.2949C15.7449 8.1484 15.9649 7.6084 15.6449 7.2984L12.3549 4.0084C12.1549 3.8084 11.8449 3.8084 11.6449 4.0084L8.35494 7.2984C8.04494 7.6084 8.26494 8.1484 8.71494 8.1484Z" fill="black"/>
</svg>
