<svg width="24" height="24" viewBox="0 0 24 24" fill="none" xmlns="http://www.w3.org/2000/svg">
<path d="M11.9989 14.5C13.6589 14.5 14.9989 13.16 14.9989 11.5V5.5C14.9989 3.84 13.6589 2.5 11.9989 2.5C10.3389 2.5 8.99893 3.84 8.99893 5.5V11.5C8.99893 13.16 10.3389 14.5 11.9989 14.5ZM17.9089 11.5C17.4189 11.5 17.0089 11.86 16.9289 12.35C16.5189 14.7 14.4689 16.5 11.9989 16.5C9.52893 16.5 7.47893 14.7 7.06893 12.35C6.98893 11.86 6.57893 11.5 6.08893 11.5C5.47893 11.5 4.99893 12.04 5.08893 12.64C5.57893 15.64 7.97893 17.99 10.9989 18.42V20.5C10.9989 21.05 11.4489 21.5 11.9989 21.5C12.5489 21.5 12.9989 21.05 12.9989 20.5V18.42C16.0189 17.99 18.4189 15.64 18.9089 12.64C19.0089 12.04 18.5189 11.5 17.9089 11.5Z" fill="black"/>
</svg>
