<svg  viewBox="0 0 24 24" fill="none" xmlns="http://www.w3.org/2000/svg">
<path d="M14.92 11.1V5.5C14.92 3.84 13.58 2.5 11.92 2.5C10.38 2.5 9.13002 3.66 8.96002 5.15L14.92 11.1ZM18 11.5C17.59 11.5 17.23 11.8 17.17 12.21C17.12 12.53 17.05 12.85 16.95 13.14L18.22 14.41C18.52 13.81 18.74 13.16 18.85 12.47C18.92 11.96 18.52 11.5 18 11.5ZM3.63002 4.06C3.24002 4.45 3.24002 5.08 3.63002 5.47L8.92002 10.77V11.2C8.92002 12.39 9.52002 13.52 10.55 14.11C11.3 14.54 11.96 14.55 12.57 14.42L14.23 16.08C13.52 16.41 12.73 16.6 11.92 16.6C9.38002 16.6 7.04002 14.83 6.67002 12.21C6.61002 11.8 6.25002 11.5 5.84002 11.5C5.32002 11.5 4.92002 11.96 4.99002 12.47C5.45002 15.43 7.95002 17.77 10.92 18.22V20.5C10.92 21.05 11.37 21.5 11.92 21.5C12.47 21.5 12.92 21.05 12.92 20.5V18.22C13.83 18.09 14.69 17.77 15.47 17.32L18.96 20.81C19.35 21.2 19.98 21.2 20.37 20.81C20.76 20.42 20.76 19.79 20.37 19.4L5.04002 4.06C4.65002 3.67 4.02002 3.67 3.63002 4.06Z" fill="currentColor"/>
</svg>
