<svg viewBox="0 0 24 24" fill="none" xmlns="http://www.w3.org/2000/svg">
<path d="M14.71 5.54883C14.71 4.30883 15.85 3.32883 17.13 3.58883C18.07 3.78883 18.71 4.67883 18.71 5.63883V14.7188L20.71 16.7188V5.70883C20.71 3.62883 19.03 1.67883 16.95 1.55883C14.63 1.41883 12.71 3.25883 12.71 5.54883V8.71883L14.71 10.7188V5.54883Z" fill="currentColor"/>
<path d="M10.71 4.54883C10.71 2.88883 9.37 1.54883 7.71 1.54883C7.09 1.54883 6.52 1.73883 6.04 2.04883L10.19 6.19883C10.51 5.72883 10.71 5.15883 10.71 4.54883Z" fill="currentColor"/>
<path d="M2.1 2.35883C1.71 2.74883 1.71 3.37883 2.1 3.76883L5.88 7.54883H5.81C5.22 7.54883 4.75999 8.05883 4.80999 8.64883L5.65999 17.0988C5.68999 17.3588 5.91 17.5488 6.16 17.5488H6.71C6.71 19.8888 8.72 21.7588 11.1 21.5288C13.18 21.3288 14.71 19.4688 14.71 17.3788V16.3788L20.49 22.1588C20.88 22.5488 21.51 22.5488 21.9 22.1588C22.29 21.7688 22.29 21.1388 21.9 20.7488L3.52 2.35883C3.13 1.96883 2.49 1.96883 2.1 2.35883ZM12.71 17.4588C12.71 18.4188 12.07 19.3188 11.13 19.5088C9.85 19.7688 8.71 18.7888 8.71 17.5488H9.26C9.52 17.5488 9.73 17.3588 9.76 17.0988L10.28 11.9388L12.71 14.3788V17.4588Z" fill="currentColor"/>
</svg>
