<svg  viewBox="0 0 24 24" fill="none" xmlns="http://www.w3.org/2000/svg">
<path d="M17 10.6976V3.26758C17 2.71758 16.55 2.26758 16 2.26758H8C7.45 2.26758 7 2.71758 7 3.26758V10.6976C7 11.0476 7.18 11.3776 7.49 11.5576L11.67 14.0676L10.68 16.4076L8.46 16.5976C8 16.6376 7.82 17.1876 8.16 17.4776L9.85 18.9376L9.34 21.1176C9.24 21.5476 9.71 21.8876 10.09 21.6576L12 20.4976L13.91 21.6476C14.29 21.8776 14.76 21.5376 14.66 21.1076L14.15 18.9276L15.84 17.4676C16.17 17.1776 16 16.6276 15.55 16.5876L13.33 16.3976L12.34 14.0576L16.52 11.5476C16.82 11.3776 17 11.0576 17 10.6976ZM13 12.4976L12 13.0976L11 12.4976V3.26758H13V12.4976Z" fill="currentColor"/>
</svg>
