<svg width="24" height="24" viewBox="0 0 24 24" fill="none" xmlns="http://www.w3.org/2000/svg">
<path d="M18.7212 1H8.72125C7.62125 1 6.72125 1.9 6.72125 3V5C6.72125 5.55 7.17125 6 7.72125 6C8.27125 6 8.72125 5.55 8.72125 5V4H18.7212V20H8.72125V19C8.72125 18.45 8.27125 18 7.72125 18C7.17125 18 6.72125 18.45 6.72125 19V21C6.72125 22.1 7.62125 23 8.72125 23H18.7212C19.8212 23 20.7212 22.1 20.7212 21V3C20.7212 1.9 19.8212 1 18.7212 1ZM6.73125 13.47L4.81125 11.55C4.46125 11.2 3.89125 11.2 3.54125 11.55C3.19125 11.9 3.19125 12.47 3.54125 12.82L6.01125 15.29C6.40125 15.68 7.03125 15.68 7.42125 15.29L13.2712 9.44C13.6212 9.09 13.6212 8.52 13.2712 8.17C12.9212 7.82 12.3512 7.82 12.0012 8.17L6.73125 13.47Z" fill="black"/>
</svg>
