<svg width="24" height="24" viewBox="0 0 24 24" fill="none" xmlns="http://www.w3.org/2000/svg">
<path d="M3.80498 3.05C3.41498 2.66 2.78498 2.66 2.39498 3.05C2.00498 3.44 2.00498 4.07 2.39498 4.46L5.19498 7.27V21C5.19498 22.1 6.09498 23 7.19498 23H17.195C18.215 23 19.045 22.23 19.175 21.25L20.195 22.27C20.585 22.66 21.215 22.66 21.605 22.27C21.995 21.88 21.995 21.25 21.605 20.86L19.195 18.44L3.80498 3.05ZM7.19498 19V9.27L16.925 19H7.19498ZM17.195 5V13.61L19.195 15.61V3C19.195 1.9 18.295 1 17.195 1H7.19498C6.48498 1 5.86498 1.37 5.51498 1.93L8.58498 5H17.195Z" fill="black"/>
</svg>
