<svg width="24" height="24" viewBox="0 0 24 24" fill="none" xmlns="http://www.w3.org/2000/svg">
<path d="M15.5 14.1458C15.5 16.1458 13 17.6458 13 19.1458H11C11 17.6458 8.5 16.1458 8.5 14.1458C8.5 12.2158 10.07 10.6458 12 10.6458C13.93 10.6458 15.5 12.2158 15.5 14.1458ZM13 20.1458H11V20.6458C11 21.1958 11.45 21.6458 12 21.6458C12.55 21.6458 13 21.1958 13 20.6458V20.1458ZM19 13.6458C19 15.0358 18.59 16.3358 17.88 17.4258C17.63 17.8158 17.69 18.3358 18.02 18.6658C18.46 19.1058 19.22 19.0458 19.56 18.5158C20.47 17.1158 21 15.4458 21 13.6458C21 11.2858 20.09 9.13578 18.6 7.52578C18.21 7.10578 17.55 7.09578 17.15 7.49578C16.77 7.87578 16.77 8.48578 17.13 8.88578C18.29 10.1358 19 11.8058 19 13.6458ZM15.65 5.29578L12.86 2.50578C12.54 2.18578 12 2.40578 12 2.85578V4.64578C7.03 4.64578 3 8.67578 3 13.6458C3 15.4458 3.53 17.1158 4.44 18.5258C4.78 19.0558 5.54 19.1158 5.98 18.6758C6.31 18.3458 6.37 17.8358 6.12 17.4458C4.73 15.2958 4.48 12.3458 6.25 9.44578C7.45 7.49578 9.71 6.45578 12 6.64578V8.43578C12 8.88578 12.54 9.10578 12.85 8.78578L15.64 5.99578C15.84 5.80578 15.84 5.48578 15.65 5.29578Z" fill="black"/>
</svg>
