<svg  viewBox="0 0 24 24" fill="none" xmlns="http://www.w3.org/2000/svg">
<path d="M2.60425 10.366C2.60425 5.38602 6.40425 2.16602 10.6042 2.16602C14.6042 2.16602 18.2442 5.08602 18.5742 9.66602H20.8942C21.3442 9.66602 21.5642 10.206 21.2442 10.516L17.9542 13.806C17.7542 14.006 17.4442 14.006 17.2442 13.806L13.9542 10.516C13.6442 10.206 13.8642 9.66602 14.3042 9.66602H16.5642C16.2542 6.40602 13.7342 4.16602 10.6042 4.16602C7.25425 4.16602 4.60425 6.73602 4.60425 10.366C4.60425 12.706 6.55425 15.806 10.6042 19.506C11.2442 18.916 11.8342 18.346 12.3742 17.796C12.2042 17.456 12.1042 17.076 12.1042 16.676C12.1042 15.296 13.2242 14.176 14.6042 14.176C15.9842 14.176 17.1042 15.296 17.1042 16.676C17.1042 18.056 15.9842 19.166 14.6042 19.166C14.3642 19.166 14.1342 19.136 13.9142 19.066C13.1342 19.886 12.2442 20.726 11.2642 21.586C10.8842 21.916 10.3142 21.916 9.93425 21.586C5.05425 17.286 2.60425 13.546 2.60425 10.366Z" fill="currentColor"/>
</svg>
