<svg width="24" height="24" viewBox="0 0 24 24" fill="none" xmlns="http://www.w3.org/2000/svg">
<path d="M12.42 6.9C13.84 6.9 14.55 7.44 14.81 8.3C14.94 8.73 15.37 9 15.82 9H15.88C16.58 9 17.1 8.29 16.85 7.64C16.41 6.49 15.44 5.56 13.92 5.19V4.5C13.92 3.67 13.25 3 12.42 3C11.59 3 10.92 3.67 10.92 4.5V5.16C10.53 5.24 10.17 5.37 9.82002 5.52L11.33 7.03C11.65 6.95 12.02 6.9 12.42 6.9ZM4.69002 4.62C4.30002 5.01 4.30002 5.64 4.69002 6.03L7.42002 8.77C7.42002 10.85 8.98002 11.99 11.33 12.68L14.84 16.19C14.5 16.68 13.79 17.1 12.42 17.1C10.77 17.1 9.92002 16.51 9.59002 15.67C9.44002 15.28 9.10002 15 8.69002 15H8.52002C7.80002 15 7.28002 15.74 7.57002 16.39C8.16002 17.72 9.46002 18.51 10.93 18.83V19.5C10.93 20.33 11.6 21 12.43 21C13.26 21 13.93 20.33 13.93 19.5V18.85C14.89 18.67 15.76 18.3 16.39 17.73L17.9 19.24C18.29 19.63 18.92 19.63 19.31 19.24C19.7 18.85 19.7 18.22 19.31 17.83L6.10002 4.62C5.71002 4.23 5.08002 4.23 4.69002 4.62Z" fill="black"/>
</svg>
