<svg viewBox="0 0 24 24" fill="none" xmlns="http://www.w3.org/2000/svg">
<path d="M21.8975 3H6.89754C6.20754 3 5.66754 3.35 5.30754 3.88L0.267539 11.45C0.0475391 11.79 0.0475391 12.22 0.267539 12.56L5.30754 20.12C5.66754 20.64 6.27754 21 6.96754 21H21.8975C22.9975 21 23.8975 20.1 23.8975 19V5C23.8975 3.9 22.9975 3 21.8975 3ZM8.89754 13.5C8.06754 13.5 7.39754 12.83 7.39754 12C7.39754 11.17 8.06754 10.5 8.89754 10.5C9.72754 10.5 10.3975 11.17 10.3975 12C10.3975 12.83 9.72754 13.5 8.89754 13.5ZM13.8975 13.5C13.0675 13.5 12.3975 12.83 12.3975 12C12.3975 11.17 13.0675 10.5 13.8975 10.5C14.7275 10.5 15.3975 11.17 15.3975 12C15.3975 12.83 14.7275 13.5 13.8975 13.5ZM18.8975 13.5C18.0675 13.5 17.3975 12.83 17.3975 12C17.3975 11.17 18.0675 10.5 18.8975 10.5C19.7275 10.5 20.3975 11.17 20.3975 12C20.3975 12.83 19.7275 13.5 18.8975 13.5Z" fill="currentColor"/>
</svg>
