<svg width="24" height="24" viewBox="0 0 24 24" fill="none" xmlns="http://www.w3.org/2000/svg">
<path d="M10.25 8C9.84 8 9.5 8.34 9.5 8.75V13.44C9.5 13.79 9.68 14.11 9.97 14.29L13.61 16.53C13.94 16.73 14.37 16.64 14.58 16.32C14.81 15.98 14.7 15.52 14.35 15.31L11 13.3V8.75C11 8.34 10.66 8 10.25 8Z" fill="black"/>
<path d="M17.42 12C17.47 12.33 17.5 12.66 17.5 13C17.5 16.9 14.4 20 10.5 20C6.6 20 3.5 16.9 3.5 13C3.5 9.1 6.6 6 10.5 6C11.2 6 11.87 6.1 12.5 6.29V4.23C11.86 4.08 11.19 4 10.5 4C5.5 4 1.5 8 1.5 13C1.5 18 5.5 22 10.5 22C15.5 22 19.5 18 19.5 13C19.5 12.66 19.48 12.33 19.44 12H17.42Z" fill="black"/>
<path d="M21.5 5H19.5V3C19.5 2.45 19.05 2 18.5 2C17.95 2 17.5 2.45 17.5 3V5H15.5C14.95 5 14.5 5.45 14.5 6C14.5 6.55 14.95 7 15.5 7H17.5V9C17.5 9.55 17.95 10 18.5 10C19.05 10 19.5 9.55 19.5 9V7H21.5C22.05 7 22.5 6.55 22.5 6C22.5 5.45 22.05 5 21.5 5Z" fill="black"/>
</svg>
