<svg viewBox="0 0 24 24" fill="none" xmlns="http://www.w3.org/2000/svg">
<path d="M12.0962 5.89844C11.1762 5.89844 10.2962 6.11844 9.51625 6.48844L17.5062 14.4784C17.8762 13.6984 18.0962 12.8184 18.0962 11.8984C18.0962 8.58844 15.4062 5.89844 12.0962 5.89844Z" fill="currentColor"/>
<path d="M2.19625 3.40844C1.80625 3.79844 1.80625 4.43844 2.19625 4.82844L3.75625 6.38844C2.50625 8.26844 1.87625 10.5984 2.16625 13.0884C2.68625 17.6284 6.37625 21.3184 10.9162 21.8384C13.4062 22.1184 15.7262 21.4984 17.6062 20.2484L19.1662 21.8084C19.5562 22.1984 20.1962 22.1984 20.5862 21.8084C20.9762 21.4184 20.9762 20.7884 20.5862 20.3984L3.60625 3.40844C3.22625 3.02844 2.58625 3.01844 2.19625 3.40844ZM12.0962 19.8984C7.68625 19.8984 4.09625 16.3084 4.09625 11.8984C4.09625 10.4184 4.50625 9.03844 5.21625 7.83844L6.68625 9.30844C6.31625 10.0984 6.09625 10.9784 6.09625 11.8984C6.09625 15.2084 8.78625 17.8984 12.0962 17.8984C13.0162 17.8984 13.8962 17.6784 14.6762 17.3084L16.1462 18.7784C14.9562 19.4884 13.5762 19.8984 12.0962 19.8984Z" fill="currentColor"/>
<path d="M12.0962 3.89844C16.5062 3.89844 20.0962 7.48844 20.0962 11.8984C20.0962 13.3784 19.6862 14.7584 18.9762 15.9484L20.4262 17.3984C21.4862 15.8284 22.0962 13.9384 22.0962 11.8984C22.0962 6.37844 17.6162 1.89844 12.0962 1.89844C10.0562 1.89844 8.16625 2.50844 6.58625 3.55844L8.03625 5.00844C9.23625 4.30844 10.6162 3.89844 12.0962 3.89844Z" fill="currentColor"/>
</svg>
