<svg viewBox="0 0 24 24" fill="none" xmlns="http://www.w3.org/2000/svg">
<path d="M3.99801 9.00163C4.25801 9.26163 4.33801 9.63163 4.24801 9.98163C3.89801 11.3416 3.88801 12.8516 4.34801 14.3616C5.22801 17.2716 7.78801 19.4616 10.788 19.9116C16.308 20.7216 20.978 15.8516 19.818 10.2916C19.168 7.16163 16.588 4.68163 13.448 4.13163C12.238 3.92163 11.068 3.98163 9.98801 4.26163C9.63801 4.35163 9.25801 4.26163 9.00801 4.01163C8.44801 3.45163 8.72801 2.52163 9.47801 2.32163C10.948 1.94163 12.538 1.88163 14.178 2.23163C18.158 3.09163 21.268 6.41163 21.878 10.4316C22.918 17.2416 17.058 23.0116 10.238 21.8516C6.22801 21.1616 2.97801 17.9916 2.19801 14.0016C1.88801 12.4116 1.95801 10.8816 2.31801 9.47163C2.51801 8.72163 3.44801 8.45163 3.99801 9.00163ZM5.99801 12.0016C5.99801 8.69163 8.68801 6.00163 11.998 6.00163C15.308 6.00163 17.998 8.69163 17.998 12.0016C17.998 15.3116 15.308 18.0016 11.998 18.0016C8.68801 18.0016 5.99801 15.3116 5.99801 12.0016ZM6.99801 5.50163C6.99801 6.33163 6.32801 7.00163 5.49801 7.00163C4.66801 7.00163 3.99801 6.33163 3.99801 5.50163C3.99801 4.67163 4.66801 4.00163 5.49801 4.00163C6.32801 4.00163 6.99801 4.67163 6.99801 5.50163Z" fill="currentColor"/>
</svg>
