<svg  viewBox="0 0 24 24" fill="none" xmlns="http://www.w3.org/2000/svg">
<path d="M2.49734 17.499C2.88734 17.889 3.51734 17.889 3.90734 17.499L8.49734 12.909C8.88734 12.519 9.51734 12.519 9.90734 12.909L11.0773 14.079C12.2473 15.249 14.1473 15.249 15.3173 14.079L19.4973 9.90898L20.9373 11.349C21.2473 11.659 21.7873 11.439 21.7873 10.999V6.70898C21.7973 6.42898 21.5773 6.20898 21.2973 6.20898H17.0073C16.5573 6.20898 16.3373 6.74898 16.6573 7.05898L18.0973 8.49898L13.9273 12.669C13.5373 13.059 12.9073 13.059 12.5173 12.669L11.3473 11.499C10.1773 10.329 8.27734 10.329 7.10734 11.499L2.49734 16.089C2.11734 16.479 2.11734 17.119 2.49734 17.499Z" fill="currentColor"/>
</svg>
