<svg  viewBox="0 0 24 24" fill="none" xmlns="http://www.w3.org/2000/svg">
<path d="M17 5.20857C17 4.75857 17.54 4.53857 17.85 4.85857L20.64 7.64857C20.84 7.84857 20.84 8.15857 20.64 8.35857L17.85 11.1486C17.54 11.4586 17 11.2386 17 10.7886V8.99857H14C13.45 8.99857 13 8.54857 13 7.99857C13 7.44857 13.45 6.99857 14 6.99857H17V5.20857ZM10 6.99857C9.45002 6.99857 9.00002 7.44857 9.00002 7.99857C9.00002 8.54857 9.45002 8.99857 10 8.99857C10.55 8.99857 11 8.54857 11 7.99857C11 7.44857 10.55 6.99857 10 6.99857ZM6.00002 6.99857C5.45002 6.99857 5.00002 7.44857 5.00002 7.99857C5.00002 8.54857 5.45002 8.99857 6.00002 8.99857C6.55002 8.99857 7.00002 8.54857 7.00002 7.99857C7.00002 7.44857 6.55002 6.99857 6.00002 6.99857ZM7.00002 16.9986H10C10.55 16.9986 11 16.5486 11 15.9986C11 15.4486 10.55 14.9986 10 14.9986H7.00002V13.2086C7.00002 12.7586 6.46002 12.5386 6.15002 12.8586L3.36002 15.6486C3.16002 15.8486 3.16002 16.1586 3.36002 16.3586L6.15002 19.1486C6.46002 19.4586 7.00002 19.2386 7.00002 18.7886V16.9986ZM14 16.9986C14.55 16.9986 15 16.5486 15 15.9986C15 15.4486 14.55 14.9986 14 14.9986C13.45 14.9986 13 15.4486 13 15.9986C13 16.5486 13.45 16.9986 14 16.9986ZM18 16.9986C18.55 16.9986 19 16.5486 19 15.9986C19 15.4486 18.55 14.9986 18 14.9986C17.45 14.9986 17 15.4486 17 15.9986C17 16.5486 17.45 16.9986 18 16.9986Z" fill="currentColor"/>
</svg>
