<svg  viewBox="0 0 24 24" fill="none" xmlns="http://www.w3.org/2000/svg">
<path d="M21.3373 6.73117L21.2773 6.67117C20.8873 6.28117 20.2473 6.30117 19.8873 6.71117L17.7073 9.16117C15.6573 6.85117 12.8073 5.45117 9.58726 5.45117C7.08726 5.45117 4.75726 6.32117 2.83726 7.75117C2.36726 8.10117 2.31726 8.79117 2.72726 9.20117L2.78726 9.26117C3.11726 9.59117 3.64726 9.65117 4.01726 9.37117C5.60726 8.17117 7.51726 7.45117 9.58726 7.45117C12.3273 7.45117 14.6773 8.71117 16.3573 10.6912L13.4773 13.9312L10.1873 10.6412C9.79726 10.2512 9.16726 10.2512 8.77726 10.6412L2.65726 16.7712C2.28726 17.1412 2.28726 17.7512 2.65726 18.1212L2.80726 18.2712C3.17726 18.6412 3.78726 18.6412 4.15726 18.2712L9.47726 12.9412L12.7273 16.1912C13.1373 16.6012 13.7973 16.5812 14.1773 16.1512L17.5273 12.3912C18.1473 13.5112 18.6073 14.7812 18.8473 16.1212C18.9273 16.5912 19.3173 16.9412 19.7973 16.9412H19.8873C20.4873 16.9412 20.9373 16.3912 20.8273 15.8012C20.5073 13.9512 19.8473 12.2612 18.9373 10.8012L21.3773 8.05117C21.7173 7.67117 21.6973 7.09117 21.3373 6.73117Z" fill="currentColor"/>
</svg>
