<svg  viewBox="0 0 24 24" fill="none" xmlns="http://www.w3.org/2000/svg">
<path d="M21.5 10.8894C21.78 10.8894 22 10.6694 22 10.3894V9.14937C22 8.98938 21.92 8.82938 21.79 8.73938L12.57 2.28937C12.23 2.04937 11.77 2.04937 11.42 2.28937L2.21 8.73938C2.08 8.82938 2 8.98938 2 9.14937V10.3894C2 10.6694 2.22 10.8894 2.5 10.8894H4V19.8894H3C2.45 19.8894 2 20.3394 2 20.8894C2 21.4394 2.45 21.8894 3 21.8894H21C21.55 21.8894 22 21.4394 22 20.8894C22 20.3394 21.55 19.8894 21 19.8894H20V10.8894H21.5ZM16 16.8894C16 17.4394 15.55 17.8894 15 17.8894C14.45 17.8894 14 17.4394 14 16.8894V13.8894L12.83 15.6394C12.43 16.2294 11.56 16.2294 11.17 15.6394L10 13.8894V16.8894C10 17.4394 9.55 17.8894 9 17.8894C8.45 17.8894 8 17.4394 8 16.8894V12.1894C8 11.4694 8.58 10.8894 9.3 10.8894C9.73 10.8894 10.14 11.1094 10.38 11.4694L12 13.8894L13.61 11.4694C13.86 11.1094 14.26 10.8894 14.7 10.8894C15.42 10.8894 16 11.4694 16 12.1894V16.8894Z" fill="currentColor"/>
</svg>
