<svg width="24" height="24" viewBox="0 0 24 24" fill="none" xmlns="http://www.w3.org/2000/svg">
<path d="M6.9837 12.999H11.1637V10.999H6.9837C6.5637 9.83898 5.4637 8.99898 4.1637 8.99898C2.5037 8.99898 1.1637 10.339 1.1637 11.999C1.1637 13.659 2.5037 14.999 4.1637 14.999C5.4637 14.999 6.5637 14.159 6.9837 12.999ZM4.1637 12.999C3.6137 12.999 3.1637 12.549 3.1637 11.999C3.1637 11.449 3.6137 10.999 4.1637 10.999C4.7137 10.999 5.1637 11.449 5.1637 11.999C5.1637 12.549 4.7137 12.999 4.1637 12.999Z" fill="black"/>
<path d="M22.6337 12.399C22.9037 12.199 22.9037 11.799 22.6337 11.599L19.1637 8.99898V10.999H15.1137C14.6437 6.30898 10.9537 2.57898 6.2837 2.05898C5.6837 1.99898 5.1637 2.45898 5.1637 3.05898C5.1637 3.55898 5.5337 3.98898 6.0337 4.04898C10.0437 4.47898 13.1637 7.86898 13.1637 11.999C13.1637 16.129 10.0437 19.519 6.0337 19.949C5.5337 20.009 5.1637 20.439 5.1637 20.939C5.1637 21.539 5.6837 22.009 6.2737 21.939C10.9437 21.419 14.6437 17.689 15.1037 12.999H19.1637V14.999L22.6337 12.399Z" fill="black"/>
</svg>
