<svg viewBox="0 0 24 24" fill="none" xmlns="http://www.w3.org/2000/svg">
<path d="M4.41501 10.9148C5.24344 10.9148 5.91501 10.2433 5.91501 9.41483C5.91501 8.5864 5.24344 7.91483 4.41501 7.91483C3.58658 7.91483 2.91501 8.5864 2.91501 9.41483C2.91501 10.2433 3.58658 10.9148 4.41501 10.9148Z" fill="currentColor"/>
<path d="M22.085 9.08483C22.085 5.17483 18.895 2.02483 14.975 2.08483C11.145 2.14483 7.98501 5.45483 8.09501 9.27483C8.18501 12.6548 10.675 15.4348 13.925 15.9748V19.9148H5.91501V16.9148H6.41501C6.69501 16.9148 6.91501 16.6948 6.91501 16.4148V12.9148C6.91501 12.3648 6.46501 11.9148 5.91501 11.9148H2.91501C2.36501 11.9148 1.91501 12.3648 1.91501 12.9148V16.4148C1.91501 16.6948 2.13501 16.9148 2.41501 16.9148H2.91501V20.9148C2.91501 21.4648 3.36501 21.9148 3.91501 21.9148H17.915C18.465 21.9148 18.915 21.4648 18.915 20.9148C18.915 20.3648 18.465 19.9148 17.915 19.9148H15.915V16.0348C19.385 15.6248 22.085 12.6748 22.085 9.08483Z" fill="currentColor"/>
</svg>
