<svg width="24" height="24" viewBox="0 0 24 24" fill="none" xmlns="http://www.w3.org/2000/svg">
<path d="M21.505 13.3212L18.925 15.9012L17.115 14.0912L19.295 11.9012L12.095 4.70125L9.90503 6.89125L8.09503 5.07125L10.675 2.49125C11.455 1.71125 12.725 1.71125 13.505 2.49125L21.505 10.4913C22.295 11.2712 22.295 12.5312 21.505 13.3212ZM20.575 21.8013C20.185 22.1912 19.555 22.1912 19.165 21.8013L16.095 18.7313L13.515 21.3113C12.735 22.0913 11.465 22.0913 10.685 21.3113L2.68503 13.3112C1.90503 12.5312 1.90503 11.2612 2.68503 10.4812L5.26503 7.90125L2.19503 4.83125C1.80503 4.44125 1.80503 3.81125 2.19503 3.42125C2.58503 3.03125 3.21503 3.03125 3.60503 3.42125L20.585 20.3913C20.965 20.7712 20.965 21.4113 20.575 21.8013ZM14.285 16.9213L12.895 15.5312L12.805 15.6213C12.415 16.0113 11.785 16.0113 11.385 15.6213L8.37503 12.6112C7.98503 12.2212 7.98503 11.5913 8.37503 11.2013L8.46503 11.1112L7.06503 9.72125L4.89503 11.9012L12.095 19.1013L14.285 16.9213ZM15.805 11.1912L12.795 8.18125C12.405 7.79125 11.775 7.79125 11.385 8.18125L11.295 8.28125L15.715 12.7013L15.805 12.6112C16.195 12.2212 16.195 11.5813 15.805 11.1912Z" fill="black"/>
</svg>
