<svg width="24" height="24" viewBox="0 0 24 24" fill="none" xmlns="http://www.w3.org/2000/svg">
<path d="M11.2925 8.27859L8.2825 11.2886C7.8925 11.6786 7.8925 12.3086 8.2825 12.6986L11.2925 15.7086C11.6825 16.0986 12.3125 16.0986 12.7025 15.7086L15.7125 12.6986C16.1025 12.3086 16.1025 11.6786 15.7125 11.2886L12.7025 8.27859C12.3225 7.88859 11.6825 7.88859 11.2925 8.27859Z" fill="black"/>
<path d="M10.5925 2.58859L2.5825 10.5886C1.8025 11.3686 1.8025 12.6386 2.5825 13.4186L10.5925 21.4186C11.3725 22.1986 12.6425 22.1986 13.4225 21.4186L18.0025 16.8186V13.1986L12.0025 19.1986L4.7925 11.9986L12.0025 4.78859L18.0025 10.7886V7.16859L13.4225 2.58859C12.6425 1.79859 11.3725 1.79859 10.5925 2.58859Z" fill="black"/>
<path d="M20.0025 10.9986V16.9986C20.0025 17.5486 20.4525 17.9986 21.0025 17.9986C21.5525 17.9986 22.0025 17.5486 22.0025 16.9986V10.9986C22.0025 10.4486 21.5525 9.99859 21.0025 9.99859C20.4525 9.99859 20.0025 10.4486 20.0025 10.9986Z" fill="black"/>
<path d="M21.0025 21.9986C21.5548 21.9986 22.0025 21.5509 22.0025 20.9986C22.0025 20.4463 21.5548 19.9986 21.0025 19.9986C20.4502 19.9986 20.0025 20.4463 20.0025 20.9986C20.0025 21.5509 20.4502 21.9986 21.0025 21.9986Z" fill="black"/>
</svg>
