<svg  viewBox="0 0 24 24" fill="none" xmlns="http://www.w3.org/2000/svg">
<path d="M11.4038 6.9368L18.3538 4.3568C19.1538 4.0568 19.9338 4.8368 19.6438 5.6468L17.0638 12.5968L11.4038 6.9368ZM21.3038 19.6668L4.33381 2.6968C3.94381 2.3068 3.31381 2.3068 2.92381 2.6968C2.53381 3.0868 2.53381 3.7168 2.92381 4.1068L7.28381 8.4668L3.08381 10.0268C2.67381 10.1868 2.40381 10.5668 2.40381 10.9968C2.40381 11.4168 2.66381 11.7968 3.05381 11.9568L9.47381 14.5268L12.0438 20.9468C12.2038 21.3368 12.5838 21.5968 13.0038 21.5968C13.4338 21.5968 13.8238 21.3268 13.9738 20.9268L15.5338 16.7268L19.8938 21.0868C20.2838 21.4768 20.9138 21.4768 21.3038 21.0868C21.6938 20.6868 21.6938 20.0568 21.3038 19.6668Z" fill="currentColor"/>
</svg>
