<svg viewBox="0 0 24 24" fill="none" xmlns="http://www.w3.org/2000/svg">
<path d="M20.7932 11.291V3.71104C20.7932 2.82104 19.7132 2.37104 19.0832 3.00104L2.50323 19.581C1.87323 20.211 2.31323 21.291 3.20323 21.291H13.7932V15.291C13.7932 13.081 15.5832 11.291 17.7932 11.291H20.7932ZM20.7932 16.291V15.291C20.7932 14.191 19.8932 13.291 18.7932 13.291C17.6932 13.291 16.7932 14.191 16.7932 15.291V16.291C16.2432 16.291 15.7932 16.741 15.7932 17.291V20.291C15.7932 20.841 16.2432 21.291 16.7932 21.291H20.7932C21.3432 21.291 21.7932 20.841 21.7932 20.291V17.291C21.7932 16.741 21.3432 16.291 20.7932 16.291ZM17.7932 15.291C17.7932 14.741 18.2432 14.291 18.7932 14.291C19.3432 14.291 19.7932 14.741 19.7932 15.291V16.291H17.7932V15.291Z" fill="currentColor"/>
</svg>
