<svg viewBox="0 0 24 24" fill="none" xmlns="http://www.w3.org/2000/svg">
<path d="M15.9005 4.76765C15.7305 4.76765 15.5805 4.85765 15.4905 4.99765L15.4205 5.14765L10.2405 16.7977C10.0805 17.0877 9.98053 17.4077 9.98053 17.7577C9.98053 18.8677 10.8805 19.7677 11.9905 19.7677C12.9505 19.7677 13.7605 19.0877 13.9505 18.1777L13.9605 18.1477L16.4005 5.26765C16.4005 4.98765 16.1805 4.76765 15.9005 4.76765ZM2.06053 9.82765C2.57053 10.3377 3.39053 10.3777 3.95053 9.91765C6.71053 7.65765 10.1905 6.73765 13.5305 7.15765L14.7205 4.47765C10.3705 3.69765 5.76053 4.77765 2.15053 7.72765C1.51053 8.25765 1.47053 9.23765 2.06053 9.82765ZM21.9405 9.82765C22.5305 9.23765 22.4905 8.25765 21.8405 7.72765C20.4805 6.61765 18.9805 5.77765 17.4005 5.19765L16.8705 8.01765C18.0005 8.48765 19.0605 9.10765 20.0405 9.90765C20.6205 10.3677 21.4305 10.3377 21.9405 9.82765ZM17.9105 13.8577C18.5105 13.2577 18.4705 12.2277 17.7705 11.7377C17.3105 11.4077 16.8305 11.1277 16.3305 10.8777L15.7805 13.7977C15.8905 13.8677 16.0005 13.9377 16.1005 14.0177C16.6705 14.4177 17.4305 14.3377 17.9105 13.8577ZM6.08053 13.8477C6.58053 14.3477 7.35053 14.3877 7.93053 13.9777C8.87053 13.3177 9.94053 12.9177 11.0305 12.7577L12.3105 9.87765C10.1805 9.81765 8.03053 10.4177 6.22053 11.7177C5.53053 12.2277 5.48053 13.2477 6.08053 13.8477Z" fill="currentColor"/>
</svg>
