<svg width="24" height="24" viewBox="0 0 24 24" fill="none" xmlns="http://www.w3.org/2000/svg">
<path d="M20.9062 12.66L17.3562 17.66C16.9762 18.19 16.3762 18.5 15.7262 18.5H12.7262V15.5C12.7262 13.84 11.3862 12.5 9.7262 12.5C9.7262 10.84 8.3862 9.5 6.7262 9.5H3.7262V6.5C3.7262 5.4 4.6262 4.5 5.7262 4.5H15.7262C16.3762 4.5 16.9862 4.81 17.3562 5.34L20.9062 10.34C21.3962 11.04 21.3962 11.96 20.9062 12.66ZM10.7262 15.5C10.7262 14.95 10.2762 14.5 9.7262 14.5H7.7262V12.5C7.7262 11.95 7.2762 11.5 6.7262 11.5C6.1762 11.5 5.7262 11.95 5.7262 12.5V14.5H3.7262C3.1762 14.5 2.7262 14.95 2.7262 15.5C2.7262 16.05 3.1762 16.5 3.7262 16.5H5.7262V18.5C5.7262 19.05 6.1762 19.5 6.7262 19.5C7.2762 19.5 7.7262 19.05 7.7262 18.5V16.5H9.7262C10.2762 16.5 10.7262 16.05 10.7262 15.5Z" fill="black"/>
</svg>
