<svg viewBox="0 0 24 24" fill="none" xmlns="http://www.w3.org/2000/svg">
<path d="M10.8 3.64945L4.8 8.14945C4.3 8.52945 4 9.11945 4 9.74945V18.7495C4 19.8495 4.9 20.7495 6 20.7495H18C19.1 20.7495 20 19.8495 20 18.7495V9.74945C20 9.11945 19.7 8.52945 19.2 8.14945L13.2 3.64945C12.49 3.11945 11.51 3.11945 10.8 3.64945ZM9.75 12.2495C10.44 12.2495 11 12.8095 11 13.4995C11 14.1895 10.44 14.7495 9.75 14.7495C9.06 14.7495 8.5 14.1895 8.5 13.4995C8.5 12.8095 9.06 12.2495 9.75 12.2495ZM16.5 17.7495C16.22 17.7495 16 17.5295 16 17.2495V16.2495H8V17.2495C8 17.5295 7.78 17.7495 7.5 17.7495C7.22 17.7495 7 17.5295 7 17.2495V11.2495C7 10.9695 7.22 10.7495 7.5 10.7495C7.78 10.7495 8 10.9695 8 11.2495V15.2495H11.5V12.2495C11.5 11.9695 11.72 11.7495 12 11.7495H15C16.1 11.7495 17 12.6495 17 13.7495V17.2495C17 17.5295 16.78 17.7495 16.5 17.7495Z" fill="currentColor"/>
</svg>
