<svg  viewBox="0 0 24 24" fill="none" xmlns="http://www.w3.org/2000/svg">
<path d="M2.93658 4.5H13.1966C13.9966 4.5 14.4766 5.39 14.0266 6.05L9.06658 13.5V17.5H10.0666C10.6166 17.5 11.0666 17.95 11.0666 18.5C11.0666 19.05 10.6166 19.5 10.0666 19.5H6.06658C5.51658 19.5 5.06658 19.05 5.06658 18.5C5.06658 17.95 5.51658 17.5 6.06658 17.5H7.06658V13.5L2.10658 6.05C1.65658 5.39 2.13658 4.5 2.93658 4.5ZM10.1666 8.5L11.5666 6.5H4.55658L5.95658 8.5H10.1666ZM19.0666 4.5H20.5666C21.3966 4.5 22.0666 5.17 22.0666 6C22.0666 6.83 21.3966 7.5 20.5666 7.5H19.0666V16.5C19.0666 18.34 17.4266 19.78 15.5266 19.45C14.3166 19.24 13.3266 18.25 13.1166 17.04C12.7866 15.14 14.2266 13.5 16.0666 13.5C16.4166 13.5 16.7566 13.56 17.0666 13.67V6.5C17.0666 5.4 17.9666 4.5 19.0666 4.5Z" fill="currentColor"/>
</svg>
