<svg  viewBox="0 0 24 24" fill="none" xmlns="http://www.w3.org/2000/svg">
<path d="M12.6689 12.0313C10.6689 8.15127 11.7489 4.67127 12.7389 2.76127C12.9289 2.40127 12.6189 1.99127 12.2089 2.04127C7.18891 2.72127 3.34891 7.11127 3.55891 12.3613C3.56891 12.3613 3.56891 12.3613 3.56891 12.3713C4.18891 12.1013 4.85891 11.9513 5.56891 11.9513C7.22891 11.9513 8.74891 12.7813 9.66891 14.1013C11.3389 14.5813 12.5689 16.1213 12.5689 17.9513C12.5689 19.4713 11.6989 20.7813 10.4489 21.4613C11.4289 21.7813 12.4789 21.9613 13.5589 21.9613C16.6889 21.9613 19.4789 20.5213 21.3189 18.2713C21.5789 17.9513 21.3589 17.4813 20.9489 17.4513C18.4589 17.3213 14.6689 15.9213 12.6689 12.0313Z" fill="currentColor"/>
<path d="M8.56891 15.9513H8.38891C7.96891 14.7913 6.86891 13.9513 5.56891 13.9513C3.90891 13.9513 2.56891 15.2913 2.56891 16.9513C2.56891 18.6113 3.90891 19.9513 5.56891 19.9513C6.18891 19.9513 8.05891 19.9513 8.56891 19.9513C9.66891 19.9513 10.5689 19.0513 10.5689 17.9513C10.5689 16.8513 9.66891 15.9513 8.56891 15.9513Z" fill="currentColor"/>
</svg>
