<svg viewBox="0 0 24 24" fill="none" xmlns="http://www.w3.org/2000/svg">
<path d="M7.68562 4.0543C7.69562 4.0543 7.69562 4.0443 7.70562 4.0443V3.4043C7.70562 2.5743 8.37562 1.9043 9.20562 1.9043C10.0356 1.9043 10.7056 2.5743 10.7056 3.4043V3.9043H14.7056V3.4043C14.7056 2.5743 15.3756 1.9043 16.2056 1.9043C17.0356 1.9043 17.7056 2.5743 17.7056 3.4043V4.0443C19.4256 4.4943 20.7056 6.0443 20.7056 7.9043V17.0743L18.6756 15.0443C18.6856 14.9943 18.7056 14.9543 18.7056 14.9043V12.9043C18.7056 12.3543 18.2556 11.9043 17.7056 11.9043H15.5356L7.68562 4.0543ZM21.1956 21.8043C20.8056 22.1943 20.1756 22.1943 19.7856 21.8043L19.6456 21.6643C19.3556 21.8143 19.0456 21.9043 18.7056 21.9043H6.70562C5.60562 21.9043 4.70562 21.0043 4.70562 19.9043V7.9043C4.70562 7.5443 4.76562 7.2143 4.85562 6.8843L2.80562 4.8343C2.41562 4.4443 2.41562 3.8143 2.80562 3.4243C3.19562 3.0343 3.82562 3.0343 4.21562 3.4243L21.1856 20.3943C21.5856 20.7843 21.5856 21.4143 21.1956 21.8043ZM11.8756 13.9043L9.87562 11.9043H7.70562C7.15562 11.9043 6.70562 12.3543 6.70562 12.9043C6.70562 13.4543 7.15562 13.9043 7.70562 13.9043H11.8756Z" fill="currentColor"/>
</svg>
