<svg viewBox="0 0 24 24" fill="none" xmlns="http://www.w3.org/2000/svg">
<path d="M9.53562 6L5.83562 2.3C6.12562 1.55 6.85562 1 7.70562 1L17.7056 1.01C18.8056 1.01 19.7056 1.9 19.7056 3V16.17L17.7056 14.17V6H9.53562ZM21.1956 21.9C20.8056 22.29 20.1756 22.29 19.7856 21.9L19.5856 21.7C19.2856 22.45 18.5556 23 17.7056 23H7.70562C6.60562 23 5.70562 22.1 5.70562 21V7.83L2.80562 4.93C2.41562 4.54 2.41562 3.91 2.80562 3.52C3.19562 3.13 3.82562 3.13 4.21562 3.52L21.1856 20.49C21.5856 20.88 21.5856 21.51 21.1956 21.9ZM15.8756 18L7.70562 9.83V18H15.8756Z" fill="currentColor"/>
</svg>
