<svg viewBox="0 0 24 24" fill="none" xmlns="http://www.w3.org/2000/svg">
<path d="M21.0863 19.8943L4.10631 2.9143C3.71631 2.5243 3.08631 2.5243 2.69631 2.9143C2.30631 3.3043 2.30631 3.9343 2.69631 4.3243L10.2363 11.8643L11.5963 13.4043V18.4043H7.59631C7.04631 18.4043 6.59631 18.8543 6.59631 19.4043C6.59631 19.9543 7.04631 20.4043 7.59631 20.4043H17.5963C17.9163 20.4043 18.1863 20.2443 18.3763 20.0043L19.6763 21.3043C20.0663 21.6943 20.6963 21.6943 21.0863 21.3043C21.4763 20.9143 21.4763 20.2843 21.0863 19.8943ZM13.5963 18.4043V15.2343L16.7663 18.4043H13.5963ZM8.42631 4.4043L6.42631 2.4043H20.1463C20.9463 2.4043 21.5963 3.0543 21.5963 3.8543C21.5963 4.2043 21.4663 4.5543 21.2263 4.8143L15.3963 11.3743L10.4263 6.4043H17.1663L18.9463 4.4043H8.42631Z" fill="currentColor"/>
</svg>
