<svg viewBox="0 0 24 24" fill="none" xmlns="http://www.w3.org/2000/svg">
<path d="M8.80501 6.20898C8.80501 4.49898 10.195 3.10898 11.905 3.10898C13.615 3.10898 15.005 4.49898 15.005 6.20898V8.20898H10.345L19.905 17.769V10.209C19.905 9.10898 19.005 8.20898 17.905 8.20898H16.905V6.20898C16.905 3.44898 14.665 1.20898 11.905 1.20898C9.58501 1.20898 7.64501 2.79898 7.08501 4.94898L8.80501 6.66898V6.20898ZM5.02501 5.71898C4.63501 5.32898 4.00501 5.32898 3.61501 5.71898C3.22501 6.10898 3.22501 6.73898 3.61501 7.12898L4.94501 8.45898C4.32501 8.80898 3.90501 9.45898 3.90501 10.209V20.209C3.90501 21.309 4.80501 22.209 5.90501 22.209H18.685L18.975 22.499C19.365 22.889 19.995 22.889 20.385 22.499C20.775 22.109 20.775 21.479 20.385 21.089L5.02501 5.71898Z" fill="currentColor"/>
</svg>
