<svg viewBox="0 0 24 24" fill="none" xmlns="http://www.w3.org/2000/svg">
<path d="M3.56603 2.88852C3.17603 2.49852 2.54603 2.49852 2.15603 2.88852C1.76603 3.27852 1.76603 3.90852 2.15603 4.29852L6.75603 8.89852L6.54603 9.12852H4.00603C3.12603 9.12852 2.40603 9.84852 2.40603 10.7285V20.1285C2.40603 21.0085 3.12603 21.7285 4.00603 21.7285H16.806C17.556 21.7285 18.186 21.2085 18.356 20.5085L19.826 21.9785C20.216 22.3685 20.846 22.3685 21.236 21.9785C21.626 21.5885 21.626 20.9585 21.236 20.5685L3.56603 2.88852ZM10.406 19.7285C8.19602 19.7285 6.40603 17.9385 6.40603 15.7285C6.40603 13.7785 7.80603 12.1585 9.65603 11.8085L11.226 13.3785C10.966 13.2885 10.696 13.2285 10.406 13.2285C9.02602 13.2285 7.90603 14.3485 7.90603 15.7285C7.90603 17.1085 9.02602 18.2285 10.406 18.2285C11.786 18.2285 12.906 17.1085 12.906 15.7285C12.906 15.4385 12.846 15.1685 12.756 14.9085L14.326 16.4785C13.976 18.3285 12.356 19.7285 10.406 19.7285ZM18.406 14.8985L11.236 7.72852H12.106C12.666 7.72852 13.206 7.96852 13.586 8.37852L14.276 9.12852H16.816C17.696 9.12852 18.416 9.84852 18.416 10.7285V14.8985H18.406ZM20.806 5.32852H21.556C21.936 5.32852 22.176 5.73852 21.996 6.06852L19.406 10.7285V6.72852H18.906C18.626 6.72852 18.406 6.50852 18.406 6.22852V2.22852C18.406 1.94852 18.626 1.72852 18.906 1.72852H21.636C21.996 1.72852 22.236 2.09852 22.096 2.42852L20.806 5.32852Z" fill="currentColor"/>
</svg>
