<svg viewBox="0 0 24 24" fill="none" xmlns="http://www.w3.org/2000/svg">
<path d="M16.0524 22C16.0524 22.55 15.6024 23 15.0524 23H2.05237C1.50237 23 1.05237 22.55 1.05237 22C1.05237 21.45 1.50237 21 2.05237 21H15.0524C15.6024 21 16.0524 21.45 16.0524 22ZM22.9424 6.1C23.0024 5.51 22.5424 5 21.9524 5H18.0524V2C18.0524 1.45 17.6024 1 17.0524 1C16.5024 1 16.0524 1.45 16.0524 2V5H12.1524C11.5624 5 11.1024 5.51 11.1524 6.1L11.3924 8.51L21.6724 18.79L22.9424 6.1ZM21.2424 22.61C21.6324 22.22 21.6324 21.59 21.2424 21.2L2.86237 2.81C2.47237 2.42 1.84237 2.42 1.45237 2.81C1.05237 3.2 1.05237 3.83 1.44237 4.22L6.43237 9.21C3.87237 9.75 1.67237 11.29 1.15237 13.84C1.04237 14.45 1.54237 15 2.15237 15H12.2224L14.2224 17H2.05237C1.50237 17 1.05237 17.45 1.05237 18C1.05237 18.55 1.50237 19 2.05237 19H15.0524C15.3724 19 15.6424 18.84 15.8324 18.6L19.8324 22.6C20.2224 23 20.8524 23 21.2424 22.61Z" fill="currentColor"/>
</svg>
