<svg  viewBox="0 0 24 24" fill="none" xmlns="http://www.w3.org/2000/svg">
<path d="M21.1956 20.3943L4.21562 3.4143C3.82562 3.0243 3.19562 3.0243 2.80562 3.4143C2.41562 3.8043 2.41562 4.4343 2.80562 4.8243L5.72562 7.7443C5.72562 7.8043 5.70562 7.8543 5.70562 7.9043V18.9043C5.70562 20.0043 6.60562 20.9043 7.70562 20.9043C7.70562 21.4543 8.15562 21.9043 8.70562 21.9043C9.25562 21.9043 9.70562 21.4543 9.70562 20.9043H15.7056C15.7056 21.4543 16.1556 21.9043 16.7056 21.9043C17.2556 21.9043 17.7056 21.4543 17.7056 20.9043C18.0456 20.9043 18.3556 20.8143 18.6356 20.6643L19.7756 21.8043C20.1656 22.1943 20.7956 22.1943 21.1856 21.8043C21.5856 21.4143 21.5856 20.7843 21.1956 20.3943ZM9.45562 17.9043C9.04562 17.9043 8.70562 17.5643 8.70562 17.1543V10.7343L10.2056 12.2343V17.1543C10.2056 17.5643 9.86562 17.9043 9.45562 17.9043ZM12.7056 17.9043C12.2956 17.9043 11.9556 17.5643 11.9556 17.1543V13.9843L13.4556 15.4843V17.1543C13.4556 17.5643 13.1156 17.9043 12.7056 17.9043ZM12.7056 8.9043C13.1156 8.9043 13.4556 9.2443 13.4556 9.6543V9.8243L15.2056 11.5743V9.6543C15.2056 9.2443 15.5456 8.9043 15.9556 8.9043C16.3656 8.9043 16.7056 9.2443 16.7056 9.6543V13.0743L19.7056 16.0743V7.9043C19.7056 6.8043 18.8056 5.9043 17.7056 5.9043H15.7056V2.9043C15.7056 2.3543 15.2556 1.9043 14.7056 1.9043H10.7056C10.1556 1.9043 9.70562 2.3543 9.70562 2.9043V5.9043H9.53562L12.5656 8.9343C12.6156 8.9243 12.6556 8.9043 12.7056 8.9043ZM11.2056 3.4043H14.2056V5.9043H11.2056V3.4043Z" fill="currentColor"/>
</svg>
