<svg viewBox="0 0 24 24" fill="none" xmlns="http://www.w3.org/2000/svg">
<path d="M14.5605 5.43906H17.5605V13.3191L19.5605 15.3191V4.43906C19.5605 3.88906 19.1105 3.43906 18.5605 3.43906H14.5605C14.5605 2.88906 14.1105 2.43906 13.5605 2.43906H6.68053L14.5605 10.3191V5.43906ZM21.7305 20.3191L12.5605 11.1491V12.4391H10.5605V10.4391H11.8505L3.68053 2.26906C3.29053 1.87906 2.66053 1.87906 2.27053 2.26906C1.88053 2.65906 1.88053 3.28906 2.27053 3.67906L5.56053 6.97906V18.4391H4.56053C4.01053 18.4391 3.56053 18.8891 3.56053 19.4391C3.56053 19.9891 4.01053 20.4391 4.56053 20.4391H13.5605C14.1105 20.4391 14.5605 19.9891 14.5605 19.4391V15.9791L20.3105 21.7291C20.7005 22.1191 21.3305 22.1191 21.7205 21.7291C22.1205 21.3391 22.1205 20.7091 21.7305 20.3191Z" fill="currentColor"/>
</svg>
