<svg  viewBox="0 0 24 24" fill="none" xmlns="http://www.w3.org/2000/svg">
<path d="M21.7106 17.7188L19.7106 15.7188V13.5488H18.7106C17.6106 13.5488 16.7106 12.6488 16.7106 11.5488V5.54883C16.7106 4.05883 18.3106 2.22883 20.4706 1.69883C21.1006 1.54883 21.7106 2.02883 21.7106 2.67883V17.7188ZM21.9006 22.1588C21.5106 22.5488 20.8806 22.5488 20.4906 22.1588L10.7306 12.3988C10.4006 12.4888 10.0706 12.5488 9.71061 12.5488V20.5488C9.71061 21.0988 9.26061 21.5488 8.71061 21.5488C8.16061 21.5488 7.71061 21.0988 7.71061 20.5488V12.5488C5.50061 12.5488 3.71061 10.7588 3.71061 8.54883V5.37883L2.10061 3.76883C1.71061 3.37883 1.71061 2.74883 2.10061 2.35883C2.49061 1.96883 3.12061 1.96883 3.51061 2.35883L21.8906 20.7388C22.2906 21.1288 22.2906 21.7688 21.9006 22.1588ZM6.88061 8.54883L5.71061 7.37883V8.54883H6.88061ZM13.7106 8.54883V2.54883C13.7106 1.99883 13.2606 1.54883 12.7106 1.54883C12.1606 1.54883 11.7106 1.99883 11.7106 2.54883V7.71883L13.5606 9.56883C13.6506 9.23883 13.7106 8.90883 13.7106 8.54883ZM9.71061 2.54883C9.71061 1.99883 9.26061 1.54883 8.71061 1.54883C8.16061 1.54883 7.71061 1.99883 7.71061 2.54883V3.71883L9.71061 5.71883V2.54883Z" fill="currentColor"/>
</svg>
