<svg viewBox="0 0 24 24" fill="none" xmlns="http://www.w3.org/2000/svg">
<path d="M11.3913 7.41109L7.93125 3.95109L8.85125 2.94109C9.23125 2.53109 9.77125 2.29109 10.3313 2.29109H14.5713C15.1313 2.29109 15.6713 2.53109 16.0413 2.94109L17.2813 4.29109H20.4513C21.5513 4.29109 22.4513 5.19109 22.4513 6.29109V18.2911C22.4513 18.3411 22.4413 18.3911 22.4313 18.4511L17.3313 13.3511C17.4113 13.0011 17.4513 12.6511 17.4513 12.2911C17.4513 9.53109 15.2113 7.29109 12.4513 7.29109C12.0913 7.29109 11.7413 7.33109 11.3913 7.41109ZM20.2313 21.9011L18.6213 20.2911H4.45125C3.35125 20.2911 2.45125 19.3911 2.45125 18.2911V6.29109C2.45125 5.70109 2.72125 5.17109 3.13125 4.80109L1.84125 3.51109C1.45125 3.12109 1.45125 2.49109 1.84125 2.10109C2.23125 1.71109 2.86125 1.71109 3.25125 2.10109L21.6313 20.4811C22.0213 20.8711 22.0213 21.5011 21.6313 21.8911C21.2513 22.2911 20.6213 22.2911 20.2313 21.9011ZM14.9413 16.6111L13.4413 15.1111C13.1213 15.2111 12.8013 15.2911 12.4513 15.2911C10.7913 15.2911 9.45125 13.9511 9.45125 12.2911C9.45125 11.9411 9.53125 11.6211 9.64125 11.3111L8.14125 9.81109C7.70125 10.5311 7.45125 11.3811 7.45125 12.2911C7.45125 15.0511 9.69125 17.2911 12.4513 17.2911C13.3613 17.2911 14.2113 17.0411 14.9413 16.6111Z" fill="currentColor"/>
</svg>
