<svg viewBox="0 0 24 24" fill="none" xmlns="http://www.w3.org/2000/svg">
<path d="M8.11624 19.4043C8.11624 20.5043 7.21624 21.4043 6.11624 21.4043C5.01624 21.4043 4.11624 20.5043 4.11624 19.4043C4.11624 18.3043 5.01624 17.4043 6.11624 17.4043C7.21624 17.4043 8.11624 18.3043 8.11624 19.4043ZM14.4162 3.5043C13.1462 2.8043 11.6762 2.4043 10.1162 2.4043C8.88624 2.4043 7.72624 2.6643 6.65624 3.1143L11.0262 7.4843L14.4162 3.5043ZM20.6062 21.3043C20.9962 20.9143 20.9962 20.2843 20.6062 19.8943L3.62624 2.9143C3.23624 2.5243 2.60624 2.5243 2.21624 2.9143C1.82624 3.3043 1.82624 3.9343 2.21624 4.3243L9.47624 11.5843L6.81624 14.7043C6.26624 15.3543 6.72624 16.3543 7.57624 16.3543H14.2362L15.4062 17.5243C14.5262 17.8543 13.9362 18.7743 14.1462 19.8043C14.2962 20.5643 14.9262 21.1943 15.6862 21.3443C16.7162 21.5543 17.6362 20.9643 17.9662 20.0843L19.1662 21.2843C19.5762 21.6943 20.2062 21.6943 20.6062 21.3043ZM17.1162 5.6743C17.6962 4.9943 18.0862 4.4043 18.7662 4.4043C19.4462 4.4043 19.9862 4.9243 20.0962 5.6143C20.1962 6.0643 20.5962 6.4043 21.0762 6.4043C21.6262 6.4043 22.0762 5.9543 22.0762 5.4043C22.0762 5.3443 22.0762 5.2943 22.0662 5.2443V5.2343C21.7662 3.6243 20.4162 2.4043 18.7662 2.4043C17.1062 2.4043 16.2262 3.6743 15.5862 4.4343L12.0862 8.5443L17.1162 13.5743V5.6743Z" fill="currentColor"/>
</svg>
