<svg width="24" height="24" viewBox="0 0 24 24" fill="none" xmlns="http://www.w3.org/2000/svg">
<path d="M3.27004 3.83893C2.88004 4.22893 2.88004 4.85893 3.27004 5.24893L5.30004 7.27893L5.18004 7.40893V18.3989C5.18004 19.4989 6.08004 20.3989 7.18004 20.3989H17.18C17.53 20.3989 17.86 20.2989 18.15 20.1389L19.32 21.3089C19.71 21.6989 20.34 21.6989 20.73 21.3089C21.12 20.9189 21.12 20.2889 20.73 19.8989L4.68004 3.83893C4.29004 3.44893 3.66004 3.44893 3.27004 3.83893ZM19.18 15.5089V4.39893C19.18 3.29893 18.28 2.39893 17.18 2.39893H10.19L8.13004 4.45893L19.18 15.5089Z" fill="black"/>
</svg>
