<svg  viewBox="0 0 24 24" fill="none" xmlns="http://www.w3.org/2000/svg">
<path d="M6.48562 2.8543C7.94562 2.0643 10.1856 1.9043 12.7056 1.9043C17.1256 1.9043 20.7056 2.4043 20.7056 5.9043V15.9043C20.7056 16.2543 20.6256 16.5743 20.5156 16.8843L14.5356 10.9043H18.7056V5.9043H9.53562L6.48562 2.8543ZM21.1956 21.8043C20.8056 22.1943 20.1756 22.1943 19.7856 21.8043L18.7756 20.7943C18.5956 20.8643 18.4056 20.9043 18.2056 20.9043C17.3756 20.9043 16.7056 20.2243 16.7056 19.4043V18.9043H8.70562V19.4043C8.70562 20.2343 8.03562 20.9043 7.20562 20.9043C6.37562 20.9043 5.70562 20.2343 5.70562 19.4043V18.1243C5.09562 17.5743 4.70562 16.7843 4.70562 15.9043V6.7343L2.80562 4.8343C2.41562 4.4443 2.41562 3.8143 2.80562 3.4243C3.19562 3.0343 3.82562 3.0343 4.21562 3.4243L21.1856 20.3943C21.5856 20.7843 21.5856 21.4143 21.1956 21.8043ZM9.70562 15.4043C9.70562 14.5743 9.03562 13.9043 8.20562 13.9043C7.37562 13.9043 6.70562 14.5743 6.70562 15.4043C6.70562 16.2343 7.37562 16.9043 8.20562 16.9043C9.03562 16.9043 9.70562 16.2343 9.70562 15.4043ZM8.87562 10.9043L6.70562 8.7343V10.9043H8.87562Z" fill="currentColor"/>
</svg>
