<svg  viewBox="0 0 24 24" fill="none" xmlns="http://www.w3.org/2000/svg">
<path d="M18.6586 22.75C18.2486 22.75 17.9086 22.41 17.9086 22V13.75H19.4086V22C19.4086 22.41 19.0686 22.75 18.6586 22.75ZM5.33856 22.75C5.68856 22.75 5.99856 22.51 6.06856 22.16L7.93857 13.75H6.40856L4.60856 21.84C4.50856 22.31 4.85856 22.75 5.33856 22.75ZM13.9086 5.25C15.0086 5.25 15.9086 4.35 15.9086 3.25C15.9086 2.15 15.0086 1.25 13.9086 1.25C12.8086 1.25 11.9086 2.15 11.9086 3.25C11.9086 4.35 12.8086 5.25 13.9086 5.25ZM14.4086 22.75C14.9586 22.75 15.4086 22.3 15.4086 21.75V16.11C15.4086 15.56 15.1886 15.04 14.7886 14.66L13.3086 13.25L13.9086 10.25C14.9786 11.49 16.5286 12.38 18.2686 12.66C18.8686 12.76 19.4086 12.28 19.4086 11.67C19.4086 11.18 19.0586 10.76 18.5786 10.69C17.0486 10.45 15.7886 9.55 15.1086 8.36L14.1086 6.76C13.5486 5.87 12.4286 5.51 11.4486 5.92L7.62856 7.53C6.88856 7.85 6.40856 8.57 6.40856 9.37V11.75C6.40856 12.3 6.85856 12.75 7.40856 12.75C7.95856 12.75 8.40856 12.3 8.40856 11.75V9.35L10.2086 8.65L7.65856 21.51C7.52856 22.15 8.01856 22.75 8.67857 22.75C9.16856 22.75 9.58856 22.41 9.69856 21.94L11.3086 14.75L13.4086 16.75V21.75C13.4086 22.3 13.8586 22.75 14.4086 22.75Z" fill="currentColor"/>
</svg>
