<svg  viewBox="0 0 24 24" fill="none" xmlns="http://www.w3.org/2000/svg">
<path d="M12 2.16602C7.8 2.16602 4 5.38602 4 10.366C4 13.546 6.45 17.286 11.34 21.586C11.72 21.916 12.29 21.916 12.67 21.586C17.55 17.286 20 13.546 20 10.366C20 5.38602 16.2 2.16602 12 2.16602ZM12.01 16.166C11.42 16.166 10.96 15.696 10.96 15.116C10.96 14.526 11.43 14.076 12.01 14.076C12.6 14.076 13.05 14.526 13.05 15.116C13.05 15.696 12.61 16.166 12.01 16.166ZM14.52 9.99602C13.89 10.926 13.29 11.206 12.96 11.806C12.88 11.946 12.83 12.066 12.8 12.296C12.75 12.686 12.44 12.976 12.05 12.976H12.02C11.58 12.976 11.23 12.596 11.27 12.156C11.3 11.886 11.36 11.586 11.52 11.316C11.93 10.586 12.7 10.156 13.15 9.51602C13.63 8.83602 13.36 7.57602 12.01 7.57602C11.4 7.57602 11 7.89602 10.75 8.27602C10.56 8.56602 10.18 8.66602 9.86 8.52602C9.44 8.34602 9.26 7.82602 9.52 7.45602C10.03 6.71602 10.88 6.16602 12 6.16602C13.23 6.16602 14.08 6.72602 14.51 7.42602C14.87 8.03602 15.09 9.15602 14.52 9.99602Z" fill="currentColor"/>
</svg>
