<svg  viewBox="0 0 24 24" fill="none" xmlns="http://www.w3.org/2000/svg">
<path d="M12.7056 1.90381C13.8056 1.90381 14.7056 2.80381 14.7056 3.90381C14.7056 5.00381 13.8056 5.90381 12.7056 5.90381C11.6056 5.90381 10.7056 5.00381 10.7056 3.90381C10.7056 2.80381 11.6056 1.90381 12.7056 1.90381ZM10.7056 19.9038C9.04562 19.9038 7.70562 18.5638 7.70562 16.9038C7.70562 15.5938 8.54562 14.4938 9.70562 14.0738V12.0038C7.42562 12.4638 5.70562 14.4838 5.70562 16.9038C5.70562 19.6638 7.94562 21.9038 10.7056 21.9038C13.1256 21.9038 15.1456 20.1838 15.6056 17.9038H13.5356C13.1256 19.0638 12.0156 19.9038 10.7056 19.9038ZM21.1956 20.3938L4.21562 3.41381C3.82562 3.02381 3.19562 3.02381 2.80562 3.41381C2.41562 3.80381 2.41562 4.43381 2.80562 4.82381L10.7056 12.7238V14.9038C10.7056 16.0038 11.6056 16.9038 12.7056 16.9038H14.8756L19.7756 21.8038C20.1656 22.1938 20.7956 22.1938 21.1856 21.8038C21.5856 21.4138 21.5856 20.7838 21.1956 20.3938ZM18.8656 10.8338C17.6156 10.6238 16.4356 9.95381 15.6356 9.07381L14.3456 7.64381C14.1056 7.40381 13.9056 7.28381 13.7156 7.18381C13.3556 6.99381 12.9956 6.88381 12.5156 6.92381C12.0256 6.96381 11.6056 7.19381 11.2856 7.53381L14.7056 10.9538C15.7056 11.7838 17.1056 12.4938 18.5056 12.7738C19.1256 12.9038 19.7056 12.4338 19.7056 11.8038C19.7056 11.3238 19.3456 10.9138 18.8656 10.8338Z" fill="currentColor"/>
</svg>
