<svg  viewBox="0 0 24 24" fill="none" xmlns="http://www.w3.org/2000/svg">
<path d="M8 20H12C12 21.1 11.1 22 10 22C8.9 22 8 21.1 8 20ZM12 9C12 11.61 13.67 13.83 16 14.66V17H17C17.55 17 18 17.45 18 18C18 18.55 17.55 19 17 19H3C2.45 19 2 18.55 2 18C2 17.45 2.45 17 3 17H4V10C4 7.21 5.91 4.86 8.5 4.2V3.5C8.5 2.67 9.17 2 10 2C10.83 2 11.5 2.67 11.5 3.5V4.2C12.21 4.38 12.86 4.69 13.45 5.1C12.54 6.14 12 7.51 12 9ZM21 8H19V6C19 5.45 18.55 5 18 5C17.45 5 17 5.45 17 6V8H15C14.45 8 14 8.45 14 9C14 9.55 14.45 10 15 10H17V12C17 12.55 17.45 13 18 13C18.55 13 19 12.55 19 12V10H21C21.55 10 22 9.55 22 9C22 8.45 21.55 8 21 8Z" fill="currentColor"/>
</svg>
