<svg  viewBox="0 0 24 24" fill="none" xmlns="http://www.w3.org/2000/svg">
<path d="M12.0002 21.75C13.1002 21.75 14.0002 20.85 14.0002 19.75H10.0002C10.0002 20.85 10.8902 21.75 12.0002 21.75ZM19.2902 17.04L18.0002 15.75V10.75C18.0002 7.68 16.3602 5.11 13.5002 4.43V3.75C13.5002 2.92 12.8302 2.25 12.0002 2.25C11.1702 2.25 10.5002 2.92 10.5002 3.75V4.43C7.63017 5.11 6.00017 7.67 6.00017 10.75V15.75L4.71017 17.04C4.08017 17.67 4.52017 18.75 5.41017 18.75H18.5802C19.4802 18.75 19.9202 17.67 19.2902 17.04ZM14.5002 9.08C14.5002 9.39 14.3902 9.68 14.2002 9.92L11.7002 12.95H13.6002C14.1002 12.95 14.5002 13.35 14.5002 13.85C14.5002 14.35 14.1002 14.75 13.6002 14.75H10.8202C10.0902 14.75 9.50017 14.16 9.50017 13.43V13.42C9.50017 13.11 9.61017 12.82 9.80017 12.58L12.3002 9.55H10.4002C9.90017 9.55 9.50017 9.15 9.50017 8.65C9.50017 8.15 9.90017 7.75 10.4002 7.75H13.1802C13.9102 7.75 14.5002 8.34 14.5002 9.08Z" fill="currentColor"/>
</svg>
