<svg  viewBox="0 0 24 24" fill="none" xmlns="http://www.w3.org/2000/svg">
<path d="M12.0002 22.75C13.1002 22.75 13.9902 21.86 13.9902 20.76H10.0102C10.0102 21.86 10.9002 22.75 12.0002 22.75ZM20.2902 18.04L19.0002 16.75V10.75C19.0002 7.4 16.6402 4.6 13.5002 3.92V2.75C13.5002 1.92 12.8302 1.25 12.0002 1.25C11.1702 1.25 10.5002 1.92 10.5002 2.75V3.92C7.36017 4.6 5.00017 7.4 5.00017 10.75V16.75L3.71017 18.04C3.08017 18.67 3.52017 19.75 4.41017 19.75H19.5802C20.4802 19.75 20.9202 18.67 20.2902 18.04ZM13.0002 15.75H11.0002V13.75H13.0002V15.75ZM13.0002 10.75C13.0002 11.3 12.5502 11.75 12.0002 11.75C11.4502 11.75 11.0002 11.3 11.0002 10.75V8.75C11.0002 8.2 11.4502 7.75 12.0002 7.75C12.5502 7.75 13.0002 8.2 13.0002 8.75V10.75Z" fill="currentColor"/>
</svg>
