<svg  viewBox="0 0 24 24" fill="none" xmlns="http://www.w3.org/2000/svg">
<path d="M20.6833 9.27L20.6933 9.21C20.8533 8.59 20.3933 8 19.7633 8H17.0033L17.7033 5.21C17.8533 4.59 17.3933 4 16.7633 4C16.3133 4 15.9333 4.3 15.8233 4.73L15.0033 8H11.0033L11.7033 5.21C11.8533 4.59 11.3933 4 10.7633 4C10.3133 4 9.93332 4.3 9.82332 4.73L9.00332 8H5.76332C5.31332 8 4.92332 8.3 4.82332 8.73L4.80332 8.79C4.65332 9.41 5.11332 10 5.74332 10H8.50332L7.50332 14H4.26332C3.81332 14 3.43332 14.3 3.32332 14.73L3.30332 14.79C3.15332 15.41 3.61332 16 4.24332 16H7.00332L6.30332 18.79C6.15332 19.41 6.61332 20 7.24332 20C7.69332 20 8.07332 19.7 8.18332 19.27L9.00332 16H13.0033L12.3033 18.79C12.1533 19.41 12.6133 20 13.2433 20C13.6933 20 14.0733 19.7 14.1833 19.27L15.0033 16H18.2433C18.6933 16 19.0733 15.7 19.1833 15.27L19.1933 15.21C19.3433 14.6 18.8833 14 18.2533 14H15.5033L16.5033 10H19.7433C20.1933 10 20.5833 9.7 20.6833 9.27ZM13.5033 14H9.50332L10.5033 10H14.5033L13.5033 14Z" fill="currentColor"/>
</svg>
