<svg width="24" height="24" viewBox="0 0 24 24" fill="none" xmlns="http://www.w3.org/2000/svg">
<path d="M15.5 11.3675C15.5 13.3675 13 14.8675 13 16.3675H11C11 14.8675 8.5 13.3675 8.5 11.3675C8.5 9.43749 10.07 7.86749 12 7.86749C13.93 7.86749 15.5 9.43749 15.5 11.3675ZM13 17.3675H11V17.8675C11 18.4175 11.45 18.8675 12 18.8675C12.55 18.8675 13 18.4175 13 17.8675V17.3675ZM22 11.8675C22 9.40749 21.11 7.15749 19.64 5.41749C19.35 5.07749 18.84 5.03749 18.52 5.35749C18.25 5.62749 18.22 6.06749 18.46 6.35749C19.73 7.83749 20.5 9.76749 20.5 11.8675C20.5 13.9675 19.73 15.8975 18.46 17.3875C18.21 17.6775 18.25 18.1175 18.52 18.3875C18.84 18.7075 19.35 18.6675 19.64 18.3275C21.11 16.5775 22 14.3275 22 11.8675ZM3.5 11.8675C3.5 9.76749 4.27 7.83749 5.54 6.34749C5.79 6.05749 5.75 5.61749 5.48 5.34749C5.17 5.03749 4.65 5.06749 4.36 5.40749C2.89 7.15749 2 9.40749 2 11.8675C2 14.3275 2.89 16.5775 4.36 18.3275C4.65 18.6675 5.16 18.7075 5.48 18.3875C5.75 18.1175 5.78 17.6775 5.54 17.3875C4.27 15.8975 3.5 13.9675 3.5 11.8675ZM17.5 11.8675C17.5 13.1475 17.06 14.3375 16.32 15.2775C16.09 15.5675 16.12 15.9875 16.39 16.2575C16.71 16.5775 17.24 16.5475 17.52 16.1875C18.44 14.9975 19 13.4975 19 11.8675C19 10.2375 18.44 8.73749 17.51 7.55749C17.23 7.19749 16.7 7.16749 16.38 7.48749C16.12 7.74749 16.08 8.16749 16.31 8.46749C17.06 9.39749 17.5 10.5875 17.5 11.8675ZM7.62 16.2475C7.88 15.9875 7.92 15.5675 7.69 15.2675C6.94 14.3375 6.5 13.1475 6.5 11.8675C6.5 10.5875 6.94 9.39749 7.68 8.45749C7.91 8.16749 7.88 7.74749 7.61 7.47749C7.3 7.16749 6.77 7.19749 6.49 7.54749C5.56 8.73749 5 10.2375 5 11.8675C5 13.4975 5.56 14.9975 6.49 16.1875C6.77 16.5375 7.3 16.5675 7.62 16.2475Z" fill="black"/>
</svg>
