<svg width="24" height="24" viewBox="0 0 24 24" fill="none" xmlns="http://www.w3.org/2000/svg">
<path d="M10.4994 8.99996H13.4994C13.7794 8.99996 13.9994 8.77996 13.9994 8.49996V5.99996H15.7894C16.2394 5.99996 16.4593 5.45996 16.1393 5.14996L12.3494 1.35996C12.1494 1.15996 11.8394 1.15996 11.6394 1.35996L7.84935 5.14996C7.53935 5.45996 7.75935 5.99996 8.20935 5.99996H9.99935V8.49996C9.99935 8.77996 10.2194 8.99996 10.4994 8.99996ZM8.49935 9.99996H5.99935V8.20996C5.99935 7.75996 5.45935 7.53996 5.14935 7.85996L1.35935 11.65C1.15935 11.85 1.15935 12.16 1.35935 12.36L5.14935 16.15C5.45935 16.46 5.99935 16.24 5.99935 15.79V14H8.49935C8.77935 14 8.99935 13.78 8.99935 13.5V10.5C8.99935 10.22 8.77935 9.99996 8.49935 9.99996ZM22.6494 11.65L18.8594 7.85996C18.5394 7.53996 17.9994 7.75996 17.9994 8.20996V9.99996H15.4994C15.2194 9.99996 14.9994 10.22 14.9994 10.5V13.5C14.9994 13.78 15.2194 14 15.4994 14H17.9994V15.79C17.9994 16.24 18.5394 16.46 18.8494 16.14L22.6394 12.35C22.8394 12.16 22.8394 11.84 22.6494 11.65ZM13.4994 15H10.4994C10.2194 15 9.99935 15.22 9.99935 15.5V18H8.20935C7.75935 18 7.53935 18.54 7.85935 18.85L11.6494 22.64C11.8493 22.84 12.1594 22.84 12.3594 22.64L16.1494 18.85C16.4594 18.54 16.2394 18 15.7994 18H13.9994V15.5C13.9994 15.22 13.7794 15 13.4994 15Z" fill="black"/>
</svg>
