<svg  viewBox="0 0 24 24" fill="none" xmlns="http://www.w3.org/2000/svg">
<path d="M17.3862 5.20381L15.4462 3.26381C15.1362 2.94381 15.3562 2.40381 15.8062 2.40381H21.0962C21.3762 2.40381 21.5962 2.62381 21.5962 2.90381V8.19381C21.5962 8.64381 21.0562 8.86381 20.7462 8.54381L18.8062 6.60381L14.7162 10.6938L13.3062 9.28381L17.3862 5.20381ZM19.5962 12.4038V15.5738L21.5962 17.5738V12.4038C21.5962 11.8538 21.1462 11.4038 20.5962 11.4038C20.0462 11.4038 19.5962 11.8538 19.5962 12.4038ZM19.6662 21.3038L18.7662 20.4038H5.59625C4.48625 20.4038 3.59625 19.5038 3.59625 18.4038V5.23381L2.69625 4.33381C2.30625 3.94381 2.30625 3.31381 2.69625 2.92381C3.08625 2.53381 3.71625 2.53381 4.10625 2.92381L21.0762 19.8938C21.4662 20.2838 21.4662 20.9138 21.0762 21.3038C20.6862 21.6938 20.0562 21.6938 19.6662 21.3038ZM16.7662 18.4038L11.8862 13.5238L11.0062 14.4038C10.6162 14.7938 9.98625 14.7938 9.59625 14.4038C9.20625 14.0138 9.20625 13.3838 9.59625 12.9938L10.4762 12.1138L5.59625 7.23381V18.4038H16.7662ZM8.42625 4.40381H11.5962C12.1462 4.40381 12.5962 3.95381 12.5962 3.40381C12.5962 2.85381 12.1462 2.40381 11.5962 2.40381H6.42625L8.42625 4.40381Z" fill="currentColor"/>
</svg>
