<svg viewBox="0 0 24 24" fill="none" xmlns="http://www.w3.org/2000/svg">
<path d="M1.61034 12.0614C1.95034 12.5014 2.57034 12.5814 3.01034 12.2514L4.00034 11.4914V19.8714C4.00034 20.4214 4.45034 20.8714 5.00034 20.8714H19.0003C19.5503 20.8714 20.0003 20.4214 20.0003 19.8714V11.4914L20.9903 12.2514C21.4303 12.5914 22.0603 12.5014 22.3903 12.0614C22.7303 11.6214 22.6403 10.9914 22.2003 10.6614L12.6003 3.33141C12.2403 3.06141 11.7403 3.06141 11.3903 3.33141L1.79034 10.6614C1.36034 11.0014 1.27034 11.6314 1.61034 12.0614ZM8.00034 14.8714C7.45034 14.8714 7.00034 14.4214 7.00034 13.8714C7.00034 13.3214 7.45034 12.8714 8.00034 12.8714C8.55034 12.8714 9.00034 13.3214 9.00034 13.8714C9.00034 14.4214 8.55034 14.8714 8.00034 14.8714ZM12.0003 14.8714C11.4503 14.8714 11.0003 14.4214 11.0003 13.8714C11.0003 13.3214 11.4503 12.8714 12.0003 12.8714C12.5503 12.8714 13.0003 13.3214 13.0003 13.8714C13.0003 14.4214 12.5503 14.8714 12.0003 14.8714ZM16.0003 14.8714C15.4503 14.8714 15.0003 14.4214 15.0003 13.8714C15.0003 13.3214 15.4503 12.8714 16.0003 12.8714C16.5503 12.8714 17.0003 13.3214 17.0003 13.8714C17.0003 14.4214 16.5503 14.8714 16.0003 14.8714Z" fill="currentColor"/>
</svg>
