<svg  viewBox="0 0 24 24" fill="none" xmlns="http://www.w3.org/2000/svg">
<path d="M16.5008 22C18.1608 22 19.5008 20.66 19.5008 19C19.5008 17.34 18.1608 16 16.5008 16C15.2008 16 14.1008 16.84 13.6808 18H8.64077L10.6308 14.94C10.9208 14.98 11.2108 15 11.5008 15C11.7908 15 12.0808 14.98 12.3708 14.94L13.3908 16.51C13.8108 15.98 14.3508 15.56 14.9908 15.3L14.3908 14.37C16.4908 13.42 18.0308 11.47 18.4108 9.13C18.5108 8.54 18.0208 8 17.4208 8C14.8108 8 8.19077 8 5.58077 8C4.98077 8 4.49077 8.54 4.59077 9.14C4.97077 11.48 6.52077 13.43 8.61077 14.38L4.66077 20.46C4.36077 20.92 4.49077 21.54 4.95077 21.84C5.41077 22.14 6.03077 22.01 6.33077 21.55L7.33077 20H13.6708C14.1008 21.16 15.2008 22 16.5008 22ZM16.5008 18C17.0508 18 17.5008 18.45 17.5008 19C17.5008 19.55 17.0508 20 16.5008 20C15.9508 20 15.5008 19.55 15.5008 19C15.5008 18.45 15.9508 18 16.5008 18Z" fill="currentColor"/>
<path d="M9.00077 6.47C8.98077 6.75 9.18077 7 9.46077 7H9.50077C9.74077 7 9.94077 6.82 9.96077 6.58C10.0608 5.71 10.0008 5.19 9.02077 4.04C8.66077 3.61 8.42077 3.35 8.49077 2.49C8.52077 2.23 8.30077 2 8.03077 2H7.98077C7.74077 2 7.53077 2.19 7.51077 2.43C7.43077 3.36 7.71077 4.17 8.46077 4.96C8.65077 5.17 9.10077 5.52 9.00077 6.47Z" fill="currentColor"/>
<path d="M11.4908 6.47C11.4608 6.75 11.6708 7 11.9508 7H11.9808C12.2208 7 12.4208 6.82 12.4408 6.58C12.5408 5.71 12.4808 5.19 11.5008 4.04C11.1408 3.61 10.8908 3.35 10.9708 2.49C11.0008 2.23 10.7808 2 10.5108 2H10.4608C10.2208 2 10.0108 2.19 9.99077 2.43C9.91077 3.36 10.1908 4.17 10.9408 4.96C11.1308 5.17 11.5808 5.52 11.4908 6.47Z" fill="currentColor"/>
<path d="M14.0008 6.47C13.9808 6.75 14.1808 7 14.4608 7H14.5008C14.7408 7 14.9408 6.82 14.9608 6.58C15.0608 5.71 15.0008 5.19 14.0208 4.04C13.6608 3.61 13.4108 3.35 13.4908 2.49C13.5208 2.23 13.3008 2 13.0308 2H12.9808C12.7408 2 12.5308 2.19 12.5108 2.43C12.4308 3.36 12.7108 4.17 13.4608 4.96C13.6508 5.17 14.1008 5.52 14.0008 6.47Z" fill="currentColor"/>
</svg>
