<svg width="24" height="24" viewBox="0 0 24 24" fill="none" xmlns="http://www.w3.org/2000/svg">
<path d="M3 15.8659H21C21.55 15.8659 22 16.3159 22 16.8659C22 17.4159 21.55 17.8659 21 17.8659H3C2.45 17.8659 2 17.4159 2 16.8659C2 16.3159 2.45 15.8659 3 15.8659ZM2.5 11.4359C2.86 11.6459 3.32 11.5159 3.53 11.1559L4 10.3359L4.48 11.1659C4.69 11.5259 5.15 11.6459 5.51 11.4459C5.87 11.2359 5.99 10.7859 5.79 10.4259L5.3 9.5859H6.25C6.66 9.5859 7 9.2459 7 8.8359C7 8.4259 6.66 8.0859 6.25 8.0859H5.3L5.77 7.2659C5.98 6.9059 5.86 6.4459 5.5 6.2359C5.14 6.0359 4.68 6.1559 4.47 6.5159L4 7.3359L3.53 6.5159C3.32 6.1559 2.86 6.0359 2.5 6.2359C2.14 6.4459 2.02 6.9059 2.23 7.2659L2.7 8.0859H1.75C1.34 8.0859 1 8.4259 1 8.8359C1 9.2459 1.34 9.5859 1.75 9.5859H2.7L2.22 10.4159C2.02 10.7759 2.14 11.2359 2.5 11.4359ZM10.5 11.4359C10.86 11.6459 11.32 11.5159 11.53 11.1559L12 10.3359L12.48 11.1659C12.69 11.5259 13.15 11.6459 13.51 11.4459C13.87 11.2359 13.99 10.7859 13.79 10.4259L13.31 9.5959H14.26C14.67 9.5959 15.01 9.2559 15.01 8.8459C15.01 8.4359 14.67 8.0959 14.26 8.0959H13.3L13.77 7.2759C13.98 6.9159 13.85 6.4559 13.5 6.2459C13.14 6.0359 12.68 6.1659 12.48 6.5159L12 7.3359L11.53 6.5159C11.32 6.1559 10.86 6.0359 10.51 6.2459C10.15 6.4559 10.03 6.9159 10.24 7.2759L10.71 8.0959H9.75C9.34 8.0859 9 8.4259 9 8.8359C9 9.2459 9.34 9.5859 9.75 9.5859H10.7L10.22 10.4159C10.02 10.7759 10.14 11.2359 10.5 11.4359ZM23 8.8359C23 8.4259 22.66 8.0859 22.25 8.0859H21.3L21.77 7.2659C21.98 6.9059 21.85 6.4459 21.5 6.2359C21.14 6.0259 20.68 6.1559 20.48 6.5059L20 7.3359L19.53 6.5159C19.32 6.1559 18.86 6.0359 18.51 6.2459C18.15 6.4559 18.03 6.9159 18.24 7.2759L18.71 8.0959H17.76C17.34 8.0859 17 8.4259 17 8.8359C17 9.2459 17.34 9.5859 17.75 9.5859H18.7L18.22 10.4159C18.01 10.7759 18.14 11.2359 18.5 11.4359C18.86 11.6459 19.32 11.5159 19.53 11.1559L20 10.3359L20.48 11.1659C20.69 11.5259 21.15 11.6459 21.51 11.4459C21.87 11.2359 21.99 10.7859 21.79 10.4259L21.31 9.5959H22.26C22.66 9.5859 23 9.2459 23 8.8359Z" fill="black"/>
</svg>
