<svg width="24" height="24" viewBox="0 0 24 24" fill="none" xmlns="http://www.w3.org/2000/svg">
<path d="M20.0049 5H16.8349L15.5949 3.65C15.2249 3.24 14.6849 3 14.1249 3H9.88488C9.32488 3 8.78488 3.24 8.40488 3.65L7.17488 5H4.00488C2.90488 5 2.00488 5.9 2.00488 7V19C2.00488 20.1 2.90488 21 4.00488 21H11.0049V18.91C8.55488 18.49 6.59488 16.59 6.11488 14.16C5.99488 13.55 6.49488 13 7.10488 13C7.59488 13 7.98488 13.35 8.08488 13.83C8.47488 15.64 10.0749 17 12.0049 17C13.9349 17 15.5349 15.64 15.9149 13.83C16.0149 13.35 16.4149 13 16.8949 13C17.5049 13 18.0049 13.55 17.8849 14.16C17.4049 16.59 15.4449 18.5 12.9949 18.91V21H19.9949C21.0949 21 21.9949 20.1 21.9949 19V7C22.0049 5.9 21.1049 5 20.0049 5ZM14.0049 13C14.0049 14.1 13.1049 15 12.0049 15C10.9049 15 10.0049 14.1 10.0049 13V9C10.0049 7.9 10.9049 7 12.0049 7C13.1049 7 14.0049 7.9 14.0049 9V13Z" fill="black"/>
</svg>
