<svg width="24" height="24" viewBox="0 0 24 24" fill="none" xmlns="http://www.w3.org/2000/svg">
<path d="M12 3.08569C7.41001 3.08569 3.86001 4.61569 0.89001 6.67569C0.40001 7.00569 0.30001 7.67569 0.67001 8.13569L10.45 20.1757C11.25 21.1557 12.75 21.1657 13.55 20.1757L23.33 8.15569C23.7 7.69569 23.6 7.02569 23.11 6.69569C20.14 4.62569 16.59 3.08569 12 3.08569ZM12 16.0857C11.45 16.0857 11 15.6357 11 15.0857V11.0857C11 10.5357 11.45 10.0857 12 10.0857C12.55 10.0857 13 10.5357 13 11.0857V15.0857C13 15.6357 12.55 16.0857 12 16.0857ZM11 8.08569V6.08569H13V8.08569H11Z" fill="black"/>
</svg>
