<svg width="24" height="24" viewBox="0 0 24 24" fill="none" xmlns="http://www.w3.org/2000/svg">
<path d="M18.3526 10.792C18.6926 10.792 19.0326 10.822 19.3626 10.862V1.71202C19.3626 0.822019 18.2826 0.372019 17.6526 1.00202L1.07263 17.582C0.442631 18.212 0.882631 19.292 1.77263 19.292H10.9226C10.8826 18.962 10.8526 18.632 10.8526 18.292C10.8526 14.152 14.2126 10.792 18.3526 10.792ZM22.0626 18.782C22.0826 18.622 22.1026 18.462 22.1026 18.292C22.1026 18.122 22.0926 17.962 22.0626 17.802L23.1226 16.972C23.2126 16.892 23.2426 16.762 23.1826 16.652L22.1826 14.922C22.1226 14.812 21.9926 14.772 21.8726 14.812L20.6326 15.312C20.3726 15.112 20.0926 14.942 19.7826 14.822L19.5926 13.502C19.5826 13.382 19.4726 13.292 19.3526 13.292H17.3526C17.2326 13.292 17.1226 13.382 17.1026 13.502L16.9126 14.822C16.6126 14.952 16.3226 15.112 16.0626 15.312L14.8226 14.812C14.7126 14.772 14.5826 14.812 14.5126 14.922L13.5126 16.652C13.4526 16.762 13.4726 16.892 13.5726 16.972L14.6326 17.802C14.6126 17.962 14.6026 18.122 14.6026 18.292C14.6026 18.462 14.6126 18.622 14.6326 18.782L13.5726 19.612C13.4826 19.692 13.4526 19.822 13.5126 19.932L14.5126 21.662C14.5726 21.772 14.7026 21.812 14.8226 21.772L16.0626 21.272C16.3226 21.472 16.6026 21.642 16.9126 21.762L17.1026 23.082C17.1226 23.202 17.2226 23.292 17.3526 23.292H19.3526C19.4726 23.292 19.5826 23.202 19.6026 23.082L19.7926 21.762C20.0926 21.632 20.3826 21.472 20.6326 21.272L21.8826 21.772C21.9926 21.812 22.1226 21.772 22.1926 21.662L23.1926 19.932C23.2526 19.822 23.2226 19.692 23.1326 19.612L22.0626 18.782ZM18.3526 19.792C17.5226 19.792 16.8526 19.122 16.8526 18.292C16.8526 17.462 17.5226 16.792 18.3526 16.792C19.1826 16.792 19.8526 17.462 19.8526 18.292C19.8526 19.122 19.1826 19.792 18.3526 19.792Z" fill="black"/>
</svg>
