<svg width="24" height="24" viewBox="0 0 24 24" fill="none" xmlns="http://www.w3.org/2000/svg">
<path d="M19.9869 3.01318H12.9869C12.4369 3.01318 11.9869 3.46318 11.9869 4.01318V13.0132L14.9869 10.0132H19.9869C20.5369 10.0132 20.9869 9.56318 20.9869 9.01318V4.01318C20.9869 3.46318 20.5369 3.01318 19.9869 3.01318ZM19.2169 15.2732L16.6769 14.9832C16.0669 14.9132 15.4669 15.1232 15.0369 15.5532L13.1969 17.3932C10.3669 15.9532 8.04686 13.6432 6.60686 10.8032L8.45686 8.95318C8.88686 8.52318 9.09686 7.92318 9.02686 7.31318L8.73686 4.79318C8.61686 3.78318 7.76686 3.02318 6.74686 3.02318H5.01686C3.88686 3.02318 2.94686 3.96318 3.01686 5.09318C3.54686 13.6332 10.3769 20.4532 18.9069 20.9832C20.0369 21.0532 20.9769 20.1132 20.9769 18.9832V17.2532C20.9869 16.2432 20.2269 15.3932 19.2169 15.2732Z" fill="black"/>
</svg>
