<svg width="24" height="24" viewBox="0 0 24 24" fill="none" xmlns="http://www.w3.org/2000/svg">
<path d="M14.7712 11.095C14.9412 11.115 15.1112 11.145 15.2912 11.145C17.5012 11.145 19.2912 9.35496 19.2912 7.14496C19.2912 4.93496 17.5012 3.14496 15.2912 3.14496C13.0812 3.14496 11.2912 4.93496 11.2912 7.14496C11.2912 7.32496 11.3212 7.49496 11.3412 7.66496L14.7712 11.095ZM16.9812 13.305L22.7212 19.045C23.0512 18.875 23.2912 18.545 23.2912 18.145V17.145C23.2912 15.005 19.7312 13.645 16.9812 13.305ZM2.41124 1.56496C2.02124 1.17496 1.39124 1.17496 1.00124 1.56496C0.61124 1.95496 0.61124 2.58496 1.00124 2.97496L4.29124 6.26496V9.14496H2.29124C1.74124 9.14496 1.29124 9.59496 1.29124 10.145C1.29124 10.695 1.74124 11.145 2.29124 11.145H4.29124V13.145C4.29124 13.695 4.74124 14.145 5.29124 14.145C5.84124 14.145 6.29124 13.695 6.29124 13.145V11.145H9.17124L11.6812 13.655C9.48124 14.255 7.29124 15.445 7.29124 17.145V18.145C7.29124 18.695 7.74124 19.145 8.29124 19.145H17.1712L20.4612 22.435C20.8512 22.825 21.4812 22.825 21.8712 22.435C22.2612 22.045 22.2612 21.415 21.8712 21.025L2.41124 1.56496ZM6.29124 9.14496V8.26496L7.17124 9.14496H6.29124Z" fill="black"/>
</svg>
