<svg  viewBox="0 0 24 24" fill="none" xmlns="http://www.w3.org/2000/svg">
<path d="M10.2137 11.2036C12.4229 11.2036 14.2137 9.41275 14.2137 7.20361C14.2137 4.99447 12.4229 3.20361 10.2137 3.20361C8.00461 3.20361 6.21375 4.99447 6.21375 7.20361C6.21375 9.41275 8.00461 11.2036 10.2137 11.2036Z" fill="currentColor"/>
<path d="M10.5637 13.2136C7.83375 13.1136 2.21375 14.4736 2.21375 17.2036V18.2036C2.21375 18.7536 2.66375 19.2036 3.21375 19.2036H11.7537C9.28374 16.4436 10.5237 13.3136 10.5637 13.2136Z" fill="currentColor"/>
<path d="M19.6437 17.2236C20.1137 16.4236 20.3437 15.4536 20.1237 14.4036C19.7837 12.7636 18.4037 11.4536 16.7437 11.2436C14.1137 10.9036 11.8937 13.1136 12.2437 15.7436C12.4637 17.4036 13.7637 18.7836 15.4037 19.1236C16.4537 19.3436 17.4237 19.1136 18.2237 18.6436L20.0837 20.5036C20.4737 20.8936 21.1037 20.8936 21.4937 20.5036C21.8837 20.1136 21.8837 19.4836 21.4937 19.0936L19.6437 17.2236ZM16.2137 17.2036C15.1137 17.2036 14.2137 16.3036 14.2137 15.2036C14.2137 14.1036 15.1137 13.2036 16.2137 13.2036C17.3137 13.2036 18.2137 14.1036 18.2137 15.2036C18.2137 16.3036 17.3137 17.2036 16.2137 17.2036Z" fill="currentColor"/>
</svg>
