<svg  viewBox="0 0 24 24" fill="none" xmlns="http://www.w3.org/2000/svg">
<path d="M12 2.16992C7.8 2.16992 4 5.38992 4 10.3699C4 13.5499 6.45 17.2899 11.34 21.5899C11.7 21.9099 12.31 21.9099 12.67 21.5899C17.55 17.2899 20 13.5499 20 10.3699C20 5.38992 16.2 2.16992 12 2.16992ZM7.69 12.6599C8.88 11.7299 10.37 11.1699 12 11.1699C13.63 11.1699 15.12 11.7299 16.31 12.6599C15.45 14.1499 13.85 15.1699 12 15.1699C10.15 15.1699 8.55 14.1499 7.69 12.6599ZM12 6.16992C13.1 6.16992 14 7.06992 14 8.16992C14 9.26992 13.1 10.1699 12 10.1699C10.9 10.1699 10 9.26992 10 8.16992C10 7.06992 10.9 6.16992 12 6.16992Z" fill="currentColor"/>
</svg>
