<svg  viewBox="0 0 24 24" fill="none" xmlns="http://www.w3.org/2000/svg">
<path d="M9.35556 5.11422C10.0656 4.01422 11.3056 3.29422 12.7056 3.29422C14.9156 3.29422 16.7056 5.08422 16.7056 7.29422C16.7056 8.69422 15.9856 9.93422 14.8856 10.6442L9.35556 5.11422ZM20.7056 16.4642C20.6856 15.3642 20.0756 14.3542 19.0956 13.8442C18.5556 13.5642 17.9656 13.3042 17.3256 13.0842L20.7056 16.4642ZM21.1956 19.7842L4.21556 2.80422C3.82556 2.41422 3.19556 2.41422 2.80556 2.80422C2.41556 3.19422 2.41556 3.82422 2.80556 4.21422L10.9856 12.3942C9.16556 12.6242 7.57556 13.1942 6.28556 13.8542C5.30556 14.3742 4.70556 15.4042 4.70556 16.5142V19.2942H17.8756L19.7756 21.1942C20.1656 21.5842 20.7956 21.5842 21.1856 21.1942C21.5856 20.8042 21.5856 20.1742 21.1956 19.7842Z" fill="currentColor"/>
</svg>
