<svg  viewBox="0 0 24 24" fill="none" xmlns="http://www.w3.org/2000/svg">
<path d="M21 13.9165C21 13.3665 20.55 12.9165 20 12.9165H17.93C17.88 12.5265 17.81 12.1465 17.71 11.7765L19.43 10.7865C19.91 10.5065 20.07 9.89648 19.8 9.41648C19.52 8.93648 18.91 8.77648 18.43 9.04648L16.92 9.91648C16.64 9.43648 16.3 9.00648 15.93 8.62648C15.97 8.39648 16 8.16648 16 7.91648C16 7.11648 15.76 6.36648 15.35 5.73648L16.29 4.79648C16.68 4.40648 16.68 3.77648 16.29 3.38648C15.9 2.99648 15.27 2.99648 14.88 3.38648L13.86 4.40648C12.18 3.51648 10.76 4.07648 10.13 4.40648L9.12 3.37648C8.73 2.98648 8.1 2.98648 7.71 3.37648C7.32 3.76648 7.32 4.39648 7.71 4.78648L8.65 5.72648C8.24 6.36648 8 7.11648 8 7.91648C8 8.16648 8.03 8.39648 8.07 8.63648C7.7 9.01648 7.36 9.44648 7.08 9.91648L5.57 9.04648C5.09 8.77648 4.48 8.93648 4.21 9.41648C3.93 9.89648 4.1 10.5065 4.58 10.7865L6.3 11.7765C6.2 12.1465 6.13 12.5265 6.08 12.9165H4C3.45 12.9165 3 13.3665 3 13.9165C3 14.4665 3.45 14.9165 4 14.9165H6.07C6.12 15.3065 6.19 15.6865 6.29 16.0565L4.57 17.0465C4.09 17.3265 3.93 17.9365 4.2 18.4165C4.48 18.8965 5.09 19.0565 5.57 18.7865L7.08 17.9165C8.16 19.7265 9.96 20.9165 12 20.9165C14.04 20.9165 15.84 19.7265 16.92 17.9165L18.43 18.7865C18.91 19.0665 19.52 18.8965 19.8 18.4165C20.08 17.9365 19.91 17.3265 19.43 17.0465L17.71 16.0565C17.81 15.6865 17.88 15.3065 17.93 14.9165H20C20.55 14.9165 21 14.4665 21 13.9165ZM12 16.9165C11.45 16.9165 11 16.4665 11 15.9165V11.9165C11 11.3665 11.45 10.9165 12 10.9165C12.55 10.9165 13 11.3665 13 11.9165V15.9165C13 16.4665 12.55 16.9165 12 16.9165Z" fill="currentColor"/>
</svg>
