<svg  viewBox="0 0 24 24" fill="none" xmlns="http://www.w3.org/2000/svg">
<path d="M21.3078 17.38L18.9178 15.25C19.4378 12.89 17.5578 11 15.4978 11C14.3378 11 11.9978 11.9 11.9978 14.5C11.9978 15.31 12.2678 16.05 12.7378 16.65C12.8878 16.85 12.8778 17.13 12.6978 17.31C12.4878 17.52 12.1378 17.5 11.9478 17.27C11.3478 16.5 10.9978 15.54 10.9978 14.5C10.9978 12.8 11.9578 11.33 13.3478 10.57C12.6478 10.21 11.8678 10 11.0678 10C8.68779 10 6.69779 11.65 6.15779 13.87C4.82779 13.48 3.87779 12.21 4.00779 10.73C4.14779 9.16 5.53779 8 7.10779 8H9.10779C10.6878 8 11.8578 7.05 11.9778 5.75C12.1278 4.25 10.9578 3 9.49779 3H8.04779C7.54779 3 7.08779 3.34 7.00779 3.83C6.90779 4.46 7.38779 5 7.99779 5H9.49779C9.77779 5 9.99779 5.22 9.99779 5.5C9.99779 5.78 9.77779 6 9.49779 6H7.15779C4.48779 6 2.16779 8.03 2.00779 10.7C1.85779 13.25 3.61779 15.42 5.99779 15.9V15.93C5.99779 18.73 8.26779 21 11.0678 21H19.9278C21.7978 21 22.7378 18.66 21.3078 17.38ZM17.9978 19C17.4478 19 16.9978 18.55 16.9978 18C16.9978 17.45 17.4478 17 17.9978 17C18.5478 17 18.9978 17.45 18.9978 18C18.9978 18.55 18.5478 19 17.9978 19Z" fill="currentColor"/>
</svg>
