<svg  viewBox="0 0 24 24" fill="none" xmlns="http://www.w3.org/2000/svg">
<path d="M19 9.5C19 8.2 18.16 7.1 17 6.68V3.5C17 2.95 16.55 2.5 16 2.5C15.45 2.5 15 2.95 15 3.5V6.68C13.84 7.1 13 8.2 13 9.5C13 10.8 13.84 11.9 15 12.32V15.33C15 17.42 13.48 19.29 11.4 19.49C9.02 19.71 7 17.84 7 15.5V14.5H8.79C9.24 14.5 9.46 13.96 9.14 13.65L5.85 10.35C5.54 10.04 5 10.26 5 10.71V15.29C5 18.34 7.19 21.06 10.21 21.45C13.87 21.92 17 19.07 17 15.5V12.32C18.16 11.9 19 10.8 19 9.5ZM16 10.5C15.45 10.5 15 10.05 15 9.5C15 8.95 15.45 8.5 16 8.5C16.55 8.5 17 8.95 17 9.5C17 10.05 16.55 10.5 16 10.5Z" fill="currentColor"/>
</svg>
