<svg viewBox="0 0 24 24" fill="none" xmlns="http://www.w3.org/2000/svg">
<path d="M19.2217 15.2803L16.6817 14.9903C16.0717 14.9203 15.4717 15.1303 15.0417 15.5603L13.2017 17.4003C10.3717 15.9603 8.05174 13.6503 6.61174 10.8103L8.46174 8.96031C8.89174 8.53031 9.10174 7.93031 9.03174 7.32031L8.74174 4.80031C8.62174 3.79031 7.77174 3.03031 6.75174 3.03031H5.02174C3.89174 3.03031 2.95174 3.97031 3.02174 5.10031C3.55174 13.6403 10.3817 20.4603 18.9117 20.9903C20.0417 21.0603 20.9817 20.1203 20.9817 18.9903V17.2603C20.9917 16.2503 20.2317 15.4003 19.2217 15.2803ZM12.9917 11.0203H16.9917C17.5417 11.0203 17.9917 10.5703 17.9917 10.0203C17.9917 9.47031 17.5417 9.02031 16.9917 9.02031H15.4017L19.7117 4.71031C20.1017 4.32031 20.1017 3.69031 19.7117 3.30031C19.3217 2.91031 18.6917 2.91031 18.3017 3.30031L13.9917 7.61031V6.02031C13.9917 5.47031 13.5417 5.02031 12.9917 5.02031C12.4417 5.02031 11.9917 5.47031 11.9917 6.02031V10.0203C11.9917 10.5703 12.4417 11.0203 12.9917 11.0203Z" fill="currentColor"/>
</svg>
