<svg width="24" height="24" viewBox="0 0 24 24" fill="none" xmlns="http://www.w3.org/2000/svg">
<path d="M15.1444 16.7587C12.5144 18.8387 9.25437 20.1487 5.69437 20.3687C4.56437 20.4387 3.62437 19.4987 3.62437 18.3687V16.6387C3.61437 15.6287 4.37437 14.7787 5.38437 14.6587L7.92437 14.3687C8.53437 14.2987 9.13437 14.5087 9.56437 14.9387L11.4044 16.7787C12.2144 16.3687 12.9944 15.8787 13.7144 15.3287L2.70437 4.31869C2.31437 3.92869 2.31437 3.29869 2.70437 2.90869C3.09437 2.51869 3.73437 2.51869 4.12437 2.90869L21.0944 19.8887C21.4844 20.2787 21.4844 20.9087 21.0944 21.2987C20.7044 21.6887 20.0744 21.6887 19.6844 21.2987L15.1444 16.7587ZM17.9944 10.1887L16.1444 8.33869C15.7144 7.90869 15.5044 7.30869 15.5744 6.69869L15.8644 4.17869C15.9844 3.16869 16.8344 2.40869 17.8544 2.40869H19.5844C20.7144 2.40869 21.6544 3.34869 21.5844 4.47869C21.3644 8.04869 20.0444 11.3087 17.9644 13.9487L16.5344 12.5187C17.0844 11.7887 17.5744 11.0087 17.9944 10.1887Z" fill="black"/>
</svg>
