<svg viewBox="0 0 24 24" fill="none" xmlns="http://www.w3.org/2000/svg">
<path d="M23.0925 16.2918C16.7625 10.7018 7.23252 10.7018 0.912517 16.2918C0.0725169 17.0318 0.0725169 18.3418 0.862517 19.1318L2.06252 20.3318C2.77252 21.0418 3.90252 21.1018 4.68252 20.4818L6.65252 18.9118C7.12252 18.5418 7.40252 17.9718 7.40252 17.3618V14.7918C10.3825 13.8218 13.6125 13.8118 16.6025 14.7918V17.3718C16.6025 17.9718 16.8825 18.5418 17.3525 18.9218L19.3125 20.4818C20.1025 21.1018 21.2225 21.0418 21.9325 20.3318L23.1325 19.1318C23.9325 18.3418 23.9225 17.0318 23.0925 16.2918ZM6.00252 9.0918C6.55252 9.0918 7.00252 8.6418 7.00252 8.0918V6.5218L11.2425 10.7618C11.6325 11.1518 12.2625 11.1518 12.6525 10.7618L18.3125 5.1018C18.7025 4.7118 18.7025 4.0818 18.3125 3.6918C17.9225 3.3018 17.2925 3.3018 16.9025 3.6918L11.9525 8.6418L8.40252 5.0918H10.0025C10.5525 5.0918 11.0025 4.6418 11.0025 4.0918C11.0025 3.5418 10.5525 3.0918 10.0025 3.0918H6.00252C5.45252 3.0918 5.00252 3.5418 5.00252 4.0918V8.0918C5.00252 8.6418 5.45252 9.0918 6.00252 9.0918Z" fill="currentColor"/>
</svg>
