<svg width="24" height="24" viewBox="0 0 24 24" fill="none" xmlns="http://www.w3.org/2000/svg">
<path d="M12.355 7.7C12.075 7.42 11.635 7.42 11.355 7.7L7.85502 11.2L4.35502 7.7C4.07502 7.42 3.63502 7.42 3.35502 7.7C3.07502 7.98 3.07502 8.42 3.35502 8.7L6.85502 12.2L3.35502 15.7C3.07502 15.98 3.07502 16.42 3.35502 16.7C3.63502 16.98 4.07502 16.98 4.35502 16.7L7.85502 13.2L11.355 16.7C11.635 16.98 12.075 16.98 12.355 16.7C12.635 16.42 12.635 15.98 12.355 15.7L8.85502 12.2L12.355 8.7C12.635 8.42 12.635 7.98 12.355 7.7ZM18.855 1H8.85502C7.75502 1 6.85502 1.9 6.85502 3V5C6.85502 5.55 7.30502 6 7.85502 6C8.40502 6 8.85502 5.55 8.85502 5V4H18.855V20H8.85502V19C8.85502 18.45 8.40502 18 7.85502 18C7.30502 18 6.85502 18.45 6.85502 19V21C6.85502 22.1 7.75502 23 8.85502 23H18.855C19.955 23 20.855 22.1 20.855 21V3C20.855 1.9 19.955 1 18.855 1Z" fill="black"/>
</svg>
