<svg viewBox="0 0 24 24" fill="none" xmlns="http://www.w3.org/2000/svg">
<path d="M15.9869 3.01367C15.4369 3.01367 14.9869 3.46367 14.9869 4.01367V9.01367C14.9869 9.56367 15.4369 10.0137 15.9869 10.0137C16.5369 10.0137 16.9869 9.56367 16.9869 9.01367V4.01367C16.9869 3.46367 16.5369 3.01367 15.9869 3.01367ZM18.9869 4.01367V9.01367C18.9869 9.56367 19.4369 10.0137 19.9869 10.0137C20.5369 10.0137 20.9869 9.56367 20.9869 9.01367V4.01367C20.9869 3.46367 20.5369 3.01367 19.9869 3.01367C19.4369 3.01367 18.9869 3.46367 18.9869 4.01367ZM19.2169 15.2737L16.6769 14.9837C16.0669 14.9137 15.4669 15.1237 15.0369 15.5537L13.1969 17.3937C10.3669 15.9537 8.04686 13.6437 6.60686 10.8037L8.45686 8.95367C8.88686 8.52367 9.09686 7.92367 9.02686 7.31367L8.73686 4.79367C8.61686 3.78367 7.76686 3.02367 6.74686 3.02367H5.01686C3.88686 3.02367 2.94686 3.96367 3.01686 5.09367C3.54686 13.6337 10.3769 20.4537 18.9069 20.9837C20.0369 21.0537 20.9769 20.1137 20.9769 18.9837V17.2537C20.9869 16.2437 20.2269 15.3937 19.2169 15.2737Z" fill="currentColor"/>
</svg>
