<svg viewBox="0 0 24 24" fill="none" xmlns="http://www.w3.org/2000/svg">
<path d="M19.2217 16.2022L16.6817 15.9122C16.0717 15.8422 15.4717 16.0522 15.0417 16.4822L13.2017 18.3222C10.3717 16.8822 8.05174 14.5722 6.61174 11.7322L8.46174 9.88216C8.89174 9.45216 9.10174 8.85216 9.03174 8.24216L8.74174 5.72216C8.62174 4.71216 7.77174 3.95216 6.75174 3.95216H5.02174C3.89174 3.95216 2.95174 4.89216 3.02174 6.02216C3.55174 14.5622 10.3817 21.3822 18.9117 21.9122C20.0417 21.9822 20.9817 21.0422 20.9817 19.9122V18.1822C20.9917 17.1722 20.2317 16.3222 19.2217 16.2022ZM16.7817 6.95216L14.3317 9.40216C14.1317 9.60216 14.1317 9.92216 14.3317 10.1122C14.5317 10.3122 14.8517 10.3122 15.0417 10.1122L16.9917 8.17216V11.3222C16.9917 11.5222 17.1117 11.7122 17.3017 11.7922C17.3617 11.8222 17.4317 11.8322 17.4917 11.8322C17.6217 11.8322 17.7517 11.7822 17.8517 11.6822L20.0317 9.50216C20.2317 9.30217 20.2317 8.98216 20.0317 8.79216L18.2017 6.96216L20.0317 5.13216C20.1217 5.04216 20.1817 4.91216 20.1817 4.77216C20.1817 4.63216 20.1317 4.51216 20.0317 4.41216L17.8517 2.23216C17.7117 2.09216 17.4917 2.04216 17.3017 2.12216C17.1117 2.20216 16.9917 2.38216 16.9917 2.58216V5.73216L15.0417 3.78216C14.8417 3.58216 14.5217 3.58216 14.3317 3.78216C14.1317 3.98216 14.1317 4.30216 14.3317 4.49216L16.7817 6.95216ZM18.0017 3.80216L18.9617 4.76216L18.0017 5.72216V3.80216ZM18.0017 8.17216L18.9617 9.13216L18.0017 10.0922V8.17216Z" fill="currentColor"/>
</svg>
