<svg  viewBox="0 0 24 24" fill="none" xmlns="http://www.w3.org/2000/svg">
<path d="M4.77816 15.2681L7.31816 14.9781C7.92816 14.9081 8.52816 15.1181 8.95816 15.5481L10.7982 17.3881C13.6282 15.9481 15.9482 13.6381 17.3882 10.7981L15.5382 8.94807C15.1082 8.51807 14.8982 7.91807 14.9682 7.30807L15.2582 4.78807C15.3782 3.77807 16.2282 3.01807 17.2482 3.01807H18.9782C20.1082 3.01807 21.0482 3.95807 20.9782 5.08807C20.4482 13.6281 13.6182 20.4481 5.08816 20.9781C3.95816 21.0481 3.01816 20.1081 3.01816 18.9781V17.2481C3.00816 16.2381 3.76816 15.3881 4.77816 15.2681Z" fill="currentColor"/>
</svg>
