<svg viewBox="0 0 24 24" fill="none" xmlns="http://www.w3.org/2000/svg">
<path d="M12.8718 5.05758C16.0518 5.45758 18.5418 7.94758 18.9418 11.1276C19.0018 11.6376 19.4318 12.0076 19.9318 12.0076C19.9718 12.0076 20.0118 12.0076 20.0518 11.9976C20.6018 11.9276 20.9918 11.4276 20.9218 10.8776C20.4118 6.78758 17.2018 3.57758 13.1118 3.06758C12.5618 3.00758 12.0618 3.39758 12.0018 3.94758C11.9318 4.49758 12.3218 4.99758 12.8718 5.05758ZM13.2518 7.16758C12.7218 7.02758 12.1718 7.34758 12.0318 7.88758C11.8918 8.42758 12.2118 8.96758 12.7518 9.10758C13.8018 9.37758 14.6218 10.1976 14.9018 11.2576C15.0218 11.7076 15.4218 12.0076 15.8718 12.0076C15.9518 12.0076 16.0418 11.9976 16.1218 11.9776C16.6518 11.8376 16.9718 11.2876 16.8418 10.7576C16.3718 8.98758 15.0018 7.61758 13.2518 7.16758ZM19.2218 15.2676L16.6818 14.9776C16.0718 14.9076 15.4718 15.1176 15.0418 15.5476L13.2018 17.3876C10.3718 15.9476 8.0518 13.6376 6.6118 10.7976L8.4618 8.94758C8.8918 8.51758 9.1018 7.91758 9.0318 7.30758L8.7418 4.78758C8.6218 3.77758 7.7718 3.01758 6.7518 3.01758H5.0218C3.8918 3.01758 2.9518 3.95758 3.0218 5.08758C3.5518 13.6276 10.3818 20.4476 18.9118 20.9776C20.0418 21.0476 20.9818 20.1076 20.9818 18.9776V17.2476C20.9918 16.2376 20.2318 15.3876 19.2218 15.2676Z" fill="currentColor"/>
</svg>
