<svg  viewBox="0 0 24 24" fill="none" xmlns="http://www.w3.org/2000/svg">
<path d="M24 19.0747V9.07469C24 8.52469 23.55 8.07469 23 8.07469H17C16.45 8.07469 16 8.52469 16 9.07469V12.6847L18 14.6847V10.0747H22V17.0747H20.39L23.32 20.0047C23.71 19.8747 24 19.5147 24 19.0747ZM21 6.07469C21.55 6.07469 22 5.62469 22 5.07469C22 4.52469 21.55 4.07469 21 4.07469H7.39L9.39 6.07469H21ZM1.36 2.28469C0.97 2.67469 0.97 3.30469 1.36 3.69469L2.47 4.80469C2.18 5.15469 2 5.59469 2 6.07469V17.0747H1.5C0.67 17.0747 0 17.7447 0 18.5747C0 19.4047 0.67 20.0747 1.5 20.0747H17.73L19.37 21.7147C19.76 22.1047 20.39 22.1047 20.78 21.7147C21.17 21.3247 21.17 20.6947 20.78 20.3047L2.77 2.28469C2.38 1.89469 1.75 1.89469 1.36 2.28469ZM4 17.0747V6.34469L14.73 17.0747H4Z" fill="currentColor"/>
</svg>
