<svg viewBox="0 0 24 24" fill="none" xmlns="http://www.w3.org/2000/svg">
<path d="M20.0007 5.49873V4.60873C20.0007 3.60873 19.3207 2.68873 18.3407 2.52873C17.0807 2.31873 16.0007 3.28873 16.0007 4.49873V5.49873C15.4507 5.49873 15.0007 5.94873 15.0007 6.49873V9.49873C15.0007 10.0487 15.4507 10.4987 16.0007 10.4987H20.0007C20.5507 10.4987 21.0007 10.0487 21.0007 9.49873V6.49873C21.0007 5.94873 20.5507 5.49873 20.0007 5.49873ZM19.0007 5.49873H17.0007V4.49873C17.0007 3.94873 17.4507 3.49873 18.0007 3.49873C18.5507 3.49873 19.0007 3.94873 19.0007 4.49873V5.49873Z" fill="currentColor"/>
<path d="M15.6307 14.8987L13.1107 17.3987C10.6107 15.9687 8.54069 13.8987 7.11069 11.3987L9.61069 8.87873C9.84069 8.63873 9.94069 8.30873 9.88069 7.97873L9.13069 4.29873C9.04069 3.83873 8.63069 3.49873 8.15069 3.49873H4.00069C3.44069 3.49873 2.97069 3.96873 3.00069 4.52873C3.17069 7.41873 4.05069 10.1287 5.43069 12.4987C7.01069 15.2287 9.28069 17.4887 12.0007 19.0687C14.3707 20.4387 17.0807 21.3287 19.9707 21.4987C20.5307 21.5287 21.0007 21.0587 21.0007 20.4987V16.3487C21.0007 15.8687 20.6607 15.4587 20.2007 15.3687L16.5307 14.6387C16.2007 14.5687 15.8607 14.6687 15.6307 14.8987Z" fill="currentColor"/>
</svg>
