<svg  viewBox="0 0 24 24" fill="none" xmlns="http://www.w3.org/2000/svg">
<path d="M14.0144 1H4.01437C2.91437 1 2.01437 1.9 2.01437 3V21C2.01437 22.1 2.91437 23 4.01437 23H14.0144C15.1144 23 16.0144 22.1 16.0144 21V3C16.0144 1.9 15.1144 1 14.0144 1ZM14.0144 20H4.01437V4H14.0144V20ZM20.6444 8.26C20.3844 7.94 19.9044 7.9 19.6044 8.2L19.5744 8.23C19.3244 8.48 19.3144 8.88 19.5244 9.16C20.7844 10.8 20.7744 13.03 19.5044 14.73C19.2944 15.01 19.3144 15.4 19.5544 15.65L19.6044 15.7C19.8944 15.99 20.3644 15.96 20.6344 15.65C22.4344 13.52 22.4344 10.46 20.6444 8.26ZM17.4344 10.37L17.3744 10.43C17.1744 10.63 17.1144 10.93 17.2244 11.19C17.4344 11.68 17.4344 12.22 17.2244 12.71C17.1144 12.97 17.1744 13.27 17.3744 13.47L17.4544 13.55C17.7744 13.87 18.3244 13.8 18.5444 13.4C19.0344 12.51 19.0344 11.46 18.5344 10.54C18.3144 10.12 17.7644 10.04 17.4344 10.37Z" fill="currentColor"/>
</svg>
