<svg viewBox="0 0 24 24" fill="none" xmlns="http://www.w3.org/2000/svg">
<path d="M21.7412 6.30872L17.9512 2.51872C17.6312 2.19872 17.0912 2.41872 17.0912 2.86872V4.65872H13.5912C13.3112 4.65872 13.0912 4.87872 13.0912 5.15872V8.15872C13.0912 8.43872 13.3112 8.65872 13.5912 8.65872H17.0912V10.4487C17.0912 10.8987 17.6312 11.1187 17.9412 10.7987L21.7312 7.00872C21.9312 6.81872 21.9312 6.49872 21.7412 6.30872ZM18.3212 15.9187L15.7812 15.6287C15.1712 15.5587 14.5712 15.7687 14.1412 16.1987L12.3012 18.0387C9.4712 16.5987 7.1512 14.2887 5.7112 11.4487L7.5612 9.59872C7.9912 9.16872 8.2012 8.56872 8.1312 7.95872L7.8412 5.43872C7.7212 4.42872 6.8712 3.66872 5.8512 3.66872H4.1212C2.9912 3.66872 2.0512 4.60872 2.1212 5.73872C2.6512 14.2787 9.4812 21.0987 18.0112 21.6287C19.1412 21.6987 20.0812 20.7587 20.0812 19.6287V17.8987C20.0912 16.8887 19.3312 16.0387 18.3212 15.9187Z" fill="currentColor"/>
</svg>
