<svg viewBox="0 0 24 24" fill="none" xmlns="http://www.w3.org/2000/svg">
<path d="M19.01 10.99V18C19.01 18.55 18.56 19 18.01 19H5.99001C5.44001 19 4.99001 18.55 4.99001 18V6C4.99001 5.45 5.44001 5 5.99001 5H12.99C13.54 5 13.99 4.55 13.99 4C13.99 3.45 13.54 3 12.99 3H5.01001C3.91001 3 3.01001 3.9 3.01001 5V19C3.01001 20.1 3.91001 21 5.01001 21H18.99C20.09 21 20.99 20.11 20.99 19V10.99C20.99 10.44 20.55 10 20 10C19.45 10 19.01 10.44 19.01 10.99ZM13.24 10.75L12.45 9C12.27 8.61 11.72 8.61 11.54 9L10.75 10.75L8.99001 11.54C8.60001 11.72 8.60001 12.27 8.99001 12.45L10.74 13.24L11.53 15C11.71 15.39 12.26 15.39 12.44 15L13.23 13.25L14.99 12.46C15.38 12.28 15.38 11.73 14.99 11.55L13.24 10.75ZM17.93 6.06L17.33 4.74C17.2 4.45 16.78 4.45 16.64 4.74L16.04 6.06L14.72 6.66C14.43 6.79 14.43 7.21 14.72 7.35L16.04 7.95L16.64 9.27C16.77 9.56 17.19 9.56 17.33 9.27L17.93 7.95L19.25 7.35C19.54 7.22 19.54 6.8 19.25 6.66L17.93 6.06Z" fill="currentColor"/>
</svg>
