<svg  viewBox="0 0 24 24" fill="none" xmlns="http://www.w3.org/2000/svg">
<path d="M21.0863 21.3043C21.4763 20.9143 21.4763 20.2843 21.0863 19.8943L4.10631 2.9143C3.71631 2.5243 3.08631 2.5243 2.69631 2.9143C2.30631 3.3043 2.30631 3.9343 2.69631 4.3243L3.59631 5.2343V18.4043C3.59631 19.5043 4.49631 20.4043 5.59631 20.4043H18.7663L19.6663 21.3043C20.0563 21.6943 20.6863 21.6943 21.0863 21.3043ZM8.84631 18.4043H5.59631V7.2343L7.59631 9.2343V12.9043C7.59631 13.4543 8.04631 13.9043 8.59631 13.9043H8.84631V18.4043ZM10.3463 18.4043V13.9043H10.5963C11.0563 13.9043 11.4163 13.5943 11.5363 13.1743L14.8463 16.4843V18.4043H10.3463ZM11.5963 7.5743L6.42631 2.4043H19.5963C20.6963 2.4043 21.5963 3.3043 21.5963 4.4043V17.5743L19.5963 15.5743V4.4043H17.5963V12.9043C17.5963 13.0943 17.5263 13.2643 17.4363 13.4143L13.5963 9.5743V4.4043H11.5963V7.5743Z" fill="currentColor"/>
</svg>
