<svg width="24" height="24" viewBox="0 0 24 24" fill="none" xmlns="http://www.w3.org/2000/svg">
<path d="M18 7.01001H12C11.45 7.01001 11 7.46001 11 8.01001V12.01C11 12.56 11.45 13.01 12 13.01H18C18.55 13.01 19 12.56 19 12.01V8.01001C19 7.46001 18.55 7.01001 18 7.01001ZM21 3.01001H3C1.9 3.01001 1 3.91001 1 5.01001V19.01C1 20.11 1.9 20.99 3 20.99H21C22.1 20.99 23 20.11 23 19.01V5.01001C23 3.91001 22.1 3.01001 21 3.01001ZM20 19.02H4C3.45 19.02 3 18.57 3 18.02V5.99001C3 5.44001 3.45 4.99001 4 4.99001H20C20.55 4.99001 21 5.44001 21 5.99001V18.02C21 18.57 20.55 19.02 20 19.02Z" fill="black"/>
</svg>
