<svg  viewBox="0 0 24 24" fill="none" xmlns="http://www.w3.org/2000/svg">
<path d="M11.083 3.1802V20.8202C11.083 21.4602 10.493 21.9402 9.87298 21.8002C5.40298 20.8002 2.08298 16.7902 2.08298 12.0002C2.08298 7.2102 5.40298 3.2002 9.87298 2.2002C10.493 2.0602 11.083 2.5402 11.083 3.1802ZM13.113 3.1802V9.9902C13.113 10.5402 13.563 10.9902 14.113 10.9902H20.903C21.543 10.9902 22.023 10.4002 21.883 9.7702C21.033 6.0102 18.083 3.0502 14.333 2.2002C13.703 2.0602 13.113 2.5402 13.113 3.1802ZM13.113 14.0102V20.8202C13.113 21.4602 13.703 21.9402 14.333 21.8002C18.093 20.9502 21.043 17.9802 21.893 14.2202C22.033 13.6002 21.543 13.0002 20.913 13.0002H14.123C13.563 13.0102 13.113 13.4602 13.113 14.0102Z" fill="currentColor"/>
</svg>
