<svg width="24" height="24" viewBox="0 0 24 24" fill="none" xmlns="http://www.w3.org/2000/svg">
<path d="M8.20024 17.43C8.20024 16.78 8.80024 16.3 9.44024 16.44L13.0002 17.24V6.5C13.0002 5.67 13.6702 5 14.5002 5C15.3302 5 16.0002 5.67 16.0002 6.5V12.5H16.9102C17.2202 12.5 17.5302 12.57 17.8002 12.71L21.8902 14.75C22.6602 15.13 23.1002 15.97 22.9802 16.82L22.3502 21.28C22.2102 22.27 21.3602 23 20.3702 23H14.2102C13.6802 23 12.9202 22.79 12.5502 22.41L8.48024 18.12C8.30024 17.94 8.20024 17.69 8.20024 17.43ZM9.50024 5.25C9.50024 5.66 9.84024 6 10.2502 6C10.6602 6 11.0002 5.66 11.0002 5.25V2C11.0002 1.45 10.5502 1 10.0002 1H6.75024C6.34024 1 6.00024 1.34 6.00024 1.75C6.00024 2.16 6.34024 2.5 6.75024 2.5H8.44024L2.50024 8.44V6.75C2.50024 6.34 2.16024 6 1.75024 6C1.34024 6 1.00024 6.34 1.00024 6.75V10C1.00024 10.55 1.45024 11 2.00024 11H5.25024C5.66024 11 6.00024 10.66 6.00024 10.25C6.00024 9.84 5.66024 9.5 5.25024 9.5H3.56024L9.50024 3.56V5.25Z" fill="black"/>
</svg>
