<svg  viewBox="0 0 24 24" fill="none" xmlns="http://www.w3.org/2000/svg">
<path d="M20.8542 4.85156C20.8542 3.75156 19.9542 2.85156 18.8542 2.85156H9.85425V7.85156H20.8542V4.85156Z" fill="currentColor"/>
<path d="M2.85425 18.8516C2.85425 19.9516 3.75425 20.8516 4.85425 20.8516H7.85425V9.85156H2.85425V18.8516Z" fill="currentColor"/>
<path d="M2.85425 4.85156V7.85156H7.85425V2.85156H4.85425C3.75425 2.85156 2.85425 3.75156 2.85425 4.85156Z" fill="currentColor"/>
<path d="M17.5042 9.20156L14.7142 11.9916C14.3942 12.3116 14.6142 12.8516 15.0642 12.8516H16.8542V14.8516C16.8542 15.9516 15.9542 16.8516 14.8542 16.8516H12.8542V15.0616C12.8542 14.6116 12.3142 14.3916 12.0042 14.7116L9.21425 17.5016C9.01425 17.7016 9.01425 18.0116 9.21425 18.2116L12.0042 21.0016C12.3142 21.3116 12.8542 21.0916 12.8542 20.6516V18.8516H14.8542C17.0642 18.8516 18.8542 17.0616 18.8542 14.8516V12.8516H20.6442C21.0942 12.8516 21.3142 12.3116 20.9942 12.0016L18.2042 9.21156C18.0142 9.01156 17.6942 9.01156 17.5042 9.20156Z" fill="currentColor"/>
</svg>
