<svg  viewBox="0 0 24 24" fill="none" xmlns="http://www.w3.org/2000/svg">
<path d="M15.4463 16.5195L12.4363 13.5095C12.3263 13.3995 12.1963 13.3795 12.1263 13.3795C12.0563 13.3795 11.9263 13.3995 11.8163 13.5095L8.79628 16.5295C8.45628 16.8695 7.92628 17.4195 6.15628 17.4195L9.86628 21.1195C11.0363 22.2895 12.9363 22.2895 14.1063 21.1195L17.8263 17.4095C16.9163 17.4095 16.1563 17.2295 15.4463 16.5195Z" fill="currentColor"/>
<path d="M8.79628 7.46945L11.8163 10.4895C11.8963 10.5695 12.0163 10.6195 12.1263 10.6195C12.2363 10.6195 12.3563 10.5695 12.4363 10.4895L15.4263 7.49945C16.1363 6.75945 16.9463 6.58945 17.8563 6.58945L14.1363 2.87945C12.9663 1.70945 11.0663 1.70945 9.89628 2.87945L6.18628 6.57945C7.94628 6.57945 8.48628 7.15945 8.79628 7.46945Z" fill="currentColor"/>
<path d="M21.1063 9.84945L18.8563 7.58945H17.5963C17.0563 7.58945 16.5163 7.80945 16.1463 8.19945L13.1463 11.1995C12.8663 11.4795 12.4963 11.6195 12.1263 11.6195C11.7663 11.6195 11.3863 11.4695 11.1063 11.1995L8.08628 8.16945C7.70628 7.78945 7.18628 7.56945 6.63628 7.56945H5.16628L2.87628 9.86945C1.70628 11.0395 1.70628 12.9395 2.87628 14.1095L5.16628 16.4095H6.64628C7.18628 16.4095 7.70628 16.1895 8.09628 15.8095L11.1163 12.7895C11.3963 12.5095 11.7663 12.3695 12.1363 12.3695C12.5063 12.3695 12.8763 12.5095 13.1563 12.7895L16.1663 15.7995C16.5463 16.1795 17.0663 16.3995 17.6163 16.3995H18.8763L21.1263 14.1395C22.2963 12.9595 22.2963 11.0395 21.1063 9.84945Z" fill="currentColor"/>
</svg>
