<svg  viewBox="0 0 24 24" fill="none" xmlns="http://www.w3.org/2000/svg">
<path d="M2.80999 2.81008C2.41999 3.20008 2.41999 3.83008 2.80999 4.22008L8.70999 10.1201V16.4701C8.70999 17.2601 9.57999 17.7401 10.25 17.3101L13.7 15.1101L19.78 21.1901C20.17 21.5801 20.8 21.5801 21.19 21.1901C21.58 20.8001 21.58 20.1701 21.19 19.7801L4.21999 2.81008C3.82999 2.42008 3.19999 2.42008 2.80999 2.81008ZM18.39 12.1401C19.01 11.7501 19.01 10.8501 18.39 10.4501L10.25 5.28008C9.97999 5.11008 9.67999 5.09008 9.40999 5.17008L17.16 12.9201L18.39 12.1401Z" fill="currentColor"/>
</svg>
