<svg width="24" height="24" viewBox="0 0 24 24" fill="none" xmlns="http://www.w3.org/2000/svg">
<path d="M17 10.5C17.34 10.5 17.67 10.53 18 10.58V3.5C18 2.4 17.1 1.5 16 1.5H4C2.9 1.5 2 2.4 2 3.5V19.5C2 20.6 2.9 21.5 4 21.5H11.26C10.47 20.37 10 18.99 10 17.5C10 13.63 13.13 10.5 17 10.5ZM6.76 10.05C6.42 10.25 6 10.01 6 9.62V3.5H11V9.62C11 10.01 10.58 10.25 10.24 10.05L8.5 9L6.76 10.05Z" fill="black"/>
<path d="M17 12.5C14.24 12.5 12 14.74 12 17.5C12 20.26 14.24 22.5 17 22.5C19.76 22.5 22 20.26 22 17.5C22 14.74 19.76 12.5 17 12.5ZM15.75 19.1V15.9C15.75 15.51 16.18 15.27 16.51 15.48L19.07 17.08C19.38 17.28 19.38 17.73 19.07 17.93L16.51 19.53C16.18 19.73 15.75 19.49 15.75 19.1Z" fill="black"/>
</svg>
