<svg width="24" height="24" viewBox="0 0 24 24" fill="none" xmlns="http://www.w3.org/2000/svg">
<path d="M5.73499 9.19385H15.735C16.285 9.19385 16.735 9.64385 16.735 10.1938C16.735 10.7438 16.285 11.1938 15.735 11.1938H5.73499C5.18499 11.1938 4.73499 10.7438 4.73499 10.1938C4.73499 9.64385 5.18499 9.19385 5.73499 9.19385ZM5.73499 5.19385H15.735C16.285 5.19385 16.735 5.64385 16.735 6.19385C16.735 6.74385 16.285 7.19385 15.735 7.19385H5.73499C5.18499 7.19385 4.73499 6.74385 4.73499 6.19385C4.73499 5.64385 5.18499 5.19385 5.73499 5.19385ZM5.73499 13.1938H11.735C12.285 13.1938 12.735 13.6438 12.735 14.1938C12.735 14.7438 12.285 15.1938 11.735 15.1938H5.73499C5.18499 15.1938 4.73499 14.7438 4.73499 14.1938C4.73499 13.6438 5.18499 13.1938 5.73499 13.1938ZM14.735 14.0738V18.3038C14.735 18.6938 15.155 18.9338 15.495 18.7338L19.025 16.6138C19.345 16.4238 19.345 15.9538 19.025 15.7538L15.495 13.6338C15.155 13.4438 14.735 13.6838 14.735 14.0738Z" fill="black"/>
</svg>
