<svg width="24" height="24" viewBox="0 0 24 24" fill="none" xmlns="http://www.w3.org/2000/svg">
<path d="M12.7037 9.20361H2.70374C2.15374 9.20361 1.70374 9.65361 1.70374 10.2036C1.70374 10.7536 2.15374 11.2036 2.70374 11.2036H12.7037C13.2537 11.2036 13.7037 10.7536 13.7037 10.2036C13.7037 9.65361 13.2537 9.20361 12.7037 9.20361ZM12.7037 5.20361H2.70374C2.15374 5.20361 1.70374 5.65361 1.70374 6.20361C1.70374 6.75361 2.15374 7.20361 2.70374 7.20361H12.7037C13.2537 7.20361 13.7037 6.75361 13.7037 6.20361C13.7037 5.65361 13.2537 5.20361 12.7037 5.20361ZM2.70374 15.2036H8.70374C9.25374 15.2036 9.70374 14.7536 9.70374 14.2036C9.70374 13.6536 9.25374 13.2036 8.70374 13.2036H2.70374C2.15374 13.2036 1.70374 13.6536 1.70374 14.2036C1.70374 14.7536 2.15374 15.2036 2.70374 15.2036ZM21.9137 11.4136L22.0037 11.5036C22.3937 11.8936 22.3937 12.5236 22.0037 12.9136L16.4237 18.5036C16.0337 18.8936 15.4037 18.8936 15.0137 18.5036L11.9237 15.4136C11.5337 15.0236 11.5337 14.3936 11.9237 14.0036L12.0137 13.9136C12.4037 13.5236 13.0337 13.5236 13.4237 13.9136L15.7237 16.2136L20.5037 11.4236C20.8837 11.0236 21.5237 11.0236 21.9137 11.4136Z" fill="black"/>
</svg>
