<svg  viewBox="0 0 24 24" fill="none" xmlns="http://www.w3.org/2000/svg">
<path d="M11 5.5V10.09H8.70995C8.25995 10.09 8.03995 10.63 8.35995 10.94L11.65 14.23C11.85 14.43 12.16 14.43 12.36 14.23L15.65 10.94C15.96 10.63 15.74 10.09 15.3 10.09H13V5.5C13 4.95 12.55 4.5 12 4.5C11.45 4.5 11 4.95 11 5.5ZM7.09995 13.5C6.48995 13.5 5.98995 14.05 6.10995 14.65C6.64995 17.41 9.07995 19.5 12 19.5C14.92 19.5 17.35 17.41 17.89 14.65C18.01 14.05 17.51 13.5 16.9 13.5C16.41 13.5 16.02 13.85 15.92 14.33C15.53 16.14 13.93 17.5 12 17.5C10.07 17.5 8.46995 16.14 8.08995 14.33C7.98995 13.85 7.58995 13.5 7.09995 13.5Z" fill="currentColor"/>
</svg>
