<svg  viewBox="0 0 24 24" fill="none" xmlns="http://www.w3.org/2000/svg">
<path d="M9.5 8.36477C8.95 8.36477 8.5 8.81477 8.5 9.36477V12.3648H5.5C4.95 12.3648 4.5 12.8148 4.5 13.3648C4.5 13.9148 4.95 14.3648 5.5 14.3648H8.5V17.3648C8.5 17.9148 8.95 18.3648 9.5 18.3648C10.05 18.3648 10.5 17.9148 10.5 17.3648V14.3648H13.5C14.05 14.3648 14.5 13.9148 14.5 13.3648C14.5 12.8148 14.05 12.3648 13.5 12.3648H10.5V9.36477C10.5 8.81477 10.05 8.36477 9.5 8.36477ZM15 7.15477C15 7.72477 15.52 8.15477 16.08 8.04477L17.5 7.76477V17.3648C17.5 17.9148 17.95 18.3648 18.5 18.3648C19.05 18.3648 19.5 17.9148 19.5 17.3648V6.63477C19.5 5.98477 18.9 5.51477 18.27 5.66477L15.7 6.28477C15.29 6.37477 15 6.74477 15 7.15477Z" fill="currentColor"/>
</svg>
