<svg  viewBox="0 0 24 24" fill="none" xmlns="http://www.w3.org/2000/svg">
<path d="M21 6.20625C21 5.41625 20.53 4.69625 19.81 4.37625L12.81 1.26625C12.29 1.03625 11.7 1.03625 11.19 1.26625L4.19 4.37625C3.47 4.69625 3 5.41625 3 6.20625V10.9062C3 16.4563 6.84 21.6462 12 22.9062C14.3 22.3463 16.33 21.0063 17.88 19.1963L14.76 16.0763C12.82 17.3662 10.18 17.1462 8.47 15.4362C6.52 13.4862 6.52 10.3162 8.47 8.36625C10.42 6.41625 13.59 6.41625 15.54 8.36625C17.25 10.0763 17.46 12.7162 16.18 14.6562L19.08 17.5562C20.29 15.5962 21 13.2863 21 10.9062V6.20625Z" fill="currentColor"/>
<path d="M12 14.9062C13.6569 14.9062 15 13.5631 15 11.9062C15 10.2494 13.6569 8.90625 12 8.90625C10.3431 8.90625 9 10.2494 9 11.9062C9 13.5631 10.3431 14.9062 12 14.9062Z" fill="currentColor"/>
</svg>
