<svg  viewBox="0 0 24 24" fill="none" xmlns="http://www.w3.org/2000/svg">
<path d="M2.71 3.52898C2.32 3.91898 2.32 4.54898 2.71 4.93898L4.1 6.32898C2.79 8.02898 2 10.149 2 12.459C2 15.759 3.6 18.679 6.06 20.499C6.54 20.849 7.22 20.709 7.52 20.189C7.77 19.759 7.66 19.199 7.26 18.899C5.29 17.439 4 15.109 4 12.459C4 10.699 4.57 9.07898 5.53 7.76898L6.96 9.20898C6.36 10.139 6 11.259 6 12.459C6 14.259 6.8 15.869 8.06 16.969C8.52 17.369 9.25 17.219 9.56 16.689L9.57 16.679C9.81 16.259 9.7 15.739 9.34 15.419C8.52 14.689 8 13.639 8 12.459C8 11.809 8.17 11.209 8.44 10.669L10.02 12.249L10 12.459C10 13.559 10.9 14.459 12 14.459L12.21 14.439L19.02 21.249C19.41 21.639 20.04 21.639 20.43 21.249C20.82 20.859 20.82 20.229 20.43 19.839L4.13 3.52898C3.74 3.13898 3.1 3.13898 2.71 3.52898ZM17.71 14.279C17.89 13.709 18 13.089 18 12.459C18 9.14898 15.31 6.45898 12 6.45898C11.37 6.45898 10.75 6.56898 10.18 6.74898L11.9 8.46898C11.93 8.46898 11.96 8.45898 12 8.45898C14.21 8.45898 16 10.249 16 12.459C16 12.499 15.99 12.529 15.99 12.569L17.71 14.279ZM12 4.45898C16.42 4.45898 20 8.03898 20 12.459C20 13.659 19.71 14.779 19.23 15.809L20.72 17.299C21.53 15.859 22 14.219 22 12.459C22 6.93898 17.52 2.45898 12 2.45898C10.24 2.45898 8.6 2.93898 7.16 3.73898L8.64 5.21898C9.66 4.73898 10.8 4.45898 12 4.45898Z" fill="currentColor"/>
</svg>
