<svg width="24" height="24" viewBox="0 0 24 24" fill="none" xmlns="http://www.w3.org/2000/svg">
<path d="M17.5 12.5C16.95 12.5 16.5 12.95 16.5 13.5V18.72C16.5 19.27 16.05 19.72 15.5 19.72H5.5C4.95 19.72 4.5 19.27 4.5 18.72V8.5C4.5 7.95 4.95 7.5 5.5 7.5H10.5C11.05 7.5 11.5 7.05 11.5 6.5C11.5 5.95 11.05 5.5 10.5 5.5H4.5C3.4 5.5 2.5 6.4 2.5 7.5V19.5C2.5 20.6 3.4 21.5 4.5 21.5H16.5C17.6 21.5 18.5 20.6 18.5 19.5V13.5C18.5 12.95 18.05 12.5 17.5 12.5Z" fill="black"/>
<path d="M20.52 5.5H18.5V3.48C18.5 2.94 18.06 2.5 17.52 2.5H17.49C16.94 2.5 16.5 2.94 16.5 3.48V5.5H14.49C13.95 5.5 13.51 5.94 13.5 6.48C13.5 6.49 13.5 6.5 13.5 6.51C13.5 7.06 13.94 7.5 14.49 7.5H16.5V9.51C16.5 10.05 16.94 10.5 17.49 10.49C17.5 10.49 17.51 10.49 17.52 10.49C18.06 10.49 18.5 10.05 18.5 9.51V7.5H20.52C21.06 7.5 21.5 7.06 21.5 6.52V6.48C21.5 5.94 21.06 5.5 20.52 5.5Z" fill="black"/>
<path d="M13.5 9.5H7.5C6.95 9.5 6.5 9.95 6.5 10.5C6.5 11.05 6.95 11.5 7.5 11.5H13.5C14.05 11.5 14.5 11.05 14.5 10.5C14.5 9.95 14.05 9.5 13.5 9.5Z" fill="black"/>
<path d="M13.5 12.5H7.5C6.95 12.5 6.5 12.95 6.5 13.5C6.5 14.05 6.95 14.5 7.5 14.5H13.5C14.05 14.5 14.5 14.05 14.5 13.5C14.5 12.95 14.05 12.5 13.5 12.5Z" fill="black"/>
<path d="M13.5 15.5H7.5C6.95 15.5 6.5 15.95 6.5 16.5C6.5 17.05 6.95 17.5 7.5 17.5H13.5C14.05 17.5 14.5 17.05 14.5 16.5C14.5 15.95 14.05 15.5 13.5 15.5Z" fill="black"/>
</svg>
