<svg  viewBox="0 0 24 24" fill="none" xmlns="http://www.w3.org/2000/svg">
<path d="M2.5 10C2.5 10.55 2.95 11 3.5 11H20.5C21.05 11 21.5 10.55 21.5 10C21.5 9.45 21.05 9 20.5 9H3.5C2.95 9 2.5 9.45 2.5 10ZM3.5 15H6.5C7.05 15 7.5 14.55 7.5 14C7.5 13.45 7.05 13 6.5 13H3.5C2.95 13 2.5 13.45 2.5 14C2.5 14.55 2.95 15 3.5 15ZM10.5 15H13.5C14.05 15 14.5 14.55 14.5 14C14.5 13.45 14.05 13 13.5 13H10.5C9.95 13 9.5 13.45 9.5 14C9.5 14.55 9.95 15 10.5 15ZM17.5 15H20.5C21.05 15 21.5 14.55 21.5 14C21.5 13.45 21.05 13 20.5 13H17.5C16.95 13 16.5 13.45 16.5 14C16.5 14.55 16.95 15 17.5 15Z" fill="currentColor"/>
</svg>
