<svg width="24" height="24" viewBox="0 0 24 24" fill="none" xmlns="http://www.w3.org/2000/svg">
<path d="M12.0018 3.00269C11.4518 3.00269 11.0018 3.45269 11.0018 4.00269V12.0027C11.0018 12.5527 11.4518 13.0027 12.0018 13.0027C12.5518 13.0027 13.0018 12.5527 13.0018 12.0027V4.00269C13.0018 3.45269 12.5518 3.00269 12.0018 3.00269ZM17.1418 5.86269C16.7518 6.25269 16.7618 6.86269 17.1318 7.25269C18.2618 8.45269 18.9618 10.0527 19.0018 11.8227C19.0918 15.6527 15.9218 18.9527 12.0918 18.9927C8.18179 19.0527 5.00179 15.9027 5.00179 12.0027C5.00179 10.1627 5.71179 8.49269 6.87179 7.24269C7.24179 6.85269 7.24179 6.24269 6.86179 5.86269C6.46179 5.46269 5.81179 5.47269 5.43179 5.88269C3.98179 7.42269 3.07179 9.47269 3.00179 11.7427C2.86179 16.6227 6.83179 20.8427 11.7118 20.9927C16.8118 21.1527 21.0018 17.0627 21.0018 11.9927C21.0018 9.62269 20.0818 7.48269 18.5818 5.88269C18.2018 5.47269 17.5418 5.46269 17.1418 5.86269Z" fill="black"/>
</svg>
