<svg viewBox="0 0 24 24" fill="none" xmlns="http://www.w3.org/2000/svg">
<path d="M18.215 13.3729V8.70289C18.215 7.70289 17.205 6.70289 16.215 6.71289V3.71289C16.215 3.16289 15.765 2.71289 15.215 2.71289C14.665 2.71289 14.215 3.16289 14.215 3.71289V6.71289H10.335L17.965 14.3429C18.115 14.0429 18.215 13.7129 18.215 13.3729ZM10.215 3.71289C10.215 3.16289 9.76503 2.71289 9.21503 2.71289C8.66503 2.71289 8.21503 3.16289 8.21503 3.71289V4.59289L10.215 6.59289V3.71289ZM20.365 19.5729L5.04503 4.25289C4.65503 3.86289 4.02503 3.86289 3.63503 4.25289C3.24503 4.64289 3.24503 5.27289 3.63503 5.66289L6.26503 8.29289C6.23503 8.42289 6.21503 8.56289 6.21503 8.70289V13.3629C6.21503 13.8929 6.42503 14.4029 6.79503 14.7729L9.71503 17.7129V19.7129C9.71503 20.2629 10.165 20.7129 10.715 20.7129H13.715C14.265 20.7129 14.715 20.2629 14.715 19.7129V17.7129L15.195 17.2329L18.955 20.9929C19.345 21.3829 19.975 21.3829 20.365 20.9929C20.755 20.6029 20.755 19.9629 20.365 19.5729Z" fill="currentColor"/>
</svg>
