<svg  viewBox="0 0 24 24" fill="none" xmlns="http://www.w3.org/2000/svg">
<path d="M19.9299 8.66683L16.3299 10.3468L13.9999 8.01683V6.61683L16.3299 4.28683L19.9299 5.96683C20.3099 6.14683 20.7499 5.97683 20.9299 5.60683C21.1099 5.22683 20.9399 4.78683 20.5699 4.60683L16.6499 2.77683C16.2699 2.59683 15.8199 2.67683 15.5199 2.97683L13.7799 4.71683C13.5999 4.47683 13.3199 4.31683 12.9999 4.31683C12.4499 4.31683 11.9999 4.76683 11.9999 5.31683V6.31683H8.81985C8.33985 4.97683 6.95985 4.06683 5.39985 4.37683C4.22985 4.60683 3.26985 5.56683 3.04985 6.73683C2.79985 8.07683 3.44985 9.27683 4.47985 9.89683L7.07985 18.3168H5.49985C4.66985 18.3168 3.99985 18.9868 3.99985 19.8168C3.99985 20.6468 4.66985 21.3168 5.49985 21.3168H15.4999C16.3299 21.3168 16.9999 20.6468 16.9999 19.8168C16.9999 18.9868 16.3299 18.3168 15.4999 18.3168H13.3799L8.40985 9.08683C8.57985 8.84683 8.71985 8.59683 8.81985 8.31683H11.9999V9.31683C11.9999 9.86683 12.4499 10.3168 12.9999 10.3168C13.3199 10.3168 13.5999 10.1568 13.7799 9.91683L15.5199 11.6568C15.8199 11.9568 16.2699 12.0368 16.6499 11.8568L20.5699 10.0268C20.9499 9.84683 21.1099 9.40683 20.9299 9.02683C20.7499 8.65683 20.3099 8.48683 19.9299 8.66683ZM5.99985 8.31683C5.44985 8.31683 4.99985 7.86683 4.99985 7.31683C4.99985 6.76683 5.44985 6.31683 5.99985 6.31683C6.54985 6.31683 6.99985 6.76683 6.99985 7.31683C6.99985 7.86683 6.54985 8.31683 5.99985 8.31683Z" fill="currentColor"/>
</svg>
