<svg width="24" height="24" viewBox="0 0 24 24" fill="none" xmlns="http://www.w3.org/2000/svg">
<path d="M10.7037 13.209V9.20898C10.7037 8.65898 10.2537 8.20898 9.70374 8.20898H5.70374V6.20898H9.70374C10.2537 6.20898 10.7037 5.75898 10.7037 5.20898C10.7037 4.65898 10.2537 4.20898 9.70374 4.20898H8.20374C8.20374 3.65898 7.75374 3.20898 7.20374 3.20898C6.65374 3.20898 6.20374 3.65898 6.20374 4.20898H4.70374C4.15374 4.20898 3.70374 4.65898 3.70374 5.20898V9.20898C3.70374 9.75898 4.15374 10.209 4.70374 10.209H8.70374V12.209H4.70374C4.15374 12.209 3.70374 12.659 3.70374 13.209C3.70374 13.759 4.15374 14.209 4.70374 14.209H6.20374C6.20374 14.759 6.65374 15.209 7.20374 15.209C7.75374 15.209 8.20374 14.759 8.20374 14.209H9.70374C10.2537 14.209 10.7037 13.759 10.7037 13.209Z" fill="black"/>
<path d="M18.5837 13.429L13.6337 18.379L11.5137 16.259C11.1237 15.869 10.4937 15.869 10.1037 16.259C9.71374 16.649 9.71374 17.279 10.1037 17.669L12.9337 20.499C13.3237 20.889 13.9537 20.889 14.3437 20.499L20.0037 14.839C20.3937 14.449 20.3937 13.819 20.0037 13.429C19.6037 13.039 18.9737 13.039 18.5837 13.429Z" fill="black"/>
</svg>
