<svg  viewBox="0 0 24 24" fill="none" xmlns="http://www.w3.org/2000/svg">
<path d="M2.91124 1.53518C2.52124 1.14518 1.89124 1.14518 1.50124 1.53518C1.11124 1.92518 1.11124 2.55518 1.50124 2.94518L5.77124 7.21518C4.12124 7.22518 2.79124 8.56518 2.79124 10.2152V14.2152C2.79124 15.3152 3.69124 16.2152 4.79124 16.2152H6.79124V18.2152C6.79124 19.3152 7.69124 20.2152 8.79124 20.2152H16.7912C17.3412 20.2152 17.8312 19.9952 18.1912 19.6352L21.0212 22.4652C21.4112 22.8552 22.0412 22.8552 22.4312 22.4652C22.8212 22.0752 22.8212 21.4452 22.4312 21.0552L2.91124 1.53518ZM15.7912 18.2152H9.79124C9.24124 18.2152 8.79124 17.7652 8.79124 17.2152V13.2152H11.7712L16.4912 17.9352C16.3012 18.1052 16.0612 18.2152 15.7912 18.2152ZM19.7912 7.21518H11.4212L20.4212 16.2152H20.7912C21.8912 16.2152 22.7912 15.3152 22.7912 14.2152V10.2152C22.7912 8.55518 21.4512 7.21518 19.7912 7.21518ZM19.7912 11.2152C19.2412 11.2152 18.7912 10.7652 18.7912 10.2152C18.7912 9.66518 19.2412 9.21518 19.7912 9.21518C20.3412 9.21518 20.7912 9.66518 20.7912 10.2152C20.7912 10.7652 20.3412 11.2152 19.7912 11.2152ZM17.7912 6.21518C18.3412 6.21518 18.7912 5.76518 18.7912 5.21518V3.21518C18.7912 2.66518 18.3412 2.21518 17.7912 2.21518H7.79124C7.42124 2.21518 7.11124 2.42518 6.94124 2.72518L10.4212 6.21518H17.7912Z" fill="currentColor"/>
</svg>
