<svg width="24" height="24" viewBox="0 0 24 24" fill="none" xmlns="http://www.w3.org/2000/svg">
<path d="M4.19 4.37625C3.47 4.69625 3 5.41625 3 6.20625V10.9062C3 16.4563 6.84 21.6462 12 22.9062C17.16 21.6462 21 16.4563 21 10.9062V6.20625C21 5.41625 20.53 4.69625 19.81 4.37625L12.81 1.26625C12.29 1.03625 11.7 1.03625 11.19 1.26625L4.19 4.37625ZM12 6.90625C12.55 6.90625 13 7.35625 13 7.90625C13 8.45625 12.55 8.90625 12 8.90625C11.45 8.90625 11 8.45625 11 7.90625C11 7.35625 11.45 6.90625 12 6.90625ZM12 10.9062C12.55 10.9062 13 11.3562 13 11.9062V15.9062C13 16.4563 12.55 16.9062 12 16.9062C11.45 16.9062 11 16.4563 11 15.9062V11.9062C11 11.3562 11.45 10.9062 12 10.9062Z" fill="black"/>
</svg>
