<svg width="24" height="24" viewBox="0 0 24 24" fill="none" xmlns="http://www.w3.org/2000/svg">
<path d="M13.1726 10.5C12.6226 10.5 12.1726 10.05 12.1726 9.5C12.1726 8.95 12.6226 8.5 13.1726 8.5C13.7226 8.5 14.1726 8.95 14.1726 9.5C14.1726 10.05 13.7226 10.5 13.1726 10.5ZM13.1726 6.5C12.6226 6.5 12.1726 6.05 12.1726 5.5V2.5C12.1726 1.95 12.6226 1.5 13.1726 1.5C13.7226 1.5 14.1726 1.95 14.1726 2.5V5.5C14.1726 6.05 13.7226 6.5 13.1726 6.5ZM8.17261 18.5C7.07261 18.5 6.18261 19.4 6.18261 20.5C6.18261 21.6 7.07261 22.5 8.17261 22.5C9.27261 22.5 10.1726 21.6 10.1726 20.5C10.1726 19.4 9.27261 18.5 8.17261 18.5ZM18.1726 18.5C17.0726 18.5 16.1826 19.4 16.1826 20.5C16.1826 21.6 17.0726 22.5 18.1726 22.5C19.2726 22.5 20.1726 21.6 20.1726 20.5C20.1726 19.4 19.2726 18.5 18.1726 18.5ZM9.27261 13.5H16.7226C17.4726 13.5 18.1326 13.09 18.4726 12.47L21.7126 6.33C21.9626 5.85 21.7926 5.25 21.3126 4.99C20.8226 4.72 20.2126 4.91 19.9526 5.4L16.7226 11.5H9.70261L5.44261 2.5H3.17261C2.62261 2.5 2.17261 2.95 2.17261 3.5C2.17261 4.05 2.62261 4.5 3.17261 4.5H4.17261L7.77261 12.09L6.42261 14.53C5.69261 15.87 6.65261 17.5 8.17261 17.5H19.1726C19.7226 17.5 20.1726 17.05 20.1726 16.5C20.1726 15.95 19.7226 15.5 19.1726 15.5H8.17261L9.27261 13.5Z" fill="black"/>
</svg>
