<svg  viewBox="0 0 24 24" fill="none" xmlns="http://www.w3.org/2000/svg">
<path d="M12.9988 8.571C12.2088 8.571 11.5688 9.211 11.5688 10.001C11.5688 10.791 12.2088 11.431 12.9988 11.431C13.7888 11.431 14.4288 10.791 14.4288 10.001C14.4288 9.211 13.7888 8.571 12.9988 8.571Z" fill="currentColor"/>
<path d="M13.2088 3.001C9.36876 2.891 6.20876 5.871 6.01876 9.641L4.09876 12.201C3.84876 12.531 4.08876 13.001 4.49876 13.001H5.99876V16.001C5.99876 17.101 6.89876 18.001 7.99876 18.001H8.99876V20.001C8.99876 20.551 9.44876 21.001 9.99876 21.001H14.9988C15.5488 21.001 15.9988 20.551 15.9988 20.001V16.321C18.4388 15.161 20.0988 12.641 19.9988 9.741C19.8588 6.121 16.8188 3.111 13.2088 3.001ZM15.9988 10.001C15.9988 10.131 15.9888 10.261 15.9788 10.391L16.8088 11.051C16.8888 11.111 16.9088 11.211 16.8588 11.301L16.0588 12.691C16.0088 12.781 15.8988 12.811 15.8188 12.781L14.8288 12.381C14.6188 12.541 14.3988 12.671 14.1588 12.771L13.9988 13.831C13.9888 13.931 13.8988 14.001 13.7988 14.001H12.1988C12.0988 14.001 12.0188 13.931 11.9988 13.831L11.8488 12.771C11.5988 12.671 11.3788 12.541 11.1688 12.381L10.1788 12.781C10.0888 12.811 9.97876 12.781 9.92876 12.691L9.12876 11.301C9.07876 11.221 9.09876 11.111 9.17876 11.051L10.0188 10.391C10.0088 10.261 9.99876 10.131 9.99876 10.001C9.99876 9.871 10.0188 9.731 10.0388 9.611L9.18876 8.951C9.10876 8.891 9.08876 8.791 9.13876 8.691L9.93876 7.311C9.98876 7.221 10.0888 7.191 10.1788 7.221L11.1788 7.621C11.3788 7.471 11.6088 7.331 11.8488 7.231L11.9988 6.171C12.0188 6.071 12.0988 6.001 12.1988 6.001H13.7988C13.8988 6.001 13.9788 6.071 13.9988 6.171L14.1488 7.231C14.3888 7.331 14.6088 7.461 14.8188 7.621L15.8188 7.221C15.9088 7.191 16.0188 7.221 16.0588 7.311L16.8588 8.691C16.9088 8.781 16.8888 8.891 16.8088 8.951L15.9588 9.611C15.9888 9.731 15.9988 9.861 15.9988 10.001Z" fill="currentColor"/>
</svg>
