<svg  viewBox="0 0 24 24" fill="none" xmlns="http://www.w3.org/2000/svg">
<path d="M11.0962 8.0743L6.58625 3.5643C8.16625 2.5143 10.0562 1.9043 12.0962 1.9043C17.6162 1.9043 22.0962 6.3843 22.0962 11.9043C22.0962 13.9443 21.4862 15.8343 20.4362 17.4143L18.9762 15.9543C19.6862 14.7743 20.0962 13.3843 20.0962 11.9043C20.0962 8.5543 18.0262 5.6843 15.0962 4.4943V4.9043C15.0962 6.0043 14.1962 6.9043 13.0962 6.9043H11.0962V8.0743ZM20.5862 21.8043C20.1962 22.1943 19.5662 22.1943 19.1762 21.8043L17.6162 20.2443C15.5462 21.6143 12.9362 22.2443 10.1662 21.7243C6.21625 20.9743 3.03625 17.8043 2.28625 13.8443C1.76625 11.0743 2.38625 8.4643 3.76625 6.3943L2.19625 4.8343C1.80625 4.4443 1.80625 3.8143 2.19625 3.4243C2.58625 3.0343 3.21625 3.0343 3.60625 3.4243L20.5762 20.3943C20.9762 20.7843 20.9762 21.4143 20.5862 21.8043ZM11.0962 17.9043C9.99625 17.9043 9.09625 17.0043 9.09625 15.9043V14.9043L4.30625 10.1143C4.17625 10.6943 4.09625 11.2843 4.09625 11.9043C4.09625 15.9843 7.14625 19.3443 11.0962 19.8343V17.9043Z" fill="currentColor"/>
</svg>
