<svg  viewBox="0 0 24 24" fill="none" xmlns="http://www.w3.org/2000/svg">
<path d="M19 6.5H18V3.5C18 2.4 17.1 1.5 16 1.5H8C6.9 1.5 6 2.4 6 3.5V6.5H5C3.9 6.5 3 7.4 3 8.5V20.5C3 21.6 3.9 22.5 5 22.5H19C20.1 22.5 21 21.6 21 20.5V8.5C21 7.4 20.1 6.5 19 6.5ZM8 3.5H16V6.5H8V3.5ZM12 19.5C9.24 19.5 7 17.26 7 14.5C7 11.74 9.24 9.5 12 9.5C14.76 9.5 17 11.74 17 14.5C17 17.26 14.76 19.5 12 19.5Z" fill="currentColor"/>
<path d="M12.5 14.29V12.5C12.5 12.22 12.28 12 12 12C11.72 12 11.5 12.22 11.5 12.5V14.5C11.5 14.63 11.55 14.76 11.65 14.85L12.79 15.99C12.99 16.19 13.3 16.19 13.5 15.99C13.7 15.79 13.7 15.48 13.5 15.28L12.5 14.29Z" fill="currentColor"/>
</svg>
