<svg  viewBox="0 0 24 24" fill="none" xmlns="http://www.w3.org/2000/svg">
<path d="M19.8838 17.96C20.3638 17.19 20.6338 16.29 20.5738 15.3C20.4438 13.15 18.7338 11.33 16.6038 11.1C13.8838 10.8 11.5838 12.91 11.5838 15.57C11.5838 18.06 13.5938 20.07 16.0738 20.07C16.9538 20.07 17.7738 19.81 18.4638 19.37L20.8738 21.78C21.2638 22.17 21.9038 22.17 22.2938 21.78C22.6838 21.39 22.6838 20.75 22.2938 20.36L19.8838 17.96ZM16.0838 18.07C14.7038 18.07 13.5838 16.95 13.5838 15.57C13.5838 14.19 14.7038 13.07 16.0838 13.07C17.4638 13.07 18.5838 14.19 18.5838 15.57C18.5838 16.95 17.4638 18.07 16.0838 18.07ZM15.7238 9.57004C14.9838 9.59004 14.2738 9.75004 13.6238 10.02L13.0738 9.19004L9.99377 14.2C9.63377 14.78 8.82377 14.84 8.38377 14.33L6.26377 11.86L3.20377 16.76C2.89377 17.25 2.23377 17.38 1.76377 17.04C1.34377 16.73 1.22377 16.15 1.50377 15.7L5.28377 9.65004C5.64377 9.08004 6.45377 9.02004 6.89377 9.53004L9.00377 11.99L12.1838 6.82004C12.5638 6.20004 13.4638 6.18004 13.8638 6.79004L15.7238 9.57004ZM18.3138 10.07C17.6738 9.79004 16.9838 9.62004 16.2638 9.58004L20.8038 2.39004C21.1138 1.90004 21.7738 1.78004 22.2338 2.12004C22.6638 2.43004 22.7738 3.02004 22.4938 3.46004L18.3138 10.07Z" fill="currentColor"/>
</svg>
