<svg  viewBox="0 0 24 24" fill="none" xmlns="http://www.w3.org/2000/svg">
<path d="M13.5 5.00146H3.5C2.95 5.00146 2.5 5.45146 2.5 6.00146C2.5 6.55146 2.95 7.00146 3.5 7.00146H13.5C14.05 7.00146 14.5 6.55146 14.5 6.00146C14.5 5.45146 14.05 5.00146 13.5 5.00146ZM13.5 9.00146H3.5C2.95 9.00146 2.5 9.45146 2.5 10.0015C2.5 10.5515 2.95 11.0015 3.5 11.0015H13.5C14.05 11.0015 14.5 10.5515 14.5 10.0015C14.5 9.45146 14.05 9.00146 13.5 9.00146ZM3.5 15.0015H9.5C10.05 15.0015 10.5 14.5515 10.5 14.0015C10.5 13.4515 10.05 13.0015 9.5 13.0015H3.5C2.95 13.0015 2.5 13.4515 2.5 14.0015C2.5 14.5515 2.95 15.0015 3.5 15.0015ZM18.5 5.00146C17.4 5.00146 16.5 5.90146 16.5 7.00146V13.1815C16.19 13.0715 15.85 13.0015 15.5 13.0015C13.66 13.0015 12.22 14.6415 12.55 16.5415C12.76 17.7515 13.75 18.7415 14.96 18.9515C16.86 19.2815 18.5 17.8415 18.5 16.0015V7.00146H20.5C21.05 7.00146 21.5 6.55146 21.5 6.00146C21.5 5.45146 21.05 5.00146 20.5 5.00146H18.5Z" fill="currentColor"/>
</svg>
