<svg width="24" height="24" viewBox="0 0 24 24" fill="none" xmlns="http://www.w3.org/2000/svg">
<path d="M20.7087 2.47119H2.70874C1.60874 2.47119 0.70874 3.37119 0.70874 4.47119V16.4712C0.70874 17.5712 1.60874 18.4712 2.70874 18.4712H7.70874V19.4712C7.70874 20.0212 8.15874 20.4712 8.70874 20.4712H14.7087C15.2587 20.4712 15.7087 20.0212 15.7087 19.4712V18.4712H16.7087C17.2587 18.4712 17.7087 18.0212 17.7087 17.4712C17.7087 16.9212 17.2587 16.4712 16.7087 16.4712H3.70874C3.15874 16.4712 2.70874 16.0212 2.70874 15.4712V5.47119C2.70874 4.92119 3.15874 4.47119 3.70874 4.47119H19.7087C20.2587 4.47119 20.7087 4.92119 20.7087 5.47119V11.4712C20.7087 12.0212 21.1587 12.4712 21.7087 12.4712C22.2587 12.4712 22.7087 12.0212 22.7087 11.4712V4.47119C22.7087 3.37119 21.8087 2.47119 20.7087 2.47119ZM12.7087 9.47119V7.47119C12.7087 6.92119 12.2587 6.47119 11.7087 6.47119C11.1587 6.47119 10.7087 6.92119 10.7087 7.47119V9.47119H8.70874C8.15874 9.47119 7.70874 9.92119 7.70874 10.4712C7.70874 11.0212 8.15874 11.4712 8.70874 11.4712H10.7087V13.4712C10.7087 14.0212 11.1587 14.4712 11.7087 14.4712C12.2587 14.4712 12.7087 14.0212 12.7087 13.4712V11.4712H14.7087C15.2587 11.4712 15.7087 11.0212 15.7087 10.4712C15.7087 9.92119 15.2587 9.47119 14.7087 9.47119H12.7087ZM22.9987 18.1812L19.9587 21.2212C19.5487 21.6312 18.8687 21.6312 18.4587 21.2212C18.0487 20.8112 18.0487 20.1312 18.4587 19.7212L20.7087 17.4712L18.4587 15.2212C18.0487 14.8112 18.0487 14.1312 18.4587 13.7212C18.8687 13.3112 19.5487 13.3112 19.9587 13.7212L22.9987 16.7612C23.3887 17.1512 23.3887 17.7912 22.9987 18.1812Z" fill="black"/>
</svg>
