<svg  viewBox="0 0 24 24" fill="none" xmlns="http://www.w3.org/2000/svg">
<path d="M21.9072 3.90503C21.9072 2.80503 21.0072 1.90503 19.9072 1.90503H3.90717C2.80717 1.90503 1.91717 2.80503 1.91717 3.90503L1.90717 21.905L5.90717 17.905H14.9072V10.905C14.9072 10.355 15.3572 9.90503 15.9072 9.90503H21.9072V3.90503Z" fill="currentColor"/>
<path d="M21.5972 15.905H20.2072L21.6072 12.605C21.7472 12.275 21.5072 11.905 21.1472 11.905H17.4072C17.1272 11.905 16.9072 12.125 16.9072 12.405V17.405C16.9072 17.685 17.1272 17.905 17.4072 17.905H18.9072V21.845C18.9072 22.105 19.2672 22.195 19.3772 21.955L22.0372 16.625C22.2072 16.295 21.9672 15.905 21.5972 15.905Z" fill="currentColor"/>
</svg>
