<svg width="24" height="24" viewBox="0 0 24 24" fill="none" xmlns="http://www.w3.org/2000/svg">
<path d="M3.24 6.51406C2.51 6.79406 2 7.53406 2 8.36406V20.3641C2 21.4641 2.9 22.3641 4 22.3641H20C21.11 22.3641 22 21.4641 22 20.3641V8.36406C22 7.26406 21.1 6.36406 20 6.36406H8.3L15.73 3.36406C16.19 3.17406 16.41 2.65406 16.22 2.19406C16.03 1.73406 15.51 1.51406 15.05 1.70406L3.24 6.51406ZM7 20.3641C5.34 20.3641 4 19.0241 4 17.3641C4 15.7041 5.34 14.3641 7 14.3641C8.66 14.3641 10 15.7041 10 17.3641C10 19.0241 8.66 20.3641 7 20.3641ZM20 12.3641H18V11.3641C18 10.8141 17.55 10.3641 17 10.3641C16.45 10.3641 16 10.8141 16 11.3641V12.3641H4V9.36406C4 8.81406 4.45 8.36406 5 8.36406H19C19.55 8.36406 20 8.81406 20 9.36406V12.3641Z" fill="black"/>
</svg>
