<svg  viewBox="0 0 24 24" fill="none" xmlns="http://www.w3.org/2000/svg">
<path d="M3.5 11.5V8.5H10.79C10.02 5.9 11 3.89 11.16 3.53C2.47 3.17 1.5 5.52 1.5 7.5V17C1.5 18.93 3.07 20.5 5 20.5L3.79 21.31C3.61 21.43 3.5 21.63 3.5 21.85C3.5 22.21 3.79 22.5 4.15 22.5H14.85C15.21 22.5 15.5 22.21 15.5 21.85C15.5 21.63 15.39 21.43 15.21 21.31L14 20.5C15.93 20.5 17.5 18.93 17.5 17V13.5C15.59 13.5 13.87 12.74 12.61 11.5H3.5ZM9.5 17.5C8.67 17.5 8 16.83 8 16C8 15.17 8.67 14.5 9.5 14.5C10.33 14.5 11 15.17 11 16C11 16.83 10.33 17.5 9.5 17.5Z" fill="currentColor"/>
<path d="M17.5 1.5C14.74 1.5 12.5 3.74 12.5 6.5C12.5 9.26 14.74 11.5 17.5 11.5C20.26 11.5 22.5 9.26 22.5 6.5C22.5 3.74 20.26 1.5 17.5 1.5ZM17.5 9.5C17.22 9.5 17 9.28 17 9C17 8.72 17.22 8.5 17.5 8.5C17.78 8.5 18 8.72 18 9C18 9.28 17.78 9.5 17.5 9.5ZM18 7C18 7.28 17.78 7.5 17.5 7.5C17.22 7.5 17 7.28 17 7V4C17 3.72 17.22 3.5 17.5 3.5C17.78 3.5 18 3.72 18 4V7Z" fill="currentColor"/>
</svg>
