<svg  viewBox="0 0 24 24" fill="none" xmlns="http://www.w3.org/2000/svg">
<path d="M21.9644 2.79617C21.9644 2.34617 21.5744 2.00617 21.1344 2.04617L4.85438 3.85617C4.34438 3.90617 3.96438 4.33617 3.96438 4.84617V11.9562H3.04438C2.44438 11.9562 1.96438 12.4862 2.04438 13.0862C2.48438 16.2862 4.79438 18.9562 7.96438 20.2062V20.9562C7.96438 21.5062 8.41438 21.9562 8.96438 21.9562H14.9644C15.5144 21.9562 15.9644 21.5062 15.9644 20.9562V20.2062C19.1344 18.9562 21.4444 16.2862 21.8844 13.0862C21.9644 12.4862 21.4844 11.9562 20.8844 11.9562H10.4644V7.95617H21.2144C21.6244 7.95617 21.9644 7.61617 21.9644 7.20617C21.9644 6.79617 21.6244 6.45617 21.2144 6.45617H10.4644V4.73617L21.2944 3.54617C21.6744 3.49617 21.9644 3.17617 21.9644 2.79617ZM6.46438 5.17617V6.45617H5.46438V5.29617L6.46438 5.17617ZM5.46438 7.95617H6.46438V11.9562H5.46438V7.95617ZM8.96438 11.9562H7.96438V7.95617H8.96438V11.9562ZM8.96438 6.45617H7.96438V5.01617L8.96438 4.90617V6.45617Z" fill="currentColor"/>
</svg>
