<svg viewBox="0 0 24 24" fill="none" xmlns="http://www.w3.org/2000/svg">
<path d="M21.0093 8.29422C20.6793 8.29422 20.3793 8.52422 20.2993 8.84422L19.6993 11.2942L19.1393 9.03422C19.0393 8.59422 18.6493 8.29422 18.1993 8.29422C17.7493 8.29422 17.3593 8.59422 17.2593 9.03422L16.6993 11.2942L16.0993 8.84422C16.0193 8.52422 15.7293 8.29422 15.3893 8.29422C14.9193 8.29422 14.5693 8.73422 14.6793 9.19422L15.1793 11.1842L17.5993 13.6042C17.5993 13.5942 17.6093 13.5842 17.6093 13.5742L18.1893 11.2542L18.7693 13.5742C18.8893 13.9942 19.2693 14.2942 19.6993 14.2942C20.1293 14.2942 20.5093 13.9942 20.6193 13.5742L21.7093 9.19422C21.8293 8.73422 21.4793 8.29422 21.0093 8.29422Z" fill="currentColor"/>
<path d="M3.96935 2.80422C3.57935 2.41422 2.94935 2.41422 2.55935 2.80422C2.16935 3.19422 2.16935 3.82422 2.55935 4.21422L6.62935 8.29422H4.45935C3.90935 8.29422 3.45935 8.74422 3.45935 9.29422V13.6042C3.45935 13.9842 3.76935 14.2942 4.14935 14.2942H4.25935C4.63935 14.2942 4.94935 13.9842 4.94935 13.6042V12.2942H6.04935L6.76935 13.8842C6.88935 14.1342 7.13935 14.2942 7.40935 14.2942C7.90935 14.2942 8.23935 13.7842 8.04935 13.3242L7.55935 12.1942C8.05935 11.8942 8.45935 11.3942 8.45935 10.7942V10.1242L9.88935 11.5542L9.43935 13.3942C9.31935 13.8542 9.66935 14.2942 10.1393 14.2942C10.4693 14.2942 10.7593 14.0642 10.8393 13.7442L11.0793 12.7942H11.1193L19.5193 21.1942C19.9093 21.5842 20.5393 21.5842 20.9293 21.1942C21.3193 20.8042 21.3193 20.1742 20.9293 19.7842L3.96935 2.80422ZM6.95935 10.7942H4.95935V9.79422H6.95935V10.7942Z" fill="currentColor"/>
</svg>
