<svg viewBox="0 0 24 24" fill="none" xmlns="http://www.w3.org/2000/svg">
<path d="M6.36316 9H3.86316C3.31316 9 2.86316 9.45 2.86316 10V14.31C2.86316 14.69 3.17316 15 3.55316 15H3.66316C4.04316 15 4.35316 14.69 4.35316 14.31V13H5.45316L6.17316 14.59C6.29316 14.84 6.54316 15 6.81316 15C7.31316 15 7.64316 14.49 7.45316 14.03L6.96316 12.9C7.46316 12.6 7.86316 12.1 7.86316 11.5V10.5C7.86316 9.68 7.18316 9 6.36316 9ZM6.36316 11.5H4.36316V10.5H6.36316V11.5Z" fill="currentColor"/>
<path d="M11.3632 9C10.6332 9 9.99316 9.5 9.81316 10.21L8.84316 14.1C8.72316 14.56 9.07316 15 9.54316 15C9.87316 15 10.1632 14.77 10.2432 14.45L10.4832 13.5H12.2332L12.4632 14.45C12.5432 14.77 12.8332 15 13.1732 15C13.6432 15 13.9932 14.56 13.8832 14.1L12.9132 10.22C12.7332 9.5 12.0932 9 11.3632 9ZM10.8632 12L11.1132 11H11.6132L11.8632 12H10.8632Z" fill="currentColor"/>
<path d="M19.7032 9.55L19.1032 12L18.5432 9.74C18.4432 9.3 18.0532 9 17.6032 9C17.1532 9 16.7632 9.3 16.6632 9.74L16.1032 12L15.5032 9.55C15.4232 9.23 15.1332 9 14.7932 9C14.3232 9 13.9732 9.44 14.0832 9.9L15.1732 14.28C15.2932 14.7 15.6732 15 16.1032 15C16.5332 15 16.9132 14.7 17.0232 14.28L17.6032 11.96L18.1832 14.28C18.2932 14.7 18.6732 15 19.1032 15C19.5332 15 19.9132 14.7 20.0232 14.28L21.1132 9.9C21.2332 9.44 20.8832 9 20.4132 9C20.0732 9 19.7832 9.23 19.7032 9.55Z" fill="currentColor"/>
</svg>
