<svg  viewBox="0 0 24 24" fill="none" xmlns="http://www.w3.org/2000/svg">
<path d="M9.00183 13.2259C11.211 13.2259 13.0018 11.4351 13.0018 9.22594C13.0018 7.0168 11.211 5.22594 9.00183 5.22594C6.79269 5.22594 5.00183 7.0168 5.00183 9.22594C5.00183 11.4351 6.79269 13.2259 9.00183 13.2259Z" fill="currentColor"/>
<path d="M9.00183 15.2259C6.33183 15.2259 1.00183 16.5659 1.00183 19.2259V20.2259C1.00183 20.7759 1.45183 21.2259 2.00183 21.2259H16.0018C16.5518 21.2259 17.0018 20.7759 17.0018 20.2259V19.2259C17.0018 16.5659 11.6718 15.2259 9.00183 15.2259ZM15.4718 7.99594C15.7918 8.78594 15.7918 9.66594 15.4718 10.4559C15.2818 10.9259 15.3618 11.4559 15.7218 11.8159L15.7518 11.8459C16.3318 12.4259 17.3218 12.3059 17.7018 11.5759C18.4618 10.1259 18.4618 8.42594 17.6818 6.91594C17.3018 6.17594 16.3018 6.03594 15.7118 6.62594L15.7018 6.63594C15.3618 6.98594 15.2818 7.52594 15.4718 7.99594ZM19.1818 3.11594C18.7818 3.51594 18.7218 4.13594 19.0518 4.59594C21.0218 7.33594 21.0118 11.0059 19.0218 13.8459C18.7018 14.2959 18.7718 14.9159 19.1618 15.3059L19.1918 15.3359C19.6818 15.8259 20.5118 15.7859 20.9318 15.2359C23.6818 11.6959 23.6918 6.86594 20.9318 3.21594C20.5118 2.66594 19.6718 2.62594 19.1818 3.11594Z" fill="currentColor"/>
</svg>
