<svg  viewBox="0 0 24 24" fill="none" xmlns="http://www.w3.org/2000/svg">
<path d="M6.30497 7.26156C6.07497 7.12156 5.99497 6.81156 6.13497 6.58156L7.30497 4.63156L8.33497 2.92156C8.72497 2.27156 9.66497 2.27156 10.055 2.92156L11.535 5.38156L10.305 7.44156L9.58497 8.64156C9.42497 8.87156 9.11497 8.95156 8.87497 8.81156L6.30497 7.26156ZM21.825 12.8216L20.485 10.5816C20.345 10.3516 20.045 10.2716 19.805 10.4016L17.205 11.9016C16.965 12.0416 16.885 12.3516 17.025 12.5916L18.975 15.8516H20.065C20.675 15.8516 21.265 15.5916 21.655 15.1216C21.955 14.7516 22.105 14.3016 22.105 13.8516C22.105 13.4916 22.005 13.1416 21.825 12.8216ZM16.105 20.8516H17.605C18.365 20.8516 19.055 20.4216 19.395 19.7416L20.845 16.8516H16.105V16.0616C16.105 15.6116 15.565 15.3916 15.255 15.7116L12.465 18.5016C12.265 18.7016 12.265 19.0116 12.465 19.2116L15.255 22.0016C15.565 22.3116 16.105 22.0916 16.105 21.6516V20.8516ZM9.60497 16.8516H5.80497L4.96497 18.2616C4.66497 18.7616 4.64497 19.3816 4.90497 19.9116C5.18497 20.4816 5.77497 20.8516 6.42497 20.8516H9.60497C9.88497 20.8516 10.105 20.6316 10.105 20.3516V17.3516C10.105 17.0716 9.88497 16.8516 9.60497 16.8516ZM6.22497 14.2016L6.92497 14.6216C7.30497 14.8516 7.77497 14.5016 7.66497 14.0716L6.70497 10.2316C6.64497 9.97156 6.37497 9.80156 6.10497 9.87156L2.27497 10.8316C1.84497 10.9416 1.75497 11.5116 2.13497 11.7416L2.79497 12.1416L2.38497 12.8316C2.03497 13.4216 2.00497 14.1416 2.31497 14.7516L3.94497 18.0116L6.22497 14.2016ZM17.125 4.99156L15.825 2.82156C15.455 2.22156 14.805 1.85156 14.105 1.85156H10.575L13.695 7.05156L13.005 7.46156C12.625 7.69156 12.705 8.27156 13.145 8.37156L16.975 9.33156C17.245 9.40156 17.515 9.23156 17.585 8.97156L18.545 5.14156C18.655 4.71156 18.185 4.36156 17.805 4.59156L17.125 4.99156Z" fill="currentColor"/>
</svg>
