<svg  viewBox="0 0 24 24" fill="none" xmlns="http://www.w3.org/2000/svg">
    <path d="M3.98503 2.81008C3.59503 3.20008 3.59503 3.83008 3.98503 4.22008L13.655 13.8901L12.245 15.3001L8.70503 11.7701C8.31503 11.3801 7.68503 11.3801 7.29503 11.7701C6.90503 12.1601 6.90503 12.7901 7.29503 13.1801L11.535 17.4201C11.925 17.8101 12.555 17.8101 12.945 17.4201L15.065 15.3001L20.955 21.1901C21.345 21.5801 21.975 21.5801 22.365 21.1901C22.755 20.8001 22.755 20.1701 22.365 19.7801L5.39503 2.81008C5.00503 2.42008 4.37503 2.42008 3.98503 2.81008ZM17.895 12.4801L22.135 8.24008C22.525 7.85008 22.525 7.21008 22.125 6.82008C21.735 6.44008 21.105 6.44008 20.715 6.83008L16.475 11.0701L17.895 12.4801ZM16.485 6.82008C16.095 6.43008 15.465 6.43008 15.075 6.82008L13.655 8.24008L15.065 9.65008L16.485 8.23008C16.875 7.84008 16.875 7.21008 16.485 6.82008ZM1.63503 13.1801L6.58503 18.1301L7.99503 16.7201L3.04503 11.7701C2.65503 11.3801 2.02503 11.3801 1.63503 11.7701C1.24503 12.1601 1.24503 12.7901 1.63503 13.1801Z" fill="currentColor" />
</svg>
