<svg  viewBox="0 0 24 24" fill="none" xmlns="http://www.w3.org/2000/svg">
    <path d="M1.27492 1.27004C0.884922 1.66004 0.884922 2.29004 1.27492 2.68004L4.95492 6.36004L7.16492 11.02L5.81492 13.47C5.62492 13.8 5.53492 14.2 5.57492 14.62C5.67492 15.68 6.63492 16.44 7.69492 16.44H15.0249L16.4049 17.82C15.9049 18.18 15.5749 18.77 15.5749 19.44C15.5749 20.54 16.4649 21.44 17.5649 21.44C18.2349 21.44 18.8249 21.11 19.1849 20.6L21.3149 22.73C21.7049 23.12 22.3349 23.12 22.7249 22.73C23.1149 22.34 23.1149 21.71 22.7249 21.32L2.68492 1.27004C2.29492 0.880039 1.66492 0.880039 1.27492 1.27004ZM7.56492 14.44L8.66492 12.44H11.0249L13.0249 14.44H7.56492ZM16.6149 12.38C17.1549 12.24 17.6049 11.89 17.8649 11.41L21.4449 4.92004C21.8149 4.26004 21.3249 3.44004 20.5649 3.44004H7.68492L16.6149 12.38ZM7.56492 17.44C6.46492 17.44 5.57492 18.34 5.57492 19.44C5.57492 20.54 6.46492 21.44 7.56492 21.44C8.66492 21.44 9.56492 20.54 9.56492 19.44C9.56492 18.34 8.66492 17.44 7.56492 17.44Z" fill="currentColor" />
</svg>
