<svg width="24" height="24" viewBox="0 0 24 24" fill="none" xmlns="http://www.w3.org/2000/svg">
<path d="M6.99996 7.00019H17V8.79018C17 9.24018 17.54 9.46019 17.85 9.14019L20.64 6.35018C20.84 6.15018 20.84 5.84018 20.64 5.64018L17.85 2.85018C17.54 2.54018 17 2.76018 17 3.21018V5.00018H5.99996C5.44996 5.00018 4.99996 5.45018 4.99996 6.00018V10.0002C4.99996 10.5502 5.44996 11.0002 5.99996 11.0002C6.54996 11.0002 6.99996 10.5502 6.99996 10.0002V7.00019ZM17 17.0002H6.99996V15.2102C6.99996 14.7602 6.45996 14.5402 6.14996 14.8602L3.35996 17.6502C3.15996 17.8502 3.15996 18.1602 3.35996 18.3602L6.14996 21.1502C6.45996 21.4602 6.99996 21.2402 6.99996 20.7902V19.0002H18C18.55 19.0002 19 18.5502 19 18.0002V14.0002C19 13.4502 18.55 13.0002 18 13.0002C17.45 13.0002 17 13.4502 17 14.0002V17.0002Z" fill="black"/>
</svg>
