<svg width="24" height="24" viewBox="0 0 24 24" fill="none" xmlns="http://www.w3.org/2000/svg">
<path d="M11.9621 5.64261V2.85261C11.9621 2.40261 11.4221 2.18261 11.1121 2.50261L7.31209 6.29261C7.11209 6.49261 7.11209 6.80261 7.31209 7.00261L11.1021 10.7926C11.4221 11.1026 11.9621 10.8826 11.9621 10.4326V7.64261C15.6921 7.64261 18.6421 11.0626 17.8221 14.9326C17.3521 17.2026 15.5121 19.0326 13.2521 19.5026C9.68209 20.2526 6.50209 17.8026 6.02209 14.4926C5.95209 14.0126 5.53209 13.6426 5.04209 13.6426C4.44209 13.6426 3.96209 14.1726 4.04209 14.7726C4.66209 19.1626 8.84209 22.4126 13.5721 21.4926C16.6921 20.8826 19.2021 18.3726 19.8121 15.2526C20.8021 10.1226 16.9021 5.64261 11.9621 5.64261Z" fill="black"/>
</svg>
