<svg width="24" height="24" viewBox="0 0 24 24" fill="none" xmlns="http://www.w3.org/2000/svg">
<path d="M11.9621 5.64261V2.85261C11.9621 2.40261 11.4221 2.18261 11.1121 2.50261L7.31206 6.29261C7.11206 6.49261 7.11206 6.80261 7.31206 7.00261L11.1021 10.7926C11.4221 11.1026 11.9621 10.8826 11.9621 10.4326V7.64261C15.6921 7.64261 18.6421 11.0626 17.8221 14.9326C17.3521 17.2026 15.5121 19.0326 13.2521 19.5026C9.68206 20.2526 6.50206 17.8026 6.02206 14.4926C5.95206 14.0126 5.53206 13.6426 5.04206 13.6426C4.44206 13.6426 3.96206 14.1726 4.04206 14.7726C4.66206 19.1626 8.84206 22.4126 13.5721 21.4926C16.6921 20.8826 19.2021 18.3726 19.8121 15.2526C20.8021 10.1226 16.9021 5.64261 11.9621 5.64261ZM9.52206 14.1326H9.97206C10.1821 14.1326 10.3421 14.0826 10.4521 13.9726C10.5621 13.8626 10.6121 13.7226 10.6121 13.5426C10.6121 13.4626 10.6021 13.3926 10.5721 13.3226C10.5421 13.2526 10.5121 13.2026 10.4621 13.1526C10.4121 13.1026 10.3521 13.0626 10.2821 13.0426C10.2121 13.0226 10.1221 13.0026 10.0321 13.0026C9.95206 13.0026 9.88206 13.0126 9.81206 13.0326C9.74206 13.0526 9.68206 13.0826 9.63206 13.1326C9.58206 13.1826 9.54206 13.2226 9.51206 13.2826C9.48206 13.3426 9.46206 13.4126 9.46206 13.4826H8.61206C8.61206 13.3026 8.65206 13.1426 8.72206 13.0026C8.79206 12.8626 8.89206 12.7326 9.02206 12.6326C9.15206 12.5326 9.29206 12.4526 9.46206 12.4026C9.63206 12.3526 9.81206 12.3226 10.0021 12.3226C10.2121 12.3226 10.4121 12.3526 10.5921 12.4026C10.7721 12.4526 10.9221 12.5326 11.0521 12.6326C11.1821 12.7326 11.2821 12.8626 11.3521 13.0126C11.4221 13.1626 11.4621 13.3426 11.4621 13.5426C11.4621 13.6326 11.4521 13.7226 11.4221 13.8126C11.3921 13.9026 11.3521 13.9826 11.2921 14.0626C11.2321 14.1426 11.1721 14.2126 11.0921 14.2826C11.0121 14.3526 10.9221 14.4026 10.8121 14.4526C11.0521 14.5426 11.2321 14.6626 11.3521 14.8426C11.4721 15.0226 11.5321 15.2226 11.5321 15.4526C11.5321 15.6526 11.4921 15.8326 11.4121 15.9826C11.3321 16.1326 11.2321 16.2726 11.0921 16.3726C10.9521 16.4726 10.8021 16.5626 10.6121 16.6126C10.4221 16.6626 10.2321 16.6926 10.0121 16.6926C9.83206 16.6926 9.65206 16.6726 9.48206 16.6226C9.31206 16.5726 9.15206 16.5026 9.02206 16.3926C8.89206 16.2826 8.77206 16.1626 8.69206 16.0126C8.61206 15.8626 8.57206 15.6726 8.57206 15.4626H9.42206C9.42206 15.5426 9.44206 15.6126 9.47206 15.6826C9.50206 15.7526 9.54206 15.8026 9.60206 15.8526C9.66206 15.9026 9.72206 15.9426 9.80206 15.9626C9.88206 15.9826 9.96206 16.0026 10.0521 16.0026C10.1521 16.0026 10.2421 15.9926 10.3221 15.9626C10.4021 15.9326 10.4721 15.8926 10.5221 15.8426C10.5721 15.7926 10.6221 15.7326 10.6521 15.6626C10.6821 15.5926 10.6921 15.5126 10.6921 15.4226C10.6921 15.3126 10.6721 15.2126 10.6421 15.1326C10.6121 15.0526 10.5621 14.9826 10.5021 14.9326C10.4421 14.8826 10.3721 14.8426 10.2821 14.8226C10.1921 14.8026 10.1021 14.7826 9.99206 14.7826H9.52206V14.1326ZM15.2621 14.8826C15.2621 15.2026 15.2321 15.4826 15.1621 15.7026C15.0921 15.9226 14.9921 16.1226 14.8721 16.2726C14.7521 16.4226 14.5921 16.5326 14.4221 16.6026C14.2521 16.6726 14.0521 16.7026 13.8321 16.7026C13.6121 16.7026 13.4221 16.6726 13.2421 16.6026C13.0621 16.5326 12.9121 16.4226 12.7821 16.2726C12.6521 16.1226 12.5521 15.9326 12.4821 15.7026C12.4121 15.4726 12.3721 15.2026 12.3721 14.8826V14.1426C12.3721 13.8226 12.4021 13.5426 12.4721 13.3226C12.5421 13.1026 12.6421 12.9026 12.7621 12.7526C12.8821 12.6026 13.0421 12.4926 13.2121 12.4226C13.3821 12.3526 13.5821 12.3226 13.8021 12.3226C14.0221 12.3226 14.2121 12.3526 14.3921 12.4226C14.5721 12.4926 14.7221 12.6026 14.8521 12.7526C14.9821 12.9026 15.0821 13.0926 15.1521 13.3226C15.2221 13.5526 15.2621 13.8226 15.2621 14.1426V14.8826ZM14.4121 14.0226C14.4121 13.8326 14.4021 13.6726 14.3721 13.5426C14.3421 13.4126 14.3021 13.3126 14.2521 13.2326C14.2021 13.1526 14.1421 13.0926 14.0621 13.0626C13.9821 13.0326 13.9021 13.0126 13.8121 13.0126C13.7221 13.0126 13.6321 13.0326 13.5621 13.0626C13.4921 13.0926 13.4221 13.1526 13.3721 13.2326C13.3221 13.3126 13.2821 13.4126 13.2521 13.5426C13.2221 13.6726 13.2121 13.8326 13.2121 14.0226V14.9926C13.2121 15.1826 13.2221 15.3426 13.2521 15.4726C13.2821 15.6026 13.3221 15.7126 13.3721 15.7926C13.4221 15.8726 13.4821 15.9326 13.5621 15.9626C13.6421 15.9926 13.7221 16.0126 13.8121 16.0126C13.9021 16.0126 13.9921 15.9926 14.0621 15.9626C14.1321 15.9326 14.2021 15.8726 14.2521 15.7926C14.3021 15.7126 14.3421 15.6026 14.3621 15.4726C14.3921 15.3426 14.4021 15.1826 14.4021 14.9926V14.0226H14.4121Z" fill="black"/>
</svg>
