<svg width="24" height="24" viewBox="0 0 24 24" fill="none" xmlns="http://www.w3.org/2000/svg">
<path d="M6.79126 6.35714C6.79126 5.41714 5.65126 4.93714 4.98126 5.60714L0.501255 10.0871C0.111255 10.4771 0.111255 11.1071 0.501255 11.4971L4.98126 15.9771C5.65126 16.6571 6.79126 16.1771 6.79126 15.2371C6.79126 14.9571 6.68126 14.6871 6.48126 14.4871L2.79126 10.7971L6.48126 7.10714C6.68126 6.90714 6.79126 6.63714 6.79126 6.35714ZM12.7913 7.79714V6.20714C12.7913 5.31714 11.7113 4.86714 11.0813 5.49714L6.49126 10.0871C6.10126 10.4771 6.10126 11.1071 6.49126 11.4971L11.0813 16.0871C11.7113 16.7171 12.7913 16.2671 12.7913 15.3771V13.6971C17.7913 13.6971 21.2913 15.2971 23.7913 18.7971C22.7913 13.7971 19.7913 8.79714 12.7913 7.79714Z" fill="black"/>
</svg>
