<svg  viewBox="0 0 24 24" fill="none" xmlns="http://www.w3.org/2000/svg">
<path d="M11.9656 5.64212V2.85212C11.9656 2.40212 11.4256 2.18212 11.1156 2.50212L7.3156 6.29212C7.1156 6.49212 7.1156 6.80212 7.3156 7.00212L11.1056 10.7921C11.4256 11.1021 11.9656 10.8821 11.9656 10.4321V7.64212C15.6956 7.64212 18.6456 11.0621 17.8256 14.9321C17.3556 17.1921 15.6856 18.9221 13.4356 19.4621C9.7956 20.3421 6.5056 17.8621 6.0156 14.5021C5.9556 14.0121 5.5356 13.6421 5.0456 13.6421C4.4456 13.6421 3.9656 14.1721 4.0456 14.7721C4.6756 19.2421 8.9856 22.5221 13.8156 21.4421C16.9056 20.7521 19.2056 18.3621 19.8056 15.2521C20.8056 10.1221 16.9056 5.64212 11.9656 5.64212ZM10.6556 14.5421L10.9056 12.3721H13.2956V13.0821H11.5956L11.4856 14.0021C11.5156 13.9821 11.5556 13.9721 11.5956 13.9521C11.6356 13.9321 11.6856 13.9121 11.7456 13.9021C11.8056 13.8921 11.8656 13.8721 11.9256 13.8621C11.9856 13.8521 12.0556 13.8421 12.1256 13.8421C12.3356 13.8421 12.5156 13.8721 12.6756 13.9421C12.8356 14.0121 12.9756 14.1021 13.0856 14.2221C13.1956 14.3421 13.2856 14.4921 13.3356 14.6721C13.3856 14.8521 13.4256 15.0521 13.4256 15.2721C13.4256 15.4621 13.3956 15.6421 13.3356 15.8121C13.2756 15.9821 13.1856 16.1321 13.0656 16.2621C12.9456 16.3921 12.7956 16.5021 12.6156 16.5721C12.4356 16.6421 12.2256 16.6921 11.9756 16.6921C11.7956 16.6921 11.6156 16.6621 11.4456 16.6121C11.2756 16.5621 11.1256 16.4721 10.9856 16.3721C10.8456 16.2721 10.7456 16.1321 10.6656 15.9821C10.5856 15.8321 10.5356 15.6521 10.5356 15.4521H11.3756C11.3956 15.6321 11.4556 15.7721 11.5656 15.8621C11.6756 15.9521 11.8156 16.0121 11.9856 16.0121C12.0956 16.0121 12.1856 15.9921 12.2556 15.9521C12.3256 15.9121 12.3956 15.8521 12.4356 15.7821C12.4756 15.7121 12.5156 15.6321 12.5456 15.5321C12.5756 15.4321 12.5756 15.3321 12.5756 15.2221C12.5756 15.1121 12.5656 15.0121 12.5356 14.9121C12.5056 14.8121 12.4656 14.7421 12.4056 14.6721C12.3456 14.6021 12.2756 14.5521 12.1956 14.5221C12.1156 14.4921 12.0056 14.4721 11.8956 14.4721C11.8156 14.4721 11.7456 14.4821 11.6956 14.4921C11.6456 14.5021 11.5856 14.5221 11.5456 14.5421C11.5056 14.5621 11.4656 14.5921 11.4256 14.6121C11.3856 14.6321 11.3556 14.6721 11.3256 14.7021L10.6556 14.5421Z" fill="currentColor"/>
</svg>
