<svg width="24" height="24" viewBox="0 0 24 24" fill="none" xmlns="http://www.w3.org/2000/svg">
<path d="M12.29 6.71004C12.84 6.71004 13.29 7.16004 13.29 7.71004V9.04004L20.49 16.24L21 15.73C21.19 15.54 21.29 15.29 21.29 15.02V8.39004C21.29 8.12004 21.18 7.87004 21 7.68004L16.32 3.00004C16.13 2.82004 15.87 2.71004 15.61 2.71004H8.96998C8.70998 2.71004 8.44998 2.82004 8.26998 3.00004L7.75998 3.51004L11.45 7.20004C11.62 6.91004 11.93 6.71004 12.29 6.71004ZM2.69998 1.29004L1.28998 2.70004L4.92998 6.34004L3.57998 7.69004C3.39998 7.87004 3.28998 8.13004 3.28998 8.39004V15.02C3.28998 15.29 3.39998 15.54 3.57998 15.73L8.25998 20.41C8.44998 20.6 8.70998 20.71 8.96998 20.71H15.6C15.87 20.71 16.12 20.6 16.31 20.42L17.66 19.07L21.3 22.71L22.71 21.3L2.69998 1.29004ZM12.29 17.01C11.57 17.01 10.99 16.43 10.99 15.71C10.99 14.99 11.57 14.41 12.29 14.41C13.01 14.41 13.59 14.99 13.59 15.71C13.59 16.43 13.01 17.01 12.29 17.01Z" fill="black"/>
</svg>
