<svg width="24" height="24" viewBox="0 0 24 24" fill="none" xmlns="http://www.w3.org/2000/svg">
<path d="M15.325 3H8.68501C8.425 3 8.165 3.11 7.985 3.29L3.295 7.98C3.115 8.16 3.005 8.42 3.005 8.68V15.31C3.005 15.58 3.115 15.83 3.295 16.02L7.975 20.7C8.165 20.89 8.425 21 8.68501 21H15.315C15.585 21 15.835 20.89 16.025 20.71L20.705 16.03C20.895 15.84 20.995 15.59 20.995 15.32V8.68C20.995 8.41 20.885 8.16 20.705 7.97L16.025 3.29C15.845 3.11 15.585 3 15.325 3ZM12.005 17.3C11.285 17.3 10.705 16.72 10.705 16C10.705 15.28 11.285 14.7 12.005 14.7C12.725 14.7 13.305 15.28 13.305 16C13.305 16.72 12.725 17.3 12.005 17.3ZM12.005 13C11.455 13 11.005 12.55 11.005 12V8C11.005 7.45 11.455 7 12.005 7C12.555 7 13.005 7.45 13.005 8V12C13.005 12.55 12.555 13 12.005 13Z" fill="black"/>
</svg>
