<svg  viewBox="0 0 24 24" fill="none" xmlns="http://www.w3.org/2000/svg">
<path d="M20.7147 7.98L16.0347 3.3C15.8447 3.11 15.5847 3 15.3247 3H8.6847C8.4247 3 8.1647 3.11 7.9847 3.29L3.2947 7.98C3.1147 8.16 3.0047 8.42 3.0047 8.68V15.31C3.0047 15.58 3.1147 15.83 3.2947 16.02L7.9747 20.7C8.1647 20.89 8.4247 21 8.6847 21H15.3147C15.5847 21 15.8347 20.89 16.0247 20.71L20.7047 16.03C20.8947 15.84 20.9947 15.59 20.9947 15.32V8.68C21.0047 8.42 20.8947 8.16 20.7147 7.98ZM19.0047 14.9L14.9047 19H9.1047L5.0047 14.9V9.1L9.1047 5H14.9047L19.0047 9.1V14.9Z" fill="currentColor"/>
<path d="M12.0047 17C12.557 17 13.0047 16.5523 13.0047 16C13.0047 15.4477 12.557 15 12.0047 15C11.4524 15 11.0047 15.4477 11.0047 16C11.0047 16.5523 11.4524 17 12.0047 17Z" fill="currentColor"/>
<path d="M12.0047 7C11.4547 7 11.0047 7.45 11.0047 8V13C11.0047 13.55 11.4547 14 12.0047 14C12.5547 14 13.0047 13.55 13.0047 13V8C13.0047 7.45 12.5547 7 12.0047 7Z" fill="currentColor"/>
</svg>
