<svg width="24" height="24" viewBox="0 0 24 24" fill="none" xmlns="http://www.w3.org/2000/svg">
    <path d="M2.73499 21.0013H21.265C22.035 21.0013 22.515 20.1713 22.135 19.5013L12.865 3.50128C12.475 2.83128 11.515 2.83128 11.135 3.50128L1.86499 19.5013C1.48499 20.1713 1.96499 21.0013 2.73499 21.0013ZM13.005 18.0013H11.005V16.0013H13.005V18.0013ZM12.005 14.0013C11.455 14.0013 11.005 13.5513 11.005 13.0013V11.0013C11.005 10.4513 11.455 10.0013 12.005 10.0013C12.555 10.0013 13.005 10.4513 13.005 11.0013V13.0013C13.005 13.5513 12.555 14.0013 12.005 14.0013Z" fill="currentColor" />
</svg>
