<svg  viewBox="0 0 24 24" fill="none" xmlns="http://www.w3.org/2000/svg">
<path d="M7.79944 13.3317L10.6294 10.5017L4.43943 4.32166C3.95943 3.84166 3.12943 3.97166 2.82943 4.59166C2.11943 6.08166 2.37943 7.91166 3.60943 9.15166L7.79944 13.3317ZM14.5794 11.5217C16.1094 12.2317 18.2594 11.7317 19.8494 10.1417C21.7594 8.23166 22.1294 5.49166 20.6594 4.02166C19.1994 2.56166 16.4594 2.92166 14.5394 4.83166C12.9494 6.42166 12.4494 8.57166 13.1594 10.1017L4.09943 19.1617C3.70943 19.5517 3.70943 20.1817 4.09943 20.5717C4.48943 20.9617 5.11943 20.9617 5.50943 20.5717L11.6994 14.4017L17.8794 20.5817C18.2694 20.9717 18.8994 20.9717 19.2894 20.5817C19.6794 20.1917 19.6794 19.5617 19.2894 19.1717L13.1094 12.9917L14.5794 11.5217Z" fill="currentColor"/>
</svg>
