<svg viewBox="0 0 24 24" fill="none" xmlns="http://www.w3.org/2000/svg">
<path d="M22.0002 12.0009C22.0002 6.52088 17.6002 2.07088 12.1402 2.00088C8.5202 1.95088 5.2902 4.03088 3.4302 7.14088C0.100201 12.6909 2.9802 18.2709 8.0002 20.2509V20.5009C8.0002 21.3309 8.6702 22.0009 9.5002 22.0009H14.5002C15.3302 22.0009 16.0002 21.3309 16.0002 20.5009V20.2509C19.5302 18.8609 22.0002 15.6909 22.0002 12.0009ZM20.0002 12.0009H16.0002V5.08088C18.3902 6.47088 20.0002 9.05088 20.0002 12.0009ZM14.0002 4.26088V12.0009H10.0002V4.26088C10.6402 4.10088 11.3102 4.00088 12.0002 4.00088C12.6902 4.00088 13.3602 4.10088 14.0002 4.26088ZM4.0002 12.0009C4.0002 9.05088 5.6102 6.47088 8.0002 5.08088V12.0009H4.0002Z" fill="currentColor"/>
</svg>
