<svg  viewBox="0 0 24 24" fill="none" xmlns="http://www.w3.org/2000/svg">
<path d="M11.9293 7.54297H11.9593C12.5093 7.54297 12.9493 7.10297 12.9493 6.56297V3.52297C12.9493 2.98297 12.5093 2.54297 11.9693 2.54297H11.9393C11.3893 2.54297 10.9493 2.98297 10.9493 3.52297V6.55297C10.9493 7.10297 11.3893 7.54297 11.9293 7.54297ZM16.8493 9.65297C17.2393 10.043 17.8593 10.043 18.2493 9.65297C18.8693 9.02297 19.7693 8.11297 20.3993 7.48297C20.7893 7.10297 20.7893 6.47297 20.3993 6.09297C20.0193 5.71297 19.3893 5.71297 19.0093 6.09297L16.8393 8.24297C16.4493 8.62297 16.4493 9.25297 16.8393 9.63297L16.8493 9.65297ZM5.65934 9.64297C6.03934 10.033 6.66934 10.033 7.05934 9.64297C7.43934 9.26297 7.43934 8.63297 7.05934 8.25297L4.90934 6.08297C4.52934 5.69297 3.89934 5.69297 3.51934 6.08297L3.49934 6.09297C3.10934 6.48297 3.10934 7.10297 3.49934 7.48297C4.12934 8.10297 5.03934 9.01297 5.65934 9.64297ZM23.2393 16.773C16.8293 11.113 7.16934 11.113 0.75934 16.773C-0.0906599 17.523 -0.0906599 18.853 0.70934 19.653L1.92934 20.873C2.64934 21.593 3.78934 21.653 4.58934 21.023L6.58934 19.433C7.06934 19.053 7.34934 18.473 7.34934 17.863V15.263C10.3693 14.283 13.6393 14.273 16.6693 15.263V17.873C16.6693 18.483 16.9493 19.063 17.4293 19.443L19.4193 21.023C20.2193 21.653 21.3593 21.593 22.0793 20.873L23.2993 19.653C24.0893 18.853 24.0893 17.523 23.2393 16.773Z" fill="currentColor"/>
</svg>
