<svg viewBox="0 0 24 24" fill="none" xmlns="http://www.w3.org/2000/svg">
<path d="M13.0028 18.3269H11.0028V16.3269H13.0028V18.3269ZM9.00278 15.3269V19.3269C9.00278 19.8769 9.45278 20.3269 10.0028 20.3269H14.0028C14.5528 20.3269 15.0028 19.8769 15.0028 19.3269V15.3269C15.0028 14.7769 14.5528 14.3269 14.0028 14.3269H10.0028C9.45278 14.3269 9.00278 14.7769 9.00278 15.3269ZM19.0028 9.62688V5.32688C19.0028 4.77688 18.5528 4.32688 18.0028 4.32688H17.0028C16.4528 4.32688 16.0028 4.77688 16.0028 5.32688V6.92688L12.6728 3.92687C12.2928 3.58687 11.7128 3.58687 11.3328 3.92687L2.97278 11.4569C2.63278 11.7569 2.84278 12.3269 3.30278 12.3269H4.61278C4.86278 12.3269 5.10278 12.2369 5.28278 12.0669L12.0028 6.01688L18.7128 12.0669C18.9028 12.2369 19.1428 12.3269 19.3828 12.3269H20.6928C21.1528 12.3269 21.3728 11.7569 21.0228 11.4569L19.0028 9.62688Z" fill="currentColor"/>
</svg>
