<svg viewBox="0 0 24 24" fill="none" xmlns="http://www.w3.org/2000/svg">
<path d="M20.9008 16.5059C20.9008 16.2859 20.8708 16.0859 20.8408 15.8759L21.6808 15.1459C21.8608 14.9859 21.9008 14.7259 21.7808 14.5159L21.1908 13.4959C21.0708 13.2859 20.8208 13.1959 20.6008 13.2759L19.5408 13.6359C19.2208 13.3659 18.8608 13.1559 18.4608 13.0059L18.2408 11.9159C18.1908 11.6859 17.9908 11.5159 17.7508 11.5159H16.5708C16.3308 11.5159 16.1308 11.6859 16.0808 11.9159L15.8608 13.0059C15.4608 13.1559 15.1008 13.3659 14.7808 13.6359L13.7208 13.2759C13.4908 13.1959 13.2508 13.2959 13.1308 13.4959L12.5408 14.5159C12.4208 14.7259 12.4608 14.9859 12.6408 15.1459L13.4808 15.8759C13.4508 16.0859 13.4208 16.2859 13.4208 16.5059C13.4208 16.7259 13.4508 16.9259 13.4808 17.1359L12.6408 17.8659C12.4608 18.0259 12.4208 18.2859 12.5408 18.4959L13.1308 19.5159C13.2508 19.7259 13.5008 19.8159 13.7208 19.7359L14.7808 19.3759C15.1008 19.6459 15.4608 19.8559 15.8608 20.0059L16.0808 21.0959C16.1308 21.3259 16.3308 21.4959 16.5708 21.4959H17.7508C17.9908 21.4959 18.1908 21.3259 18.2408 21.0959L18.4608 20.0059C18.8608 19.8559 19.2208 19.6459 19.5408 19.3759L20.6008 19.7359C20.8308 19.8159 21.0708 19.7159 21.1908 19.5159L21.7808 18.4959C21.9008 18.2859 21.8608 18.0259 21.6808 17.8659L20.8408 17.1359C20.8708 16.9259 20.9008 16.7259 20.9008 16.5059ZM17.1508 18.5059C16.0508 18.5059 15.1508 17.6059 15.1508 16.5059C15.1508 15.4059 16.0508 14.5059 17.1508 14.5059C18.2508 14.5059 19.1508 15.4059 19.1508 16.5059C19.1508 17.6059 18.2508 18.5059 17.1508 18.5059ZM13.1508 10.7659V5.50586H16.1508V9.50586H18.1508V4.50586C18.1508 3.95586 17.7008 3.50586 17.1508 3.50586H13.1508C13.1508 2.95586 12.7008 2.50586 12.1508 2.50586H5.15076C4.60076 2.50586 4.15076 2.95586 4.15076 3.50586V18.5059H3.15076C2.60076 18.5059 2.15076 18.9559 2.15076 19.5059C2.15076 20.0559 2.60076 20.5059 3.15076 20.5059H11.4108C10.6208 19.3759 10.1508 17.9959 10.1508 16.5059C10.1508 14.1259 11.3408 12.0359 13.1508 10.7659ZM9.15076 11.5059C9.15076 10.9559 9.60076 10.5059 10.1508 10.5059C10.7008 10.5059 11.1508 10.9559 11.1508 11.5059C11.1508 12.0559 10.7008 12.5059 10.1508 12.5059C9.60076 12.5059 9.15076 12.0559 9.15076 11.5059Z" fill="currentColor"/>
</svg>
