<svg viewBox="0 0 24 24" fill="none" xmlns="http://www.w3.org/2000/svg">
<path d="M14.9746 5.76527L12.8446 3.63527C12.2246 3.01527 11.1446 3.45527 11.1446 4.34527V5.00527C7.20459 5.49527 4.14459 8.85527 4.14459 12.9353C4.14459 16.5753 6.57459 19.6453 9.91459 20.6153C10.5346 20.7953 11.1446 20.2953 11.1446 19.6553V19.6253C11.1446 19.1953 10.8746 18.8053 10.4646 18.6853C7.96459 17.9653 6.14459 15.6653 6.14459 12.9353C6.14459 9.96527 8.30459 7.50527 11.1446 7.02527V8.55527C11.1446 9.44527 12.2146 9.88527 12.8446 9.26527L14.9746 7.18527C15.3746 6.80527 15.3746 6.16527 14.9746 5.76527ZM19.8146 10.6953C19.6546 10.1453 19.4346 9.61527 19.1546 9.10527C18.8446 8.53527 18.0546 8.44527 17.5946 8.90527L17.5846 8.91527C17.2746 9.22527 17.2046 9.69527 17.4146 10.0753C17.6146 10.4453 17.7746 10.8353 17.8946 11.2353C18.0146 11.6553 18.4046 11.9353 18.8346 11.9353H18.8546C19.5046 11.9353 20.0046 11.3153 19.8146 10.6953ZM13.1446 19.6153V19.6353C13.1446 20.2853 13.7646 20.7753 14.3846 20.5953C14.9346 20.4353 15.4646 20.2153 15.9746 19.9353C16.5446 19.6253 16.6346 18.8353 16.1746 18.3753L16.1546 18.3553C15.8446 18.0453 15.3746 17.9753 14.9946 18.1853C14.6246 18.3953 14.2346 18.5553 13.8346 18.6753C13.4246 18.7953 13.1446 19.1853 13.1446 19.6153ZM17.5846 16.9653C18.0446 17.4253 18.8346 17.3353 19.1446 16.7653C19.4246 16.2553 19.6446 15.7253 19.8146 15.1753C19.9946 14.5553 19.5046 13.9353 18.8546 13.9353H18.8346C18.3946 13.9353 18.0146 14.2153 17.8946 14.6353C17.7746 15.0353 17.6146 15.4253 17.4146 15.8053C17.2046 16.1853 17.2846 16.6653 17.5846 16.9653Z" fill="currentColor"/>
</svg>
