<svg viewBox="0 0 24 24" fill="none" xmlns="http://www.w3.org/2000/svg">
<path d="M6.08247 7.74604L2.43247 11.406C1.65247 12.186 1.65247 13.456 2.43247 14.236L6.09247 17.896C6.87247 18.676 8.14247 18.676 8.92247 17.896L12.5825 14.246C13.3625 13.466 13.3625 12.196 12.5825 11.416L8.91247 7.73604C8.12247 6.95604 6.86247 6.95604 6.08247 7.74604ZM4.55247 12.106L6.80247 9.85604C7.19247 9.46604 7.82247 9.46604 8.22247 9.85604L10.4625 12.096C10.8525 12.486 10.8525 13.116 10.4625 13.506L8.21247 15.756C7.82247 16.146 7.19247 16.146 6.79247 15.756L4.55247 13.526C4.16247 13.136 4.16247 12.496 4.55247 12.106ZM19.5125 6.55604C17.7625 4.79604 15.4525 3.91604 13.1525 3.91604V3.08604C13.1525 2.19604 12.0725 1.74604 11.4425 2.37604L9.62247 4.20604C9.23247 4.59604 9.23247 5.22604 9.62247 5.61604L11.4525 7.44604C12.0725 8.07604 13.1525 7.63604 13.1525 6.74604V5.91604C15.1725 5.91604 17.1825 6.77604 18.6025 8.52604C20.6525 11.046 20.6525 14.796 18.6025 17.316C17.1825 19.056 15.1725 19.916 13.1525 19.916C12.3725 19.916 11.6025 19.786 10.8625 19.526C10.5025 19.406 10.1125 19.516 9.84247 19.786C9.34247 20.286 9.50247 21.176 10.1825 21.406C11.1425 21.746 12.1425 21.916 13.1525 21.916C15.4525 21.916 17.7625 21.036 19.5125 19.276C23.0325 15.766 23.0325 10.066 19.5125 6.55604Z" fill="currentColor"/>
</svg>
