<svg viewBox="0 0 24 24" fill="none" xmlns="http://www.w3.org/2000/svg">
<path d="M3.56702 18.607C6.21702 22.057 10.677 22.977 14.307 21.397C14.917 21.127 15.047 20.307 14.577 19.837L14.527 19.787C14.237 19.497 13.807 19.437 13.427 19.597C10.467 20.837 6.83702 19.967 4.84702 16.977C3.26702 14.607 3.29702 11.607 4.89702 9.247C6.30702 7.177 8.50702 6.177 10.707 6.177V7.937C10.707 8.387 11.247 8.607 11.567 8.297L14.357 5.507C14.557 5.307 14.557 4.997 14.357 4.797L11.557 2.007C11.247 1.687 10.707 1.907 10.707 2.357V4.157C7.94702 4.157 5.18702 5.407 3.36702 7.937C1.08702 11.107 1.16702 15.517 3.56702 18.607Z" fill="currentColor"/>
<path d="M17.407 7.857C17.017 7.467 16.387 7.467 15.997 7.857L11.407 12.437C11.017 12.827 11.017 13.457 11.407 13.847L15.997 18.437C16.387 18.827 17.017 18.827 17.407 18.437L21.997 13.847C22.387 13.457 22.387 12.827 21.997 12.437L17.407 7.857Z" fill="currentColor"/>
</svg>
