<svg viewBox="0 0 24 24" fill="none" xmlns="http://www.w3.org/2000/svg">
<path d="M6.41543 8.91776C5.95543 8.45776 5.16543 8.53776 4.85543 9.10776C4.57543 9.61776 4.35543 10.1378 4.18543 10.6878C3.99543 11.3178 4.49543 11.9378 5.14543 11.9378H5.15543C5.58543 11.9378 5.97543 11.6578 6.09543 11.2378C6.21543 10.8378 6.37543 10.4478 6.57543 10.0678C6.79543 9.69776 6.72543 9.22776 6.41543 8.91776ZM5.16543 13.9378H5.14543C4.49543 13.9378 3.99543 14.5578 4.18543 15.1878C4.34543 15.7278 4.56543 16.2578 4.84543 16.7678C5.15543 17.3378 5.95543 17.4278 6.41543 16.9678C6.71543 16.6578 6.79543 16.1978 6.58543 15.8178C6.38543 15.4478 6.22543 15.0578 6.10543 14.6578C5.98543 14.2178 5.59543 13.9378 5.16543 13.9378ZM8.01543 19.9578C8.52543 20.2378 9.05543 20.4578 9.60543 20.6178C10.2254 20.7978 10.8454 20.2978 10.8454 19.6578V19.6278C10.8454 19.1978 10.5654 18.8078 10.1454 18.6878C9.74543 18.5678 9.36543 18.4078 8.99543 18.2078C8.61543 17.9978 8.13543 18.0678 7.83543 18.3778L7.80543 18.4078C7.35543 18.8578 7.44543 19.6478 8.01543 19.9578ZM12.8554 5.00776V4.34776C12.8554 3.45776 11.7754 3.00776 11.1454 3.63776L9.02543 5.76776C8.62543 6.16776 8.62543 6.80776 9.02543 7.19776L11.1554 9.27776C11.7854 9.89776 12.8554 9.44776 12.8554 8.55776V7.02776C15.6954 7.50776 17.8554 9.96776 17.8554 12.9378C17.8554 15.6678 16.0354 17.9578 13.5354 18.6878C13.1254 18.8078 12.8554 19.1978 12.8554 19.6278V19.6478C12.8554 20.2978 13.4654 20.7878 14.0854 20.6078C17.4254 19.6478 19.8554 16.5778 19.8554 12.9378C19.8554 8.85776 16.8054 5.49776 12.8554 5.00776Z" fill="currentColor"/>
</svg>
