<svg width="24" height="24" viewBox="0 0 24 24" fill="none" xmlns="http://www.w3.org/2000/svg">
    <path d="M4.23749 17.9587C3.82749 18.3687 3.82749 19.0487 4.23749 19.4587C4.64749 19.8687 5.32749 19.8687 5.73749 19.4587L8.48749 16.7087H10.4875L7.98749 14.2087L4.23749 17.9587ZM14.4875 4.70874C15.5875 4.70874 16.4875 3.80874 16.4875 2.70874C16.4875 1.60874 15.5875 0.70874 14.4875 0.70874C13.3875 0.70874 12.4875 1.60874 12.4875 2.70874C12.4875 3.80874 13.3875 4.70874 14.4875 4.70874ZM19.7775 20.0087L17.7775 17.9987C17.5975 17.8187 17.3375 17.7087 17.0675 17.7087H15.9875L9.69749 11.4187C10.4875 11.0887 11.3575 10.5487 11.9875 10.0287V12.2987L15.5675 15.8787C16.1375 15.3287 16.4875 14.5587 16.4875 13.7187V7.96874C16.4875 6.72874 15.4675 5.70874 14.2275 5.70874H14.2075C13.8675 5.70874 13.5375 5.79874 13.2475 5.93874C12.9875 6.05874 12.7475 6.22874 12.5575 6.43874L11.1575 7.98874C10.0975 9.15874 8.14749 10.0587 6.48749 10.0287C5.88749 10.0287 5.40749 10.5087 5.40749 11.1087C5.40749 11.7087 5.88749 12.1887 6.48749 12.1887C6.79749 12.1887 7.09749 12.1587 7.38749 12.1187L14.4975 19.2087V20.2887C14.4975 20.5487 14.5975 20.8087 14.7875 20.9887L16.7775 22.9987C17.1675 23.3887 17.7975 23.3887 18.1975 22.9987L19.7775 21.4187C20.1675 21.0387 20.1675 20.3987 19.7775 20.0087Z" fill="currentColor" />
</svg>
