<svg width="24" height="24" viewBox="0 0 24 24" fill="none" xmlns="http://www.w3.org/2000/svg">
<path d="M8.84449 4.69L8.23449 8.58C8.11449 9.36 8.71449 10.07 9.51449 10.07C10.1545 10.07 10.6945 9.61 10.7945 8.98L11.3245 5.57H13.9045L11.8845 18.43H10.6445C10.0145 18.43 9.48449 18.89 9.38449 19.51V19.52C9.25449 20.3 9.85449 21 10.6445 21H15.3145C15.9445 21 16.4845 20.54 16.5745 19.92V19.91C16.6945 19.13 16.0945 18.43 15.3145 18.43H14.4545L16.4545 5.57H19.0345L18.5645 8.58C18.4445 9.36 19.0445 10.07 19.8445 10.07H19.8745C20.5145 10.07 21.0545 9.61 21.1545 8.98L21.7245 5.31C21.9145 4.09 20.9745 3 19.7445 3H10.8245C9.84449 3 9.00449 3.72 8.84449 4.69ZM8.08449 5H4.94449C4.44449 5 4.02449 5.36 3.95449 5.85C3.85449 6.45 4.32449 7 4.94449 7H7.77449L8.08449 5ZM7.47449 9H4.33449C3.83449 9 3.41449 9.36 3.34449 9.85C3.24449 10.45 3.71449 11 4.33449 11H7.16449L7.47449 9ZM8.39449 17H3.25449C2.76449 17 2.34449 17.36 2.26449 17.85C2.16449 18.45 2.63449 19 3.25449 19H8.08449L8.39449 17ZM9.01449 13H3.87449C3.38449 13 2.96449 13.36 2.88449 13.85C2.78449 14.45 3.25449 15 3.87449 15H8.71449L9.01449 13Z" fill="black"/>
</svg>
