<svg width="24" height="24" viewBox="0 0 24 24" fill="none" xmlns="http://www.w3.org/2000/svg">
    <path d="M15.9437 10.3299L13.8237 8.20994C13.4337 7.81994 13.4337 7.18994 13.8237 6.79994C14.2137 6.40994 14.8437 6.40994 15.2337 6.79994L16.6437 8.20994L20.1837 4.66994C20.5737 4.27994 21.2037 4.27994 21.5937 4.66994C21.9837 5.05994 21.9837 5.68994 21.5937 6.07994L17.3537 10.3199C16.9637 10.7199 16.3337 10.7199 15.9437 10.3299ZM10.1137 7.03994H3.11374C2.56374 7.03994 2.11374 7.48994 2.11374 8.03994C2.11374 8.58994 2.56374 9.03994 3.11374 9.03994H10.1137C10.6637 9.03994 11.1137 8.58994 11.1137 8.03994C11.1137 7.48994 10.6637 7.03994 10.1137 7.03994ZM20.4037 12.7499C20.0137 12.3599 19.3837 12.3599 18.9937 12.7499L17.1137 14.6299L15.2337 12.7499C14.8437 12.3599 14.2137 12.3599 13.8237 12.7499C13.4337 13.1399 13.4337 13.7699 13.8237 14.1599L15.7037 16.0399L13.8237 17.9199C13.4337 18.3099 13.4337 18.9399 13.8237 19.3299C14.2137 19.7199 14.8437 19.7199 15.2337 19.3299L17.1137 17.4499L18.9937 19.3299C19.3837 19.7199 20.0137 19.7199 20.4037 19.3299C20.7937 18.9399 20.7937 18.3099 20.4037 17.9199L18.5237 16.0399L20.4037 14.1599C20.7937 13.7699 20.7937 13.1399 20.4037 12.7499ZM10.1137 15.0399H3.11374C2.56374 15.0399 2.11374 15.4899 2.11374 16.0399C2.11374 16.5899 2.56374 17.0399 3.11374 17.0399H10.1137C10.6637 17.0399 11.1137 16.5899 11.1137 16.0399C11.1137 15.4899 10.6637 15.0399 10.1137 15.0399Z" fill="currentColor" />
</svg>
