<svg viewBox="0 0 24 24" fill="none" xmlns="http://www.w3.org/2000/svg">
<path d="M20 16.6325H19V10.6325C19 9.53247 18.1 8.63247 17 8.63247H6V7.89247C6 7.43247 5.44 7.19247 5.11 7.52247L3.37 9.26247C3.17 9.46247 3.17 9.79247 3.37 10.0025L5.11 11.7425C5.44 12.0725 6 11.8425 6 11.3725V10.6325H10V13.6325H4C3.45 13.6325 3 14.0825 3 14.6325V16.6325C3 17.7325 3.9 18.6325 5 18.6325H7C7 20.2925 8.34 21.6325 10 21.6325C11.66 21.6325 13 20.2925 13 18.6325H20C20.55 18.6325 21 18.1825 21 17.6325C21 17.0825 20.55 16.6325 20 16.6325ZM10 19.6325C9.45 19.6325 9 19.1825 9 18.6325C9 18.0825 9.45 17.6325 10 17.6325C10.55 17.6325 11 18.0825 11 18.6325C11 19.1825 10.55 19.6325 10 19.6325ZM17 13.6325H13V10.6325H16C16.55 10.6325 17 11.0825 17 11.6325V13.6325ZM9 5.63247H16V6.37247C16 6.83247 16.56 7.07247 16.89 6.74247L18.63 5.00247C18.83 4.80247 18.83 4.47247 18.63 4.26247L16.89 2.52247C16.56 2.19247 16 2.42247 16 2.89247V3.63247H9C8.45 3.63247 8 4.08247 8 4.63247C8 5.18247 8.45 5.63247 9 5.63247Z" fill="currentColor"/>
</svg>
