<svg  viewBox="0 0 24 24" fill="none" xmlns="http://www.w3.org/2000/svg">
<path d="M11 12.9046V3.49464C11 3.00464 10.37 2.80464 10.09 3.20464L3.55 12.6146C3.32 12.9446 3.56 13.4046 3.96 13.4046H10.5C10.78 13.4046 11 13.1846 11 12.9046ZM20.99 12.8846C20.72 6.97464 15.9 2.22464 13.4 1.13464C13.03 0.974638 12.63 1.33464 12.73 1.72464C13.03 2.85464 13.49 5.00464 13.49 7.40464C13.49 9.84464 13 11.7946 12.71 12.7546C12.61 13.0746 12.85 13.4046 13.19 13.4046H20.47C20.76 13.4046 21 13.1646 20.99 12.8846ZM20.62 14.9046H3.38C2.65 14.9046 2.16 15.6646 2.46 16.3246C2.89 17.2446 3.53 18.0346 4.32 18.6346C4.7 18.4746 5.06 18.2546 5.38 18.0046C5.73 17.7146 6.25 17.7146 6.61 18.0046C7.28 18.5346 8.1 18.9046 9 18.9046C9.9 18.9046 10.72 18.5346 11.39 17.9946C11.74 17.7146 12.26 17.7146 12.61 17.9946C13.28 18.5346 14.1 18.9046 15 18.9046C15.9 18.9046 16.72 18.5346 17.39 17.9946C17.74 17.7046 18.26 17.7146 18.62 17.9946C18.94 18.2546 19.29 18.4746 19.68 18.6246C20.47 18.0246 21.11 17.2346 21.54 16.3146C21.84 15.6646 21.35 14.9046 20.62 14.9046ZM22 21.9046C22 21.3546 21.55 20.9046 21 20.9046C20.13 20.9046 19.27 20.6646 18.47 20.2046C18.18 20.0446 17.82 20.0346 17.53 20.2046C15.94 21.1046 14.06 21.1046 12.47 20.2046C12.18 20.0446 11.82 20.0446 11.53 20.2046C9.94 21.1046 8.06 21.1046 6.47 20.2046C6.18 20.0446 5.82 20.0446 5.53 20.2046C4.73 20.6646 3.87 20.9046 3 20.9046C2.45 20.9046 2 21.3546 2 21.9046C2 22.4546 2.45 22.9046 3 22.9046C4.15 22.9046 5.3 22.5946 6.33 21.9646C7.99 23.0746 10.11 22.9746 11.91 22.1046C13.82 23.1546 16.08 23.1746 18 22.1546C18.95 22.6546 19.97 22.9046 21 22.9046C21.55 22.9046 22 22.4546 22 21.9046Z" fill="currentColor"/>
</svg>
