<svg  viewBox="0 0 24 24" fill="none" xmlns="http://www.w3.org/2000/svg">
<path d="M14.5 6.5C14.5 5.94 15.17 5.01 15.61 4.46C15.81 4.21 16.19 4.21 16.38 4.46C16.82 5.01 17.49 5.94 17.49 6.5C17.5 7.33 16.83 8 16 8C15.17 8 14.5 7.33 14.5 6.5ZM18.5 15C19.88 15 21 13.88 21 12.5C21 11.25 19.59 9.34 18.89 8.46C18.69 8.21 18.32 8.21 18.12 8.46C17.41 9.34 16 11.25 16 12.5C16 13.88 17.12 15 18.5 15ZM11 14H10V13C10 12.45 9.55 12 9 12C8.45 12 8 12.45 8 13V14H7C6.45 14 6 14.45 6 15C6 15.55 6.45 16 7 16H8V17C8 17.55 8.45 18 9 18C9.55 18 10 17.55 10 17V16H11C11.55 16 12 15.55 12 15C12 14.45 11.55 14 11 14ZM15 12V20C15 21.1 14.1 22 13 22H5C3.9 22 3 21.1 3 20V12C3 9.03 5.16 6.57 8 6.09V4H7C6.45 4 6 3.55 6 3C6 2.45 6.45 2 7 2H12C12.61 2 13.19 2.11 13.72 2.31C14.39 2.56 14.55 3.44 14.05 3.95C13.77 4.23 13.36 4.31 13 4.18C12.68 4.06 12.35 4 12 4H10V6.09C12.84 6.57 15 9.03 15 12Z" fill="currentColor"/>
</svg>
