<svg  viewBox="0 0 24 24" fill="none" xmlns="http://www.w3.org/2000/svg">
    <path d="M21.4745 15.4133C21.0745 18.5933 18.5845 21.0833 15.4045 21.4833C14.8945 21.5433 14.5245 21.9733 14.5245 22.4733C14.5245 22.5133 14.5245 22.5533 14.5345 22.5933C14.6045 23.1433 15.1045 23.5333 15.6545 23.4633C19.7445 22.9533 22.9545 19.7433 23.4645 15.6533C23.5245 15.1033 23.1345 14.6033 22.5845 14.5433C22.0345 14.4733 21.5345 14.8633 21.4745 15.4133ZM19.3645 15.7933C19.5045 15.2633 19.1845 14.7133 18.6445 14.5733C18.1045 14.4333 17.5645 14.7533 17.4245 15.2933C17.1545 16.3433 16.3345 17.1633 15.2745 17.4433C14.8245 17.5633 14.5245 17.9633 14.5245 18.4133C14.5245 18.4933 14.5345 18.5833 14.5545 18.6633C14.6945 19.1933 15.2445 19.5133 15.7745 19.3833C17.5445 18.9133 18.9145 17.5433 19.3645 15.7933ZM22.3245 4.65332L18.7845 1.11332C18.0045 0.33332 16.7345 0.33332 15.9545 1.11332L12.7745 4.29332C11.9945 5.07332 11.9945 6.34332 12.7745 7.12332L14.0145 8.36332L13.3045 9.07332L12.0745 7.83332C11.2945 7.05332 10.0245 7.05332 9.24448 7.83332L7.82448 9.25332C7.04448 10.0333 7.04448 11.3033 7.82448 12.0833L9.06448 13.3233L8.35448 14.0333L7.12448 12.7833C6.34448 12.0033 5.07448 12.0033 4.29448 12.7833L1.11448 15.9633C0.33448 16.7433 0.33448 18.0133 1.11448 18.7933L4.65448 22.3333C5.43448 23.1133 6.70448 23.1133 7.48448 22.3333L10.6645 19.1533C11.4445 18.3733 11.4445 17.1033 10.6645 16.3233L9.42448 15.0833L10.1345 14.3733L11.3745 15.6133C12.1545 16.3933 13.4245 16.3933 14.2045 15.6133L15.6145 14.2033C16.3945 13.4233 16.3945 12.1533 15.6145 11.3733L14.3645 10.1333L15.0745 9.42332L16.3145 10.6633C17.0945 11.4433 18.3645 11.4433 19.1445 10.6633L22.3245 7.48332C23.1045 6.70332 23.1045 5.43332 22.3245 4.65332ZM6.06448 20.9133L2.52448 17.3833L3.58448 16.3233L7.12448 19.8633L6.06448 20.9133ZM8.18448 18.7933L4.64448 15.2533L5.70448 14.1933L9.24448 17.7333L8.18448 18.7933ZM17.7245 9.25332L14.1845 5.71332L15.2445 4.65332L18.7845 8.19332L17.7245 9.25332ZM19.8445 7.13332L16.3045 3.59332L17.3745 2.53332L20.9145 6.07332L19.8445 7.13332Z" fill="currentColor" />
</svg>
