<svg width="24" height="24" viewBox="0 0 24 24" fill="none" xmlns="http://www.w3.org/2000/svg">
    <path d="M14.9377 13.5212C16.0677 11.9712 16.5677 9.94118 15.9177 7.78118C15.2377 5.55118 13.3477 3.80118 11.0677 3.34118C6.41766 2.41118 2.40766 6.43117 3.34766 11.0712C3.80766 13.3612 5.55766 15.2512 7.78766 15.9212C9.94766 16.5712 11.9777 16.0712 13.5277 14.9412L19.0877 20.5012C19.4777 20.8912 20.1077 20.8912 20.4977 20.5012C20.8877 20.1112 20.8877 19.4812 20.4977 19.0912L14.9377 13.5212ZM9.70766 14.2112C7.21766 14.2112 5.20766 12.2012 5.20766 9.71117C5.20766 7.22118 7.21766 5.21117 9.70766 5.21117C12.1977 5.21117 14.2077 7.22118 14.2077 9.71117C14.2077 12.2012 12.1977 14.2112 9.70766 14.2112Z" fill="currentColor" />
    <path d="M10.4977 8.65117L9.70766 6.21117L8.91766 8.65117H6.45766L8.46766 10.2412L7.69766 12.7112L9.70766 11.1812L11.7177 12.7112L10.9477 10.2412L12.9577 8.65117H10.4977Z" fill="currentColor" />
</svg>
