<svg width="24" height="24" viewBox="0 0 24 24" fill="none" xmlns="http://www.w3.org/2000/svg">
    <path d="M19.83 8.00015L17.56 5.73015C17.63 5.31015 17.74 4.92015 17.88 4.58015C17.99 4.32015 18.03 4.02015 17.97 3.71015C17.84 2.99015 17.14 2.49015 16.4 2.50015C14.81 2.53015 13.4 3.31015 12.5 4.50015H7.5C4.46 4.50015 2 6.96015 2 10.0001C2 12.2501 3.37 17.4801 4.08 20.0401C4.32 20.9001 5.11 21.5001 6.01 21.5001H8C9.1 21.5001 10 20.6001 10 19.5001H12C12 20.6001 12.9 21.5001 14 21.5001H16.01C16.89 21.5001 17.67 20.9201 17.93 20.0701L19.18 15.9101L21.32 15.1901C21.73 15.0501 22 14.6701 22 14.2401V9.00015C22 8.45015 21.55 8.00015 21 8.00015H19.83ZM12 9.50015H9C8.45 9.50015 8 9.05015 8 8.50015C8 7.95015 8.45 7.50015 9 7.50015H12C12.55 7.50015 13 7.95015 13 8.50015C13 9.05015 12.55 9.50015 12 9.50015ZM16 11.5001C15.45 11.5001 15 11.0501 15 10.5001C15 9.95015 15.45 9.50015 16 9.50015C16.55 9.50015 17 9.95015 17 10.5001C17 11.0501 16.55 11.5001 16 11.5001Z" fill="currentColor" />
</svg>
