<svg width="24" height="24" viewBox="0 0 24 24" fill="none" xmlns="http://www.w3.org/2000/svg">
    <path d="M16.5 8.74814C16.6 8.74814 16.69 8.75814 16.78 8.75814L3.89 3.32814C3.23 3.05814 2.5 3.53814 2.5 4.25814V7.96814C2.5 8.42814 2.81 8.82814 3.26 8.93814L10.5 10.7481L3.26 12.5581C2.81 12.6681 2.5 13.0681 2.5 13.5281V17.2381C2.5 17.9581 3.23 18.4381 3.89 18.1581L9.5 15.7981C9.5 15.7781 9.5 15.7681 9.5 15.7481C9.5 11.8881 12.64 8.74814 16.5 8.74814Z" fill="currentColor" />
    <path d="M16.5 10.7481C13.74 10.7481 11.5 12.9881 11.5 15.7481C11.5 18.5081 13.74 20.7481 16.5 20.7481C19.26 20.7481 21.5 18.5081 21.5 15.7481C21.5 12.9881 19.26 10.7481 16.5 10.7481ZM17.79 17.7481L16.14 16.0981C16.05 16.0081 15.99 15.8781 15.99 15.7481V13.2481C15.99 12.9681 16.21 12.7481 16.49 12.7481C16.77 12.7481 16.99 12.9681 16.99 13.2481V15.5381L18.49 17.0381C18.69 17.2381 18.69 17.5481 18.49 17.7481C18.3 17.9481 17.99 17.9481 17.79 17.7481Z" fill="currentColor" />
</svg>
