<svg width="24" height="24" viewBox="0 0 24 24" fill="none" xmlns="http://www.w3.org/2000/svg">
<path d="M13.5 10.5V11H10.5V10.5C10.5 9.67 9.83 9 9 9H8V7H9C9.83 7 10.5 6.33 10.5 5.5V2.5C10.5 1.67 9.83 1 9 1H5C4.17 1 3.5 1.67 3.5 2.5V5.5C3.5 6.33 4.17 7 5 7H6V9H5C4.17 9 3.5 9.67 3.5 10.5V13.5C3.5 14.33 4.17 15 5 15H6V17H5C4.17 17 3.5 17.67 3.5 18.5V21.5C3.5 22.33 4.17 23 5 23H9C9.83 23 10.5 22.33 10.5 21.5V18.5C10.5 17.67 9.83 17 9 17H8V15H9C9.83 15 10.5 14.33 10.5 13.5V13H13.5V13.5C13.5 14.33 14.17 15 15 15H19C19.83 15 20.5 14.33 20.5 13.5V10.5C20.5 9.67 19.83 9 19 9H15C14.17 9 13.5 9.67 13.5 10.5Z" fill="black"/>
</svg>
