<svg  viewBox="0 0 24 24" fill="none" xmlns="http://www.w3.org/2000/svg">
<path d="M4.45376 13.1754V15.9854C4.45376 16.7154 4.85376 17.3954 5.49376 17.7454L10.4938 20.4754C11.0938 20.8054 11.8138 20.8054 12.4138 20.4754L17.4138 17.7454C18.0538 17.3954 18.4538 16.7154 18.4538 15.9854V13.1754L12.4138 16.4754C11.8138 16.8054 11.0938 16.8054 10.4938 16.4754L4.45376 13.1754ZM10.4938 3.51539L2.06376 8.11539C1.37376 8.49539 1.37376 9.49539 2.06376 9.87539L10.4938 14.4754C11.0938 14.8054 11.8138 14.8054 12.4138 14.4754L20.4538 10.0854V15.9954C20.4538 16.5454 20.9038 16.9954 21.4538 16.9954C22.0038 16.9954 22.4538 16.5454 22.4538 15.9954V9.58539C22.4538 9.21539 22.2538 8.88539 21.9338 8.70539L12.4138 3.51539C11.8138 3.19539 11.0938 3.19539 10.4938 3.51539Z" fill="currentColor"/>
</svg>
