<svg  viewBox="0 0 24 24" fill="none" xmlns="http://www.w3.org/2000/svg">
<path d="M20.8822 11.8597L20.5322 11.5097C20.1422 11.1197 19.5122 11.1197 19.1222 11.5097C18.7322 11.8997 18.7322 12.5297 19.1222 12.9197L19.4722 13.2697L15.2322 17.5097L7.45219 9.72971L11.6922 5.48971L12.0422 5.83971C12.4322 6.22971 13.0622 6.22971 13.4522 5.83971C13.8422 5.44971 13.8422 4.81971 13.4522 4.42971L13.1022 4.06971C12.3122 3.27971 11.0722 3.27971 10.2822 4.06971L6.04219 8.31971C5.26219 9.09971 5.26219 10.3697 6.04219 11.1497L13.8222 18.9297C14.6122 19.7197 15.8522 19.7197 16.6422 18.9297L20.8822 14.6897C21.6722 13.9097 21.6722 12.6397 20.8822 11.8597Z" fill="currentColor"/>
<path d="M11.3222 18.3497C11.0122 18.0397 10.4722 18.2597 10.4722 18.7097V20.2397C7.30219 19.4197 4.88219 16.6997 4.52219 13.3797C4.46219 12.8697 4.03219 12.4997 3.53219 12.4997C2.93219 12.4997 2.46219 13.0297 2.53219 13.6197C3.09219 18.6097 7.34219 22.4997 12.4722 22.4997C13.0622 22.4997 13.6422 22.4397 14.2022 22.3397C14.6022 22.2697 14.7522 21.7797 14.4722 21.4897L11.3222 18.3497Z" fill="currentColor"/>
<path d="M16.4722 9.49971H20.4722C21.0222 9.49971 21.4722 9.04971 21.4722 8.49971V5.49971C21.4722 4.94971 21.0222 4.49971 20.4722 4.49971V3.60971C20.4722 2.60971 19.7922 1.68971 18.8122 1.52971C17.5522 1.31971 16.4722 2.28971 16.4722 3.49971V4.49971C15.9222 4.49971 15.4722 4.94971 15.4722 5.49971V8.49971C15.4722 9.04971 15.9222 9.49971 16.4722 9.49971ZM17.4722 3.49971C17.4722 2.94971 17.9222 2.49971 18.4722 2.49971C19.0222 2.49971 19.4722 2.94971 19.4722 3.49971V4.49971H17.4722V3.49971Z" fill="currentColor"/>
</svg>
