<svg  viewBox="0 0 24 24" fill="none" xmlns="http://www.w3.org/2000/svg">
<path d="M10.23 1.73974C9.64001 1.14974 8.69001 1.14974 8.11001 1.73974L1.75001 8.09974C1.16001 8.68974 1.16001 9.63974 1.75001 10.2197L13.77 22.2397C14.36 22.8297 15.31 22.8297 15.89 22.2397L22.25 15.8797C22.84 15.2897 22.84 14.3397 22.25 13.7597L10.23 1.73974ZM14.12 20.4697L3.52001 9.86975C3.13001 9.47974 3.13001 8.84975 3.52001 8.45975L8.47001 3.50974C8.86001 3.11974 9.49001 3.11974 9.88001 3.50974L20.49 14.1197C20.88 14.5097 20.88 15.1397 20.49 15.5297L15.54 20.4797C15.15 20.8597 14.51 20.8597 14.12 20.4697ZM17.61 1.38974C16.04 0.559745 14.06 -0.0402551 11.81 0.00974491C11.63 0.00974491 11.55 0.229745 11.67 0.359745L15.15 3.83974L16.48 2.50974C19.57 3.96974 21.82 6.87975 22.37 10.3697C22.43 10.7797 22.81 11.0597 23.23 10.9897C23.64 10.9297 23.92 10.5397 23.85 10.1297C23.25 6.32975 20.89 3.12975 17.61 1.38974ZM8.85001 20.1497L7.52001 21.4797C4.43001 20.0197 2.18001 17.1097 1.63001 13.6197C1.57001 13.2097 1.19001 12.9297 0.770013 12.9997C0.360013 13.0597 0.0800133 13.4497 0.150013 13.8597C0.750013 17.6697 3.11001 20.8697 6.39001 22.6097C7.96001 23.4397 9.94001 24.0397 12.19 23.9897C12.37 23.9897 12.45 23.7697 12.33 23.6397L8.85001 20.1497Z" fill="currentColor"/>
</svg>
