<svg width="24" height="24" viewBox="0 0 24 24" fill="none" xmlns="http://www.w3.org/2000/svg">
    <path d="M16.9663 14.4721H16.1763L15.8963 14.2021C17.0963 12.8021 17.7163 10.8921 17.3763 8.86207C16.9063 6.08207 14.5863 3.87207 11.7963 3.52207C8.00625 3.05207 4.76625 5.85207 4.49625 9.47207H6.51625C6.75625 7.35207 8.43625 5.67207 10.5763 5.49207C13.1163 5.27207 15.4663 7.42207 15.4663 9.97207C15.4663 12.4621 13.4563 14.4721 10.9663 14.4721C10.7963 14.4721 10.6363 14.4421 10.4663 14.4221V16.4421C10.4663 16.4421 10.4663 16.4421 10.4763 16.4521C12.2763 16.5821 13.9463 15.9821 15.1963 14.9021L15.4663 15.1821V15.9721L19.7163 20.2221C20.1263 20.6321 20.7963 20.6321 21.2063 20.2221C21.6163 19.8121 21.6163 19.1421 21.2063 18.7321L16.9663 14.4721Z" fill="currentColor" />
    <path d="M7.58625 11.6421L5.46625 13.7621L3.34625 11.6421C3.14625 11.4421 2.83625 11.4421 2.63625 11.6421C2.43625 11.8421 2.43625 12.1521 2.63625 12.3521L4.75625 14.4721L2.63625 16.5921C2.43625 16.7921 2.43625 17.1021 2.63625 17.3021C2.83625 17.5021 3.14625 17.5021 3.34625 17.3021L5.46625 15.1821L7.58625 17.3021C7.78625 17.5021 8.09625 17.5021 8.29625 17.3021C8.49625 17.1021 8.49625 16.7921 8.29625 16.5921L6.17625 14.4721L8.29625 12.3521C8.49625 12.1521 8.49625 11.8421 8.29625 11.6421C8.09625 11.4521 7.78625 11.4521 7.58625 11.6421Z" fill="currentColor" />
</svg>
