<svg  viewBox="0 0 24 24" fill="none" xmlns="http://www.w3.org/2000/svg">
<path d="M11.995 17C12.5473 17 12.995 16.5523 12.995 16C12.995 15.4477 12.5473 15 11.995 15C11.4427 15 10.995 15.4477 10.995 16C10.995 16.5523 11.4427 17 11.995 17Z" fill="currentColor"/>
<path d="M11.995 13C12.545 13 12.995 12.55 12.995 12V8C12.995 7.45 12.545 7 11.995 7C11.445 7 10.995 7.45 10.995 8V12C10.995 12.55 11.445 13 11.995 13Z" fill="currentColor"/>
<path d="M16.995 1H6.995C5.895 1 5.005 1.9 5.005 3V21C5.005 22.1 5.895 23 6.995 23H16.995C18.095 23 18.995 22.1 18.995 21V3C18.995 1.9 18.095 1 16.995 1ZM16.995 18H6.995V6H16.995V18Z" fill="currentColor"/>
</svg>
