<svg  viewBox="0 0 24 24" fill="none" xmlns="http://www.w3.org/2000/svg">
<path d="M15.6044 18H5.60437V6H15.6044C15.6044 6.55 16.0544 7 16.6044 7C17.1544 7 17.6044 6.55 17.6044 6V3C17.6044 1.9 16.7044 1 15.6044 1L5.60437 1.01C4.50437 1.01 3.60437 1.9 3.60437 3V21C3.60437 22.1 4.50437 23 5.60437 23H15.6044C16.7044 23 17.6044 22.1 17.6044 21V18C17.6044 17.45 17.1544 17 16.6044 17C16.0544 17 15.6044 17.45 15.6044 18Z" fill="currentColor"/>
<path d="M20.2544 11.65L17.4644 8.86C17.1444 8.54 16.6044 8.76 16.6044 9.21V11H12.6044C12.0544 11 11.6044 11.45 11.6044 12C11.6044 12.55 12.0544 13 12.6044 13H16.6044V14.79C16.6044 15.24 17.1444 15.46 17.4544 15.14L20.2444 12.35C20.4444 12.16 20.4444 11.84 20.2544 11.65Z" fill="currentColor"/>
</svg>
