<svg width="24" height="24" viewBox="0 0 24 24" fill="none" xmlns="http://www.w3.org/2000/svg">
    <path d="M16.5 11C13.74 11 11.5 13.24 11.5 16C11.5 18.76 13.74 21 16.5 21C19.26 21 21.5 18.76 21.5 16C21.5 13.24 19.26 11 16.5 11ZM18.65 16.85L16.86 18.64C16.66 18.84 16.35 18.84 16.15 18.64L14.36 16.85C14.04 16.54 14.26 16 14.71 16H16V13.5C16 13.22 16.22 13 16.5 13C16.78 13 17 13.22 17 13.5V16H18.29C18.74 16 18.96 16.54 18.65 16.85Z" fill="currentColor" />
    <path d="M16.5 9C16.6 9 16.69 9.01 16.78 9.01L2.5 3V9L10.5 11L2.5 13V19L9.5 16.05C9.5 16.03 9.5 16.02 9.5 16C9.5 12.13 12.63 9 16.5 9Z" fill="currentColor" />
</svg>
