<svg  viewBox="0 0 24 24" fill="none" xmlns="http://www.w3.org/2000/svg">
    <path d="M5.77631 17.6101C5.35631 18.0301 4.65631 18.0001 4.27631 17.5301C2.91631 15.8201 2.09631 13.6501 2.09631 11.2901C2.09631 9.25008 2.70631 7.36008 3.75631 5.78008L2.19631 4.22008C1.80631 3.83008 1.80631 3.20008 2.19631 2.81008C2.58631 2.42008 3.21631 2.42008 3.60631 2.81008L20.5763 19.7801C20.9663 20.1701 20.9663 20.8001 20.5763 21.1901C20.1863 21.5801 19.5563 21.5801 19.1663 21.1901L8.23631 10.2501C8.14631 10.5801 8.09631 10.9301 8.09631 11.2901C8.09631 12.0901 8.33631 12.8401 8.73631 13.4601C9.00631 13.8701 8.97631 14.4001 8.63631 14.7501C8.20631 15.1801 7.46631 15.1501 7.12631 14.6401C6.47631 13.6901 6.09631 12.5301 6.09631 11.2901C6.09631 10.3601 6.30631 9.49008 6.67631 8.70008L5.20631 7.23008C4.49631 8.42008 4.09631 9.81008 4.09631 11.2901C4.09631 13.1801 4.75631 14.9201 5.85631 16.2901C6.17631 16.6801 6.13631 17.2501 5.77631 17.6101ZM15.5563 7.83008C15.2063 8.18008 15.1863 8.71008 15.4463 9.12008C15.8563 9.74008 16.0963 10.4901 16.0963 11.2901C16.0963 11.6501 16.0463 12.0001 15.9563 12.3301L17.5063 13.8801C17.8863 13.0901 18.0963 12.2201 18.0963 11.2901C18.0963 10.0501 17.7163 8.89008 17.0663 7.93008C16.7263 7.43008 15.9963 7.39008 15.5563 7.83008ZM18.4163 4.97008C18.0563 5.33008 18.0163 5.89008 18.3363 6.29008C19.4363 7.66008 20.0963 9.40008 20.0963 11.2901C20.0963 12.7701 19.6963 14.1601 18.9863 15.3501L20.4363 16.8001C21.4863 15.2201 22.0963 13.3301 22.0963 11.2901C22.0963 8.93008 21.2763 6.76008 19.9163 5.05008C19.5363 4.58008 18.8363 4.55008 18.4163 4.97008Z" fill="currentColor" />
</svg>
