<svg  viewBox="0 0 24 24" fill="none" xmlns="http://www.w3.org/2000/svg">
<path d="M20.3 17.6098L3.83 18.4698C3.42 18.4898 3.06 18.1698 3.04 17.7598C3.02 17.3498 3.34 16.9898 3.75 16.9698L20.23 16.1098C20.64 16.0898 21 16.4098 21.02 16.8198C21.04 17.2298 20.72 17.5898 20.3 17.6098ZM20.25 19.4898H3.75C3.34 19.4898 3 19.8298 3 20.2398C3 20.6498 3.34 20.9898 3.75 20.9898H20.25C20.66 20.9898 21 20.6498 21 20.2398C21 19.8298 20.66 19.4898 20.25 19.4898ZM22 5.00977V12.0098C22 13.1098 21.1 14.0098 20 14.0098H4C2.9 14.0098 2 13.1098 2 12.0098V5.00977C2 3.90977 2.9 3.00977 4 3.00977H20C21.1 3.00977 22 3.90977 22 5.00977ZM19.12 6.09977C17.87 6.36977 16.93 7.20977 16.79 8.23977C16.15 7.50977 14.06 5.50977 10.25 5.50977C6.81 5.50977 4.77 7.13977 3.94 7.99977C3.66 8.28977 3.66 8.73977 3.94 9.02977C4.77 9.88977 6.81 11.5198 10.25 11.5198C14.06 11.5198 16.15 9.51977 16.79 8.78977C16.93 9.80977 17.87 10.6498 19.12 10.9298C19.58 11.0298 20 10.6498 20 10.1898V6.84977C20 6.37977 19.57 5.99977 19.12 6.09977Z" fill="currentColor"/>
</svg>
