<svg  viewBox="0 0 24 24" fill="none" xmlns="http://www.w3.org/2000/svg">
    <path d="M8.00238 23C8.55238 23 9.00238 22.55 9.00238 22C9.00238 21.45 8.55238 21 8.00238 21C7.45238 21 7.00238 21.45 7.00238 22C7.00238 22.55 7.45238 23 8.00238 23ZM12.0024 23C12.5524 23 13.0024 22.55 13.0024 22C13.0024 21.45 12.5524 21 12.0024 21C11.4524 21 11.0024 21.45 11.0024 22C11.0024 22.55 11.4524 23 12.0024 23ZM12.0024 1C11.4524 1 11.0024 1.45 11.0024 2V10C11.0024 10.55 11.4524 11 12.0024 11C12.5524 11 13.0024 10.55 13.0024 10V2C13.0024 1.45 12.5524 1 12.0024 1ZM15.9424 4.06L15.9224 4.08C15.5124 4.49 15.5624 5.16 16.0024 5.54C17.5124 6.88 18.3324 8.97 17.8824 11.24C17.4224 13.52 15.5924 15.38 13.3224 15.86C9.43238 16.69 6.00238 13.74 6.00238 10C6.00238 8.22 6.78238 6.63 8.01238 5.53C8.44238 5.14 8.48238 4.49 8.08238 4.08L8.06238 4.06C7.69238 3.69 7.10238 3.67 6.70238 4.02C4.69238 5.79 3.58238 8.55 4.14238 11.54C4.73238 14.69 7.25238 17.24 10.4024 17.85C15.5224 18.84 20.0024 14.95 20.0024 10C20.0024 7.62 18.9524 5.48 17.2924 4.01C16.9024 3.67 16.3124 3.69 15.9424 4.06ZM16.0024 23C16.5524 23 17.0024 22.55 17.0024 22C17.0024 21.45 16.5524 21 16.0024 21C15.4524 21 15.0024 21.45 15.0024 22C15.0024 22.55 15.4524 23 16.0024 23Z" fill="currentColor" />
</svg>
