<svg width="24" height="24" viewBox="0 0 24 24" fill="none" xmlns="http://www.w3.org/2000/svg">
    <path d="M11.7682 3.00142C9.11825 3.07142 6.76825 4.28142 5.16825 6.16142L3.84825 4.85142C3.53825 4.54142 2.99825 4.76142 2.99825 5.21142V9.50142C2.99825 9.78142 3.21825 10.0014 3.49825 10.0014H7.78825C8.23825 10.0014 8.45825 9.46142 8.13825 9.15142L6.58825 7.59142C7.87825 6.02142 9.81824 5.00142 11.9982 5.00142C16.3182 5.00142 19.7382 8.94142 18.8582 13.4114C18.3182 16.1814 16.0482 18.3914 13.2782 18.8814C9.47824 19.5614 6.09825 17.1414 5.22825 13.7214C5.10825 13.3014 4.70825 13.0014 4.26825 13.0014C3.61825 13.0014 3.12825 13.6114 3.28825 14.2314C4.27825 18.1214 7.79825 21.0014 11.9982 21.0014C17.0582 21.0014 21.1382 16.8314 20.9982 11.7414C20.8582 6.86142 16.6482 2.88142 11.7682 3.00142ZM13.9982 12.0014C13.9982 10.9014 13.0982 10.0014 11.9982 10.0014C10.8982 10.0014 9.99825 10.9014 9.99825 12.0014C9.99825 13.1014 10.8982 14.0014 11.9982 14.0014C13.0982 14.0014 13.9982 13.1014 13.9982 12.0014Z" fill="currentColor" />
</svg>
