<svg width="24" height="24" viewBox="0 0 24 24" fill="none" xmlns="http://www.w3.org/2000/svg">
    <path d="M12.65 24C13.2023 24 13.65 23.5523 13.65 23C13.65 22.4477 13.2023 22 12.65 22C12.0977 22 11.65 22.4477 11.65 23C11.65 23.5523 12.0977 24 12.65 24Z" fill="currentColor" />
    <path d="M8.65 24C9.20228 24 9.65 23.5523 9.65 23C9.65 22.4477 9.20228 22 8.65 22C8.09771 22 7.65 22.4477 7.65 23C7.65 23.5523 8.09771 24 8.65 24Z" fill="currentColor" />
    <path d="M16.65 24C17.2023 24 17.65 23.5523 17.65 23C17.65 22.4477 17.2023 22 16.65 22C16.0977 22 15.65 22.4477 15.65 23C15.65 23.5523 16.0977 24 16.65 24Z" fill="currentColor" />
    <path d="M14.06 10L17.65 6.42C18.04 6.03 18.04 5.4 17.65 5L12.86 0.21C12.72 0.07 12.54 0 12.36 0C11.97 0 11.65 0.32 11.65 0.71V7.59L7.76 3.71C7.37 3.32 6.74 3.32 6.35 3.71C5.96 4.1 5.96 4.73 6.35 5.12L11.24 10L6.35 14.89C5.96 15.28 5.96 15.91 6.35 16.3C6.74 16.69 7.37 16.69 7.76 16.3L11.65 12.41V19.29C11.65 19.68 11.97 20 12.36 20C12.55 20 12.73 19.93 12.86 19.79L17.65 15C18.04 14.61 18.04 13.98 17.65 13.58L14.06 10ZM13.65 3.83L15.53 5.71L13.65 7.59V3.83ZM13.65 16.17V12.41L15.53 14.29L13.65 16.17Z" fill="currentColor" />
</svg>
