<svg  viewBox="0 0 24 24" fill="none" xmlns="http://www.w3.org/2000/svg">
<path d="M17.8304 7.6209L17.2004 6.2209L15.8004 5.5909C15.4104 5.4109 15.4104 4.8609 15.8004 4.6809L17.2004 4.0509L17.8304 2.6509C18.0104 2.2609 18.5604 2.2609 18.7404 2.6509L19.3704 4.0509L20.7704 4.6809C21.1604 4.8609 21.1604 5.4109 20.7704 5.5909L19.3704 6.2209L18.7404 7.6209C18.5704 8.0109 18.0104 8.0109 17.8304 7.6209ZM21.0704 12.3509L20.7504 11.6309C20.5704 11.2409 20.0204 11.2409 19.8404 11.6309L19.5204 12.3509L18.7904 12.6709C18.4004 12.8509 18.4004 13.4009 18.7904 13.5809L19.5104 13.9009L19.8304 14.6309C20.0104 15.0209 20.5604 15.0209 20.7404 14.6309L21.0604 13.9109L21.7904 13.5909C22.1804 13.4109 22.1804 12.8609 21.7904 12.6809L21.0704 12.3509ZM16.0304 14.0009L17.2604 14.9309C17.6604 15.2309 17.7704 15.7909 17.5204 16.2309L15.9004 19.0309C15.6504 19.4709 15.1104 19.6509 14.6504 19.4509L13.2204 18.8509C13.0204 18.9809 12.8004 19.1109 12.5804 19.2209L12.3904 20.7609C12.3304 21.2609 11.9004 21.6409 11.4004 21.6409H8.17041C7.67041 21.6409 7.24041 21.2609 7.18041 20.7609L6.99041 19.2209C6.77041 19.1109 6.56041 18.9909 6.35041 18.8509L4.92041 19.4509C4.46041 19.6509 3.92041 19.4709 3.67041 19.0309L2.05041 16.2309C1.80041 15.7909 1.91041 15.2409 2.31041 14.9309L3.54041 14.0009C3.54041 13.8809 3.54041 13.7509 3.54041 13.6309C3.54041 13.5109 3.54041 13.3809 3.55041 13.2609L2.32041 12.3309C1.92041 12.0309 1.81041 11.4709 2.06041 11.0309L3.68041 8.2309C3.93041 7.7909 4.47041 7.6109 4.93041 7.8109L6.36041 8.4109C6.56041 8.2809 6.78041 8.1509 7.00041 8.0409L7.19041 6.5009C7.24041 6.0109 7.67041 5.6309 8.17041 5.6309H11.4004C11.9004 5.6309 12.3304 6.0109 12.3904 6.5109L12.5804 8.0509C12.8004 8.1609 13.0104 8.2809 13.2204 8.4209L14.6504 7.8209C15.1104 7.6209 15.6504 7.8009 15.9004 8.2409L17.5204 11.0409C17.7704 11.4809 17.6604 12.0309 17.2604 12.3409L16.0304 13.2709C16.0404 13.3909 16.0404 13.5109 16.0404 13.6409C16.0404 13.7709 16.0404 13.8809 16.0304 14.0009ZM12.7904 13.6309C12.7904 11.9709 11.4504 10.6309 9.79041 10.6309C8.13041 10.6309 6.79041 11.9709 6.79041 13.6309C6.79041 15.2909 8.13041 16.6309 9.79041 16.6309C11.4504 16.6309 12.7904 15.2909 12.7904 13.6309Z" fill="currentColor"/>
</svg>
