<svg width="24" height="24" viewBox="0 0 24 24" fill="none" xmlns="http://www.w3.org/2000/svg">
    <path d="M20.74 4.96C20.61 4.43 20.07 4.11 19.54 4.23C17.16 4.77 14.49 5 12 5C9.50996 5 6.83996 4.77 4.45996 4.24C3.91996 4.12 3.38996 4.43 3.25996 4.97L3.23996 5.02C3.10996 5.56 3.42996 6.12 3.96996 6.24C5.58996 6.61 7.33996 6.86 8.99996 7V18C8.99996 18.55 9.44996 19 9.99996 19C10.55 19 11 18.55 11 18V13H13V18C13 18.55 13.45 19 14 19C14.55 19 15 18.55 15 18V7C16.66 6.86 18.41 6.61 20.03 6.24C20.57 6.12 20.89 5.56 20.76 5.02L20.74 4.96ZM12 4C13.1 4 14 3.1 14 2C14 0.9 13.1 0 12 0C10.9 0 9.99996 0.9 9.99996 2C9.99996 3.1 10.9 4 12 4ZM7.99996 24C8.54996 24 8.99996 23.55 8.99996 23C8.99996 22.45 8.54996 22 7.99996 22C7.44996 22 6.99996 22.45 6.99996 23C6.99996 23.55 7.44996 24 7.99996 24ZM12 24C12.55 24 13 23.55 13 23C13 22.45 12.55 22 12 22C11.45 22 11 22.45 11 23C11 23.55 11.45 24 12 24ZM16 24C16.55 24 17 23.55 17 23C17 22.45 16.55 22 16 22C15.45 22 15 22.45 15 23C15 23.55 15.45 24 16 24Z" fill="currentColor" />
</svg>
