<svg  viewBox="0 0 24 24" fill="none" xmlns="http://www.w3.org/2000/svg">
    <path d="M15.005 9.5H9.005C8.455 9.5 8.005 9.95 8.005 10.5V22.5C8.005 23.05 8.455 23.5 9.005 23.5H15.005C15.555 23.5 16.005 23.05 16.005 22.5V10.5C16.005 9.95 15.555 9.5 15.005 9.5ZM12.005 14.75C11.315 14.75 10.755 14.19 10.755 13.5C10.755 12.81 11.315 12.25 12.005 12.25C12.695 12.25 13.255 12.81 13.255 13.5C13.255 14.19 12.695 14.75 12.005 14.75Z" fill="currentColor" />
    <path d="M7.825 7.32C8.175 7.67 8.725 7.7 9.125 7.42C9.935 6.84 10.935 6.5 12.005 6.5C13.075 6.5 14.075 6.84 14.885 7.41C15.285 7.69 15.835 7.67 16.185 7.32C16.615 6.89 16.575 6.17 16.095 5.82C14.945 4.99 13.535 4.5 12.005 4.5C10.475 4.5 9.065 4.99 7.915 5.82C7.425 6.17 7.395 6.89 7.825 7.32Z" fill="currentColor" />
    <path d="M12.005 0.5C9.365 0.5 6.945 1.43 5.055 2.97C4.595 3.35 4.555 4.04 4.975 4.46C5.335 4.82 5.905 4.85 6.295 4.53C7.845 3.27 9.835 2.5 12.005 2.5C14.175 2.5 16.165 3.27 17.705 4.54C18.095 4.86 18.665 4.83 19.025 4.47C19.445 4.05 19.405 3.36 18.945 2.98C17.065 1.43 14.645 0.5 12.005 0.5Z" fill="currentColor" />
</svg>
