<svg  viewBox="0 0 24 24" fill="none" xmlns="http://www.w3.org/2000/svg">
    <path d="M11.9993 5.50366C8.51926 5.50366 5.62925 8.04366 5.08925 11.3737C4.98925 11.9637 5.47925 12.5037 6.08925 12.5037C6.57926 12.5037 6.98925 12.1437 7.06925 11.6537C7.47925 9.29366 9.52925 7.50366 11.9993 7.50366C14.4693 7.50366 16.5193 9.29366 16.9293 11.6537C17.0093 12.1437 17.4193 12.5037 17.9093 12.5037C18.5193 12.5037 18.9993 11.9637 18.8993 11.3737C18.3693 8.04366 15.4793 5.50366 11.9993 5.50366ZM12.9993 14.7937C14.0693 14.3137 14.7593 13.1337 14.4093 11.8037C14.1893 10.9937 13.5393 10.3337 12.7293 10.1037C11.0393 9.62366 9.49926 10.8837 9.49926 12.5037C9.49926 13.5237 10.1193 14.4037 10.9993 14.7937V18.0937L8.28925 20.7937C7.89925 21.1837 7.89925 21.8137 8.28925 22.2037C8.67925 22.5937 9.30925 22.5937 9.69925 22.2037L11.9993 19.9037L14.2993 22.2037C14.6893 22.5937 15.3193 22.5937 15.7093 22.2037C16.0993 21.8137 16.0993 21.1837 15.7093 20.7937L12.9993 18.0937V14.7937ZM11.9993 1.50366C6.29926 1.50366 1.60925 5.84366 1.04925 11.4037C0.999255 11.9937 1.45925 12.5037 2.04925 12.5037C2.55925 12.5037 2.98925 12.1237 3.03925 11.6237C3.47925 7.06366 7.32926 3.50366 11.9993 3.50366C16.6693 3.50366 20.5193 7.06366 20.9593 11.6237C21.0093 12.1237 21.4393 12.5037 21.9493 12.5037C22.5393 12.5037 23.0093 11.9937 22.9493 11.4037C22.3893 5.84366 17.6993 1.50366 11.9993 1.50366Z" fill="currentColor" />
</svg>
