<svg width="24" height="24" viewBox="0 0 24 24" fill="none" xmlns="http://www.w3.org/2000/svg">
    <path d="M12.0007 10.9993C12.553 10.9993 13.0007 10.5516 13.0007 9.99927C13.0007 9.44698 12.553 8.99927 12.0007 8.99927C11.4484 8.99927 11.0007 9.44698 11.0007 9.99927C11.0007 10.5516 11.4484 10.9993 12.0007 10.9993Z" fill="currentColor" />
    <path d="M16.0007 10.9993C16.553 10.9993 17.0007 10.5516 17.0007 9.99927C17.0007 9.44698 16.553 8.99927 16.0007 8.99927C15.4484 8.99927 15.0007 9.44698 15.0007 9.99927C15.0007 10.5516 15.4484 10.9993 16.0007 10.9993Z" fill="currentColor" />
    <path d="M20.0007 10.9993C20.553 10.9993 21.0007 10.5516 21.0007 9.99927C21.0007 9.44698 20.553 8.99927 20.0007 8.99927C19.4484 8.99927 19.0007 9.44698 19.0007 9.99927C19.0007 10.5516 19.4484 10.9993 20.0007 10.9993Z" fill="currentColor" />
    <path d="M15.6307 14.3993L13.1107 16.8993C10.6107 15.4693 8.54069 13.3993 7.11069 10.8993L9.61069 8.37927C9.84069 8.13927 9.94069 7.80927 9.88069 7.47927L9.13069 3.79927C9.04069 3.33927 8.63069 2.99927 8.15069 2.99927H4.00069C3.44069 2.99927 2.97069 3.46927 3.00069 4.02927C3.17069 6.91927 4.05069 9.62927 5.43069 11.9993C7.01069 14.7293 9.28069 16.9893 12.0007 18.5693C14.3707 19.9393 17.0807 20.8293 19.9707 20.9993C20.5307 21.0293 21.0007 20.5593 21.0007 19.9993V15.8493C21.0007 15.3693 20.6607 14.9593 20.2007 14.8693L16.5307 14.1393C16.2007 14.0693 15.8607 14.1693 15.6307 14.3993Z" fill="currentColor" />
</svg>
