<svg  viewBox="0 0 24 24" fill="none" xmlns="http://www.w3.org/2000/svg">
    <path d="M7.70998 6.70563C7.31998 6.31563 6.68998 6.31563 6.29998 6.70563L1.70998 11.2956C1.31998 11.6856 1.31998 12.3156 1.70998 12.7056L6.29998 17.2956C6.68998 17.6856 7.31998 17.6856 7.70998 17.2956C8.09998 16.9056 8.09998 16.2756 7.70998 15.8856L3.82998 11.9956L7.70998 8.11563C8.08998 7.72563 8.08998 7.08563 7.70998 6.70563ZM16.29 6.70563C15.9 7.09563 15.9 7.72563 16.29 8.11563L20.17 11.9956L16.29 15.8756C15.9 16.2656 15.9 16.8956 16.29 17.2856C16.68 17.6756 17.31 17.6756 17.7 17.2856L22.29 12.6956C22.68 12.3056 22.68 11.6756 22.29 11.2856L17.7 6.69563C17.32 6.31563 16.68 6.31563 16.29 6.70563ZM7.99998 12.9956C8.54998 12.9956 8.99998 12.5456 8.99998 11.9956C8.99998 11.4456 8.54998 10.9956 7.99998 10.9956C7.44998 10.9956 6.99998 11.4456 6.99998 11.9956C6.99998 12.5456 7.44998 12.9956 7.99998 12.9956ZM12 12.9956C12.55 12.9956 13 12.5456 13 11.9956C13 11.4456 12.55 10.9956 12 10.9956C11.45 10.9956 11 11.4456 11 11.9956C11 12.5456 11.45 12.9956 12 12.9956ZM16 10.9956C15.45 10.9956 15 11.4456 15 11.9956C15 12.5456 15.45 12.9956 16 12.9956C16.55 12.9956 17 12.5456 17 11.9956C17 11.4456 16.55 10.9956 16 10.9956Z" fill="currentColor" />
</svg>
