<svg width="24" height="24" viewBox="0 0 24 24" fill="none" xmlns="http://www.w3.org/2000/svg">
<path d="M13.103 20.7648C13.103 21.4048 13.693 21.8948 14.313 21.7548C15.433 21.4948 16.493 21.0548 17.433 20.4548C17.963 20.1148 18.043 19.3548 17.593 18.9048C17.273 18.5848 16.763 18.5048 16.383 18.7448C15.613 19.2348 14.763 19.5948 13.853 19.7948C13.403 19.8948 13.103 20.3048 13.103 20.7648Z" fill="black"/>
<path d="M4.11304 11.9948C4.11304 8.20476 6.76304 5.02476 10.313 4.20476C10.753 4.10476 11.063 3.69476 11.063 3.24476C11.063 2.60476 10.463 2.11476 9.84304 2.26476C5.41304 3.28476 2.11304 7.25476 2.11304 11.9948C2.11304 16.7348 5.41304 20.7048 9.84304 21.7348C10.463 21.8848 11.063 21.3948 11.063 20.7548C11.063 20.2948 10.753 19.8948 10.313 19.7948C6.76304 18.9648 4.11304 15.7848 4.11304 11.9948Z" fill="black"/>
<path d="M20.873 10.9948C21.513 10.9948 22.003 10.4048 21.863 9.78476C21.603 8.66476 21.163 7.61476 20.563 6.66476C20.223 6.12476 19.463 6.05476 19.013 6.50476C18.693 6.82476 18.613 7.33476 18.863 7.71476C19.353 8.47476 19.713 9.32476 19.913 10.2448C20.003 10.6948 20.413 10.9948 20.873 10.9948Z" fill="black"/>
<path d="M17.433 3.54476C16.483 2.94476 15.433 2.50476 14.313 2.24476C13.693 2.10476 13.103 2.59476 13.103 3.22476C13.103 3.67476 13.403 4.09476 13.843 4.18476C14.753 4.38476 15.613 4.75476 16.373 5.23476C16.763 5.47476 17.263 5.40476 17.583 5.07476C18.043 4.63476 17.973 3.88476 17.433 3.54476Z" fill="black"/>
<path d="M19.003 17.4848C19.453 17.9348 20.213 17.8648 20.553 17.3248C21.153 16.3848 21.593 15.3248 21.853 14.2048C21.993 13.5848 21.503 12.9948 20.873 12.9948C20.423 12.9948 20.003 13.2948 19.913 13.7348C19.713 14.6448 19.343 15.5048 18.863 16.2648C18.603 16.6548 18.683 17.1648 19.003 17.4848Z" fill="black"/>
<path d="M16.083 11.0948C16.083 8.60476 14.183 6.99476 12.083 6.99476C9.98304 6.99476 8.08304 8.60476 8.08304 11.0948C8.08304 12.6048 9.18304 14.3748 11.393 16.3948C11.783 16.7548 12.373 16.7548 12.773 16.3948C14.983 14.3648 16.083 12.6048 16.083 11.0948ZM12.083 11.9948C11.493 11.9948 11.013 11.5148 11.013 10.9248C11.013 10.3348 11.493 9.85476 12.083 9.85476C12.673 9.85476 13.153 10.3348 13.153 10.9248C13.153 11.5148 12.673 11.9948 12.083 11.9948Z" fill="black"/>
</svg>
