<svg  viewBox="0 0 24 24" fill="none" xmlns="http://www.w3.org/2000/svg">
    <path d="M2 9.5C1.45 9.5 1 9.95 1 10.5V20.5C1 21.6 1.9 22.5 3 22.5H18C18.55 22.5 19 22.05 19 21.5C19 20.95 18.55 20.5 18 20.5H3V10.5C3 9.95 2.55 9.5 2 9.5Z" fill="currentColor" />
    <path d="M18 5.5V3.5C18 2.39 17.11 1.5 16 1.5H12C10.89 1.5 10 2.39 10 3.5V5.5H5V16.5C5 17.61 5.89 18.5 7 18.5H21C22.11 18.5 23 17.61 23 16.5V5.5H18ZM12 3.5H16V5.5H12V3.5ZM12 14.59V9.41C12 9.02 12.44 8.78 12.77 8.99L16.84 11.58C17.15 11.78 17.15 12.23 16.84 12.42L12.77 15.01C12.44 15.22 12 14.98 12 14.59Z" fill="currentColor" />
</svg>
