<svg  viewBox="0 0 24 24" fill="none" xmlns="http://www.w3.org/2000/svg">
<path d="M10.3864 9.17L5.91636 4.7C5.52636 4.31 4.89636 4.31 4.50636 4.7C4.11636 5.09 4.11636 5.72 4.50636 6.11L8.96636 10.57L10.3864 9.17ZM15.1464 4.85L16.3364 6.04L4.49636 17.88C4.10636 18.27 4.10636 18.9 4.49636 19.29C4.88636 19.68 5.51636 19.68 5.90636 19.29L17.7564 7.46L18.9464 8.65C19.2564 8.96 19.7964 8.74 19.7964 8.29V4.5C19.7964 4.22 19.5764 4 19.2964 4H15.5064C15.0564 4 14.8364 4.54 15.1464 4.85ZM14.6264 13.41L13.2164 14.82L16.3464 17.95L15.1464 19.15C14.8364 19.46 15.0564 20 15.5064 20H19.2964C19.5764 20 19.7964 19.78 19.7964 19.5V15.71C19.7964 15.26 19.2564 15.04 18.9464 15.36L17.7564 16.55L14.6264 13.41Z" fill="currentColor"/>
</svg>
