<svg  viewBox="0 0 24 24" fill="none" xmlns="http://www.w3.org/2000/svg">
<path d="M22.5 7C22.5 8.1 21.6 9 20.5 9C19.4 9 18.5 8.1 18.5 7C18.5 6.22 19.49 4.56 20.08 3.64C20.28 3.33 20.72 3.33 20.92 3.64C21.51 4.56 22.5 6.22 22.5 7ZM21.36 10.38C21.44 10.91 21.5 11.45 21.5 12C21.5 17.52 17.02 22 11.49 22C5.97 22 1.5 17.52 1.5 12C1.5 6.48 5.97 2 11.49 2C13.94 2 16.18 2.88 17.92 4.34C17.41 5.29 17 6.27 17 7C17 8.93 18.57 10.5 20.5 10.5C20.8 10.5 21.08 10.45 21.36 10.38ZM13.53 10.03L14.59 11.09C14.88 11.38 15.36 11.38 15.65 11.09C15.94 10.8 15.94 10.32 15.65 10.03L15.12 9.5L15.65 8.97C15.94 8.68 15.94 8.2 15.65 7.91C15.36 7.62 14.88 7.62 14.59 7.91L13.53 8.97C13.24 9.26 13.24 9.74 13.53 10.03ZM7.88 9.5L7.35 10.03C7.06 10.32 7.06 10.8 7.35 11.09C7.64 11.38 8.12 11.38 8.41 11.09L9.47 10.03C9.76 9.74 9.76 9.26 9.47 8.97L8.41 7.91C8.12 7.62 7.64 7.62 7.35 7.91C7.06 8.2 7.06 8.68 7.35 8.97L7.88 9.5ZM15.97 15.8C14.97 14.41 13.35 13.5 11.5 13.5C10.63 13.5 9.81 13.7 9.07 14.06L5.49 12C5.49 11.48 5.23 10.98 4.75 10.71C3.95 10.25 2.91 10.6 2.58 11.51C2.37 12.08 2.55 12.76 3.02 13.15C3.54 13.59 4.22 13.6 4.74 13.31L7.71 15.03C7.46 15.27 7.23 15.53 7.03 15.81C6.67 16.3 7.03 17 7.65 17C7.88 17 8.11 16.9 8.25 16.7C8.97 15.68 10.15 15 11.5 15C12.85 15 14.03 15.68 14.75 16.7C14.89 16.89 15.11 17 15.35 17C15.97 17 16.33 16.3 15.97 15.8Z" fill="currentColor"/>
</svg>
