<svg  viewBox="0 0 24 24" fill="none" xmlns="http://www.w3.org/2000/svg">
<path d="M23.2398 7.70898H17.3198V15.699L13.0298 19.999C12.6398 20.389 12.0098 20.389 11.6098 19.999L1.04982 9.41898C0.63982 9.00898 0.66982 8.33898 1.10982 7.94898C4.09982 5.30898 8.01982 3.70898 12.3198 3.70898C16.4798 3.70898 20.2898 5.21898 23.2398 7.70898ZM20.3198 17.709C19.7698 17.709 19.3198 18.159 19.3198 18.709C19.3198 19.259 19.7698 19.709 20.3198 19.709C20.8698 19.709 21.3198 19.259 21.3198 18.709C21.3198 18.159 20.8698 17.709 20.3198 17.709ZM20.3198 9.70898C19.7698 9.70898 19.3198 10.159 19.3198 10.709V14.709C19.3198 15.259 19.7698 15.709 20.3198 15.709C20.8698 15.709 21.3198 15.259 21.3198 14.709V10.709C21.3198 10.159 20.8698 9.70898 20.3198 9.70898Z" fill="currentColor"/>
</svg>
