<svg  viewBox="0 0 24 24" fill="none" xmlns="http://www.w3.org/2000/svg">
<path d="M19.18 4.39844C19.18 3.29844 18.28 2.39844 17.18 2.39844H11.01C10.48 2.39844 9.97004 2.60844 9.59004 2.98844L8.13004 4.45844L19.18 15.5084V4.39844ZM3.27004 3.83844C2.88004 4.22844 2.88004 4.85844 3.27004 5.24844L5.18004 7.17844V18.3984C5.18004 19.5084 6.08004 20.3984 7.18004 20.3984H18.41L19.32 21.3084C19.71 21.6984 20.34 21.6984 20.73 21.3084C21.12 20.9184 21.12 20.2884 20.73 19.8984L4.68004 3.83844C4.29004 3.44844 3.66004 3.44844 3.27004 3.83844Z" fill="currentColor"/>
</svg>
