<svg width="24" height="24" viewBox="0 0 24 24" fill="none" xmlns="http://www.w3.org/2000/svg">
<path d="M23.2099 7.93922C20.2199 5.29922 16.3 3.69922 12 3.69922C7.69995 3.69922 3.77995 5.29922 0.78995 7.93922C0.34995 8.32922 0.31995 8.99922 0.72995 9.40922L11.29 19.9892C11.4799 20.1792 11.74 20.2792 11.99 20.2792V13.6992C11.99 12.5992 12.8899 11.6992 13.99 11.6992H20.9799L23.27 9.40922C23.68 8.99922 23.65 8.32922 23.2099 7.93922Z" fill="black"/>
<path d="M20.2999 14.4092C19.91 14.0192 19.2799 14.0192 18.8899 14.4092L17.5 15.7892L16.11 14.4092C15.72 14.0192 15.09 14.0192 14.7 14.4092C14.3099 14.7992 14.3099 15.4292 14.7 15.8192L16.09 17.2092L14.7 18.5992C14.3099 18.9892 14.3099 19.6192 14.7 20.0092C15.09 20.3992 15.72 20.3992 16.11 20.0092L17.5 18.6292L18.8899 20.0092C19.2799 20.3992 19.91 20.3992 20.2999 20.0092C20.6899 19.6192 20.6899 18.9892 20.2999 18.5992L18.92 17.2092L20.2999 15.8192C20.6899 15.4292 20.6899 14.7992 20.2999 14.4092Z" fill="black"/>
</svg>
