<svg  viewBox="0 0 24 24" fill="none" xmlns="http://www.w3.org/2000/svg">
<path d="M20.2933 17.2971C20.8433 17.2971 21.2933 16.8471 21.2933 16.2971V10.2971C21.2933 9.74714 20.8433 9.29714 20.2933 9.29714C19.7433 9.29714 19.2933 9.74714 19.2933 10.2971V16.2971C19.2933 16.8471 19.7433 17.2971 20.2933 17.2971ZM20.2933 21.2971C20.8433 21.2971 21.2933 20.8471 21.2933 20.2971C21.2933 19.7471 20.8433 19.2971 20.2933 19.2971C19.7433 19.2971 19.2933 19.7471 19.2933 20.2971C19.2933 20.8471 19.7433 21.2971 20.2933 21.2971ZM3.70326 21.2971H17.2933V10.2971C17.2933 8.63714 18.6333 7.29714 20.2933 7.29714H21.2933V3.70714C21.2933 2.81714 20.2133 2.36714 19.5833 2.99714L3.00326 19.5871C2.37326 20.2171 2.81326 21.2971 3.70326 21.2971Z" fill="currentColor"/>
</svg>
