<svg width="24" height="24" viewBox="0 0 24 24" fill="none" xmlns="http://www.w3.org/2000/svg">
<path d="M21.297 12.2935H14.297C13.197 12.2935 12.297 13.1935 12.297 14.2935V21.2935H3.70701C2.81701 21.2935 2.36701 20.2135 2.99701 19.5835L19.587 3.00351C20.217 2.37351 21.297 2.81351 21.297 3.70351V12.2935ZM19.597 14.0035C19.207 13.6135 18.577 13.6135 18.187 14.0035L16.797 15.3935L15.407 14.0035C15.017 13.6135 14.387 13.6135 13.997 14.0035C13.607 14.3935 13.607 15.0235 13.997 15.4135L15.387 16.8035L13.997 18.1935C13.607 18.5835 13.607 19.2135 13.997 19.6035C14.387 19.9935 15.017 19.9935 15.407 19.6035L16.797 18.2235L18.187 19.6035C18.577 19.9935 19.207 19.9935 19.597 19.6035C19.987 19.2135 19.987 18.5835 19.597 18.1935L18.217 16.8035L19.597 15.4135C19.987 15.0235 19.987 14.3935 19.597 14.0035Z" fill="black"/>
</svg>
