<svg  viewBox="0 0 24 24" fill="none" xmlns="http://www.w3.org/2000/svg">
<path d="M23.2093 7.74C20.2193 5.1 16.2993 3.5 11.9993 3.5C7.69928 3.5 3.77928 5.1 0.789279 7.74C0.349279 8.13 0.319279 8.8 0.729279 9.21L11.2893 19.79C11.6793 20.18 12.3093 20.18 12.7093 19.79L15.0493 17.45V14.5C15.0493 14.05 15.1393 13.62 15.2793 13.21C15.8193 11.64 17.2893 10.5 19.0493 10.5H21.9893L23.2793 9.21C23.6793 8.8 23.6493 8.13 23.2093 7.74Z" fill="currentColor"/>
<path d="M21.9993 15.5V14.5C21.9993 13.4 21.0993 12.5 19.9993 12.5C18.8993 12.5 17.9993 13.4 17.9993 14.5V15.5C17.4493 15.5 16.9993 15.95 16.9993 16.5V19.5C16.9993 20.05 17.4493 20.5 17.9993 20.5H21.9993C22.5493 20.5 22.9993 20.05 22.9993 19.5V16.5C22.9993 15.95 22.5493 15.5 21.9993 15.5ZM20.9993 15.5H18.9993V14.5C18.9993 13.95 19.4493 13.5 19.9993 13.5C20.5493 13.5 20.9993 13.95 20.9993 14.5V15.5Z" fill="currentColor"/>
</svg>
