<svg viewBox="0 0 24 24" fill="none" xmlns="http://www.w3.org/2000/svg">
<path d="M18 5V11H15V5H18ZM18 3H15C13.9 3 13 3.9 13 5V11C13 12.1 13.9 13 15 13H18C19.1 13 20 12.1 20 11V5C20 3.9 19.1 3 18 3ZM11 4C11 3.45 10.55 3 10 3H6C4.9 3 4 3.9 4 5V11C4 12.1 4.9 13 6 13H9C10.1 13 11 12.1 11 11V9C11 7.9 10.1 7 9 7H6V5H10C10.55 5 11 4.55 11 4ZM9 9V11H6V9H9ZM4 21C3.45 21 3 20.55 3 20V17C3 16.45 3.45 16 4 16C4.55 16 5 16.45 5 17V20C5 20.55 4.55 21 4 21ZM8 21C7.45 21 7 20.55 7 20V17C7 16.45 7.45 16 8 16C8.55 16 9 16.45 9 17V20C9 20.55 8.55 21 8 21ZM12 21C11.45 21 11 20.55 11 20V17C11 16.45 11.45 16 12 16C12.55 16 13 16.45 13 17V20C13 20.55 12.55 21 12 21ZM20 21H16C15.45 21 15 20.55 15 20V17C15 16.45 15.45 16 16 16H20C20.55 16 21 16.45 21 17V20C21 20.55 20.55 21 20 21Z" fill="currentColor"/>
</svg>
