<svg  viewBox="0 0 24 24" fill="none" xmlns="http://www.w3.org/2000/svg">
<path d="M13.9069 3.75781C13.9069 4.85781 13.0069 5.75781 11.9069 5.75781C10.8069 5.75781 9.90686 4.85781 9.90686 3.75781C9.90686 2.65781 10.8069 1.75781 11.9069 1.75781C13.0069 1.75781 13.9069 2.65781 13.9069 3.75781ZM18.8269 18.4978C18.6969 18.8878 18.2769 19.1078 17.8769 18.9778L15.2669 18.1278L14.8069 19.5578L18.1269 20.6378C19.4369 21.0678 20.8469 20.3478 21.2769 19.0278C21.6369 17.9078 21.1669 16.7078 20.2069 16.1178C19.8869 15.9178 19.7569 15.5178 19.9069 15.1678C20.1069 14.7278 20.6169 14.5978 21.0269 14.8578C22.5469 15.8078 23.2769 17.7078 22.7069 19.4778C22.0269 21.5778 19.7669 22.7278 17.6669 22.0478L1.64686 16.8578C1.25686 16.7278 1.01686 16.3178 1.12686 15.9278C1.24686 15.5178 1.67686 15.2978 2.07686 15.4278L5.29686 16.4778L5.75686 15.0478L2.56686 14.0078C2.17686 13.8778 1.93686 13.4678 2.04686 13.0778C2.16686 12.6678 2.59686 12.4478 2.99686 12.5778L3.90686 12.8578V10.0778C3.90686 9.27781 4.38686 8.55781 5.11686 8.23781C5.86686 7.91781 9.22686 6.47781 9.37686 6.40781C9.78686 6.22781 10.2669 6.19781 10.7269 6.36781C11.6369 6.70781 12.0969 7.72781 11.7969 8.64781L10.7569 11.8478L12.9069 11.5078C13.7969 11.3578 14.6669 11.8278 15.0469 12.6478L17.1269 17.1578L18.3469 17.5578C18.7469 17.6778 18.9569 18.0978 18.8269 18.4978ZM5.90686 13.5078L6.91686 13.8378C6.69686 13.4178 6.63686 12.9178 6.79686 12.4378L7.82686 9.25781L5.90686 10.0778V13.5078ZM13.8469 17.6678L7.18686 15.5078L6.72686 16.9378L13.3869 19.0978L13.8469 17.6678ZM14.5369 16.3078L13.3569 13.7478L9.38686 14.6378L14.5369 16.3078Z" fill="currentColor"/>
</svg>
