<svg  viewBox="0 0 24 24" fill="none" xmlns="http://www.w3.org/2000/svg">
<path d="M9.89201 8.50523V15.5052C9.89201 15.9152 10.362 16.1552 10.692 15.9052L15.362 12.4052C15.632 12.2052 15.632 11.8052 15.362 11.6052L10.692 8.10523C10.362 7.85523 9.89201 8.09523 9.89201 8.50523ZM10.892 3.23523C10.892 2.59523 10.302 2.10523 9.68201 2.24523C8.56201 2.50523 7.50201 2.94523 6.56201 3.54523C6.03201 3.88523 5.95201 4.64523 6.40201 5.09523C6.72201 5.41523 7.23201 5.49523 7.61201 5.25523C8.38201 4.76523 9.23201 4.40523 10.152 4.20523C10.592 4.10523 10.892 3.69523 10.892 3.23523ZM4.99201 6.51523C4.53201 6.06523 3.78201 6.13523 3.44201 6.67523C2.84201 7.61523 2.40201 8.67523 2.14201 9.79523C2.00201 10.4152 2.48201 11.0052 3.12201 11.0052C3.57201 11.0052 3.99201 10.7052 4.08201 10.2652C4.28201 9.35523 4.65201 8.49523 5.13201 7.73523C5.39201 7.34523 5.31201 6.83523 4.99201 6.51523ZM3.12201 13.0052C2.48201 13.0052 1.99201 13.5952 2.13201 14.2152C2.39201 15.3352 2.83201 16.3852 3.43201 17.3352C3.77201 17.8752 4.53201 17.9452 4.98201 17.4952C5.30201 17.1752 5.38201 16.6652 5.13201 16.2852C4.64201 15.5252 4.28201 14.6752 4.08201 13.7552C3.99201 13.3052 3.58201 13.0052 3.12201 13.0052ZM6.56201 20.4552C7.51201 21.0552 8.56201 21.4952 9.68201 21.7552C10.302 21.8952 10.892 21.4052 10.892 20.7752C10.892 20.3252 10.592 19.9052 10.152 19.8152C9.24201 19.6152 8.38201 19.2452 7.62201 18.7652C7.23201 18.5252 6.73201 18.5952 6.41201 18.9252C5.95201 19.3652 6.02201 20.1152 6.56201 20.4552ZM21.892 12.0052C21.892 16.7352 18.592 20.7152 14.162 21.7452C13.542 21.8952 12.942 21.4052 12.942 20.7652C12.942 20.3052 13.252 19.9052 13.692 19.7952C17.242 18.9752 19.892 15.7952 19.892 12.0052C19.892 8.21523 17.242 5.03523 13.692 4.21523C13.252 4.11523 12.942 3.70523 12.942 3.24523C12.942 2.60523 13.542 2.11523 14.162 2.26523C18.592 3.29523 21.892 7.27523 21.892 12.0052Z" fill="currentColor"/>
</svg>
