<svg  viewBox="0 0 24 24" fill="none" xmlns="http://www.w3.org/2000/svg">
    <path d="M22 8.35864V14.3586C22 15.4586 21.1 16.3586 20 16.3586H19V14.3586H20V8.35864H4V14.3586H10V16.3586H4C2.9 16.3586 2 15.4586 2 14.3586V8.35864C2 7.25864 2.9 6.35864 4 6.35864H20C21.1 6.35864 22 7.25864 22 8.35864ZM14.04 17.3486C14.22 17.7386 14.77 17.7386 14.95 17.3486L15.58 15.9486L16.98 15.3186C17.37 15.1386 17.37 14.5886 16.98 14.4086L15.58 13.7786L14.95 12.3786C14.77 11.9886 14.22 11.9886 14.04 12.3786L13.41 13.7786L12.01 14.4086C11.62 14.5886 11.62 15.1386 12.01 15.3186L13.41 15.9486L14.04 17.3486ZM16.74 12.7886C16.84 13.0086 17.16 13.0086 17.26 12.7886L17.62 11.9886L18.42 11.6286C18.64 11.5286 18.64 11.2086 18.42 11.1086L17.62 10.7486L17.26 9.94864C17.16 9.72864 16.84 9.72864 16.74 9.94864L16.38 10.7486L15.58 11.1086C15.36 11.2086 15.36 11.5286 15.58 11.6286L16.38 11.9886L16.74 12.7886Z" fill="currentColor" />
</svg>
