<svg viewBox="0 0 24 24" fill="none" xmlns="http://www.w3.org/2000/svg">
<path d="M15.5 17.4452H3.5C2.67 17.4452 2 18.1152 2 18.9452C2 19.7752 2.67 20.4452 3.5 20.4452H15.5C16.33 20.4452 17 19.7752 17 18.9452C17 18.1152 16.33 17.4452 15.5 17.4452ZM18.85 9.17516C19.47 8.56516 19.85 7.72516 19.85 6.79516C19.85 5.28516 18.85 4.00516 17.47 3.58516C16.99 3.44516 16.5 3.80516 16.5 4.30516C16.5 4.63516 16.71 4.92516 17.02 5.01516C17.79 5.24516 18.35 5.95516 18.35 6.79516C18.35 7.61516 17.82 8.30516 17.08 8.55516C16.75 8.66516 16.5 8.94516 16.5 9.29516V9.44516C16.5 9.81516 16.77 10.1352 17.14 10.1952C19.07 10.5052 20.5 12.1952 20.5 14.2152V15.6952C20.5 16.1052 20.84 16.4452 21.25 16.4452C21.66 16.4452 22 16.1052 22 15.6952V14.2052C22 11.9852 20.72 10.0652 18.85 9.17516ZM16.03 11.6452H14.73C13.71 11.6452 12.79 10.9152 12.66 9.89516C12.54 8.94516 13.12 8.19516 13.96 7.96516C14.28 7.87516 14.5 7.58516 14.5 7.24516C14.5 6.75516 14.04 6.38516 13.57 6.52516C12.15 6.93516 11.12 8.25516 11.15 9.80516C11.18 11.6452 12.77 13.0952 14.61 13.0952H16.03C17.08 13.0952 18 13.8352 18 15.1452V15.6952C18 16.1052 18.33 16.4452 18.75 16.4452H18.76C19.17 16.4452 19.51 16.1152 19.51 15.6952V14.8052C19.5 12.9952 17.9 11.6452 16.03 11.6452ZM18 17.4452H19.5V20.4452H18V17.4452ZM20.5 17.4452H22V20.4452H20.5V17.4452Z" fill="currentColor"/>
</svg>
