<svg viewBox="0 0 24 24" fill="none" xmlns="http://www.w3.org/2000/svg">
<path d="M20.5 12.6843H22V15.6843H20.5V12.6843ZM18 12.6843H19.5V15.6843H18V12.6843ZM17 14.1843C17 13.3543 16.33 12.6843 15.5 12.6843H14.66L16.84 14.8643C16.94 14.6543 17 14.4243 17 14.1843ZM18.85 4.4143C19.23 4.0343 19.52 3.5743 19.69 3.0643C19.85 2.5643 19.5 2.0543 18.98 2.0443C18.64 2.0543 18.37 2.2943 18.26 2.6243C18.08 3.1743 17.64 3.6143 17.09 3.7943C16.75 3.9043 16.5 4.1843 16.5 4.5343V4.6843C16.5 5.0543 16.77 5.3743 17.14 5.4343C19.07 5.7443 20.5 7.4343 20.5 9.4543V10.9343C20.5 11.3443 20.84 11.6843 21.25 11.6843C21.66 11.6843 22 11.3443 22 10.9343V9.4443C22 7.2243 20.72 5.3043 18.85 4.4143ZM14.61 8.3343H16.03C17.08 8.3343 18 9.0743 18 10.3843V10.9343C18 11.3443 18.33 11.6843 18.75 11.6843H18.76C19.17 11.6843 19.51 11.3543 19.51 10.9343V10.0443C19.51 8.2343 17.91 6.8843 16.04 6.8843H14.74C13.72 6.8843 12.8 6.1543 12.67 5.1343C12.55 4.1843 13.13 3.4343 13.97 3.2043C14.29 3.1143 14.51 2.8243 14.51 2.4843C14.51 1.9943 14.05 1.6243 13.58 1.7643C12.16 2.1743 11.13 3.4943 11.16 5.0443C11.18 6.8943 12.77 8.3343 14.61 8.3343ZM4.12 4.9743C3.73 4.5843 3.1 4.5843 2.71 4.9743C2.32 5.3643 2.32 5.9943 2.71 6.3843L9 12.6843H3.5C2.67 12.6843 2 13.3543 2 14.1843C2 15.0143 2.67 15.6843 3.5 15.6843H12L18.29 21.9743C18.68 22.3643 19.31 22.3643 19.7 21.9743C20.09 21.5843 20.09 20.9543 19.7 20.5643L4.12 4.9743Z" fill="currentColor"/>
</svg>
