<svg width="24" height="24" viewBox="0 0 24 24" fill="none" xmlns="http://www.w3.org/2000/svg">
<path d="M10 10.8908H12.63L8.91001 15.2408C8.36001 15.8908 8.82001 16.8908 9.67001 16.8908H14C14.55 16.8908 15 16.4408 15 15.8908C15 15.3408 14.55 14.8908 14 14.8908H11.37L15.09 10.5408C15.64 9.89076 15.18 8.89077 14.33 8.89077H10C9.45001 8.89077 9.00001 9.34076 9.00001 9.89077C9.00001 10.4408 9.45001 10.8908 10 10.8908ZM21.3 6.31077C20.95 6.73077 20.32 6.79077 19.89 6.44077L16.82 3.88077C16.4 3.52077 16.34 2.89077 16.7 2.47077C17.05 2.05077 17.68 1.99077 18.11 2.34077L21.18 4.90077C21.6 5.26077 21.66 5.89077 21.3 6.31077ZM2.70001 6.31077C3.05001 6.74077 3.68001 6.79077 4.10001 6.44077L7.17001 3.88077C7.60001 3.52077 7.66001 2.89077 7.30001 2.47077C6.95001 2.04077 6.32001 1.99077 5.90001 2.34077L2.82001 4.90077C2.40001 5.26077 2.34001 5.89077 2.70001 6.31077ZM12 5.89077C15.86 5.89077 19 9.03077 19 12.8908C19 16.7508 15.86 19.8908 12 19.8908C8.14001 19.8908 5.00001 16.7508 5.00001 12.8908C5.00001 9.03077 8.14001 5.89077 12 5.89077ZM12 3.89077C7.03001 3.89077 3.00001 7.92077 3.00001 12.8908C3.00001 17.8608 7.03001 21.8908 12 21.8908C16.97 21.8908 21 17.8608 21 12.8908C21 7.92077 16.97 3.89077 12 3.89077Z" fill="black"/>
</svg>
