<svg  viewBox="0 0 24 24" fill="none" xmlns="http://www.w3.org/2000/svg">
<path d="M11.126 5.5C11.126 6.05 11.576 6.5 12.126 6.5H13.376L14.826 7.8L11.126 10.5L2.00598 9.54C1.00598 9.43 0.125977 10.22 0.125977 11.23C0.125977 11.98 0.615977 12.64 1.33598 12.86L4.66598 13.86L1.17598 15.74C-0.644024 16.72 0.0559766 19.5 2.12598 19.5H8.12598C10.336 19.5 12.126 17.71 12.126 15.5H16.126L18.126 17.5H16.126C15.576 17.5 15.126 17.95 15.126 18.5C15.126 19.05 15.576 19.5 16.126 19.5H21.126C22.256 19.5 23.236 18.88 23.756 17.95C24.116 17.3 23.606 16.5 22.856 16.5C22.516 16.5 22.176 16.66 22.016 16.97C21.846 17.28 21.506 17.5 21.126 17.5H20.956L18.756 15.3C20.706 14.87 22.126 13.9 22.126 12.5C22.126 11.61 14.406 4.75 14.406 4.75C14.226 4.59 13.996 4.5 13.746 4.5H12.126C11.576 4.5 11.126 4.95 11.126 5.5ZM8.12598 17.5H2.12598L7.37598 14.67L10.126 15.5C10.126 16.6 9.23598 17.5 8.12598 17.5Z" fill="currentColor"/>
</svg>
