<svg viewBox="0 0 24 24" fill="none" xmlns="http://www.w3.org/2000/svg">
<path d="M14.7463 6C15.1563 6 15.4963 6.34 15.4963 6.75C15.4963 7.16 15.1563 7.5 14.7463 7.5C14.3363 7.5 13.9963 7.16 13.9963 6.75C13.9963 6.34 14.3363 6 14.7463 6ZM14.7463 4.5C13.5063 4.5 12.4963 5.51 12.4963 6.75C12.4963 7.99 13.5063 9 14.7463 9C15.9863 9 16.9963 7.99 16.9963 6.75C16.9963 5.51 15.9863 4.5 14.7463 4.5ZM20.4963 5.5C20.7763 5.5 20.9963 5.72 20.9963 6C20.9963 6.28 20.7763 6.5 20.4963 6.5C20.2163 6.5 19.9963 6.28 19.9963 6C19.9963 5.72 20.2163 5.5 20.4963 5.5ZM20.4963 4C19.3963 4 18.4963 4.9 18.4963 6C18.4963 7.1 19.3963 8 20.4963 8C21.5963 8 22.4963 7.1 22.4963 6C22.4963 4.9 21.5963 4 20.4963 4ZM18.4963 2.5C18.4963 3.33 17.8263 4 16.9963 4C16.1663 4 15.4963 3.33 15.4963 2.5C15.4963 1.67 16.1663 1 16.9963 1C17.8263 1 18.4963 1.67 18.4963 2.5ZM2.43634 11.79C1.83634 12.35 1.49634 13.14 1.49634 13.97V20C1.49634 21.66 2.83634 23 4.49634 23H18.1763C18.8263 23 19.4263 22.53 19.4963 21.88C19.5763 21.13 18.9863 20.5 18.2563 20.5H12.9963C12.7163 20.5 12.4963 20.28 12.4963 20C12.4963 19.72 12.7163 19.5 12.9963 19.5H20.1763C20.8263 19.5 21.4263 19.03 21.4963 18.38C21.5763 17.63 20.9863 17 20.2563 17H12.9963C12.7163 17 12.4963 16.78 12.4963 16.5C12.4963 16.22 12.7163 16 12.9963 16H21.1763C21.8263 16 22.4263 15.53 22.4963 14.88C22.5763 14.13 21.9863 13.5 21.2563 13.5H12.9963C12.7163 13.5 12.4963 13.28 12.4963 13C12.4963 12.72 12.7163 12.5 12.9963 12.5H19.1763C19.8263 12.5 20.4263 12.03 20.4963 11.38C20.5763 10.63 19.9863 10 19.2563 10H9.35634L10.8463 7.39C10.9363 7.23 10.9863 7.06 10.9863 6.86C10.9863 6.6 10.8963 6.36 10.7263 6.16L10.3063 5.71C9.92634 5.32 9.29634 5.3 8.89634 5.68L2.43634 11.79Z" fill="currentColor"/>
</svg>
