<svg  viewBox="0 0 24 24" fill="none" xmlns="http://www.w3.org/2000/svg">
<path d="M4 5.35352C4 4.25352 4.9 3.35352 6 3.35352C7.1 3.35352 8 4.25352 8 5.35352C8 6.45352 7.1 7.35352 6 7.35352C4.9 7.35352 4 6.45352 4 5.35352ZM8.78 8.93352C7.93 8.56352 6.99 8.35352 6 8.35352C5.01 8.35352 4.07 8.56352 3.22 8.93352C2.48 9.25352 2 9.97352 2 10.7835V11.3535H10V10.7835C10 9.97352 9.52 9.25352 8.78 8.93352ZM18 7.35352C19.1 7.35352 20 6.45352 20 5.35352C20 4.25352 19.1 3.35352 18 3.35352C16.9 3.35352 16 4.25352 16 5.35352C16 6.45352 16.9 7.35352 18 7.35352ZM20.78 8.93352C19.93 8.56352 18.99 8.35352 18 8.35352C17.01 8.35352 16.07 8.56352 15.22 8.93352C14.48 9.25352 14 9.97352 14 10.7835V11.3535H22V10.7835C22 9.97352 21.52 9.25352 20.78 8.93352ZM21.65 17.0035L18.86 14.2135C18.54 13.8935 18 14.1135 18 14.5635V16.3535H6V14.5635C6 14.1135 5.46 13.8935 5.15 14.2135L2.36 17.0035C2.16 17.2035 2.16 17.5135 2.36 17.7135L5.15 20.5035C5.46 20.8135 6 20.5935 6 20.1435V18.3535H18V20.1435C18 20.5935 18.54 20.8135 18.85 20.4935L21.64 17.7035C21.84 17.5135 21.84 17.1935 21.65 17.0035Z" fill="currentColor"/>
</svg>
