<svg width="24" height="24" viewBox="0 0 24 24" fill="none" xmlns="http://www.w3.org/2000/svg">
<path d="M13.0147 2.65C12.8147 2.45 12.5047 2.45 12.3047 2.65L10.2947 4.66H15.0147L13.0147 2.65ZM12.3147 21.35C12.5147 21.55 12.8247 21.55 13.0247 21.35L15.0047 19.37H10.3447L12.3147 21.35ZM11.0647 17.73C11.6647 17.73 12.0747 17.13 11.8547 16.57L8.12468 7.03C7.94468 6.57 7.49468 6.27 7.00468 6.27C6.51468 6.27 6.06468 6.57 5.88468 7.03L2.14468 16.56C1.92468 17.12 2.33468 17.72 2.93468 17.72C3.28468 17.72 3.60468 17.5 3.73468 17.17L4.44468 15.27H9.55468L10.2647 17.17C10.3947 17.51 10.7147 17.73 11.0647 17.73ZM5.05468 13.64L6.99468 8.46L8.93468 13.64H5.05468ZM21.1347 16.14H15.8047L21.5247 7.85C21.9847 7.19 21.5047 6.28 20.7047 6.28H14.2247C13.7847 6.28 13.4347 6.64 13.4347 7.08V7.09C13.4347 7.53 13.7947 7.89 14.2247 7.89H19.3147L13.5847 16.17C13.1247 16.83 13.6047 17.74 14.4047 17.74H21.1247C21.5647 17.74 21.9147 17.38 21.9147 16.95C21.9347 16.5 21.5747 16.14 21.1347 16.14Z" fill="black"/>
</svg>
