<svg  viewBox="0 0 24 24" fill="none" xmlns="http://www.w3.org/2000/svg">
<path d="M5.85055 13.5C5.39055 13.5 5.05055 13.08 5.14055 12.63C5.18055 12.45 5.20055 12.24 5.20055 12C5.20055 11 4.20055 9.15 4.20055 8.38C4.20055 8.09 4.23055 7.79 4.37055 7.45C4.48055 7.18 4.74055 7 5.04055 7C5.49055 7 5.84055 7.42 5.75055 7.86C5.71055 8.04 5.70055 8.21 5.70055 8.38C5.70055 9.15 6.70055 11 6.70055 12C6.70055 12.42 6.62055 12.76 6.53055 13.01C6.43055 13.31 6.16055 13.5 5.85055 13.5ZM12.3505 13.5C12.6605 13.5 12.9305 13.31 13.0305 13.01C13.1205 12.76 13.2005 12.42 13.2005 12C13.2005 11 12.2005 9.15 12.2005 8.38C12.2005 8.21 12.2105 8.04 12.2405 7.87C12.3305 7.42 11.9905 7 11.5405 7C11.2505 7 10.9805 7.18 10.8705 7.45C10.7305 7.79 10.7005 8.08 10.7005 8.38C10.7005 9.15 11.7005 11 11.7005 12C11.7005 12.24 11.6805 12.45 11.6405 12.63C11.5505 13.08 11.8905 13.5 12.3505 13.5ZM9.10054 13.5C9.41054 13.5 9.68055 13.31 9.78055 13.01C9.87055 12.76 9.95055 12.42 9.95055 12C9.95055 11 8.95055 9.15 8.95055 8.38C8.95055 8.21 8.96055 8.04 8.99055 7.87C9.08055 7.42 8.74055 7 8.29055 7C7.99055 7 7.73055 7.18 7.62055 7.45C7.48055 7.79 7.45055 8.08 7.45055 8.38C7.45055 9.15 8.45055 11.01 8.45055 12C8.45055 12.24 8.43054 12.45 8.39054 12.63C8.30054 13.08 8.64054 13.5 9.10054 13.5ZM20.1605 6.37C20.7305 6.44 21.2405 6.03 21.2805 5.46C21.2905 5.28 21.3005 5.12 21.3005 5C21.3005 3.35 19.9505 2 18.3005 2C16.7605 2 15.4905 3.16 15.3205 4.65L14.2305 15H3.69055C3.09055 15 2.62055 15.54 2.71055 16.14C3.24055 19.46 6.09055 22 9.45055 22C12.9305 22 15.7905 19.27 16.1605 15.77L17.3105 4.9C17.3605 4.39 17.7805 4 18.3005 4C18.8505 4 19.3005 4.45 19.3005 5C19.3005 5.07 19.2905 5.18 19.2905 5.31C19.2505 5.84 19.6305 6.3 20.1605 6.37Z" fill="currentColor"/>
</svg>
