<svg viewBox="0 0 24 24" fill="none" xmlns="http://www.w3.org/2000/svg">
<path d="M15.4801 9.37719C15.3201 6.95719 14.4501 4.58719 12.8401 2.61719C12.4301 2.11719 11.6801 2.11719 11.2701 2.61719C9.62005 4.59719 8.70005 6.96719 8.50005 9.37719C9.78005 10.0572 10.9601 10.9372 11.9901 12.0072C13.0201 10.9472 14.2001 10.0672 15.4801 9.37719ZM8.98005 12.0272C8.84005 11.9272 8.68005 11.8372 8.53005 11.7372C8.68005 11.8472 8.84005 11.9272 8.98005 12.0272ZM11.9901 15.1972C10.0401 12.2272 6.85005 10.1672 3.16005 9.80719C2.52005 9.74719 1.99005 10.2772 2.05005 10.9172C2.50005 15.7172 5.70005 19.6972 10.0301 21.2472C10.6601 21.4772 11.3201 21.6472 12.0001 21.7572C12.6801 21.6372 13.3301 21.4672 13.9701 21.2472C18.3001 19.6972 21.5 15.7272 21.9501 10.9172C22.01 10.2772 21.4701 9.74719 20.8401 9.80719C17.1301 10.1672 13.9401 12.2272 11.9901 15.1972Z" fill="currentColor"/>
</svg>
