<svg width="24" height="24" viewBox="0 0 24 24" fill="none" xmlns="http://www.w3.org/2000/svg">
<path d="M7.757 8.33L7.777 8.35C8.127 8.7 8.667 8.73 9.077 8.44C9.907 7.87 10.917 7.52 11.997 7.52C13.077 7.52 14.087 7.87 14.917 8.45C15.317 8.74 15.867 8.71 16.217 8.36L16.237 8.34C16.657 7.92 16.627 7.2 16.147 6.85C14.977 6 13.547 5.5 11.997 5.5C10.447 5.5 9.017 6 7.857 6.84C7.367 7.19 7.337 7.91 7.757 8.33Z" fill="black"/>
<path d="M11.997 1.5C9.377 1.5 6.967 2.43 5.077 3.97C4.617 4.34 4.567 5.03 4.997 5.46C5.357 5.82 5.927 5.85 6.317 5.53C7.857 4.26 9.847 3.5 11.997 3.5C14.147 3.5 16.137 4.26 17.687 5.53C18.077 5.85 18.647 5.82 19.007 5.46C19.427 5.04 19.387 4.35 18.927 3.97C17.027 2.43 14.617 1.5 11.997 1.5Z" fill="black"/>
<path d="M14.997 10.5H8.997C8.447 10.5 7.997 10.95 7.997 11.5V21.5C7.997 22.05 8.447 22.5 8.997 22.5H14.987C15.537 22.5 15.987 22.05 15.987 21.5L15.997 11.5C15.997 10.95 15.547 10.5 14.997 10.5ZM14.997 20.5H8.997V12.5H14.997V20.5Z" fill="black"/>
</svg>
