<svg width="24" height="24" viewBox="0 0 24 24" fill="none" xmlns="http://www.w3.org/2000/svg">
    <path d="M2.72125 1.68373C2.37125 1.33373 1.80125 1.33373 1.45125 1.68373C1.10125 2.03373 1.10125 2.60373 1.45125 2.95373L2.83125 4.33373L2.81125 21.3237L6.81125 17.3237H15.8113L20.9013 22.4137C21.2513 22.7637 21.8213 22.7637 22.1713 22.4137C22.5213 22.0637 22.5213 21.4937 22.1713 21.1437L2.72125 1.68373ZM7.81125 13.3237C7.26125 13.3237 6.81125 12.8737 6.81125 12.3237C6.81125 11.7737 7.26125 11.3237 7.81125 11.3237C8.36125 11.3237 8.81125 11.7737 8.81125 12.3237C8.81125 12.8737 8.36125 13.3237 7.81125 13.3237ZM7.81125 10.3237C7.26125 10.3237 6.81125 9.87373 6.81125 9.32373C6.81125 8.77373 7.26125 8.32373 7.81125 8.32373C8.36125 8.32373 8.81125 8.77373 8.81125 9.32373C8.81125 9.87373 8.36125 10.3237 7.81125 10.3237ZM20.8113 1.32373H4.89125L11.8913 8.32373H17.8113C18.3612 8.32373 18.8113 8.77373 18.8113 9.32373C18.8113 9.87373 18.3612 10.3237 17.8113 10.3237H13.8913L20.8813 17.3137C21.9513 17.2737 22.8113 16.4037 22.8113 15.3237V3.32373C22.8113 2.22373 21.9113 1.32373 20.8113 1.32373ZM17.8113 7.32373H11.8113C11.2613 7.32373 10.8113 6.87373 10.8113 6.32373C10.8113 5.77373 11.2613 5.32373 11.8113 5.32373H17.8113C18.3612 5.32373 18.8113 5.77373 18.8113 6.32373C18.8113 6.87373 18.3612 7.32373 17.8113 7.32373Z" fill="currentColor" />
</svg>
