<svg width="24" height="24" viewBox="0 0 24 24" fill="none" xmlns="http://www.w3.org/2000/svg">
    <path d="M12.3728 15.4539C13.0628 15.4539 13.5228 14.7639 13.2728 14.1339L9.02279 3.32386C8.81279 2.79386 8.31279 2.45386 7.75279 2.45386C7.19279 2.45386 6.69279 2.79386 6.48279 3.32386L2.23279 14.1339C1.98279 14.7639 2.45279 15.4539 3.13279 15.4539C3.53279 15.4539 3.89279 15.2039 4.04279 14.8239L4.92279 12.4539H10.5628L11.4628 14.8339C11.6128 15.2039 11.9728 15.4539 12.3728 15.4539ZM5.68279 10.4539L7.75279 4.93386L9.82279 10.4539H5.68279ZM20.1428 11.7439L12.7528 19.1339L9.78279 16.1639C9.39279 15.7739 8.76279 15.7739 8.37279 16.1639C7.98279 16.5539 7.98279 17.1839 8.37279 17.5739L12.0528 21.2539C12.4428 21.6439 13.0728 21.6439 13.4628 21.2539L21.5428 13.1639C21.9328 12.7739 21.9328 12.1439 21.5428 11.7539C21.1628 11.3639 20.5228 11.3639 20.1428 11.7439Z" fill="currentColor" />
</svg>
