<svg  viewBox="0 0 24 24" fill="none" xmlns="http://www.w3.org/2000/svg">
<path d="M19.2377 2.89148L11.7777 8.99148L10.5677 7.95148L13.0477 6.52148C13.6177 6.19148 13.7177 5.41148 13.2577 4.95148L10.3077 2.00148C9.91773 1.61148 9.28773 1.61148 8.89773 2.00148C8.50773 2.39148 8.50773 3.02148 8.89773 3.41148L10.9277 5.44148L5.52773 8.55148C5.29773 8.68148 5.13773 8.90148 5.06773 9.15148L4.10773 12.6415C4.03773 12.9015 4.06773 13.1715 4.20773 13.4115L5.94773 16.4315C6.22773 16.9115 6.83773 17.0715 7.31773 16.8015C7.79773 16.5215 7.95773 15.9115 7.68773 15.4315L6.15773 12.7715L6.51773 11.4815L9.67773 13.2915L10.1177 21.2915C10.1477 21.8515 10.6077 22.2915 11.1677 22.2915C11.7277 22.2915 12.1877 21.8515 12.2177 21.2915L12.6677 12.2915L20.5377 4.33148C20.8977 3.97148 20.9177 3.40148 20.5877 3.01148C20.2477 2.61148 19.6477 2.56148 19.2377 2.89148Z" fill="currentColor"/>
<path d="M5.17773 7.29148C6.2823 7.29148 7.17773 6.39605 7.17773 5.29148C7.17773 4.18691 6.2823 3.29148 5.17773 3.29148C4.07316 3.29148 3.17773 4.18691 3.17773 5.29148C3.17773 6.39605 4.07316 7.29148 5.17773 7.29148Z" fill="currentColor"/>
</svg>
