<svg viewBox="0 0 24 24" fill="none" xmlns="http://www.w3.org/2000/svg">
<path d="M19 9.48977H17.44C17.77 8.93977 17.97 8.30977 17.99 7.62977C18.03 6.59977 17.56 5.63977 16.83 4.91977C15.29 3.37977 14.09 3.35977 13.01 3.62977C12.2 2.93977 11.16 2.50977 10 2.50977C8.11 2.50977 6.49 3.61977 5.73 5.21977C4.15 5.74977 3 7.22977 3 8.98977C3 10.8498 4.28 12.3998 6 12.8498V19.4898C6 20.5898 6.9 21.4898 8 21.4898H15C16.1 21.4898 17 20.5898 17 19.4898H19C20.1 19.4898 21 18.5898 21 17.4898V11.4898C21 10.3898 20.1 9.48977 19 9.48977ZM7 10.9898C5.9 10.9898 5 10.0898 5 8.98977C5 8.13977 5.55 7.38977 6.37 7.10977L7.17 6.83977L7.53 6.07977C8 5.10977 8.94 4.50977 10 4.50977C10.79 4.50977 11.39 4.85977 11.74 5.15977L12.52 5.80977C12.52 5.80977 13.16 5.48977 13.99 5.48977C15.09 5.48977 15.99 6.38977 15.99 7.48977H12.99C9.67 7.48977 9.15 10.9898 7 10.9898ZM19 17.4898H17V11.4898H19V17.4898Z" fill="currentColor"/>
</svg>
