<svg  viewBox="0 0 24 24" fill="none" xmlns="http://www.w3.org/2000/svg">
<path d="M15.0362 13.019L6.54617 4.52898C6.15617 4.13898 5.52617 4.13898 5.13617 4.52898L2.30617 7.35898C1.91617 7.74898 1.91617 8.37898 2.30617 8.76898L10.7962 17.259C11.1862 17.649 11.8162 17.649 12.2062 17.259L15.0362 14.429C15.4262 14.039 15.4262 13.409 15.0362 13.019Z" fill="currentColor"/>
<path d="M14.3262 17.969L17.8562 21.499C18.2462 21.889 18.8862 21.889 19.2762 21.499C19.6662 21.109 19.6662 20.469 19.2762 20.079L15.7462 16.549L14.3262 17.969Z" fill="currentColor"/>
<path d="M18.4862 9.20898C20.4192 9.20898 21.9862 7.64198 21.9862 5.70898C21.9862 3.77599 20.4192 2.20898 18.4862 2.20898C16.5532 2.20898 14.9862 3.77599 14.9862 5.70898C14.9862 7.64198 16.5532 9.20898 18.4862 9.20898Z" fill="currentColor"/>
</svg>
