<svg  viewBox="0 0 24 24" fill="none" xmlns="http://www.w3.org/2000/svg">
<path d="M16.2663 5.25C17.3708 5.25 18.2663 4.35457 18.2663 3.25C18.2663 2.14543 17.3708 1.25 16.2663 1.25C15.1617 1.25 14.2663 2.14543 14.2663 3.25C14.2663 4.35457 15.1617 5.25 16.2663 5.25Z" fill="currentColor"/>
<path d="M23.7663 11.75V8.05L18.7763 5.94C17.7963 5.53 16.6563 5.87 16.0663 6.75L15.0663 8.35C14.3963 9.53 13.1563 10.41 11.6563 10.67L11.7163 10.73C12.4063 11.42 13.2363 11.8 14.1763 11.9C14.9763 11.48 15.6963 10.92 16.2663 10.26L16.8663 13.26L14.7663 15.25V21.75C14.7663 22.3 15.2163 22.75 15.7663 22.75C16.3163 22.75 16.7663 22.3 16.7663 21.75V16.75L18.8663 14.75L20.4863 21.94C20.5963 22.41 21.0163 22.75 21.5063 22.75C22.1663 22.75 22.6563 22.15 22.5263 21.51L20.5863 11.75L19.9663 8.65L21.7663 9.35V11.75C21.7663 12.3 22.2163 12.75 22.7663 12.75C23.3163 12.75 23.7663 12.3 23.7663 11.75Z" fill="currentColor"/>
<path d="M10.0563 8.96C10.2763 9.11 10.5263 9.2 10.7763 9.25C10.9063 9.27 11.0263 9.29 11.1563 9.29C11.2863 9.29 11.4163 9.28 11.5363 9.25C11.6663 9.23 11.7863 9.19 11.9063 9.14C12.1463 9.04 12.3763 8.9 12.5663 8.7C13.0563 8.21 13.2363 7.53 13.1163 6.9C13.0463 6.53 12.8663 6.16 12.5663 5.87C12.3763 5.68 12.1463 5.53 11.9063 5.43C11.7863 5.38 11.6663 5.34 11.5363 5.32C11.4063 5.3 11.2863 5.28 11.1563 5.28C11.0363 5.28 10.9263 5.29 10.8063 5.31C10.6663 5.33 10.5263 5.37 10.3963 5.42C10.1663 5.53 9.93626 5.68 9.74626 5.87C9.44626 6.16 9.26626 6.53 9.19627 6.9C9.07627 7.53 9.25626 8.21 9.74626 8.7C9.83626 8.8 9.94627 8.88 10.0563 8.96Z" fill="currentColor"/>
<path d="M11.0063 11.43L9.00626 9.43C8.90626 9.33 8.80626 9.25 8.69627 9.17C8.47626 9.03 8.22626 8.93 7.97626 8.89C7.84626 8.86 7.72626 8.85 7.59626 8.85C7.08626 8.85 6.57626 9.05 6.18626 9.44L2.84626 12.78C2.43626 13.19 2.22626 13.76 2.26626 14.32C2.26626 14.5 2.30626 14.69 2.37626 14.87L3.44626 17.82L0.526265 20.74C0.136265 21.13 0.136265 21.76 0.526265 22.15C0.916265 22.54 1.54626 22.54 1.93626 22.15L5.47626 18.61V16.39L6.76626 17.62V21.75C6.76626 22.3 7.21626 22.75 7.76626 22.75C8.31626 22.75 8.76626 22.3 8.76626 21.75V16.75L6.64626 14.63L9.00626 12.27L9.71626 12.98C10.7363 13.98 11.9963 14.67 13.5063 14.92C14.1463 15.03 14.7163 14.47 14.6663 13.82C14.6363 13.34 14.2663 12.95 13.7963 12.88C12.6663 12.7 11.7363 12.16 11.0063 11.43Z" fill="currentColor"/>
</svg>
