<svg  viewBox="0 0 24 24" fill="none" xmlns="http://www.w3.org/2000/svg">
<path d="M14.0897 5.72231C13.5397 6.67231 13.8697 7.90231 14.8197 8.45231C15.7697 9.00231 16.9997 8.67231 17.5497 7.72231C18.0997 6.77231 17.7697 5.54231 16.8197 4.99231C15.8697 4.44231 14.6397 4.77231 14.0897 5.72231Z" fill="currentColor"/>
<path d="M15.6597 10.1323C15.6597 10.1323 14.0297 9.19231 13.0597 8.63231C10.9297 7.39231 10.0497 4.80231 10.8797 2.56231C11.0497 2.10231 10.8697 1.59231 10.4497 1.35231C9.91968 1.05231 9.22968 1.28231 9.01968 1.85231C8.06968 4.36231 8.66968 7.20231 10.4797 9.12231L5.82968 17.1723C5.54968 17.6523 5.71968 18.2623 6.19968 18.5423C6.67968 18.8223 7.28968 18.6523 7.56968 18.1723L8.56968 16.4423L10.2997 17.4423L7.79968 21.7723C7.51968 22.2523 7.68968 22.8623 8.16968 23.1423C8.64968 23.4223 9.25968 23.2523 9.53968 22.7723L15.3297 12.7523C16.3097 14.0923 16.5897 15.8723 15.9897 17.4723C15.8197 17.9223 16.0097 18.4323 16.4197 18.6723C16.9497 18.9823 17.6397 18.7523 17.8597 18.1723C18.8297 15.5523 18.2697 12.3323 15.6597 10.1323Z" fill="currentColor"/>
<path d="M12.5697 3.52231C13.2897 3.93231 14.1997 3.69231 14.6197 2.97231C15.0297 2.25231 14.7897 1.34231 14.0697 0.922311C13.3497 0.512311 12.4397 0.752311 12.0197 1.47231C11.6097 2.19231 11.8497 3.11231 12.5697 3.52231Z" fill="currentColor"/>
</svg>
