<svg  viewBox="0 0 24 24" fill="none" xmlns="http://www.w3.org/2000/svg">
<path d="M19.3963 2.48971C17.0563 0.149714 12.7763 0.619713 9.84628 3.54971C8.24628 5.14971 7.32628 7.41971 7.30628 9.00971C7.28628 10.5897 7.56628 12.8997 5.95628 14.5097L2.41628 18.0397C2.02628 18.4297 2.02628 19.0597 2.41628 19.4597C2.80628 19.8497 3.43628 19.8497 3.83628 19.4597L7.36628 15.9197C8.97628 14.3097 11.2863 14.5897 12.8663 14.5697C14.4463 14.5497 16.7263 13.6297 18.3263 12.0297C21.2563 9.10971 21.7363 4.82971 19.3963 2.48971ZM10.1963 11.6797C8.66628 10.1497 9.14628 7.06971 11.2563 4.95971C13.3663 2.84971 16.4363 2.36971 17.9763 3.89971C19.5063 5.42971 19.0263 8.50971 16.9163 10.6197C14.8063 12.7297 11.7363 13.2097 10.1963 11.6797Z" fill="currentColor"/>
<path d="M17.8763 16.9997C18.4063 16.9997 18.9163 17.2097 19.2863 17.5897C20.0663 18.3697 20.0663 19.6397 19.2863 20.4197C18.9163 20.7897 18.4063 20.9997 17.8763 20.9997C17.3463 20.9997 16.8363 20.7897 16.4663 20.4097C15.6863 19.6297 15.6863 18.3597 16.4663 17.5797C16.8363 17.2097 17.3463 16.9997 17.8763 16.9997ZM17.8763 14.9997C16.8563 14.9997 15.8263 15.3897 15.0463 16.1697C13.4863 17.7297 13.4863 20.2597 15.0463 21.8297C15.8263 22.6097 16.8563 22.9997 17.8763 22.9997C18.8963 22.9997 19.9263 22.6097 20.7063 21.8297C22.2663 20.2697 22.2663 17.7397 20.7063 16.1697C19.9263 15.3897 18.8963 14.9997 17.8763 14.9997Z" fill="currentColor"/>
</svg>
