<svg  viewBox="0 0 24 24" fill="none" xmlns="http://www.w3.org/2000/svg">
<path d="M5.5 9.5H8.5V18C8.5 18.83 7.83 19.5 7 19.5C6.17 19.5 5.5 18.83 5.5 18V9.5ZM7 4.5C7.83 4.5 8.5 5.17 8.5 6V8.5H5.5V6C5.5 5.17 6.17 4.5 7 4.5ZM15.5 15.5H18.5V18C18.5 18.83 17.83 19.5 17 19.5C16.17 19.5 15.5 18.83 15.5 18V15.5ZM10.5 12.5H13.5V18C13.5 18.83 12.83 19.5 12 19.5C11.17 19.5 10.5 18.83 10.5 18V12.5ZM12 8.5C12.83 8.5 13.5 9.17 13.5 10V11.5H10.5V10C10.5 9.17 11.17 8.5 12 8.5ZM18.5 14.5H15.5V14C15.5 13.17 16.17 12.5 17 12.5C17.83 12.5 18.5 13.17 18.5 14V14.5Z" fill="currentColor"/>
</svg>
