<svg width="24" height="24" viewBox="0 0 24 24" fill="none" xmlns="http://www.w3.org/2000/svg">
<path d="M2.77605 14.7649L2.68605 14.6749C2.29605 14.2849 2.29605 13.6549 2.68605 13.2649L8.77605 7.16489C9.16605 6.77489 9.79605 6.77489 10.1861 7.16489L13.4761 10.4549L19.8661 3.27489C20.2461 2.84489 20.9161 2.83489 21.3161 3.23489C21.6861 3.61489 21.7061 4.21489 21.3561 4.60489L14.1861 12.6749C13.8061 13.1049 13.1461 13.1249 12.7361 12.7149L9.48605 9.46489L4.18605 14.7649C3.80605 15.1549 3.16605 15.1549 2.77605 14.7649ZM4.18605 20.7649L9.48605 15.4649L12.7361 18.7149C13.1461 19.1249 13.8061 19.1049 14.1861 18.6749L21.3561 10.6049C21.7061 10.2149 21.6861 9.61489 21.3161 9.23489C20.9161 8.83489 20.2461 8.84489 19.8661 9.27489L13.4761 16.4549L10.1861 13.1649C9.79605 12.7749 9.16605 12.7749 8.77605 13.1649L2.68605 19.2649C2.29605 19.6549 2.29605 20.2849 2.68605 20.6749L2.77605 20.7649C3.16605 21.1549 3.80605 21.1549 4.18605 20.7649Z" fill="black"/>
</svg>
