<svg width="24" height="24" viewBox="0 0 24 24" fill="none" xmlns="http://www.w3.org/2000/svg">
<path d="M19.6485 9.29391L14.8085 8.87391L12.9185 4.42391C12.5785 3.61391 11.4185 3.61391 11.0785 4.42391L9.18853 8.88391L4.35853 9.29391C3.47853 9.36391 3.11853 10.4639 3.78853 11.0439L7.45853 14.2239L6.35853 18.9439C6.15853 19.8039 7.08853 20.4839 7.84853 20.0239L11.9985 17.5239L16.1485 20.0339C16.9085 20.4939 17.8385 19.8139 17.6385 18.9539L16.5385 14.2239L20.2085 11.0439C20.8785 10.4639 20.5285 9.36391 19.6485 9.29391ZM11.9985 15.6539V6.35391L13.7085 10.3939L18.0885 10.7739L14.7685 13.6539L15.7685 17.9339L11.9985 15.6539Z" fill="black"/>
</svg>
