<svg  viewBox="0 0 24 24" fill="none" xmlns="http://www.w3.org/2000/svg">
<path d="M12 8.49695L12.94 11.607H15.76L13.49 13.227L14.42 16.237L12 14.397L9.58002 16.237L10.51 13.227L8.24002 11.607H11.06L12 8.49695ZM9.58002 9.60695H5.12002C4.15002 9.60695 3.75002 10.857 4.54002 11.417L8.18002 14.017L6.75002 18.627C6.46002 19.557 7.54002 20.307 8.31002 19.717L12 16.917L15.69 19.727C16.46 20.317 17.54 19.567 17.25 18.637L15.82 14.027L19.46 11.427C20.25 10.857 19.85 9.61695 18.88 9.61695H14.42L12.95 4.77695C12.66 3.82695 11.32 3.82695 11.04 4.77695L9.58002 9.60695Z" fill="currentColor"/>
</svg>
