<svg width="24" height="24" viewBox="0 0 24 24" fill="none" xmlns="http://www.w3.org/2000/svg">
<path d="M12 8.49695L12.94 11.607H15.76L13.49 13.227L14.42 16.237L12 14.397L9.57996 16.237L10.51 13.227L8.23996 11.607H11.06L12 8.49695ZM9.57996 9.60695H5.11996C4.14996 9.60695 3.74996 10.857 4.53996 11.417L8.17996 14.017L6.74996 18.627C6.45996 19.557 7.53996 20.307 8.30996 19.717L12 16.917L15.69 19.727C16.46 20.317 17.54 19.567 17.25 18.637L15.82 14.027L19.46 11.427C20.25 10.857 19.85 9.61695 18.88 9.61695H14.42L12.95 4.77695C12.66 3.82695 11.32 3.82695 11.04 4.77695L9.57996 9.60695Z" fill="black"/>
</svg>
