<svg width="24" height="24" viewBox="0 0 24 24" fill="none" xmlns="http://www.w3.org/2000/svg">
<path d="M15.4987 17.29C15.8887 17.68 16.5187 17.68 16.9087 17.29L21.4987 12.7C21.8887 12.31 21.8887 11.68 21.4987 11.29L16.9087 6.7C16.5187 6.31 15.8887 6.31 15.4987 6.7C15.1187 7.09 15.1087 7.73 15.4987 8.12L18.3787 11H7.20874C6.65874 11 6.20874 11.45 6.20874 12C6.20874 12.55 6.65874 13 7.20874 13H18.3787L15.4987 15.88C15.1087 16.27 15.1087 16.9 15.4987 17.29ZM3.20874 18C3.75874 18 4.20874 17.55 4.20874 17V7C4.20874 6.45 3.75874 6 3.20874 6C2.65874 6 2.20874 6.45 2.20874 7V17C2.20874 17.55 2.65874 18 3.20874 18Z" fill="black"/>
</svg>
