<svg  viewBox="0 0 24 24" fill="none" xmlns="http://www.w3.org/2000/svg">
<path d="M23 17.8602H21.8L23.59 19.6502C23.83 19.4702 24 19.1902 24 18.8602C24 18.3102 23.55 17.8602 23 17.8602ZM3.23 2.14016C2.84 1.75016 2.2 1.75016 1.81 2.14016C1.42 2.53016 1.42 3.16016 1.81 3.55016L2.65 4.41016C2.65 4.41016 1.99 4.98016 1.99 5.88016C2 6.78016 2 15.8602 2 15.8602L2.01 15.8702C2.01 16.9602 2.89 17.8502 3.98 17.8602H1C0.45 17.8602 0 18.3102 0 18.8602C0 19.4102 0.45 19.8602 1 19.8602H18.13L20.13 21.8602C20.52 22.2502 21.15 22.2502 21.54 21.8602C21.93 21.4702 21.93 20.8402 21.54 20.4502L3.23 2.14016ZM7 14.8602C7.31 13.3802 7.94 11.9302 9.08 10.8102L10.67 12.4002C9.13 12.7802 7.96 13.5702 7 14.8602ZM13 8.99016V8.01016C13 7.57016 13.52 7.35016 13.84 7.64016L15 8.73016L16.61 10.2302C16.82 10.4302 16.82 10.7602 16.61 10.9602L15.72 11.7902L21.3 17.3702C21.73 17.0002 22 16.4702 22 15.8602V5.86016C22 4.77016 21.11 3.88016 20.02 3.88016H7.8L12.94 9.01016C12.96 9.00016 12.98 8.99016 13 8.99016Z" fill="currentColor"/>
</svg>
