<svg viewBox="0 0 24 24" fill="none" xmlns="http://www.w3.org/2000/svg">
<path d="M21.8982 7.89L20.8482 4.52C20.6282 3.62 19.8482 3 18.9382 3H5.04824C4.14824 3 3.35824 3.63 3.14824 4.52L2.09824 7.89C1.63824 9.86 2.94824 11 2.99824 11.06V19C2.99824 20.1 3.89824 21 4.99824 21H18.9982C20.0982 21 20.9982 20.1 20.9982 19V11.06C22.1182 9.94 22.0882 8.65 21.8982 7.89ZM12.9982 5H14.9582L15.4982 8.52C15.5882 9.23 15.1082 10 14.2182 10C13.5482 10 12.9982 9.41 12.9982 8.69V5ZM6.43824 8.86C6.35824 9.51 5.83824 10 5.22824 10C4.29824 10 3.87824 9.03 4.03824 8.36L5.04824 5H7.01824L6.43824 8.86ZM10.9982 8.69C10.9982 9.41 10.4482 10 9.70824 10C8.95824 10 8.40824 9.3 8.48824 8.52L9.03824 5H10.9982V8.69ZM18.7682 10C18.1582 10 17.6282 9.51 17.5582 8.86L16.9782 5L18.9082 4.99L19.9582 8.36C20.1182 9.03 19.7082 10 18.7682 10Z" fill="currentColor"/>
</svg>
