<svg  viewBox="0 0 24 24" fill="none" xmlns="http://www.w3.org/2000/svg">
<path d="M20 14C21.1046 14 22 13.1046 22 12C22 10.8954 21.1046 10 20 10C18.8954 10 18 10.8954 18 12C18 13.1046 18.8954 14 20 14Z" fill="currentColor"/>
<path d="M4 14C5.10457 14 6 13.1046 6 12C6 10.8954 5.10457 10 4 10C2.89543 10 2 10.8954 2 12C2 13.1046 2.89543 14 4 14Z" fill="currentColor"/>
<path d="M12 22C13.1046 22 14 21.1046 14 20C14 18.8954 13.1046 18 12 18C10.8954 18 10 18.8954 10 20C10 21.1046 10.8954 22 12 22Z" fill="currentColor"/>
<path d="M7.89 14.65L4.95 17.58C4.56 17.97 4.56 18.6 4.95 18.99C5.34 19.38 5.97 19.38 6.36 18.99L9.3 16.06C9.69 15.68 9.69 15.04 9.3 14.65C8.91 14.26 8.28 14.26 7.89 14.65Z" fill="currentColor"/>
<path d="M6.41 4.94C6.02 4.55 5.39 4.55 5 4.94C4.61 5.33 4.61 5.96 5 6.35L7.93 9.29C8.32 9.68 8.95 9.68 9.35 9.29C9.73 8.9 9.73 8.27 9.34 7.88L6.41 4.94Z" fill="currentColor"/>
<path d="M16.12 14.65C15.73 14.26 15.1 14.26 14.7 14.65C14.31 15.04 14.31 15.67 14.7 16.06L17.64 19C18.03 19.39 18.66 19.39 19.05 19C19.44 18.61 19.44 17.98 19.05 17.59L16.12 14.65Z" fill="currentColor"/>
<path d="M16.06 9.33L19.05 6.35C19.44 5.95 19.44 5.32 19.05 4.93C18.66 4.54 18.03 4.54 17.64 4.93L14.65 7.91C14.26 8.3 14.26 8.93 14.65 9.33C15.04 9.72 15.67 9.72 16.06 9.33Z" fill="currentColor"/>
<path d="M12 6C13.1046 6 14 5.10457 14 4C14 2.89543 13.1046 2 12 2C10.8954 2 10 2.89543 10 4C10 5.10457 10.8954 6 12 6Z" fill="currentColor"/>
</svg>
