<svg viewBox="0 0 24 24" fill="none" xmlns="http://www.w3.org/2000/svg">
<path d="M17.02 19.5C17.02 20.6 16.12 21.5 15.02 21.5C13.92 21.5 13.02 20.6 13.02 19.5C13.02 18.4 13.92 17.5 15.02 17.5C16.12 17.5 17.02 18.4 17.02 19.5ZM5.02 17.5C3.92 17.5 3.02 18.4 3.02 19.5C3.02 20.6 3.92 21.5 5.02 21.5C6.12 21.5 7.02 20.6 7.02 19.5C7.02 18.4 6.12 17.5 5.02 17.5ZM13.32 3.6C12.05 2.9 10.58 2.5 9.02 2.5C7.51 2.5 6.09 2.88 4.85 3.53C4.26 3.84 4.17 4.65 4.63 5.11L8.62 9.1L13.32 3.6ZM20.96 5.33C20.67 3.72 19.32 2.5 17.67 2.5C16.01 2.5 15.13 3.77 14.49 4.53L5.73 14.81C5.18 15.46 5.64 16.46 6.49 16.46H14.02C15.12 16.46 16.02 15.56 16.02 14.46V5.77C16.6 5.09 16.99 4.5 17.67 4.5C18.35 4.5 18.89 5.02 19 5.71C19.1 6.16 19.5 6.5 19.98 6.5C20.53 6.5 20.98 6.05 20.98 5.5C20.98 5.44 20.97 5.39 20.96 5.33Z" fill="currentColor"/>
</svg>
