<svg  viewBox="0 0 24 24" fill="none" xmlns="http://www.w3.org/2000/svg">
<path d="M5.00126 15.419L9.58126 19.999C9.97126 20.389 10.6113 20.389 11.0013 19.999C11.3913 19.609 11.3913 18.969 11.0013 18.579L8.12126 15.709H18.2913C18.8413 15.709 19.2913 15.259 19.2913 14.709V4.70898C19.2913 4.15898 18.8413 3.70898 18.2913 3.70898C17.7413 3.70898 17.2913 4.15898 17.2913 4.70898V13.709H8.12126L11.0013 10.839C11.3913 10.449 11.3913 9.80898 11.0013 9.41898C10.6113 9.02898 9.97126 9.02898 9.58126 9.41898L5.00126 13.999C4.61126 14.389 4.61126 15.029 5.00126 15.419Z" fill="currentColor"/>
</svg>
