<svg width="24" height="24" viewBox="0 0 24 24" fill="none" xmlns="http://www.w3.org/2000/svg">
<path d="M18.9987 15.419L14.4187 19.999C14.0287 20.389 13.3887 20.389 12.9987 19.999C12.6087 19.609 12.6087 18.969 12.9987 18.579L15.8787 15.709H5.70874C5.15874 15.709 4.70874 15.259 4.70874 14.709V4.70898C4.70874 4.15898 5.15874 3.70898 5.70874 3.70898C6.25874 3.70898 6.70874 4.15898 6.70874 4.70898V13.709H15.8787L12.9987 10.839C12.6087 10.449 12.6087 9.80898 12.9987 9.41898C13.3887 9.02898 14.0287 9.02898 14.4187 9.41898L18.9987 13.999C19.3887 14.389 19.3887 15.029 18.9987 15.419Z" fill="black"/>
</svg>
