<svg width="24" height="24" viewBox="0 0 24 24" fill="none" xmlns="http://www.w3.org/2000/svg">
<path d="M7.61975 10.73L4.39975 5.72C3.91975 4.97 4.44975 4 5.32975 4C5.71975 4 6.06975 4.2 6.27975 4.53L9.03975 8.99H9.15975L11.8998 4.54C12.1098 4.2 12.4698 4 12.8598 4C13.7398 4 14.2798 4.98 13.7998 5.72L10.5698 10.72L14.1198 16.27C14.5998 17.02 14.0598 18 13.1798 18C12.7998 18 12.4398 17.8 12.2298 17.48L9.15975 12.59H9.03975L5.96975 17.48C5.76975 17.8 5.40975 18 5.01975 18C4.13975 18 3.59975 17.03 4.07975 16.28L7.61975 10.73ZM20.0998 19.5C20.0998 19.22 19.8798 19 19.5998 19H17.0998V18H19.0998C19.6498 18 20.0998 17.55 20.0998 17V16C20.0998 15.45 19.6498 15 19.0998 15H16.5998C16.3198 15 16.0998 15.22 16.0998 15.5C16.0998 15.78 16.3198 16 16.5998 16H19.0998V17H17.0998C16.5498 17 16.0998 17.45 16.0998 18V19C16.0998 19.55 16.5498 20 17.0998 20H19.5998C19.8798 20 20.0998 19.78 20.0998 19.5Z" fill="black"/>
</svg>
