<svg width="24" height="24" viewBox="0 0 24 24" fill="none" xmlns="http://www.w3.org/2000/svg">
    <path d="M20.2712 3.2951H7.10124L15.1012 11.2951H19.2712C19.8212 11.2951 20.2712 11.7451 20.2712 12.2951C20.2712 12.8451 19.8212 13.2951 19.2712 13.2951H17.1012L22.0312 18.2251C22.1812 17.9451 22.2712 17.6351 22.2712 17.2951V5.2951C22.2712 4.1951 21.3712 3.2951 20.2712 3.2951Z" fill="currentColor" />
    <path d="M20.2712 19.2951L3.43124 2.4551C3.04124 2.0651 2.41124 2.0651 2.02124 2.4551C1.63124 2.8451 1.63124 3.4751 2.02124 3.8651L2.51124 4.3551C2.36124 4.6451 2.27124 4.9551 2.27124 5.2951V17.2951C2.27124 18.3951 3.17124 19.2951 4.27124 19.2951H17.4412L19.6912 21.5451C20.0812 21.9351 20.7112 21.9351 21.1012 21.5451C21.4912 21.1551 21.4912 20.5251 21.1012 20.1351L20.2712 19.2951ZM8.27124 12.2951C8.27124 12.8451 7.82124 13.2951 7.27124 13.2951H5.27124C4.72124 13.2951 4.27124 12.8451 4.27124 12.2951C4.27124 11.7451 4.72124 11.2951 5.27124 11.2951H7.27124C7.82124 11.2951 8.27124 11.7451 8.27124 12.2951ZM14.2712 16.2951C14.2712 16.8451 13.8212 17.2951 13.2712 17.2951H5.27124C4.72124 17.2951 4.27124 16.8451 4.27124 16.2951C4.27124 15.7451 4.72124 15.2951 5.27124 15.2951H13.2712C13.3512 15.2951 13.4112 15.3251 13.4812 15.3351L14.2212 16.0751C14.2412 16.1551 14.2712 16.2151 14.2712 16.2951Z" fill="currentColor" />
</svg>
