<svg width="24" height="24" viewBox="0 0 24 24" fill="none" xmlns="http://www.w3.org/2000/svg">
<path d="M7.60975 12.73L4.39975 7.72C3.91975 6.97 4.44975 6 5.32975 6C5.71975 6 6.06975 6.2 6.27975 6.53L9.03975 10.99H9.15975L11.8998 6.54C12.0998 6.2 12.4598 6 12.8498 6C13.7298 6 14.2698 6.98 13.7898 7.72L10.5598 12.72L14.1098 18.27C14.5998 19.02 14.0598 20 13.1798 20C12.7998 20 12.4398 19.8 12.2298 19.48L9.15975 14.59H9.03975L5.96975 19.48C5.75975 19.8 5.40975 20 5.01975 20C4.13975 20 3.59975 19.03 4.07975 18.28L7.60975 12.73ZM20.0998 8.5C20.0998 8.22 19.8798 8 19.5998 8H17.0998V7H19.0998C19.6498 7 20.0998 6.55 20.0998 6V5C20.0998 4.45 19.6498 4 19.0998 4H16.5998C16.3198 4 16.0998 4.22 16.0998 4.5C16.0998 4.78 16.3198 5 16.5998 5H19.0998V6H17.0998C16.5498 6 16.0998 6.45 16.0998 7V8C16.0998 8.55 16.5498 9 17.0998 9H19.5998C19.8798 9 20.0998 8.78 20.0998 8.5Z" fill="black"/>
</svg>
