<svg  viewBox="0 0 24 24" fill="none" xmlns="http://www.w3.org/2000/svg">
<path d="M17 1.25C15.9 1.25 15 2.15 15 3.25C15 4.35 15.9 5.25 17 5.25C18.1 5.25 19 4.35 19 3.25C19 2.15 18.1 1.25 17 1.25ZM22 21.75C22 22.3 21.55 22.75 21 22.75C19.97 22.75 18.95 22.5 18 22C16.08 23.02 13.82 23 11.91 21.95C10.12 22.82 7.99 22.93 6.33 21.81C5.3 22.44 4.15 22.75 3 22.75C2.45 22.75 2 22.3 2 21.75C2 21.2 2.45 20.75 3 20.75C3.87 20.75 4.73 20.51 5.53 20.05C5.82 19.89 6.18 19.88 6.47 20.05C8.06 20.95 9.95 20.95 11.53 20.05C11.82 19.89 12.18 19.89 12.47 20.05C14.06 20.95 15.95 20.95 17.53 20.05C17.82 19.89 18.18 19.89 18.47 20.05C19.27 20.51 20.13 20.75 21 20.75C21.55 20.75 22 21.2 22 21.75ZM8.04 18.61C8.35 18.7 8.67 18.75 9 18.75C9.9 18.75 10.72 18.38 11.39 17.84C11.74 17.56 12.26 17.56 12.61 17.84C13.28 18.38 14.1 18.75 15 18.75C15.9 18.75 16.72 18.38 17.39 17.84C17.42 17.81 17.46 17.79 17.5 17.77C17.04 17.38 16.53 16.98 16 16.6V13.73C16 13.12 15.72 12.54 15.23 12.16L12.17 9.75L14.42 8.23C15.45 10.02 17.24 11.31 19.35 11.66C19.95 11.76 20.49 11.27 20.49 10.66C20.49 10.17 20.13 9.76 19.65 9.68C18.15 9.43 16.87 8.5 16.14 7.22L15.26 5.67C14.97 5.15 14.49 4.87 14.04 4.78L9.31 3.9C8.79 3.8 8.25 3.92 7.81 4.22L5.82 5.58C5.37 5.9 5.25 6.52 5.56 6.97C5.88 7.43 6.5 7.55 6.96 7.24L8.95 5.87L10.95 6.24L8.8 7.69C8.2 8.1 7.91 8.81 8.03 9.48L8.55 12.58C7.13 12.06 5.83 11.75 4.85 11.75C4.01 11.75 3 12 3 13.03C3 14.47 5.19 16.65 8.04 18.61ZM14 13.75V15.25C13.22 14.77 11.66 13.92 10.74 13.5L10.3 10.85L14 13.75Z" fill="currentColor"/>
</svg>
