<svg width="24" height="24" viewBox="0 0 24 24" fill="none" xmlns="http://www.w3.org/2000/svg">
<path d="M17.65 4.85015L14.86 7.64015C14.54 7.96015 14.76 8.50015 15.21 8.50015H17V15.3801C17 16.3801 16.33 17.3101 15.34 17.4701C14.09 17.6801 13 16.7101 13 15.5001V8.67015C13 6.58015 11.47 4.72015 9.39003 4.52015C7.01003 4.29015 5.00003 6.16015 5.00003 8.50015V15.5001H3.21003C2.76003 15.5001 2.54003 16.0401 2.86003 16.3501L5.65003 19.1401C5.85003 19.3401 6.16003 19.3401 6.36003 19.1401L9.15003 16.3501C9.46003 16.0401 9.24003 15.5001 8.79003 15.5001H7.00003V8.62015C7.00003 7.62015 7.67003 6.69015 8.66003 6.53015C9.91003 6.32015 11 7.29015 11 8.50015V15.3301C11 17.4201 12.53 19.2801 14.61 19.4801C16.99 19.7101 19 17.8401 19 15.5001V8.50015H20.79C21.24 8.50015 21.46 7.96015 21.14 7.65015L18.35 4.86015C18.16 4.66015 17.84 4.66015 17.65 4.85015Z" fill="black"/>
</svg>
