<svg width="24" height="24" viewBox="0 0 24 24" fill="none" xmlns="http://www.w3.org/2000/svg">
    <path d="M15.9961 17.0149V11.0049C15.9961 10.4549 15.5461 10.0049 14.9961 10.0049C14.4461 10.0049 13.9961 10.4549 13.9961 11.0049V17.0149H12.2061C11.7561 17.0149 11.5361 17.5549 11.8561 17.8649L14.6461 20.6449C14.8461 20.8349 15.1561 20.8349 15.3561 20.6449L18.1461 17.8649C18.4661 17.5549 18.2361 17.0149 17.7961 17.0149H15.9961ZM8.64612 3.3549L5.85612 6.1449C5.53612 6.4549 5.75612 6.9949 6.20612 6.9949H7.99612V13.0049C7.99612 13.5549 8.44612 14.0049 8.99612 14.0049C9.54612 14.0049 9.99612 13.5549 9.99612 13.0049V6.9949H11.7861C12.2361 6.9949 12.4561 6.4549 12.1361 6.1449L9.34612 3.3549C9.15612 3.1649 8.83612 3.1649 8.64612 3.3549Z" fill="currentColor" />
</svg>
