<svg  viewBox="0 0 24 24" fill="none" xmlns="http://www.w3.org/2000/svg">
    <path d="M6.13563 11.855L3.35563 14.645C3.16563 14.845 3.16563 15.155 3.35563 15.355L6.13563 18.145C6.44563 18.465 6.98563 18.235 6.98563 17.795V15.995H12.9956C13.5456 15.995 13.9956 15.545 13.9956 14.995C13.9956 14.445 13.5456 13.995 12.9956 13.995H6.98563V12.205C6.98563 11.755 6.44563 11.535 6.13563 11.855ZM20.6456 8.64496L17.8656 5.85496C17.5556 5.53496 17.0156 5.76496 17.0156 6.20496V7.99496H10.9956C10.4456 7.99496 9.99564 8.44496 9.99564 8.99496C9.99564 9.54496 10.4456 9.99496 10.9956 9.99496H17.0056V11.785C17.0056 12.235 17.5456 12.455 17.8556 12.135L20.6356 9.34496C20.8356 9.15496 20.8356 8.83496 20.6456 8.64496Z" fill="currentColor" />
</svg>
