<svg  viewBox="0 0 24 24" fill="none" xmlns="http://www.w3.org/2000/svg">
    <path d="M13.1087 11C12.6487 8.72 10.6287 7 8.20874 7C5.44874 7 3.20874 9.24 3.20874 12C3.20874 14.76 5.44874 17 8.20874 17C10.6287 17 12.6487 15.28 13.1087 13H17.3787L16.4987 13.88C16.1087 14.27 16.1087 14.9 16.4987 15.29C16.8887 15.68 17.5187 15.68 17.9087 15.29L20.4987 12.7C20.8887 12.31 20.8887 11.68 20.4987 11.29L17.9087 8.7C17.5187 8.31 16.8887 8.31 16.4987 8.7C16.1087 9.09 16.1087 9.72 16.4987 10.11L17.3787 11H13.1087Z" fill="currentColor" />
</svg>
