<svg  viewBox="0 0 24 24" fill="none" xmlns="http://www.w3.org/2000/svg">
    <path d="M8.47665 19.3988C8.21665 18.7988 8.56665 18.1188 9.20665 17.9888L12.7867 17.2788L8.43665 7.46881C8.09665 6.70881 8.43665 5.82881 9.19665 5.48881C9.95665 5.14881 10.8367 5.48881 11.1767 6.24881L13.6067 11.7388L14.4467 11.3688C14.7267 11.2388 15.0367 11.1888 15.3467 11.1988L19.9067 11.4088C20.7667 11.4488 21.5067 12.0388 21.7367 12.8588L22.9667 17.1888C23.2367 18.1488 22.7667 19.1588 21.8567 19.5588L16.2267 22.0488C15.7467 22.2588 14.9667 22.3788 14.4667 22.1888L9.01665 19.9188C8.77665 19.8288 8.57665 19.6388 8.47665 19.3988ZM6.39665 13.6788C6.65665 13.4188 6.68665 13.0188 6.48665 12.7288C5.32665 11.0388 4.64665 8.99881 4.64665 6.79881C4.64665 5.91881 4.75665 5.05881 4.96665 4.23881L6.05665 5.32881C6.35665 5.62881 6.84665 5.61881 7.13665 5.30881C7.41665 5.00881 7.38665 4.52881 7.09665 4.23881L4.85665 2.00881C4.46665 1.61881 3.83665 1.61881 3.44665 2.00881L1.17665 4.26881C0.876652 4.56881 0.886652 5.05881 1.19665 5.34881C1.49665 5.62881 1.97665 5.59881 2.26665 5.30881L3.44665 4.11881C3.24665 4.97881 3.14665 5.87881 3.14665 6.79881C3.14665 9.30881 3.91665 11.6488 5.23665 13.5688C5.50665 13.9588 6.05665 14.0188 6.39665 13.6788Z" fill="currentColor" />
</svg>
