<svg width="24" height="24" viewBox="0 0 24 24" fill="none" xmlns="http://www.w3.org/2000/svg">
    <path d="M0.302094 12C0.302094 15.22 1.43209 18.18 3.32209 20.5H2.05209C1.64209 20.5 1.30209 20.84 1.30209 21.25C1.30209 21.66 1.64209 22 2.05209 22H5.30209C5.85209 22 6.30209 21.55 6.30209 21V17.75C6.30209 17.34 5.96209 17 5.55209 17C5.14209 17 4.80209 17.34 4.80209 17.75V19.91C2.94209 17.8 1.80209 15.03 1.80209 12C1.80209 8.97 2.94209 6.21 4.80209 4.09V6.25C4.80209 6.66 5.14209 7 5.55209 7C5.96209 7 6.30209 6.66 6.30209 6.25V3C6.30209 2.45 5.85209 2 5.30209 2H2.05209C1.64209 2 1.30209 2.34 1.30209 2.75C1.30209 3.16 1.64209 3.5 2.05209 3.5H3.32209C1.43209 5.82 0.302094 8.78 0.302094 12ZM9.13209 19.1C8.87209 18.5 9.22209 17.82 9.86209 17.69L13.4421 16.98L9.09209 7.17C8.75209 6.41 9.09209 5.53 9.85209 5.19C10.6121 4.85 11.4921 5.19 11.8321 5.95L14.2621 11.44L15.1021 11.07C15.3821 10.94 15.6921 10.89 16.0021 10.9L20.5621 11.11C21.4221 11.15 22.1621 11.74 22.3921 12.56L23.6221 16.89C23.8921 17.85 23.4221 18.86 22.5121 19.26L16.8821 21.75C16.4021 21.96 15.6221 22.08 15.1221 21.89L9.67209 19.62C9.43209 19.53 9.23209 19.34 9.13209 19.1Z" fill="currentColor" />
</svg>
