<svg  viewBox="0 0 24 24" fill="none" xmlns="http://www.w3.org/2000/svg">
    <path d="M13 13.1087C15.28 12.6487 17 10.6287 17 8.20874C17 5.44874 14.76 3.20874 12 3.20874C9.24 3.20874 7 5.44874 7 8.20874C7 10.6287 8.72 12.6487 11 13.1087V17.3787L10.12 16.4987C9.73 16.1087 9.1 16.1087 8.71 16.4987C8.32 16.8887 8.32 17.5187 8.71 17.9087L11.3 20.4987C11.69 20.8887 12.32 20.8887 12.71 20.4987L15.3 17.9087C15.69 17.5187 15.69 16.8887 15.3 16.4987C14.91 16.1087 14.28 16.1087 13.89 16.4987L13 17.3787V13.1087Z" fill="currentColor" />
</svg>
