<svg  viewBox="0 0 24 24" fill="none" xmlns="http://www.w3.org/2000/svg">
    <path d="M8.47962 18.9087C8.21962 18.3087 8.56962 17.6287 9.20962 17.4987L12.7896 16.7887L8.43962 6.97875C8.09962 6.21875 8.43962 5.33875 9.19962 4.99875C9.95962 4.65875 10.8396 4.99875 11.1796 5.75875L13.6096 11.2487L14.4496 10.8787C14.7296 10.7487 15.0396 10.6987 15.3496 10.7087L19.9096 10.9187C20.7696 10.9587 21.5096 11.5487 21.7396 12.3687L22.9696 16.6987C23.2396 17.6587 22.7696 18.6687 21.8596 19.0687L16.2296 21.5587C15.7496 21.7687 14.9696 21.8887 14.4696 21.6987L9.01962 19.4287C8.77962 19.3387 8.57962 19.1487 8.47962 18.9087ZM5.23962 2.53875C3.91962 4.45875 3.14962 6.79875 3.14962 9.30875C3.14962 10.2287 3.24962 11.1287 3.44962 11.9887L2.25962 10.7987C1.96962 10.5087 1.48962 10.4787 1.18962 10.7587C0.879622 11.0487 0.879622 11.5387 1.16962 11.8387L3.42962 14.0987C3.81962 14.4887 4.44962 14.4887 4.83962 14.0987L7.07962 11.8587C7.36962 11.5687 7.39962 11.0887 7.11962 10.7887C6.82962 10.4787 6.33962 10.4787 6.03962 10.7687L4.94962 11.8587C4.75962 11.0487 4.64962 10.1887 4.64962 9.30875C4.64962 7.10875 5.32962 5.06875 6.47962 3.37875C6.67962 3.07875 6.64962 2.67875 6.38962 2.42875C6.05962 2.08875 5.50962 2.14875 5.23962 2.53875Z" fill="currentColor" />
</svg>
