<svg  viewBox="0 0 24 24" fill="none" xmlns="http://www.w3.org/2000/svg">
    <path d="M3.6676 4.02V2.75C3.6676 2.34 3.3276 2 2.9176 2C2.5076 2 2.1676 2.34 2.1676 2.75V6C2.1676 6.55 2.6176 7 3.1676 7H6.4176C6.8276 7 7.1676 6.66 7.1676 6.25C7.1676 5.84 6.8276 5.5 6.4176 5.5H4.2576C6.3676 3.64 9.1376 2.5 12.1676 2.5C16.5876 2.5 19.4376 4.69 20.4176 6.6C20.5376 6.85 20.7976 7 21.0776 7C21.6376 7 22.0076 6.41 21.7476 5.92C20.4676 3.39 16.9776 1 12.1676 1C8.9476 1 5.9876 2.13 3.6676 4.02ZM5.3676 17.43C5.3676 16.78 5.9676 16.3 6.6076 16.44L10.1676 17.24V6.5C10.1676 5.67 10.8376 5 11.6676 5C12.4976 5 13.1676 5.67 13.1676 6.5V12.5H14.0776C14.3876 12.5 14.6976 12.57 14.9676 12.71L19.0576 14.75C19.8276 15.13 20.2676 15.97 20.1476 16.82L19.5176 21.28C19.3776 22.27 18.5276 23 17.5376 23H11.3776C10.8476 23 10.0876 22.79 9.7176 22.41L5.6476 18.12C5.4676 17.94 5.3676 17.69 5.3676 17.43Z" fill="currentColor" />
</svg>
