<svg  viewBox="0 0 24 24" fill="none" xmlns="http://www.w3.org/2000/svg">
    <path d="M11.8347 1C7.02472 1 3.53472 3.39 2.24472 5.92C1.99472 6.41 2.36472 7 2.92472 7C3.20472 7 3.46472 6.85 3.58472 6.6C4.56472 4.69 7.41472 2.5 11.8347 2.5C14.8647 2.5 17.6247 3.64 19.7447 5.5H17.5847C17.1747 5.5 16.8347 5.84 16.8347 6.25C16.8347 6.66 17.1747 7 17.5847 7H20.8347C21.3847 7 21.8347 6.55 21.8347 6V2.75C21.8347 2.34 21.4947 2 21.0847 2C20.6747 2 20.3347 2.34 20.3347 2.75V4.02C18.0147 2.13 15.0547 1 11.8347 1ZM5.03472 17.43C5.03472 16.78 5.63472 16.3 6.27472 16.44L9.83472 17.24V6.5C9.83472 5.67 10.5047 5 11.3347 5C12.1647 5 12.8347 5.67 12.8347 6.5V12.5H13.7447C14.0547 12.5 14.3647 12.57 14.6347 12.71L18.7247 14.75C19.4947 15.13 19.9347 15.97 19.8147 16.82L19.1847 21.28C19.0447 22.27 18.1947 23 17.2047 23H11.0447C10.5147 23 9.75472 22.79 9.38472 22.41L5.31472 18.12C5.13472 17.94 5.03472 17.69 5.03472 17.43Z" fill="currentColor" />
</svg>
