<svg width="24" height="24" viewBox="0 0 24 24" fill="none" xmlns="http://www.w3.org/2000/svg">
    <path d="M10.8912 13C11.3512 15.28 13.3712 17 15.7912 17C18.5512 17 20.7912 14.76 20.7912 12C20.7912 9.24 18.5512 7 15.7912 7C13.3712 7 11.3512 8.72 10.8912 11H6.62124L7.50124 10.12C7.89124 9.73 7.89124 9.1 7.50124 8.71C7.11124 8.32 6.48124 8.32 6.09124 8.71L3.50124 11.3C3.11124 11.69 3.11124 12.32 3.50124 12.71L6.09124 15.3C6.48124 15.69 7.11124 15.69 7.50124 15.3C7.89124 14.91 7.89124 14.28 7.50124 13.89L6.62124 13H10.8912Z" fill="currentColor" />
</svg>
