<svg width="24" height="24" viewBox="0 0 24 24" fill="none" xmlns="http://www.w3.org/2000/svg">
    <path d="M13 6.62124L13.88 7.50124C14.27 7.89124 14.9 7.89124 15.29 7.50124C15.68 7.11124 15.68 6.48124 15.29 6.09124L12.7 3.50124C12.31 3.11124 11.68 3.11124 11.29 3.50124L8.71 6.09124C8.32 6.48124 8.32 7.11124 8.71 7.50124C9.1 7.89124 9.73 7.89124 10.12 7.50124L11 6.62124V10.8912C8.72 11.3512 7 13.3712 7 15.7912C7 18.5512 9.24 20.7912 12 20.7912C14.76 20.7912 17 18.5512 17 15.7912C17 13.3712 15.28 11.3512 13 10.8912V6.62124Z" fill="currentColor" />
</svg>
