<svg  viewBox="0 0 24 24" fill="none" xmlns="http://www.w3.org/2000/svg">
    <path d="M19.5 18.2952C20.05 18.2952 20.5 17.8452 20.5 17.2952V16.2952H21.5C22.05 16.2952 22.5 15.8452 22.5 15.2952C22.5 14.7452 22.05 14.2952 21.5 14.2952H20.5V13.2952C20.5 12.7452 20.05 12.2952 19.5 12.2952C18.95 12.2952 18.5 12.7452 18.5 13.2952V14.2952H17.5C16.95 14.2952 16.5 14.7452 16.5 15.2952C16.5 15.8452 16.95 16.2952 17.5 16.2952H18.5V17.2952C18.5 17.8452 18.95 18.2952 19.5 18.2952ZM5.56 9.23517L3.5 8.29517L5.56 7.35517L6.5 5.29517L7.44 7.35517L9.5 8.29517L7.44 9.23517L6.5 11.2952L5.56 9.23517ZM6.5 21.2952L7.44 19.2352L9.5 18.2952L7.44 17.3552L6.5 15.2952L5.56 17.3552L3.5 18.2952L5.56 19.2352L6.5 21.2952ZM2.87 12.6652L1.5 13.2952L2.87 13.9252L3.5 15.2952L4.13 13.9252L5.5 13.2952L4.13 12.6652L3.5 11.2952L2.87 12.6652ZM17.5 20.7052C17.5 21.4852 16.66 21.9552 15.99 21.5652C12.71 19.6552 10.5 16.0852 10.5 12.2952C10.5 9.56517 11.58 7.02517 13.25 5.04517L11.35 3.14517C11.04 2.83517 11.26 2.29517 11.71 2.29517H17C17.28 2.29517 17.5 2.51517 17.5 2.79517V8.08517C17.5 8.53517 16.96 8.75517 16.65 8.43517L14.68 6.46517C13.34 8.11517 12.5 10.1752 12.5 12.2952C12.5 15.4252 14.36 18.3052 17.01 19.8452C17.31 20.0252 17.5 20.3552 17.5 20.7052Z" fill="currentColor" />
</svg>
