<svg width="24" height="24" viewBox="0 0 24 24" fill="none" xmlns="http://www.w3.org/2000/svg">
    <path d="M8.06 9.23517L6 8.29517L8.06 7.35517L9 5.29517L9.94 7.35517L12 8.29517L9.94 9.23517L9 11.2952L8.06 9.23517ZM9 21.2952L9.94 19.2352L12 18.2952L9.94 17.3552L9 15.2952L8.06 17.3552L6 18.2952L8.06 19.2352L9 21.2952ZM5.37 12.6652L4 13.2952L5.37 13.9252L6 15.2952L6.63 13.9252L8 13.2952L6.63 12.6652L6 11.2952L5.37 12.6652ZM20 20.7052C20 21.4852 19.16 21.9552 18.49 21.5652C15.21 19.6552 13 16.0852 13 12.2952C13 9.56517 14.08 7.02517 15.75 5.04517L13.85 3.14517C13.54 2.83517 13.76 2.29517 14.21 2.29517H19.5C19.78 2.29517 20 2.51517 20 2.79517V8.08517C20 8.53517 19.46 8.75517 19.15 8.43517L17.18 6.46517C15.84 8.11517 15 10.1752 15 12.2952C15 15.4252 16.86 18.3052 19.51 19.8452C19.81 20.0252 20 20.3552 20 20.7052Z" fill="currentColor" />
</svg>
