<svg  viewBox="0 0 24 24" fill="none" xmlns="http://www.w3.org/2000/svg">
<path d="M6 8.63773V20.6977H10V15.8077C10 14.8077 10.68 13.8877 11.66 13.7277C12.92 13.5177 14 14.4877 14 15.6977V20.6977H18V8.63773C18 8.04773 17.74 7.47773 17.28 7.09773L13.28 3.76773C12.54 3.14773 11.46 3.14773 10.72 3.76773L6.72 7.09773C6.26 7.47773 6 8.03773 6 8.63773ZM13.5 9.69773C13.5 10.5277 12.83 11.1977 12 11.1977C11.17 11.1977 10.5 10.5277 10.5 9.69773C10.5 8.86773 11.17 8.19773 12 8.19773C12.83 8.19773 13.5 8.86773 13.5 9.69773Z" fill="currentColor"/>
<path d="M3 4.69773C1.9 4.69773 1 5.59773 1 6.69773V7.69773H5V6.69773C5 5.59773 4.1 4.69773 3 4.69773Z" fill="currentColor"/>
<path d="M3 20.6977H5V8.69773H1V18.6977C1 19.7977 1.9 20.6977 3 20.6977Z" fill="currentColor"/>
<path d="M21 4.69773C19.9 4.69773 19 5.59773 19 6.69773V7.69773H23V6.69773C23 5.59773 22.1 4.69773 21 4.69773Z" fill="currentColor"/>
<path d="M19 20.6977H21C22.1 20.6977 23 19.7977 23 18.6977V8.69773H19V20.6977Z" fill="currentColor"/>
</svg>
