<svg viewBox="0 0 24 24" fill="none" xmlns="http://www.w3.org/2000/svg">
<path d="M10.3612 5.2732V5.0832C10.3612 4.4032 9.65125 3.9732 9.04125 4.2632C8.85125 4.3532 8.68125 4.4632 8.50125 4.5632L9.96125 6.0232C10.2012 5.8432 10.3612 5.5732 10.3612 5.2732ZM20.3612 11.5332C20.3612 9.3232 19.4512 7.3332 18.0012 5.8932L19.5112 4.3832C19.8212 4.0732 19.6012 3.5332 19.1512 3.5332H14.3612V8.3232C14.3612 8.7732 14.9012 8.9932 15.2112 8.6732L16.6012 7.2832C17.6812 8.3832 18.3612 9.8732 18.3612 11.5332C18.3612 12.3832 18.1812 13.1932 17.8612 13.9232L19.3412 15.4032C19.9812 14.2532 20.3612 12.9432 20.3612 11.5332ZM3.93125 4.2332C3.54125 4.6232 3.54125 5.2532 3.93125 5.6432L5.58125 7.2932C4.81125 8.5332 4.36125 9.9732 4.36125 11.5332C4.36125 13.7432 5.27125 15.7332 6.72125 17.1732L5.21125 18.6832C4.90125 18.9932 5.12125 19.5332 5.57125 19.5332H9.86125C10.1412 19.5332 10.3612 19.3132 10.3612 19.0332V14.7432C10.3612 14.2932 9.82125 14.0732 9.51125 14.3932L8.12125 15.7832C7.04125 14.6832 6.36125 13.1932 6.36125 11.5332C6.36125 10.5332 6.62125 9.6032 7.05125 8.7732L15.1212 16.8432C15.1112 16.8632 15.1112 16.8632 15.1112 16.8832C14.6812 17.0032 14.3612 17.3632 14.3612 17.7932V17.9732C14.3612 18.6532 15.0712 19.0832 15.6812 18.7932C15.9912 18.6532 16.2912 18.4832 16.5812 18.3032L18.4512 20.1732C18.8412 20.5632 19.4712 20.5632 19.8612 20.1732C20.2512 19.7832 20.2512 19.1532 19.8612 18.7632L5.34125 4.2332C4.95125 3.8432 4.32125 3.8432 3.93125 4.2332Z" fill="currentColor"/>
</svg>
