<svg viewBox="0 0 24 24" fill="none" xmlns="http://www.w3.org/2000/svg">
<path d="M9.5 18C9.5 18.55 9.05 19 8.5 19H4.5C3.95 19 3.5 18.55 3.5 18C3.5 17.45 3.95 17 4.5 17H6.23C4.56 15.54 3.5 13.4 3.5 11C3.5 7.81 5.37 5.07 8.06 3.78C8.73 3.47 9.5 3.96 9.5 4.7C9.5 5.08 9.28 5.42 8.93 5.58C6.91 6.55 5.5 8.61 5.5 11C5.5 12.77 6.28 14.34 7.5 15.44V14C7.5 13.45 7.95 13 8.5 13C9.05 13 9.5 13.45 9.5 14V18ZM14.5 3C13.95 3 13.5 3.45 13.5 4V8C13.5 8.55 13.95 9 14.5 9C15.05 9 15.5 8.55 15.5 8V6.56C16.72 7.66 17.5 9.23 17.5 11H19.5C19.5 8.6 18.44 6.46 16.77 5H18.5C19.05 5 19.5 4.55 19.5 4C19.5 3.45 19.05 3 18.5 3H14.5ZM19.5 16V15C19.5 13.9 18.6 13 17.5 13C16.4 13 15.5 13.9 15.5 15V16C14.95 16 14.5 16.45 14.5 17V20C14.5 20.55 14.95 21 15.5 21H19.5C20.05 21 20.5 20.55 20.5 20V17C20.5 16.45 20.05 16 19.5 16ZM18.5 16H16.5V15C16.5 14.45 16.95 14 17.5 14C18.05 14 18.5 14.45 18.5 15V16Z" fill="currentColor"/>
</svg>
