<svg viewBox="0 0 24 24" fill="none" xmlns="http://www.w3.org/2000/svg">
<path d="M12 4.00052V2.21052C12 1.76052 11.46 1.54052 11.15 1.86052L8.35 4.65052C8.15 4.85052 8.15 5.16052 8.35 5.36052L11.14 8.15052C11.46 8.46052 12 8.24052 12 7.79052V6.00052C15.31 6.00052 18 8.69052 18 12.0005C18 12.7905 17.85 13.5605 17.56 14.2505C17.41 14.6105 17.52 15.0205 17.79 15.2905C18.3 15.8005 19.16 15.6205 19.43 14.9505C19.8 14.0405 20 13.0405 20 12.0005C20 7.58052 16.42 4.00052 12 4.00052ZM12 18.0005C8.69 18.0005 6 15.3105 6 12.0005C6 11.2105 6.15 10.4405 6.44 9.75052C6.59 9.39052 6.48 8.98052 6.21 8.71052C5.7 8.20052 4.84 8.38052 4.57 9.05052C4.2 9.96052 4 10.9605 4 12.0005C4 16.4205 7.58 20.0005 12 20.0005V21.7905C12 22.2405 12.54 22.4605 12.85 22.1405L15.64 19.3505C15.84 19.1505 15.84 18.8405 15.64 18.6405L12.85 15.8505C12.54 15.5405 12 15.7605 12 16.2105V18.0005Z" fill="currentColor"/>
</svg>
