<svg width="26" height="32" viewBox="0 0 26 32" fill="none" xmlns="http://www.w3.org/2000/svg">
<g filter="url(#filter0_d_425_86557)">
<path d="M19 0H7C5.34 0 4 1.34 4 3V21C4 22.66 5.34 24 7 24H19C20.66 24 22 22.66 22 21V3C22 1.34 20.66 0 19 0ZM14.5 22H11.5C11.22 22 11 21.78 11 21.5C11 21.22 11.22 21 11.5 21H14.5C14.78 21 15 21.22 15 21.5C15 21.78 14.78 22 14.5 22ZM20.25 19H5.75V3H20.25V19Z" fill="currentColor"/>
</g>
<defs>
<filter id="filter0_d_425_86557" x="-3" y="0" width="32" height="32" filterUnits="userSpaceOnUse" color-interpolation-filters="sRGB">
<feFlood flood-opacity="0" result="BackgroundImageFix"/>
<feColorMatrix in="SourceAlpha" type="matrix" values="0 0 0 0 0 0 0 0 0 0 0 0 0 0 0 0 0 0 127 0" result="hardAlpha"/>
<feOffset dy="4"/>
<feGaussianBlur stdDeviation="2"/>
<feComposite in2="hardAlpha" operator="out"/>
<feColorMatrix type="matrix" values="0 0 0 0 0 0 0 0 0 0 0 0 0 0 0 0 0 0 0.25 0"/>
<feBlend mode="normal" in2="BackgroundImageFix" result="effect1_dropShadow_425_86557"/>
<feBlend mode="normal" in="SourceGraphic" in2="effect1_dropShadow_425_86557" result="shape"/>
</filter>
</defs>
</svg>
