<svg  viewBox="0 0 24 24" fill="none" xmlns="http://www.w3.org/2000/svg">
<path d="M21.2931 7.25C20.9031 6.86 20.2831 6.86 19.8931 7.25L19.0031 8.13L19.0331 7.57L15.5731 4.09C15.1931 3.71 14.6831 3.5 14.1531 3.5H9.85308C9.32308 3.5 8.81308 3.71 8.43308 4.09L4.97308 7.57L5.00308 8.07L4.11308 7.2C3.72308 6.82 3.10308 6.82 2.72308 7.21L2.70308 7.23C2.32308 7.62 2.32308 8.25 2.72308 8.63L4.66308 10.5H19.3531L21.2731 8.66C21.6731 8.28 21.6831 7.64 21.2931 7.25Z" fill="currentColor"/>
<path d="M5.79308 18.65C5.87308 19.69 6.74308 20.5 7.79308 20.5H16.2231C17.2731 20.5 18.1431 19.69 18.2131 18.65L18.7031 12.05H5.30308L5.79308 18.65Z" fill="currentColor"/>
</svg>
