<svg viewBox="0 0 24 24" fill="none" xmlns="http://www.w3.org/2000/svg">
<path d="M4.64 16.09C4.04 15.99 3.5 16.48 3.5 17.09C3.5 17.58 3.86 17.99 4.35 18.07C6.43 18.43 8.07 20.07 8.43 22.15C8.51 22.64 8.92 23 9.41 23C10.02 23 10.5 22.46 10.41 21.86C9.93 18.91 7.6 16.57 4.64 16.09ZM3.5 20V23H6.5C6.5 21.34 5.16 20 3.5 20ZM4.61 12.06C4.02 12 3.5 12.46 3.5 13.05C3.5 13.55 3.87 13.99 4.37 14.04C8.64 14.45 12.04 17.85 12.45 22.12C12.5 22.62 12.93 23 13.44 23C14.03 23 14.5 22.49 14.44 21.9C13.93 16.7 9.81 12.58 4.61 12.06ZM18.5 1.01L8.5 1C7.4 1 6.5 1.9 6.5 3V10.37C7.19 10.53 7.86 10.74 8.5 11.01V5H18.5V18H15.47C15.99 19.25 16.31 20.59 16.42 22H18.5C19.6 22 20.5 21.1 20.5 20V3C20.5 1.9 19.6 1.01 18.5 1.01Z" fill="currentColor"/>
</svg>
