<svg width="24" height="24" viewBox="0 0 24 24" fill="none" xmlns="http://www.w3.org/2000/svg">
    <path d="M21.2836 5.88971L11.2836 15.8897C10.8936 16.2797 10.2636 16.2797 9.87357 15.8897L7.04357 13.0597C6.65357 12.6697 6.65357 12.0397 7.04357 11.6497C7.43357 11.2597 8.06357 11.2597 8.45357 11.6497L10.5736 13.7697L19.8636 4.47971C20.2536 4.08971 20.8836 4.08971 21.2736 4.47971C21.6736 4.86971 21.6736 5.49971 21.2836 5.88971ZM15.7636 2.73971C14.0736 2.04971 12.1536 1.80971 10.1536 2.16971C6.08357 2.89971 2.83357 6.17971 2.14357 10.2497C1.00357 16.9997 6.62357 22.7797 13.3336 21.9097C17.2936 21.3997 20.6136 18.4497 21.6536 14.5997C22.0536 13.1297 22.0936 11.7097 21.8636 10.3797C21.7336 9.57971 20.7436 9.26971 20.1636 9.83971C19.9336 10.0697 19.8336 10.4097 19.8936 10.7297C20.1136 12.0597 20.0136 13.4797 19.3736 14.9897C18.2136 17.6997 15.6936 19.6897 12.7636 19.9597C7.66357 20.4297 3.43357 16.1097 4.06357 10.9797C4.49357 7.43971 7.34357 4.55971 10.8736 4.06971C12.6036 3.82971 14.2436 4.15971 15.6436 4.87971C16.0336 5.07971 16.5036 5.00971 16.8136 4.69971C17.2936 4.21971 17.1736 3.40971 16.5736 3.09971C16.3036 2.97971 16.0336 2.84971 15.7636 2.73971Z" fill="currentColor" />
</svg>
