<svg  viewBox="0 0 24 24" fill="none" xmlns="http://www.w3.org/2000/svg">
<path d="M17.5 13.5C15.59 13.5 13.87 12.74 12.61 11.5H4.31L5.35 8.5H10.79C10.6 7.87 10.5 7.2 10.5 6.5C10.5 5.8 10.6 5.13 10.79 4.5H8.5C7.95 4.5 7.5 4.95 7.5 5.5V6.5H5C4.34 6.5 3.79 6.92 3.58 7.51L1.5 13.5V21C1.5 21.82 2.17 22.5 3 22.5C3.83 22.5 4.5 21.82 4.5 21V20.5H16.5V21C16.5 21.82 17.17 22.5 18 22.5C18.83 22.5 19.5 21.82 19.5 21V13.5L19.41 13.23C18.8 13.4 18.16 13.5 17.5 13.5ZM6 17.5C5.17 17.5 4.5 16.83 4.5 16C4.5 15.17 5.17 14.5 6 14.5C6.83 14.5 7.5 15.17 7.5 16C7.5 16.83 6.83 17.5 6 17.5ZM15 17.5C14.17 17.5 13.5 16.83 13.5 16C13.5 15.17 14.17 14.5 15 14.5C15.83 14.5 16.5 15.17 16.5 16C16.5 16.83 15.83 17.5 15 17.5Z" fill="currentColor"/>
<path d="M17.5 1.5C14.74 1.5 12.5 3.74 12.5 6.5C12.5 9.26 14.74 11.5 17.5 11.5C20.26 11.5 22.5 9.26 22.5 6.5C22.5 3.74 20.26 1.5 17.5 1.5ZM17.5 9.5C17.22 9.5 17 9.28 17 9C17 8.72 17.22 8.5 17.5 8.5C17.78 8.5 18 8.72 18 9C18 9.28 17.78 9.5 17.5 9.5ZM18 7C18 7.28 17.78 7.5 17.5 7.5C17.22 7.5 17 7.28 17 7V4C17 3.72 17.22 3.5 17.5 3.5C17.78 3.5 18 3.72 18 4V7Z" fill="currentColor"/>
</svg>
