<svg  viewBox="0 0 24 24" fill="none" xmlns="http://www.w3.org/2000/svg">
<path d="M6.6 11.5H17.4L16.5 8.5H7.5L6.6 11.5Z" fill="currentColor"/>
<path d="M20 12.5V13.5H4V12.5C4 11.95 3.55 11.5 3 11.5C2.45 11.5 2 11.95 2 12.5V20.5C2 21.6 2.9 22.5 4 22.5H10V19.5C10 18.4 10.9 17.5 12 17.5C13.1 17.5 14 18.4 14 19.5V22.5H20C21.1 22.5 22 21.6 22 20.5V12.5C22 11.95 21.55 11.5 21 11.5C20.45 11.5 20 11.95 20 12.5Z" fill="currentColor"/>
<path d="M15.9 6.5L15 3.5V2.5C15 1.95 14.55 1.5 14 1.5C13.45 1.5 13 1.95 13 2.5V3.5H10.97V2.5C10.97 1.95 10.52 1.5 9.97 1.5C9.42 1.5 8.97 1.95 8.97 2.5V3.62L8.1 6.5H15.9Z" fill="currentColor"/>
</svg>
