<svg  viewBox="0 0 24 24" fill="none" xmlns="http://www.w3.org/2000/svg">
<path d="M21.8419 9.17703C21.4319 9.17703 21.0219 9.41703 20.8919 9.80703C20.6319 10.597 19.8819 11.167 19.0119 11.167H4.97186C4.10186 11.167 3.35186 10.597 3.09186 9.80703C2.96186 9.41703 2.56186 9.18703 2.15186 9.18703C1.49186 9.18703 0.991857 9.82703 1.20186 10.447C1.63186 11.717 2.68186 12.687 3.99186 13.027V20.167C3.99186 21.267 4.89186 22.167 5.99186 22.167H9.99186V19.277C9.99186 18.277 10.6719 17.357 11.6519 17.197C12.9119 16.987 13.9919 17.957 13.9919 19.167V22.167H17.9919C19.0919 22.167 19.9919 21.267 19.9919 20.167V13.027C20.4519 12.907 22.2119 12.267 22.8019 10.447C23.0019 9.81703 22.5019 9.16703 21.8419 9.17703Z" fill="currentColor"/>
<path d="M5.99186 9.02703V10.167H17.9919V9.02703C18.4519 8.90703 20.2119 8.26703 20.8019 6.44703C21.0019 5.81703 20.5019 5.17703 19.8419 5.17703C19.4319 5.17703 19.0219 5.41703 18.8919 5.80703C18.6319 6.59703 17.8819 7.16703 17.0119 7.16703H6.97186C6.10186 7.16703 5.35186 6.59703 5.09186 5.80703C4.96186 5.41703 4.56186 5.18703 4.15186 5.18703C3.49186 5.18703 2.99186 5.82703 3.20186 6.44703C3.63186 7.71703 4.68186 8.69703 5.99186 9.02703Z" fill="currentColor"/>
<path d="M11.1919 2.23703L8.24186 6.16703H15.7419L12.7919 2.23703C12.3919 1.69703 11.5919 1.69703 11.1919 2.23703Z" fill="currentColor"/>
</svg>
