<svg  viewBox="0 0 24 24" fill="none" xmlns="http://www.w3.org/2000/svg">
    <path d="M19.7542 18.004L17.9642 16.214C17.6442 15.894 17.1042 16.114 17.1042 16.564V17.354H5.10425C4.55425 17.354 4.10425 17.804 4.10425 18.354C4.10425 18.904 4.55425 19.354 5.10425 19.354H17.1042V20.144C17.1042 20.594 17.6442 20.814 17.9542 20.494L19.7442 18.704C19.9442 18.514 19.9442 18.194 19.7542 18.004ZM8.60425 12.154H13.6042L14.2642 13.754C14.4142 14.114 14.7642 14.354 15.1542 14.354C15.8442 14.354 16.3042 13.644 16.0342 13.014L12.1542 4.044C11.9742 3.624 11.5642 3.354 11.1042 3.354C10.6442 3.354 10.2342 3.624 10.0542 4.044L6.17425 13.014C5.90425 13.644 6.37425 14.354 7.06425 14.354C7.45425 14.354 7.80425 14.114 7.95425 13.754L8.60425 12.154ZM11.1042 5.334L12.9742 10.354H9.23425L11.1042 5.334Z" fill="currentColor" />
</svg>
