<svg  viewBox="0 0 24 24" fill="none" xmlns="http://www.w3.org/2000/svg">
    <path d="M15.5053 20.151V17.611C15.5053 17.161 14.9653 16.941 14.6553 17.261L14.0953 17.821L5.60533 9.33103C5.21533 8.94103 4.58533 8.94103 4.19533 9.33103C3.80533 9.72103 3.80533 10.351 4.19533 10.741L12.6853 19.231L12.1253 19.791C11.8053 20.111 12.0253 20.651 12.4653 20.651H15.0053C15.2853 20.651 15.5053 20.421 15.5053 20.151ZM11.7553 8.13103L15.2953 11.671L14.6253 13.271C14.4753 13.631 14.5553 14.041 14.8353 14.321C15.3253 14.811 16.1453 14.641 16.4053 14.001L20.0153 4.91103C20.1853 4.49103 20.0853 4.00103 19.7653 3.68103C19.4453 3.36103 18.9653 3.26103 18.5353 3.43103L9.43533 7.03103C8.79533 7.28103 8.62533 8.11103 9.11533 8.60103C9.38533 8.87103 9.79533 8.95103 10.1553 8.80103L11.7553 8.13103ZM18.3453 5.08103L16.1153 9.95103L13.4753 7.31103L18.3453 5.08103Z" fill="currentColor" />
</svg>
