<svg width="24" height="24" viewBox="0 0 24 24" fill="none" xmlns="http://www.w3.org/2000/svg">
    <path d="M18.7042 4.2501C18.5042 4.0501 18.1942 4.0501 17.9942 4.2501L16.2042 6.0401C15.8942 6.3601 16.1142 6.9001 16.5642 6.9001H17.3542V18.9001C17.3542 19.4501 17.8042 19.9001 18.3542 19.9001C18.9042 19.9001 19.3542 19.4501 19.3542 18.9001V6.9001H20.1442C20.5942 6.9001 20.8142 6.3601 20.4942 6.0501L18.7042 4.2501ZM12.1542 15.4001V10.4001L13.7542 9.7401C14.1142 9.6001 14.3542 9.2501 14.3542 8.8601C14.3542 8.1701 13.6442 7.7101 13.0142 7.9801L4.04425 11.8601C3.62425 12.0301 3.35425 12.4401 3.35425 12.9001C3.35425 13.3601 3.62425 13.7701 4.04425 13.9501L13.0142 17.8301C13.6442 18.1001 14.3542 17.6301 14.3542 16.9401C14.3542 16.5501 14.1142 16.2001 13.7542 16.0501L12.1542 15.4001ZM5.33425 12.9001L10.3542 11.0301V14.7701L5.33425 12.9001Z" fill="currentColor" />
</svg>
