<svg  viewBox="0 0 24 24" fill="none" xmlns="http://www.w3.org/2000/svg">
    <path d="M5.99578 19.7545L7.78578 17.9645C8.10578 17.6445 7.88578 17.1045 7.43578 17.1045H6.64578V5.10449C6.64578 4.55449 6.19578 4.10449 5.64578 4.10449C5.09578 4.10449 4.64578 4.55449 4.64578 5.10449V17.1045H3.85578C3.40578 17.1045 3.18578 17.6445 3.50578 17.9545L5.29578 19.7445C5.48578 19.9445 5.80578 19.9445 5.99578 19.7545ZM11.8458 8.60449V13.6045L10.2458 14.2645C9.88578 14.4145 9.64578 14.7645 9.64578 15.1545C9.64578 15.8445 10.3558 16.3045 10.9858 16.0345L19.9558 12.1545C20.3758 11.9745 20.6458 11.5645 20.6458 11.1045C20.6458 10.6445 20.3758 10.2345 19.9558 10.0545L10.9858 6.17449C10.3558 5.90449 9.64578 6.37449 9.64578 7.06449C9.64578 7.45449 9.88578 7.80449 10.2458 7.95449L11.8458 8.60449ZM18.6658 11.1045L13.6458 12.9745V9.23449L18.6658 11.1045Z" fill="currentColor" />
</svg>
