<svg  viewBox="0 0 24 24" fill="none" xmlns="http://www.w3.org/2000/svg">
    <path d="M15.1366 5.10498C14.6766 5.10498 14.2666 5.37498 14.0866 5.79498L10.2066 14.765C9.93657 15.395 10.4066 16.105 11.0966 16.105C11.4866 16.105 11.8366 15.865 11.9866 15.505L12.6466 13.905H17.6466L18.3066 15.505C18.4566 15.865 18.8066 16.105 19.1966 16.105C19.8866 16.105 20.3466 15.395 20.0766 14.765L16.1966 5.79498C16.0066 5.37498 15.5966 5.10498 15.1366 5.10498ZM13.2666 12.105L15.1366 7.08498L17.0066 12.105H13.2666ZM6.48657 19.745L8.27657 17.955C8.59657 17.645 8.37657 17.105 7.92657 17.105H7.13657V5.10498C7.13657 4.55498 6.68657 4.10498 6.13657 4.10498C5.58657 4.10498 5.13657 4.54498 5.13657 5.10498V17.105H4.34657C3.89657 17.105 3.67657 17.645 3.99657 17.955L5.78657 19.745C5.97657 19.945 6.29657 19.945 6.48657 19.745Z" fill="currentColor" />
</svg>
