<svg width="24" height="24" viewBox="0 0 24 24" fill="none" xmlns="http://www.w3.org/2000/svg">
    <path d="M17.2609 9.33619L17.8209 9.89619L9.34091 18.3862C8.95091 18.7762 8.95091 19.4062 9.34091 19.7962C9.73091 20.1862 10.3609 20.1862 10.7509 19.7962L19.2409 11.3062L19.8009 11.8662C20.1109 12.1862 20.6509 11.9662 20.6509 11.5262V8.98619C20.6509 8.70619 20.4309 8.48619 20.1509 8.48619H17.6109C17.1709 8.48619 16.9509 9.02619 17.2609 9.33619ZM8.13091 12.2362L11.6709 8.69619L13.2709 9.36619C13.6309 9.51619 14.0409 9.43619 14.3209 9.15619C14.8109 8.66619 14.6409 7.84619 14.0009 7.58619L4.91091 3.98619C4.48091 3.82619 4.00091 3.92619 3.68091 4.24619C3.36091 4.56619 3.26091 5.04619 3.43091 5.47619L7.04091 14.5662C7.29091 15.2062 8.12091 15.3762 8.61091 14.8862C8.89091 14.6062 8.97091 14.1962 8.82091 13.8362L8.13091 12.2362ZM7.31091 10.5162L5.08091 5.64619L9.95091 7.87619L7.31091 10.5162Z" fill="currentColor" />
</svg>
