<svg width="24" height="24" viewBox="0 0 24 24" fill="none" xmlns="http://www.w3.org/2000/svg">
<path d="M2.36707 19C2.84707 19 3.27707 18.7 3.42707 18.25L4.43707 15.42H10.0871L11.0771 18.24C11.2371 18.7 11.6671 19 12.1471 19C12.9371 19 13.4771 18.21 13.1971 17.48L8.94707 6.17C8.68707 5.47 8.00707 5 7.25707 5C6.50707 5 5.82707 5.47 5.56707 6.17L1.31707 17.48C1.03707 18.21 1.58707 19 2.36707 19ZM7.19707 7.6H7.31707L9.34707 13.39H5.16707L7.19707 7.6ZM14.7571 12C14.7571 11.45 15.2071 11 15.7571 11H17.7571V9C17.7571 8.45 18.2071 8 18.7571 8C19.3071 8 19.7571 8.45 19.7571 9V11H21.7571C22.3071 11 22.7571 11.45 22.7571 12C22.7571 12.55 22.3071 13 21.7571 13H19.7571V15C19.7571 15.55 19.3071 16 18.7571 16C18.2071 16 17.7571 15.55 17.7571 15V13H15.7571C15.2071 13 14.7571 12.55 14.7571 12Z" fill="black"/>
</svg>
