<svg viewBox="0 0 24 24" fill="none" xmlns="http://www.w3.org/2000/svg">
<path d="M10.6611 12V6C10.6611 4.34 9.32113 3 7.66113 3C6.00113 3 4.66113 4.34 4.66113 6V12C3.45113 12.91 2.66113 14.37 2.66113 16C2.66113 17.12 3.04113 18.14 3.66113 18.97V19H3.68113C4.59113 20.21 6.03113 21 7.66113 21C9.29113 21 10.7211 20.21 11.6411 19H11.6611V18.97C12.2811 18.14 12.6611 17.12 12.6611 16C12.6611 14.37 11.8711 12.91 10.6611 12ZM4.66113 16C4.66113 15.06 5.11113 14.16 5.86113 13.6L6.66113 13V6C6.66113 5.45 7.11113 5 7.66113 5C8.21113 5 8.66113 5.45 8.66113 6V13L9.46113 13.6C10.2111 14.17 10.6611 15.06 10.6611 16H4.66113ZM17.4711 4C16.9911 4 16.5511 4.3 16.3811 4.75L13.6611 12.02C13.4811 12.49 13.8311 13 14.3311 13C14.6411 13 14.9111 12.81 15.0111 12.52L15.6611 10.7H19.2911L19.9311 12.52C20.0311 12.81 20.3111 13 20.6111 13C21.1211 13 21.4711 12.49 21.2911 12.02L18.5611 4.75C18.3911 4.3 17.9611 4 17.4711 4ZM16.1311 9.39L17.4411 5.67H17.5211L18.8311 9.39H16.1311Z" fill="currentColor"/>
</svg>
