<svg viewBox="0 0 24 24" fill="none" xmlns="http://www.w3.org/2000/svg">
<path d="M4 4C4 4.55 4.45 5 5 5H9V7H6C5.45 7 5 7.45 5 8C5 8.55 5.45 9 6 9H9V11H5C4.45 11 4 11.45 4 12C4 12.55 4.45 13 5 13H9C10.1 13 11 12.1 11 11V9.5C11 8.67 10.83 8 10 8C10.83 8 11 7.33 11 6.5V5C11 3.9 10.1 3 9 3H5C4.45 3 4 3.45 4 4ZM18 3C19.1 3 20 3.9 20 5V11C20 12.1 19.1 13 18 13H15C13.9 13 13 12.1 13 11V5C13 3.9 13.9 3 15 3H18ZM18 5H15V11H18V5ZM4 21C3.45 21 3 20.55 3 20V17C3 16.45 3.45 16 4 16C4.55 16 5 16.45 5 17V20C5 20.55 4.55 21 4 21ZM8 21C7.45 21 7 20.55 7 20V17C7 16.45 7.45 16 8 16C8.55 16 9 16.45 9 17V20C9 20.55 8.55 21 8 21ZM12 21C11.45 21 11 20.55 11 20V17C11 16.45 11.45 16 12 16C12.55 16 13 16.45 13 17V20C13 20.55 12.55 21 12 21ZM20 21H16C15.45 21 15 20.55 15 20V17C15 16.45 15.45 16 16 16H20C20.55 16 21 16.45 21 17V20C21 20.55 20.55 21 20 21Z" fill="currentColor"/>
</svg>
