<svg  viewBox="0 0 24 24" fill="none" xmlns="http://www.w3.org/2000/svg">
<path d="M12 5.85352C6.48 5.85352 2 8.09352 2 10.8535C2 13.0935 4.94 14.9835 9 15.6235V17.6435C9 18.0935 9.54 18.3135 9.85 17.9935L12.64 15.2035C12.84 15.0035 12.84 14.6935 12.64 14.4935L9.85 11.7035C9.54 11.3935 9 11.6135 9 12.0635V13.5835C5.85 13.0235 4 11.6835 4 10.8535C4 9.79352 7.04 7.85352 12 7.85352C16.96 7.85352 20 9.79352 20 10.8535C20 11.5135 18.8 12.5335 16.68 13.1935C16.27 13.3235 16 13.7035 16 14.1335C16 14.8035 16.65 15.2935 17.28 15.0935C20.11 14.2135 22 12.6435 22 10.8535C22 8.09352 17.52 5.85352 12 5.85352Z" fill="currentColor"/>
</svg>
