<svg  viewBox="0 0 24 24" fill="none" xmlns="http://www.w3.org/2000/svg">
<path d="M11.0484 21.2486L16.5784 15.7086C16.9484 15.3386 17.1584 14.8286 17.1584 14.2986V4.30859C17.1584 3.20859 16.2584 2.30859 15.1584 2.30859H6.16836C5.36836 2.30859 4.64836 2.78859 4.33836 3.51859L1.07836 11.1286C0.228357 13.1086 1.67836 15.3086 3.82836 15.3086H9.47836L8.52836 19.8886C8.42836 20.3886 8.57836 20.8986 8.93836 21.2586C9.52836 21.8386 10.4684 21.8386 11.0484 21.2486ZM21.1684 2.30859C20.0684 2.30859 19.1684 3.20859 19.1684 4.30859V12.3086C19.1684 13.4086 20.0684 14.3086 21.1684 14.3086C22.2684 14.3086 23.1684 13.4086 23.1684 12.3086V4.30859C23.1684 3.20859 22.2684 2.30859 21.1684 2.30859Z" fill="currentColor"/>
</svg>
