<svg width="24" height="24" viewBox="0 0 24 24" fill="none" xmlns="http://www.w3.org/2000/svg">
    <path d="M15.1584 2.31006H6.16842C5.36842 2.31006 4.64842 2.79006 4.33842 3.52006L1.07842 11.1301C0.228418 13.1101 1.67842 15.3101 3.82842 15.3101H9.47842L8.52842 19.8901C8.42842 20.3901 8.57842 20.9001 8.93842 21.2601C9.22842 21.5501 9.60842 21.6901 9.98842 21.6901C10.3684 21.6901 10.7584 21.5401 11.0484 21.2501L16.5784 15.7101C16.9484 15.3401 17.1584 14.8301 17.1584 14.3001V4.31006C17.1584 3.21006 16.2584 2.31006 15.1584 2.31006ZM10.8284 18.6401L11.4384 15.7201L11.9384 13.3101H3.82842C3.35842 13.3101 3.10842 13.0301 2.99842 12.8601C2.88842 12.6901 2.72842 12.3501 2.91842 11.9101L6.16842 4.31006H15.1584V14.3001L10.8284 18.6401Z" fill="currentColor" />
    <path d="M21.1684 2.31006C20.0684 2.31006 19.1684 3.21006 19.1684 4.31006V12.3101C19.1684 13.4101 20.0684 14.3101 21.1684 14.3101C22.2684 14.3101 23.1684 13.4101 23.1684 12.3101V4.31006C23.1684 3.21006 22.2684 2.31006 21.1684 2.31006Z" fill="currentColor" />
</svg>
