<svg viewBox="0 0 24 24" fill="none" xmlns="http://www.w3.org/2000/svg">
    <path d="M10.065 5.00022H5.82501L6.485 1.82021C6.565 1.45021 6.445 1.07021 6.185 0.800215C5.745 0.360215 5.035 0.360215 4.605 0.800215L0.605005 4.80022C0.215005 5.17022 0.00500488 5.68022 0.00500488 6.21022V12.0002C0.00500488 13.1002 0.905005 14.0002 2.005 14.0002H7.925C8.725 14.0002 9.44501 13.5202 9.76501 12.7902L11.905 7.79022C12.465 6.47021 11.495 5.00022 10.065 5.00022ZM22.005 10.0002H16.085C15.285 10.0002 14.565 10.4802 14.245 11.2102L12.105 16.2102C11.545 17.5302 12.505 19.0002 13.945 19.0002H18.185L17.525 22.1802C17.445 22.5502 17.565 22.9302 17.825 23.2002C18.265 23.6402 18.975 23.6402 19.405 23.2002L23.405 19.2002C23.785 18.8202 23.995 18.3202 23.995 17.7902V12.0002C24.005 10.9002 23.105 10.0002 22.005 10.0002Z" fill="currentColor" />
</svg>
