<svg  viewBox="0 0 24 24" fill="none" xmlns="http://www.w3.org/2000/svg">
    <path d="M11.0484 21.2481L16.5784 15.7081C16.9484 15.3381 17.1584 14.8281 17.1584 14.2981V4.30811C17.1584 3.20811 16.2584 2.30811 15.1584 2.30811H6.16842C5.36842 2.30811 4.64842 2.78811 4.33842 3.51811L1.07842 11.1281C0.228418 13.1081 1.67842 15.3081 3.82842 15.3081H9.47842L8.52842 19.8881C8.42842 20.3881 8.57842 20.8981 8.93842 21.2581C9.52842 21.8381 10.4684 21.8381 11.0484 21.2481ZM21.1684 2.30811C20.0684 2.30811 19.1684 3.20811 19.1684 4.30811V12.3081C19.1684 13.4081 20.0684 14.3081 21.1684 14.3081C22.2684 14.3081 23.1684 13.4081 23.1684 12.3081V4.30811C23.1684 3.20811 22.2684 2.30811 21.1684 2.30811Z" fill="currentColor" />
</svg>
