<svg viewBox="0 0 24 24" fill="none" xmlns="http://www.w3.org/2000/svg">
<path d="M10.4162 3.20898H14.4162C14.9662 3.20898 15.4162 2.75898 15.4162 2.20898C15.4162 1.65898 14.9662 1.20898 14.4162 1.20898H10.4162C9.86624 1.20898 9.41624 1.65898 9.41624 2.20898C9.41624 2.75898 9.86624 3.20898 10.4162 3.20898ZM12.4162 8.20898C11.9062 8.20898 11.4962 8.59898 11.4362 9.09898L13.4162 11.069V9.20898C13.4162 8.65898 12.9662 8.20898 12.4162 8.20898ZM12.4162 6.20898C16.2862 6.20898 19.4162 9.33898 19.4162 13.209C19.4162 14.329 19.1462 15.389 18.6762 16.329L20.1462 17.799C20.9462 16.459 21.4162 14.889 21.4162 13.209C21.4162 11.089 20.6762 9.13898 19.4462 7.59898L20.1962 6.84898C20.5762 6.46898 20.5862 5.83898 20.1962 5.44898L20.1862 5.43898C19.7962 5.04898 19.1762 5.05898 18.7862 5.43898L18.0362 6.18898C16.4862 4.94898 14.5362 4.20898 12.4162 4.20898C10.7562 4.20898 9.19624 4.68898 7.84624 5.49898L9.29624 6.94898C10.2362 6.47898 11.2962 6.20898 12.4162 6.20898ZM20.6062 21.089L4.28624 4.76898C3.89624 4.37898 3.26624 4.37898 2.87624 4.76898C2.48624 5.15898 2.48624 5.78898 2.87624 6.17898L4.94624 8.24898C4.02624 9.62898 3.46624 11.239 3.41624 12.969C3.28624 18.049 7.35624 22.209 12.4162 22.209C14.2562 22.209 15.9662 21.659 17.3962 20.709L19.1862 22.499C19.5762 22.889 20.2062 22.889 20.5962 22.499C20.9962 22.109 20.9962 21.479 20.6062 21.089ZM12.4162 20.209C8.54624 20.209 5.41624 17.079 5.41624 13.209C5.41624 11.919 5.76624 10.719 6.37624 9.68898L15.9462 19.259C14.9062 19.859 13.7062 20.209 12.4162 20.209Z" fill="currentColor"/>
</svg>
