<svg width="24" height="24" viewBox="0 0 24 24" fill="none" xmlns="http://www.w3.org/2000/svg">
<path d="M20.5 12C20.5 12.55 20.05 13 19.5 13H16.5V14H19C19.83 14 20.5 14.68 20.5 15.5V17.5C20.5 18.33 19.83 19 19 19H15.5C14.95 19 14.5 18.55 14.5 18C14.5 17.45 14.95 17 15.5 17H18.5V16H16C15.18 16 14.5 15.32 14.5 14.5V12.5C14.5 11.68 15.18 11 16 11H19.5C20.05 11 20.5 11.45 20.5 12ZM3.5 6.5C3.5 7.33 4.17 8 5 8H9.5V10.5H5C4.17 10.5 3.5 11.17 3.5 12C3.5 12.83 4.17 13.5 5 13.5H9.5V16H5C4.17 16 3.5 16.67 3.5 17.5C3.5 18.33 4.17 19 5 19H9.5C11.16 19 12.5 17.66 12.5 16V14.1C12.5 12.94 11.56 12 10.4 12C11.56 12 12.5 11.06 12.5 9.9V8C12.5 6.34 11.16 5 9.5 5H5C4.17 5 3.5 5.67 3.5 6.5Z" fill="black"/>
</svg>
