<svg viewBox="0 0 24 24" fill="none" xmlns="http://www.w3.org/2000/svg">
    <path d="M6.25 21H10.25C10.25 22.1 9.35 23 8.25 23C7.15 23 6.25 22.1 6.25 21ZM4.25 19C4.25 19.55 4.7 20 5.25 20H11.25C11.8 20 12.25 19.55 12.25 19C12.25 18.45 11.8 18 11.25 18H5.25C4.7 18 4.25 18.45 4.25 19ZM15.75 10.5C15.75 14.32 13.09 16.36 11.98 17H4.52C3.41 16.36 0.75 14.32 0.75 10.5C0.75 6.36 4.11 3 8.25 3C12.39 3 15.75 6.36 15.75 10.5ZM20.62 8.37L19.25 9L20.62 9.63L21.25 11L21.88 9.63L23.25 9L21.88 8.37L21.25 7L20.62 8.37ZM18.25 7L19.19 4.94L21.25 4L19.19 3.06L18.25 1L17.31 3.06L15.25 4L17.31 4.94L18.25 7Z" fill="currentColor" />
</svg>
