<svg viewBox="0 0 24 24" fill="none" xmlns="http://www.w3.org/2000/svg">
    <path d="M12.97 2.67736C12.37 2.33736 11.63 2.33736 11.03 2.67736L4.03 6.56736L9.1 9.37736C9.83 8.61736 10.86 8.13736 12 8.13736C13.14 8.13736 14.17 8.61736 14.9 9.37736L19.97 6.55736L12.97 2.67736ZM10 12.1374C10 11.0374 10.9 10.1374 12 10.1374C13.1 10.1374 14 11.0374 14 12.1374C14 13.2374 13.1 14.1374 12 14.1374C10.9 14.1374 10 13.2374 10 12.1374ZM3 8.27736L8.13 11.1274C8.04 11.4474 8 11.7874 8 12.1374C8 13.9974 9.27 15.5674 11 16.0074V21.5774L4.03 17.7074C3.39 17.3574 3 16.6874 3 15.9574V8.27736ZM13 21.5774V16.0074C14.73 15.5674 16 13.9974 16 12.1374C16 11.7874 15.96 11.4474 15.87 11.1274L21 8.27736V15.9574C21 16.6874 20.61 17.3574 19.97 17.7074L13 21.5774Z" fill="currentColor" />
</svg>
