<svg viewBox="0 0 24 24" fill="none" xmlns="http://www.w3.org/2000/svg">
    <path d="M8.55141 9.74V6C8.55141 4.62 9.67141 3.5 11.0514 3.5C12.4314 3.5 13.5514 4.62 13.5514 6V9.74C14.7614 8.93 15.5514 7.56 15.5514 6C15.5514 3.51 13.5414 1.5 11.0514 1.5C8.56141 1.5 6.55141 3.51 6.55141 6C6.55141 7.56 7.34141 8.93 8.55141 9.74ZM14.0514 12.21C13.7714 12.07 13.4714 12 13.1614 12H12.5514V6C12.5514 5.17 11.8814 4.5 11.0514 4.5C10.2214 4.5 9.55141 5.17 9.55141 6V16.74L6.11141 16.02C5.74141 15.94 5.35141 16.06 5.08141 16.33C4.65141 16.77 4.65141 17.47 5.08141 17.91L9.09141 21.92C9.47141 22.29 9.98141 22.5 10.5114 22.5H16.6114C17.6114 22.5 18.4514 21.77 18.5914 20.78L19.2214 16.31C19.3414 15.46 18.9014 14.62 18.1314 14.24L14.0514 12.21Z" fill="currentColor" />
</svg>
