<svg viewBox="0 0 24 24" fill="none" xmlns="http://www.w3.org/2000/svg">
    <path d="M18.307 5.66675C17.947 6.02675 17.917 6.58675 18.237 6.98675C19.687 8.80675 20.447 11.2967 19.767 13.9067C18.977 16.9567 16.587 19.2367 13.557 19.8467C8.45696 20.8567 3.98696 16.9167 3.98696 11.9867C3.98696 7.90675 7.03696 4.54675 10.987 4.05675V6.07675C7.85696 6.60675 5.55696 9.53675 6.05696 12.9067C6.44696 15.5167 8.61696 17.6167 11.237 17.9367C14.877 18.3867 17.987 15.5467 17.987 11.9867C17.987 10.7367 17.607 9.58675 16.957 8.62675C16.617 8.12675 15.887 8.09675 15.457 8.51675L15.447 8.52675C15.107 8.86675 15.077 9.39675 15.337 9.79675C15.937 10.7167 16.177 11.8967 15.827 13.1167C15.437 14.4867 14.287 15.5767 12.887 15.8867C10.287 16.4567 7.98696 14.4967 7.98696 11.9867C7.98696 10.1267 9.26696 8.57675 10.987 8.12675V10.2667C10.387 10.6167 9.98696 11.2467 9.98696 11.9867C9.98696 13.0867 10.887 13.9867 11.987 13.9867C13.087 13.9867 13.987 13.0867 13.987 11.9867C13.987 11.2467 13.587 10.6067 12.987 10.2667V2.69675C12.987 2.30675 12.667 1.98675 12.277 1.98675C6.91696 1.78675 2.29696 6.04675 2.00696 11.3867C1.64696 17.9367 7.41696 23.2067 14.017 21.7867C17.897 20.9567 20.897 17.9867 21.767 14.1167C22.477 10.9567 21.567 7.95675 19.797 5.74675C19.427 5.27675 18.727 5.24675 18.307 5.66675Z" fill="currentColor" />
</svg>
