<svg viewBox="0 0 24 24" fill="none" xmlns="http://www.w3.org/2000/svg">
<path d="M21 16.0051H9C8.45 16.0051 8 15.5551 8 15.0051V4.00508H8.79C9.24 4.00508 9.46 3.46508 9.14 3.15508L7.35 1.35508C7.15 1.15508 6.84 1.15508 6.64 1.35508L4.85 3.15508C4.54 3.46508 4.76 4.00508 5.21 4.00508H6V6.00508H3C2.45 6.00508 2 6.45508 2 7.00508C2 7.55508 2.45 8.00508 3 8.00508H6V16.0051C6 17.1051 6.9 18.0051 8 18.0051H16V20.0051H15.21C14.76 20.0051 14.54 20.5451 14.86 20.8551L16.65 22.6451C16.85 22.8451 17.16 22.8451 17.36 22.6451L19.15 20.8551C19.47 20.5451 19.24 20.0051 18.8 20.0051H18V18.0051H21C21.55 18.0051 22 17.5551 22 17.0051C22 16.4551 21.55 16.0051 21 16.0051ZM16 14.0051H18V8.00508C18 6.90508 17.1 6.00508 16 6.00508H10V8.00508H15C15.55 8.00508 16 8.45508 16 9.00508V14.0051Z" fill="currentColor"/>
</svg>
