<svg  viewBox="0 0 24 24" fill="none" xmlns="http://www.w3.org/2000/svg">
<path d="M19.2587 16.9C19.8387 15.89 20.2087 14.67 19.7687 13.25C19.2387 11.53 17.7287 10.2 15.9287 10.03C13.0587 9.75 10.6987 12.1 10.9787 14.98C11.1587 16.77 12.4787 18.29 14.1987 18.82C15.6287 19.26 16.8387 18.89 17.8487 18.31L20.3487 20.81C20.7387 21.2 21.3587 21.2 21.7487 20.81C22.1387 20.42 22.1387 19.8 21.7487 19.41L19.2587 16.9ZM15.4587 17C14.0587 17 12.9587 15.9 12.9587 14.5C12.9587 13.1 14.0587 12 15.4587 12C16.8587 12 17.9587 13.1 17.9587 14.5C17.9587 15.9 16.8587 17 15.4587 17ZM11.9587 20V22C6.43874 22 1.95874 17.52 1.95874 12C1.95874 6.48 6.43874 2 11.9587 2C16.7987 2 20.8287 5.44 21.7587 10H19.6887C19.0487 7.54 17.2887 5.53 14.9587 4.59V5C14.9587 6.1 14.0587 7 12.9587 7H10.9587V9C10.9587 9.55 10.5087 10 9.95874 10H7.95874V12H9.95874V15H8.95874L4.16874 10.21C4.03874 10.79 3.95874 11.38 3.95874 12C3.95874 16.41 7.54874 20 11.9587 20Z" fill="currentColor"/>
</svg>
