<svg viewBox="0 0 24 24" fill="none" xmlns="http://www.w3.org/2000/svg">
    <path d="M16.6462 16.951L18.0862 15.511L13.2062 10.631L9.91624 13.921C9.52625 14.311 8.89625 14.311 8.50625 13.921L2.50625 7.911C2.11625 7.521 2.11625 6.891 2.50625 6.501C2.89625 6.111 3.52624 6.111 3.91624 6.501L9.20624 11.801L12.4962 8.511C12.8862 8.121 13.5162 8.121 13.9062 8.511L19.4962 14.091L20.9362 12.651C21.2462 12.341 21.7862 12.561 21.7862 13.001V17.291C21.7862 17.571 21.5662 17.791 21.2862 17.791H16.9962C16.5562 17.801 16.3362 17.261 16.6462 16.951Z" fill="currentColor" />
</svg>
