<svg viewBox="0 0 24 24" fill="none" xmlns="http://www.w3.org/2000/svg">
    <path d="M20 2.70312H4C2.9 2.70312 2 3.60312 2 4.70312V20.2931C2 21.1831 3.08 21.6331 3.71 21.0031L6 18.7031H20C21.1 18.7031 22 17.8031 22 16.7031V4.70312C22 3.60312 21.1 2.70312 20 2.70312ZM13.57 12.2731L12.45 14.7131C12.27 15.1031 11.72 15.1031 11.54 14.7131L10.42 12.2731L7.98 11.1531C7.59 10.9731 7.59 10.4231 7.98 10.2431L10.42 9.12313L11.54 6.68313C11.72 6.29313 12.27 6.29313 12.45 6.68313L13.57 9.12313L16.01 10.2431C16.4 10.4231 16.4 10.9731 16.01 11.1531L13.57 12.2731Z" fill="currentColor" />
</svg>
