<svg viewBox="0 0 24 24" fill="none" xmlns="http://www.w3.org/2000/svg">
<path d="M14.9857 4.01367C15.5357 4.01367 15.9857 4.46367 15.9857 5.01367C15.9857 5.56367 15.5357 6.01367 14.9857 6.01367C14.4357 6.01367 13.9857 5.56367 13.9857 5.01367C13.9857 4.46367 14.4357 4.01367 14.9857 4.01367ZM13.9857 7.01367C14.5357 7.01367 14.9857 7.46367 14.9857 8.01367C14.9857 8.56367 14.5357 9.01367 13.9857 9.01367C13.4357 9.01367 12.9857 8.56367 12.9857 8.01367C12.9857 7.46367 13.4357 7.01367 13.9857 7.01367ZM11.9857 4.01367C12.5357 4.01367 12.9857 4.46367 12.9857 5.01367C12.9857 5.56367 12.5357 6.01367 11.9857 6.01367C11.4357 6.01367 10.9857 5.56367 10.9857 5.01367C10.9857 4.46367 11.4357 4.01367 11.9857 4.01367ZM16.9857 9.01367C16.4357 9.01367 15.9857 8.56367 15.9857 8.01367C15.9857 7.46367 16.4357 7.01367 16.9857 7.01367C17.5357 7.01367 17.9857 7.46367 17.9857 8.01367C17.9857 8.56367 17.5357 9.01367 16.9857 9.01367ZM17.9857 6.01367C17.4357 6.01367 16.9857 5.56367 16.9857 5.01367C16.9857 4.46367 17.4357 4.01367 17.9857 4.01367C18.5357 4.01367 18.9857 4.46367 18.9857 5.01367C18.9857 5.56367 18.5357 6.01367 17.9857 6.01367ZM19.9857 9.01367C19.4357 9.01367 18.9857 8.56367 18.9857 8.01367C18.9857 7.46367 19.4357 7.01367 19.9857 7.01367C20.5357 7.01367 20.9857 7.46367 20.9857 8.01367C20.9857 8.56367 20.5357 9.01367 19.9857 9.01367ZM20.9857 6.01367C20.4357 6.01367 19.9857 5.56367 19.9857 5.01367C19.9857 4.46367 20.4357 4.01367 20.9857 4.01367C21.5357 4.01367 21.9857 4.46367 21.9857 5.01367C21.9857 5.56367 21.5357 6.01367 20.9857 6.01367ZM14.6057 14.3937L12.0857 16.9137C9.5857 15.4837 7.5157 13.4137 6.0857 10.9137L8.6057 8.39367C8.8457 8.15367 8.9457 7.81367 8.8857 7.49367L8.1457 3.81367C8.0557 3.35367 7.6457 3.01367 7.1657 3.01367H3.0157C2.4557 3.01367 1.9857 3.48367 2.0157 4.04367C2.1857 6.93367 3.0357 9.64367 4.4157 12.0137C5.9957 14.7437 8.2657 17.0037 10.9857 18.5837C13.3557 19.9537 16.0657 20.8137 18.9557 20.9837C19.5157 21.0137 19.9857 20.5437 19.9857 19.9837V15.8337C19.9857 15.3537 19.6457 14.9437 19.1857 14.8537L15.5157 14.1237C15.1857 14.0537 14.8457 14.1537 14.6057 14.3937ZM14.9857 10.0137C15.5357 10.0137 15.9857 10.4637 15.9857 11.0137C15.9857 11.5637 15.5357 12.0137 14.9857 12.0137C14.4357 12.0137 13.9857 11.5637 13.9857 11.0137C13.9857 10.4637 14.4357 10.0137 14.9857 10.0137ZM11.9857 10.0137C12.5357 10.0137 12.9857 10.4637 12.9857 11.0137C12.9857 11.5637 12.5357 12.0137 11.9857 12.0137C11.4357 12.0137 10.9857 11.5637 10.9857 11.0137C10.9857 10.4637 11.4357 10.0137 11.9857 10.0137ZM17.9857 12.0137C17.4357 12.0137 16.9857 11.5637 16.9857 11.0137C16.9857 10.4637 17.4357 10.0137 17.9857 10.0137C18.5357 10.0137 18.9857 10.4637 18.9857 11.0137C18.9857 11.5637 18.5357 12.0137 17.9857 12.0137ZM20.9857 12.0137C20.4357 12.0137 19.9857 11.5637 19.9857 11.0137C19.9857 10.4637 20.4357 10.0137 20.9857 10.0137C21.5357 10.0137 21.9857 10.4637 21.9857 11.0137C21.9857 11.5637 21.5357 12.0137 20.9857 12.0137Z" fill="currentColor"/>
</svg>
