<svg viewBox="0 0 24 24" fill="none" xmlns="http://www.w3.org/2000/svg">
<path d="M21 8.10859V17.9886L22.85 19.8386C22.95 19.6186 23 19.3686 23 19.1086V7.10859C23 5.99859 22.1 5.10859 21 5.10859H13.41L16.35 2.16859C16.55 1.96859 16.55 1.65859 16.35 1.45859C16.15 1.25859 15.84 1.25859 15.64 1.45859L12 5.09859L8.36 1.45859C8.16 1.25859 7.85 1.25859 7.65 1.45859C7.45 1.65859 7.45 1.96859 7.65 2.16859L10.59 5.10859H8.12L10.12 7.10859H20C20.55 7.10859 21 7.55859 21 8.10859ZM3.12 2.93859C2.73 2.54859 2.1 2.54859 1.71 2.93859C1.32 3.32859 1.32 3.95859 1.71 4.34859L2.53 5.16859C1.65 5.38859 1 6.16859 1 7.10859V19.1086C1 20.2086 1.9 21.1086 3 21.1086H18.46L19.75 22.3986C20.14 22.7886 20.77 22.7886 21.16 22.3986C21.52 22.0386 21.53 21.4786 21.23 21.0886H21.26L3.12 2.93859ZM3 18.1086V8.10859C3 7.55859 3.45 7.10859 4 7.10859H4.46L16.46 19.1086H4C3.45 19.1086 3 18.6586 3 18.1086Z" fill="currentColor"/>
</svg>
