<svg  viewBox="0 0 24 24" fill="none" xmlns="http://www.w3.org/2000/svg">
<path d="M20 10.998C19.82 10.998 19.64 11.028 19.47 11.048L17.41 8.99805H19C19.55 8.99805 20 8.54805 20 7.99805V7.61805C20 6.87805 19.22 6.38805 18.55 6.72805L16.27 7.86805L13.7 5.29805C13.52 5.10805 13.26 4.99805 13 4.99805H10C9.45 4.99805 9 5.44805 9 5.99805C9 6.54805 9.45 6.99805 10 6.99805H12.17C12.44 6.99805 12.69 7.10805 12.88 7.28805L14.59 8.99805H11.24C11.08 8.99805 10.93 9.03805 10.79 9.10805L7.65 10.678C7.27 10.868 6.8 10.798 6.5 10.488L5.3 9.28805C5.11 9.10805 4.85 8.99805 4.59 8.99805H1C0.45 8.99805 0 9.44805 0 9.99805C0 10.548 0.45 10.998 1 10.998H4C1.48 10.998 -0.49 13.318 0.11 15.938C0.44 17.388 1.61 18.558 3.06 18.888C5.68 19.488 8 17.518 8 14.998L9.41 16.408C9.79 16.788 10.3 16.998 10.83 16.998H11.84C12.56 16.998 13.22 16.618 13.58 15.988L16.49 10.898L17.5 11.908C16.37 12.818 15.74 14.318 16.12 15.958C16.46 17.398 17.63 18.568 19.07 18.898C21.68 19.488 24 17.508 24 14.998C24 12.788 22.21 10.998 20 10.998ZM4 16.998C2.9 16.998 2 16.098 2 14.998C2 13.898 2.9 12.998 4 12.998C5.1 12.998 6 13.898 6 14.998C6 16.098 5.1 16.998 4 16.998ZM20 16.998C18.9 16.998 18 16.098 18 14.998C18 13.898 18.9 12.998 20 12.998C21.1 12.998 22 13.898 22 14.998C22 16.098 21.1 16.998 20 16.998Z" fill="currentColor"/>
</svg>
