<svg viewBox="0 0 24 24" fill="none" xmlns="http://www.w3.org/2000/svg">
<path d="M17.12 6.78L14.5 7.42L13 6.27V3.9C13 3.64 13.22 3.42 13.5 3.42C13.73 3.42 13.93 3.58 13.99 3.78C14.1 4.2 14.49 4.5 14.94 4.5C15.49 4.5 15.94 4.05 15.94 3.5C15.94 3.4 15.92 3.3 15.89 3.2C15.59 2.22 14.63 1.5 13.5 1.5C12.12 1.5 11 2.57 11 3.9V6.27L9.5 7.42L6.88 6.78C6.5 6.69 6.16 7.05 6.28 7.42L11.05 21.81C11.2 22.27 11.6 22.5 12 22.5C12.4 22.5 12.8 22.27 12.95 21.81L17.72 7.42C17.84 7.05 17.5 6.69 17.12 6.78ZM11 15.3L9.03 9.36L9.95 9.59L10.71 9.01L11 8.79V15.3ZM13 15.3V8.79L13.28 9.01L14.04 9.59L14.96 9.36L13 15.3Z" fill="currentColor"/>
</svg>
