<svg width="24" height="24" viewBox="0 0 24 24" fill="none" xmlns="http://www.w3.org/2000/svg">
<path d="M12 5.8307L14.46 8.2907C14.85 8.6807 15.48 8.6807 15.87 8.2907C16.26 7.9007 16.26 7.2707 15.87 6.8807L12.7 3.7007C12.31 3.3107 11.68 3.3107 11.29 3.7007L8.12001 6.8807C7.73001 7.2707 7.73001 7.9007 8.12001 8.2907C8.51001 8.6807 9.14001 8.6807 9.53001 8.2907L12 5.8307ZM12 18.1707L9.54001 15.7107C9.15001 15.3207 8.52001 15.3207 8.13001 15.7107C7.74001 16.1007 7.74001 16.7307 8.13001 17.1207L11.3 20.3007C11.69 20.6907 12.32 20.6907 12.71 20.3007L15.88 17.1307C16.27 16.7407 16.27 16.1107 15.88 15.7207C15.49 15.3307 14.86 15.3307 14.47 15.7207L12 18.1707Z" fill="black"/>
</svg>
