<svg width="24" height="24" viewBox="0 0 24 24" fill="none" xmlns="http://www.w3.org/2000/svg">
<path d="M8.12001 19.3007C8.51001 19.6907 9.14001 19.6907 9.53001 19.3007L12 16.8307L14.47 19.3007C14.86 19.6907 15.49 19.6907 15.88 19.3007C16.27 18.9107 16.27 18.2807 15.88 17.8907L12.71 14.7207C12.32 14.3307 11.69 14.3307 11.3 14.7207L8.13001 17.8907C7.73001 18.2707 7.73001 18.9107 8.12001 19.3007ZM15.88 4.7007C15.49 4.3107 14.86 4.3107 14.47 4.7007L12 7.1707L9.53001 4.7007C9.14001 4.3107 8.51001 4.3107 8.12001 4.7007C7.73001 5.0907 7.73001 5.7307 8.12001 6.1207L11.29 9.2907C11.68 9.6807 12.31 9.6807 12.7 9.2907L15.87 6.1207C16.27 5.7307 16.27 5.0907 15.88 4.7007Z" fill="black"/>
</svg>
