<svg viewBox="0 0 24 24" fill="none" xmlns="http://www.w3.org/2000/svg">
    <path d="M20.5863 20.3985L3.60631 3.41847C3.21631 3.02847 2.58631 3.02847 2.19631 3.41847C1.80631 3.80847 1.80631 4.43847 2.19631 4.82847L3.75631 6.38847C2.50631 8.26847 1.87631 10.5985 2.16631 13.0885C2.69631 17.6285 6.37631 21.3085 10.9063 21.8285C13.3963 22.1185 15.7163 21.4885 17.6063 20.2385L19.1663 21.7985C19.5563 22.1885 20.1863 22.1885 20.5763 21.7985C20.9763 21.4185 20.9763 20.7885 20.5863 20.3985ZM9.97631 15.7985L7.14631 12.9685C6.75631 12.5785 6.75631 11.9485 7.14631 11.5585C7.53631 11.1685 8.16631 11.1685 8.55631 11.5585L10.6763 13.6785L10.8563 13.4985L12.2663 14.9085L11.3863 15.7885C10.9963 16.1885 10.3663 16.1885 9.97631 15.7985ZM13.6863 10.6685L6.58631 3.56847C8.46631 2.31847 10.7963 1.68847 13.2863 1.97847C17.8263 2.50847 21.5063 6.18847 22.0263 10.7185C22.3163 13.2085 21.6863 15.5385 20.4363 17.4185L15.0963 12.0785L17.0363 10.1385C17.4263 9.74847 17.4263 9.11847 17.0363 8.72847C16.6463 8.33847 16.0163 8.33847 15.6263 8.72847L13.6863 10.6685Z" fill="currentColor" />
</svg>
