<svg width="24" height="24" viewBox="0 0 24 24" fill="none" xmlns="http://www.w3.org/2000/svg">
<path d="M18 12C18.92 12 19.75 12.26 20.49 12.69V5.5C20.49 4.4 19.6 3.5 18.5 3.5H4.5C3.4 3.5 2.5 4.4 2.5 5.5V15.5C2.5 16.6 3.4 17.5 4.5 17.5H13.05C13.03 17.33 13 17.17 13 17C13 14.24 15.24 12 18 12ZM12.39 10.55C11.83 10.83 11.16 10.83 10.6 10.55L4.99 7.75C4.69 7.6 4.5 7.29 4.5 6.95C4.5 6.29 5.2 5.85 5.79 6.15L11.5 9L17.21 6.15C17.8 5.85 18.5 6.28 18.5 6.95C18.5 7.29 18.31 7.6 18.01 7.75L12.39 10.55ZM18 13.5C16.07 13.5 14.5 15.07 14.5 17C14.5 18.93 16.07 20.5 18 20.5C19.93 20.5 21.5 18.93 21.5 17C21.5 15.07 19.93 13.5 18 13.5ZM20 17C20 17.28 19.78 17.5 19.5 17.5H16.5C16.22 17.5 16 17.28 16 17C16 16.72 16.22 16.5 16.5 16.5H19.5C19.78 16.5 20 16.72 20 17Z" fill="black"/>
</svg>
