<svg viewBox="0 0 24 24" fill="none" xmlns="http://www.w3.org/2000/svg">
    <path d="M10.9983 8.74829V12.4283C10.9983 12.7783 11.1883 13.1083 11.4883 13.2883L14.6083 15.1383C14.9683 15.3483 15.4283 15.2283 15.6383 14.8783C15.8483 14.5183 15.7383 14.0583 15.3783 13.8483L12.5083 12.1383V8.73829C12.4983 8.33829 12.1583 7.99829 11.7483 7.99829C11.3383 7.99829 10.9983 8.33829 10.9983 8.74829ZM20.9983 9.49829V4.20829C20.9983 3.75829 20.4583 3.53829 20.1483 3.85829L18.3683 5.63829C16.5583 3.82829 13.9783 2.78829 11.1583 3.03829C6.9683 3.41829 3.5183 6.78829 3.0583 10.9783C2.4583 16.3983 6.6883 20.9983 11.9983 20.9983C16.5883 20.9983 20.3783 17.5583 20.9283 13.1183C20.9983 12.5183 20.5283 11.9983 19.9283 11.9983C19.4283 11.9983 19.0083 12.3683 18.9483 12.8583C18.5183 16.3483 15.5083 19.0483 11.8983 18.9983C8.1883 18.9483 5.0583 15.8183 4.9983 12.0983C4.9383 8.19829 8.1083 4.99829 11.9983 4.99829C13.9283 4.99829 15.6783 5.78829 16.9483 7.04829L14.8583 9.13829C14.5383 9.45829 14.7583 9.99829 15.2083 9.99829H20.4983C20.7783 9.99829 20.9983 9.77829 20.9983 9.49829Z" fill="currentColor" />
</svg>
