<svg viewBox="0 0 24 24" fill="none" xmlns="http://www.w3.org/2000/svg">
    <path d="M21.0862 19.895L4.10625 2.91498C3.71625 2.52498 3.08625 2.52498 2.69625 2.91498C2.30625 3.30498 2.30625 3.93498 2.69625 4.32498L5.00625 6.63498C4.16625 7.96498 3.64625 9.49498 3.59625 11.145C3.45625 16.235 7.53625 20.405 12.5962 20.405C14.3562 20.405 15.9862 19.885 17.3762 19.015L19.6662 21.305C20.0562 21.695 20.6862 21.695 21.0762 21.305C21.4762 20.915 21.4762 20.285 21.0862 19.895ZM11.3162 18.295C8.53625 17.805 6.27625 15.585 5.73625 12.825C5.39625 11.105 5.70625 9.46498 6.45625 8.09498L15.9162 17.555C14.5762 18.275 12.9962 18.585 11.3162 18.295ZM13.5962 7.40498V9.57498L11.5962 7.57498V7.40498C11.5962 6.85498 12.0462 6.40498 12.5962 6.40498C13.1462 6.40498 13.5962 6.85498 13.5962 7.40498ZM21.3162 13.635C21.0862 14.555 20.7062 15.405 20.2162 16.185L18.7462 14.715C19.0162 14.215 19.2362 13.685 19.3762 13.125C19.4862 12.705 19.8862 12.405 20.3262 12.405C20.9762 12.405 21.4762 13.015 21.3162 13.635ZM7.83625 3.81498C9.29625 2.88498 11.0162 2.36498 12.8362 2.40498C15.4862 2.47498 17.8362 3.68498 19.4362 5.56498L20.7462 4.25498C21.0562 3.94498 21.5962 4.16498 21.5962 4.61498V8.90498C21.5962 9.18498 21.3762 9.40498 21.0962 9.40498H16.8062C16.3562 9.40498 16.1362 8.86498 16.4562 8.55498L18.0062 7.00498C16.7162 5.42498 14.7762 4.40498 12.5962 4.40498C11.3962 4.40498 10.2662 4.71498 9.27625 5.25498L7.83625 3.81498Z" fill="currentColor" />
</svg>
