<svg viewBox="0 0 24 24" fill="none" xmlns="http://www.w3.org/2000/svg">
    <path d="M16 18.8914C16 19.4414 15.55 19.8914 15 19.8914H9C8.45 19.8914 8 19.4414 8 18.8914C8 18.3414 8.45 17.8914 9 17.8914H15C15.55 17.8914 16 18.3414 16 18.8914ZM11 7.88139V14.8914C11 15.4414 11.45 15.8914 12 15.8914C12.55 15.8914 13 15.4414 13 14.8914V7.88139H14.79C15.24 7.88139 15.46 7.34139 15.14 7.03139L12.35 4.25139C12.15 4.06139 11.84 4.06139 11.64 4.25139L8.86 7.03139C8.54 7.34139 8.76 7.88139 9.21 7.88139H11Z" fill="currentColor" />
</svg>
