<svg width="24" height="24" viewBox="0 0 24 24" fill="none" xmlns="http://www.w3.org/2000/svg">
<path d="M10 16.2966H14C14.55 16.2966 15 15.8466 15 15.2966V10.2966H16.59C17.48 10.2966 17.93 9.2166 17.3 8.5866L12.71 3.9966C12.32 3.6066 11.69 3.6066 11.3 3.9966L6.71 8.5866C6.08 9.2166 6.52 10.2966 7.41 10.2966H9V15.2966C9 15.8466 9.45 16.2966 10 16.2966ZM6 18.2966H18C18.55 18.2966 19 18.7466 19 19.2966C19 19.8466 18.55 20.2966 18 20.2966H6C5.45 20.2966 5 19.8466 5 19.2966C5 18.7466 5.45 18.2966 6 18.2966Z" fill="black"/>
</svg>
