<svg width="24" height="24" viewBox="0 0 24 24" fill="none" xmlns="http://www.w3.org/2000/svg">
<path d="M18.095 7.23598H16.095C15.545 7.23598 15.095 7.68598 15.095 8.23598V10.236C15.095 10.786 15.545 11.236 16.095 11.236V13.236H13.095V5.23598H14.095C14.505 5.23598 14.745 4.76598 14.495 4.43598L12.495 1.76598C12.295 1.49598 11.895 1.49598 11.695 1.76598L9.695 4.43598C9.445 4.76598 9.685 5.23598 10.095 5.23598H11.095V13.236H8.095V11.166C8.925 10.726 9.475 9.80598 9.235 8.73598C9.065 7.96598 8.465 7.33598 7.715 7.12598C6.245 6.71598 4.895 7.82598 4.895 9.23598C4.895 10.086 5.395 10.796 6.095 11.166V13.236C6.095 14.336 6.995 15.236 8.095 15.236H11.095V18.286C10.235 18.736 9.705 19.706 9.965 20.776C10.145 21.526 10.755 22.156 11.505 22.356C12.965 22.746 14.305 21.656 14.305 20.236C14.305 19.386 13.815 18.656 13.105 18.286V15.236H16.105C17.205 15.236 18.105 14.336 18.105 13.236V11.236C18.655 11.236 19.105 10.786 19.105 10.236V8.23598C19.095 7.68598 18.645 7.23598 18.095 7.23598Z" fill="black"/>
</svg>
