<svg  viewBox="0 0 24 24" fill="none" xmlns="http://www.w3.org/2000/svg">
<path d="M10.3056 4.93988L12.3056 2.26988C12.5056 1.99988 12.9056 1.99988 13.1056 2.26988L15.1056 4.93988C15.3556 5.26988 15.1156 5.73988 14.7056 5.73988H13.7056V9.90988L11.7056 7.90988V5.73988H10.7056C10.2956 5.73988 10.0556 5.26988 10.3056 4.93988ZM16.2056 11.7399H16.7056V12.9099L18.4756 14.6799C18.6156 14.3999 18.7056 14.0799 18.7056 13.7399V11.7399H19.2056C19.4856 11.7399 19.7056 11.5199 19.7056 11.2399V8.23988C19.7056 7.95988 19.4856 7.73988 19.2056 7.73988H16.2056C15.9256 7.73988 15.7056 7.95988 15.7056 8.23988V11.2399C15.7056 11.5199 15.9256 11.7399 16.2056 11.7399ZM21.1956 21.6399C20.8056 22.0299 20.1756 22.0299 19.7856 21.6399L13.8856 15.7399H13.7056V18.0199C14.3056 18.3599 14.7056 18.9999 14.7056 19.7399C14.7056 20.9399 13.6356 21.8999 12.3956 21.7199C11.5156 21.5899 10.8056 20.8399 10.7156 19.9499C10.6356 19.1199 11.0456 18.3999 11.7056 18.0199V15.7399H8.70562C7.60562 15.7399 6.70562 14.8399 6.70562 13.7399V11.4599C6.10562 11.1199 5.70562 10.4799 5.70562 9.73988C5.70562 9.14988 5.96562 8.60988 6.38562 8.23988L2.80562 4.66988C2.41562 4.27988 2.41562 3.64988 2.80562 3.25988C3.19562 2.86988 3.82562 2.86988 4.21562 3.25988L21.1856 20.2299C21.5856 20.6199 21.5856 21.2499 21.1956 21.6399ZM11.7056 13.5699L9.19562 11.0599C9.05562 11.2199 8.88562 11.3499 8.70562 11.4599V13.7399H11.7056V13.5699Z" fill="currentColor"/>
</svg>
