<svg  viewBox="0 0 24 24" fill="none" xmlns="http://www.w3.org/2000/svg">
<path d="M20.7962 17.1652C21.5562 16.8852 22.0962 16.1452 22.0962 15.2952V7.2952C22.0962 6.1952 21.1962 5.2952 20.0962 5.2952H8.92625L20.7962 17.1652ZM17.5962 8.2952C18.4262 8.2952 19.0962 8.9652 19.0962 9.7952C19.0962 10.6252 18.4262 11.2952 17.5962 11.2952C16.7662 11.2952 16.0962 10.6252 16.0962 9.7952C16.0962 8.9652 16.7662 8.2952 17.5962 8.2952ZM20.5862 19.7852L3.60625 2.8052C3.21625 2.4152 2.58625 2.4152 2.19625 2.8052C1.80625 3.1952 1.80625 3.8252 2.19625 4.2152L3.39625 5.4152C2.63625 5.7052 2.09625 6.4452 2.09625 7.2952V15.2952C2.09625 16.3952 2.99625 17.2952 4.09625 17.2952H15.2662L19.1662 21.1952C19.5562 21.5852 20.1862 21.5852 20.5762 21.1952C20.9762 20.8052 20.9762 20.1752 20.5862 19.7852ZM10.0962 12.2952H9.09625V13.2952C9.09625 13.8452 8.64625 14.2952 8.09625 14.2952C7.54625 14.2952 7.09625 13.8452 7.09625 13.2952V12.2952H6.09625C5.54625 12.2952 5.09625 11.8452 5.09625 11.2952C5.09625 10.7452 5.54625 10.2952 6.09625 10.2952H7.09625V9.2952C7.09625 9.24519 7.10625 9.1852 7.10625 9.1352L10.2462 12.2752C10.2062 12.2852 10.1462 12.2952 10.0962 12.2952Z" fill="currentColor"/>
</svg>
