<svg  viewBox="0 0 24 24" fill="none" xmlns="http://www.w3.org/2000/svg">
<path d="M21.2912 14.7699V9.4799C21.2912 8.5899 20.2112 8.1399 19.5812 8.7699L17.2912 11.0699V7.5699C17.2912 7.0199 16.8412 6.5699 16.2912 6.5699H10.6812L19.5912 15.4799C20.2112 16.1099 21.2912 15.6599 21.2912 14.7699ZM3.00124 3.1299C2.61124 3.5199 2.61124 4.1499 3.00124 4.5399L5.02124 6.5699H4.29124C3.74124 6.5699 3.29124 7.0199 3.29124 7.5699V17.5699C3.29124 18.1199 3.74124 18.5699 4.29124 18.5699H16.2912C16.5012 18.5699 16.6812 18.4899 16.8412 18.3899L19.3212 20.8699C19.7112 21.2599 20.3412 21.2599 20.7312 20.8699C21.1212 20.4799 21.1212 19.8499 20.7312 19.4599L4.41124 3.1299C4.02124 2.7399 3.39124 2.7399 3.00124 3.1299Z" fill="currentColor"/>
</svg>
