<svg viewBox="0 0 24 24" fill="none" xmlns="http://www.w3.org/2000/svg">
<path d="M7 20.7735H4C3.45 20.7735 3 20.3235 3 19.7735V8.46354C3 8.04354 3.25 7.67354 3.64 7.52354L14.64 3.29354C15.3 3.04354 16 3.52354 16 4.23354V9.77354H8C7.45 9.77354 7 10.2235 7 10.7735V20.7735ZM17 11.7735H10C9.45 11.7735 9 12.2235 9 12.7735V19.7735C9 20.3235 9.45 20.7735 10 20.7735H14V16.7735C14 16.2235 14.45 15.7735 15 15.7735C15.55 15.7735 16 16.2235 16 16.7735V20.7735H20C20.55 20.7735 21 20.3235 21 19.7735V11.7735C21 10.6735 20.1 9.77354 19 9.77354C17.9 9.77354 17 10.6735 17 11.7735Z" fill="currentColor"/>
</svg>
