<svg viewBox="0 0 24 24" fill="none" xmlns="http://www.w3.org/2000/svg">
    <path d="M15.7209 6.63526C15.3709 6.98526 15.2809 7.51526 15.4709 7.98526C15.7709 8.73526 15.7909 9.56526 15.5209 10.3253C15.3609 10.7853 15.4609 11.3053 15.8109 11.6453C16.4109 12.2453 17.4709 12.1153 17.8309 11.3353C18.4709 9.94526 18.4309 8.34526 17.7109 6.92526C17.3109 6.17526 16.3009 6.04526 15.7209 6.63526ZM19.1809 3.11526C18.7809 3.51526 18.7209 4.13526 19.0509 4.59526C20.9809 7.27526 21.0009 10.8453 19.1409 13.6653C18.8309 14.1253 18.9109 14.7453 19.3009 15.1353C19.8109 15.6453 20.6809 15.5953 21.1109 15.0053C23.6809 11.4953 23.6309 6.80526 20.9409 3.23526C20.5109 2.67526 19.6809 2.61526 19.1809 3.11526ZM9.43085 5.26526L12.9609 8.79526C12.7609 6.93526 11.2909 5.46526 9.43085 5.26526ZM3.71085 3.78526C3.32085 4.17526 3.32085 4.80526 3.71085 5.19526L5.62085 7.10526C5.06085 7.99526 4.83085 9.11526 5.15085 10.3053C5.51085 11.6353 6.59085 12.7053 7.92085 13.0753C9.11086 13.4053 10.2309 13.1653 11.1209 12.6053L15.5209 17.0053C13.7409 15.8253 10.7809 15.2253 9.00085 15.2253C6.33085 15.2253 1.00085 16.5653 1.00085 19.2253V20.2253C1.00085 20.7753 1.45085 21.2253 2.00085 21.2253H16.0009C16.5509 21.2253 17.0009 20.7753 17.0009 20.2253V19.2253C17.0009 18.8553 16.8909 18.5253 16.7109 18.2053L19.0209 20.5153C19.4109 20.9053 20.0409 20.9053 20.4309 20.5153C20.8209 20.1253 20.8209 19.4953 20.4309 19.1053L5.12085 3.78526C4.73085 3.39526 4.10085 3.39526 3.71085 3.78526Z" fill="currentColor" />
</svg>
