<svg  viewBox="0 0 24 24" fill="none" xmlns="http://www.w3.org/2000/svg">
<path d="M3 10.002V14.002C3 14.552 3.45 15.002 4 15.002H7L10.29 18.292C10.92 18.922 12 18.472 12 17.582V6.41204C12 5.52204 10.92 5.07204 10.29 5.70204L7 9.00204H4C3.45 9.00204 3 9.45204 3 10.002ZM16.5 12.002C16.5 10.232 15.48 8.71204 14 7.97204V16.022C15.48 15.292 16.5 13.772 16.5 12.002ZM14 4.45204V4.65204C14 5.03204 14.25 5.36204 14.6 5.50204C17.18 6.53204 19 9.06204 19 12.002C19 14.942 17.18 17.472 14.6 18.502C14.24 18.642 14 18.972 14 19.352V19.552C14 20.182 14.63 20.622 15.21 20.402C18.6 19.112 21 15.842 21 12.002C21 8.16204 18.6 4.89204 15.21 3.60204C14.63 3.37204 14 3.82204 14 4.45204Z" fill="currentColor"/>
</svg>
