<svg  viewBox="0 0 24 24" fill="none" xmlns="http://www.w3.org/2000/svg">
<path d="M3.63 3.63479C3.24 4.02479 3.24 4.65479 3.63 5.04479L7.29 8.70478L7 9.00479H4C3.45 9.00479 3 9.45478 3 10.0048V14.0048C3 14.5548 3.45 15.0048 4 15.0048H7L10.29 18.2948C10.92 18.9248 12 18.4748 12 17.5848V13.4148L16.18 17.5948C15.69 17.9648 15.16 18.2748 14.58 18.5048C14.22 18.6548 14 19.0348 14 19.4248C14 20.1448 14.73 20.6048 15.39 20.3348C16.19 20.0048 16.94 19.5648 17.61 19.0248L18.95 20.3648C19.34 20.7548 19.97 20.7548 20.36 20.3648C20.75 19.9748 20.75 19.3448 20.36 18.9548L5.05 3.63479C4.66 3.24479 4.03 3.24479 3.63 3.63479ZM19 12.0048C19 12.8248 18.85 13.6148 18.59 14.3448L20.12 15.8748C20.68 14.7048 21 13.3948 21 12.0048C21 8.17478 18.6 4.89478 15.22 3.60478C14.63 3.37478 14 3.83479 14 4.46479V4.65479C14 5.03479 14.25 5.36478 14.61 5.50479C17.18 6.54479 19 9.06478 19 12.0048ZM10.29 5.71479L10.12 5.88479L12 7.76479V6.41478C12 5.52479 10.92 5.08479 10.29 5.71479ZM16.5 12.0048C16.5 10.2348 15.48 8.71478 14 7.97478V9.76479L16.48 12.2448C16.49 12.1648 16.5 12.0848 16.5 12.0048Z" fill="currentColor"/>
</svg>
