<svg  viewBox="0 0 24 24" fill="none" xmlns="http://www.w3.org/2000/svg">
<path d="M3.5 11C2.4 11 1.5 11.9 1.5 13V20C1.5 21.1 2.4 22 3.5 22C4.6 22 5.5 21.1 5.5 20V13C5.5 11.9 4.6 11 3.5 11Z" fill="currentColor"/>
<path d="M10.5 5.3C10.5 3.45 11.95 2 13.8 2C14.84 2 15.85 2.49 16.5 3.25C17.15 2.49 18.16 2 19.2 2C21.05 2 22.5 3.45 22.5 5.3C22.5 7.4 20 9.81 17.17 12.39C16.79 12.74 16.2 12.74 15.82 12.39C13 9.81 10.5 7.4 10.5 5.3Z" fill="currentColor"/>
<path d="M20.49 17H13.66C13.55 17 13.44 16.98 13.33 16.94L11.86 16.43C11.6 16.34 11.47 16.06 11.56 15.8C11.65 15.54 11.94 15.4 12.2 15.5L13.32 15.93C13.43 15.97 13.56 16 13.68 16H16.31C16.96 16 17.49 15.47 17.49 14.82C17.49 14.33 17.18 13.89 16.72 13.71L9.8 11.13C9.58 11.04 9.34 11 9.1 11H7.5V20.02L13.87 21.83C14.28 21.95 14.72 21.93 15.12 21.78L22.5 19C22.5 17.89 21.6 17 20.49 17Z" fill="currentColor"/>
</svg>
