<svg viewBox="0 0 24 24" fill="none" xmlns="http://www.w3.org/2000/svg">
<path d="M19.42 11.4987C19.86 15.1287 17.9 17.3487 17.4 17.8887C17.14 17.0787 16.4 16.4987 15.5 16.4987H14.5V13.4987C14.5 12.9487 14.05 12.4987 13.5 12.4987H7.5V10.4987H9.5C10.05 10.4987 10.5 10.0487 10.5 9.49873V7.49873H12.5C13.6 7.49873 14.5 6.59873 14.5 5.49873V2.95873C13.55 2.65873 12.55 2.49873 11.5 2.49873C5.98 2.49873 1.5 6.97873 1.5 12.4987C1.5 18.0187 5.98 22.4987 11.5 22.4987C17.23 22.4987 22.01 17.6387 21.45 11.4987H19.42ZM10.5 20.4287C6.55 19.9387 3.5 16.5787 3.5 12.4987C3.5 11.8787 3.58 11.2887 3.71 10.7087L8.5 15.4987V16.4987C8.5 17.5987 9.4 18.4987 10.5 18.4987V20.4287ZM21.5 4.49873V3.60873C21.5 2.60873 20.82 1.68873 19.84 1.52873C18.58 1.31873 17.5 2.28873 17.5 3.49873V4.49873C16.95 4.49873 16.5 4.94873 16.5 5.49873V8.49873C16.5 9.04873 16.95 9.49873 17.5 9.49873H21.5C22.05 9.49873 22.5 9.04873 22.5 8.49873V5.49873C22.5 4.94873 22.05 4.49873 21.5 4.49873ZM20.5 4.49873H18.5V3.49873C18.5 2.94873 18.95 2.49873 19.5 2.49873C20.05 2.49873 20.5 2.94873 20.5 3.49873V4.49873Z" fill="currentColor"/>
</svg>
