<svg  viewBox="0 0 24 24" fill="none" xmlns="http://www.w3.org/2000/svg">
<path d="M12.6491 10.0011C11.6991 7.3111 8.89909 5.5011 5.76909 6.1211C3.47909 6.5811 1.61909 8.4111 1.13909 10.7011C0.319085 14.5711 3.25909 18.0011 6.99909 18.0011C9.60909 18.0011 11.8291 16.3311 12.6491 14.0011H16.9991V16.0011C16.9991 17.1011 17.8991 18.0011 18.9991 18.0011C20.0991 18.0011 20.9991 17.1011 20.9991 16.0011V14.0011C22.0991 14.0011 22.9991 13.1011 22.9991 12.0011C22.9991 10.9011 22.0991 10.0011 20.9991 10.0011H12.6491ZM6.99909 14.0011C5.89909 14.0011 4.99909 13.1011 4.99909 12.0011C4.99909 10.9011 5.89909 10.0011 6.99909 10.0011C8.09909 10.0011 8.99909 10.9011 8.99909 12.0011C8.99909 13.1011 8.09909 14.0011 6.99909 14.0011Z" fill="currentColor"/>
</svg>
