<svg viewBox="0 0 24 24" fill="none" xmlns="http://www.w3.org/2000/svg">
<path d="M20.69 4.04787C18.66 4.72787 15.86 5.49787 12 5.49787C8.11 5.49787 5.05 4.65787 3.31 4.06787C2.67 3.84787 2 4.32787 2 5.01787V18.9979C2 19.6779 2.66 20.1679 3.31 19.9479C5.36 19.2579 8.1 18.4979 12 18.4979C15.87 18.4979 18.66 19.2579 20.69 19.9479C21.34 20.1579 22 19.6779 22 18.9979V4.99787C22 4.31787 21.34 3.83787 20.69 4.04787ZM17.28 15.2579C15.62 15.0979 13.84 14.9979 12 14.9979C10.13 14.9979 8.37 15.0979 6.72 15.2679C6.27 15.3079 6 14.7879 6.29 14.4479L8.79 11.4479C8.99 11.2079 9.36 11.2079 9.56 11.4479L11.18 13.3879L13.62 10.4579C13.82 10.2179 14.19 10.2179 14.39 10.4579L17.71 14.4479C17.99 14.7879 17.72 15.3079 17.28 15.2579Z" fill="currentColor"/>
</svg>
