<svg viewBox="0 0 24 24" fill="none" xmlns="http://www.w3.org/2000/svg">
<path d="M2.43634 11.6542C1.83634 12.2142 1.49634 13.0042 1.49634 13.8342V19.8642C1.49634 21.5242 2.83634 22.8642 4.49634 22.8642H18.1763C18.8263 22.8642 19.4263 22.3942 19.4963 21.7442C19.5763 20.9942 18.9863 20.3642 18.2563 20.3642H12.9963C12.7163 20.3642 12.4963 20.1442 12.4963 19.8642C12.4963 19.5842 12.7163 19.3642 12.9963 19.3642H20.1763C20.8263 19.3642 21.4263 18.8942 21.4963 18.2442C21.5763 17.4942 20.9863 16.8642 20.2563 16.8642H12.9963C12.7163 16.8642 12.4963 16.6442 12.4963 16.3642C12.4963 16.0842 12.7163 15.8642 12.9963 15.8642H21.1763C21.8263 15.8642 22.4263 15.3942 22.4963 14.7442C22.5763 13.9942 21.9863 13.3642 21.2563 13.3642H12.9963C12.7163 13.3642 12.4963 13.1442 12.4963 12.8642C12.4963 12.5842 12.7163 12.3642 12.9963 12.3642H19.1763C19.8263 12.3642 20.4263 11.8942 20.4963 11.2442C20.5763 10.4942 19.9863 9.86422 19.2563 9.86422H9.35634L10.8463 7.25422C10.9363 7.09422 10.9863 6.92422 10.9863 6.72422C10.9863 6.46422 10.8963 6.22422 10.7263 6.02422L10.3063 5.57422C9.92634 5.18422 9.29634 5.16422 8.89634 5.54422L2.43634 11.6542ZM18.9963 7.86422C20.3763 7.86422 21.4963 6.74422 21.4963 5.36422C21.4963 4.11422 20.0863 2.20422 19.3863 1.32422C19.1863 1.07422 18.8163 1.07422 18.6163 1.32422C17.9063 2.20422 16.4963 4.11422 16.4963 5.36422C16.4963 6.74422 17.6163 7.86422 18.9963 7.86422ZM13.9963 8.86422C14.8263 8.86422 15.4963 8.19422 15.4963 7.36422C15.4963 6.80422 14.8263 5.87422 14.3863 5.32422C14.1863 5.07422 13.8063 5.07422 13.6163 5.32422C13.1663 5.87422 12.4963 6.80422 12.4963 7.36422C12.4963 8.19422 13.1663 8.86422 13.9963 8.86422Z" fill="currentColor"/>
</svg>
