<svg width="24" height="24" viewBox="0 0 24 24" fill="none" xmlns="http://www.w3.org/2000/svg">
<path d="M12.71 6.90332C15.47 6.90332 17.71 9.14332 17.71 11.9033C17.71 12.5433 17.58 13.1533 17.36 13.7233L18.86 15.2233C19.4 14.2333 19.71 13.1033 19.71 11.9033C19.71 9.68332 18.68 7.71332 17.07 6.43332L16.14 3.33332C15.88 2.48332 15.11 1.90332 14.22 1.90332H11.2C10.31 1.90332 9.53996 2.48332 9.27996 3.32332L8.74996 5.11332L10.89 7.25332C11.46 7.03332 12.07 6.90332 12.71 6.90332Z" fill="black"/>
<path d="M2.80996 3.41332C2.41996 3.80332 2.41996 4.43332 2.80996 4.82332L6.55996 8.57332C6.01996 9.57332 5.70996 10.7033 5.70996 11.9033C5.70996 14.1233 6.73996 16.0933 8.34996 17.3733L9.27996 20.4733C9.53996 21.3233 10.31 21.9033 11.2 21.9033H14.22C15.1 21.9033 15.88 21.3233 16.14 20.4733L16.67 18.6933L19.78 21.8033C20.17 22.1933 20.8 22.1933 21.19 21.8033C21.58 21.4133 21.58 20.7833 21.19 20.3933L4.21996 3.41332C3.82996 3.02332 3.19996 3.02332 2.80996 3.41332ZM12.71 16.9033C9.94996 16.9033 7.70996 14.6633 7.70996 11.9033C7.70996 11.2633 7.83996 10.6533 8.05996 10.0833L14.53 16.5533C13.96 16.7733 13.35 16.9033 12.71 16.9033Z" fill="black"/>
</svg>
