<svg width="24" height="24" viewBox="0 0 24 24" fill="none" xmlns="http://www.w3.org/2000/svg">
<path d="M5.35 12.5C6.54 12.5 6.77 13.5 8.68 13.5C10.63 13.5 10.77 12.5 12.01 12.5C13.2 12.5 13.43 13.5 15.34 13.5C17.29 13.5 17.43 12.5 18.67 12.5C19.6 12.5 19.72 12.95 20.68 13.29C21.31 13.51 21.98 13.05 21.98 12.38C21.98 11.86 21.75 11.55 21.34 11.41C20.74 11.19 20.19 10.51 18.65 10.51C16.7 10.51 16.56 11.51 15.32 11.51C14.13 11.51 13.9 10.51 11.99 10.51C10.04 10.51 9.9 11.51 8.66 11.51C7.47 11.51 7.24 10.51 5.33 10.51C3.79 10.51 3.2 11.22 2.65 11.42C2.24 11.55 2 11.85 2 12.39C2 13.06 2.66 13.52 3.29 13.3C4.35 12.94 4.39 12.5 5.35 12.5ZM18.67 14.5C16.72 14.5 16.58 15.5 15.34 15.5C14.15 15.5 13.92 14.5 12.01 14.5C10.06 14.5 9.91 15.5 8.67 15.5C7.43 15.5 7.29 14.5 5.34 14.5C3.81 14.5 3.19 15.21 2.65 15.41C2.24 15.55 2 15.86 2 16.39C2 17.06 2.66 17.52 3.3 17.3C4.32 16.94 4.38 16.5 5.34 16.5C6.58 16.5 6.72 17.5 8.67 17.5C10.62 17.5 10.77 16.5 12.01 16.5C13.2 16.5 13.43 17.5 15.34 17.5C17.28 17.5 17.43 16.5 18.67 16.5C19.61 16.5 19.73 16.96 20.7 17.3C21.33 17.52 22 17.06 22 16.39C22 15.86 21.76 15.56 21.35 15.41C20.82 15.22 20.21 14.5 18.67 14.5ZM5.35 8.5C6.54 8.5 6.77 9.5 8.68 9.5C10.63 9.5 10.77 8.5 12.01 8.5C13.2 8.5 13.43 9.5 15.34 9.5C17.29 9.5 17.43 8.5 18.67 8.5C19.6 8.5 19.72 8.95 20.68 9.29C21.31 9.51 21.98 9.05 21.98 8.38C21.98 7.86 21.75 7.55 21.34 7.41C20.74 7.18 20.19 6.5 18.65 6.5C16.7 6.5 16.56 7.5 15.32 7.5C14.13 7.5 13.9 6.5 11.99 6.5C10.04 6.5 9.9 7.5 8.66 7.5C7.47 7.5 7.24 6.5 5.33 6.5C3.79 6.5 3.2 7.21 2.65 7.41C2.24 7.55 2 7.85 2 8.39C2 9.06 2.66 9.52 3.29 9.3C4.35 8.94 4.39 8.5 5.35 8.5Z" fill="black"/>
</svg>
