<svg viewBox="0 0 24 24" fill="none" xmlns="http://www.w3.org/2000/svg">
<path d="M11.3278 3.92687L2.96778 11.4569C2.62778 11.7569 2.83778 12.3269 3.29778 12.3269H4.99778V19.3269C4.99778 19.8769 5.44778 20.3269 5.99778 20.3269H17.9978C18.5478 20.3269 18.9978 19.8769 18.9978 19.3269V12.3269H20.6978C21.1578 12.3269 21.3778 11.7569 21.0278 11.4569L12.6678 3.92687C12.2878 3.58687 11.7078 3.58687 11.3278 3.92687ZM11.9978 16.3269C10.8978 16.3269 9.99778 15.4269 9.99778 14.3269C9.99778 13.5469 10.9878 11.8869 11.5778 10.9669C11.7778 10.6569 12.2178 10.6569 12.4178 10.9669C13.0078 11.8869 13.9978 13.5469 13.9978 14.3269C13.9978 15.4269 13.0978 16.3269 11.9978 16.3269Z" fill="currentColor"/>
</svg>
