<svg  viewBox="0 0 24 24" fill="none" xmlns="http://www.w3.org/2000/svg">
<path d="M12.66 2.41352C12.28 2.08352 11.71 2.08352 11.33 2.41352C6.45 6.71352 4 10.4535 4 13.6335C4 18.6135 7.8 21.8335 12 21.8335C16.2 21.8335 20 18.6135 20 13.6335C20 10.4535 17.55 6.71352 12.66 2.41352ZM7.83 13.8335C8.2 13.8335 8.5 14.0935 8.57 14.4535C8.98 16.6735 10.85 17.4335 12.21 17.3235C12.64 17.3035 13 17.6435 13 18.0735C13 18.4735 12.68 18.8035 12.28 18.8235C10.15 18.9535 7.66 17.7335 7.09 14.7035C7.01 14.2535 7.37 13.8335 7.83 13.8335Z" fill="currentColor"/>
</svg>
