<svg  viewBox="0 0 24 24" fill="none" xmlns="http://www.w3.org/2000/svg">
<path d="M6.08248 9.76172C5.88248 9.96172 5.88248 10.2717 6.08248 10.4717C7.15248 11.5417 7.24248 13.2217 6.36248 14.3917C6.21248 14.5917 6.24248 14.8617 6.41248 15.0417C6.63248 15.2617 6.98248 15.2317 7.17248 14.9917C8.24248 13.5617 8.23248 11.5617 7.13248 10.1417L14.7525 2.52172C15.2425 2.03172 16.0325 2.03172 16.5225 2.52172C17.0125 3.01172 17.0125 3.80172 16.5225 4.29172L11.3925 9.42172C11.1925 9.62172 11.1925 9.93172 11.3925 10.1317C11.5925 10.3317 11.9025 10.3317 12.1025 10.1317L18.6425 3.59172C19.1325 3.10172 19.9225 3.10172 20.4125 3.59172C20.9025 4.08172 20.9025 4.87172 20.4125 5.36172L13.8725 11.9017C13.6725 12.1017 13.6725 12.4117 13.8725 12.6117C14.0725 12.8117 14.3825 12.8117 14.5825 12.6117L20.0625 7.13172C20.5525 6.64172 21.3425 6.64172 21.8325 7.13172C22.3225 7.62172 22.3225 8.41172 21.8325 8.90172L15.6425 15.0917C15.4425 15.2917 15.4425 15.6017 15.6425 15.8017C15.8425 16.0017 16.1525 16.0017 16.3525 15.8017L20.4225 11.7317C20.9125 11.2417 21.7025 11.2417 22.1925 11.7317C22.6825 12.2217 22.6825 13.0117 22.1925 13.5017L15.1225 20.5717C11.9025 23.7917 6.67248 23.7917 3.45248 20.5717C0.232476 17.3517 0.232476 12.1217 3.45248 8.90172L8.05248 4.30172C8.54248 3.81172 9.33248 3.81172 9.82248 4.30172C10.3125 4.79172 10.3125 5.58172 9.82248 6.07172L6.08248 9.76172ZM7.01248 1.76172C7.01248 1.35172 6.67248 1.01172 6.26248 1.01172C6.22248 1.01172 6.19248 1.01172 6.15248 1.02172C3.52248 1.40172 1.45248 3.48172 1.07248 6.10172C1.07248 6.13172 1.06248 6.17172 1.06248 6.21172C1.06248 6.62172 1.40248 6.96172 1.81248 6.96172C2.19248 6.96172 2.50248 6.68172 2.55248 6.32172C2.83248 4.35172 4.39248 2.79172 6.36248 2.51172C6.73248 2.45172 7.01248 2.14172 7.01248 1.76172ZM17.0125 22.1617C17.0125 22.5717 17.3525 22.9117 17.7625 22.9117C17.8025 22.9117 17.8325 22.9117 17.8725 22.9017C20.5025 22.5217 22.5725 20.4417 22.9525 17.8217C22.9525 17.7917 22.9625 17.7517 22.9625 17.7117C22.9625 17.3017 22.6225 16.9617 22.2125 16.9617C21.8325 16.9617 21.5225 17.2417 21.4725 17.6017C21.1925 19.5717 19.6325 21.1317 17.6625 21.4117C17.2925 21.4717 17.0125 21.7817 17.0125 22.1617Z" fill="currentColor"/>
</svg>
