<svg viewBox="0 0 24 24" fill="none" xmlns="http://www.w3.org/2000/svg">
<path d="M7.06289 12.65H9.36289L8.21289 9L7.06289 12.65ZM22.9329 7C22.5129 7 22.1629 7.3 22.0829 7.7L21.0129 13.29L19.7029 7.78C19.5929 7.32 19.1829 7 18.7129 7C18.2429 7 17.8329 7.32 17.7329 7.78L16.4229 13.29L15.3529 7.7C15.2729 7.3 14.9129 7 14.5029 7C14.4929 7 14.4729 7.01 14.4629 7.01C12.9929 5.18 10.7429 4 8.21289 4C3.79289 4 0.212891 7.58 0.212891 12C0.212891 16.42 3.79289 20 8.21289 20C11.3829 20 14.1129 18.15 15.4129 15.48C15.6129 15.8 15.9629 16 16.3529 16C16.8629 16 17.3029 15.65 17.4229 15.16L18.7129 9.9L20.0029 15.16C20.1229 15.65 20.5729 16 21.0729 16C21.5929 16 22.0329 15.64 22.1529 15.14L23.7629 8.06C23.8929 7.52 23.4829 7 22.9329 7ZM11.1429 16C10.7629 16 10.4229 15.76 10.3029 15.4L9.81289 14H6.61289L6.12289 15.4C5.99289 15.76 5.66289 16 5.28289 16C4.66289 16 4.23289 15.39 4.44289 14.81L6.88289 7.95C7.08289 7.38 7.61289 7 8.21289 7C8.81289 7 9.34289 7.38 9.55289 7.94L11.9929 14.8C12.1929 15.39 11.7629 16 11.1429 16Z" fill="currentColor"/>
</svg>
