<svg viewBox="0 0 24 24" fill="none" xmlns="http://www.w3.org/2000/svg">
<path d="M4.255 19.2654C4.645 19.6554 5.275 19.6554 5.665 19.2654L6.05501 18.8754C6.445 18.4854 6.43501 17.8554 6.05501 17.4754L6.045 17.4654C5.655 17.0754 5.025 17.0754 4.635 17.4654L4.245 17.8554C3.865 18.2554 3.86501 18.8754 4.255 19.2654ZM11.995 22.4754H12.005C12.555 22.4754 12.995 22.0354 12.995 21.4854V20.5254C12.995 19.9754 12.555 19.5354 12.005 19.5354H11.995C11.445 19.5354 11.005 19.9754 11.005 20.5254V21.4854C11.005 22.0354 11.445 22.4754 11.995 22.4754ZM3.015 10.5254H1.995C1.445 10.5254 1.005 10.9654 1.005 11.5154V11.5254C1.005 12.0754 1.445 12.5154 1.995 12.5154H3.005C3.555 12.5154 3.995 12.0754 3.995 11.5254V11.5154C4.005 10.9654 3.565 10.5254 3.015 10.5254ZM15.005 6.33539V2.52539C15.005 1.97539 14.555 1.52539 14.005 1.52539H10.005C9.455 1.52539 9.005 1.97539 9.005 2.52539V6.33539C6.965 7.51539 5.68501 9.85539 6.07501 12.4654C6.47501 15.0754 8.635 17.1654 11.255 17.4854C14.895 17.9254 18.005 15.0854 18.005 11.5354C18.005 9.30539 16.795 7.37539 15.005 6.33539ZM20.005 11.5154V11.5254C20.005 12.0754 20.445 12.5154 20.995 12.5154H22.005C22.555 12.5154 22.995 12.0754 22.995 11.5254V11.5154C22.995 10.9654 22.555 10.5254 22.005 10.5254H20.995C20.445 10.5254 20.005 10.9654 20.005 11.5154ZM17.945 18.8854L18.335 19.2754C18.725 19.6654 19.355 19.6654 19.745 19.2754C20.135 18.8854 20.135 18.2554 19.745 17.8654L19.355 17.4754C18.965 17.0854 18.335 17.0954 17.955 17.4754C17.555 17.8754 17.555 18.4954 17.945 18.8854Z" fill="currentColor"/>
</svg>
