<svg viewBox="0 0 24 24" fill="none" xmlns="http://www.w3.org/2000/svg">
<path d="M14.2754 14.026C14.2754 14.256 14.3654 14.486 14.5354 14.656L19.5154 19.636C19.6854 19.806 19.9054 19.896 20.1354 19.896C20.9254 19.896 21.3154 18.946 20.7554 18.386L15.7754 13.406C15.2254 12.846 14.2754 13.246 14.2754 14.026ZM15.2754 19.896H17.2754L14.2754 16.896V18.896C14.2754 19.446 14.7254 19.896 15.2754 19.896ZM7.92538 4.24602L3.12538 9.04602C2.81538 9.35602 3.03538 9.89602 3.48538 9.89602H4.27538V18.896C4.27538 19.446 4.72538 19.896 5.27538 19.896H11.2754C11.8254 19.896 12.2754 19.446 12.2754 18.896V9.89602H13.0654C13.5154 9.89602 13.7354 9.35602 13.4154 9.04602L8.62539 4.24602C8.43539 4.05602 8.11538 4.05602 7.92538 4.24602ZM9.27538 13.896H7.27538V9.89602H9.27538V13.896Z" fill="currentColor"/>
</svg>
