<svg viewBox="0 0 24 24" fill="none" xmlns="http://www.w3.org/2000/svg">
<path d="M6.05501 4.64078L5.665 4.25078C5.275 3.86078 4.64501 3.87078 4.26501 4.25078L4.255 4.26078C3.865 4.65078 3.865 5.28078 4.255 5.66078L4.645 6.05078C5.035 6.44078 5.655 6.44078 6.045 6.05078L6.05501 6.04078C6.44501 5.66078 6.44501 5.02078 6.05501 4.64078ZM3.015 11.0008H1.995C1.445 11.0008 1.005 11.4408 1.005 11.9908V12.0008C1.005 12.5508 1.445 12.9908 1.995 12.9908H3.005C3.565 13.0008 4.005 12.5608 4.005 12.0108V12.0008C4.005 11.4408 3.565 11.0008 3.015 11.0008ZM12.015 1.05078H12.005C11.445 1.05078 11.005 1.49078 11.005 2.04078V3.00078C11.005 3.55078 11.445 3.99078 11.995 3.99078H12.005C12.565 4.00078 13.005 3.56078 13.005 3.01078V2.04078C13.005 1.49078 12.565 1.05078 12.015 1.05078ZM19.755 4.26078C19.365 3.87078 18.735 3.87078 18.345 4.25078L17.955 4.64078C17.565 5.03078 17.565 5.66078 17.955 6.04078L17.965 6.05078C18.355 6.44078 18.985 6.44078 19.365 6.05078L19.755 5.66078C20.145 5.27078 20.145 4.65078 19.755 4.26078ZM17.945 19.3608L18.335 19.7508C18.725 20.1408 19.355 20.1408 19.745 19.7508C20.135 19.3608 20.135 18.7308 19.745 18.3408L19.355 17.9508C18.965 17.5608 18.335 17.5708 17.955 17.9508C17.555 18.3508 17.555 18.9708 17.945 19.3608ZM20.005 11.9908V12.0008C20.005 12.5508 20.445 12.9908 20.995 12.9908H22.005C22.555 12.9908 22.995 12.5508 22.995 12.0008V11.9908C22.995 11.4408 22.555 11.0008 22.005 11.0008H20.995C20.445 11.0008 20.005 11.4408 20.005 11.9908ZM12.005 6.00078C8.695 6.00078 6.005 8.69078 6.005 12.0008C6.005 15.3108 8.695 18.0008 12.005 18.0008C15.315 18.0008 18.005 15.3108 18.005 12.0008C18.005 8.69078 15.315 6.00078 12.005 6.00078ZM11.995 22.9508H12.005C12.555 22.9508 12.995 22.5108 12.995 21.9608V21.0008C12.995 20.4508 12.555 20.0108 12.005 20.0108H11.995C11.445 20.0108 11.005 20.4508 11.005 21.0008V21.9608C11.005 22.5108 11.445 22.9508 11.995 22.9508ZM4.255 19.7408C4.645 20.1308 5.275 20.1308 5.665 19.7408L6.05501 19.3508C6.44501 18.9608 6.43501 18.3308 6.05501 17.9508L6.045 17.9408C5.655 17.5508 5.025 17.5508 4.635 17.9408L4.245 18.3308C3.865 18.7308 3.865 19.3508 4.255 19.7408Z" fill="currentColor"/>
</svg>
