<svg width="28" height="28" viewBox="0 0 28 28" fill="none" xmlns="http://www.w3.org/2000/svg">
<g filter="url(#filter0_d_425_88075)">
<path d="M21.07 9.37L21.78 8.66C22.17 8.27 22.17 7.64 21.78 7.25C21.39 6.86 20.76 6.86 20.37 7.25L19.66 7.96C19.27 8.35 19.27 8.98 19.66 9.37C20.04 9.76 20.68 9.76 21.07 9.37Z" fill="currentColor"/>
<path d="M23 18H5C4.45 18 4 18.45 4 19C4 19.55 4.45 20 5 20H23C23.55 20 24 19.55 24 19C24 18.45 23.55 18 23 18Z" fill="currentColor"/>
<path d="M14 7C14.56 7 15 6.55 15 6V5C15 4.45 14.55 4 14 4C13.45 4 13 4.45 13 5V6C13 6.55 13.45 7 14 7Z" fill="currentColor"/>
<path d="M6.96 9.34C7.35 9.73 7.98 9.73 8.37 9.34C8.76 8.95 8.76 8.32 8.37 7.93L7.66 7.22C7.27 6.83 6.64 6.83 6.25 7.22C5.86 7.61 5.86 8.24 6.25 8.63L6.96 9.34Z" fill="currentColor"/>
<path d="M21 16C21 12.13 17.87 9 14 9C10.13 9 7 12.13 7 16H21Z" fill="currentColor"/>
</g>
<defs>
<filter id="filter0_d_425_88075" x="-2" y="0" width="32" height="32" filterUnits="userSpaceOnUse" color-interpolation-filters="sRGB">
<feFlood flood-opacity="0" result="BackgroundImageFix"/>
<feColorMatrix in="SourceAlpha" type="matrix" values="0 0 0 0 0 0 0 0 0 0 0 0 0 0 0 0 0 0 127 0" result="hardAlpha"/>
<feOffset dy="4"/>
<feGaussianBlur stdDeviation="2"/>
<feComposite in2="hardAlpha" operator="out"/>
<feColorMatrix type="matrix" values="0 0 0 0 0 0 0 0 0 0 0 0 0 0 0 0 0 0 0.25 0"/>
<feBlend mode="normal" in2="BackgroundImageFix" result="effect1_dropShadow_425_88075"/>
<feBlend mode="normal" in="SourceGraphic" in2="effect1_dropShadow_425_88075" result="shape"/>
</filter>
</defs>
</svg>
