<svg viewBox="0 0 24 24" fill="none" xmlns="http://www.w3.org/2000/svg">
<path d="M5.19507 21V14.5H4.69507C4.14507 14.5 3.69507 14.05 3.69507 13.5V9C3.69507 7.9 4.59507 7 5.69507 7H8.69507C9.79507 7 10.6951 7.9 10.6951 9V13.5C10.6951 14.05 10.2451 14.5 9.69507 14.5H9.19507V21C9.19507 21.55 8.74507 22 8.19507 22H6.19507C5.64507 22 5.19507 21.55 5.19507 21ZM17.6951 21V16H19.3051C19.9851 16 20.4651 15.33 20.2551 14.68L18.1551 8.37C17.8751 7.55 17.1151 7 16.2551 7H16.1351C15.2751 7 14.5051 7.55 14.2351 8.37L12.1351 14.68C11.9151 15.33 12.3951 16 13.0851 16H14.6951V21C14.6951 21.55 15.1451 22 15.6951 22H16.6951C17.2451 22 17.6951 21.55 17.6951 21ZM7.19507 6C8.30507 6 9.19507 5.11 9.19507 4C9.19507 2.89 8.30507 2 7.19507 2C6.08507 2 5.19507 2.89 5.19507 4C5.19507 5.11 6.08507 6 7.19507 6ZM16.1951 6C17.3051 6 18.1951 5.11 18.1951 4C18.1951 2.89 17.3051 2 16.1951 2C15.0851 2 14.1951 2.89 14.1951 4C14.1951 5.11 15.0851 6 16.1951 6Z" fill="currentColor"/>
</svg>
