<svg  viewBox="0 0 24 24" fill="none" xmlns="http://www.w3.org/2000/svg">
<path d="M7.28125 3.29061H20.4513C21.5613 3.29061 22.4513 4.19061 22.4513 5.29061V17.2906C22.4513 17.6306 22.3613 17.9506 22.2213 18.2306L20.4513 16.4606V7.29061H11.2813L7.28125 3.29061ZM20.2313 21.9006L17.6213 19.2906H4.45125C3.34125 19.2906 2.45125 18.3906 2.45125 17.2906V5.29061C2.45125 4.95061 2.53125 4.63061 2.68125 4.35061L1.84125 3.51061C1.45125 3.12061 1.45125 2.49061 1.84125 2.10061C2.23125 1.71061 2.86125 1.71061 3.25125 2.10061L21.6313 20.4806C22.0213 20.8706 22.0213 21.5006 21.6313 21.8906C21.2513 22.2906 20.6213 22.2906 20.2313 21.9006ZM15.6213 17.2906L5.62125 7.29061H4.45125V17.2906H15.6213Z" fill="currentColor"/>
</svg>
