<svg  viewBox="0 0 24 24" fill="none" xmlns="http://www.w3.org/2000/svg">
<path d="M17.09 4.77663C16.39 3.74663 15.59 2.78663 14.69 1.92663C14.34 1.58663 13.75 1.90663 13.85 2.38663C14.04 3.32663 14.24 4.56663 14.24 5.67663C14.24 7.73663 12.89 9.40663 10.83 9.40663C9.29 9.40663 8.03 8.47663 7.48 7.14663C7.38 6.94663 7.34 6.82663 7.28 6.60663C7.17 6.18663 6.62 6.05663 6.38 6.42663C6.2 6.69663 6.03 6.96663 5.87 7.25663C4.68 9.29663 4 11.6766 4 14.2166C4 18.6366 7.58 22.2166 12 22.2166C16.42 22.2166 20 18.6366 20 14.2166C20 10.7266 18.92 7.48663 17.09 4.77663ZM11.71 19.2166C9.93 19.2166 8.49 17.8166 8.49 16.0766C8.49 14.4566 9.54 13.3166 11.3 12.9566C12.77 12.6566 14.28 12.0266 15.33 11.0366C15.61 10.7766 16.07 10.8966 16.15 11.2666C16.38 12.2866 16.5 13.3466 16.5 14.4166C16.51 17.0666 14.36 19.2166 11.71 19.2166Z" fill="currentColor"/>
</svg>
