<svg viewBox="0 0 24 24" fill="none" xmlns="http://www.w3.org/2000/svg">
<path d="M3.89282 4C3.89282 2.89 4.78282 2 5.89282 2C7.00282 2 7.89282 2.89 7.89282 4C7.89282 5.11 7.00282 6 5.89282 6C4.78282 6 3.89282 5.11 3.89282 4ZM9.39282 10.95V9C9.39282 7.9 8.49282 7 7.39282 7H4.39282C3.29282 7 2.39282 7.9 2.39282 9V14C2.39282 14.55 2.84282 15 3.39282 15H4.39282V21C4.39282 21.55 4.84282 22 5.39282 22H7.89282V21.89C6.65282 20.63 5.89282 18.9 5.89282 17C5.89282 14.42 7.30282 12.16 9.39282 10.95ZM15.8928 17C15.8928 18.65 14.5428 20 12.8928 20C11.2428 20 9.89282 18.65 9.89282 17C9.89282 15.89 10.5028 14.94 11.3928 14.42V12.26C9.37282 12.9 7.89282 14.77 7.89282 17C7.89282 19.76 10.1328 22 12.8928 22C15.6528 22 17.8928 19.76 17.8928 17H15.8928ZM18.3928 14H14.3928V9C14.3928 8.45 13.9428 8 13.3928 8C12.8428 8 12.3928 8.45 12.3928 9V15C12.3928 15.55 12.8428 16 13.3928 16H17.8528L19.7728 18.88C20.0828 19.34 20.7028 19.46 21.1628 19.16C21.6228 18.85 21.7428 18.23 21.4428 17.77L19.2328 14.45C19.0428 14.17 18.7228 14 18.3928 14Z" fill="currentColor"/>
</svg>
