<svg  viewBox="0 0 24 24" fill="none" xmlns="http://www.w3.org/2000/svg">
<path d="M12 2.16113C7.8 2.16113 4 5.38113 4 10.3611C4 13.5411 6.45 17.2811 11.34 21.5911C11.72 21.9211 12.29 21.9211 12.67 21.5911C17.55 17.2811 20 13.5411 20 10.3611C20 5.38113 16.2 2.16113 12 2.16113ZM10.23 12.8211L8.82 11.4111C8.43 11.0211 8.43 10.3911 8.82 10.0011C9.21 9.61113 9.84 9.61113 10.23 10.0011L10.94 10.7111L13.77 7.88113C14.16 7.49113 14.79 7.49113 15.18 7.88113C15.57 8.27113 15.57 8.90113 15.18 9.29113L11.64 12.8311C11.26 13.2111 10.62 13.2111 10.23 12.8211Z" fill="currentColor"/>
</svg>
