<svg  viewBox="0 0 24 24" fill="none" xmlns="http://www.w3.org/2000/svg">
<path d="M12.5487 14.4462V20.4462C12.5487 20.9962 12.9987 21.4462 13.5487 21.4462H19.5487C20.0987 21.4462 20.5487 20.9962 20.5487 20.4462V14.4462C20.5487 13.8962 20.0987 13.4462 19.5487 13.4462H13.5487C12.9987 13.4462 12.5487 13.8962 12.5487 14.4462ZM3.54871 21.4462H9.54871C10.0987 21.4462 10.5487 20.9962 10.5487 20.4462V14.4462C10.5487 13.8962 10.0987 13.4462 9.54871 13.4462H3.54871C2.99871 13.4462 2.54871 13.8962 2.54871 14.4462V20.4462C2.54871 20.9962 2.99871 21.4462 3.54871 21.4462ZM2.54871 4.44621V10.4462C2.54871 10.9962 2.99871 11.4462 3.54871 11.4462H9.54871C10.0987 11.4462 10.5487 10.9962 10.5487 10.4462V4.44621C10.5487 3.89621 10.0987 3.44621 9.54871 3.44621H3.54871C2.99871 3.44621 2.54871 3.89621 2.54871 4.44621ZM15.4987 2.84621L11.2487 7.08621C10.8587 7.47621 10.8587 8.10621 11.2487 8.49621L15.4987 12.7462C15.8887 13.1362 16.5187 13.1362 16.9087 12.7462L21.1587 8.49621C21.5487 8.10621 21.5487 7.47621 21.1587 7.08621L16.9187 2.84621C16.5287 2.45621 15.8887 2.45621 15.4987 2.84621Z" fill="currentColor"/>
</svg>
