<svg  viewBox="0 0 24 24" fill="none" xmlns="http://www.w3.org/2000/svg">
<path d="M11 13.918C11 10.558 13.64 7.91797 17 7.91797C19.2 7.91797 21.08 9.04797 22.13 10.778L22.49 10.408C23.35 9.54797 23.25 8.13797 22.29 7.39797C19.44 5.21797 15.87 3.91797 12 3.91797C8.12998 3.91797 4.55998 5.21797 1.70998 7.39797C0.749981 8.13797 0.649981 9.54797 1.50998 10.408L10.59 19.498C11.37 20.278 12.64 20.278 13.42 19.498L13.87 19.048C12.14 18.008 11 16.118 11 13.918Z" fill="currentColor"/>
<path d="M20.44 15.948C20.79 15.358 21 14.668 21 13.918C21 11.678 19.24 9.91797 17 9.91797C14.76 9.91797 13 11.678 13 13.918C13 16.158 14.76 17.918 17 17.918C17.75 17.918 18.44 17.708 19.03 17.358L20.88 19.208C21.27 19.598 21.9 19.598 22.29 19.208C22.68 18.818 22.68 18.188 22.29 17.798L20.44 15.948ZM17 15.918C15.88 15.918 15 15.038 15 13.918C15 12.798 15.88 11.918 17 11.918C18.12 11.918 19 12.798 19 13.918C19 15.038 18.12 15.918 17 15.918Z" fill="currentColor"/>
</svg>
