<svg viewBox="0 0 24 24" fill="none" xmlns="http://www.w3.org/2000/svg">
    <path d="M16.7 5.29488L18.14 3.85488C18.46 3.53488 18.23 3.00488 17.79 3.00488H11.5C11.22 3.00488 11 3.22488 11 3.50488V9.79488C11 10.2449 11.54 10.4649 11.85 10.1449L13.3 8.69488C15.27 10.1549 16.55 12.4749 16.55 15.1149C16.55 15.7749 16.47 16.4249 16.31 17.0349C16.19 17.5349 16.79 17.8949 17.15 17.5249C18.63 15.9949 19.55 13.9149 19.55 11.6149C19.55 9.10488 18.44 6.85488 16.7 5.29488Z" fill="currentColor" />
    <path d="M12.15 13.8549L10.7 15.2949C8.72995 13.8349 7.44995 11.5149 7.44995 8.87488C7.44995 8.21488 7.52995 7.56488 7.68995 6.95488C7.80995 6.45488 7.20995 6.09488 6.84995 6.46488C5.36995 7.99488 4.44995 10.0749 4.44995 12.3749C4.44995 14.8949 5.54995 17.1449 7.28995 18.7049L5.84995 20.1449C5.52995 20.4649 5.75995 20.9949 6.19995 20.9949H12.49C12.77 20.9949 12.99 20.7749 12.99 20.4949V14.2049C13 13.7649 12.46 13.5349 12.15 13.8549Z" fill="currentColor" />
</svg>
