<svg width="24" height="24" viewBox="0 0 24 24" fill="none" xmlns="http://www.w3.org/2000/svg">
<path d="M21.136 4.79902C19.766 3.66902 18.006 2.99902 16.086 2.99902C14.166 2.99902 12.416 3.66902 11.036 4.79902C10.696 5.07902 10.676 5.58902 10.986 5.89902L10.996 5.90902C11.266 6.17902 11.696 6.19902 11.996 5.95902C13.116 5.04902 14.536 4.50902 16.086 4.50902C17.636 4.50902 19.056 5.05902 20.176 5.95902C20.476 6.19902 20.906 6.18902 21.176 5.90902L21.186 5.89902C21.496 5.58902 21.476 5.06902 21.136 4.79902Z" fill="black"/>
<path d="M19.046 8.03902C19.376 7.70902 19.326 7.15902 18.936 6.88902C18.136 6.32902 17.146 5.99902 16.086 5.99902C15.026 5.99902 14.046 6.32902 13.236 6.88902C12.856 7.15902 12.796 7.70902 13.126 8.03902C13.376 8.28902 13.776 8.34902 14.066 8.13902C14.636 7.73902 15.336 7.49902 16.086 7.49902C16.836 7.49902 17.536 7.73902 18.106 8.13902C18.396 8.34902 18.796 8.28902 19.046 8.03902Z" fill="black"/>
<path d="M16.086 8.89902C15.766 8.89902 15.466 8.97902 15.196 9.10902C14.896 9.25902 14.856 9.66902 15.086 9.89902L15.736 10.549C15.936 10.749 16.246 10.749 16.446 10.549L17.096 9.89902C17.326 9.66902 17.286 9.25902 16.986 9.10902C16.716 8.96902 16.406 8.89902 16.086 8.89902Z" fill="black"/>
<path d="M15.226 14.399L12.706 16.899C10.206 15.469 8.13597 13.399 6.70597 10.899L9.20597 8.37902C9.43597 8.13902 9.53597 7.80902 9.47597 7.47902L8.72597 3.79902C8.63597 3.33902 8.22597 2.99902 7.74597 2.99902H3.59597C3.03597 2.99902 2.56597 3.46902 2.59597 4.02902C2.76597 6.91902 3.64597 9.62902 5.02597 11.999C6.60597 14.729 8.87597 16.989 11.596 18.569C13.966 19.939 16.676 20.829 19.566 20.999C20.126 21.029 20.596 20.559 20.596 19.999V15.849C20.596 15.369 20.256 14.959 19.796 14.869L16.126 14.139C15.796 14.069 15.456 14.169 15.226 14.399Z" fill="black"/>
</svg>
