<svg viewBox="0 0 24 24" fill="none" xmlns="http://www.w3.org/2000/svg">
<path d="M20.055 11.3249C20.615 11.7849 21.435 11.7449 21.945 11.2349C22.535 10.6449 22.495 9.66492 21.845 9.13492C18.255 6.19492 13.645 5.10492 9.29503 5.87492L11.885 8.46492C14.775 8.43492 17.685 9.38492 20.055 11.3249ZM17.785 13.1549C17.005 12.5849 16.155 12.1549 15.265 11.8549L18.215 14.8049C18.455 14.2249 18.315 13.5349 17.785 13.1549ZM13.945 17.4149C12.725 16.7849 11.265 16.7849 10.035 17.4149C9.44503 17.7249 9.33503 18.5349 9.80503 19.0049L11.275 20.4749C11.665 20.8649 12.295 20.8649 12.685 20.4749L14.155 19.0049C14.645 18.5349 14.545 17.7249 13.945 17.4149ZM19.675 19.0849L4.11503 3.52492C3.72503 3.13492 3.09503 3.13492 2.70503 3.52492C2.31503 3.91492 2.31503 4.54492 2.70503 4.93492L5.04503 7.28492C4.03503 7.78492 3.05503 8.39492 2.15503 9.13492C1.50503 9.66492 1.46503 10.6449 2.05503 11.2349C2.56503 11.7449 3.37503 11.7949 3.92503 11.3349C4.92503 10.5149 6.02503 9.87492 7.17503 9.40492L9.40503 11.6349C8.27503 11.9349 7.19503 12.4349 6.21503 13.1449C5.52503 13.6449 5.48503 14.6549 6.08503 15.2549L6.09503 15.2649C6.58503 15.7549 7.35503 15.8049 7.92503 15.3949C9.11503 14.5549 10.505 14.1349 11.895 14.1049L18.265 20.4749C18.655 20.8649 19.285 20.8649 19.675 20.4749C20.065 20.1049 20.065 19.4749 19.675 19.0849Z" fill="currentColor"/>
</svg>
