<svg width="24" height="24" viewBox="0 0 24 24" fill="none" xmlns="http://www.w3.org/2000/svg">
<path d="M2.20562 2.91918C1.80562 3.30918 1.80562 3.94918 2.19562 4.33918L4.17562 6.31918C2.87562 8.00918 2.09562 10.1192 2.09562 12.4092C2.09562 14.7692 2.91562 16.9392 4.28562 18.6492C4.65562 19.1192 5.35562 19.1492 5.78562 18.7292C6.14562 18.3692 6.17562 17.8092 5.86562 17.4092C4.75562 16.0392 4.09562 14.2992 4.09562 12.4092C4.09562 10.6592 4.66562 9.05918 5.60562 7.74918L7.03562 9.17918C6.44562 10.1092 6.09562 11.2192 6.09562 12.4092C6.09562 13.6592 6.47562 14.8092 7.12562 15.7592C7.46562 16.2592 8.20562 16.2992 8.63562 15.8692C8.98562 15.5192 9.00562 14.9892 8.73562 14.5792C8.33562 13.9492 8.09562 13.2092 8.09562 12.4092C8.09562 11.7792 8.24562 11.1792 8.50562 10.6492L10.1156 12.2592C10.1156 12.3092 10.0956 12.3592 10.0956 12.4092C10.0956 12.9592 10.3256 13.4592 10.6856 13.8192C11.0456 14.1792 11.5456 14.4092 12.0956 14.4092C12.1456 14.4092 12.1956 14.3992 12.2556 14.3892L19.1656 21.2992C19.5556 21.6892 20.1856 21.6892 20.5756 21.2992C20.9656 20.9092 20.9656 20.2792 20.5756 19.8892L3.60562 2.91918C3.21562 2.52918 2.58562 2.52918 2.20562 2.91918ZM17.7956 14.2792C17.9856 13.6892 18.0956 13.0592 18.0956 12.4092C18.0956 9.09918 15.4056 6.40918 12.0956 6.40918C11.4456 6.40918 10.8156 6.50918 10.2256 6.70918L11.9356 8.41918C11.9856 8.40918 12.0456 8.40918 12.0956 8.40918C14.3056 8.40918 16.0956 10.1992 16.0956 12.4092C16.0956 12.4592 16.0956 12.5192 16.0856 12.5692L17.7956 14.2792ZM12.0956 4.40918C16.5156 4.40918 20.0956 7.98918 20.0956 12.4092C20.0956 13.6292 19.8256 14.7792 19.3256 15.8092L20.8156 17.2992C21.6256 15.8592 22.0956 14.1892 22.0956 12.4092C22.0956 6.88918 17.6156 2.40918 12.0956 2.40918C10.3156 2.40918 8.65562 2.86918 7.20562 3.68918L8.68562 5.16918C9.72562 4.67918 10.8756 4.40918 12.0956 4.40918Z" fill="black"/>
</svg>
