<svg viewBox="0 0 24 24" fill="none" xmlns="http://www.w3.org/2000/svg">
<path d="M2.05697 10.04C2.56697 10.55 3.37697 10.6 3.92697 10.14C8.59697 6.3 15.377 6.3 20.057 10.13C20.617 10.59 21.437 10.55 21.947 10.04C22.537 9.45 22.497 8.47 21.847 7.94C16.137 3.27 7.87697 3.27 2.15697 7.94C1.50697 8.46 1.45697 9.44 2.05697 10.04ZM9.81697 17.8L11.287 19.27C11.677 19.66 12.307 19.66 12.697 19.27L14.167 17.8C14.637 17.33 14.537 16.52 13.937 16.21C12.717 15.58 11.257 15.58 10.027 16.21C9.45697 16.52 9.34697 17.33 9.81697 17.8ZM6.08697 14.07C6.57697 14.56 7.34697 14.61 7.91697 14.2C10.357 12.47 13.637 12.47 16.077 14.2C16.647 14.6 17.417 14.56 17.907 14.07L17.917 14.06C18.517 13.46 18.477 12.44 17.787 11.95C14.347 9.46 9.65697 9.46 6.20697 11.95C5.51697 12.45 5.47697 13.46 6.08697 14.07Z" fill="currentColor"/>
</svg>
