<svg width="24" height="24" viewBox="0 0 24 24" fill="none" xmlns="http://www.w3.org/2000/svg">
<path d="M21.5018 4.94805C21.2918 4.77805 19.1718 2.99805 16.0018 2.99805C12.8218 2.99805 10.7118 4.77805 10.5018 4.94805L16.0018 11.998L21.5018 4.94805Z" fill="black"/>
<path d="M18.7018 15.278L16.1618 14.988C15.5518 14.918 14.9518 15.128 14.5218 15.558L12.6818 17.398C9.85184 15.958 7.53184 13.648 6.09184 10.808L7.94184 8.95805C8.37184 8.52805 8.58184 7.91805 8.51184 7.31805L8.22184 4.79805C8.10184 3.78805 7.25184 3.02805 6.23184 3.02805H4.50184C3.37184 3.02805 2.43184 3.96805 2.50184 5.09805C3.03184 13.638 9.86184 20.468 18.4018 20.998C19.5318 21.068 20.4718 20.128 20.4718 18.998V17.268C20.4718 16.248 19.7118 15.398 18.7018 15.278Z" fill="black"/>
</svg>
