<svg width="24" height="24" viewBox="0 0 24 24" fill="none" xmlns="http://www.w3.org/2000/svg">
<path d="M11.9981 10.882C10.8981 10.882 9.99807 11.782 9.99807 12.882C9.99807 13.982 10.8981 14.882 11.9981 14.882C13.0981 14.882 13.9981 13.982 13.9981 12.882C13.9981 11.782 13.0981 10.882 11.9981 10.882ZM17.9981 12.882C17.9981 9.32203 14.8881 6.48203 11.2481 6.93203C8.62807 7.25203 6.46807 9.34203 6.06807 11.952C5.73807 14.102 6.55807 16.062 7.99807 17.352C8.47807 17.782 9.22807 17.682 9.55807 17.122L9.56807 17.112C9.80807 16.692 9.70807 16.182 9.34807 15.852C8.31807 14.922 7.75807 13.482 8.12807 11.912C8.45807 10.492 9.60807 9.34203 11.0281 9.00203C13.6481 8.37203 15.9981 10.352 15.9981 12.882C15.9981 14.062 15.4781 15.112 14.6681 15.842C14.3081 16.162 14.1981 16.682 14.4381 17.102L14.4481 17.112C14.7581 17.642 15.4781 17.802 15.9481 17.392C17.1981 16.292 17.9981 14.682 17.9981 12.882ZM10.8281 2.95203C6.20807 3.47203 2.47807 7.28203 2.04807 11.912C1.69807 15.612 3.36807 18.932 6.06807 20.922C6.54807 21.272 7.22807 21.122 7.52807 20.612C7.77807 20.182 7.66807 19.622 7.26807 19.322C4.98807 17.632 3.61807 14.772 4.10807 11.622C4.64807 8.12203 7.56807 5.33203 11.0881 4.94203C15.9081 4.39203 19.9981 8.16203 19.9981 12.882C19.9981 15.532 18.7081 17.862 16.7281 19.322C16.3281 19.622 16.2181 20.172 16.4681 20.612C16.7681 21.132 17.4481 21.272 17.9281 20.922C20.3981 19.102 21.9981 16.182 21.9981 12.882C21.9981 6.97203 16.8681 2.26203 10.8281 2.95203Z" fill="black"/>
</svg>
