<svg  viewBox="0 0 24 24" fill="none" xmlns="http://www.w3.org/2000/svg">
<path d="M12.0054 6C13.11 6 14.0054 5.10457 14.0054 4C14.0054 2.89543 13.11 2 12.0054 2C10.9008 2 10.0054 2.89543 10.0054 4C10.0054 5.10457 10.9008 6 12.0054 6Z" fill="currentColor"/>
<path d="M16.4554 14.63L13.9354 8.31C13.6154 7.52 12.8554 7.01 11.9954 7C11.1454 7 10.3754 7.51 10.0554 8.31L7.5354 14.63C7.2854 15.29 7.7754 16 8.4754 16H10.0054V21C10.0054 21.55 10.4554 22 11.0054 22H13.0054C13.5554 22 14.0054 21.55 14.0054 21V16H15.5354C16.2354 16 16.7254 15.29 16.4554 14.63Z" fill="currentColor"/>
</svg>
