<svg  viewBox="0 0 24 24" fill="none" xmlns="http://www.w3.org/2000/svg">
<path d="M10.92 12.4434L12 11.6234L13.07 12.4334C13.46 12.7234 13.99 12.3534 13.85 11.8834L13.43 10.5234L14.63 9.57336C15 9.29336 14.79 8.69336 14.31 8.69336H12.91L12.48 7.35336C12.33 6.89336 11.68 6.89336 11.53 7.35336L11.09 8.69336H9.68C9.21 8.69336 9 9.29336 9.37 9.58336L10.56 10.5334L10.14 11.8934C10 12.3634 10.53 12.7334 10.92 12.4434ZM6 21.3034C6 21.9834 6.67 22.4634 7.32 22.2534L12 20.6934L16.68 22.2534C17.33 22.4734 18 21.9934 18 21.3034V14.9734C19.24 13.5634 20 11.7234 20 9.69336C20 5.27336 16.42 1.69336 12 1.69336C7.58 1.69336 4 5.27336 4 9.69336C4 11.7234 4.76 13.5634 6 14.9734V21.3034ZM12 3.69336C15.31 3.69336 18 6.38336 18 9.69336C18 13.0034 15.31 15.6934 12 15.6934C8.69 15.6934 6 13.0034 6 9.69336C6 6.38336 8.69 3.69336 12 3.69336Z" fill="currentColor"/>
</svg>
