<svg viewBox="0 0 24 24" fill="none" xmlns="http://www.w3.org/2000/svg">
    <path d="M3.74374 2.24898C3.35374 1.85898 2.72374 1.85898 2.33374 2.24898C1.94374 2.63898 1.94374 3.26898 2.33374 3.65898L4.37374 5.70898H3.63374C2.52374 5.70898 1.64374 6.59898 1.64374 7.70898L1.63374 18.709C1.63374 19.819 2.52374 20.709 3.63374 20.709H19.3737L20.6637 21.999C21.0537 22.389 21.6837 22.389 22.0737 21.999C22.4637 21.609 22.4637 20.979 22.0737 20.589L3.74374 2.24898ZM9.63374 3.70898H13.6337V5.70898H10.0337L21.6337 17.309V7.70898C21.6337 6.59898 20.7437 5.70898 19.6337 5.70898H15.6337V3.70898C15.6337 2.59898 14.7437 1.70898 13.6337 1.70898H9.63374C8.64374 1.70898 7.83374 2.40898 7.67374 3.34898L9.63374 5.30898V3.70898Z" fill="currentColor" />
</svg>
