<svg  viewBox="0 0 24 24" fill="none" xmlns="http://www.w3.org/2000/svg">
<path d="M4.50037 6.35059H18.5004C19.0504 6.35059 19.5004 5.90059 19.5004 5.35059C19.5004 4.80059 19.0504 4.35059 18.5004 4.35059H4.50037C3.95037 4.35059 3.50037 4.80059 3.50037 5.35059C3.50037 5.90059 3.95037 6.35059 4.50037 6.35059ZM16.3304 10.3506H4.50037C3.95037 10.3506 3.50037 10.8006 3.50037 11.3506C3.50037 11.9006 3.95037 12.3506 4.50037 12.3506H16.6304C17.6304 12.3506 18.5604 13.0206 18.7204 14.0106C18.9304 15.2606 17.9604 16.3506 16.7504 16.3506H14.5004V15.5606C14.5004 15.1106 13.9604 14.8906 13.6504 15.2106L11.8604 17.0006C11.6604 17.2006 11.6604 17.5106 11.8604 17.7106L13.6504 19.5006C13.9704 19.8206 14.5004 19.5906 14.5004 19.1506V18.3506H16.5004C18.8404 18.3506 20.7104 16.3406 20.4804 13.9606C20.2804 11.8806 18.4204 10.3506 16.3304 10.3506ZM8.50037 16.3506H4.50037C3.95037 16.3506 3.50037 16.8006 3.50037 17.3506C3.50037 17.9006 3.95037 18.3506 4.50037 18.3506H8.50037C9.05037 18.3506 9.50037 17.9006 9.50037 17.3506C9.50037 16.8006 9.05037 16.3506 8.50037 16.3506Z" fill="currentColor"/>
</svg>
