<svg  viewBox="0 0 24 24" fill="none" xmlns="http://www.w3.org/2000/svg">
<path d="M19.3737 4.95773L20.7537 3.57773C21.1437 3.18773 21.1437 2.55773 20.7537 2.16773C20.3637 1.77773 19.7337 1.77773 19.3437 2.16773L17.9537 3.53773L16.5737 2.15773C16.1837 1.76773 15.5537 1.76773 15.1637 2.15773C14.7737 2.54773 14.7737 3.17773 15.1637 3.56773L16.5437 4.94773L15.1637 6.32773C14.7737 6.71773 14.7737 7.34773 15.1637 7.73773C15.5537 8.12773 16.1837 8.12773 16.5737 7.73773L17.9537 6.37773L19.3337 7.75773C19.7237 8.14773 20.3537 8.14773 20.7437 7.75773C21.1337 7.36773 21.1337 6.73773 20.7437 6.34773L19.3737 4.95773Z" fill="currentColor"/>
<path d="M18.6237 8.45773L17.9537 7.78773L17.3637 8.37773C16.6637 9.07773 15.5237 9.25773 14.7137 8.67773C13.6837 7.93773 13.5937 6.48773 14.4537 5.62773L15.1237 4.95773L14.4537 4.28773C14.0937 3.92773 13.9137 3.47773 13.8837 3.00773C12.9637 2.64773 11.9737 2.45773 10.9537 2.45773C6.75374 2.45773 2.95374 5.67773 2.95374 10.6577C2.95374 13.8377 5.40374 17.5777 10.2937 21.8877C10.6737 22.2177 11.2437 22.2177 11.6237 21.8877C16.5037 17.5777 18.9537 13.8377 18.9537 10.6577C18.9537 9.89773 18.8537 9.18773 18.6937 8.51773C18.6737 8.49773 18.6437 8.47773 18.6237 8.45773ZM10.9537 12.4577C9.85374 12.4577 8.95374 11.5577 8.95374 10.4577C8.95374 9.35773 9.85374 8.45773 10.9537 8.45773C12.0537 8.45773 12.9537 9.35773 12.9537 10.4577C12.9537 11.5577 12.0537 12.4577 10.9537 12.4577Z" fill="currentColor"/>
</svg>
