<svg viewBox="0 0 24 24" fill="none" xmlns="http://www.w3.org/2000/svg">
    <path d="M17.2758 14.4729H16.4758L16.2058 14.2029C17.3558 12.8629 17.9658 11.0629 17.7158 9.11293C17.3758 6.47293 15.3658 4.25293 12.7658 3.65293C8.52578 2.67293 4.77578 6.00293 4.77578 9.97293H2.67578C2.20578 9.97293 1.99578 10.5629 2.36578 10.8629L5.76578 13.6129C5.95578 13.8129 6.27578 13.8229 6.47578 13.6229L9.37578 10.8329C9.69578 10.5229 9.47578 9.97293 9.02578 9.97293H6.77578C6.77578 7.48293 8.77578 5.49293 11.2358 5.47293C13.6758 5.45293 15.7758 7.52293 15.7758 9.96293C15.7758 12.4429 13.7558 14.4729 11.2758 14.4729C10.8258 14.4729 10.3858 14.4029 9.97578 14.2829C9.63578 14.1829 9.26578 14.2829 9.01578 14.5429C8.48578 15.0729 8.69578 15.9929 9.40578 16.2029C9.99578 16.3729 10.6258 16.4729 11.2758 16.4729C12.8858 16.4729 14.3558 15.8829 15.4958 14.9029L15.7658 15.1729V15.9629L20.0358 20.2129C20.4458 20.6229 21.1058 20.6229 21.5158 20.2129C21.9258 19.8029 21.9258 19.1329 21.5158 18.7229L17.2758 14.4729Z" fill="currentColor" />
</svg>
