<svg viewBox="0 0 24 24" fill="none" xmlns="http://www.w3.org/2000/svg">
    <path d="M15.9707 14.4713H15.1807L14.9007 14.2013C16.1007 12.8013 16.7207 10.8913 16.3807 8.86133C15.9107 6.08133 13.5907 3.86133 10.7907 3.52133C6.56072 3.00133 3.01072 6.56133 3.52072 10.7913C3.86072 13.5913 6.08072 15.9113 8.86072 16.3813C10.8907 16.7213 12.8007 16.1013 14.2007 14.9013L14.4707 15.1813V15.9713L18.7307 20.2213C19.1407 20.6313 19.8007 20.6313 20.2107 20.2213L20.2207 20.2113C20.6307 19.8013 20.6307 19.1413 20.2207 18.7313L15.9707 14.4713ZM9.97072 14.4713C7.48072 14.4713 5.47072 12.4613 5.47072 9.97133C5.47072 7.48133 7.48072 5.47133 9.97072 5.47133C12.4607 5.47133 14.4707 7.48133 14.4707 9.97133C14.4707 12.4613 12.4607 14.4713 9.97072 14.4713ZM9.97072 7.47133C9.69072 7.47133 9.47072 7.69133 9.47072 7.97133V9.47133H7.97072C7.69072 9.47133 7.47072 9.69133 7.47072 9.97133C7.47072 10.2513 7.69072 10.4713 7.97072 10.4713H9.47072V11.9713C9.47072 12.2513 9.69072 12.4713 9.97072 12.4713C10.2507 12.4713 10.4707 12.2513 10.4707 11.9713V10.4713H11.9707C12.2507 10.4713 12.4707 10.2513 12.4707 9.97133C12.4707 9.69133 12.2507 9.47133 11.9707 9.47133H10.4707V7.97133C10.4707 7.69133 10.2507 7.47133 9.97072 7.47133Z" fill="currentColor" />
</svg>
