<svg viewBox="0 0 24 24" fill="none" xmlns="http://www.w3.org/2000/svg">
    <path d="M15.9716 14.4713H15.1816L14.9016 14.2013C16.1016 12.8013 16.7216 10.8913 16.3816 8.86133C15.9116 6.08133 13.5916 3.86133 10.7916 3.52133C6.56157 3.00133 3.00157 6.56133 3.52157 10.7913C3.86157 13.5913 6.08157 15.9113 8.86157 16.3813C10.8916 16.7213 12.8016 16.1013 14.2016 14.9013L14.4716 15.1813V15.9713L18.7316 20.2213C19.1416 20.6313 19.8016 20.6313 20.2116 20.2213L20.2216 20.2113C20.6316 19.8013 20.6316 19.1413 20.2216 18.7313L15.9716 14.4713ZM9.97157 14.4713C7.48157 14.4713 5.47157 12.4613 5.47157 9.97133C5.47157 7.48133 7.48157 5.47133 9.97157 5.47133C12.4616 5.47133 14.4716 7.48133 14.4716 9.97133C14.4716 12.4613 12.4616 14.4713 9.97157 14.4713ZM7.97157 9.47133H11.9716C12.2516 9.47133 12.4716 9.69133 12.4716 9.97133C12.4716 10.2513 12.2516 10.4713 11.9716 10.4713H7.97157C7.69157 10.4713 7.47157 10.2513 7.47157 9.97133C7.47157 9.69133 7.69157 9.47133 7.97157 9.47133Z" fill="currentColor" />
</svg>
