<svg  viewBox="0 0 24 24" fill="none" xmlns="http://www.w3.org/2000/svg">
<path d="M2.99998 8.00047C2.99998 8.55047 3.44998 9.00047 3.99998 9.00047H7.99998C8.54998 9.00047 8.99998 8.55047 8.99998 8.00047V4.00047C8.99998 3.45047 8.54998 3.00047 7.99998 3.00047C7.44998 3.00047 6.99998 3.45047 6.99998 4.00047V5.59047L4.61998 3.21047C4.22998 2.82047 3.59998 2.82047 3.20998 3.21047C2.81998 3.60047 2.81998 4.23047 3.20998 4.62047L5.58998 7.00047H3.99998C3.44998 7.00047 2.99998 7.45047 2.99998 8.00047ZM20 7.00047H18.41L20.79 4.62047C21.18 4.23047 21.18 3.60047 20.79 3.21047C20.4 2.82047 19.77 2.82047 19.38 3.21047L17 5.59047V4.00047C17 3.45047 16.55 3.00047 16 3.00047C15.45 3.00047 15 3.45047 15 4.00047V8.00047C15 8.55047 15.45 9.00047 16 9.00047H20C20.55 9.00047 21 8.55047 21 8.00047C21 7.45047 20.55 7.00047 20 7.00047ZM3.99998 17.0005H5.58998L3.20998 19.3805C2.81998 19.7705 2.81998 20.4005 3.20998 20.7905C3.59998 21.1805 4.22998 21.1805 4.61998 20.7905L6.99998 18.4105V20.0005C6.99998 20.5505 7.44998 21.0005 7.99998 21.0005C8.54998 21.0005 8.99998 20.5505 8.99998 20.0005V16.0005C8.99998 15.4505 8.54998 15.0005 7.99998 15.0005H3.99998C3.44998 15.0005 2.99998 15.4505 2.99998 16.0005C2.99998 16.5505 3.44998 17.0005 3.99998 17.0005ZM21 16.0005C21 15.4505 20.55 15.0005 20 15.0005H16C15.45 15.0005 15 15.4505 15 16.0005V20.0005C15 20.5505 15.45 21.0005 16 21.0005C16.55 21.0005 17 20.5505 17 20.0005V18.4105L19.38 20.7905C19.77 21.1805 20.4 21.1805 20.79 20.7905C21.18 20.4005 21.18 19.7705 20.79 19.3805L18.41 17.0005H20C20.55 17.0005 21 16.5505 21 16.0005Z" fill="currentColor"/>
</svg>
