<svg viewBox="0 0 24 24" fill="none" xmlns="http://www.w3.org/2000/svg">
<path d="M5 15.9995C5 19.8695 8.13 22.9995 12 22.9995C15.87 22.9995 19 19.8695 19 15.9995V11.9995H5V15.9995ZM16.12 4.36945L18.22 2.26945L17.4 1.43945L15.1 3.74945C14.16 3.27945 13.12 2.99945 12 2.99945C10.88 2.99945 9.84 3.27945 8.91 3.74945L6.6 1.43945L5.78 2.26945L7.88 4.36945C6.14 5.63945 5 7.67945 5 9.99945V10.9995H19V9.99945C19 7.67945 17.86 5.63945 16.12 4.36945ZM9 8.99945C8.45 8.99945 8 8.54945 8 7.99945C8 7.44945 8.45 6.99945 9 6.99945C9.55 6.99945 10 7.44945 10 7.99945C10 8.54945 9.55 8.99945 9 8.99945ZM15 8.99945C14.45 8.99945 14 8.54945 14 7.99945C14 7.44945 14.45 6.99945 15 6.99945C15.55 6.99945 16 7.44945 16 7.99945C16 8.54945 15.55 8.99945 15 8.99945Z" fill="currentColor"/>
</svg>
