<svg width="24" height="24" viewBox="0 0 24 24" fill="none" xmlns="http://www.w3.org/2000/svg">
<path opacity="0.3" d="M19 17.4102C18.12 17.3402 17.25 17.1902 16.4 16.9602L15.2 18.1602C16.41 18.5702 17.68 18.8302 19 18.9202V17.4102ZM6.53998 4.9502H5.03998C5.12998 6.2702 5.37998 7.5302 5.78998 8.7402L6.98998 7.5302C6.74998 6.7002 6.59998 5.8302 6.53998 4.9502Z" fill="black"/>
<path d="M20 20.9502C20.55 20.9502 21 20.5002 21 19.9502V16.4502C21 15.9002 20.55 15.4502 20 15.4502C18.75 15.4502 17.55 15.2502 16.43 14.8802C16.33 14.8502 16.22 14.8302 16.12 14.8302C15.86 14.8302 15.61 14.9302 15.41 15.1202L13.21 17.3202C10.38 15.8802 8.06 13.5702 6.62 10.7302L8.82 8.5202C9.1 8.2602 9.18 7.87019 9.07 7.5202C8.7 6.4002 8.5 5.2002 8.5 3.9502C8.5 3.4002 8.05 2.9502 7.5 2.9502H4C3.45 2.9502 3 3.4002 3 3.9502C3 13.3402 10.61 20.9502 20 20.9502ZM16.4 16.9602C17.25 17.2002 18.12 17.3502 19 17.4102V18.9102C17.68 18.8202 16.4 18.5602 15.2 18.1502L16.4 16.9602ZM5.03 4.9502H6.53C6.6 5.83019 6.75 6.7002 6.98 7.5302L5.78 8.7402C5.38 7.5302 5.12 6.2702 5.03 4.9502ZM16 10.9502H18V7.9502H21V5.9502H18V2.9502H16V5.9502H13V7.9502H16V10.9502Z" fill="black"/>
</svg>
