<svg viewBox="0 0 24 24" fill="none" xmlns="http://www.w3.org/2000/svg">
<path d="M7.59 5.40914C6.81 4.62914 6.81 3.35914 7.59 2.57914C8.37 1.79914 9.64 1.79914 10.42 2.57914C11.2 3.35914 11.2 4.62914 10.42 5.40914C9.63 6.19914 8.37 6.19914 7.59 5.40914ZM6 15.9991V6.99914H4V15.9991C4 18.7591 6.24 20.9991 9 20.9991H15V18.9991H9C7.34 18.9991 6 17.6591 6 15.9991ZM20 20.0691L14.93 14.9991H11.5V11.3191C12.9 12.4691 15.1 13.4791 17 13.4791V11.3191C15.34 11.3391 13.39 10.4491 12.33 9.27914L10.93 7.72914C10.74 7.51914 10.5 7.34914 10.24 7.22914C9.95 7.08914 9.62 6.99914 9.28 6.99914H9.25C8.01 6.99914 7 8.00914 7 9.24914V14.9991C7 16.6591 8.34 17.9991 10 17.9991H15.07L18.57 21.4991L20 20.0691Z" fill="currentColor"/>
</svg>
