<svg width="24" height="24" viewBox="0 0 24 24" fill="none" xmlns="http://www.w3.org/2000/svg">
<path opacity="0.3" d="M4.01 8.54C5.2 9.23 6 10.52 6 12C6 13.47 5.19 14.77 4 15.46V18H20V6H4L4.01 8.54ZM8.14 12.53L9.4 13.52L11.79 12.88L9.39 8.72L10.79 8.34L14.8 12.08L17.24 11.43C17.75 11.29 18.28 11.6 18.42 12.11C18.55 12.62 18.25 13.15 17.73 13.3L8.87 15.66L7.21 12.78L8.14 12.53Z" fill="black"/>
<path d="M20.19 4H4C2.9 4 2.01 4.9 2.01 6V10C3.11 10 4 10.9 4 12C4 13.1 3.11 14 2 14V18C2 19.1 2.9 20 4 20H20C21.1 20 22 19.1 22 18V6C22 4.9 21.19 4 20.19 4ZM20 18H4V15.46C5.19 14.77 6 13.47 6 12C6 10.52 5.2 9.23 4.01 8.54L4 6H20V18Z" fill="black"/>
<path d="M17.73 13.2998C18.25 13.1498 18.55 12.6198 18.42 12.1098C18.28 11.5998 17.75 11.2898 17.24 11.4298L14.8 12.0798L10.79 8.33984L9.38996 8.71984L11.79 12.8798L9.39996 13.5198L8.13996 12.5298L7.20996 12.7798L8.86996 15.6598L17.73 13.2998Z" fill="black"/>
</svg>
