<svg  viewBox="0 0 24 24" fill="none" xmlns="http://www.w3.org/2000/svg">
<path d="M14 4H10V8H14V4Z" fill="currentColor"/>
<path d="M8 16H4V20H8V16Z" fill="currentColor"/>
<path d="M8 10H4V14H8V10Z" fill="currentColor"/>
<path d="M8 4H4V8H8V4Z" fill="currentColor"/>
<path d="M20 4H16V8H20V4Z" fill="currentColor"/>
<path d="M11 17.8602V20.0002H13.1L19.08 14.0302L16.96 11.9102L11 17.8602Z" fill="currentColor"/>
<path d="M14 12.03V10H10V14H12.03L14 12.03Z" fill="currentColor"/>
<path d="M20.85 11.56L19.44 10.15C19.24 9.95 18.93 9.95 18.73 10.15L17.67 11.21L19.79 13.33L20.85 12.27C21.05 12.07 21.05 11.76 20.85 11.56Z" fill="currentColor"/>
</svg>
