<svg  viewBox="0 0 24 24" fill="none" xmlns="http://www.w3.org/2000/svg">
<path d="M6.35999 18.7809L6.60999 21.0009L8.22998 19.4609L11 11.8609C10.32 11.6909 9.71998 11.3509 9.22998 10.8809L6.35999 18.7809Z" fill="currentColor"/>
<path d="M14.77 10.8809C14.28 11.3509 13.67 11.6909 13 11.8609L15.77 19.4609L17.39 21.0009L17.65 18.7809L14.77 10.8809Z" fill="currentColor"/>
<path d="M15 8C15 6.7 14.16 5.6 13 5.18V3H11V5.18C9.84 5.6 9 6.7 9 8C9 9.66 10.34 11 12 11C13.66 11 15 9.66 15 8ZM12 9C11.45 9 11 8.55 11 8C11 7.45 11.45 7 12 7C12.55 7 13 7.45 13 8C13 8.55 12.55 9 12 9Z" fill="currentColor"/>
</svg>
