<svg viewBox="0 0 24 24" fill="none" xmlns="http://www.w3.org/2000/svg">
<path opacity="0.3" d="M11.5849 10.997L4.41492 18.167L5.82912 19.5812L12.9991 12.4112L11.5849 10.997Z" fill="currentColor"/>
<path d="M20 7L20.94 4.94L23 4L20.94 3.06L20 1L19.06 3.06L17 4L19.06 4.94L20 7Z" fill="currentColor"/>
<path d="M17.7101 9.12L14.8801 6.29C14.6801 6.1 14.4301 6 14.1701 6C13.9101 6 13.6601 6.1 13.4601 6.29L2.29006 17.46C1.90006 17.85 1.90006 18.48 2.29006 18.87L5.12006 21.7C5.32006 21.9 5.57006 22 5.83006 22C6.09006 22 6.34006 21.9 6.54006 21.71L17.7101 10.54C18.1001 10.15 18.1001 9.51 17.7101 9.12ZM5.83006 19.59L4.42006 18.18L11.5901 11L13.0001 12.41L5.83006 19.59ZM14.4101 11L13.0001 9.59L14.1701 8.42L15.5801 9.83L14.4101 11Z" fill="currentColor"/>
</svg>
