<svg viewBox="0 0 24 24" fill="none" xmlns="http://www.w3.org/2000/svg">
<path opacity="0.3" d="M9.88275 12.7079L4.41687 18.1738L5.83107 19.588L11.297 14.1221L9.88275 12.7079Z" fill="currentColor"/>
<path d="M20 7L20.94 4.94L23 4L20.94 3.06L20 1L19.06 3.06L17 4L19.06 4.94L20 7Z" fill="currentColor"/>
<path d="M14.17 8.42L15.58 9.83L14.12 11.29L15.53 12.7L17.7 10.53C18.09 10.14 18.09 9.51 17.7 9.12L14.87 6.29C14.68 6.1 14.43 6 14.17 6C13.91 6 13.66 6.1 13.46 6.29L11.29 8.46L12.7 9.87L14.17 8.42Z" fill="currentColor"/>
<path d="M2.81001 2.80957L1.39001 4.21957L8.46001 11.2896L2.29001 17.4596C1.90001 17.8496 1.90001 18.4796 2.29001 18.8696L5.12001 21.6996C5.32001 21.8996 5.57001 21.9996 5.83001 21.9996C6.09001 21.9996 6.34001 21.8996 6.54001 21.7096L12.71 15.5396L19.78 22.6096L21.19 21.1996L2.81001 2.80957ZM5.83001 19.5896L4.42001 18.1796L9.88001 12.7196L11.29 14.1296L5.83001 19.5896Z" fill="currentColor"/>
</svg>
