<svg  viewBox="0 0 24 24" fill="none" xmlns="http://www.w3.org/2000/svg">
<path opacity="0.3" d="M7.59994 8.66975L5.58994 9.46975C5.36994 9.55975 5.24994 9.77975 5.27994 10.0098L7.67994 15.9898H8.90994L8.28994 9.08975C8.24994 8.74975 7.90994 8.53975 7.59994 8.66975Z" fill="currentColor"/>
<path opacity="0.3" d="M3.07002 16.1009C2.80002 16.6309 3.36002 17.1909 3.89002 16.9309L5.57002 16.0909L4.49002 13.3809L3.07002 16.1009Z" fill="currentColor"/>
<path opacity="0.3" d="M13.36 6.99023H10.65C10.38 6.99023 10.12 7.22023 10.15 7.53023L10.92 15.9802H13.09L13.86 7.53023C13.88 7.22023 13.63 6.99023 13.36 6.99023Z" fill="currentColor"/>
<path opacity="0.3" d="M18.41 9.47083L16.4 8.67083C16.09 8.55083 15.75 8.76083 15.72 9.09083L15.1 15.9908H16.33L18.73 10.0108C18.75 9.78083 18.63 9.56083 18.41 9.47083Z" fill="currentColor"/>
<path opacity="0.3" d="M19.5199 13.3906L18.4399 16.0906L20.1199 16.9306C20.6399 17.1906 21.2099 16.6306 20.9399 16.1006L19.5199 13.3906Z" fill="currentColor"/>
<path d="M20.5 10.94C20.63 10.62 20.6 10.71 20.65 10.55C20.95 9.34 20.31 8.08 19.15 7.62L17.14 6.82C16.68 6.64 16.19 6.61 15.73 6.7C15.62 6.37 15.44 6.07 15.21 5.81C14.73 5.29 14.06 5 13.36 5H10.65C9.94 5 9.27 5.29 8.8 5.81C8.56 6.07 8.38 6.37 8.27 6.69C7.81 6.6 7.32 6.63 6.86 6.81L4.85 7.61C3.69 8.07 3.05 9.33 3.35 10.54L3.5 10.92C1.1 15.55 1 15.55 1 16.38C1 17.29 1.46 18.12 2.24 18.6C3.66 19.48 4.73 18.74 6.24 17.99H17.77C19.29 18.75 19.63 19 20.4 19C21.4 19 23.01 18.23 23.01 16.39C23 15.54 22.88 15.51 20.5 10.94ZM3.88 16.93C3.35 17.19 2.79 16.63 3.06 16.1L4.47 13.38L5.55 16.09L3.88 16.93ZM7.68 15.99L5.28 10.01C5.25 9.78 5.37 9.56 5.59 9.47L7.6 8.67C7.91 8.55 8.25 8.75 8.28 9.09L8.9 15.99H7.68ZM13.09 15.99H10.92L10.15 7.54C10.12 7.23 10.38 7 10.65 7H13.36C13.63 7 13.89 7.23 13.86 7.54L13.09 15.99ZM16.32 15.99H15.09L15.71 9.09C15.74 8.76 16.08 8.55 16.39 8.67L18.4 9.47C18.62 9.56 18.74 9.78 18.71 10.01L16.32 15.99ZM20.12 16.93L18.44 16.09L19.52 13.39L20.93 16.1C21.21 16.63 20.64 17.19 20.12 16.93Z" fill="currentColor"/>
</svg>
