<svg viewBox="0 0 24 24" fill="none" xmlns="http://www.w3.org/2000/svg">
<path opacity="0.3" d="M7.6 7.6C7.13 9.94 7.63 12.38 8.99 14.43L14.44 8.98C12.91 7.96 11.16 7.42 9.36 7.42C8.76 7.42 8.17 7.48 7.6 7.6ZM13.12 5C12.19 5 11.3 5.16 10.45 5.46C12.36 5.65 14.24 6.35 15.89 7.53L17.28 6.14C16.03 5.4 14.61 5 13.12 5ZM5 13.12C5 14.61 5.4 16.03 6.14 17.27L7.53 15.88C6.35 14.23 5.65 12.36 5.46 10.44C5.16 11.3 5 12.2 5 13.12Z" fill="currentColor"/>
<path d="M13.126 14.56L14.554 13.132L20.996 19.574L19.566 21.002L13.126 14.56ZM13.12 3C10.54 3 7.96001 3.98 5.98001 5.95L5.97001 5.96C2.02001 9.91 2.02001 16.32 5.97001 20.27L20.27 5.96C18.3 3.99 15.71 3 13.12 3ZM6.14001 17.27C5.40001 16.03 5.00001 14.61 5.00001 13.12C5.00001 12.19 5.16001 11.3 5.46001 10.45C5.65001 12.36 6.35001 14.24 7.53001 15.89L6.14001 17.27ZM8.98001 14.43C7.63001 12.38 7.12001 9.93 7.60001 7.6C8.18001 7.48 8.76001 7.42 9.35001 7.42C11.15 7.42 12.9 7.97 14.43 8.98L8.98001 14.43ZM10.45 5.46C11.3 5.16 12.19 5 13.12 5C14.61 5 16.03 5.4 17.27 6.14L15.88 7.53C14.23 6.35 12.36 5.65 10.45 5.46Z" fill="currentColor"/>
</svg>
