<svg viewBox="0 0 24 24" fill="none" xmlns="http://www.w3.org/2000/svg">
<g opacity="0.3">
<path opacity="0.3" d="M9.27 4.49023C6.2 5.60023 4 8.55023 4 12.0002C4 16.4102 7.59 20.0002 12 20.0002C13.81 20.0002 15.54 19.3802 16.93 18.2902C13.02 16.9002 7.64 12.0302 9.27 4.49023Z" fill="currentColor"/>
</g>
<path d="M12.34 2.01977C12.22 2.01977 12.11 2.00977 11.99 2.00977C6.4 2.00977 2 6.53977 2 11.9998C2 17.5198 6.48 21.9998 12 21.9998C15.71 21.9998 18.93 19.9798 20.66 16.9798C13.15 16.7298 8.57 8.54977 12.34 2.01977ZM12 19.9998C7.59 19.9998 4 16.4098 4 11.9998C4 8.54977 6.2 5.59977 9.27 4.48977C7.64 12.0298 13.02 16.8998 16.93 18.2898C15.54 19.3798 13.81 19.9998 12 19.9998Z" fill="currentColor"/>
</svg>
