<svg width="24" height="24" viewBox="0 0 24 24" fill="none" xmlns="http://www.w3.org/2000/svg">
<path opacity="0.3" d="M12 4.66992C7.95 8.36992 6 11.4599 6 13.8099C6 17.4399 8.65 20.0099 12 20.0099C15.35 20.0099 18 17.4399 18 13.8099C18 11.4599 16.05 8.35992 12 4.66992ZM15 17.9999H9V15.9999H15V17.9999ZM15 12.9999H13V14.9999H11V12.9999H9V10.9999H11V8.99992H13V10.9999H15V12.9999Z" fill="black"/>
<path d="M15 16H9V18H15V16Z" fill="black"/>
<path d="M13 9H11V11H9V13H11V15H13V13H15V11H13V9Z" fill="black"/>
<path d="M12 2C6.67 6.55 4 10.48 4 13.8C4 18.78 7.8 22 12 22C16.2 22 20 18.78 20 13.8C20 10.48 17.33 6.55 12 2ZM12 20C8.65 20 6 17.43 6 13.8C6 11.46 7.95 8.36 12 4.66C16.05 8.36 18 11.45 18 13.8C18 17.43 15.35 20 12 20Z" fill="black"/>
</svg>
