<svg width="24" height="24" viewBox="0 0 24 24" fill="none" xmlns="http://www.w3.org/2000/svg">
<path d="M18 9.51953V5.99953H14.48L12 3.51953L9.52002 5.99953H6.00002V9.51953L3.52002 11.9995L6.00002 14.4795V17.9995H9.52002L12 20.4795L14.48 17.9995H18V14.4795L20.48 11.9995L18 9.51953ZM12 17.9995C8.69002 17.9995 6.00002 15.3095 6.00002 11.9995C6.00002 8.68953 8.69002 5.99953 12 5.99953C15.31 5.99953 18 8.68953 18 11.9995C18 15.3095 15.31 17.9995 12 17.9995Z" fill="black" fill-opacity="0.3"/>
<path d="M19.9999 8.69043V4.00043H15.3099L11.9999 0.69043L8.68994 4.00043H3.99994V8.69043L0.689941 12.0004L3.99994 15.3104V20.0004H8.68994L11.9999 23.3104L15.3099 20.0004H19.9999V15.3104L23.3099 12.0004L19.9999 8.69043ZM17.9999 14.4804V18.0004H14.4799L11.9999 20.4804L9.51994 18.0004H5.99994V14.4804L3.51994 12.0004L5.99994 9.52043V6.00043H9.51994L11.9999 3.52043L14.4799 6.00043H17.9999V9.52043L20.4799 12.0004L17.9999 14.4804ZM11.9999 6.00043C8.68994 6.00043 5.99994 8.69043 5.99994 12.0004C5.99994 15.3104 8.68994 18.0004 11.9999 18.0004C15.3099 18.0004 17.9999 15.3104 17.9999 12.0004C17.9999 8.69043 15.3099 6.00043 11.9999 6.00043ZM11.9999 16.0004C9.78994 16.0004 7.99994 14.2104 7.99994 12.0004C7.99994 9.79043 9.78994 8.00043 11.9999 8.00043C14.2099 8.00043 15.9999 9.79043 15.9999 12.0004C15.9999 14.2104 14.2099 16.0004 11.9999 16.0004Z" fill="black"/>
<path d="M12 14.5C13.3807 14.5 14.5 13.3807 14.5 12C14.5 10.6193 13.3807 9.5 12 9.5C10.6193 9.5 9.5 10.6193 9.5 12C9.5 13.3807 10.6193 14.5 12 14.5Z" fill="black"/>
</svg>
