<svg viewBox="0 0 24 24" fill="none" xmlns="http://www.w3.org/2000/svg">
<path opacity="0.3" d="M18 9.51953V5.99953H14.48L12 3.51953L9.52002 5.99953H6.00002V9.51953L3.52002 11.9995L6.00002 14.4795V17.9995H9.52002L12 20.4795L14.48 17.9995H18V14.4795L20.48 11.9995L18 9.51953ZM12 17.4995C8.97002 17.4995 6.50002 15.0295 6.50002 11.9995C6.50002 8.96953 8.97002 6.49953 12 6.49953C15.03 6.49953 17.5 8.96953 17.5 11.9995C17.5 15.0295 15.03 17.4995 12 17.4995Z" fill="currentColor"/>
<path d="M19.9999 8.69043V4.00043H15.3099L11.9999 0.69043L8.68994 4.00043H3.99994V8.69043L0.689941 12.0004L3.99994 15.3104V20.0004H8.68994L11.9999 23.3104L15.3099 20.0004H19.9999V15.3104L23.3099 12.0004L19.9999 8.69043ZM17.9999 14.4804V18.0004H14.4799L11.9999 20.4804L9.51994 18.0004H5.99994V14.4804L3.51994 12.0004L5.99994 9.52043V6.00043H9.51994L11.9999 3.52043L14.4799 6.00043H17.9999V9.52043L20.4799 12.0004L17.9999 14.4804ZM11.9999 6.50043C8.96994 6.50043 6.49994 8.97043 6.49994 12.0004C6.49994 15.0304 8.96994 17.5004 11.9999 17.5004C15.0299 17.5004 17.4999 15.0304 17.4999 12.0004C17.4999 8.97043 15.0299 6.50043 11.9999 6.50043ZM11.9999 15.5004C10.0699 15.5004 8.49994 13.9304 8.49994 12.0004C8.49994 10.0704 10.0699 8.50043 11.9999 8.50043C13.9299 8.50043 15.4999 10.0704 15.4999 12.0004C15.4999 13.9304 13.9299 15.5004 11.9999 15.5004Z" fill="currentColor"/>
<path d="M12 14C13.1046 14 14 13.1046 14 12C14 10.8954 13.1046 10 12 10C10.8954 10 10 10.8954 10 12C10 13.1046 10.8954 14 12 14Z" fill="currentColor"/>
</svg>
