<svg  viewBox="0 0 24 24" fill="none" xmlns="http://www.w3.org/2000/svg">
<path d="M18 9.51953V5.99953H14.48L12 3.51953L9.52 5.99953H6V9.51953L3.52 11.9995L6 14.4795V17.9995H9.52L12 20.4795L14.48 17.9995H18V14.4795L20.48 11.9995L18 9.51953ZM12 17.9995C8.69 17.9995 6 15.3095 6 11.9995C6 8.68953 8.69 5.99953 12 5.99953C15.31 5.99953 18 8.68953 18 11.9995C18 15.3095 15.31 17.9995 12 17.9995Z" fill="currentColor" fill-opacity="0.3"/>
<path d="M20 8.69043V4.00043H15.31L12 0.69043L8.69 4.00043H4V8.69043L0.690002 12.0004L4 15.3104V20.0004H8.69L12 23.3104L15.31 20.0004H20V15.3104L23.31 12.0004L20 8.69043ZM18 14.4804V18.0004H14.48L12 20.4804L9.52 18.0004H6V14.4804L3.52 12.0004L6 9.52043V6.00043H9.52L12 3.52043L14.48 6.00043H18V9.52043L20.48 12.0004L18 14.4804ZM12 6.00043C8.69 6.00043 6 8.69043 6 12.0004C6 15.3104 8.69 18.0004 12 18.0004C15.31 18.0004 18 15.3104 18 12.0004C18 8.69043 15.31 6.00043 12 6.00043ZM12 16.0004C9.79 16.0004 8 14.2104 8 12.0004C8 9.79043 9.79 8.00043 12 8.00043C14.21 8.00043 16 9.79043 16 12.0004C16 14.2104 14.21 16.0004 12 16.0004Z" fill="currentColor"/>
</svg>
