<svg viewBox="0 0 24 24" fill="none" xmlns="http://www.w3.org/2000/svg">
<path opacity="0.3" d="M18 9.51953V5.99953H14.48L12 3.51953L9.51999 5.99953H5.99999V9.51953L3.51999 11.9995L5.99999 14.4795V17.9995H9.51999L12 20.4795L14.48 17.9995H18V14.4795L20.48 11.9995L18 9.51953ZM12.29 16.9995C11.55 16.9995 10.84 16.8295 10.21 16.5395C11.93 15.7495 13.13 14.0195 13.13 11.9995C13.13 9.97953 11.93 8.24953 10.21 7.45953C10.84 7.16953 11.55 6.99953 12.29 6.99953C15.05 6.99953 17.29 9.23953 17.29 11.9995C17.29 14.7595 15.05 16.9995 12.29 16.9995Z" fill="currentColor"/>
<path d="M20 8.69043V4.00043H15.31L12 0.69043L8.69 4.00043H4V8.69043L0.690002 12.0004L4 15.3104V20.0004H8.69L12 23.3104L15.31 20.0004H20V15.3104L23.31 12.0004L20 8.69043ZM18 14.4804V18.0004H14.48L12 20.4804L9.52 18.0004H6V14.4804L3.52 12.0004L6 9.52043V6.00043H9.52L12 3.52043L14.48 6.00043H18V9.52043L20.48 12.0004L18 14.4804ZM12.29 7.00043C11.55 7.00043 10.84 7.17043 10.21 7.46043C11.93 8.25043 13.13 9.99043 13.13 12.0004C13.13 14.0104 11.93 15.7504 10.21 16.5404C10.84 16.8304 11.55 17.0004 12.29 17.0004C15.05 17.0004 17.29 14.7604 17.29 12.0004C17.29 9.24043 15.05 7.00043 12.29 7.00043Z" fill="currentColor"/>
</svg>
