<svg viewBox="0 0 24 24" fill="none" xmlns="http://www.w3.org/2000/svg">
<path opacity="0.3" d="M18 9.51953V5.99953H14.48L12 3.51953L9.52002 5.99953H6.00002V9.51953L3.52002 11.9995L6.00002 14.4795V17.9995H9.52002L12 20.4795L14.48 17.9995H18V14.4795L20.48 11.9995L18 9.51953ZM12 17.4995C8.97002 17.4995 6.50002 15.0295 6.50002 11.9995C6.50002 8.96953 8.97002 6.49953 12 6.49953C15.03 6.49953 17.5 8.96953 17.5 11.9995C17.5 15.0295 15.03 17.4995 12 17.4995Z" fill="currentColor"/>
<path d="M20 8.69043V4.00043H15.31L12 0.69043L8.69 4.00043H4V8.69043L0.690002 12.0004L4 15.3104V20.0004H8.69L12 23.3104L15.31 20.0004H20V15.3104L23.31 12.0004L20 8.69043ZM18 14.4804V18.0004H14.48L12 20.4804L9.52 18.0004H6V14.4804L3.52 12.0004L6 9.52043V6.00043H9.52L12 3.52043L14.48 6.00043H18V9.52043L20.48 12.0004L18 14.4804ZM12 6.50043C8.97 6.50043 6.5 8.97043 6.5 12.0004C6.5 15.0304 8.97 17.5004 12 17.5004C15.03 17.5004 17.5 15.0304 17.5 12.0004C17.5 8.97043 15.03 6.50043 12 6.50043ZM12 15.5004C10.07 15.5004 8.5 13.9304 8.5 12.0004C8.5 10.0704 10.07 8.50043 12 8.50043C13.93 8.50043 15.5 10.0704 15.5 12.0004C15.5 13.9304 13.93 15.5004 12 15.5004Z" fill="currentColor"/>
</svg>
