<svg  viewBox="0 0 24 24" fill="none" xmlns="http://www.w3.org/2000/svg">
<path opacity="0.3" d="M11.92 8.28C12.16 6.88 11.76 5.39 10.68 4.32C9.74001 3.37 8.48001 2.93 7.24001 3L10.33 6.09L6.09001 10.33L3.00001 7.24C2.93001 8.48 3.37001 9.73 4.31001 10.68C5.35001 11.72 6.78001 12.13 8.14001 11.93C8.85001 11.83 9.54001 11.55 10.14 11.11L19.6 20.57L20.48 19.69L11.03 10.24C11.5 9.64 11.8 8.98 11.92 8.28Z" fill="currentColor"/>
<path d="M22.61 18.97L13.54 9.90002C14.47 7.56002 13.99 4.80002 12.1 2.90002C9.80001 0.600023 6.22001 0.390022 3.67001 2.25002L7.50001 6.08002L6.08001 7.50002L2.25001 3.67002C0.390007 6.21002 0.600007 9.79002 2.90001 12.09C4.76001 13.95 7.47001 14.44 9.79001 13.57L18.9 22.68C19.29 23.07 19.92 23.07 20.31 22.68L22.61 20.38C23.01 20 23.01 19.36 22.61 18.97ZM19.61 20.57L10.15 11.11C9.54001 11.56 8.86001 11.83 8.15001 11.93C6.79001 12.13 5.36001 11.72 4.32001 10.68C3.37001 9.74002 2.93001 8.48002 3.00001 7.24002L6.09001 10.33L10.33 6.09002L7.24001 3.00002C8.48001 2.93002 9.73001 3.37002 10.68 4.31002C11.76 5.39002 12.17 6.88002 11.92 8.27002C11.8 8.97002 11.5 9.63002 11.04 10.22L20.49 19.67L19.61 20.57Z" fill="currentColor"/>
</svg>
