<svg  viewBox="0 0 24 24" fill="none" xmlns="http://www.w3.org/2000/svg">
<path opacity="0.3" d="M4 16C4 17.1 4.9 18 6 18H14C15.1 18 16 17.1 16 16V13H4V16ZM13.5 14C14.33 14 15 14.67 15 15.5C15 16.33 14.33 17 13.5 17C12.67 17 12 16.33 12 15.5C12 14.67 12.67 14 13.5 14ZM6.5 14C7.33 14 8 14.67 8 15.5C8 16.33 7.33 17 6.5 17C5.67 17 5 16.33 5 15.5C5 14.67 5.67 14 6.5 14Z" fill="currentColor"/>
<path opacity="0.3" d="M4.43005 6.00071H11.0001C11.0001 5.67071 11.0301 5.34071 11.0801 5.02071C7.40005 4.91071 5.25005 5.29071 4.43005 6.00071Z" fill="currentColor"/>
<path d="M4 11.001V8.00097H11.29C11.1 7.37097 11 6.70097 11 6.00097H4.43C5.26 5.29097 7.41 4.91097 11.08 5.02097C11.18 4.32097 11.38 3.65097 11.67 3.03097C2.97 2.67097 2 5.02097 2 7.00097V16.501C2 17.451 2.38 18.311 3 18.941V21.001C3 21.551 3.45 22.001 4 22.001H5C5.55 22.001 6 21.551 6 21.001V20.001H14V21.001C14 21.551 14.45 22.001 15 22.001H16C16.55 22.001 17 21.551 17 21.001V18.941C17.62 18.311 18 17.451 18 16.501V13.001C16.09 13.001 14.37 12.241 13.11 11.001H4ZM16 16.001C16 17.101 15.1 18.001 14 18.001H6C4.9 18.001 4 17.101 4 16.001V13.001H16V16.001Z" fill="currentColor"/>
<path d="M6.5 17C7.32843 17 8 16.3284 8 15.5C8 14.6716 7.32843 14 6.5 14C5.67157 14 5 14.6716 5 15.5C5 16.3284 5.67157 17 6.5 17Z" fill="currentColor"/>
<path d="M13.5 17C14.3284 17 15 16.3284 15 15.5C15 14.6716 14.3284 14 13.5 14C12.6716 14 12 14.6716 12 15.5C12 16.3284 12.6716 17 13.5 17Z" fill="currentColor"/>
<path d="M18 1C15.24 1 13 3.24 13 6C13 8.76 15.24 11 18 11C20.76 11 23 8.76 23 6C23 3.24 20.76 1 18 1ZM18.5 9H17.5V8H18.5V9ZM18.5 7H17.5V3H18.5V7Z" fill="currentColor"/>
</svg>
