<svg width="24" height="24" viewBox="0 0 24 24" fill="none" xmlns="http://www.w3.org/2000/svg">
<path opacity="0.3" d="M13.17 8H10.83L9.83 9H8V15H16V9H14.17L13.17 8ZM12 14C10.9 14 10 13.1 10 12C10 10.9 10.9 10 12 10C13.1 10 14 10.9 14 12C14 13.1 13.1 14 12 14Z" fill="black"/>
<path d="M16 7H15L14 6H10L9 7H8C6.9 7 6 7.9 6 9V15C6 16.1 6.9 17 8 17H16C17.1 17 18 16.1 18 15V9C18 7.9 17.1 7 16 7ZM16 15H8V9H9.83L10.83 8H13.17L14.17 9H16V15Z" fill="black"/>
<path d="M12 14C13.1046 14 14 13.1046 14 12C14 10.8954 13.1046 10 12 10C10.8954 10 10 10.8954 10 12C10 13.1046 10.8954 14 12 14Z" fill="black"/>
<path d="M8.56995 0.520246L13.0499 5.00025V2.05025C17.7699 2.52025 21.5299 6.28025 21.9999 11.0002H23.9999C23.3399 3.03025 15.4899 -1.57975 8.56995 0.520246Z" fill="black"/>
<path d="M10.95 21.9598C6.23 21.4898 2.47 17.7298 2 13.0098H0C0.66 20.9798 8.51 25.5898 15.43 23.4898L10.95 19.0098V21.9598Z" fill="black"/>
</svg>
