<svg  viewBox="0 0 24 24" fill="none" xmlns="http://www.w3.org/2000/svg">
<path opacity="0.3" d="M17.5 20C18.8807 20 20 18.8807 20 17.5C20 16.1193 18.8807 15 17.5 15C16.1193 15 15 16.1193 15 17.5C15 18.8807 16.1193 20 17.5 20Z" fill="currentColor"/>
<path opacity="0.3" d="M5 15.4998H9V19.4998H5V15.4998ZM12 5.83984L10.07 8.99984H13.93L12 5.83984Z" fill="currentColor"/>
<path d="M12 2L6.5 11H17.5L12 2ZM12 5.84L13.93 9H10.06L12 5.84ZM17.5 13C15.01 13 13 15.01 13 17.5C13 19.99 15.01 22 17.5 22C19.99 22 22 19.99 22 17.5C22 15.01 19.99 13 17.5 13ZM17.5 20C16.12 20 15 18.88 15 17.5C15 16.12 16.12 15 17.5 15C18.88 15 20 16.12 20 17.5C20 18.88 18.88 20 17.5 20ZM11 13.5H3V21.5H11V13.5ZM9 19.5H5V15.5H9V19.5Z" fill="currentColor"/>
</svg>
