<svg  viewBox="0 0 24 24" fill="none" xmlns="http://www.w3.org/2000/svg">
<path opacity="0.3" d="M12.35 16.1804L7.81999 11.6504L5.29999 18.7004L12.35 16.1804Z" fill="currentColor"/>
<path d="M2 22L16 17L7 8L2 22ZM12.35 16.18L5.3 18.7L7.82 11.65L12.35 16.18Z" fill="currentColor"/>
<path d="M14.53 12.5306L20.12 6.94062C20.61 6.45062 21.4 6.45062 21.89 6.94062L22.48 7.53063L23.54 6.47062L22.95 5.88063C21.88 4.81062 20.13 4.81062 19.06 5.88063L13.47 11.4706L14.53 12.5306Z" fill="currentColor"/>
<path d="M9.47 7.47094L10.53 8.53094L11.12 7.94094C12.19 6.87094 12.19 5.12094 11.12 4.05094L10.53 3.46094L9.47 4.53094L10.06 5.12094C10.54 5.60094 10.54 6.40094 10.06 6.88094L9.47 7.47094Z" fill="currentColor"/>
<path d="M17.06 11.8806L15.47 13.4706L16.53 14.5306L18.12 12.9406C18.61 12.4506 19.4 12.4506 19.89 12.9406L21.5 14.5506L22.56 13.4906L20.95 11.8806C19.87 10.8106 18.13 10.8106 17.06 11.8806Z" fill="currentColor"/>
<path d="M15.06 5.88094L11.47 9.47094L12.53 10.5309L16.12 6.94094C17.19 5.87094 17.19 4.12094 16.12 3.05094L14.53 1.46094L13.47 2.52094L15.06 4.11094C15.54 4.60094 15.54 5.40094 15.06 5.88094Z" fill="currentColor"/>
</svg>
