<svg viewBox="0 0 24 24" fill="none" xmlns="http://www.w3.org/2000/svg">
<path d="M21.6 18.1992L13 11.7492V10.8392C14.65 10.3492 15.8 8.66918 15.43 6.78918C15.17 5.47918 14.13 4.38918 12.82 4.08918C10.54 3.56918 8.50002 5.29918 8.50002 7.49918H10.5C10.5 6.66918 11.17 5.99918 12 5.99918C12.83 5.99918 13.5 6.66918 13.5 7.49918C13.5 8.33918 12.81 9.01918 11.97 8.99918C11.43 8.98918 11 9.44918 11 9.98918V11.7492L2.40002 18.1992C1.63002 18.7792 2.04002 19.9992 3.00002 19.9992H12H21C21.96 19.9992 22.37 18.7792 21.6 18.1992ZM6.00002 17.9992L12 13.4992L18 17.9992H6.00002Z" fill="currentColor"/>
</svg>
