<svg  viewBox="0 0 24 24" fill="none" xmlns="http://www.w3.org/2000/svg">
<path d="M15.904 13.0506L13.7827 15.1719L19.7789 21.1681L21.9002 19.0468L15.904 13.0506Z" fill="currentColor"/>
<path d="M17.5 10.0008C19.43 10.0008 21 8.43078 21 6.50078C21 5.92078 20.84 5.38078 20.59 4.90078L17.89 7.60078L16.4 6.11078L19.1 3.41078C18.62 3.16078 18.08 3.00078 17.5 3.00078C15.57 3.00078 14 4.57078 14 6.50078C14 6.91078 14.08 7.30078 14.21 7.66078L12.36 9.51078L10.58 7.73078L11.29 7.02078L9.87998 5.61078L12 3.49078C10.83 2.32078 8.92998 2.32078 7.75998 3.49078L4.21998 7.03078L5.62998 8.44078H2.80998L2.09998 9.15078L5.63998 12.6908L6.34998 11.9808V9.15078L7.75998 10.5608L8.46998 9.85078L10.25 11.6308L2.83998 19.0408L4.95998 21.1608L16.34 9.79078C16.7 9.92078 17.09 10.0008 17.5 10.0008Z" fill="currentColor"/>
</svg>
