<svg  viewBox="0 0 24 24" fill="none" xmlns="http://www.w3.org/2000/svg">
<path opacity="0.3" d="M17.07 8.93066C14.52 8.54066 12.5 6.52066 12.08 3.99066C6.73 3.82066 4 8.69066 4 12.0007C4 16.4107 7.59 20.0007 12 20.0007C16.06 20.0007 19.7 16.8607 19.98 12.5507C17.59 11.4807 17.14 9.29066 17.07 8.93066ZM8.5 15.0007C7.67 15.0007 7 14.3307 7 13.5007C7 12.6707 7.67 12.0007 8.5 12.0007C9.33 12.0007 10 12.6707 10 13.5007C10 14.3307 9.33 15.0007 8.5 15.0007ZM10.5 10.0007C9.67 10.0007 9 9.33066 9 8.50066C9 7.67066 9.67 7.00066 10.5 7.00066C11.33 7.00066 12 7.67066 12 8.50066C12 9.33066 11.33 10.0007 10.5 10.0007ZM15 16.0007C14.45 16.0007 14 15.5507 14 15.0007C14 14.4507 14.45 14.0007 15 14.0007C15.55 14.0007 16 14.4507 16 15.0007C16 15.5507 15.55 16.0007 15 16.0007Z" fill="currentColor"/>
<path d="M10.5 10C11.3284 10 12 9.32843 12 8.5C12 7.67157 11.3284 7 10.5 7C9.67157 7 9 7.67157 9 8.5C9 9.32843 9.67157 10 10.5 10Z" fill="currentColor"/>
<path d="M8.5 15C9.32843 15 10 14.3284 10 13.5C10 12.6716 9.32843 12 8.5 12C7.67157 12 7 12.6716 7 13.5C7 14.3284 7.67157 15 8.5 15Z" fill="currentColor"/>
<path d="M15 16C15.5523 16 16 15.5523 16 15C16 14.4477 15.5523 14 15 14C14.4477 14 14 14.4477 14 15C14 15.5523 14.4477 16 15 16Z" fill="currentColor"/>
<path d="M21.95 10.9902C20.16 10.9602 18.25 9.04016 19.27 6.77016C16.3 7.77016 13.49 5.18016 14.08 2.21016C7.1 0.740159 2 6.41016 2 12.0002C2 17.5202 6.48 22.0002 12 22.0002C17.89 22.0002 22.54 16.9202 21.95 10.9902ZM12 20.0002C7.59 20.0002 4 16.4102 4 12.0002C4 8.69016 6.73 3.82016 12.08 3.98016C12.5 6.52016 14.52 8.54016 17.07 8.92016C17.14 9.28016 17.59 11.4702 19.99 12.5502C19.7 16.8602 16.06 20.0002 12 20.0002Z" fill="currentColor"/>
</svg>
