<svg width="24" height="24" viewBox="0 0 24 24" fill="none" xmlns="http://www.w3.org/2000/svg">
<path opacity="0.3" d="M20 17.17V12H14.83L20 17.17ZM10.83 8H20V6H8.83L10.83 8ZM4 6.83V8H5.17L4 6.83ZM15.17 18L9.17 12H4V18H15.17Z" fill="black"/>
<path d="M6.82994 3.99998H19.9999C21.1099 3.99998 21.9999 4.88998 21.9999 5.99998V18C21.9999 18.34 21.9199 18.66 21.7699 18.94L19.9999 17.17V12H14.8299L10.8299 7.99998H19.9999V5.99998H8.82994L6.82994 3.99998ZM20.4899 23.31L17.1699 20H3.99994C2.88994 20 1.99994 19.11 1.99994 18L2.00994 5.99998C2.00994 5.65998 2.08994 5.33998 2.23994 5.06998L0.689941 3.50998L2.09994 2.09998L21.8999 21.9L20.4899 23.31ZM3.99994 6.82998V7.99998H5.16994L3.99994 6.82998ZM15.1699 18L9.16994 12H3.99994V18H15.1699Z" fill="black"/>
</svg>
