<svg width="24" height="24" viewBox="0 0 24 24" fill="none" xmlns="http://www.w3.org/2000/svg">
<path opacity="0.3" d="M9.37 5.50977C9.19 6.14977 9.1 6.81977 9.1 7.49977C9.1 11.5798 12.42 14.8998 16.5 14.8998C17.18 14.8998 17.85 14.8098 18.49 14.6298C17.45 17.1898 14.93 18.9998 12 18.9998C8.14 18.9998 5 15.8598 5 11.9998C5 9.06977 6.81 6.54977 9.37 5.50977Z" fill="black"/>
<path d="M9.37 5.51C9.19 6.15 9.1 6.82 9.1 7.5C9.1 11.58 12.42 14.9 16.5 14.9C17.18 14.9 17.85 14.81 18.49 14.63C17.45 17.19 14.93 19 12 19C8.14 19 5 15.86 5 12C5 9.07 6.81 6.55 9.37 5.51ZM12 3C7.03 3 3 7.03 3 12C3 16.97 7.03 21 12 21C16.97 21 21 16.97 21 12C21 11.54 20.96 11.08 20.9 10.64C19.92 12.01 18.32 12.9 16.5 12.9C13.52 12.9 11.1 10.48 11.1 7.5C11.1 5.69 11.99 4.08 13.36 3.1C12.92 3.04 12.46 3 12 3Z" fill="black"/>
</svg>
