<svg width="24" height="24" viewBox="0 0 24 24" fill="none" xmlns="http://www.w3.org/2000/svg">
<path opacity="0.3" d="M4 19V6.83L6 8.83V12H9.17L10.17 13H6V17H11V13.83L12 14.83V17H14.17L16.17 19H4ZM16 13.17V11H13.83L12.83 10H16V7H12V9.17L11 8.17V7H9.83L7.83 5H18V15.17L16 13.17Z" fill="black"/>
<path d="M7.82994 4.99961H17.9999V15.1696L19.8299 16.9996H21.9999V14.9996H19.9999V12.9996H21.9999V10.9996H19.9999V8.99961H21.9999V6.99961H19.9999V4.99961C19.9999 3.89961 19.0999 2.99961 17.9999 2.99961H5.82994L7.82994 4.99961ZM11.9999 9.16961V6.99961H15.9999V9.99961H12.8299L11.9999 9.16961ZM9.82994 6.99961H10.9999V8.16961L9.82994 6.99961ZM13.8299 10.9996H15.9999V13.1696L13.8299 10.9996ZM17.9999 20.9996C18.0599 20.9996 18.1099 20.9996 18.1599 20.9896L20.4799 23.3096L21.8899 21.8996L2.09994 2.09961L0.689941 3.50961L2.00994 4.82961C1.99994 4.88961 1.99994 4.93961 1.99994 4.99961V18.9996C1.99994 20.0996 2.89994 20.9996 3.99994 20.9996H17.9999ZM3.99994 18.9996V6.82961L5.99994 8.82961V11.9996H9.16994L10.1699 12.9996H5.99994V16.9996H10.9999V13.8296L11.9999 14.8296V16.9996H14.1699L16.1699 18.9996H3.99994Z" fill="black"/>
</svg>
