<svg width="24" height="29" viewBox="0 0 24 29" fill="none" xmlns="http://www.w3.org/2000/svg">
<g filter="url(#filter0_d_425_88359)">
<path opacity="0.3" d="M13 5H17.67C17.13 4.46 15.71 4 12 4C8.47999 4 7.02999 4.48 6.42999 5H11H13Z" fill="currentColor"/>
<path opacity="0.3" d="M6 15.5C6 16.33 6.67 17 7.5 17H16.5C17.33 17 18 16.33 18 15.5V12H6V15.5ZM15.5 13C16.33 13 17 13.67 17 14.5C17 15.33 16.33 16 15.5 16C14.67 16 14 15.33 14 14.5C14 13.67 14.67 13 15.5 13ZM8.5 13C9.33 13 10 13.67 10 14.5C10 15.33 9.33 16 8.5 16C7.67 16 7 15.33 7 14.5C7 13.67 7.67 13 8.5 13Z" fill="currentColor"/>
<path d="M12 2C8 2 4 2.5 4 6V15.5C4 17.43 5.57 19 7.5 19L6 20V21H18V20L16.5 19C18.43 19 20 17.43 20 15.5V6C20 2.5 16.42 2 12 2ZM12 4C15.71 4 17.13 4.46 17.67 5H13H11H6.43C7.03 4.48 8.48 4 12 4ZM6 7H11V10H6V7ZM18 15.5C18 16.33 17.33 17 16.5 17H7.5C6.67 17 6 16.33 6 15.5V12H18V15.5ZM18 10H13V7H18V10Z" fill="currentColor"/>
<path d="M8.5 16C9.32843 16 10 15.3284 10 14.5C10 13.6716 9.32843 13 8.5 13C7.67157 13 7 13.6716 7 14.5C7 15.3284 7.67157 16 8.5 16Z" fill="currentColor"/>
<path d="M15.5 16C16.3284 16 17 15.3284 17 14.5C17 13.6716 16.3284 13 15.5 13C14.6716 13 14 13.6716 14 14.5C14 15.3284 14.6716 16 15.5 16Z" fill="currentColor"/>
</g>
<defs>
<filter id="filter0_d_425_88359" x="-4" y="0" width="32" height="32" filterUnits="userSpaceOnUse" color-interpolation-filters="sRGB">
<feFlood flood-opacity="0" result="BackgroundImageFix"/>
<feColorMatrix in="SourceAlpha" type="matrix" values="0 0 0 0 0 0 0 0 0 0 0 0 0 0 0 0 0 0 127 0" result="hardAlpha"/>
<feOffset dy="4"/>
<feGaussianBlur stdDeviation="2"/>
<feComposite in2="hardAlpha" operator="out"/>
<feColorMatrix type="matrix" values="0 0 0 0 0 0 0 0 0 0 0 0 0 0 0 0 0 0 0.25 0"/>
<feBlend mode="normal" in2="BackgroundImageFix" result="effect1_dropShadow_425_88359"/>
<feBlend mode="normal" in="SourceGraphic" in2="effect1_dropShadow_425_88359" result="shape"/>
</filter>
</defs>
</svg>
