<svg viewBox="0 0 24 24" fill="none" xmlns="http://www.w3.org/2000/svg">
<path d="M21.71 11.2905L12.71 2.29055C12.32 1.90055 11.69 1.90055 11.3 2.29055L8.20996 5.38055L9.61996 6.79055L12 4.42055L19.58 12.0005L17.2 14.3805L18.61 15.7905L21.7 12.7005C22.1 12.3305 22.1 11.7005 21.71 11.2905Z" fill="currentColor"/>
<path d="M13 7.5V10.17L15.17 12.34L16.5 11L13 7.5Z" fill="currentColor"/>
<path d="M1.39001 4.22055L5.38001 8.21055L2.29001 11.3005C1.90001 11.6905 1.90001 12.3205 2.29001 12.7105L11.29 21.7105C11.68 22.1005 12.31 22.1005 12.7 21.7105L15.79 18.6205L19.78 22.6105L21.19 21.2005L2.81001 2.81055L1.39001 4.22055ZM8.03001 10.8505C8.02001 10.9005 7.99001 10.9505 7.99001 11.0005V15.0005H9.99001V12.8205L14.37 17.2005L12 19.5805L4.42001 12.0005L6.80001 9.62055L8.03001 10.8505Z" fill="currentColor"/>
</svg>
