<svg  viewBox="0 0 24 24" fill="none" xmlns="http://www.w3.org/2000/svg">
<path d="M18.32 4.2598C16.84 3.0498 15.01 2.2498 13 2.0498V4.0698C14.46 4.2498 15.79 4.8298 16.9 5.6898L18.32 4.2598ZM19.93 10.9998H21.95C21.75 8.9898 20.95 7.1598 19.74 5.6798L18.31 7.0998C19.17 8.20981 19.75 9.5398 19.93 10.9998ZM18.31 16.8998L19.74 18.3298C20.95 16.8498 21.75 15.0098 21.95 13.0098H19.93C19.75 14.4598 19.17 15.7898 18.31 16.8998ZM13 19.9298V21.9498C15.01 21.7498 16.84 20.9498 18.32 19.7398L16.89 18.3098C15.79 19.1698 14.46 19.7498 13 19.9298ZM13 11.9998V6.9998H11V11.9998H7L12 16.9998L17 11.9998H13ZM11 19.9298V21.9498C5.95 21.4498 2 17.1898 2 11.9998C2 6.8098 5.95 2.5498 11 2.0498V4.0698C7.05 4.5598 4 7.9198 4 11.9998C4 16.0798 7.05 19.4398 11 19.9298Z" fill="currentColor"/>
</svg>
