<svg width="24" height="24" viewBox="0 0 24 24" fill="none" xmlns="http://www.w3.org/2000/svg">
<path opacity="0.3" d="M12.06 10.0195L5 17.0795V17.9995H5.92L12.98 10.9395L12.06 10.0195Z" fill="black"/>
<path d="M15 16L11 20H21V16H15Z" fill="black"/>
<path d="M12.06 7.19043L3 16.2504V20.0004H6.75L15.81 10.9404L12.06 7.19043ZM5.92 18.0004H5V17.0804L12.06 10.0204L12.98 10.9404L5.92 18.0004Z" fill="black"/>
<path d="M18.71 8.04C19.1 7.65 19.1 7.02 18.71 6.63L16.37 4.29C16.17 4.09 15.92 4 15.66 4C15.41 4 15.15 4.1 14.96 4.29L13.13 6.12L16.88 9.87L18.71 8.04Z" fill="black"/>
</svg>
