<svg  viewBox="0 0 24 24" fill="none" xmlns="http://www.w3.org/2000/svg">
<path opacity="0.3" d="M16 4H8V5H16V4Z" fill="currentColor"/>
<path opacity="0.3" d="M16 19H8V20H16V19Z" fill="currentColor"/>
<path d="M16 2.01L8 2C6.9 2 6 2.9 6 4V20C6 21.1 6.9 22 8 22H16C17.1 22 18 21.1 18 20V4C18 2.9 17.1 2.01 16 2.01ZM16 20H8V19H16V20ZM16 17H8V7H16V17ZM16 5H8V4H16V5Z" fill="currentColor"/>
<path d="M21 10H19V17H21V10Z" fill="currentColor"/>
<path d="M24 7H22V14H24V7Z" fill="currentColor"/>
<path d="M5 7H3V14H5V7Z" fill="currentColor"/>
<path d="M2 10H0V17H2V10Z" fill="currentColor"/>
</svg>
