<svg  viewBox="0 0 24 24" fill="none" xmlns="http://www.w3.org/2000/svg">
<path d="M17.9 9.05055C17.96 9.41055 18 9.79055 18 10.2005C18 11.9105 16.92 14.8405 12 19.3405C7.08 14.8505 6 11.9105 6 10.2005C6 6.17055 9.09 4.00055 12 4.00055C12.32 4.00055 12.65 4.03055 12.97 4.08055L14.62 2.43055C13.78 2.16055 12.9 2.00055 12 2.00055C7.8 2.00055 4 5.22055 4 10.2005C4 13.5205 6.67 17.4505 12 22.0005C17.33 17.4505 20 13.5205 20 10.2005C20 9.19055 19.84 8.26055 19.55 7.40055L17.9 9.05055ZM20.71 2.00055L20 1.29055C19.61 0.900547 18.98 0.900547 18.59 1.29055L17.87 2.01055L19.99 4.13055L20.71 3.41055C21.1 3.02055 21.1 2.39055 20.71 2.00055ZM11 11.0005H13.12L19.28 4.84055L17.16 2.72055L11 8.88055V11.0005Z" fill="currentColor"/>
<path opacity="0.3" d="M13.95 13H9V8.05L12.97 4.08C12.65 4.03 12.32 4 12 4C9.09 4 6 6.17 6 10.2C6 11.91 7.08 14.84 12 19.34C16.92 14.85 18 11.91 18 10.2C18 9.8 17.96 9.42 17.9 9.05L13.95 13Z" fill="currentColor"/>
</svg>
