<svg  viewBox="0 0 24 24" fill="none" xmlns="http://www.w3.org/2000/svg">
<path opacity="0.3" d="M14.11 14H13.28H10H8V12V8.74V7.91L8.59 7.32L11.91 4C8.61 4.05 6 6.6 6 10.2C6 12.54 7.95 15.64 12 19.34C16.05 15.64 18 12.55 18 10.2C18 10.17 18 10.14 18 10.12L14.7 13.42L14.11 14Z" fill="currentColor"/>
<path d="M18.17 4.90962L17.1 3.83962L11.55 9.38962V10.4696H12.63L18.17 4.90962ZM16 2.73962L17.29 1.44962C17.87 0.859617 18.81 0.859617 19.4 1.43962L19.41 1.44962L20.56 2.59962C21.15 3.18962 21.15 4.13962 20.56 4.71962L19.88 5.39962L19.86 5.41962L19.28 5.99962L13.28 11.9996H10V8.73962L16 2.73962ZM13.72 2.18962L13.17 2.73962L11.9 4.00962C8.6 4.05962 6 6.60962 6 10.2096C6 12.5496 7.95 15.6496 12 19.3496C16.05 15.6496 18 12.5596 18 10.2096V10.1096L19.8 8.30962C19.93 8.90962 20 9.54962 20 10.2096C20 13.5296 17.33 17.4596 12 22.0096C6.67 17.4596 4 13.5296 4 10.2096C4 5.22962 7.8 2.00962 12 2.00962C12.58 2.00962 13.16 2.06962 13.72 2.18962Z" fill="currentColor"/>
<path opacity="0.3" d="M18.17 4.90984L17.1 3.83984L11.55 9.38984V10.4698H12.63L18.17 4.90984Z" fill="currentColor"/>
</svg>
