<svg  viewBox="0 0 24 24" fill="none" xmlns="http://www.w3.org/2000/svg">
<path opacity="0.3" d="M15.55 17.4207V18.4507H16.58L20.03 15.0007L19 13.9707L15.55 17.4207Z" fill="currentColor"/>
<path d="M18 4H16V11.9L18 9.9V4Z" fill="currentColor"/>
<path d="M6 4H4V20H6V4Z" fill="currentColor"/>
<path d="M12 4H10V8H12V4Z" fill="currentColor"/>
<path d="M12 10H10V14H12V10Z" fill="currentColor"/>
<path d="M12 16H10V20H12V16Z" fill="currentColor"/>
<path d="M22.56 12.5905L21.41 11.4405C20.82 10.8505 19.87 10.8505 19.29 11.4405L14 16.7305V20.0005H17.27L22.56 14.7105C23.15 14.1205 23.15 13.1705 22.56 12.5905ZM16.58 18.4505H15.55V17.4205L19 13.9705L20.03 15.0005L16.58 18.4505Z" fill="currentColor"/>
</svg>
