<svg  viewBox="0 0 24 24" fill="none" xmlns="http://www.w3.org/2000/svg">
<path opacity="0.3" d="M14 18H10V19H14V18Z" fill="currentColor"/>
<path opacity="0.3" d="M14 16H10V17H14V16Z" fill="currentColor"/>
<path d="M12 3C11.54 3 11.07 3.04 10.6 3.14C7.84 3.67 5.64 5.9 5.12 8.66C4.64 11.27 5.6 13.67 7.34 15.22C7.77 15.6 8 16.13 8 16.69V19C8 20.1 8.9 21 10 21H10.28C10.63 21.6 11.26 22 12 22C12.74 22 13.38 21.6 13.72 21H14C15.1 21 16 20.1 16 19V16.69C16 16.14 16.22 15.6 16.64 15.23C18.09 13.95 19 12.08 19 10C19 6.13 15.87 3 12 3ZM14 19H10V18H14V19ZM14 17H10V16H14V17ZM15.31 13.74C15.22 13.82 15.15 13.92 15.07 14H8.92C8.84 13.91 8.77 13.81 8.68 13.73C7.36 12.55 6.77 10.79 7.09 9.03C7.45 7.09 9.04999 5.48 10.98 5.1C11.32 5.03 11.66 5 12 5C14.76 5 17 7.24 17 10C17 11.43 16.39 12.79 15.31 13.74Z" fill="currentColor"/>
<path d="M12.5 11H11.5V14H12.5V11Z" fill="currentColor"/>
<path d="M10.3795 8.87298L9.67239 9.58008L11.7937 11.7014L12.5008 10.9943L10.3795 8.87298Z" fill="currentColor"/>
<path d="M11.501 11.0038L12.2081 11.7109L14.3294 9.58964L13.6223 8.88254L11.501 11.0038Z" fill="currentColor"/>
</svg>
