<svg  viewBox="0 0 24 24" fill="none" xmlns="http://www.w3.org/2000/svg">
<path d="M11 2H3V4H11V2Z" fill="currentColor"/>
<path d="M6 11H8V7H11V5H3V7H6V11Z" fill="currentColor"/>
<path d="M20.1817 12.4035L12.4036 20.1816L13.8178 21.5958L21.5959 13.8177L20.1817 12.4035Z" fill="currentColor"/>
<path d="M14.5 16C15.3284 16 16 15.3284 16 14.5C16 13.6716 15.3284 13 14.5 13C13.6716 13 13 13.6716 13 14.5C13 15.3284 13.6716 16 14.5 16Z" fill="currentColor"/>
<path d="M19.5 21C20.3284 21 21 20.3284 21 19.5C21 18.6716 20.3284 18 19.5 18C18.6716 18 18 18.6716 18 19.5C18 20.3284 18.6716 21 19.5 21Z" fill="currentColor"/>
<path d="M15.5 11C16.88 11 18 9.88 18 8.5V4H21V2H17V6.51C16.58 6.19 16.07 6 15.5 6C14.12 6 13 7.12 13 8.5C13 9.88 14.12 11 15.5 11Z" fill="currentColor"/>
<path d="M9.73998 15.9591L8.32999 17.3691L7.61999 16.6591L7.96999 16.3091C8.94999 15.3291 8.94999 13.7491 7.96999 12.7691C7.47999 12.2791 6.83998 12.0391 6.19999 12.0391C5.55999 12.0391 4.91999 12.2791 4.42999 12.7691C3.44999 13.7491 3.44999 15.3291 4.42999 16.3091L4.77999 16.6591L3.71999 17.7191C2.73999 18.6991 2.73999 20.2791 3.71999 21.2591C4.21999 21.7591 4.85999 21.9991 5.49999 21.9991C6.13999 21.9991 6.77999 21.7591 7.26999 21.2691L8.32999 20.2091L9.73998 21.6191L11.15 20.2091L9.73998 18.7991L11.15 17.3891L9.73998 15.9591ZM5.84999 14.1991C5.96999 14.0791 6.10999 14.0491 6.19999 14.0491C6.28998 14.0491 6.42999 14.0791 6.54999 14.1991C6.73999 14.3991 6.73999 14.7091 6.54999 14.9091L6.19999 15.2591L5.84999 14.8991C5.65999 14.7091 5.65999 14.3891 5.84999 14.1991ZM5.84999 19.8491C5.72999 19.9691 5.58999 19.9991 5.49999 19.9991C5.40999 19.9991 5.26999 19.9691 5.14999 19.8491C4.95999 19.6591 4.95999 19.3391 5.14999 19.1391L6.20999 18.0791L6.91999 18.7891L5.84999 19.8491Z" fill="currentColor"/>
</svg>
