<svg viewBox="0 0 24 24" fill="none" xmlns="http://www.w3.org/2000/svg">
<path opacity="0.3" d="M10.6599 4.12C13.2099 8.35 17.6899 7.99 17.8399 7.98L17.2699 6.73L12.3999 4.5L13.2499 4.11C12.8399 4.04 12.4299 4 11.9999 4C11.5399 4 11.0899 4.05 10.6599 4.12Z" fill="currentColor"/>
<path opacity="0.3" d="M8.07992 5.03027C6.36992 6.00027 5.04992 7.58027 4.41992 9.47027C6.12992 8.50027 7.44992 6.92027 8.07992 5.03027Z" fill="currentColor"/>
<path d="M19.89 10.75C19.96 11.16 20 11.57 20 12C20 16.41 16.41 20 12 20C7.59 20 4 16.41 4 12C4 11.95 4.01 11.9 4 11.86C6.6 10.88 8.69 8.87 9.74 6.31C13.12 10.45 17.71 10.04 18.73 9.92L17.84 7.99C17.71 8 13.22 8.37 10.66 4.13C11.67 3.97 12.37 3.98 13.25 4.12L15.37 3.15L16.01 2.86C14.78 2.3 13.43 2 12 2C6.48 2 2 6.48 2 12C2 17.52 6.48 22 12 22C17.52 22 22 17.52 22 12C22 10.57 21.7 9.22 21.16 7.99L19.89 10.75ZM8.08 5.03C7.45 6.92 6.13 8.5 4.42 9.47C5.05 7.58 6.37 6 8.08 5.03Z" fill="currentColor"/>
<path d="M9 14.25C9.69036 14.25 10.25 13.6904 10.25 13C10.25 12.3096 9.69036 11.75 9 11.75C8.30964 11.75 7.75 12.3096 7.75 13C7.75 13.6904 8.30964 14.25 9 14.25Z" fill="currentColor"/>
<path d="M15 14.25C15.6904 14.25 16.25 13.6904 16.25 13C16.25 12.3096 15.6904 11.75 15 11.75C14.3096 11.75 13.75 12.3096 13.75 13C13.75 13.6904 14.3096 14.25 15 14.25Z" fill="currentColor"/>
<path d="M20.6 3.4L19.5 1L18.4 3.4L16 4.5L18.4 5.6L19.5 8L20.6 5.6L23 4.5L20.6 3.4Z" fill="currentColor"/>
</svg>
