<svg viewBox="0 0 24 24" fill="none" xmlns="http://www.w3.org/2000/svg">
<path opacity="0.3" d="M12 4C11.54 4 11.09 4.05 10.66 4.12C12.06 6.44 14.6 8 17.5 8C17.96 8 18.41 7.95 18.84 7.88C17.44 5.56 14.9 4 12 4ZM4.42 9.47C5.09 9.09 5.7 8.61 6.23 8.06L5.51 7.34C5.05 7.99 4.68 8.7 4.42 9.47Z" fill="currentColor"/>
<path d="M9 14.25C9.69 14.25 10.25 13.69 10.25 13C10.25 12.31 9.69 11.75 9 11.75C8.31 11.75 7.75 12.31 7.75 13C7.75 13.69 8.31 14.25 9 14.25ZM17.5 10C18.25 10 18.97 9.91 19.67 9.76C19.88 10.47 20 11.22 20 12C20 13.22 19.72 14.37 19.23 15.4L20.72 16.89C21.53 15.44 22 13.78 22 12C22 6.48 17.52 2 12 2C10.22 2 8.56 2.47 7.11 3.28L12.44 8.61C13.93 9.49 15.65 10 17.5 10ZM10.66 4.12C11.09 4.05 11.54 4 12 4C14.9 4 17.44 5.56 18.84 7.88C18.41 7.95 17.96 8 17.5 8C14.6 8 12.06 6.44 10.66 4.12ZM1.89 3.72L4.08 5.91C2.78 7.6 2 9.71 2 12C2 17.52 6.48 22 12 22C14.29 22 16.4 21.22 18.09 19.92L20.28 22.11L21.69 20.7L3.31 2.31L1.89 3.72ZM16.66 18.49C15.35 19.44 13.74 20 12 20C7.59 20 4 16.41 4 12C4 11.95 4.01 11.9 4 11.86C5.39 11.34 6.63 10.51 7.64 9.47L16.66 18.49ZM5.51 7.34L6.23 8.06C5.7 8.61 5.09 9.09 4.42 9.47C4.68 8.7 5.05 7.99 5.51 7.34Z" fill="currentColor"/>
</svg>
