<svg width="24" height="24" viewBox="0 0 24 24" fill="none" xmlns="http://www.w3.org/2000/svg">
<path opacity="0.3" d="M17.4999 8C17.9599 8 18.4099 7.95 18.8399 7.88C17.4399 5.56 14.8999 4 11.9999 4C11.5399 4 11.0899 4.05 10.6599 4.12C12.0599 6.44 14.5999 8 17.4999 8ZM8.07992 5.03C6.36992 6 5.04992 7.58 4.41992 9.47C6.12992 8.5 7.44992 6.92 8.07992 5.03Z" fill="black"/>
<path d="M12 2C6.48 2 2 6.48 2 12C2 17.52 6.48 22 12 22C17.52 22 22 17.52 22 12C22 6.48 17.52 2 12 2ZM12 4C14.9 4 17.44 5.56 18.84 7.88C18.41 7.95 17.96 8 17.5 8C14.6 8 12.06 6.44 10.66 4.12C11.09 4.05 11.54 4 12 4ZM8.08 5.03C7.45 6.92 6.13 8.5 4.42 9.47C5.05 7.58 6.37 6 8.08 5.03ZM12 20C7.59 20 4 16.41 4 12C4 11.95 4.01 11.9 4.01 11.85C6.61 10.87 8.69 8.86 9.75 6.3C11.58 8.56 14.37 10 17.5 10C18.25 10 18.97 9.91 19.67 9.76C19.88 10.47 20 11.22 20 12C20 16.41 16.41 20 12 20Z" fill="black"/>
<path d="M9 14.25C9.69036 14.25 10.25 13.6904 10.25 13C10.25 12.3096 9.69036 11.75 9 11.75C8.30964 11.75 7.75 12.3096 7.75 13C7.75 13.6904 8.30964 14.25 9 14.25Z" fill="black"/>
<path d="M15 14.25C15.6904 14.25 16.25 13.6904 16.25 13C16.25 12.3096 15.6904 11.75 15 11.75C14.3096 11.75 13.75 12.3096 13.75 13C13.75 13.6904 14.3096 14.25 15 14.25Z" fill="black"/>
</svg>
