<svg  viewBox="0 0 24 24" fill="none" xmlns="http://www.w3.org/2000/svg">
<path opacity="0.3" d="M5.24003 14.4195C5.20003 16.1795 5.06003 18.1395 4.66003 19.9995H7.33003C7.60003 18.0595 7.76003 15.9295 7.85003 14.0695C7.54003 13.8995 7.25003 13.6995 7.00003 13.4395C6.53003 13.9295 5.92003 14.2695 5.24003 14.4195Z" fill="currentColor"/>
<path opacity="0.3" d="M11 11H8C8 11.83 8.67 12.5 9.5 12.5C10.33 12.5 11 11.83 11 11Z" fill="currentColor"/>
<path opacity="0.3" d="M6 11H3C3 11.83 3.67 12.5 4.5 12.5C5.33 12.5 6 11.83 6 11Z" fill="currentColor"/>
<path opacity="0.3" d="M12 4.71094C10.67 5.85094 8.51001 7.55094 5.89001 9.00094H18.12C15.49 7.55094 13.33 5.85094 12 4.71094Z" fill="currentColor"/>
<path opacity="0.3" d="M19.5 12.5C20.33 12.5 21 11.83 21 11H18C18 11.83 18.67 12.5 19.5 12.5Z" fill="currentColor"/>
<path opacity="0.3" d="M14.5 12.5C15.33 12.5 16 11.83 16 11H13C13 11.83 13.67 12.5 14.5 12.5Z" fill="currentColor"/>
<path opacity="0.3" d="M17 13.4395C16.75 13.6895 16.46 13.8895 16.15 14.0595C16.25 15.9295 16.41 18.0595 16.67 19.9895H19.34C18.95 18.1295 18.8 16.1695 18.77 14.4095C18.08 14.2695 17.47 13.9295 17 13.4395Z" fill="currentColor"/>
<path d="M12 2C12 2 7 7 1 9V11C1 12.49 1.93 13.75 3.24 14.26C3.2 16.76 2.92 19.69 2 22H22C21.08 19.69 20.8 16.76 20.76 14.26C22.07 13.75 23 12.49 23 11V9C17 7 12 2 12 2ZM12 4.71C13.33 5.85 15.49 7.55 18.11 9H5.89C8.51 7.55 10.67 5.85 12 4.71ZM3 11H6C6 11.83 5.33 12.5 4.5 12.5C3.67 12.5 3 11.83 3 11ZM7.33 20H4.66C5.05 18.14 5.2 16.18 5.23 14.42C5.91 14.27 6.52 13.93 6.99 13.44C7.24 13.69 7.53 13.89 7.84 14.06C7.76 15.93 7.6 18.06 7.33 20ZM8 11H11C11 11.83 10.33 12.5 9.5 12.5C8.67 12.5 8 11.83 8 11ZM9.35 20C9.59 18.17 9.74 16.22 9.83 14.47C10.67 14.39 11.44 14.02 12 13.45C12.56 14.02 13.32 14.39 14.17 14.47C14.27 16.22 14.41 18.17 14.65 20H9.35ZM14.5 12.5C13.67 12.5 13 11.83 13 11H16C16 11.83 15.33 12.5 14.5 12.5ZM16.67 20C16.4 18.06 16.24 15.93 16.15 14.07C16.46 13.9 16.76 13.7 17 13.45C17.47 13.93 18.08 14.28 18.76 14.43C18.79 16.19 18.94 18.15 19.33 20.01H16.67V20ZM19.5 12.5C18.67 12.5 18 11.83 18 11H21C21 11.83 20.33 12.5 19.5 12.5Z" fill="currentColor"/>
</svg>
