<svg  viewBox="0 0 24 24" fill="none" xmlns="http://www.w3.org/2000/svg">
<path d="M20 11.5601V10.6701C20 9.91008 19.42 9.34008 18.67 9.34008H15.56V14.6701H16.89V12.8901H17.91L18.67 14.6701H20L19.2 12.8001C19.64 12.5801 20 12.0901 20 11.5601ZM18.67 11.5601H16.89V10.6701H18.67V11.5601ZM7.11 9.33008H4V14.6601H7.11C7.87 14.6601 8.44 14.0801 8.44 13.3301V10.6601C8.44 9.91008 7.87 9.33008 7.11 9.33008ZM7.11 13.3301H5.33V10.6601H7.11V13.3301ZM14.11 9.33008H12.77L11.88 12.3801L11 9.33008H9.66L11.22 14.6701H12.55L14.11 9.33008Z" fill="currentColor"/>
<path opacity="0.3" d="M3 5H21V19H3V5Z" fill="currentColor"/>
<path d="M21 3H3C1.89 3 1 3.89 1 5V19C1 20.1 1.89 21 3 21H21C22.11 21 23 20.1 23 19V5C23 3.89 22.11 3 21 3ZM21 19H3V5H21V19Z" fill="currentColor"/>
</svg>
