<svg viewBox="0 0 24 24" fill="none" xmlns="http://www.w3.org/2000/svg">
<path opacity="0.3" d="M18.69 7.61012C17.99 7.61012 17.3 7.80012 16.69 8.15012C16.53 8.24012 16.37 8.36012 16.15 8.52012L15.02 9.42012C15.33 9.78012 15.58 10.2001 15.74 10.6601L17.12 10.1401C17.34 10.0601 17.53 9.97012 17.7 9.87012C18.54 9.38012 19.17 8.60012 19.48 7.69012C19.22 7.63012 18.96 7.61012 18.69 7.61012ZM17.13 13.8701L15.75 13.3501C15.59 13.8001 15.35 14.2001 15.05 14.5601L16.2 15.5201C16.35 15.6401 16.51 15.7601 16.69 15.8601C17.3 16.2101 17.99 16.4001 18.68 16.4001C18.95 16.4001 19.21 16.3701 19.48 16.3201C19.17 15.4101 18.54 14.6301 17.7 14.1401C17.54 14.0401 17.35 13.9501 17.13 13.8701ZM11 6.00012C11 6.19012 11.02 6.41012 11.05 6.63012L11.28 8.07012C11.52 8.03012 11.76 8.00012 12 8.00012C12.24 8.00012 12.48 8.03012 12.71 8.07012L12.94 6.63012C12.98 6.41012 13 6.19012 13 6.00012C13 5.02012 12.63 4.09012 12 3.37012C11.37 4.09012 11 5.02012 11 6.00012ZM12.71 15.9301C12.48 15.9701 12.24 16.0001 12 16.0001C11.75 16.0001 11.51 15.9701 11.28 15.9301L11.06 17.3501C11.02 17.5901 11 17.8001 11 18.0001C11 18.9801 11.37 19.9101 12 20.6301C12.63 19.9101 13 18.9701 13 18.0001C13 17.8101 12.98 17.5901 12.95 17.3701L12.71 15.9301ZM6.87 10.1201L8.25 10.6401C8.41 10.2001 8.65 9.79012 8.95 9.44012L7.8 8.49012C7.63 8.34012 7.46 8.22012 7.31 8.14012C6.69 7.78012 6.01 7.60012 5.31 7.60012C5.04 7.60012 4.77 7.63012 4.5 7.68012C4.8 8.59012 5.43 9.36012 6.29 9.86012C6.46 9.95012 6.65 10.0401 6.87 10.1201ZM6.87 13.8601C6.65 13.9401 6.46 14.0301 6.29 14.1301C5.45 14.6201 4.82 15.4001 4.51 16.3101C4.77 16.3601 5.03 16.3901 5.3 16.3901C6 16.3901 6.69 16.2001 7.3 15.8501C7.46 15.7601 7.62 15.6401 7.84 15.4801L8.97 14.5901C8.66 14.2301 8.41 13.8101 8.25 13.3501L6.87 13.8601Z" fill="currentColor"/>
<path d="M18.7001 12.3996C18.42 12.2396 18.13 12.1096 17.84 11.9996C18.13 11.8896 18.42 11.7596 18.7001 11.5996C20.6201 10.4896 21.6901 8.47957 21.7001 6.40957C20.7901 5.88957 19.75 5.60957 18.6901 5.60957C17.67 5.60957 16.64 5.86957 15.7 6.40957C15.42 6.56957 15.16 6.75957 14.92 6.94957C14.97 6.63957 15 6.31957 15 5.99957C15 3.77957 13.79 1.84957 12 0.80957C10.21 1.84957 9.00005 3.77957 9.00005 5.99957C9.00005 6.31957 9.03005 6.63957 9.08005 6.94957C8.84005 6.74957 8.58005 6.55957 8.30005 6.39957C7.36005 5.85957 6.33005 5.59957 5.31005 5.59957C4.26005 5.59957 3.21005 5.87957 2.30005 6.39957C2.30005 8.46957 3.37005 10.4796 5.30005 11.5896C5.58005 11.7496 5.87005 11.8796 6.16005 11.9896C5.87005 12.0996 5.58005 12.2296 5.30005 12.3896C3.38005 13.4996 2.31005 15.5096 2.30005 17.5796C3.21005 18.0996 4.25005 18.3796 5.31005 18.3796C6.33005 18.3796 7.36005 18.1196 8.30005 17.5796C8.58005 17.4196 8.84005 17.2296 9.08005 17.0396C9.03005 17.3596 9.00005 17.6796 9.00005 17.9996C9.00005 20.2196 10.21 22.1496 12 23.1896C13.79 22.1496 15 20.2196 15 17.9996C15 17.6796 14.97 17.3596 14.92 17.0496C15.16 17.2496 15.42 17.4296 15.7 17.5896C16.64 18.1296 17.67 18.3896 18.6901 18.3896C19.74 18.3896 20.7901 18.1096 21.7001 17.5896C21.6901 15.5196 20.6201 13.5096 18.7001 12.3996ZM4.51005 7.67957C4.77005 7.61957 5.04005 7.59957 5.31005 7.59957C6.00005 7.59957 6.69005 7.77957 7.30005 8.13957C7.45005 8.22957 7.62005 8.33957 7.79005 8.48957L8.94005 9.44957C8.64005 9.80957 8.41005 10.2096 8.24005 10.6496L6.86005 10.1296C6.65005 10.0396 6.46005 9.94957 6.30005 9.85957C5.43005 9.35957 4.81005 8.58957 4.51005 7.67957ZM7.84005 15.4696C7.63005 15.6396 7.46005 15.7596 7.30005 15.8396C6.69005 16.1896 6.00005 16.3796 5.30005 16.3796C5.03005 16.3796 4.77005 16.3496 4.51005 16.2996C4.82005 15.3896 5.45005 14.6096 6.29005 14.1196C6.46005 14.0196 6.65005 13.9396 6.87005 13.8496L8.25005 13.3296C8.41005 13.7896 8.66005 14.2096 8.97005 14.5696L7.84005 15.4696ZM12 3.36957C12.63 4.08957 13 5.02957 13 5.99957C13 6.18957 12.98 6.40957 12.95 6.62957L12.72 8.06957C12.48 8.02957 12.24 7.99957 12 7.99957C11.76 7.99957 11.52 8.02957 11.29 8.06957L11.06 6.62957C11.02 6.40957 11 6.18957 11 5.99957C11 5.01957 11.37 4.08957 12 3.36957ZM12 20.6296C11.37 19.9096 11 18.9696 11 17.9996C11 17.7996 11.02 17.5896 11.06 17.3496L11.28 15.9296C11.51 15.9696 11.75 15.9996 12 15.9996C12.24 15.9996 12.48 15.9696 12.71 15.9296L12.94 17.3696C12.98 17.5896 13 17.8096 13 17.9996C13 18.9796 12.63 19.9096 12 20.6296ZM12 13.9996C10.9 13.9996 10 13.0996 10 11.9996C10 10.8996 10.9 9.99957 12 9.99957C13.1 9.99957 14 10.8996 14 11.9996C14 13.0996 13.1 13.9996 12 13.9996ZM16.16 8.51957C16.37 8.34957 16.54 8.22957 16.7 8.14957C17.31 7.79957 18.0001 7.60957 18.7001 7.60957C18.9701 7.60957 19.23 7.63957 19.49 7.68957C19.18 8.59957 18.55 9.37957 17.71 9.86957C17.54 9.96957 17.35 10.0496 17.13 10.1396L15.75 10.6596C15.58 10.1996 15.34 9.78957 15.03 9.41957L16.16 8.51957ZM18.6901 16.3896C18.0001 16.3896 17.31 16.2096 16.7 15.8496C16.52 15.7496 16.36 15.6296 16.21 15.5096L15.06 14.5496C15.36 14.1896 15.6 13.7896 15.76 13.3396L17.14 13.8596C17.36 13.9396 17.55 14.0296 17.71 14.1196C18.56 14.6096 19.18 15.3896 19.49 16.2996C19.22 16.3696 18.9501 16.3896 18.6901 16.3896Z" fill="currentColor"/>
</svg>
