<svg  viewBox="0 0 24 24" fill="none" xmlns="http://www.w3.org/2000/svg">
<path opacity="0.3" d="M16.48 10.0002H18.16L15 5.49023L13.22 8.03023L16 12.0002H14.14L16.71 16.0002H20.34L16.48 10.0002Z" fill="currentColor"/>
<path opacity="0.3" d="M12.16 10.0002L9 5.49023L5.84 10.0002H7.52L3.66 16.0002H14.34L10.48 10.0002H12.16Z" fill="currentColor"/>
<path d="M20.14 12H22L15 2L12 6.29L9 2L2 12H3.86L0 18H7V22H11V18H13V22H17V18H24L20.14 12ZM3.66 16L7.52 10H5.84L9 5.49L12.16 10H10.48L14.34 16H3.66ZM16.71 16L14.14 12H16L13.22 8.03L15 5.49L18.16 10H16.48L20.34 16H16.71Z" fill="currentColor"/>
</svg>
