<svg width="24" height="24" viewBox="0 0 24 24" fill="none" xmlns="http://www.w3.org/2000/svg">
<path opacity="0.3" d="M6 6.31043V11.0904C6 15.0904 8.55 18.7904 12 19.9204C15.45 18.7904 18 15.1004 18 11.0904V6.31043L12 4.19043L6 6.31043ZM16.6 9.88043L10.94 15.5404L7.4 12.0004L8.81 10.5904L10.93 12.7104L15.17 8.47043L16.6 9.88043Z" fill="black"/>
<path d="M12 2L4 5V11.09C4 16.14 7.41 20.85 12 22C16.59 20.85 20 16.14 20 11.09V5L12 2ZM18 11.09C18 15.09 15.45 18.79 12 19.92C8.55 18.79 6 15.1 6 11.09V6.31L12 4.19L18 6.31V11.09ZM8.82 10.59L7.4 12L10.94 15.54L16.6 9.88L15.19 8.47L10.95 12.71L8.82 10.59Z" fill="black"/>
</svg>
