<svg width="24" height="24" viewBox="0 0 24 24" fill="none" xmlns="http://www.w3.org/2000/svg">
<path opacity="0.3" d="M6 6.38965V11.0896C6 15.0896 8.55 18.7896 12 19.9196C15.45 18.7896 18 15.0996 18 11.0896V6.38965L12 4.13965L6 6.38965ZM13 15.9996H11V13.9996H13V15.9996ZM13 11.9996H11V6.99965H13V11.9996Z" fill="black"/>
<path d="M12 2L4 5V11.09C4 16.14 7.41 20.85 12 22C16.59 20.85 20 16.14 20 11.09V5L12 2ZM18 11.09C18 15.09 15.45 18.79 12 19.92C8.55 18.79 6 15.1 6 11.09V6.39L12 4.14L18 6.39V11.09ZM11 16H13V14H11V16ZM11 12H13V7H11V12Z" fill="black"/>
</svg>
