<svg  viewBox="0 0 24 24" fill="none" xmlns="http://www.w3.org/2000/svg">
<path d="M12 2L4 5V11.09C4 16.14 7.41 20.85 12 22C16.59 20.85 20 16.14 20 11.09V5L12 2ZM18 11.09C18 15.09 15.45 18.79 12 19.92C8.55 18.79 6 15.1 6 11.09V6.39L12 4.14L18 6.39V11.09ZM9.91 8.5L8.5 9.91L10.59 12L8.5 14.09L9.91 15.5L12 13.42L14.09 15.5L15.5 14.09L13.42 12L15.5 9.91L14.09 8.5L12 10.59L9.91 8.5Z" fill="currentColor"/>
<path opacity="0.3" d="M6 6.38965V11.0896C6 15.0896 8.55 18.7896 12 19.9196C15.45 18.7896 18 15.0996 18 11.0896V6.38965L12 4.13965L6 6.38965ZM15.5 9.90965L13.42 11.9996L15.5 14.0896L14.09 15.4996L12 13.4196L9.91 15.4996L8.5 14.0896L10.59 11.9996L8.5 9.90965L9.91 8.49965L12 10.5896L14.09 8.49965L15.5 9.90965Z" fill="currentColor"/>
</svg>
