<svg viewBox="0 0 24 24" fill="none" xmlns="http://www.w3.org/2000/svg">
<g clip-path="url(#clip0_425_87423)">
<path opacity="0.3" d="M20 14V10H16V12.89L17.11 14H20ZM10 12.55V14H11.45L10 12.55ZM14 10H13.11L14 10.89V10ZM19.11 16L20 16.89V16H19.11ZM8 4H7.11L8 4.89V4ZM14 8V4H10V6.89L11.11 8H14ZM16 4H20V8H16V4ZM10 16V20H14V16.55L13.45 16H10ZM4 10V14H8V10.55L7.45 10H4ZM16 20H17.45L16 18.55V20ZM4 16H8V20H4V16ZM4 6.55V8H5.45L4 6.55Z" fill="currentColor"/>
<path d="M8 3.99965V4.88965L10 6.88965V3.99965H14V7.99965H11.11L13.11 9.99965H14V10.8896L16 12.8896V9.99965H20V13.9996H17.11L19.11 15.9996H20V16.8896L22 18.8896V3.99965C22 2.89965 21.1 1.99965 20 1.99965H5.11L7.11 3.99965H8ZM16 3.99965H20V7.99965H16V3.99965ZM1.41 1.13965L0 2.54965L2 4.54965V19.9996C2 21.0996 2.9 21.9996 4 21.9996H19.45L21.46 24.0096L22.87 22.5996L1.41 1.13965ZM10 12.5496L11.45 13.9996H10V12.5496ZM4 6.54965L5.45 7.99965H4V6.54965ZM8 19.9996H4V15.9996H8V19.9996ZM8 13.9996H4V9.99965H7.45L8 10.5496V13.9996ZM14 19.9996H10V15.9996H13.45L14 16.5496V19.9996ZM16 19.9996V18.5496L17.45 19.9996H16Z" fill="currentColor"/>
</g>
<defs>
<clipPath id="clip0_425_87423">
<rect fill="white"/>
</clipPath>
</defs>
</svg>
