<svg  viewBox="0 0 24 24" fill="none" xmlns="http://www.w3.org/2000/svg">
<path opacity="0.3" d="M9 5H5V9H9V5Z" fill="currentColor"/>
<path opacity="0.3" d="M9 15H5V19H9V15Z" fill="currentColor"/>
<path opacity="0.3" d="M19 15H15V19H19V15Z" fill="currentColor"/>
<path opacity="0.3" d="M19 5H15V9H19V5Z" fill="currentColor"/>
<path d="M3 21H11V13H3V21ZM5 15H9V19H5V15Z" fill="currentColor"/>
<path d="M3 11H11V3H3V11ZM5 5H9V9H5V5Z" fill="currentColor"/>
<path d="M13 21H21V13H13V21ZM15 15H19V19H15V15Z" fill="currentColor"/>
<path d="M13 3V11H21V3H13ZM19 9H15V5H19V9Z" fill="currentColor"/>
</svg>
