<svg  viewBox="0 0 24 24" fill="none" xmlns="http://www.w3.org/2000/svg">
<path opacity="0.3" d="M10.99 8.16C11 8.11 11 8.06 11 8C11 6.9 10.1 6 9 6C8.94 6 8.89 6 8.84 6.01L10.99 8.16ZM9 15C6.3 15 3.2 16.29 3 17.01V18H15V17.83L12.89 15.72C11.76 15.31 10.33 15 9 15Z" fill="currentColor"/>
<path d="M14.9999 7.99961C14.9999 6.57961 14.4999 5.26961 13.6699 4.23961C14.0899 4.09961 14.5299 3.99961 14.9999 3.99961C17.2099 3.99961 18.9999 5.78961 18.9999 7.99961C18.9999 10.2096 17.2099 11.9996 14.9999 11.9996C14.9399 11.9996 14.8799 11.9996 14.8199 11.9996L14.0499 11.2296C14.6499 10.2896 14.9999 9.17961 14.9999 7.99961ZM22.8299 19.9996H22.9999V16.9996C22.9999 14.8196 19.4199 13.5296 16.6599 13.1296C17.7599 13.8796 18.6099 14.8396 18.8899 16.0696L22.8299 19.9996ZM8.99994 5.99961C8.93994 5.99961 8.88994 5.99961 8.83994 6.00961L7.23994 4.40961C7.76994 4.14961 8.36994 3.99961 8.99994 3.99961C11.2099 3.99961 12.9999 5.78961 12.9999 7.99961C12.9999 8.62961 12.8499 9.22961 12.5899 9.75961L10.9899 8.15961C10.9999 8.10961 10.9999 8.05961 10.9999 7.99961C10.9999 6.89961 10.0999 5.99961 8.99994 5.99961ZM9.16994 11.9996C9.10994 11.9996 9.05994 11.9996 8.99994 11.9996C6.78994 11.9996 4.99994 10.2096 4.99994 7.99961C4.99994 7.93961 4.99994 7.88961 4.99994 7.82961L0.689941 3.50961L2.09994 2.09961L21.8999 21.8996L20.4899 23.3096L16.9999 19.8296V19.9996H0.999941V16.9996C0.999941 14.3396 6.32994 12.9996 8.99994 12.9996C9.36994 12.9996 9.79994 13.0296 10.2499 13.0796L9.16994 11.9996ZM8.99994 14.9996C6.29994 14.9996 3.19994 16.2896 2.99994 17.0096V17.9996H14.9999V17.8296L12.8899 15.7196C11.7599 15.3096 10.3299 14.9996 8.99994 14.9996Z" fill="currentColor"/>
</svg>
