<svg  viewBox="0 0 24 24" fill="none" xmlns="http://www.w3.org/2000/svg">
<g opacity="0.3">
<path opacity="0.3" d="M8.66 14.6406L4.41 18.8806L5.12 19.5906L9.36 15.3406L8.66 14.6406Z" fill="currentColor"/>
</g>
<g opacity="0.3">
<path opacity="0.3" d="M15.3026 14.6386L14.5955 15.3457L18.8381 19.5883L19.5452 18.8812L15.3026 14.6386Z" fill="currentColor"/>
</g>
<path d="M21.67 18.1691L16.37 12.8691H15.38L12.84 15.4091V16.3991L18.14 21.6991C18.53 22.0891 19.16 22.0891 19.55 21.6991L21.67 19.5791C22.06 19.1991 22.06 18.5591 21.67 18.1691ZM18.84 19.5891L14.6 15.3491L15.31 14.6391L19.55 18.8791L18.84 19.5891Z" fill="currentColor"/>
<path d="M17.34 10.19L18.75 8.78L20.87 10.9C22.04 9.73 22.04 7.83 20.87 6.66L17.33 3.12L15.92 4.53V1.71L15.22 1L11.68 4.54L12.39 5.25H15.22L13.81 6.66L14.87 7.72L11.98 10.61L7.85 6.48V5.06L4.83 2.04L2 4.87L5.03 7.9H6.44L10.57 12.03L9.72 12.88H7.6L2.3 18.18C1.91 18.57 1.91 19.2 2.3 19.59L4.42 21.71C4.81 22.1 5.44 22.1 5.83 21.71L11.13 16.41V14.29L16.28 9.14L17.34 10.19ZM9.36 15.34L5.12 19.58L4.41 18.87L8.65 14.63L9.36 15.34Z" fill="currentColor"/>
</svg>
