<svg  viewBox="0 0 24 24" fill="none" xmlns="http://www.w3.org/2000/svg">
<path d="M18 18.5004V17.5004C18 16.7004 17.3 16.0004 16.5 16.0004H13V22.0004H14.5V20.0004H15.6L16.5 22.0004H18L17.1 19.9004C17.6 19.6004 18 19.1004 18 18.5004ZM16.5 18.5004H14.5V17.5004H16.5V18.5004ZM3.5 18.0004H1.5V16.0004H0V22.0004H1.5V19.5004H3.5V22.0004H5V16.0004H3.5V18.0004ZM10 16.0004H6.5V22.0004H10C10.8 22.0004 11.5 21.3004 11.5 20.5004V17.5004C11.5 16.7004 10.8 16.0004 10 16.0004ZM10 20.5004H8V17.5004H10V20.5004ZM24 20.0004H22V22.0004H20.5V20.0004H18.5V18.5004H20.5V16.5004H22V18.5004H24V20.0004ZM10.98 4.15038L9.42 2.59038C14.52 0.170376 19.83 5.48038 17.41 10.5804L15.85 9.02038C16.66 6.06038 13.94 3.34038 10.98 4.15038ZM6.34 2.34038L4.93 3.76038L6.59 5.42038C4.17 10.5204 9.48 15.8304 14.58 13.4104L16.24 15.0704L17.65 13.6604L6.34 2.34038ZM8.15 6.98038L13.02 11.8504C10.06 12.6604 7.34 9.94038 8.15 6.98038Z" fill="currentColor"/>
</svg>
