<svg width="24" height="24" viewBox="0 0 24 24" fill="none" xmlns="http://www.w3.org/2000/svg">
<path opacity="0.3" d="M7 14H5V18H7V14Z" fill="black"/>
<path opacity="0.3" d="M16.8298 14L18.9998 16.17V14H16.8298Z" fill="black"/>
<path d="M11.9999 4C15.8699 4 18.9999 7.13 18.9999 11V12H14.9999V12.17L16.8299 14H18.9999V16.17L20.9999 18.17V11C20.9999 6.03 16.9699 2 11.9999 2C9.97987 2 8.11987 2.67 6.61987 3.8L8.04987 5.23C9.16987 4.45 10.5299 4 11.9999 4Z" fill="black"/>
<path d="M2.09994 2.09961L0.689941 3.50961L4.01994 6.83961C3.36994 8.08961 2.99994 9.49961 2.99994 10.9996V17.9996C2.99994 19.0996 3.89994 19.9996 4.99994 19.9996H8.99994V11.9996H4.99994V10.9996C4.99994 10.0596 5.18994 9.16961 5.51994 8.34961L14.9999 17.8296V19.9996H17.1699L18.1699 20.9996H11.9999V22.9996H18.9999C19.3399 22.9996 19.6499 22.9096 19.9299 22.7596L20.4799 23.3096L21.8899 21.8996L2.09994 2.09961ZM6.99994 13.9996V17.9996H4.99994V13.9996H6.99994Z" fill="black"/>
</svg>
