<svg  viewBox="0 0 24 24" fill="none" xmlns="http://www.w3.org/2000/svg">
<path opacity="0.3" d="M12 4.14062L6 6.39062V11.0906C6 15.0906 8.55 18.7906 12 19.9206C15.45 18.7906 18 15.1006 18 11.0906V6.39062L12 4.14062ZM16 13.0006H13.5V15.5006H10.5V13.0006H8V10.0006H10.5V7.50063H13.5V10.0006H16V13.0006Z" fill="currentColor"/>
<path d="M10.5 13H8V10H10.5V7.5H13.5V10H16V13H13.5V15.5H10.5V13ZM12 2L4 5V11.09C4 16.14 7.41 20.85 12 22C16.59 20.85 20 16.14 20 11.09V5L12 2ZM18 11.09C18 15.09 15.45 18.79 12 19.92C8.55 18.79 6 15.1 6 11.09V6.39L12 4.14L18 6.39V11.09Z" fill="currentColor"/>
</svg>
