<svg viewBox="0 0 24 24" fill="none" xmlns="http://www.w3.org/2000/svg">
<path opacity="0.3" d="M13.03 16.7209L16.66 20.3409L20.28 16.7109L16.66 13.0909L13.03 16.7209ZM7.29003 3.71094L3.66003 7.34094L7.29003 10.9609L10.91 7.33094L7.29003 3.71094Z" fill="currentColor"/>
<path d="M17.73 12.0205L21.71 8.04055C22.1 7.65055 22.1 7.02055 21.71 6.63055L17.37 2.29055C16.98 1.90055 16.35 1.90055 15.96 2.29055L11.98 6.27055L8.00002 2.29055C7.80002 2.10055 7.55002 2.00055 7.29002 2.00055C7.04002 2.00055 6.78002 2.10055 6.59002 2.29055L2.25002 6.63055C1.86002 7.02055 1.86002 7.65055 2.25002 8.04055L6.23002 12.0205L2.25002 16.0005C1.86002 16.3905 1.86002 17.0205 2.25002 17.4105L6.59002 21.7505C6.98002 22.1405 7.61002 22.1405 8.00002 21.7505L11.98 17.7705L15.96 21.7505C16.16 21.9505 16.41 22.0405 16.67 22.0405C16.93 22.0405 17.18 21.9405 17.38 21.7505L21.72 17.4105C22.11 17.0205 22.11 16.3905 21.72 16.0005L17.73 12.0205ZM12 9.00055C12.55 9.00055 13 9.45055 13 10.0005C13 10.5505 12.55 11.0005 12 11.0005C11.45 11.0005 11 10.5505 11 10.0005C11 9.45055 11.45 9.00055 12 9.00055ZM7.29002 10.9605L3.66002 7.34055L7.29002 3.71055L10.91 7.33055L7.29002 10.9605ZM10 13.0005C9.45002 13.0005 9.00002 12.5505 9.00002 12.0005C9.00002 11.4505 9.45002 11.0005 10 11.0005C10.55 11.0005 11 11.4505 11 12.0005C11 12.5505 10.55 13.0005 10 13.0005ZM12 15.0005C11.45 15.0005 11 14.5505 11 14.0005C11 13.4505 11.45 13.0005 12 13.0005C12.55 13.0005 13 13.4505 13 14.0005C13 14.5505 12.55 15.0005 12 15.0005ZM14 11.0005C14.55 11.0005 15 11.4505 15 12.0005C15 12.5505 14.55 13.0005 14 13.0005C13.45 13.0005 13 12.5505 13 12.0005C13 11.4505 13.45 11.0005 14 11.0005ZM16.66 20.3405L13.03 16.7205L16.66 13.0905L20.28 16.7105L16.66 20.3405Z" fill="currentColor"/>
</svg>
