<svg width="24" height="24" viewBox="0 0 24 24" fill="none" xmlns="http://www.w3.org/2000/svg">
<path d="M2.80989 2.81L1.38989 4.22L3.65989 6.49C2.60989 8.07 1.99989 9.96 1.99989 12C1.99989 17.52 6.47989 22 11.9999 22C14.0399 22 15.9299 21.39 17.5099 20.34L19.7799 22.61L21.1899 21.2L2.80989 2.81ZM11.9999 20C7.58989 20 3.99989 16.41 3.99989 12C3.99989 10.52 4.40989 9.14 5.11989 7.94L16.0599 18.88C14.8599 19.59 13.4799 20 11.9999 20ZM7.93989 5.12L6.48989 3.66C8.06989 2.61 9.95989 2 11.9999 2C17.5199 2 21.9999 6.48 21.9999 12C21.9999 14.04 21.3899 15.93 20.3399 17.51L18.8799 16.05C19.5899 14.86 19.9999 13.48 19.9999 12C19.9999 7.59 16.4099 4 11.9999 4C10.5199 4 9.13989 4.41 7.93989 5.12Z" fill="black"/>
</svg>
