<svg viewBox="0 0 24 24" fill="none" xmlns="http://www.w3.org/2000/svg">
<path opacity="0.3" d="M16.17 19.0001L14.17 17.0001H6L9 13.0001L11.25 16.0001L12.07 14.9001L5 7.83008V19.0001H16.17Z" fill="currentColor"/>
<path opacity="0.3" d="M7.82983 5L18.9998 16.17V5H7.82983Z" fill="currentColor"/>
<path d="M18.9998 5V16.17L20.9998 18.17V5C20.9998 3.9 20.0998 3 18.9998 3H5.82983L7.82983 5H18.9998Z" fill="currentColor"/>
<path d="M2.80989 2.81055L1.38989 4.22055L2.99989 5.83055V19.0005C2.99989 20.1005 3.89989 21.0005 4.99989 21.0005H18.1699L19.7799 22.6105L21.1899 21.2005L2.80989 2.81055ZM4.99989 19.0005V7.83055L12.0699 14.9005L11.2499 16.0005L8.99989 13.0005L5.99989 17.0005H14.1699L16.1699 19.0005H4.99989Z" fill="currentColor"/>
</svg>
