<svg  viewBox="0 0 24 24" fill="none" xmlns="http://www.w3.org/2000/svg">
<g opacity="0.3">
<path opacity="0.3" d="M11.34 9.76086L9.93001 8.34086C8.98001 7.40086 7.73001 6.88086 6.39001 6.88086C5.76001 6.88086 5.14001 7.00086 4.57001 7.22086L5.61001 8.26086H7.89001V10.4009C8.29001 10.6309 8.75001 10.7509 9.22001 10.7509C9.95001 10.7509 10.63 10.4709 11.14 9.95086L11.34 9.76086Z" fill="currentColor"/>
</g>
<g opacity="0.3">
<path opacity="0.3" d="M11 6.62L17 12.59V14H15.59L12.76 11.17L12.56 11.37C12.1 11.83 11.57 12.17 11 12.4V15H17V17C17 17.55 17.45 18 18 18C18.55 18 19 17.55 19 17V6H11V6.62Z" fill="currentColor"/>
</g>
<path d="M9 4V5.38C8.17 5.05 7.28 4.88 6.39 4.88C4.6 4.88 2.81 5.56 1.44 6.93L4.77 10.26H5.88V11.37C6.74 12.23 7.86 12.68 8.99 12.73V15H6V18C6 19.1 6.9 20 8 20H18C19.66 20 21 18.66 21 17V4H9ZM7.89 10.41V8.26H5.61L4.57 7.22C5.14 7 5.76 6.88 6.39 6.88C7.73 6.88 8.98 7.4 9.93 8.34L11.34 9.75L11.14 9.95C10.63 10.46 9.95 10.75 9.22 10.75C8.75 10.75 8.29 10.63 7.89 10.41ZM19 17C19 17.55 18.55 18 18 18C17.45 18 17 17.55 17 17V15H11V12.41C11.57 12.18 12.1 11.84 12.56 11.38L12.76 11.18L15.59 14H17V12.59L11 6.62V6H19V17Z" fill="currentColor"/>
</svg>
