<svg  viewBox="0 0 24 24" fill="none" xmlns="http://www.w3.org/2000/svg">
<path opacity="0.3" d="M12 7C4.09 7 4 11.8 4 12H20C19.99 11.51 19.64 7 12 7Z" fill="currentColor"/>
<path opacity="0.3" d="M9.13998 17H14.86C16.96 17 18.78 15.76 19.57 14H4.41998C5.21998 15.76 7.03998 17 9.13998 17Z" fill="currentColor"/>
<path d="M12 5C4.19 5 2 9.48 2 12C2 15.86 5.13 19 8.99 19H15.01C17.7 19 22 16.92 22 12C22 12 22 5 12 5ZM14.86 17H9.14C7.04 17 5.22 15.76 4.43 14H19.58C18.78 15.76 16.96 17 14.86 17ZM4 12C4 11.8 4.09 7 12 7C19.64 7 19.99 11.51 20 12H4Z" fill="currentColor"/>
</svg>
