<svg  viewBox="0 0 24 24" fill="none" xmlns="http://www.w3.org/2000/svg">
<path d="M17 15H19V17H17V15ZM17 11H19V13H17V11ZM17 7H19V9H17V7ZM13.74 7L15 7.84V7H13.74Z" fill="currentColor"/>
<path d="M10 3V4.51L12 5.84V5H21V19H17V21H23V3H10Z" fill="currentColor"/>
<path d="M8.17 5.69922L15 10.2492V20.9992H1V10.4792L8.17 5.69922ZM10 18.9992H13V11.1592L8.17 8.08922L3 11.3792V18.9992H6V12.9992H10V18.9992Z" fill="currentColor"/>
<path opacity="0.3" d="M10 18.9998H13V11.1598L8.17 8.08984L3 11.3798V18.9998H6V12.9998H10V18.9998Z" fill="currentColor"/>
</svg>
