<svg viewBox="0 0 24 24" fill="none" xmlns="http://www.w3.org/2000/svg">
<path opacity="0.3" d="M7 10.1895V17.9995H9V11.9995H15V17.9995H17V10.1895L12 5.68945L7 10.1895ZM14 9.99945H10C10 8.89945 10.9 7.99945 12 7.99945C13.1 7.99945 14 8.89945 14 9.99945Z" fill="currentColor"/>
<path d="M19 9.3V4H16V6.6L12 3L2 12H5V20H11V14H13V20H19V12H22L19 9.3ZM17 18H15V12H9V18H7V10.19L12 5.69L17 10.19V18Z" fill="currentColor"/>
<path d="M10 10H14C14 8.9 13.1 8 12 8C10.9 8 10 8.9 10 10Z" fill="currentColor"/>
</svg>
