<svg width="24" height="24" viewBox="0 0 24 24" fill="none" xmlns="http://www.w3.org/2000/svg">
<path opacity="0.3" d="M5 19H19V20H5V19Z" fill="black"/>
<path d="M18 13H17.32L15.32 15H17.23L19 17H5L6.78 15H8.83L6.83 13H6L3 16V20C3 21.1 3.89 22 4.99 22H19C20.1 22 21 21.11 21 20V16L18 13ZM19 20H5V19H19V20Z" fill="black"/>
<path opacity="0.3" d="M12.048 12.9051L8.505 9.36211L13.455 4.41211L16.998 7.95511L12.048 12.9051Z" fill="black"/>
<path d="M19.11 7.25029L14.16 2.30029C13.78 1.90029 13.15 1.90029 12.76 2.29029L6.39003 8.66028C6.00003 9.05028 6.00003 9.68028 6.39003 10.0703L11.34 15.0203C11.73 15.4103 12.36 15.4103 12.75 15.0203L19.11 8.66028C19.5 8.27029 19.5 7.64029 19.11 7.25029ZM12.05 12.9003L8.51003 9.36028L13.46 4.41029L17 7.95028L12.05 12.9003Z" fill="black"/>
</svg>
