<svg viewBox="0 0 24 24" fill="none" xmlns="http://www.w3.org/2000/svg">
<path opacity="0.3" d="M7.83 5H19V16.17L7.83 5ZM16.17 19L14.17 17H6L9 13L11 15.72L11.84 14.67L5 7.83V19H16.17Z" fill="currentColor"/>
<path d="M5.83 2.99961H19C20.1 2.99961 21 3.89961 21 4.99961V18.1696L19 16.1696V4.99961H7.83L5.83 2.99961ZM20.49 23.3096L18.17 20.9996H5C3.9 20.9996 3 20.0996 3 18.9996V5.82961L0.690002 3.50961L2.1 2.09961L3.59 3.58961L5 4.99961L13.11 13.1096L15.8 15.7996L19 18.9996L20.41 20.4096L21.9 21.8996L20.49 23.3096ZM16.17 18.9996L14.17 16.9996H6L9 12.9996L11 15.7196L11.84 14.6696L5 7.82961V18.9996H16.17Z" fill="currentColor"/>
</svg>
