<svg  viewBox="0 0 24 24" fill="none" xmlns="http://www.w3.org/2000/svg">
<path opacity="0.3" d="M12 13.4693L12.67 12.9393L7.65001 7.9193L6.26001 8.9993L12 13.4693ZM12 4.5293L10.83 5.4393L15.85 10.4693L17.74 8.9993L12 4.5293Z" fill="currentColor"/>
<path d="M12 4.52938L17.74 8.99938L15.85 10.4694L17.28 11.8894L21 8.99938L12 1.99937L9.41 4.01937L10.83 5.43937L12 4.52938ZM21 14.0694L19.37 12.7994L18.7 13.3194L20.13 14.7494L21 14.0694ZM3.41 0.859375L2 2.26937L6.22 6.48937L3 8.99938L12 15.9994L14.1 14.3694L15.52 15.7894L11.99 18.5394L4.62 12.8094L3 14.0694L12 21.0694L16.95 17.2194L20.73 20.9994L22.14 19.5894L3.41 0.859375ZM12 13.4694L6.26 8.99938L7.65 7.91937L12.67 12.9394L12 13.4694Z" fill="currentColor"/>
</svg>
