<svg viewBox="0 0 24 24" fill="none" xmlns="http://www.w3.org/2000/svg">
<path d="M14 2.99938H12C12 4.34938 11.69 5.62937 11.16 6.76938L12.65 8.25938C13.51 6.69938 14 4.90938 14 2.99938ZM21 11.9994V9.99938C19.09 9.99938 17.3 10.4894 15.73 11.3494L17.22 12.8394C18.37 12.3094 19.65 11.9994 21 11.9994ZM21 15.9994V13.9994C20.21 13.9994 19.46 14.1294 18.76 14.3694L20.44 16.0494C20.63 16.0394 20.81 15.9994 21 15.9994ZM10 2.99938H8C8 3.18938 7.96 3.36938 7.94 3.55938L9.62 5.23937C9.87 4.53937 10 3.77938 10 2.99938ZM4.41 2.85938L3 4.26938L5.84 7.10938C5.03 7.66937 4.06 7.99938 3 7.99938V9.99938C4.61 9.99938 6.09 9.44938 7.27 8.53938L8.7 9.96938C7.14 11.2394 5.16 11.9994 3 11.9994V13.9994C5.72 13.9994 8.2 13.0094 10.11 11.3794L12.62 13.8894C10.99 15.8094 10 18.2894 10 20.9994H12C12 18.8394 12.76 16.8594 14.03 15.2994L15.46 16.7294C14.55 17.9094 14 19.3894 14 20.9994H16C16 19.9394 16.33 18.9694 16.89 18.1594L19.73 20.9994L21.14 19.5894L4.41 2.85938Z" fill="currentColor"/>
</svg>
