<svg  viewBox="0 0 24 24" fill="none" xmlns="http://www.w3.org/2000/svg">
<path opacity="0.3" d="M19 17.1297V10.1797C16.9 10.5597 14.95 11.5297 13.36 13.0097L12 14.2797L10.64 13.0097C9.05 11.5297 7.1 10.5597 5 10.1797V17.1297C7.53 17.4697 9.94 18.4297 12 19.9597C14.07 18.4397 16.47 17.4697 19 17.1297Z" fill="currentColor"/>
<path opacity="0.3" d="M12 7C13.1046 7 14 6.10457 14 5C14 3.89543 13.1046 3 12 3C10.8954 3 10 3.89543 10 5C10 6.10457 10.8954 7 12 7Z" fill="currentColor"/>
<path d="M16 5C16 2.79 14.21 1 12 1C9.79 1 8 2.79 8 5C8 7.21 9.79 9 12 9C14.21 9 16 7.21 16 5ZM10 5C10 3.9 10.9 3 12 3C13.1 3 14 3.9 14 5C14 6.1 13.1 7 12 7C10.9 7 10 6.1 10 5ZM3 19C6.48 19 9.64 20.35 12 22.55C14.36 20.36 17.52 19 21 19V8C17.52 8 14.36 9.35 12 11.55C9.64 9.35 6.48 8 3 8V19ZM5 10.18C7.1 10.56 9.05 11.53 10.64 13.01L12 14.28L13.36 13.01C14.95 11.53 16.9 10.56 19 10.18V17.13C16.47 17.47 14.07 18.43 12 19.95C9.94 18.43 7.53 17.46 5 17.12V10.18Z" fill="currentColor"/>
</svg>
