<svg  viewBox="0 0 24 24" fill="none" xmlns="http://www.w3.org/2000/svg">
<path opacity="0.3" d="M5.10999 19H18.89L17.1 13.63L16.89 13L17.1 12.37L18.89 7H5.10999L6.89999 12.37L7.10999 13L6.89999 13.63L5.10999 19ZM7.99999 12H11V9H13V12H16V14H13V17H11V14H7.99999V12Z" fill="currentColor"/>
<path d="M3 21H21V19L19 13L21 7V5H18.36L19.5 1.86L17.15 1L15.69 5H3V7L5 13L3 19V21ZM6.9 12.37L5.11 7H18.89L17.1 12.37L16.89 13L17.1 13.63L18.89 19H5.11L6.9 13.63L7.11 13L6.9 12.37ZM11 17H13V14H16V12H13V9H11V12H8V14H11V17Z" fill="currentColor"/>
</svg>
