<svg  viewBox="0 0 24 24" fill="none" xmlns="http://www.w3.org/2000/svg">
<path opacity="0.3" d="M12 3.18945L5 6.29945V10.9995C5 15.5195 7.98 19.6895 12 20.9295C16.02 19.6995 19 15.5195 19 10.9995V6.29945L12 3.18945ZM14.5 12.5895L15.4 16.4695L12 14.4195L8.6 16.4695L9.5 12.5995L6.5 10.0095L10.46 9.66945L12 6.01945L13.54 9.65945L17.5 9.99945L14.5 12.5895Z" fill="currentColor"/>
<path d="M14.5 12.59L15.4 16.47L12 14.42L8.6 16.47L9.5 12.6L6.5 10.01L10.46 9.67L12 6.02L13.54 9.66L17.5 10L14.5 12.59ZM12 3.19L19 6.3V11C19 15.52 16.02 19.69 12 20.93C7.98 19.69 5 15.52 5 11V6.3L12 3.19ZM12 1L3 5V11C3 16.55 6.84 21.74 12 23C17.16 21.74 21 16.55 21 11V5L12 1Z" fill="currentColor"/>
</svg>
