<svg  viewBox="0 0 24 24" fill="none" xmlns="http://www.w3.org/2000/svg">
<path opacity="0.3" d="M5.12 14L5 14.34V19H19V14.34L18.88 14H5.12ZM7.5 18C6.67 18 6 17.33 6 16.5C6 15.67 6.67 15 7.5 15C8.33 15 9 15.67 9 16.5C9 17.33 8.33 18 7.5 18ZM16.5 18C15.67 18 15 17.33 15 16.5C15 15.67 15.67 15 16.5 15C17.33 15 18 15.67 18 16.5C18 17.33 17.33 18 16.5 18Z" fill="currentColor"/>
<path d="M15.5 3.50078C15.5 4.33078 16.17 5.00078 17 5.00078C17.83 5.00078 18.5 4.33078 18.5 3.50078C18.5 2.50078 17 0.800781 17 0.800781C17 0.800781 15.5 2.50078 15.5 3.50078ZM13.5 3.50078C13.5 2.50078 12 0.800781 12 0.800781C12 0.800781 10.5 2.50078 10.5 3.50078C10.5 4.33078 11.17 5.00078 12 5.00078C12.83 5.00078 13.5 4.33078 13.5 3.50078ZM8.5 3.50078C8.5 2.50078 7 0.800781 7 0.800781C7 0.800781 5.5 2.50078 5.5 3.50078C5.5 4.33078 6.17 5.00078 7 5.00078C7.83 5.00078 8.5 4.33078 8.5 3.50078ZM21 14.0008L18.92 8.01078C18.72 7.42078 18.16 7.00078 17.5 7.00078H6.5C5.84 7.00078 5.29 7.42078 5.08 8.01078L3 14.0008V22.0008C3 22.5508 3.45 23.0008 4 23.0008H5C5.55 23.0008 6 22.5508 6 22.0008V21.0008H18V22.0008C18 22.5508 18.45 23.0008 19 23.0008H20C20.55 23.0008 21 22.5508 21 22.0008V14.0008ZM6.85 9.00078H17.14L18.18 12.0008H5.81L6.85 9.00078ZM19 19.0008H5V14.3408L5.12 14.0008H18.89L19 14.3408V19.0008Z" fill="currentColor"/>
<path d="M7.5 18C8.32843 18 9 17.3284 9 16.5C9 15.6716 8.32843 15 7.5 15C6.67157 15 6 15.6716 6 16.5C6 17.3284 6.67157 18 7.5 18Z" fill="currentColor"/>
<path d="M16.5 18C17.3284 18 18 17.3284 18 16.5C18 15.6716 17.3284 15 16.5 15C15.6716 15 15 15.6716 15 16.5C15 17.3284 15.6716 18 16.5 18Z" fill="currentColor"/>
</svg>
