<svg width="24" height="22" viewBox="0 0 24 22" fill="none" xmlns="http://www.w3.org/2000/svg">
<path d="M20 16.334H4V17.2229H20V16.334Z" fill="currentColor" fill-opacity="0.3"/>
<path d="M12.0001 4.77734C8.61005 4.77734 5.01005 5.49734 4.18005 7.44401H19.8401C19.7101 7.11512 19.4901 6.82179 19.1801 6.54623C17.9301 5.42623 15.3101 4.77734 12.0001 4.77734Z" fill="currentColor" fill-opacity="0.3"/>
<path d="M2 17.2214C2 18.1991 2.9 18.9991 4 18.9991H20C21.1 18.9991 22 18.1991 22 17.2214V14.5547H2V17.2214ZM4 16.3325H20V17.2214H4V16.3325Z" fill="currentColor"/>
<path d="M18.66 10.5547C16.71 10.5547 16.57 11.4436 15.33 11.4436C14.14 11.4436 13.91 10.5547 12 10.5547C10.05 10.5547 9.91001 11.4436 8.67001 11.4436C7.48001 11.4436 7.25001 10.5547 5.34001 10.5547C3.39001 10.5547 3.25001 11.4436 2.01001 11.4436V13.2214C3.91001 13.2214 4.18001 12.3325 5.36001 12.3325C6.55001 12.3325 6.78001 13.2214 8.69001 13.2214C10.64 13.2214 10.78 12.3325 12.02 12.3325C13.21 12.3325 13.44 13.2214 15.35 13.2214C17.3 13.2214 17.44 12.3325 18.68 12.3325C19.87 12.3325 20.08 13.2036 22 13.2214L21.99 11.4614C20.38 11.168 20.37 10.5547 18.66 10.5547Z" fill="currentColor"/>
<path d="M22 8.33333C22.02 4.77778 17.72 3 12 3C6.29 3 2 4.77778 2 8.33333V9.22222H22V8.33333ZM4.18 7.44444C5.01 5.49778 8.61 4.77778 12 4.77778C15.31 4.77778 17.93 5.42667 19.19 6.54667C19.49 6.82222 19.71 7.11556 19.84 7.44444H4.18Z" fill="currentColor"/>
</svg>
