<svg width="24" height="24" viewBox="0 0 24 24" fill="none" xmlns="http://www.w3.org/2000/svg">
<path d="M9.00001 6.16957V2.99957H15V6.99957H11V8.16957L9.00001 6.16957ZM19.42 14.9996L22 17.5696L21.2 18.3696L14.42 11.5896L15.22 10.7896L17.97 13.5396V8.99957H18.57L22 12.4296L19.42 14.9996ZM19.17 13.5496L20.3 12.4196L19.17 11.2896V13.5496ZM17.21 17.2096L21.19 21.1896L19.78 22.5996L15.8 18.6196L15.22 19.1996L14.37 18.3496L14.95 17.7696L11 13.8296V16.9996C11 19.2096 9.22002 20.9996 7.01002 20.9996C4.80001 20.9996 3.00001 19.2096 3.00001 16.9996C3.00001 14.7896 4.79001 12.9996 7.01002 12.9996C7.74002 12.9996 8.42001 13.2096 9.01002 13.5496V11.8296L1.39001 4.21957L2.80001 2.80957L16.36 16.3696L17.21 17.2096Z" fill="black"/>
</svg>
