<svg viewBox="0 0 24 24" fill="none" xmlns="http://www.w3.org/2000/svg">
<path opacity="0.3" d="M6.20996 10L6.80996 16H7.18996L7.72996 10.56L7.16996 10H6.20996Z" fill="currentColor"/>
<path d="M9.99996 5C9.99996 3.34 8.65996 2 6.99996 2C6.37996 2 5.80996 2.19 5.32996 2.5L9.47996 6.65C9.79996 6.18 9.99996 5.61 9.99996 5Z" fill="currentColor"/>
<path d="M14 6C14 4.9 14.9 4 16 4C17.1 4 18 4.9 18 6V15.17L20 17.17V6C20 3.79 18.21 2 16 2C13.79 2 12 3.79 12 6V9.17L14 11.17V6Z" fill="currentColor"/>
<path d="M2.09994 2.09961L0.689941 3.50961L5.16994 7.99961H3.99994L4.99994 17.9996H5.99994C5.99994 20.2096 7.78994 21.9996 9.99994 21.9996C12.2099 21.9996 13.9999 20.2096 13.9999 17.9996V16.8296L20.4899 23.3196L21.8999 21.9096L2.09994 2.09961ZM7.18994 15.9996H6.80994L6.20994 9.99961H7.16994L7.72994 10.5596L7.18994 15.9996ZM11.9999 17.9996C11.9999 19.0996 11.0999 19.9996 9.99994 19.9996C8.89994 19.9996 7.99994 19.0996 7.99994 17.9996H8.99994L9.55994 12.3896L11.9999 14.8296V17.9996Z" fill="currentColor"/>
</svg>
