<svg  viewBox="0 0 24 24" fill="none" xmlns="http://www.w3.org/2000/svg">
<path opacity="0.3" d="M15.11 12.4502L14 10.2402L10.89 16.4502C10.72 16.7902 10.38 17.0002 10 17.0002C9.62 17.0002 9.28 16.7902 9.11 16.4502L7.38 13.0002H2V15.0002H4V18.0002H20V15.0002H22V13.0002H16C15.62 13.0002 15.28 12.7902 15.11 12.4502Z" fill="currentColor"/>
<path opacity="0.3" d="M20 6H4V9H2V11H8C8.38 11 8.72 11.21 8.89 11.55L10 13.76L13.11 7.55C13.45 6.87 14.56 6.87 14.9 7.55L16.62 11H22V9H20V6Z" fill="currentColor"/>
<path d="M20 4H4C2.9 4 2 4.9 2 6V9H4V6H20V9H22V6C22 4.9 21.1 4 20 4Z" fill="currentColor"/>
<path d="M20 18H4V15H2V18C2 19.1 2.9 20 4 20H20C21.1 20 22 19.1 22 18V15H20V18Z" fill="currentColor"/>
<path d="M14.89 7.55004C14.55 6.87004 13.44 6.87004 13.1 7.55004L10 13.76L8.89 11.55C8.72 11.21 8.38 11 8 11H2V13H7.38L9.1 16.45C9.28 16.79 9.62 17 10 17C10.38 17 10.72 16.79 10.89 16.45L14 10.24L15.11 12.45C15.28 12.79 15.62 13 16 13H22V11H16.62L14.89 7.55004Z" fill="currentColor"/>
</svg>
