<svg viewBox="0 0 24 24" fill="none" xmlns="http://www.w3.org/2000/svg">
<path d="M2.81 2.81055L1.39 4.22055L3.66 6.49055C2.61 8.07055 2 9.96055 2 12.0005C2 17.5205 6.48 22.0005 12 22.0005C14.04 22.0005 15.93 21.3905 17.51 20.3405L19.78 22.6105L21.19 21.1905L2.81 2.81055ZM12 20.0005C7.59 20.0005 4 16.4105 4 12.0005C4 10.5205 4.41 9.14055 5.12 7.94055L16.05 18.8805C14.86 19.5905 13.48 20.0005 12 20.0005Z" fill="currentColor"/>
<path d="M12 4C16.41 4 20 7.59 20 12C20 13.48 19.59 14.86 18.88 16.05L20.33 17.5C21.39 15.93 22 14.04 22 12C22 6.48 17.52 2 12 2C9.96001 2 8.07001 2.61 6.49001 3.66L7.94001 5.11C9.14001 4.41 10.52 4 12 4Z" fill="currentColor"/>
</svg>
