<svg  viewBox="0 0 24 24" fill="none" xmlns="http://www.w3.org/2000/svg">
<path opacity="0.3" d="M13 3.16016V9.00016H18C17.96 6.06016 15.81 3.63016 13 3.16016ZM11 3.16016C8.19 3.63016 6.04 6.06016 6 9.00016H11V3.16016ZM11 11.0002H6V15.0002C6 18.3102 8.69 21.0002 12 21.0002C15.31 21.0002 18 18.3102 18 15.0002V11.0002H11Z" fill="currentColor"/>
<path d="M20 9.00031C19.96 4.61031 16.4 1.07031 12 1.07031C7.6 1.07031 4.04 4.61031 4 9.00031V15.0003C4 19.4203 7.58 23.0003 12 23.0003C16.42 23.0003 20 19.4203 20 15.0003V9.00031ZM13 3.16031C15.81 3.63031 17.96 6.06031 18 9.00031H13V3.16031ZM11 3.16031V9.00031H6C6.04 6.06031 8.19 3.63031 11 3.16031ZM18 15.0003C18 18.3103 15.31 21.0003 12 21.0003C8.69 21.0003 6 18.3103 6 15.0003V11.0003H18V15.0003Z" fill="currentColor"/>
</svg>
