<svg viewBox="0 0 24 24" fill="none" xmlns="http://www.w3.org/2000/svg">
<path opacity="0.3" d="M10 19C11.1046 19 12 18.1046 12 17C12 15.8954 11.1046 15 10 15C8.89543 15 8 15.8954 8 17C8 18.1046 8.89543 19 10 19Z" fill="currentColor"/>
<path d="M14 6.99938H18V2.99938H12V7.60938L14 9.60938V6.99938ZM12 10.4394L4.41 2.85938L3 4.26938L12 13.2694V13.5494C11.06 13.0094 9.9 12.7994 8.67 13.2294C7.33 13.7094 6.3 14.8994 6.06 16.2994C5.6 19.0394 7.92 21.3794 10.65 20.9494C12.61 20.6394 14 18.8394 14 16.8494V15.2694L19.73 20.9994L21.14 19.5894L12 10.4394ZM10 18.9994C8.9 18.9994 8 18.0994 8 16.9994C8 15.8994 8.9 14.9994 10 14.9994C11.1 14.9994 12 15.8994 12 16.9994C12 18.0994 11.1 18.9994 10 18.9994Z" fill="currentColor"/>
</svg>
