<svg  viewBox="0 0 24 24" fill="none" xmlns="http://www.w3.org/2000/svg">
<path opacity="0.3" d="M16.1 10.4406L17.6 6.39062L13.55 7.89062L16.1 10.4406ZM14.57 14.5706L9.42997 9.43063L6.71997 10.4406L11.61 12.3906L13.56 17.2806L14.57 14.5706Z" fill="currentColor"/>
<path d="M12.0001 6.34039L21.0001 3.00039L17.6601 12.0004L16.1001 10.4404L17.6001 6.39039L13.5501 7.89039L12.0001 6.34039ZM21.1901 21.1904L16.1201 16.1204L14.3101 21.0004H12.9001L10.0701 13.9304L3.00006 11.1004V9.69039L7.88006 7.88039L2.81006 2.81039L4.22006 1.40039L22.6001 19.7804L21.1901 21.1904ZM14.5701 14.5704L9.43006 9.43039L6.72006 10.4404L11.6101 12.3904L13.5601 17.2804L14.5701 14.5704Z" fill="currentColor"/>
</svg>
