<svg viewBox="0 0 24 24" fill="none" xmlns="http://www.w3.org/2000/svg">
<path d="M15.9 4.99919C15.73 4.99919 15.58 5.08919 15.49 5.22919L15.42 5.37919L10.24 17.0292C10.08 17.3192 9.98 17.6392 9.98 17.9892C9.98 19.0992 10.88 19.9992 11.99 19.9992C12.95 19.9992 13.76 19.3192 13.95 18.4092L13.96 18.3792L16.4 5.49919C16.4 5.21919 16.18 4.99919 15.9 4.99919ZM1 8.99919L3 10.9992C5.88 8.11919 9.79 6.91919 13.53 7.37919L14.72 4.69919C9.89 3.83919 4.74 5.26919 1 8.99919ZM21 10.9992L23 8.99919C21.36 7.35919 19.45 6.17919 17.41 5.42919L16.88 8.24919C18.38 8.86919 19.78 9.77919 21 10.9992ZM17 14.9992L19 12.9992C18.2 12.1992 17.3 11.5792 16.34 11.1092L15.79 14.0292C16.21 14.2992 16.62 14.6192 17 14.9992ZM5 12.9992L7 14.9992C8.13 13.8692 9.56 13.2092 11.03 12.9992L12.31 10.1192C9.68 10.0392 7.01 10.9892 5 12.9992Z" fill="currentColor"/>
</svg>
