<svg viewBox="0 0 24 24" fill="none" xmlns="http://www.w3.org/2000/svg">
<path opacity="0.3" d="M10.94 8.12L8.9 6.07L9.88 5H14.12L15.95 7H20V17.17L16.88 14.05C16.96 13.71 17 13.36 17 13C17 10.24 14.76 8 12 8C11.64 8 11.29 8.04 10.94 8.12ZM12 18C9.24 18 7 15.76 7 13C7 12.09 7.25 11.24 7.68 10.51L4.17 7H4V19H16.17L14.49 17.32C13.76 17.75 12.91 18 12 18Z" fill="currentColor"/>
<path d="M8.89999 6.06961L7.47999 4.65961L8.99999 2.99961H15L16.83 4.99961H20C21.1 4.99961 22 5.89961 22 6.99961V18.9996C22 19.0496 21.99 19.0996 21.98 19.1596L20 17.1696V6.99961H15.95L14.12 4.99961H9.87999L8.89999 6.06961ZM20.49 23.3096L18.17 20.9996H3.99999C2.89999 20.9996 1.99999 20.0996 1.99999 18.9996V6.99961C1.99999 6.40961 2.26999 5.87961 2.67999 5.50961L0.679993 3.50961L2.09999 2.09961L6.99999 6.99961L9.00999 9.00961L10.44 10.4396L14.54 14.5396L15.97 15.9696L19 18.9996L20.82 20.8196L21.9 21.8996L20.49 23.3096ZM9.18999 12.0196C9.07999 12.3296 8.99999 12.6496 8.99999 12.9996C8.99999 14.6496 10.35 15.9996 12 15.9996C12.35 15.9996 12.67 15.9196 12.98 15.8096L9.18999 12.0196ZM16.17 18.9996L14.49 17.3196C13.76 17.7496 12.91 17.9996 12 17.9996C9.23999 17.9996 6.99999 15.7596 6.99999 12.9996C6.99999 12.0896 7.24999 11.2396 7.67999 10.5096L4.16999 6.99961H3.99999V18.9996H16.17ZM14.81 11.9796L16.89 14.0596C16.96 13.7096 17 13.3596 17 12.9996C17 10.2396 14.76 7.99961 12 7.99961C11.64 7.99961 11.29 8.03961 10.94 8.11961L13.02 10.1996C13.85 10.4996 14.5 11.1496 14.81 11.9796Z" fill="currentColor"/>
</svg>
