<svg width="24" height="24" viewBox="0 0 24 24" fill="none" xmlns="http://www.w3.org/2000/svg">
<path opacity="0.3" d="M7 19H16.23L7 9.77002V19Z" fill="black"/>
<path d="M3.78988 3.74023L2.37988 5.15023L5.11988 7.89023L4.99988 8.01023V19.0002C4.99988 20.1002 5.89988 21.0002 6.99988 21.0002H16.9999C17.3499 21.0002 17.6799 20.9002 17.9699 20.7402L19.8499 22.6202L21.2599 21.2102L3.78988 3.74023ZM6.99988 19.0002V9.77024L16.2299 19.0002H6.99988Z" fill="black"/>
<path opacity="0.3" d="M10.8401 5L9.36011 6.47L17.0001 14.11V5H10.8401Z" fill="black"/>
<path d="M10.84 5H17V14.11L19 16.11V5C19 3.9 18.1 3 17 3H10.01L7.94995 5.06L9.35995 6.47L10.84 5Z" fill="black"/>
</svg>
