<svg viewBox="0 0 24 24" fill="none" xmlns="http://www.w3.org/2000/svg">
<path opacity="0.3" d="M8.10001 5.27C8.71001 5.1 9.35001 5 10 5C10.29 5 10.58 5.02 10.86 5.05L9.49001 6.67L8.10001 5.27ZM15 12.17V8.66L13.39 10.55L15 12.17ZM12.17 15L10.78 13.61L9.60001 15H12.17Z" fill="currentColor"/>
<path d="M8.00001 20.0005C8.00001 21.1005 7.10001 22.0005 6.00001 22.0005C4.90001 22.0005 4.00001 21.1005 4.00001 20.0005C4.00001 18.9005 4.90001 18.0005 6.00001 18.0005C7.10001 18.0005 8.00001 18.9005 8.00001 20.0005ZM15 8.66055V12.1705L17 14.1705V6.27055C17.58 5.59055 17.97 5.00055 18.65 5.00055C19.42 5.00055 20 5.66055 20 6.48055V7.00055H22V6.48055C22 4.56055 20.52 3.00055 18.65 3.00055C16.99 3.00055 16.11 4.27055 15.47 5.03055L11.97 9.14055L13.39 10.5605L15 8.66055ZM19.78 22.6105L17.87 20.7005C17.58 21.4605 16.86 22.0005 16 22.0005C14.9 22.0005 14 21.1005 14 20.0005C14 19.1405 14.54 18.4205 15.3 18.1305L14.17 17.0005H7.43001C6.58001 17.0005 6.12001 16.0005 6.67001 15.3505L9.36001 12.1905L1.39001 4.22055L2.80001 2.81055L10.66 10.6705L12.08 12.0905L21.19 21.2005L19.78 22.6105ZM12.17 15.0005L10.78 13.6105L9.60001 15.0005H12.17ZM10 5.00055C10.29 5.00055 10.58 5.02055 10.86 5.05055L9.49001 6.67055L10.91 8.09055L14.3 4.10055C13.03 3.40055 11.56 3.00055 10 3.00055C8.77001 3.00055 7.60002 3.25055 6.53001 3.70055L8.10002 5.27055C8.71002 5.10055 9.35001 5.00055 10 5.00055Z" fill="currentColor"/>
</svg>
