<svg width="24" height="24" viewBox="0 0 24 24" fill="none" xmlns="http://www.w3.org/2000/svg">
<path d="M16.79 5.80006L14 3.00006H21V10.0001L18.21 7.20006L14.12 11.2901L12.71 9.88006L16.79 5.80006ZM19 12.0001V16.1701L21 18.1701V12.0001H19ZM19.78 22.6101L18.17 21.0001H5.00001C3.89001 21.0001 3.00001 20.1001 3.00001 19.0001V5.83006L1.39001 4.22006L2.80001 2.81006L21.18 21.1901L19.78 22.6101ZM16.17 19.0001L11.29 14.1201L9.70001 15.7101L8.29001 14.3001L9.88001 12.7101L5.00001 7.83006V19.0001H16.17ZM7.83001 5.00006H12V3.00006H5.83001L7.83001 5.00006Z" fill="black"/>
</svg>
