<svg  viewBox="0 0 24 24" fill="none" xmlns="http://www.w3.org/2000/svg">
<path opacity="0.3" d="M11.9999 10.1004C13.1597 10.1004 14.0999 9.16019 14.0999 8.00039C14.0999 6.84059 13.1597 5.90039 11.9999 5.90039C10.8401 5.90039 9.8999 6.84059 9.8999 8.00039C9.8999 9.16019 10.8401 10.1004 11.9999 10.1004Z" fill="currentColor"/>
<path opacity="0.3" d="M11.9999 14.9004C9.0299 14.9004 5.8999 16.3604 5.8999 17.0004V18.1004H18.0999V17.0004C18.0999 16.3604 14.9699 14.9004 11.9999 14.9004Z" fill="currentColor"/>
<path d="M12 13C9.33 13 4 14.34 4 17V20H20V17C20 14.34 14.67 13 12 13ZM18.1 18.1H5.9V17C5.9 16.36 9.03 14.9 12 14.9C14.97 14.9 18.1 16.36 18.1 17V18.1ZM12 12C14.21 12 16 10.21 16 8C16 5.79 14.21 4 12 4C9.79 4 8 5.79 8 8C8 10.21 9.79 12 12 12ZM12 5.9C13.16 5.9 14.1 6.84 14.1 8C14.1 9.16 13.16 10.1 12 10.1C10.84 10.1 9.9 9.16 9.9 8C9.9 6.84 10.84 5.9 12 5.9Z" fill="currentColor"/>
</svg>
