<svg  viewBox="0 0 24 24" fill="none" xmlns="http://www.w3.org/2000/svg">
<path opacity="0.3" d="M15.17 18L12.17 15C12.11 15 12.06 15 12 15C9.63 15 7.71 15.73 6.52 16.34C6.2 16.5 6 16.84 6 17.22V18H15.17ZM10.13 7.3C10.41 6.54 11.14 6 12 6C13.1 6 14 6.9 14 8C14 8.86 13.46 9.59 12.7 9.87" fill="currentColor"/>
<path d="M20 17.1705L16.63 13.7905C17.27 14.0105 17.86 14.2705 18.4 14.5505C19.37 15.0605 19.98 16.0705 20 17.1705ZM21.19 21.1905L19.78 22.6005L17.17 20.0005H4.00001V17.2205C4.00001 16.1005 4.61001 15.0705 5.61001 14.5605C6.90001 13.9005 8.48001 13.3405 10.28 13.1105L1.39001 4.22055L2.80001 2.81055L21.19 21.1905ZM15.17 18.0005L12.17 15.0005C12.11 15.0005 12.06 15.0005 12 15.0005C9.63001 15.0005 7.71001 15.7305 6.52001 16.3405C6.20001 16.5005 6.00001 16.8405 6.00001 17.2205V18.0005H15.17ZM12 6.00055C13.1 6.00055 14 6.90055 14 8.00055C14 8.86055 13.46 9.59055 12.7 9.87055L14.18 11.3505C15.28 10.6405 16 9.40055 16 8.00055C16 5.79055 14.21 4.00055 12 4.00055C10.6 4.00055 9.36001 4.72055 8.65001 5.82055L10.13 7.30055C10.41 6.54055 11.14 6.00055 12 6.00055Z" fill="currentColor"/>
</svg>
