<svg viewBox="0 0 24 24" fill="none" xmlns="http://www.w3.org/2000/svg">
<path d="M20 5V4C20 2.9 19.1 2 18 2C16.9 2 16 2.9 16 4V5H15V10H21V5H20ZM19 5H17V4C17 3.45 17.45 3 18 3C18.55 3 19 3.45 19 4V5Z" fill="currentColor"/>
<path opacity="0.3" d="M15 17.8292C16.29 18.3692 17.63 18.7192 19 18.8992V16.6692L16.65 16.1992L15 17.8292Z" fill="currentColor"/>
<path opacity="0.3" d="M7.33004 5H5.10004C5.28004 6.37 5.63004 7.7 6.17004 9L7.80004 7.35L7.33004 5Z" fill="currentColor"/>
<path d="M20.2 14.87L16.53 14.14C16.03 14.04 15.7 14.34 15.63 14.41L13.11 16.91C10.61 15.48 8.54002 13.41 7.11002 10.91L9.61002 8.39C9.84002 8.15 9.94002 7.82 9.88002 7.49L9.13002 3.8C9.04002 3.34 8.63002 3 8.15002 3H4.00002C3.44002 3 2.97002 3.47 3.00002 4.03C3.17002 6.92 4.05002 9.63 5.43002 12C7.01002 14.73 9.28002 16.99 12 18.57C14.37 19.94 17.08 20.83 19.97 21C20.52 21.03 21 20.57 21 20V15.85C21 15.37 20.66 14.96 20.2 14.87ZM5.10002 5H7.33002L7.80002 7.35L6.17002 9C5.63002 7.7 5.27002 6.37 5.10002 5ZM19 18.9C17.63 18.72 16.3 18.37 15 17.83L16.65 16.2L19 16.67V18.9Z" fill="currentColor"/>
</svg>
