<svg viewBox="0 0 24 24" fill="none" xmlns="http://www.w3.org/2000/svg">
<g clip-path="url(#clip0_425_89727)">
<path opacity="0.3" d="M18.6 17.2195C19.26 17.5895 19.8799 18.0095 20.4799 18.4895L21.5499 17.4195C20.6399 16.6695 19.65 16.0295 18.6 15.5195V17.2195ZM3.52995 18.4995C4.10995 18.0295 4.73995 17.6095 5.39995 17.2295V15.5195C4.34995 16.0295 3.36995 16.6695 2.44995 17.4195L3.52995 18.4995Z" fill="currentColor"/>
<path d="M23.71 16.6709C20.66 13.7809 16.54 12.0009 12 12.0009C7.46 12.0009 3.34 13.7809 0.29 16.6709C0.11 16.8509 0 17.1009 0 17.3809C0 17.6609 0.11 17.9109 0.29 18.0909L2.77 20.5709C2.95 20.7509 3.2 20.8609 3.48 20.8609C3.75 20.8609 4 20.7509 4.18 20.5809C4.97 19.8409 5.87 19.2209 6.84 18.7309C7.17 18.5709 7.4 18.2309 7.4 17.8309V14.7309C8.85 14.2509 10.4 14.0009 12 14.0009C13.6 14.0009 15.15 14.2509 16.6 14.7209V17.8209C16.6 18.2109 16.83 18.5609 17.16 18.7209C18.14 19.2109 19.03 19.8409 19.83 20.5709C20.01 20.7509 20.26 20.8509 20.53 20.8509C20.81 20.8509 21.06 20.7409 21.24 20.5609L23.72 18.0809C23.9 17.9009 24.01 17.6509 24.01 17.3709C24.01 17.0909 23.89 16.8509 23.71 16.6709ZM5.4 17.2309C4.74 17.6009 4.11 18.0309 3.53 18.5009L2.46 17.4309C3.37 16.6809 4.36 16.0409 5.41 15.5309V17.2309H5.4ZM20.48 18.4909C19.88 18.0109 19.26 17.5909 18.6 17.2209V15.5209C19.65 16.0309 20.63 16.6709 21.55 17.4209L20.48 18.4909ZM7 6.43086L11.94 11.3709L19.01 4.30086L17.6 2.88086L11.94 8.54086L8.4 5.00086H11V3.00086H5V9.00086H7V6.43086Z" fill="currentColor"/>
</g>
<defs>
<clipPath id="clip0_425_89727">
<rect fill="white"/>
</clipPath>
</defs>
</svg>
