<svg  viewBox="0 0 24 24" fill="none" xmlns="http://www.w3.org/2000/svg">
<path opacity="0.3" d="M8.25 19H5V7.83L7 9.83V13.5C7 14.05 7.45 14.5 8 14.5H8.25V19ZM9.75 19V14.5H10C10.46 14.5 10.82 14.19 10.94 13.77L14.25 17.08V19H9.75ZM13 10.17V5H11V8.17L13 10.17ZM19 16.17V5H17V13.5C17 13.69 16.93 13.86 16.84 14.01L19 16.17Z" fill="currentColor"/>
<path d="M21.19 21.1905L2.81001 2.81055L1.39001 4.22055L3.00001 5.83055V19.0005C3.00001 20.1005 3.90001 21.0005 5.00001 21.0005H18.17L19.78 22.6105L21.19 21.1905ZM8.25001 19.0005H5.00001V7.83055L7.00001 9.83055V13.5005C7.00001 14.0505 7.45001 14.5005 8.00001 14.5005H8.25001V19.0005ZM9.75001 19.0005V14.5005H10C10.46 14.5005 10.82 14.1905 10.94 13.7705L14.25 17.0805V19.0005H9.75001ZM11 8.17055L5.83001 3.00055H19C20.1 3.00055 21 3.90055 21 5.00055V18.1705L19 16.1705V5.00055H17V13.5005C17 13.6905 16.93 13.8605 16.84 14.0105L13 10.1705V5.00055H11V8.17055Z" fill="currentColor"/>
</svg>
