<svg  viewBox="0 0 24 24" fill="none" xmlns="http://www.w3.org/2000/svg">
<path d="M15.4499 16.5189L12.4399 13.5089C12.3299 13.3989 12.1999 13.3789 12.1299 13.3789C12.0599 13.3789 11.9299 13.3989 11.8199 13.5089L8.79991 16.5289C8.45991 16.8689 7.92991 17.4189 6.15991 17.4189L9.86991 21.1189C11.0399 22.2889 12.9399 22.2889 14.1099 21.1189L17.8299 17.4089C16.9199 17.4089 16.1599 17.2289 15.4499 16.5189Z" fill="currentColor"/>
<path d="M8.79994 7.46945L11.8199 10.4895C11.8999 10.5695 12.0199 10.6195 12.1299 10.6195C12.2399 10.6195 12.3599 10.5695 12.4399 10.4895L15.4299 7.49945C16.1399 6.75945 16.9499 6.58945 17.8599 6.58945L14.1399 2.87945C12.9699 1.70945 11.0699 1.70945 9.89994 2.87945L6.18994 6.57945C7.94994 6.57945 8.48994 7.15945 8.79994 7.46945Z" fill="currentColor"/>
<path d="M21.1099 9.85031L18.8599 7.59031H17.5999C17.0599 7.59031 16.5199 7.81031 16.1499 8.20031L13.1499 11.2003C12.8699 11.4803 12.4999 11.6203 12.1299 11.6203C11.7699 11.6203 11.3899 11.4703 11.1099 11.2003L8.08994 8.17031C7.70994 7.79031 7.18994 7.57031 6.63994 7.57031H5.16994L2.87994 9.87031C1.70994 11.0403 1.70994 12.9403 2.87994 14.1103L5.16994 16.4103H6.64994C7.18994 16.4103 7.70994 16.1903 8.09994 15.8103L11.1199 12.7903C11.3999 12.5103 11.7699 12.3703 12.1399 12.3703C12.5099 12.3703 12.8799 12.5103 13.1599 12.7903L16.1699 15.8003C16.5499 16.1803 17.0699 16.4003 17.6199 16.4003H18.8799L21.1299 14.1403C22.2999 12.9603 22.2999 11.0403 21.1099 9.85031Z" fill="currentColor"/>
</svg>
