<svg width="24" height="24" viewBox="0 0 24 24" fill="none" xmlns="http://www.w3.org/2000/svg">
<path opacity="0.3" d="M5 6.30043V11.0004C5 15.5204 7.98 19.6904 12 20.9304C13.74 20.4004 15.28 19.3104 16.47 17.8904L14.75 16.1704C12.81 17.4604 10.17 17.2404 8.46 15.5304C6.51 13.5804 6.51 10.4104 8.46 8.46043C10.41 6.51043 13.58 6.51043 15.53 8.46043C17.24 10.1704 17.45 12.8104 16.17 14.7504L17.62 16.2004C18.49 14.6504 19 12.8504 19 11.0004V6.30043L12 3.19043L5 6.30043Z" fill="black"/>
<path d="M12 1L3 5V11C3 16.55 6.84 21.74 12 23C12.65 22.84 13.27 22.62 13.87 22.35C15.67 21.53 17.23 20.22 18.44 18.61C20.04 16.46 21 13.77 21 11V5L12 1ZM19 11C19 12.85 18.49 14.65 17.62 16.21L16.17 14.76C17.46 12.82 17.24 10.18 15.53 8.47C13.58 6.52 10.41 6.52 8.46 8.47C6.51 10.42 6.51 13.59 8.46 15.54C10.17 17.25 12.81 17.46 14.75 16.18L16.47 17.9C15.28 19.32 13.74 20.41 12 20.94C7.98 19.69 5 15.52 5 11V6.3L12 3.19L19 6.3V11ZM15 12C15 13.66 13.66 15 12 15C10.34 15 9 13.66 9 12C9 10.34 10.34 9 12 9C13.66 9 15 10.34 15 12Z" fill="black"/>
</svg>
