<svg width="24" height="24" viewBox="0 0 24 24" fill="none" xmlns="http://www.w3.org/2000/svg">
<path opacity="0.3" d="M7 10H5C4.45 10 4 10.45 4 11V15H6V13H10L7 10Z" fill="black"/>
<path d="M1.41 1.6001L0 3.0101L5 8.0001C3.34 8.0001 2 9.3401 2 11.0001V17.0001H6V21.0001H18L20.95 23.9601L22.36 22.5501L1.41 1.6001ZM6 15.0001H4V11.0001C4 10.4501 4.45 10.0001 5 10.0001H7L10 13.0001H6V15.0001ZM8 19.0001V15.0001H12L16 19.0001H8Z" fill="black"/>
<path opacity="0.3" d="M18 15.01L20 15V11C20 10.45 19.55 10 19 10H12.66L15.66 13H18V15.01ZM17 11.51C17 10.96 17.45 10.51 18 10.51C18.55 10.51 19 10.96 19 11.51C19 12.06 18.55 12.51 18 12.51C17.45 12.51 17 12.06 17 11.51Z" fill="black"/>
<path d="M18 12.5098C18.5523 12.5098 19 12.0621 19 11.5098C19 10.9575 18.5523 10.5098 18 10.5098C17.4477 10.5098 17 10.9575 17 11.5098C17 12.0621 17.4477 12.5098 18 12.5098Z" fill="black"/>
<path opacity="0.3" d="M16 5H8V5.35L10.66 8H16V5Z" fill="black"/>
<path d="M19 8H18V3H6V3.36L8 5.36V5H16V8H10.66L12.66 10H19C19.55 10 20 10.45 20 11V15L18 15.01V13H15.66L19.66 17H22V11C22 9.34 20.66 8 19 8Z" fill="black"/>
</svg>
