<svg  viewBox="0 0 24 24" fill="none" xmlns="http://www.w3.org/2000/svg">
<path opacity="0.3" d="M13 5C10.35 5 8.21001 7.06 8.03001 9.67L6.70001 12H8.00001V16H11V19H14V15.05L14.89 14.62C16.71 13.88 18 12.09 18 10C18 7.24 15.76 5 13 5ZM16.82 8.95L15.97 9.61C15.99 9.73 16 9.86 16 10C16 10.13 15.99 10.26 15.98 10.39L16.81 11.05C16.89 11.11 16.91 11.21 16.86 11.3L16.06 12.69C16.01 12.78 15.9 12.81 15.82 12.78L14.83 12.38C14.62 12.54 14.4 12.67 14.16 12.77L14 13.83C13.99 13.93 13.9 14 13.8 14H12.2C12.1 14 12.02 13.93 12 13.83L11.85 12.77C11.6 12.67 11.38 12.54 11.17 12.38L10.18 12.78C10.09 12.81 9.98001 12.78 9.93001 12.69L9.13001 11.3C9.08001 11.22 9.10001 11.11 9.18001 11.05L10.02 10.39C10.01 10.26 10 10.13 10 10C10 9.87 10.02 9.73 10.04 9.61L9.19001 8.95C9.11001 8.89 9.09001 8.79 9.14001 8.69L9.94001 7.31C9.99001 7.22 10.09 7.19 10.18 7.22L11.18 7.62C11.38 7.47 11.61 7.33 11.85 7.23L12 6.17C12.02 6.07 12.1 6 12.2 6H13.8C13.9 6 13.98 6.07 14 6.17L14.15 7.23C14.39 7.33 14.61 7.46 14.82 7.62L15.82 7.22C15.91 7.19 16.02 7.22 16.06 7.31L16.86 8.69C16.91 8.78 16.89 8.89 16.82 8.95Z" fill="currentColor"/>
<path d="M15.82 7.22L14.82 7.62C14.61 7.46 14.39 7.33 14.15 7.23L14 6.17C13.98 6.07 13.9 6 13.8 6H12.2C12.1 6 12.02 6.07 12.01 6.17L11.86 7.23C11.62 7.33 11.39 7.46 11.19 7.62L10.19 7.22C10.1 7.19 9.98999 7.22 9.94999 7.31L9.14999 8.69C9.09999 8.78 9.11999 8.89 9.19999 8.95L10.05 9.61C10.02 9.73 9.99999 9.87 9.99999 10C9.99999 10.13 10.01 10.26 10.03 10.39L9.18999 11.05C9.10999 11.11 9.08999 11.22 9.13999 11.3L9.93999 12.69C9.98999 12.78 10.09 12.81 10.19 12.78L11.18 12.38C11.39 12.54 11.61 12.67 11.86 12.77L12 13.83C12.02 13.93 12.1 14 12.2 14H13.8C13.9 14 13.98 13.93 14 13.83L14.15 12.77C14.39 12.67 14.62 12.54 14.82 12.38L15.81 12.78C15.9 12.82 16.01 12.78 16.05 12.69L16.85 11.3C16.9 11.21 16.88 11.11 16.8 11.05L15.97 10.39C15.99 10.26 16 10.13 16 10C16 9.86 15.99 9.73 15.97 9.61L16.82 8.95C16.9 8.89 16.92 8.78 16.87 8.69L16.07 7.31C16.02 7.22 15.91 7.19 15.82 7.22ZM13 11.43C12.21 11.43 11.57 10.79 11.57 10C11.57 9.21 12.21 8.57 13 8.57C13.79 8.57 14.43 9.21 14.43 10C14.43 10.79 13.79 11.43 13 11.43Z" fill="currentColor"/>
<path d="M19.94 9.06C19.51 5.79 16.71 3.2 13.41 3.01C13.27 3 13.14 3 13 3C9.47 3 6.57 5.61 6.08 9L4.15 12.48C3.74 13.14 4.22 14 5 14H6V16C6 17.1 6.9 18 8 18H9V21H16V16.32C18.62 15.07 20.35 12.24 19.94 9.06ZM14.89 14.63L14 15.05V19H11V16H8V12H6.7L8.03 9.67C8.21 7.06 10.35 5 13 5C15.76 5 18 7.24 18 10C18 12.09 16.71 13.88 14.89 14.63Z" fill="currentColor"/>
</svg>
