<svg  viewBox="0 0 24 24" fill="none" xmlns="http://www.w3.org/2000/svg">
<g opacity="0.3">
<path opacity="0.3" d="M4 16.5C4 17.33 4.67 18 5.5 18H14.5C15.33 18 16 17.33 16 16.5V13H4V16.5ZM10 14C10.83 14 11.5 14.67 11.5 15.5C11.5 16.33 10.83 17 10 17C9.17 17 8.5 16.33 8.5 15.5C8.5 14.67 9.17 14 10 14Z" fill="currentColor"/>
</g>
<g opacity="0.3">
<path opacity="0.3" d="M4.43005 6.00016H11.0001C11.0001 5.67016 11.0301 5.34016 11.0801 5.02016C7.71005 4.92016 5.33005 5.23016 4.43005 6.00016Z" fill="currentColor"/>
</g>
<path d="M4 11.001V8.00097H11.29C11.1 7.37097 11 6.70097 11 6.00097H4.43C5.33 5.23097 7.71 4.92097 11.08 5.02097C11.18 4.32097 11.38 3.65097 11.67 3.03097C2.97 2.67097 2 5.02097 2 7.00097V16.501C2 18.431 3.57 20.001 5.5 20.001L4 21.001V22.001H16V21.001L14.5 20.001C16.43 20.001 18 18.431 18 16.501V13.001C16.09 13.001 14.37 12.241 13.11 11.001H4ZM16 16.501C16 17.331 15.33 18.001 14.5 18.001H5.5C4.67 18.001 4 17.331 4 16.501V13.001H16V16.501Z" fill="currentColor"/>
<path d="M10 17C10.8284 17 11.5 16.3284 11.5 15.5C11.5 14.6716 10.8284 14 10 14C9.17157 14 8.5 14.6716 8.5 15.5C8.5 16.3284 9.17157 17 10 17Z" fill="currentColor"/>
<path d="M18 1C15.24 1 13 3.24 13 6C13 8.76 15.24 11 18 11C20.76 11 23 8.76 23 6C23 3.24 20.76 1 18 1ZM18.5 9H17.5V8H18.5V9ZM18.5 7H17.5V3H18.5V7Z" fill="currentColor"/>
</svg>
