<svg viewBox="0 0 24 24" fill="none" xmlns="http://www.w3.org/2000/svg">
<path d="M17.15 14.32L17.74 11.96L18.5 15H19.98L21.48 9H19.98L19.24 12L18.5 9H16.98L16.24 12L15.5 9H14L14.72 11.9L17.15 14.32Z" fill="currentColor"/>
<path d="M1.39001 4.22055L6.17001 9.00055H3.00001V15.0005H4.50001V13.0005H5.60001L6.50001 15.0005H8.00001L7.10001 12.9005C7.60001 12.6005 8.00001 12.1005 8.00001 11.5005V10.8305L9.43001 12.2605L8.75001 15.0005H10.25L10.63 13.5005H10.67L19.78 22.6105L21.19 21.2005L2.81001 2.81055L1.39001 4.22055ZM6.50001 11.5005H4.50001V10.5005H6.50001V11.5005Z" fill="currentColor"/>
</svg>
