<svg width="24" height="24" viewBox="0 0 24 24" fill="none" xmlns="http://www.w3.org/2000/svg">
<path opacity="0.3" d="M5 19.0899H19V4.90991H5V19.0899ZM6 6.99991H18V8.99991H6V6.99991ZM6 10.9999H18V12.9999H6V10.9999ZM6 14.9999H18V16.9999H6V14.9999Z" fill="black"/>
<path d="M19.5 3.5L18 2L16.5 3.5L15 2L13.5 3.5L12 2L10.5 3.5L9 2L7.5 3.5L6 2L4.5 3.5L3 2V22L4.5 20.5L6 22L7.5 20.5L9 22L10.5 20.5L12 22L13.5 20.5L15 22L16.5 20.5L18 22L19.5 20.5L21 22V2L19.5 3.5ZM19 19.09H5V4.91H19V19.09ZM6 15H18V17H6V15ZM6 11H18V13H6V11ZM6 7H18V9H6V7Z" fill="black"/>
</svg>
