<svg  viewBox="0 0 24 24" fill="none" xmlns="http://www.w3.org/2000/svg">
<path opacity="0.3" d="M6 11.0906C6 15.0906 8.55 18.7906 12 19.9206C13.17 19.5406 14.24 18.8506 15.14 17.9706L6 8.83063V11.0906ZM12 4.14062L8.34 5.51063L17.36 14.5306C17.77 13.4506 18 12.2806 18 11.0906V6.39062L12 4.14062Z" fill="currentColor"/>
<path d="M12 4.14L18 6.39V11.09C18 12.28 17.77 13.45 17.36 14.53L18.87 16.04C19.59 14.51 20 12.82 20 11.09V5L12 2L6.78 3.96L8.33 5.51L12 4.14ZM2.81 2.81L1.39 4.22L4 6.83V11.09C4 16.14 7.41 20.85 12 22C13.72 21.57 15.28 20.64 16.55 19.38L19.78 22.61L21.19 21.2L2.81 2.81ZM12 19.92C8.55 18.79 6 15.1 6 11.09V8.83L15.14 17.97C14.24 18.85 13.17 19.54 12 19.92Z" fill="currentColor"/>
</svg>
