<svg  viewBox="0 0 24 24" fill="none" xmlns="http://www.w3.org/2000/svg">
<path opacity="0.3" d="M12 4C7.58 4 4 7.58 4 12C4 16.42 7.58 20 12 20C16.42 20 20 16.42 20 12C20 7.58 16.42 4 12 4ZM13.5 6C14.05 6 14.5 6.45 14.5 7C14.5 7.55 14.05 8 13.5 8C12.95 8 12.5 7.55 12.5 7C12.5 6.45 12.95 6 13.5 6ZM16 12C15.3 12 13.99 11.46 13.09 10.24L12.68 12.59L14 14.03V18H13V14.42L11.89 13.21L11.37 15.85L7.6 15.08L7.8 14.1L10.58 14.67L11.54 9.78L10 10.35V12H9V9.65L12.28 8.44C12.77 8.26 13.31 8.5 13.54 8.97C14.37 10.67 15.59 11 16 11V12Z" fill="currentColor"/>
<path d="M12 2C6.48 2 2 6.48 2 12C2 17.52 6.48 22 12 22C17.52 22 22 17.52 22 12C22 6.48 17.52 2 12 2ZM12 20C7.58 20 4 16.42 4 12C4 7.58 7.58 4 12 4C16.42 4 20 7.58 20 12C20 16.42 16.42 20 12 20Z" fill="currentColor"/>
<path d="M13.54 8.97074C13.31 8.50074 12.78 8.26074 12.28 8.44074L8.99998 9.65074V12.0007H9.99998V10.3507L11.54 9.78074L10.58 14.6707L7.79998 14.1007L7.59998 15.0807L11.36 15.8507L11.88 13.2107L13 14.4207V18.0007H14V14.0307L12.68 12.5907L13.09 10.2407C13.99 11.4607 15.3 12.0007 16 12.0007V11.0007C15.59 11.0007 14.37 10.6707 13.54 8.97074Z" fill="currentColor"/>
<path d="M13.5 8C14.0523 8 14.5 7.55228 14.5 7C14.5 6.44772 14.0523 6 13.5 6C12.9477 6 12.5 6.44772 12.5 7C12.5 7.55228 12.9477 8 13.5 8Z" fill="currentColor"/>
</svg>
