<svg width="24" height="24" viewBox="0 0 24 24" fill="none" xmlns="http://www.w3.org/2000/svg">
    <g clip-path="url(#clip0_425_81597)">
        <g opacity="0.3">
            <path opacity="0.3" d="M6.6 19.32L5.54 20.38L2 16.85L3.06 15.79L6.6 19.32ZM8.72 17.2L7.66 18.26L4.12 14.72L5.18 13.66L8.72 17.2ZM13.67 12.25L12.26 13.66L8.72 10.12L10.13 8.71L13.67 12.25ZM18.26 7.66L17.2 8.72L13.66 5.18L14.72 4.12L18.26 7.66ZM20.38 5.54L19.32 6.6L15.78 3.06L16.85 2L20.38 5.54Z" fill="currentColor" />
        </g>
        <path d="M15.44 0.590094L12.26 3.77009C11.48 4.55009 11.48 5.82009 12.26 6.60009L13.5 7.84009L12.79 8.55009L11.55 7.30009C10.77 6.52009 9.5 6.52009 8.72001 7.30009L7.3 8.72009C6.52001 9.50009 6.52001 10.7701 7.3 11.5501L8.54 12.7901L7.83 13.5001L6.6 12.2501C5.82 11.4701 4.55 11.4701 3.77 12.2501L0.590005 15.4301C-0.189995 16.2101 -0.189995 17.4801 0.590005 18.2601L4.13 21.8001C4.91 22.5801 6.18001 22.5801 6.96 21.8001L10.14 18.6201C10.92 17.8401 10.92 16.5701 10.14 15.7901L8.9 14.5501L9.61 13.8401L10.85 15.0801C11.63 15.8601 12.9 15.8601 13.68 15.0801L15.09 13.6701C15.87 12.8901 15.87 11.6201 15.09 10.8401L13.84 9.60009L14.55 8.89009L15.79 10.1301C16.57 10.9101 17.84 10.9101 18.62 10.1301L21.8 6.95009C22.58 6.17009 22.58 4.90009 21.8 4.12009L18.26 0.580094C17.48 -0.199906 16.22 -0.199906 15.44 0.590094ZM6.6 19.3201L5.54 20.3801L2 16.8501L3.06 15.7901L6.6 19.3201ZM8.72001 17.2001L7.66 18.2601L4.12 14.7201L5.18 13.6601L8.72001 17.2001ZM13.67 12.2501L12.26 13.6601L8.72001 10.1201L10.13 8.71009L13.67 12.2501ZM18.26 7.66009L17.2 8.72009L13.66 5.18009L14.72 4.12009L18.26 7.66009ZM20.38 5.54009L19.32 6.60009L15.78 3.06009L16.85 2.00009L20.38 5.54009ZM21 14.0001H23C23 18.9701 18.97 23.0001 14 23.0001V21.0001C17.87 21.0001 21 17.8701 21 14.0001ZM17 14.0001H19C19 16.7601 16.76 19.0001 14 19.0001V17.0001C15.66 17.0001 17 15.6601 17 14.0001Z" fill="currentColor" />
    </g>
    <defs>
        <clipPath id="clip0_425_81597">
            <rect width="24" height="24" fill="white" />
        </clipPath>
    </defs>
</svg>
