<svg  viewBox="0 0 24 24" fill="none" xmlns="http://www.w3.org/2000/svg">
<path opacity="0.3" d="M20 5H4V16H20V5ZM15.47 15.03L13.38 12.94C12.03 13.81 10.21 13.65 9.02 12.47C7.65 11.1 7.65 8.89 9.02 7.52C10.39 6.15 12.6 6.15 13.97 7.52C15.15 8.7 15.31 10.52 14.44 11.88L16.53 13.97L15.47 15.03Z" fill="currentColor"/>
<path d="M4 18H20C21.1 18 21.99 17.1 21.99 16L22 5C22 3.9 21.1 3 20 3H4C2.9 3 2 3.9 2 5V16C2 17.1 2.9 18 4 18ZM4 5H20V16H4V5Z" fill="currentColor"/>
<path d="M23 19H1V21H23V19Z" fill="currentColor"/>
<path d="M13.9701 7.53043C12.6001 6.16043 10.3901 6.16043 9.02005 7.53043C7.65005 8.90043 7.65005 11.1104 9.02005 12.4804C10.2001 13.6604 12.0201 13.8204 13.3801 12.9504L15.4701 15.0404L16.5301 13.9804L14.4401 11.8904C15.3101 10.5304 15.1601 8.71043 13.9701 7.53043ZM12.9101 11.4104C12.1301 12.1904 10.8601 12.1904 10.0801 11.4104C9.30005 10.6304 9.30005 9.36043 10.0801 8.58043C10.8601 7.80043 12.1301 7.80043 12.9101 8.58043C13.6901 9.37043 13.6901 10.6304 12.9101 11.4104Z" fill="currentColor"/>
</svg>
