<svg  viewBox="0 0 24 24" fill="none" xmlns="http://www.w3.org/2000/svg">
<path d="M13.02 19.9296V21.9496C15.03 21.7496 16.86 20.9496 18.34 19.7396L16.92 18.3096C15.81 19.1696 14.48 19.7496 13.02 19.9296Z" fill="currentColor"/>
<path d="M4.03003 11.9998C4.03003 7.9498 7.06003 4.5898 10.98 4.0698V2.0498C5.95003 2.5798 2.03003 6.8398 2.03003 11.9998C2.03003 17.1598 5.95003 21.4198 10.98 21.9498V19.9298C7.06003 19.4098 4.03003 16.0498 4.03003 11.9998Z" fill="currentColor"/>
<path d="M19.9501 10.9997H21.9701C21.7701 8.98969 20.9701 7.15969 19.7601 5.67969L18.3301 7.10969C19.1901 8.20969 19.7701 9.53969 19.9501 10.9997Z" fill="currentColor"/>
<path d="M18.34 4.2598C16.86 3.0498 15.02 2.2498 13.02 2.0498V4.0698C14.48 4.2498 15.81 4.8298 16.92 5.6898L18.34 4.2598Z" fill="currentColor"/>
<path d="M18.3301 16.9L19.7601 18.32C20.9701 16.84 21.7701 15.01 21.9701 13H19.9501C19.7701 14.46 19.1901 15.79 18.3301 16.9Z" fill="currentColor"/>
<path d="M16 11.1C16 8.61 14.1 7 12 7C9.9 7 8 8.61 8 11.1C8 12.76 9.33 14.73 12 17C14.67 14.73 16 12.76 16 11.1ZM12 12C11.41 12 10.93 11.52 10.93 10.93C10.93 10.34 11.41 9.86 12 9.86C12.59 9.86 13.07 10.34 13.07 10.93C13.07 11.52 12.59 12 12 12Z" fill="currentColor"/>
</svg>
