<svg width="24" height="24" viewBox="0 0 24 24" fill="none" xmlns="http://www.w3.org/2000/svg">
<path opacity="0.3" d="M6 6.38965V11.0896C6 15.0896 8.55 18.7896 12 19.9196C15.45 18.7896 18 15.0996 18 11.0896V6.38965L12 4.13965L6 6.38965ZM12.21 7.60965C11.75 8.83965 11.82 10.2496 12.53 11.4696C13.24 12.6896 14.42 13.4596 15.71 13.6696C16.05 13.7296 16.2 14.1396 15.97 14.4096C14.13 16.5796 10.76 16.5096 9.01 14.3396C6.82 11.6196 8.36 7.61965 11.7 7.00965C12.04 6.94965 12.33 7.27965 12.21 7.60965Z" fill="black"/>
<path d="M12 2L4 5V11.09C4 16.14 7.41 20.85 12 22C16.59 20.85 20 16.14 20 11.09V5L12 2ZM18 11.09C18 15.09 15.45 18.79 12 19.92C8.55 18.79 6 15.1 6 11.09V6.39L12 4.14L18 6.39V11.09Z" fill="black"/>
<path d="M9.01 14.3303C10.76 16.5003 14.13 16.5703 15.97 14.4003C16.2 14.1303 16.05 13.7203 15.71 13.6603C14.42 13.4503 13.23 12.6803 12.53 11.4603C11.82 10.2403 11.75 8.83028 12.21 7.60028C12.33 7.27028 12.05 6.94028 11.7 7.00028C8.36 7.62028 6.81 11.6103 9.01 14.3303Z" fill="black"/>
</svg>
