<svg viewBox="0 0 24 24" fill="none" xmlns="http://www.w3.org/2000/svg">
<path d="M8.55002 12.0006C7.48002 11.2906 6.30002 10.7306 5.02002 10.3906C6.30002 10.7306 7.48002 11.2906 8.55002 12.0006ZM18.98 10.3906C17.69 10.7306 16.49 11.3006 15.41 12.0306C16.49 11.3006 17.69 10.7306 18.98 10.3906Z" fill="currentColor"/>
<path opacity="0.3" d="M8.94 12.2492C8.94 12.2392 8.94 12.2392 8.94 12.2492C8.81 12.1592 8.67 12.0792 8.54 11.9892C8.67 12.0892 8.81 12.1592 8.94 12.2492ZM13.35 8.57922C13.13 7.36922 12.69 6.22922 12.05 5.19922C11.39 6.23922 10.93 7.38922 10.68 8.58922C11.14 8.88922 11.58 9.20922 12.01 9.55922C12.43 9.20922 12.88 8.87922 13.35 8.57922ZM16.54 13.6592L16.55 13.6792C16.46 13.7392 16.37 13.7992 16.28 13.8492L16.21 13.8992C15.23 14.6092 14.37 15.5092 13.68 16.5592L12 19.0992L10.33 16.5492C9.65 15.5192 8.81 14.6292 7.82 13.8992L7.75 13.8592C7.62 13.7792 7.49 13.6992 7.36 13.6092L7.37 13.5992C6.41 12.9692 5.36 12.5292 4.25 12.2692C5 15.6292 7.41 18.4392 10.7 19.6192C11.12 19.7692 11.54 19.8892 11.98 19.9792C12.43 19.8892 12.87 19.7692 13.31 19.6092C16.58 18.4392 18.98 15.6292 19.74 12.2692C18.6 12.5292 17.51 12.9992 16.54 13.6592Z" fill="currentColor"/>
<path d="M12 15.45C11.18 14.2 10.14 13.11 8.94 12.25C8.81 12.16 8.67 12.09 8.54 11.99C8.67 12.08 8.81 12.16 8.93 12.24C6.98 10.83 4.59 10 2 10C2 15.32 5.36 19.82 10.03 21.49C10.66 21.72 11.32 21.89 12 22C12.68 21.88 13.33 21.71 13.97 21.49C18.64 19.82 22 15.32 22 10C17.82 10 14.15 12.17 12 15.45ZM13.32 19.6C12.88 19.75 12.44 19.87 11.99 19.97C11.55 19.88 11.12 19.76 10.71 19.61C7.42 18.43 5.01 15.62 4.26 12.26C5.36 12.52 6.41 12.97 7.38 13.59L7.36 13.6C7.49 13.69 7.62 13.78 7.75 13.85L7.82 13.89C8.81 14.61 9.66 15.5 10.33 16.54L12 19.1L13.67 16.55C14.36 15.5 15.22 14.6 16.2 13.89L16.27 13.84C16.36 13.79 16.45 13.73 16.54 13.67L16.53 13.65C17.51 13 18.6 12.52 19.74 12.25C18.99 15.62 16.59 18.43 13.32 19.6ZM15.49 9.63C15.31 6.84 14.18 4.12 12.06 2C9.92 4.14 8.74 6.86 8.51 9.63C9.79 10.31 10.97 11.19 12 12.26C13.03 11.2 14.21 10.32 15.49 9.63ZM12.05 5.19C12.68 6.22 13.12 7.37 13.35 8.57C12.88 8.87 12.44 9.2 12.01 9.55C11.59 9.21 11.14 8.88 10.68 8.58C10.93 7.38 11.39 6.23 12.05 5.19Z" fill="currentColor"/>
<path opacity="0.3" d="M8.98994 12.2802C8.96994 12.2702 8.94994 12.2502 8.93994 12.2402C8.93994 12.2402 8.94994 12.2402 8.94994 12.2502C8.95994 12.2602 8.96994 12.2702 8.98994 12.2802Z" fill="currentColor"/>
</svg>
