<svg  viewBox="0 0 24 24" fill="none" xmlns="http://www.w3.org/2000/svg">
<path d="M14.27 6.00026C13.72 6.95026 14.05 8.18026 15 8.73026C15.95 9.28026 17.18 8.95026 17.73 8.00026C18.28 7.05026 17.95 5.82026 17 5.27026C16.05 4.72026 14.82 5.05026 14.27 6.00026Z" fill="currentColor"/>
<path d="M15.84 10.4098C15.84 10.4098 14.21 9.46984 13.24 8.90984C10.86 7.52984 10.04 4.46984 11.42 2.08984L9.69001 1.08984C8.10001 3.82984 8.60001 7.20984 10.66 9.39984L5.51001 18.3198L7.24001 19.3198L8.74001 16.7198L10.47 17.7198L7.47001 22.9198L9.20001 23.9198L15.49 13.0298C16.63 14.5798 16.82 16.7198 15.8 18.4898L17.53 19.4898C19.13 16.7398 18.81 12.9098 15.84 10.4098Z" fill="currentColor"/>
<path d="M12.75 3.79965C13.47 4.20965 14.38 3.96965 14.8 3.24965C15.21 2.52965 14.97 1.61965 14.25 1.19965C13.53 0.789655 12.62 1.02965 12.2 1.74965C11.79 2.46965 12.03 3.38965 12.75 3.79965Z" fill="currentColor"/>
</svg>
