<svg  viewBox="0 0 24 24" fill="none" xmlns="http://www.w3.org/2000/svg">
<g clip-path="url(#clip0_425_91287)">
<path d="M16.5 4.38086C17.6046 4.38086 18.5 3.48543 18.5 2.38086C18.5 1.27629 17.6046 0.380859 16.5 0.380859C15.3954 0.380859 14.5 1.27629 14.5 2.38086C14.5 3.48543 15.3954 4.38086 16.5 4.38086Z" fill="currentColor"/>
<path d="M24 11.8814V7.18135L18.95 5.04135C17.98 4.63135 16.86 4.98135 16.3 5.88135L15.3 7.48135C14.63 8.66135 13.39 9.54135 11.89 9.80135L11.95 9.86135C12.64 10.5514 13.47 10.9314 14.41 11.0314C15.21 10.6114 15.93 10.0514 16.5 9.39135L17.1 12.3914L15.94 13.4914L15 14.3814V15.1414V21.8814H17V15.8814L19.1 13.8814L20.9 21.8814H23L20.82 10.8814L20.2 7.78135L22 8.48135V11.8814H24Z" fill="currentColor"/>
<path d="M10.2901 8.09016C10.5101 8.24016 10.7601 8.33016 11.0101 8.38016C11.1401 8.40016 11.2601 8.42016 11.3901 8.42016C11.5201 8.42016 11.6501 8.41016 11.7701 8.38016C11.9001 8.36016 12.0201 8.32016 12.1401 8.27016C12.3801 8.17016 12.6101 8.03016 12.8001 7.83016C13.2901 7.34016 13.4701 6.66016 13.3501 6.03016C13.2801 5.66016 13.1001 5.29016 12.8001 5.00016C12.6101 4.81016 12.3801 4.66016 12.1401 4.56016C12.0201 4.51016 11.9001 4.47016 11.7701 4.45016C11.6401 4.43016 11.5201 4.41016 11.3901 4.41016C11.2701 4.41016 11.1601 4.42016 11.0401 4.44016C10.9001 4.46016 10.7601 4.50016 10.6301 4.55016C10.4001 4.66016 10.1701 4.81016 9.98008 5.00016C9.68008 5.29016 9.50009 5.66016 9.43009 6.03016C9.31009 6.66016 9.49008 7.34016 9.98008 7.83016C10.0701 7.93016 10.1801 8.01016 10.2901 8.09016Z" fill="currentColor"/>
<path d="M11.24 10.5605L9.24005 8.56047C9.14005 8.46047 9.04005 8.38047 8.93005 8.30047C8.71005 8.16047 8.46005 8.06047 8.21005 8.02047C8.08005 7.99047 7.96005 7.98047 7.83005 7.98047C7.32005 7.98047 6.81005 8.18047 6.42005 8.57047L3.08005 11.9105C2.67005 12.3205 2.46005 12.8905 2.50005 13.4505C2.50005 13.6305 2.54005 13.8205 2.61005 14.0005L3.68005 16.9505L0.0500488 20.5805L1.46005 22.0005L5.70005 17.7605V15.5405L7.00005 16.7505V21.8805H9.00005V15.8805L6.88005 13.7605L9.24005 11.4005L9.95005 12.1105C11.24 13.3705 12.92 14.1505 14.98 14.1505L14.84 12.0805C13.34 12.0605 12.14 11.4605 11.24 10.5605Z" fill="currentColor"/>
</g>
<defs>
<clipPath id="clip0_425_91287">
<rect  fill="white"/>
</clipPath>
</defs>
</svg>
