<svg  viewBox="0 0 24 24" fill="none" xmlns="http://www.w3.org/2000/svg">
<g opacity="0.3">
<path opacity="0.3" d="M7.01002 9.48961L11 6.69961V5.29961L9.65002 4.34961C7.83002 4.91961 6.28002 6.11961 5.27002 7.68961L5.66002 9.02961L7.01002 9.48961Z" fill="currentColor"/>
</g>
<g opacity="0.3">
<path opacity="0.3" d="M5.01 10.9199L4.01 11.6499C4.01 11.7699 4 11.8799 4 11.9999C4 13.9899 4.73 15.8099 5.94 17.2099L7.08 17.1099L7.87 15.7399L6.4 11.3999L5.01 10.9199Z" fill="currentColor"/>
</g>
<g opacity="0.3">
<path opacity="0.3" d="M18.34 9.02961L18.73 7.68961C17.72 6.11961 16.18 4.91961 14.35 4.34961L13 5.29961V6.69961L16.99 9.48961L18.34 9.02961Z" fill="currentColor"/>
</g>
<g opacity="0.3">
<path opacity="0.3" d="M8.37 10.9795L9.72999 14.9995H14.27L15.63 10.9795L12 8.43945L8.37 10.9795Z" fill="currentColor"/>
</g>
<g opacity="0.3">
<path opacity="0.3" d="M9.45 17L8.81 18.11L9.5 19.6C10.29 19.85 11.13 20 12 20C12.87 20 13.71 19.85 14.5 19.59L15.19 18.1L14.55 17H9.45Z" fill="currentColor"/>
</g>
<g opacity="0.3">
<path opacity="0.3" d="M19.98 11.6499L18.98 10.9199L17.6 11.3999L16.14 15.7399L16.93 17.1099L18.07 17.2099C19.27 15.8099 20 13.9899 20 11.9999C20 11.8799 19.99 11.7699 19.98 11.6499Z" fill="currentColor"/>
</g>
<path d="M12 2C6.48 2 2 6.48 2 12C2 17.52 6.48 22 12 22C17.52 22 22 17.52 22 12C22 6.48 17.52 2 12 2ZM13 5.3L14.35 4.35C16.17 4.91 17.72 6.11 18.73 7.69L18.34 9.03L16.99 9.49L13 6.7V5.3ZM9.65 4.35L11 5.3V6.7L7.01 9.49L5.66 9.03L5.27 7.69C6.28 6.12 7.83 4.92 9.65 4.35ZM7.08 17.11L5.94 17.21C4.73 15.81 4 13.99 4 12C4 11.88 4.01 11.77 4.02 11.65L5.02 10.92L6.4 11.4L7.86 15.74L7.08 17.11ZM14.5 19.59C13.71 19.85 12.87 20 12 20C11.13 20 10.29 19.85 9.5 19.59L8.81 18.1L9.45 17H14.56L15.2 18.11L14.5 19.59ZM14.27 15H9.73L8.38 10.98L12 8.44L15.63 10.98L14.27 15ZM18.06 17.21L16.92 17.11L16.13 15.74L17.59 11.4L18.98 10.93L19.98 11.66C19.99 11.77 20 11.88 20 12C20 13.99 19.27 15.81 18.06 17.21Z" fill="currentColor"/>
</svg>
