<svg  viewBox="0 0 24 24" fill="none" xmlns="http://www.w3.org/2000/svg">
<path opacity="0.3" d="M18.29 5.70898C16.36 6.34898 13.27 7.89898 10.59 10.589C7.88 13.299 6.35 16.399 5.72 18.289C7.65 17.649 10.75 16.089 13.42 13.419C16.13 10.699 17.66 7.59898 18.29 5.70898Z" fill="currentColor"/>
<path opacity="0.3" d="M9.17 9.16859C11.32 7.01859 13.73 5.49859 15.78 4.55859C14.1 4.63859 10.4 5.11859 7.76 7.75859C5.44 10.0786 4.66 13.3386 4.56 15.7986C5.5 13.7486 7.01 11.3286 9.17 9.16859Z" fill="currentColor"/>
<path opacity="0.3" d="M14.83 14.829C12.68 16.979 10.27 18.499 8.22 19.439C9.9 19.359 13.61 18.889 16.25 16.249C18.57 13.929 19.35 10.669 19.45 8.20898C18.5 10.249 16.99 12.669 14.83 14.829Z" fill="currentColor"/>
<path d="M20.49 3.50906C19.93 2.94906 18.34 2.53906 16.33 2.53906C13.25 2.53906 9.18001 3.49906 6.35001 6.32906C1.66001 11.0291 2.10001 19.0691 3.51001 20.4891C4.07001 21.0491 5.66001 21.4591 7.67001 21.4591C10.75 21.4591 14.82 20.4991 17.65 17.6691C22.34 12.9691 21.9 4.92906 20.49 3.50906ZM5.71001 18.2891C6.34001 16.3991 7.87001 13.2991 10.58 10.5891C13.26 7.90906 16.36 6.35906 18.28 5.70906C17.65 7.59906 16.12 10.6991 13.4 13.4091C10.74 16.0891 7.64001 17.6391 5.71001 18.2891ZM7.76001 7.75906C10.4 5.11906 14.1 4.63906 15.79 4.56906C13.74 5.50906 11.33 7.02906 9.18001 9.17906C7.02001 11.3391 5.51001 13.7591 4.57001 15.8091C4.66001 13.3291 5.44001 10.0691 7.76001 7.75906ZM16.24 16.2391C13.6 18.8791 9.90001 19.3591 8.21001 19.4291C10.26 18.4891 12.67 16.9691 14.82 14.8191C16.98 12.6591 18.49 10.2391 19.44 8.18906C19.34 10.6691 18.56 13.9291 16.24 16.2391Z" fill="currentColor"/>
</svg>
