<svg  viewBox="0 0 24 24" fill="none" xmlns="http://www.w3.org/2000/svg">
<path opacity="0.3" d="M6 6.73047C4.76 8.14047 4 9.98047 4 12.0005C4 13.1005 4.23 14.1405 4.63 15.1005L6 14.3105V6.73047Z" fill="currentColor"/>
<path opacity="0.3" d="M11 4.08008C10.75 4.14008 9.02 4.50008 8 5.09008V13.1601L11 11.4301V4.08008Z" fill="currentColor"/>
<path opacity="0.3" d="M13 4.07031V5.65031L19.54 9.44031C18.57 6.59031 16.07 4.45031 13 4.07031Z" fill="currentColor"/>
<path opacity="0.3" d="M12 13.1504L5.64001 16.8204C6.28001 17.6704 7.10002 18.3704 8.02002 18.9104L15 14.8904L12 13.1504Z" fill="currentColor"/>
<path opacity="0.3" d="M13 7.96094V11.4209L19.37 15.1009C19.77 14.1509 20 13.1109 20 12.0109L13 7.96094Z" fill="currentColor"/>
<path opacity="0.3" d="M10.42 19.8391C10.93 19.9391 11.46 19.9991 12 19.9991C14.6 19.9991 16.9 18.7491 18.36 16.8291L17 16.0391L10.42 19.8391Z" fill="currentColor"/>
<path d="M12 2C6.48 2 2 6.48 2 12C2 17.52 6.48 22 12 22C17.52 22 22 17.52 22 12C22 6.48 17.52 2 12 2ZM13 4.07C16.07 4.45 18.57 6.59 19.54 9.43L13 5.65V4.07ZM8 5.08C9.02 4.49 10.75 4.13 11 4.07V11.42L8 13.15V5.08ZM4.63 15.1C4.23 14.14 4 13.1 4 12C4 9.98 4.76 8.14 6 6.73V14.31L4.63 15.1ZM5.64 16.83L12 13.15L15 14.88L8.02 18.91C7.09 18.38 6.28 17.68 5.64 16.83ZM12 20C11.46 20 10.93 19.94 10.42 19.84L17 16.04L18.36 16.82C16.9 18.75 14.6 20 12 20ZM13 11.42V7.96L20 12.01C20 13.11 19.77 14.15 19.37 15.1L13 11.42Z" fill="currentColor"/>
</svg>
