<svg  viewBox="0 0 24 24" fill="none" xmlns="http://www.w3.org/2000/svg">
    <path opacity="0.3" d="M8.82999 6L12.83 10H18V12H14.83L20 17.17V6H8.82999Z" fill="currentColor" />
    <path opacity="0.3" d="M15.17 17.9998L13.17 15.9998H6V13.9998H11.17L8 10.8298V11.9998H6V9.99983H7.17L4 6.82983V17.9998H15.17Z" fill="currentColor" />
    <path d="M18 10H12.83L14.83 12H18V10Z" fill="currentColor" />
    <path d="M20 4H6.82999L8.82999 6H20V17.17L21.76 18.93C21.91 18.65 22 18.34 22 18V6C22 4.9 21.1 4 20 4Z" fill="currentColor" />
    <path d="M1.03999 3.86995L2.23999 5.06995C2.08999 5.34995 1.99999 5.65995 1.99999 5.99995V18C1.99999 19.1 2.89999 20 3.99999 20H17.17L20.13 22.9599L21.54 21.5499L2.44999 2.44995L1.03999 3.86995ZM3.99999 6.82995L7.16999 9.99995H5.99999V12H7.99999V10.83L11.17 14H5.99999V16H13.17L15.17 18H3.99999V6.82995Z" fill="currentColor" />
</svg>
