<svg width="24" height="24" viewBox="0 0 24 24" fill="none" xmlns="http://www.w3.org/2000/svg">
    <path d="M20.13 3.87C18.69 2.17 15.6 1 12 1C8.4 1 5.31 2.17 3.87 3.87L2 2V7H7L4.93 4.93C5.93 3.64 8.63 2.5 12 2.5C15.37 2.5 18.07 3.64 19.07 4.93L17 7H22V2L20.13 3.87Z" fill="currentColor" />
    <path opacity="0.3" d="M12 13.68V7.5C12 7.22 11.78 7 11.5 7C11.22 7 11 7.22 11 7.5V18.11L6.83 17.22L10.53 21H17.08L18 15.56L13.76 13.67H12V13.68Z" fill="currentColor" />
    <path d="M18.89 13.7699L15.09 12.0999C14.96 12.0399 14.81 11.9999 14.65 11.9999H14V7.62988C14 6.30988 13.04 5.12988 11.73 5.00988C10.25 4.87988 9 6.04988 9 7.49988V15.6499L7.13 15.2499C6.94 15.2199 6.11 15.0999 5.4 15.8099L4 17.2199L9.12 22.4099C9.49 22.7899 10 22.9999 10.53 22.9999H17.08C18.06 22.9999 18.89 22.2999 19.05 21.3299L19.97 15.8899C20.12 15.0299 19.68 14.1699 18.89 13.7699ZM17.08 20.9999H10.53L6.83 17.2199L11 18.1099V7.49988C11 7.21988 11.22 6.99988 11.5 6.99988C11.78 6.99988 12 7.21988 12 7.49988V13.6799H13.76L18 15.5599L17.08 20.9999Z" fill="currentColor" />
</svg>
