<svg width="24" height="24" viewBox="0 0 24 24" fill="none" xmlns="http://www.w3.org/2000/svg">
<path opacity="0.3" d="M5.18002 6L4.33002 9H19.67L18.82 6H5.18002Z" fill="black"/>
<path d="M21.96 9.73L20.53 4.73C20.41 4.3 20.02 4 19.57 4H4.43003C3.98003 4 3.59003 4.3 3.47003 4.73L2.04003 9.73C1.86003 10.36 2.34003 11 3.00003 11H5.20003L4.00003 20H6.00003L6.67003 15H17.34L18 20H20L18.8 11H21C21.66 11 22.14 10.36 21.96 9.73ZM6.93003 13L7.20003 11H16.8L17.07 13H6.93003ZM4.33003 9L5.19003 6H18.82L19.68 9H4.33003Z" fill="black"/>
</svg>
