<svg  viewBox="0 0 24 24" fill="none" xmlns="http://www.w3.org/2000/svg">
<path opacity="0.3" d="M13.51 5H10.49L9.89 7H14.11L13.51 5Z" fill="currentColor"/>
<path opacity="0.3" d="M14.71 9H9.29L8.69 11H15.31L14.71 9Z" fill="currentColor"/>
<path opacity="0.3" d="M15.91 13H8.09L7.49 15H4V20H9V15H15V20H20V15H16.51L15.91 13Z" fill="currentColor"/>
<path d="M20 11V13H18L15 3V1H13V3H10.97V1H8.97V3.12L6 13H4V11H2V22H11V17H13V22H22V11H20ZM10.49 5H13.51L14.11 7H9.89L10.49 5ZM9.29 9H14.71L15.31 11H8.69L9.29 9ZM20 20H15V15H9V20H4V15H7.49L8.09 13H15.91L16.51 15H20V20Z" fill="currentColor"/>
</svg>
