<svg viewBox="0 0 24 24" fill="none" xmlns="http://www.w3.org/2000/svg">
<path d="M16.46 10.8004C16.58 10.7004 16.73 10.6204 16.91 10.5604C17.09 10.5004 17.31 10.4704 17.55 10.4704C17.8 10.4704 18.02 10.5104 18.21 10.5804C18.4 10.6504 18.56 10.7504 18.69 10.8704C18.82 10.9904 18.91 11.1304 18.98 11.2904C19.04 11.4504 19.08 11.6104 19.08 11.7804H21.03C21.03 11.3904 20.95 11.0304 20.79 10.6904C20.63 10.3504 20.4 10.0604 20.1 9.81039C19.8 9.56039 19.44 9.37039 19.01 9.22039C18.58 9.07039 18.09 9.00039 17.55 9.00039C17.04 9.00039 16.57 9.07039 16.16 9.21039C15.75 9.35039 15.39 9.54039 15.1 9.78039C14.81 10.0204 14.59 10.3004 14.43 10.6204C14.27 10.9404 14.2 11.2704 14.2 11.6304C14.2 11.9904 14.28 12.3104 14.43 12.5904C14.58 12.8704 14.8 13.1104 15.07 13.3204C15.34 13.5304 15.67 13.7004 16.05 13.8504C16.43 13.9904 16.86 14.1104 17.32 14.2104C17.71 14.2904 18.03 14.3804 18.27 14.4704C18.51 14.5604 18.7 14.6604 18.84 14.7604C18.97 14.8604 19.06 14.9804 19.11 15.1004C19.16 15.2204 19.18 15.3504 19.18 15.4904C19.18 15.8104 19.05 16.0604 18.78 16.2604C18.51 16.4604 18.12 16.5504 17.61 16.5504C17.39 16.5504 17.18 16.5304 16.97 16.4704C16.76 16.4204 16.57 16.3404 16.41 16.2304C16.24 16.1204 16.11 15.9704 16 15.7904C15.89 15.6104 15.83 15.3804 15.82 15.1204H13.93C13.93 15.4804 14.01 15.8304 14.17 16.1704C14.33 16.5104 14.56 16.8204 14.87 17.1004C15.18 17.3704 15.56 17.5904 16.02 17.7604C16.48 17.9304 17 18.0104 17.6 18.0104C18.13 18.0104 18.61 17.9504 19.04 17.8204C19.47 17.6904 19.84 17.5104 20.15 17.2804C20.46 17.0504 20.69 16.7704 20.86 16.4504C21.03 16.1304 21.11 15.7804 21.11 15.3904C21.09 14.9904 21.02 14.6504 20.87 14.3704C20.73 14.0904 20.52 13.8404 20.24 13.6304C19.96 13.4204 19.63 13.2404 19.23 13.1004C18.83 12.9604 18.38 12.8304 17.88 12.7204C17.53 12.6504 17.24 12.5704 17.01 12.4904C16.78 12.4104 16.6 12.3304 16.46 12.2404C16.32 12.1504 16.23 12.0504 16.18 11.9404C16.13 11.8304 16.1 11.7004 16.1 11.5504C16.1 11.4004 16.13 11.2704 16.19 11.1404C16.25 11.0104 16.34 10.8904 16.46 10.8004ZM8.12 16.5104C7.83 16.5104 7.56 16.4704 7.32 16.3804C7.08 16.3004 6.88 16.1804 6.71 16.0204C6.54 15.8604 6.41 15.6804 6.32 15.4604C6.23 15.2404 6.18 15.0004 6.18 14.7404H4.19C4.19 15.2904 4.3 15.7704 4.51 16.1904C4.72 16.6104 5.01 16.9604 5.37 17.2404C5.73 17.5204 6.14 17.7304 6.61 17.8704C7.08 18.0104 7.57 18.0804 8.09 18.0804C8.66 18.0804 9.18 18.0004 9.67 17.8504C10.16 17.7004 10.58 17.4704 10.93 17.1704C11.29 16.8704 11.57 16.5104 11.77 16.0704C11.97 15.6404 12.07 15.1404 12.07 14.5904C12.07 14.3004 12.03 14.0104 11.96 13.7304C11.88 13.4804 11.77 13.2204 11.61 12.9704C11.45 12.7304 11.25 12.5104 10.99 12.3204C10.74 12.1304 10.43 11.9704 10.06 11.8404C10.36 11.7004 10.63 11.5404 10.86 11.3404C11.09 11.1404 11.28 10.9304 11.43 10.7004C11.58 10.4704 11.7 10.2404 11.77 9.99039C11.85 9.75039 11.88 9.50039 11.88 9.26039C11.88 8.71039 11.79 8.22039 11.6 7.80039C11.42 7.38039 11.16 7.03039 10.82 6.74039C10.49 6.46039 10.09 6.24039 9.62 6.10039C9.17 5.97039 8.65 5.90039 8.09 5.90039C7.54 5.90039 7.03 5.98039 6.57 6.14039C6.1 6.31039 5.7 6.54039 5.37 6.83039C5.04 7.12039 4.77 7.46039 4.59 7.86039C4.39 8.25039 4.3 8.69039 4.3 9.15039H6.28C6.28 8.89039 6.33 8.66039 6.42 8.46039C6.51 8.26039 6.64 8.08039 6.8 7.94039C6.97 7.80039 7.16 7.69039 7.38 7.61039C7.6 7.53039 7.84 7.49039 8.11 7.49039C8.72 7.49039 9.17 7.65039 9.47 7.96039C9.77 8.27039 9.91 8.71039 9.91 9.28039C9.91 9.55039 9.87 9.80039 9.79 10.0204C9.71 10.2404 9.58 10.4304 9.41 10.5904C9.24 10.7504 9.03 10.8704 8.78 10.9604C8.53 11.0504 8.23 11.0904 7.89 11.0904H6.72V12.6604H7.9C8.24 12.6604 8.54 12.7004 8.81 12.7704C9.08 12.8504 9.31 12.9604 9.5 13.1204C9.69 13.2804 9.84 13.4804 9.94 13.7304C10.04 13.9704 10.1 14.2704 10.1 14.6004C10.1 15.2204 9.92 15.6904 9.57 16.0204C9.22 16.3504 8.73 16.5104 8.12 16.5104Z" fill="currentColor"/>
</svg>
