<svg viewBox="0 0 24 24" fill="none" xmlns="http://www.w3.org/2000/svg">
<path opacity="0.3" d="M13.28 8.49906L14.04 9.07906L14.96 8.84906L13 14.7991V8.28906L13.28 8.49906ZM9.03003 8.85906L11 14.7991V8.28906L10.72 8.49906L9.96003 9.08906L9.03003 8.85906Z" fill="currentColor"/>
<path d="M14.5 6.92L13 5.77V3.88V3.4C13 3.14 13.22 2.92 13.5 2.92C13.78 2.92 14 3.13 14 3.4V4H16V3.4C16 2.07 14.88 1 13.5 1C12.12 1 11 2.07 11 3.4V3.88V5.77L9.5 6.92L6 6.07L11.05 21.32C11.2 21.77 11.6 22 12 22C12.4 22 12.8 21.77 12.95 21.31L18 6.07L14.5 6.92ZM13.28 8.5L14.04 9.08L14.96 8.85L13 14.8V8.29L13.28 8.5ZM9.96 9.09L10.72 8.51L11 8.29V14.8L9.03 8.86L9.96 9.09Z" fill="currentColor"/>
</svg>
