<svg  viewBox="0 0 24 24" fill="none" xmlns="http://www.w3.org/2000/svg">
<path opacity="0.3" d="M12 17C9.96 17 8.19 15.76 7.42 14H4V19H20V14H16.58C15.81 15.76 14.04 17 12 17Z" fill="currentColor"/>
<path d="M21.16 7.25961L19.75 5.84961L16.19 9.39961L17.6 10.8096C17.6 10.8096 21.05 7.28961 21.16 7.25961Z" fill="currentColor"/>
<path d="M13 3H11V8H13V3Z" fill="currentColor"/>
<path d="M20 12H15C15 13.66 13.66 15 12 15C10.34 15 9 13.66 9 12H4C2.9 12 2 12.9 2 14V19C2 20.1 2.9 21 4 21H20C21.1 21 22 20.1 22 19V14C22 12.9 21.1 12 20 12ZM20 19H4V14H7.42C8.19 15.76 9.96 17 12 17C14.04 17 15.81 15.76 16.58 14H20V19Z" fill="currentColor"/>
<path d="M6.40003 10.8098L7.81003 9.39984L4.26003 5.83984L2.84003 7.25984C2.95003 7.28984 6.40003 10.8098 6.40003 10.8098Z" fill="currentColor"/>
</svg>
