<svg viewBox="0 0 24 24" fill="none" xmlns="http://www.w3.org/2000/svg">
    <path opacity="0.3" d="M18.49 9.87979L18.57 9.02978L18.75 7.07978L16.85 6.64979L16.01 6.45978L15.57 5.71978L14.58 4.03978L12.79 4.79979L12 5.13978L11.21 4.79979L9.41997 4.02979L8.42997 5.70978L7.98997 6.44978L7.14997 6.63978L5.24997 7.06979L5.42997 9.00979L5.50997 9.85978L4.94997 10.5098L3.65997 11.9898L4.94997 13.4598L5.50997 14.1098L5.42997 14.9598L5.24997 16.9198L7.14997 17.3498L7.98997 17.5398L8.42997 18.2798L9.41997 19.9498L11.2 19.1798L12 18.8498L12.79 19.1898L14.57 19.9598L15.56 18.2798L16 17.5398L16.84 17.3498L18.74 16.9198L18.56 14.9698L18.48 14.1198L19.04 13.4698L20.33 11.9998L19.04 10.5298L18.49 9.87979ZM10.09 16.7198L6.28997 12.9098L7.76997 11.4298L10.09 13.7598L15.94 7.88978L17.42 9.36978L10.09 16.7198Z" fill="currentColor" />
    <path d="M23 11.99L20.56 9.2L20.9 5.51L17.29 4.69L15.4 1.5L12 2.96L8.6 1.5L6.71 4.69L3.1 5.5L3.44 9.2L1 11.99L3.44 14.78L3.1 18.48L6.71 19.3L8.6 22.5L12 21.03L15.4 22.49L17.29 19.3L20.9 18.48L20.56 14.79L23 11.99ZM19.05 13.47L18.49 14.12L18.57 14.97L18.75 16.92L16.85 17.35L16.01 17.54L15.57 18.28L14.58 19.96L12.8 19.19L12 18.85L11.21 19.19L9.43 19.96L8.44 18.29L8 17.55L7.16 17.36L5.26 16.93L5.44 14.97L5.52 14.12L4.96 13.47L3.67 12L4.96 10.52L5.52 9.87L5.43 9.01L5.25 7.07L7.15 6.64L7.99 6.45L8.43 5.71L9.42 4.03L11.2 4.8L12 5.14L12.79 4.8L14.57 4.03L15.56 5.71L16 6.45L16.84 6.64L18.74 7.07L18.56 9.02L18.48 9.87L19.04 10.52L20.33 11.99L19.05 13.47Z" fill="currentColor" />
    <path d="M10.09 13.7501L7.76998 11.4201L6.28998 12.9101L10.09 16.7201L17.43 9.36012L15.95 7.87012L10.09 13.7501Z" fill="currentColor" />
</svg>
