<svg width="24" height="24" viewBox="0 0 24 24" fill="none" xmlns="http://www.w3.org/2000/svg">
<path opacity="0.3" d="M10.83 8L18.83 16H20V8H10.83ZM17.5 12C16.67 12 16 11.33 16 10.5C16 9.67 16.67 9 17.5 9C18.33 9 19 9.67 19 10.5C19 11.33 18.33 12 17.5 12ZM13.17 16L10.17 13H9V15H7V13H5V11H7V9.83L5.17 8H4V16H13.17Z" fill="black"/>
<path d="M17.5 8.99957C18.33 8.99957 19 9.66957 19 10.4996C19 11.3296 18.33 11.9996 17.5 11.9996C16.67 11.9996 16 11.3296 16 10.4996C16 9.66957 16.67 8.99957 17.5 8.99957ZM10.83 7.99957H20V15.9996H18.83L20.7 17.8696C21.45 17.5796 22 16.8496 22 15.9996V7.99957C22 6.89957 21.1 5.99957 20 5.99957H8.83001L10.83 7.99957ZM19.78 22.6096L15.17 17.9996H4.00001C2.90001 17.9996 2.00001 17.0996 2.00001 15.9996V7.99957C2.00001 7.14957 2.55001 6.41957 3.30001 6.12957L1.39001 4.21957L2.80001 2.80957L21.18 21.1896L19.78 22.6096ZM13.17 15.9996L10.17 12.9996H9.00001V14.9996H7.00001V12.9996H5.00001V10.9996H7.00001V9.82957L5.17001 7.99957H4.00001V15.9996H13.17Z" fill="black"/>
</svg>
