<svg  viewBox="0 0 24 24" fill="none" xmlns="http://www.w3.org/2000/svg">
<path opacity="0.3" d="M12.39 8L15 10.61V8H12.39ZM5 8V16H14.73L6.73 8H5Z" fill="currentColor"/>
<path d="M3.41 1.85986L2 3.26986L4.73 5.99986H4C3.45 5.99986 3 6.44986 3 6.99986V16.9999C3 17.5499 3.45 17.9999 4 17.9999H16C16.21 17.9999 16.39 17.9199 16.55 17.8199L19.73 20.9999L21.14 19.5899L3.41 1.85986ZM5 15.9999V7.99986H6.73L14.73 15.9999H5ZM15 7.99986V10.6099L21 16.6099V6.49986L17 10.4999V6.99986C17 6.44986 16.55 5.99986 16 5.99986H10.39L12.39 7.99986H15Z" fill="currentColor"/>
</svg>
