<svg  viewBox="0 0 24 24" fill="none" xmlns="http://www.w3.org/2000/svg">
<path opacity="0.3" d="M13.89 5.27L13.51 4H10.49L10.11 5.27C11.93 4.76 13.34 5.11 13.89 5.27Z" fill="currentColor"/>
<path opacity="0.3" d="M10.11 18.7305L10.49 20.0005H13.51L13.89 18.7305C12.07 19.2405 10.66 18.8905 10.11 18.7305Z" fill="currentColor"/>
<path d="M12 7C14.76 7 17 9.24 17 12C17 12.64 16.87 13.25 16.65 13.82L18.15 15.32C18.69 14.33 19 13.2 19 12C19 9.78 17.97 7.81 16.36 6.53L15 2H9.00004L8.04004 5.21L10.18 7.35C10.75 7.13 11.36 7 12 7ZM10.49 4H13.51L13.89 5.27C13.34 5.11 11.92 4.76 10.11 5.27L10.49 4Z" fill="currentColor"/>
<path d="M2.81001 2.80957L1.39001 4.21957L5.85001 8.67957C5.31001 9.66957 5.00001 10.7996 5.00001 11.9996C5.00001 14.2196 6.03001 16.1896 7.64001 17.4696L9.00001 21.9996H15L15.96 18.7896L19.78 22.6096L21.19 21.1996L2.81001 2.80957ZM13.51 19.9996H10.49L10.11 18.7296C10.66 18.8796 12.08 19.2396 13.89 18.7296L13.51 19.9996ZM12 16.9996C9.24001 16.9996 7.00001 14.7596 7.00001 11.9996C7.00001 11.3596 7.13001 10.7496 7.35001 10.1796L13.82 16.6496C13.25 16.8696 12.64 16.9996 12 16.9996Z" fill="currentColor"/>
</svg>
