<svg viewBox="0 0 24 24" fill="none" xmlns="http://www.w3.org/2000/svg">
<path opacity="0.3" d="M12 5.68945L7 10.1895V17.9995H17V10.1895L12 5.68945ZM12 15.9995C10.9 15.9995 10 15.0995 10 13.9995C10 12.8995 12 9.99945 12 9.99945C12 9.99945 14 12.8995 14 13.9995C14 15.0995 13.1 15.9995 12 15.9995Z" fill="currentColor"/>
<path d="M12 3L2 12H5V20H19V12H22L12 3ZM7 18V10.19L12 5.69L17 10.19V18H7ZM14 14C14 15.1 13.1 16 12 16C10.9 16 10 15.1 10 14C10 12.9 12 10 12 10C12 10 14 12.9 14 14Z" fill="currentColor"/>
</svg>
