<svg viewBox="0 0 24 24" fill="none" xmlns="http://www.w3.org/2000/svg">
<path opacity="0.3" d="M14 8.59078L13 8.01078V4.05078H11V8.01078L10 8.59078C8.76 9.31078 8 10.6308 8 12.0508C8 14.2608 9.79 16.0508 12 16.0508C14.21 16.0508 16 14.2608 16 12.0508C16 10.6308 15.23 9.31078 14 8.59078Z" fill="currentColor"/>
<path d="M3.55 19.0908L4.96 20.5008L6.75 18.7008L5.34 17.2908L3.55 19.0908ZM11 20.0008H13V23.0008H11V20.0008ZM1 11.0008H4V13.0008H1V11.0008ZM15 6.86078V2.05078H9V6.86078C7.21 7.90078 6 9.83078 6 12.0508C6 15.3608 8.69 18.0508 12 18.0508C15.31 18.0508 18 15.3608 18 12.0508C18 9.83078 16.79 7.90078 15 6.86078ZM12 16.0508C9.79 16.0508 8 14.2608 8 12.0508C8 10.6308 8.77 9.31078 10 8.59078L11 8.01078V4.05078H13V8.01078L14 8.59078C15.24 9.31078 16 10.6308 16 12.0508C16 14.2608 14.21 16.0508 12 16.0508ZM20 11.0008H23V13.0008H20V11.0008ZM17.24 18.7108L19.03 20.5108L20.44 19.1008L18.64 17.3108L17.24 18.7108Z" fill="currentColor"/>
</svg>
