<svg viewBox="0 0 24 24" fill="none" xmlns="http://www.w3.org/2000/svg">
<path opacity="0.3" d="M12 7.5C9.79 7.5 8 9.29 8 11.5C8 13.71 9.79 15.5 12 15.5C14.21 15.5 16 13.71 16 11.5C16 9.29 14.21 7.5 12 7.5Z" fill="currentColor"/>
<path d="M5.34 6.25078L6.76 4.84078L4.96 3.05078L3.55 4.46078L5.34 6.25078ZM1 10.5008H4V12.5008H1V10.5008ZM11 0.550781H13V3.50078H11V0.550781ZM18.66 6.25578L17.25 4.84878L19.04 3.05878L20.446 4.46878L18.66 6.25578ZM17.24 18.1608L19.03 19.9608L20.44 18.5508L18.64 16.7608L17.24 18.1608ZM20 10.5008H23V12.5008H20V10.5008ZM12 5.50078C8.69 5.50078 6 8.19078 6 11.5008C6 14.8108 8.69 17.5008 12 17.5008C15.31 17.5008 18 14.8108 18 11.5008C18 8.19078 15.31 5.50078 12 5.50078ZM12 15.5008C9.79 15.5008 8 13.7108 8 11.5008C8 9.29078 9.79 7.50078 12 7.50078C14.21 7.50078 16 9.29078 16 11.5008C16 13.7108 14.21 15.5008 12 15.5008ZM11 19.5008H13V22.4508H11V19.5008ZM3.55 18.5408L4.96 19.9508L6.75 18.1508L5.34 16.7408L3.55 18.5408Z" fill="currentColor"/>
</svg>
