<svg  viewBox="0 0 24 24" fill="none" xmlns="http://www.w3.org/2000/svg">
<path opacity="0.3" d="M5 4.99953H9V8.99953H5V4.99953ZM15 14.9995H19V18.9995H15V14.9995ZM5 14.9995H9V18.9995H5V14.9995ZM16.66 4.51953L13.83 7.33953L16.66 10.1695L19.49 7.33953L16.66 4.51953Z" fill="currentColor"/>
<path d="M16.66 1.69043L11 7.34043L16.66 13.0004L22.32 7.34043L16.66 1.69043ZM13.83 7.34043L16.66 4.51043L19.49 7.34043L16.66 10.1704L13.83 7.34043ZM3 3.00043V11.0004H11V3.00043H3ZM9 9.00043H5V5.00043H9V9.00043ZM3 21.0004H11V13.0004H3V21.0004ZM5 15.0004H9V19.0004H5V15.0004ZM13 13.0004V21.0004H21V13.0004H13ZM19 19.0004H15V15.0004H19V19.0004Z" fill="currentColor"/>
</svg>
