<svg  viewBox="0 0 24 24" fill="none" xmlns="http://www.w3.org/2000/svg">
<path d="M2.81001 2.80957L1.39001 4.21957L4.08001 6.90957C2.78001 8.59957 2.00001 10.7096 2.00001 12.9996C2.00001 15.7596 3.12001 18.2596 4.93001 20.0696L6.35001 18.6496C4.90001 17.2096 4.00001 15.2096 4.00001 12.9996C4.00001 11.2496 4.57001 9.64957 5.51002 8.33957L6.94001 9.76957C6.35001 10.6996 6.00001 11.8096 6.00001 12.9996C6.00001 14.6596 6.68002 16.1496 7.76002 17.2396L9.18002 15.8196C8.45002 15.0996 8.00001 14.1096 8.00001 12.9996C8.00001 12.3696 8.15001 11.7696 8.41001 11.2396L10.02 12.8496C10.02 12.8996 10 12.9496 10 12.9996C10 13.5496 10.23 14.0496 10.59 14.4096C10.95 14.7696 11.45 14.9996 12 14.9996C12.05 14.9996 12.1 14.9896 12.16 14.9796L19.78 22.5996L21.19 21.1896L2.81001 2.80957ZM17.7 14.8696C17.89 14.2796 18 13.6496 18 12.9996C18 9.68957 15.31 6.99957 12 6.99957C11.35 6.99957 10.72 7.09957 10.13 7.29957L11.84 9.00957C11.89 8.99957 11.95 8.99957 12 8.99957C14.21 8.99957 16 10.7896 16 12.9996C16 13.0496 16 13.1096 15.99 13.1596L17.7 14.8696ZM12 4.99957C16.42 4.99957 20 8.57957 20 12.9996C20 14.2196 19.73 15.3696 19.23 16.3996L20.72 17.8896C21.53 16.4496 22 14.7796 22 12.9996C22 7.47957 17.52 2.99957 12 2.99957C10.22 2.99957 8.56001 3.45957 7.11001 4.27957L8.59001 5.75957C9.63001 5.26957 10.78 4.99957 12 4.99957Z" fill="currentColor"/>
</svg>
