<svg viewBox="0 0 24 24" fill="none" xmlns="http://www.w3.org/2000/svg">
    <path opacity="0.3" d="M4 8V19H17.74L6.74 8H4ZM12.4 8L20 15.6V8H12.4Z" fill="currentColor" />
    <path d="M10 3.99984H14V5.99984H10.4L12.4 7.99984H20V15.5998L22 17.5998V7.99984C22 6.88984 21.11 5.99984 20 5.99984H16V3.99984C16 2.88984 15.11 1.99984 14 1.99984H10C9.01001 1.99984 8.20001 2.69984 8.04001 3.63984L10 5.59984V3.99984ZM3.40001 1.83984L1.99001 3.24984L4.74001 5.99984H4.00001C2.89001 5.99984 2.01001 6.88984 2.01001 7.99984L2.00001 18.9998C2.00001 20.1098 2.89001 20.9998 4.00001 20.9998H19.74L21.74 22.9998L23.15 21.5898L3.40001 1.83984ZM4.00001 18.9998V7.99984H6.74001L17.74 18.9998H4.00001Z" fill="currentColor" />
</svg>
