<svg  viewBox="0 0 24 24" fill="none" xmlns="http://www.w3.org/2000/svg">
<path opacity="0.3" d="M4 20H20V4H4V20ZM8 8.22C8 7.36 8.7 6.66 9.56 6.66C9.89 6.66 10.2 6.76 10.45 6.94L10.44 6.82C10.44 5.96 11.14 5.26 12 5.26C12.86 5.26 13.56 5.96 13.56 6.82L13.55 6.94C13.81 6.76 14.11 6.66 14.44 6.66C15.3 6.66 16 7.36 16 8.22C16 8.84 15.63 9.38 15.11 9.62C15.63 9.87 16 10.41 16 11.03C16 11.89 15.3 12.59 14.44 12.59C14.11 12.59 13.8 12.48 13.55 12.31L13.56 12.43C13.56 13.29 12.86 13.99 12 13.99C11.14 13.99 10.44 13.29 10.44 12.43L10.45 12.31C10.19 12.49 9.89 12.59 9.56 12.59C8.7 12.59 8 11.89 8 11.03C8 10.41 8.37 9.87 8.89 9.63C8.37 9.38 8 8.84 8 8.22ZM12 19C12 15.69 14.69 13 18 13C18 16.31 15.31 19 12 19C8.69 19 6 16.31 6 13C9.31 13 12 15.69 12 19Z" fill="currentColor"/>
<path d="M8 11.0298C8 11.8898 8.7 12.5898 9.56 12.5898C9.89 12.5898 10.19 12.4898 10.45 12.3098L10.44 12.4298C10.44 13.2898 11.14 13.9898 12 13.9898C12.86 13.9898 13.56 13.2898 13.56 12.4298L13.55 12.3098C13.8 12.4798 14.11 12.5898 14.44 12.5898C15.3 12.5898 16 11.8898 16 11.0298C16 10.4098 15.63 9.86977 15.11 9.61977C15.63 9.37977 16 8.83977 16 8.21977C16 7.35977 15.3 6.65977 14.44 6.65977C14.11 6.65977 13.81 6.75977 13.55 6.93977L13.56 6.81977C13.56 5.95977 12.86 5.25977 12 5.25977C11.14 5.25977 10.44 5.95977 10.44 6.81977L10.45 6.93977C10.2 6.75977 9.89 6.65977 9.56 6.65977C8.7 6.65977 8 7.35977 8 8.21977C8 8.83977 8.37 9.37977 8.89 9.62977C8.37 9.86977 8 10.4098 8 11.0298ZM12 8.05977C12.86 8.05977 13.56 8.75977 13.56 9.61977C13.56 10.4798 12.86 11.1798 12 11.1798C11.14 11.1798 10.44 10.4798 10.44 9.61977C10.44 8.75977 11.14 8.05977 12 8.05977Z" fill="currentColor"/>
<path d="M18 13C14.69 13 12 15.69 12 19C15.31 19 18 16.31 18 13Z" fill="currentColor"/>
<path d="M12 19C12 15.69 9.31 13 6 13C6 16.31 8.69 19 12 19Z" fill="currentColor"/>
<path d="M20 2H4C2.9 2 2 2.9 2 4V20C2 21.1 2.9 22 4 22H20C21.1 22 22 21.1 22 20V4C22 2.9 21.1 2 20 2ZM20 20H4V4H20V20Z" fill="currentColor"/>
</svg>
