<svg viewBox="0 0 24 24" fill="none" xmlns="http://www.w3.org/2000/svg">
<path d="M22.5013 1.49902L20.0013 2.89902L17.5013 1.49902L18.9013 3.99902L17.5013 6.49902L20.0013 5.09902L22.5013 6.49902L21.1013 3.99902L22.5013 1.49902ZM14.8713 6.78902C14.4813 6.39902 13.8513 6.39902 13.4613 6.78902L1.79128 18.459C1.40128 18.849 1.40128 19.479 1.79128 19.869L4.13128 22.209C4.52128 22.599 5.15128 22.599 5.54128 22.209L17.2013 10.549C17.5913 10.159 17.5913 9.52902 17.2013 9.13902L14.8713 6.78902ZM13.8413 12.279L11.7213 10.159L14.1613 7.71902L16.2813 9.83902L13.8413 12.279Z" fill="currentColor"/>
</svg>
