<svg viewBox="0 0 24 24" fill="none" xmlns="http://www.w3.org/2000/svg">
<path d="M22.5013 1.49902L20.0013 2.89902L17.5013 1.49902L18.9013 3.99902L17.5013 6.49902L20.0013 5.09902L22.5013 6.49902L21.1013 3.99902L22.5013 1.49902ZM14.1613 7.71902L16.2813 9.83902L13.8413 12.279L14.6513 13.089L17.2013 10.539C17.5913 10.149 17.5913 9.51902 17.2013 9.12902L14.8613 6.78902C14.4713 6.39902 13.8413 6.39902 13.4513 6.78902L10.9013 9.33902L11.7113 10.149L14.1613 7.71902ZM2.77128 3.75902L1.50128 5.02902L8.36128 11.889L1.79128 18.459C1.40128 18.849 1.40128 19.479 1.79128 19.869L4.13128 22.209C4.52128 22.599 5.15128 22.599 5.54128 22.209L12.1113 15.639L18.9713 22.499L20.2413 21.229L2.77128 3.75902Z" fill="currentColor"/>
</svg>
