<svg  viewBox="0 0 24 24" fill="none" xmlns="http://www.w3.org/2000/svg">
<path fill-rule="evenodd" clip-rule="evenodd" d="M19.285 16.5861C18.075 15.6961 17.465 15.2461 17.465 15.2461C17.465 15.2461 17.785 14.6561 18.425 13.4661C18.805 12.8761 19.645 12.8761 20.025 13.4661L20.835 14.7261C21.025 15.0261 21.045 15.4061 20.895 15.7261L20.675 16.1961C20.425 16.7361 19.765 16.9161 19.285 16.5861ZM4.725 16.5861C4.245 16.9161 3.595 16.7361 3.335 16.2061L3.105 15.7361C2.955 15.4161 2.975 15.0361 3.165 14.7361L3.975 13.4761C4.355 12.8861 5.195 12.8861 5.575 13.4761C6.225 14.6561 6.545 15.2461 6.545 15.2461C6.545 15.2461 5.935 15.6961 4.725 16.5861ZM15.365 9.61609C15.455 8.93609 16.095 8.55609 16.635 8.86609L18.225 9.76609C18.685 10.0261 18.855 10.6761 18.585 11.1761L16.505 15.2461H14.705L15.365 9.61609ZM8.635 9.61609L9.305 15.2461H7.505L5.415 11.1661C5.145 10.6661 5.315 10.0161 5.775 9.75609L7.365 8.85609C7.895 8.55609 8.545 8.93609 8.635 9.61609ZM13.805 15.2461H10.205L9.465 8.36609C9.395 7.77609 9.815 7.24609 10.345 7.24609H13.645C14.175 7.24609 14.585 7.77609 14.525 8.36609L13.805 15.2461Z" fill="currentColor"/>
</svg>
