<svg viewBox="0 0 24 24" fill="none" xmlns="http://www.w3.org/2000/svg">
<path d="M13.1279 14.5588L14.5579 13.1288L20.9979 19.5718L19.5709 20.9988L13.1279 14.5588ZM17.4209 8.82876L20.2809 5.96876C16.3309 2.01876 9.93088 2.00876 5.98088 5.94876C9.91088 4.64876 14.2909 5.69876 17.4209 8.82876ZM5.95088 5.97876C2.01088 9.92876 2.02088 16.3288 5.97088 20.2788L8.83088 17.4188C5.70088 14.2888 4.65088 9.90876 5.95088 5.97876ZM5.97088 5.95876L5.96088 5.96876C5.58088 8.97876 7.13088 12.8488 10.2609 15.9888L15.9909 10.2588C12.8609 7.12876 8.98088 5.57876 5.97088 5.95876Z" fill="currentColor"/>
</svg>
