<svg  viewBox="0 0 24 24" fill="none" xmlns="http://www.w3.org/2000/svg">
<path d="M16.0269 1C14.888 0.999847 13.7663 1.27756 12.7591 1.80906C11.7518 2.34056 10.8895 3.10978 10.2469 4.05L10.2669 4.02C9.86686 4 9.44686 4 9.02686 4C4.60686 4 1.02686 4.5 1.02686 8V18C1.02686 18.88 1.41686 19.67 2.02686 20.22V22C2.02686 22.2652 2.13221 22.5196 2.31975 22.7071C2.50728 22.8946 2.76164 23 3.02686 23H4.02686C4.29207 23 4.54643 22.8946 4.73396 22.7071C4.9215 22.5196 5.02686 22.2652 5.02686 22V21H13.0269V22C13.0269 22.2652 13.1322 22.5196 13.3197 22.7071C13.5073 22.8946 13.7616 23 14.0269 23H15.0269C15.2921 23 15.5464 22.8946 15.734 22.7071C15.9215 22.5196 16.0269 22.2652 16.0269 22V20.22C16.6369 19.67 17.0269 18.88 17.0269 18V14.92C18.7672 14.655 20.3437 13.7439 21.4424 12.3685C22.541 10.993 23.0811 9.25407 22.955 7.49821C22.8288 5.74235 22.0457 4.09849 20.7618 2.89418C19.4778 1.68987 17.7872 1.01356 16.0269 1ZM4.52686 19C4.12903 19 3.7475 18.842 3.4662 18.5607C3.18489 18.2794 3.02686 17.8978 3.02686 17.5C3.02686 17.1022 3.18489 16.7206 3.4662 16.4393C3.7475 16.158 4.12903 16 4.52686 16C4.92468 16 5.30621 16.158 5.58752 16.4393C5.86882 16.7206 6.02686 17.1022 6.02686 17.5C6.02686 17.8978 5.86882 18.2794 5.58752 18.5607C5.30621 18.842 4.92468 19 4.52686 19ZM3.02686 13V8H9.02686C9.02686 9.96 9.83685 11.73 11.1369 13H3.02686ZM13.5269 19C13.129 19 12.7475 18.842 12.4662 18.5607C12.1849 18.2794 12.0269 17.8978 12.0269 17.5C12.0269 17.1022 12.1849 16.7206 12.4662 16.4393C12.7475 16.158 13.129 16 13.5269 16C13.9247 16 14.3062 16.158 14.5875 16.4393C14.8688 16.7206 15.0269 17.1022 15.0269 17.5C15.0269 17.8978 14.8688 18.2794 14.5875 18.5607C14.3062 18.842 13.9247 19 13.5269 19ZM16.0269 13C14.7008 13 13.429 12.4732 12.4913 11.5355C11.5536 10.5979 11.0269 9.32608 11.0269 8C11.0269 6.67392 11.5536 5.40215 12.4913 4.46447C13.429 3.52678 14.7008 3 16.0269 3C17.3529 3 18.6247 3.52678 19.5624 4.46447C20.5001 5.40215 21.0269 6.67392 21.0269 8C21.0269 9.32608 20.5001 10.5979 19.5624 11.5355C18.6247 12.4732 17.3529 13 16.0269 13ZM15.0269 4H17.0269V9H15.0269V4ZM15.0269 10H17.0269V12H15.0269V10Z" fill="currentColor"/>
</svg>
