<svg  viewBox="0 0 24 24" fill="none" xmlns="http://www.w3.org/2000/svg">
<path d="M7.54498 3.2901H19.715C20.815 3.2901 21.715 4.1901 21.715 5.2901V17.2901C21.715 17.3401 21.705 17.3901 21.695 17.4501L18.315 14.0701C18.555 13.8801 18.715 13.6101 18.715 13.2901V12.2901H17.215V12.7901H17.045L15.215 10.9601V9.7901H17.215V10.2901H18.715V9.2901C18.715 8.7401 18.265 8.2901 17.715 8.2901H14.715C14.165 8.2901 13.715 8.7401 13.715 9.2901V9.4601L7.54498 3.2901ZM20.495 21.9001L17.885 19.2901H5.71498C4.60498 19.2901 3.71498 18.3901 3.71498 17.2901V5.2901C3.71498 5.2401 3.73498 5.1901 3.73498 5.1401L2.10498 3.5101L3.51498 2.1001L21.895 20.4801L20.495 21.9001ZM11.715 13.1201L10.885 12.2901H10.215V12.7901H8.21498V9.7901H8.38498L7.11498 8.5101C6.87498 8.7001 6.71498 8.9701 6.71498 9.2901V13.2901C6.71498 13.8401 7.16498 14.2901 7.71498 14.2901H10.715C11.265 14.2901 11.715 13.8401 11.715 13.2901V13.1201Z" fill="currentColor"/>
</svg>
