<svg width="24" height="24" viewBox="0 0 24 24" fill="none" xmlns="http://www.w3.org/2000/svg">
<path d="M17.485 13.3452H18.655V11.3452H15.485L14.485 10.3452H18.655V8.34521H12.485L11.485 7.34521H18.655V5.34521H9.48497L5.48497 1.34521H20.655C21.755 1.34521 22.655 2.24521 22.655 3.34521V18.5152L17.485 13.3452ZM2.75497 1.44521L1.34497 2.85521L2.65497 4.17521V15.3452C2.65497 16.4452 3.55497 17.3452 4.65497 17.3452H15.825L21.135 22.6552L22.545 21.2452L2.75497 1.44521ZM6.65497 8.34521H6.82497L8.82497 10.3452H6.65497V8.34521ZM6.65497 13.3452V11.3452H9.82497L11.825 13.3452H6.65497Z" fill="black"/>
</svg>
