<svg  viewBox="0 0 24 24" fill="none" xmlns="http://www.w3.org/2000/svg">
<path d="M21.9498 11.0043C20.1598 10.9743 18.2498 9.05429 19.2698 6.78429C16.2898 7.78429 13.4998 5.19429 14.0798 2.22429C6.94976 0.724288 1.99976 6.59429 1.99976 12.0143C1.99976 17.5343 6.47976 22.0143 11.9998 22.0143C17.8898 22.0143 22.5398 16.9343 21.9498 11.0043ZM8.49976 15.0143C7.66976 15.0143 6.99976 14.3443 6.99976 13.5143C6.99976 12.6843 7.66976 12.0143 8.49976 12.0143C9.32976 12.0143 9.99976 12.6843 9.99976 13.5143C9.99976 14.3443 9.32976 15.0143 8.49976 15.0143ZM10.4998 10.0143C9.66976 10.0143 8.99976 9.34429 8.99976 8.51429C8.99976 7.68429 9.66976 7.01429 10.4998 7.01429C11.3298 7.01429 11.9998 7.68429 11.9998 8.51429C11.9998 9.34429 11.3298 10.0143 10.4998 10.0143ZM14.9998 16.0143C14.4498 16.0143 13.9998 15.5643 13.9998 15.0143C13.9998 14.4643 14.4498 14.0143 14.9998 14.0143C15.5498 14.0143 15.9998 14.4643 15.9998 15.0143C15.9998 15.5643 15.5498 16.0143 14.9998 16.0143Z" fill="currentColor"/>
</svg>
