<svg viewBox="0 0 24 24" fill="none" xmlns="http://www.w3.org/2000/svg">
<path d="M9.71751 6.27836L12.3075 3.69836L20.3075 11.6984L17.7275 14.2884L19.1375 15.6984L21.7175 13.1084C22.4975 12.3284 22.4975 11.0584 21.7175 10.2784L13.7175 2.27836C12.9375 1.49836 11.6675 1.49836 10.8875 2.27836L8.30751 4.86836L9.71751 6.27836Z" fill="currentColor"/>
<path d="M3.11751 2.50836L1.69751 3.91836L5.47751 7.69836L2.89751 10.2884C2.11751 11.0684 2.11751 12.3384 2.89751 13.1184L10.8975 21.1184C11.6775 21.8984 12.9475 21.8984 13.7275 21.1184L16.3075 18.5284L20.0875 22.3084L21.4975 20.8984L3.11751 2.50836ZM12.3075 19.6984L4.30751 11.6984L6.88751 9.10836L8.47751 10.6984H7.30751V12.6984H10.4775L11.9775 14.1984L10.8975 15.2884L12.3075 16.6984L13.3975 15.6084L14.8975 17.1084L12.3075 19.6984Z" fill="currentColor"/>
<path d="M12.3129 6.6967L11.224 7.78563L16.2232 12.7848L17.3121 11.6959L12.3129 6.6967Z" fill="currentColor"/>
</svg>
