<svg width="24" height="30" viewBox="0 0 24 30" fill="none" xmlns="http://www.w3.org/2000/svg">
<g filter="url(#filter0_d_425_88355)">
<path d="M12 2.5C8 2.5 4 3 4 6.5V16C4 17.93 5.57 19.5 7.5 19.5L6 20.5V21.5H18V20.5L16.5 19.5C18.43 19.5 20 17.93 20 16V6.5C20 3 16.42 2.5 12 2.5ZM8.5 16.5C7.67 16.5 7 15.83 7 15C7 14.17 7.67 13.5 8.5 13.5C9.33 13.5 10 14.17 10 15C10 15.83 9.33 16.5 8.5 16.5ZM11 10.5H6V7.5H11V10.5ZM15.5 16.5C14.67 16.5 14 15.83 14 15C14 14.17 14.67 13.5 15.5 13.5C16.33 13.5 17 14.17 17 15C17 15.83 16.33 16.5 15.5 16.5ZM18 10.5H13V7.5H18V10.5Z" fill="currentColor"/>
</g>
<defs>
<filter id="filter0_d_425_88355" x="-4" y="0" width="32" height="32" filterUnits="userSpaceOnUse" color-interpolation-filters="sRGB">
<feFlood flood-opacity="0" result="BackgroundImageFix"/>
<feColorMatrix in="SourceAlpha" type="matrix" values="0 0 0 0 0 0 0 0 0 0 0 0 0 0 0 0 0 0 127 0" result="hardAlpha"/>
<feOffset dy="4"/>
<feGaussianBlur stdDeviation="2"/>
<feComposite in2="hardAlpha" operator="out"/>
<feColorMatrix type="matrix" values="0 0 0 0 0 0 0 0 0 0 0 0 0 0 0 0 0 0 0.25 0"/>
<feBlend mode="normal" in2="BackgroundImageFix" result="effect1_dropShadow_425_88355"/>
<feBlend mode="normal" in="SourceGraphic" in2="effect1_dropShadow_425_88355" result="shape"/>
</filter>
</defs>
</svg>
