<svg viewBox="0 0 24 24" fill="none" xmlns="http://www.w3.org/2000/svg">
<path d="M17.305 10.6953V12.6953H16.135L20.645 17.2053C21.695 15.6253 22.305 13.7353 22.305 11.6953C22.305 6.17531 17.825 1.69531 12.305 1.69531C10.265 1.69531 8.375 2.30531 6.795 3.35531L14.135 10.6953H17.305ZM1.695 3.91531L3.965 6.18531C2.915 7.76531 2.305 9.65531 2.305 11.6953C2.305 17.2153 6.785 21.6953 12.305 21.6953C14.345 21.6953 16.235 21.0853 17.815 20.0353L20.085 22.3053L21.495 20.8953L3.115 2.50531L1.695 3.91531ZM7.305 10.6953H8.475L10.475 12.6953H7.305V10.6953Z" fill="currentColor"/>
</svg>
