<svg viewBox="0 0 24 24" fill="none" xmlns="http://www.w3.org/2000/svg">
<path d="M1.39 3.91531L9.29 11.8153C9.47 12.0153 9.47 12.3153 9.28 12.5153C9.18 12.6153 9.05 12.6653 8.93 12.6653C8.81 12.6653 8.67 12.6153 8.58 12.5153L6.87 10.7953C6.76 11.1953 6.61 11.5753 6.42 11.9153L7.82 13.3153C8.02 13.5153 8.02 13.8253 7.82 14.0253C7.72 14.1253 7.59 14.1753 7.47 14.1753C7.35 14.1753 7.21 14.1253 7.12 14.0253L5.85 12.7553C5.61 13.0453 5.35 13.3153 5.08 13.5553L6.36 14.8353C6.56 15.0353 6.56 15.3453 6.36 15.5453C6.26 15.6453 6.13 15.6953 6 15.6953C5.87 15.6953 5.74 15.6453 5.65 15.5453L4.27 14.1653C3.58 14.6253 2.88 14.9553 2.3 15.1853C1.52 15.4953 1 16.2253 1 17.0653V19.6953H10.5L13.83 16.3653L19.77 22.3053L21.18 20.8953L2.81 2.50531L1.39 3.91531ZM18.51 15.3753L17.1 13.9653L21.58 9.48531L23 10.8953L18.51 15.3753ZM20.88 8.77531L16.4 13.2553L9.3 6.16531L13.8 1.69531L20.88 8.77531Z" fill="currentColor"/>
</svg>
