<svg viewBox="0 0 24 24" fill="none" xmlns="http://www.w3.org/2000/svg">
<path d="M13.71 10.3653L11.21 7.86531V2.44531C11.21 1.75531 11.77 1.19531 12.46 1.19531C13.15 1.19531 13.71 1.75531 13.71 2.44531V10.3653ZM20.71 5.44531C20.71 4.75531 20.15 4.19531 19.46 4.19531C18.77 4.19531 18.21 4.75531 18.21 5.44531V11.1953H17.21V3.44531C17.21 2.75531 16.65 2.19531 15.96 2.19531C15.27 2.19531 14.71 2.75531 14.71 3.44531V11.3653L20.71 17.3653V5.44531ZM10.21 4.44531C10.21 3.75531 9.65001 3.19531 8.96001 3.19531C8.29001 3.19531 7.76001 3.72531 7.72001 4.37531L10.21 6.86531V4.44531ZM13.71 10.3653L11.21 7.86531V2.44531C11.21 1.75531 11.77 1.19531 12.46 1.19531C13.15 1.19531 13.71 1.75531 13.71 2.44531V10.3653ZM20.71 5.44531C20.71 4.75531 20.15 4.19531 19.46 4.19531C18.77 4.19531 18.21 4.75531 18.21 5.44531V11.1953H17.21V3.44531C17.21 2.75531 16.65 2.19531 15.96 2.19531C15.27 2.19531 14.71 2.75531 14.71 3.44531V11.3653L20.71 17.3653V5.44531ZM10.21 4.44531C10.21 3.75531 9.65001 3.19531 8.96001 3.19531C8.29001 3.19531 7.76001 3.72531 7.72001 4.37531L10.21 6.86531V4.44531ZM21.9 21.3853L3.52001 3.00531L2.10001 4.41531L7.73001 10.0453L7.71001 10.0253V14.3253C6.60001 13.6853 5.13001 12.8553 5.11001 12.8453C4.94001 12.7553 4.77001 12.7053 4.57001 12.7053C4.31001 12.7053 4.07001 12.7953 3.87001 12.9653C3.83001 12.9753 2.71001 14.0753 2.71001 14.0753L9.51001 21.2553C10.08 21.8553 10.86 22.1953 11.69 22.1953H17.71C18.33 22.1953 18.89 22.0053 19.36 21.6753L19.34 21.6553L20.49 22.8053L21.9 21.3853Z" fill="currentColor"/>
</svg>
