<svg  viewBox="0 0 24 24" fill="none" xmlns="http://www.w3.org/2000/svg">
<path d="M12.6353 8.12543L14.5723 6.18843L18.3193 9.93543L16.3823 11.8734L12.6353 8.12543ZM21.2193 5.63043L18.8793 3.29043C18.6919 3.10418 18.4385 2.99963 18.1743 2.99963C17.9101 2.99963 17.6566 3.10418 17.4693 3.29043L15.6393 5.12043L19.3893 8.87043L21.2193 7.00043C21.3937 6.81497 21.4907 6.56999 21.4907 6.31543C21.4907 6.06086 21.3937 5.81589 21.2193 5.63043ZM2.50928 5.00043L9.13928 11.6304L3.50928 17.2504V21.0004H7.25928L12.8893 15.3804L18.5093 21.0004L20.5093 19.0004L4.50928 3.00043L2.50928 5.00043Z" fill="currentColor"/>
</svg>
