<svg viewBox="0 0 24 24" fill="none" xmlns="http://www.w3.org/2000/svg">
<path d="M18.7 12.3996C18.42 12.2396 18.13 12.1096 17.84 11.9996C18.13 11.8896 18.42 11.7596 18.7 11.5996C20.62 10.4896 21.69 8.47957 21.7 6.40957C19.91 5.37957 17.63 5.29957 15.7 6.40957C15.42 6.56957 15.16 6.75957 14.92 6.94957C14.97 6.63957 15 6.31957 15 5.99957C15 3.77957 13.79 1.84957 12 0.80957C10.21 1.84957 8.99999 3.77957 8.99999 5.99957C8.99999 6.31957 9.02999 6.63957 9.07999 6.94957C8.83999 6.74957 8.57999 6.55957 8.29999 6.39957C6.37999 5.28957 4.09999 5.36957 2.29999 6.39957C2.29999 8.46957 3.36999 10.4796 5.29999 11.5896C5.57999 11.7496 5.86999 11.8796 6.15999 11.9896C5.86999 12.0996 5.57999 12.2296 5.29999 12.3896C3.37999 13.4996 2.30999 15.5096 2.29999 17.5796C4.08999 18.6096 6.36999 18.6896 8.29999 17.5796C8.57999 17.4196 8.83999 17.2296 9.07999 17.0396C9.02999 17.3596 8.99999 17.6796 8.99999 17.9996C8.99999 20.2196 10.21 22.1496 12 23.1896C13.79 22.1496 15 20.2196 15 17.9996C15 17.6796 14.97 17.3596 14.92 17.0496C15.16 17.2496 15.42 17.4296 15.7 17.5896C17.62 18.6996 19.9 18.6196 21.7 17.5896C21.69 15.5196 20.62 13.5096 18.7 12.3996ZM12 15.9996C9.78999 15.9996 7.99999 14.2096 7.99999 11.9996C7.99999 9.78957 9.78999 7.99957 12 7.99957C14.21 7.99957 16 9.78957 16 11.9996C16 14.2096 14.21 15.9996 12 15.9996Z" fill="currentColor"/>
</svg>
