<svg width="24" height="24" viewBox="0 0 24 24" fill="none" xmlns="http://www.w3.org/2000/svg">
<path d="M13.235 9.09473L12.365 8.22473L12.595 7.56473H12.695L13.235 9.09473ZM11.005 6.86473L11.575 5.34473H13.715L16.265 12.1347L22.655 18.5147V3.34473C22.655 2.24473 21.755 1.34473 20.655 1.34473H5.485L11.005 6.86473ZM21.145 22.6547L19.825 21.3447H4.655C3.555 21.3447 2.655 20.4447 2.655 19.3447V4.17473L1.345 2.85473L2.755 1.44473L22.555 21.2447L21.145 22.6547ZM12.755 14.2747L9.455 10.9747L7.065 17.3447H9.145L10.235 14.2747H12.755Z" fill="black"/>
</svg>
