<svg viewBox="0 0 24 24" fill="none" xmlns="http://www.w3.org/2000/svg">
<path d="M8.63501 3.36477V4.81477L10.635 6.81477V3.36477H14.635V7.36477H11.185L13.185 9.36477H14.635V10.8148L16.635 12.8148V9.36477H20.635V13.3648H17.185L19.185 15.3648H20.635V16.8148L22.635 18.8148V3.36477C22.635 2.26477 21.735 1.36477 20.635 1.36477H5.18501L7.18501 3.36477H8.63501ZM16.635 3.36477H20.635V7.36477H16.635V3.36477ZM1.90501 0.634766L0.63501 1.91477L2.63501 3.91477V19.3648C2.63501 20.4648 3.53501 21.3648 4.63501 21.3648H20.095L22.095 23.3648L23.365 22.0948L1.90501 0.634766ZM10.635 11.9148L12.085 13.3648H10.635V11.9148ZM4.63501 5.91477L6.08501 7.36477H4.63501V5.91477ZM8.63501 19.3648H4.63501V15.3648H8.63501V19.3648ZM8.63501 13.3648H4.63501V9.36477H8.08501L8.63501 9.91477V13.3648ZM14.635 19.3648H10.635V15.3648H14.085L14.635 15.9048V19.3648ZM16.635 19.3648V17.9048L18.095 19.3648H16.635Z" fill="currentColor"/>
</svg>
