<svg  viewBox="0 0 24 24" fill="none" xmlns="http://www.w3.org/2000/svg">
<path d="M21.6887 18.668L16.3887 13.368H15.3987L12.8587 15.908V16.898L18.1587 22.198C18.5487 22.588 19.1787 22.588 19.5687 22.198L21.6887 20.078C22.0787 19.698 22.0787 19.058 21.6887 18.668Z" fill="currentColor"/>
<path d="M17.3587 10.688L18.7687 9.27805L20.8887 11.398C22.0587 10.228 22.0587 8.32805 20.8887 7.15805L17.3487 3.61805L15.9387 5.02805V2.20805L15.2387 1.49805L11.6987 5.03805L12.4087 5.74805H15.2387L13.8287 7.15805L14.8887 8.21805L11.9987 11.108L7.86874 6.97805V5.55805L4.84874 2.53805L2.01874 5.36805L5.04874 8.39805H6.45874L10.5887 12.528L9.73874 13.378H7.61874L2.31874 18.678C1.92874 19.068 1.92874 19.698 2.31874 20.088L4.43874 22.208C4.82874 22.598 5.45874 22.598 5.84874 22.208L11.1487 16.908V14.788L16.2987 9.63805L17.3587 10.688Z" fill="currentColor"/>
</svg>
