<svg viewBox="0 0 24 24" fill="none" xmlns="http://www.w3.org/2000/svg">
<path d="M18 14.4492V12.4492H19.1L20 14.4492H21.5L20.6 12.3492C21.1 12.1492 21.5 11.5492 21.5 10.9492V9.94922C21.5 9.14922 20.8 8.44922 20 8.44922H16.5V13.3492L17.6 14.4492H18ZM18 9.94922H20V10.9492H18V9.94922ZM13.5 9.94922V10.3492L15 11.8492V9.94922C15 9.14922 14.3 8.44922 13.5 8.44922H11.6L13.1 9.94922H13.5ZM10 8.94922L3 1.94922L1.9 2.94922L7.4 8.44922H7V10.4492H5V8.44922H3.5V14.4492H5V11.9492H7V14.4492H8.5V9.54922L10 11.0492V14.4492H13.4L21 22.0492L22.1 20.9492L10 8.94922Z" fill="currentColor"/>
</svg>
