<svg  viewBox="0 0 24 24" fill="none" xmlns="http://www.w3.org/2000/svg">
<path d="M12.365 3.64035C16.235 3.64035 19.365 6.77035 19.365 10.6404V12.6404H16.445L21.365 17.5604V10.6404C21.365 5.67035 17.335 1.64035 12.365 1.64035C10.415 1.64035 8.60499 2.26035 7.13499 3.32035L8.57499 4.76035C9.66499 4.05035 10.965 3.64035 12.365 3.64035ZM2.63499 1.36035L1.36499 2.64035L4.69499 5.96035C3.85499 7.32035 3.36499 8.93035 3.36499 10.6404V17.6404C3.36499 19.3004 4.70499 20.6404 6.36499 20.6404H9.36499V12.6404H5.36499V10.6404C5.36499 9.47035 5.65499 8.38035 6.15499 7.42035L15.365 16.6404V20.6404H18.365C18.665 20.6404 18.955 20.5804 19.225 20.5004L21.365 22.6404L22.635 21.3704L2.63499 1.36035Z" fill="currentColor"/>
</svg>
