<svg width="24" height="22" viewBox="0 0 24 22" fill="none" xmlns="http://www.w3.org/2000/svg">
<path fill-rule="evenodd" clip-rule="evenodd" d="M21.9922 9.222C22.3122 6.30645 17.7122 3.88867 12.0022 3.88867C6.29219 3.88867 1.69219 6.30645 2.01219 9.222H21.9922Z" fill="currentColor"/>
<path fill-rule="evenodd" clip-rule="evenodd" d="M5.34219 12.3331C5.89219 12.3331 6.12219 12.4576 6.49219 12.6531C6.94219 12.8931 7.56219 13.222 8.67219 13.222C9.78219 13.222 10.4022 12.8931 10.8522 12.6531C11.2222 12.4487 11.4422 12.3331 12.0022 12.3331C12.5522 12.3331 12.7822 12.4576 13.1522 12.6531C13.6022 12.8931 14.2222 13.222 15.3322 13.222C16.4422 13.222 17.0622 12.8931 17.5122 12.6531C17.8822 12.4487 18.1022 12.3331 18.6622 12.3331C19.2122 12.3331 19.4422 12.4576 19.8122 12.6531C20.2622 12.8931 20.8822 13.2131 21.9822 13.222V11.462C21.9822 11.462 21.1922 11.3198 20.8222 11.1242C20.3722 10.8842 19.7522 10.5553 18.6422 10.5553C17.5322 10.5553 16.9122 10.8842 16.4622 11.1242C16.0922 11.3287 15.8622 11.4442 15.3122 11.4442C14.7622 11.4442 14.5322 11.3198 14.1622 11.1242C13.7122 10.8842 13.0922 10.5553 11.9822 10.5553C10.8722 10.5553 10.2522 10.8842 9.80219 11.1242C9.43219 11.3287 9.21219 11.4442 8.65219 11.4442C8.10219 11.4442 7.87219 11.3198 7.50219 11.1242C7.05219 10.8842 6.43219 10.5553 5.32219 10.5553C4.21219 10.5553 3.59219 10.8842 3.14219 11.1242C2.77219 11.3287 2.55219 11.4442 1.99219 11.4442V13.222C3.10219 13.222 3.72219 12.8931 4.20219 12.6531C4.57219 12.4487 4.79219 12.3331 5.34219 12.3331Z" fill="currentColor"/>
<path fill-rule="evenodd" clip-rule="evenodd" d="M1.99219 14.5553V16.3331C1.99219 17.3109 2.89219 18.1109 3.99219 18.1109H19.9922C21.0922 18.1109 21.9922 17.3109 21.9922 16.3331V14.5553H1.99219Z" fill="currentColor"/>
</svg>
