<svg viewBox="0 0 24 24" fill="none" xmlns="http://www.w3.org/2000/svg">
<path d="M21.9 20.8853L3.51998 2.50531L2.09998 3.91531L5.87998 7.69531H4.70998L5.70998 17.6953H6.70998C6.70998 19.9053 8.49998 21.6953 10.71 21.6953C12.92 21.6953 14.71 19.9053 14.71 17.6953V16.5253L20.49 22.3053L21.9 20.8853ZM12.71 17.6953C12.71 18.7953 11.81 19.6953 10.71 19.6953C9.60998 19.6953 8.70998 18.7953 8.70998 17.6953H9.70998L10.27 12.0853L12.71 14.5253V17.6953ZM14.71 5.69531V10.8653L12.71 8.86531V5.69531C12.71 3.48531 14.5 1.69531 16.71 1.69531C18.92 1.69531 20.71 3.48531 20.71 5.69531V16.8653L18.71 14.8653V5.69531C18.71 4.59531 17.81 3.69531 16.71 3.69531C15.61 3.69531 14.71 4.59531 14.71 5.69531ZM10.71 4.69531C10.71 5.31531 10.51 5.87531 10.19 6.35531L6.03998 2.20531C6.51998 1.88531 7.08998 1.69531 7.70998 1.69531C9.36998 1.69531 10.71 3.03531 10.71 4.69531Z" fill="currentColor"/>
</svg>
