<svg  viewBox="0 0 24 24" fill="none" xmlns="http://www.w3.org/2000/svg">
<path d="M11.24 6.71961C11.66 6.40961 12.17 6.24961 12.78 6.24961C13.39 6.24961 13.89 6.40961 14.28 6.73961C14.67 7.05961 14.93 7.43961 15.07 7.85961L16.96 7.05961C16.72 6.34961 16.25 5.70961 15.56 5.13961C15.06 4.73961 14.44 4.48961 13.71 4.36961V2.28961H11.71V4.39961C11.3 4.47961 10.92 4.60961 10.57 4.78961C10.22 4.96961 9.92998 5.17961 9.66998 5.41961L11.1 6.84961C11.14 6.80961 11.19 6.75961 11.24 6.71961ZM3.51998 2.09961L2.09998 3.50961L14.45 15.8596C14.02 16.1396 13.5 16.2896 12.9 16.2896C12.19 16.2896 11.58 16.0596 11.07 15.5896C10.57 15.1196 10.21 14.5196 10.01 13.7796L8.02998 14.5796C8.36998 15.7496 8.97998 16.6596 9.85998 17.3096C10.43 17.7296 11.05 17.9896 11.71 18.1396V20.2896H13.71V18.2096C14.15 18.1396 14.58 18.0396 15 17.8596C15.34 17.7196 15.64 17.5396 15.92 17.3296L20.49 21.8996L21.9 20.4896L3.51998 2.09961Z" fill="currentColor"/>
</svg>
