<svg viewBox="0 0 24 24" fill="none" xmlns="http://www.w3.org/2000/svg">
<path d="M22.085 9.08594C22.085 5.21594 18.955 2.08594 15.085 2.08594C11.215 2.08594 8.08501 5.21594 8.08501 9.08594C8.08501 12.5559 10.605 15.4259 13.915 15.9759V19.9159H5.91501V16.9159H6.91501V12.9159C6.91501 12.3659 6.46501 11.9159 5.91501 11.9159H2.91501C2.36501 11.9159 1.91501 12.3659 1.91501 12.9159V16.9159H2.91501V21.9159H18.915V19.9159H15.915V16.0359C19.385 15.6259 22.085 12.6759 22.085 9.08594ZM4.41501 10.9159C5.24501 10.9159 5.91501 10.2459 5.91501 9.41594C5.91501 8.58594 5.24501 7.91594 4.41501 7.91594C3.58501 7.91594 2.91501 8.58594 2.91501 9.41594C2.91501 10.2459 3.58501 10.9159 4.41501 10.9159Z" fill="currentColor"/>
</svg>
