<svg viewBox="0 0 24 24" fill="none" xmlns="http://www.w3.org/2000/svg">
<path d="M21.9 20.8853L3.51998 2.50531L2.09998 3.91531L4.85998 6.67531C4.76998 7.00531 4.70998 7.33531 4.70998 7.69531V19.6953C4.70998 20.7953 5.60998 21.6953 6.70998 21.6953H18.71C19.05 21.6953 19.36 21.6053 19.64 21.4553L20.49 22.3053L21.9 20.8853ZM6.70998 13.6953V11.6953H9.87998L11.88 13.6953H6.70998ZM15.54 11.6953L7.68998 3.84531C7.69998 3.84531 7.69998 3.83531 7.70998 3.83531V1.69531H10.71V3.69531H14.71V1.69531H17.71V3.83531C19.43 4.28531 20.71 5.83531 20.71 7.69531V16.8653L18.71 14.8653V11.6953H15.54Z" fill="currentColor"/>
</svg>
