<svg viewBox="0 0 24 24" fill="none" xmlns="http://www.w3.org/2000/svg">
<path d="M2.93002 1.96953L1.52002 3.38953L6.82002 8.68953L6.62002 8.91953H4.08002C3.20002 8.91953 2.48002 9.63953 2.48002 10.5195V19.9195C2.48002 20.7995 3.20002 21.5195 4.08002 21.5195H16.88C17.63 21.5195 18.26 20.9995 18.43 20.2995L20.61 22.4795L22.02 21.0695L18.48 17.5195L2.93002 1.96953ZM10.48 19.5195C8.27002 19.5195 6.48002 17.7295 6.48002 15.5195C6.48002 13.5695 7.88002 11.9495 9.73002 11.5995L11.3 13.1695C11.04 13.0795 10.77 13.0195 10.48 13.0195C9.10002 13.0195 7.98002 14.1395 7.98002 15.5195C7.98002 16.8995 9.10002 18.0195 10.48 18.0195C11.86 18.0195 12.98 16.8995 12.98 15.5195C12.98 15.2295 12.92 14.9595 12.83 14.6995L14.4 16.2695C14.05 18.1195 12.43 19.5195 10.48 19.5195ZM18.48 14.6895L11.31 7.51953H13.06L14.34 8.91953H16.88C17.76 8.91953 18.48 9.63953 18.48 10.5195V14.6895ZM20.88 5.11953H22.48L19.48 10.5195V6.51953H18.48V1.51953H22.48L20.88 5.11953Z" fill="currentColor"/>
</svg>
