<svg  viewBox="0 0 24 24" fill="none" xmlns="http://www.w3.org/2000/svg">
<path d="M13.46 8.69531V9.61531L15.21 11.3653V8.69531H16.71V12.8653L19.71 15.8653V7.69531C19.71 6.59531 18.81 5.69531 17.71 5.69531H15.71V2.69531C15.71 2.14531 15.26 1.69531 14.71 1.69531H10.71C10.16 1.69531 9.70998 2.14531 9.70998 2.69531V5.69531H9.53998L12.54 8.69531H13.46ZM11.21 3.19531H14.21V5.69531H11.21V3.19531ZM21.9 20.8853L3.51998 2.50531L2.09998 3.91531L5.72998 7.54531C5.72998 7.59531 5.70998 7.64531 5.70998 7.69531V18.6953C5.70998 19.7953 6.60998 20.6953 7.70998 20.6953C7.70998 21.2453 8.15998 21.6953 8.70998 21.6953C9.25998 21.6953 9.70998 21.2453 9.70998 20.6953H15.71C15.71 21.2453 16.16 21.6953 16.71 21.6953C17.26 21.6953 17.71 21.2453 17.71 20.6953C18.05 20.6953 18.36 20.6053 18.64 20.4553L20.49 22.3053L21.9 20.8853ZM8.70998 17.6953V10.5253L10.21 12.0253V17.6953H8.70998ZM13.46 17.6953H11.96V13.7753L13.46 15.2753V17.6953Z" fill="currentColor"/>
</svg>
