<svg viewBox="0 0 24 24" fill="none" xmlns="http://www.w3.org/2000/svg">
<path d="M6.30501 17.2896C7.40501 17.2896 8.30501 18.1896 8.30501 19.2896C8.30501 20.3896 7.40501 21.2896 6.30501 21.2896C5.20501 21.2896 4.30501 20.3896 4.30501 19.2896C4.30501 18.1896 5.20501 17.2896 6.30501 17.2896ZM18.955 2.28961C17.295 2.28961 16.415 3.55961 15.775 4.31961L12.275 8.42961L17.305 13.4596V5.55961C17.885 4.87961 18.275 4.28961 18.955 4.28961C19.725 4.28961 20.305 4.94961 20.305 5.76961V6.28961H22.305V5.76961C22.305 3.84961 20.825 2.28961 18.955 2.28961ZM3.11501 2.09961L1.69501 3.50961L9.66501 11.4796L7.00501 14.5996C6.45501 15.2496 6.91501 16.2496 7.76501 16.2496H14.425L15.595 17.4196C14.845 17.7096 14.305 18.4296 14.305 19.2896C14.305 20.3896 15.205 21.2896 16.305 21.2896C17.165 21.2896 17.885 20.7496 18.175 19.9896L20.085 21.8996L21.495 20.4896L3.11501 2.09961ZM13.775 4.31961C14.045 3.99961 14.355 3.59961 14.755 3.22961C12.295 2.03961 9.43501 2.00961 6.94501 3.09961L11.195 7.34961L13.775 4.31961Z" fill="currentColor"/>
</svg>
