<svg  viewBox="0 0 24 24" fill="none" xmlns="http://www.w3.org/2000/svg">
<path d="M21.9 20.8853L3.51998 2.50531L2.09998 3.91531L4.70998 6.52531V15.6953C4.70998 16.5753 5.09998 17.3653 5.70998 17.9153V19.6953C5.70998 20.2453 6.15998 20.6953 6.70998 20.6953H7.70998C8.25998 20.6953 8.70998 20.2453 8.70998 19.6953V18.6953H16.71V19.6953C16.71 20.2453 17.16 20.6953 17.71 20.6953H18.71C18.76 20.6953 18.8 20.6753 18.85 20.6653L20.49 22.3053L21.9 20.8853ZM8.20998 16.6953C7.37998 16.6953 6.70998 16.0253 6.70998 15.1953C6.70998 14.3653 7.37998 13.6953 8.20998 13.6953C9.03998 13.6953 9.70998 14.3653 9.70998 15.1953C9.70998 16.0253 9.03998 16.6953 8.20998 16.6953ZM6.70998 10.6953V8.52531L8.87998 10.6953H6.70998ZM9.53998 5.69531L6.48998 2.64531C7.94998 1.85531 10.19 1.69531 12.71 1.69531C17.13 1.69531 20.71 2.19531 20.71 5.69531V15.6953C20.71 16.0453 20.63 16.3653 20.52 16.6753L14.54 10.6953H18.71V5.69531H9.53998Z" fill="currentColor"/>
</svg>
