<svg  viewBox="0 0 24 24" fill="none" xmlns="http://www.w3.org/2000/svg">
<path d="M7.49792 11.0022C9.42792 11.0022 10.9979 9.43217 10.9979 7.50217C10.9979 5.57217 9.42792 4.00217 7.49792 4.00217C5.56792 4.00217 3.99792 5.57217 3.99792 7.50217C3.99792 9.43217 5.56792 11.0022 7.49792 11.0022ZM7.49792 6.00217C8.32792 6.00217 8.99792 6.67217 8.99792 7.50217C8.99792 8.33217 8.32792 9.00217 7.49792 9.00217C6.66792 9.00217 5.99792 8.33217 5.99792 7.50217C5.99792 6.67217 6.66792 6.00217 7.49792 6.00217Z" fill="currentColor"/>
<path d="M18.5879 3.9978L4.00042 18.5853L5.41462 19.9995L20.0021 5.412L18.5879 3.9978Z" fill="currentColor"/>
<path d="M16.4979 13.0022C14.5679 13.0022 12.9979 14.5722 12.9979 16.5022C12.9979 18.4322 14.5679 20.0022 16.4979 20.0022C18.4279 20.0022 19.9979 18.4322 19.9979 16.5022C19.9979 14.5722 18.4279 13.0022 16.4979 13.0022ZM16.4979 18.0022C15.6679 18.0022 14.9979 17.3322 14.9979 16.5022C14.9979 15.6722 15.6679 15.0022 16.4979 15.0022C17.3279 15.0022 17.9979 15.6722 17.9979 16.5022C17.9979 17.3322 17.3279 18.0022 16.4979 18.0022Z" fill="currentColor"/>
</svg>
