<svg  viewBox="0 0 24 24" fill="none" xmlns="http://www.w3.org/2000/svg">
<path d="M9.35998 5.10961C10.07 4.00961 11.31 3.28961 12.71 3.28961C14.92 3.28961 16.71 5.07961 16.71 7.28961C16.71 8.68961 15.99 9.92961 14.89 10.6396L9.35998 5.10961ZM20.71 16.4596C20.69 15.3596 20.08 14.3496 19.1 13.8396C18.56 13.5596 17.97 13.2996 17.33 13.0796L20.71 16.4596ZM21.9 20.4796L3.51998 2.09961L2.09998 3.50961L10.99 12.3996C9.17998 12.6296 7.59998 13.1896 6.31998 13.8496C5.31998 14.3596 4.70998 15.3896 4.70998 16.5096V19.2896H17.88L20.49 21.8996L21.9 20.4796Z" fill="currentColor"/>
</svg>
