<svg  viewBox="0 0 24 24" fill="none" xmlns="http://www.w3.org/2000/svg">
<path d="M21.3083 17.38L18.9183 15.25C19.4383 12.89 17.5583 11 15.4983 11C14.3383 11 11.9983 11.9 11.9983 14.5C11.9983 15.47 12.3883 16.34 13.0283 16.97L12.3183 17.68C11.4983 16.87 10.9983 15.74 10.9983 14.5C10.9983 12.8 11.9583 11.33 13.3483 10.57C12.6483 10.21 11.8683 10 11.0683 10C8.68832 10 6.69832 11.65 6.15832 13.87C4.90832 13.5 3.99832 12.36 3.99832 11C3.99832 9.34 5.33832 8 6.99832 8C7.93832 8 8.55832 8 9.49832 8C10.8783 8 11.9983 6.88 11.9983 5.5C11.9983 4.12 10.8783 3 9.49832 3H7.99832C7.44832 3 6.99832 3.45 6.99832 4C6.99832 4.55 7.44832 5 7.99832 5H9.49832C9.77832 5 9.99832 5.22 9.99832 5.5C9.99832 5.78 9.77832 6 9.49832 6C9.46832 6 8.99832 6 6.99832 6C4.23832 6 1.99832 8.24 1.99832 11C1.99832 13.42 3.71832 15.44 5.99832 15.9V15.93C5.99832 18.73 8.26832 21 11.0683 21H19.9283C21.7983 21 22.7383 18.66 21.3083 17.38ZM17.9983 19C17.4483 19 16.9983 18.55 16.9983 18C16.9983 17.45 17.4483 17 17.9983 17C18.5483 17 18.9983 17.45 18.9983 18C18.9983 18.55 18.5483 19 17.9983 19Z" fill="currentColor"/>
</svg>
