<svg viewBox="0 0 24 24" fill="none" xmlns="http://www.w3.org/2000/svg">
<g clip-path="url(#clip0_425_89723)">
<path d="M6.495 5.57031L11.995 11.0703L18.995 4.07031L17.995 3.07031L11.995 9.07031L7.495 4.57031H10.995V3.07031H4.995V9.07031H6.495V5.57031ZM23.705 16.7403C20.655 13.8503 16.535 12.0703 11.995 12.0703C7.455 12.0703 3.335 13.8503 0.284995 16.7403C0.104995 16.9203 -0.00500488 17.1703 -0.00500488 17.4503C-0.00500488 17.7303 0.104995 17.9803 0.284995 18.1603L2.765 20.6403C2.945 20.8203 3.195 20.9303 3.475 20.9303C3.745 20.9303 3.99499 20.8203 4.17499 20.6503C4.96499 19.9103 5.865 19.2903 6.835 18.8003C7.165 18.6403 7.395 18.3003 7.395 17.9003V14.8003C8.845 14.3203 10.395 14.0703 11.995 14.0703C13.595 14.0703 15.145 14.3203 16.595 14.7903V17.8903C16.595 18.2803 16.825 18.6303 17.155 18.7903C18.135 19.2803 19.025 19.9103 19.825 20.6403C20.005 20.8203 20.255 20.9203 20.525 20.9203C20.805 20.9203 21.055 20.8103 21.235 20.6303L23.715 18.1503C23.895 17.9703 24.005 17.7203 24.005 17.4403C24.005 17.1603 23.885 16.9203 23.705 16.7403Z" fill="currentColor"/>
</g>
<defs>
<clipPath id="clip0_425_89723">
<rect fill="white"/>
</clipPath>
</defs>
</svg>
