<svg  viewBox="0 0 24 24" fill="none" xmlns="http://www.w3.org/2000/svg">
<path d="M19.9288 8.45714L16.3288 10.1371L13.9988 7.94714V6.54714L16.3288 4.35714L19.9288 6.03714C20.3088 6.21714 20.7488 6.04714 20.9288 5.67714C21.1088 5.29714 20.9388 4.85714 20.5688 4.67714L16.6488 2.84714C16.2688 2.66714 15.8188 2.74714 15.5188 3.04714L13.7788 4.64714C13.5988 4.40714 13.3188 4.24714 12.9988 4.24714C12.4488 4.24714 11.9988 4.69714 11.9988 5.24714V6.24714H8.81878C8.33878 4.89714 6.97878 3.97714 5.39878 4.31714C4.23878 4.56714 3.24878 5.56714 3.03878 6.74714C2.81878 8.06714 3.49878 9.21714 4.51878 9.82714L7.07878 18.2471H3.99878V21.2471H16.9988V18.2471H13.3788L8.40878 9.01714C8.57878 8.77714 8.71878 8.52714 8.81878 8.24714H11.9988V9.24714C11.9988 9.79714 12.4488 10.2471 12.9988 10.2471C13.3188 10.2471 13.5988 10.0871 13.7788 9.84714L15.5188 11.4471C15.8188 11.7471 16.2688 11.8271 16.6488 11.6471L20.5688 9.81714C20.9488 9.63714 21.1088 9.19714 20.9288 8.81714C20.7488 8.44714 20.3088 8.27714 19.9288 8.45714ZM5.99878 8.24714C5.44878 8.24714 4.99878 7.79714 4.99878 7.24714C4.99878 6.69714 5.44878 6.24714 5.99878 6.24714C6.54878 6.24714 6.99878 6.69714 6.99878 7.24714C6.99878 7.79714 6.54878 8.24714 5.99878 8.24714Z" fill="currentColor"/>
</svg>
