<svg  viewBox="0 0 24 24" fill="none" xmlns="http://www.w3.org/2000/svg">
<path d="M23 8.00051C23.0001 6.61597 22.5896 5.26249 21.8204 4.11125C21.0513 2.96002 19.958 2.06273 18.6789 1.53287C17.3997 1.00302 15.9922 0.864395 14.6342 1.13453C13.2763 1.40467 12.029 2.07144 11.05 3.05051C10.3673 3.01311 9.68368 2.99644 9 3.00051C4.58 3.00051 1 3.50051 1 7.00051V17.5005C1 18.4288 1.36875 19.319 2.02513 19.9754C2.6815 20.6318 3.57174 21.0005 4.5 21.0005L3 22.5005V23.0005H15V22.5005L13.5 21.0005C14.4283 21.0005 15.3185 20.6318 15.9749 19.9754C16.6313 19.319 17 18.4288 17 17.5005V14.9205C18.6646 14.6802 20.187 13.8487 21.2888 12.578C22.3906 11.3073 22.998 9.68235 23 8.00051ZM3 12.0005V7.00051H9.08C8.82133 8.75667 9.24345 10.5453 10.26 12.0005H3ZM9 19.0005C7.9 19.0005 7 18.1005 7 17.0005C7 15.9005 7.9 15.0005 9 15.0005C10.1 15.0005 11 15.9005 11 17.0005C11 18.1005 10.1 19.0005 9 19.0005ZM16.71 12.9405L16.51 12.9705L16 13.0005L15.53 12.9805L15.37 12.9605L15.08 12.9205L14.88 12.8805L14.66 12.8205C14.5816 12.8032 14.5047 12.7798 14.43 12.7505L14.3 12.7005C13.1701 12.2944 12.2245 11.4944 11.6367 10.4474C11.0489 9.40045 10.8584 8.17664 11.1 7.00051C11.14 6.81051 11.19 6.63051 11.25 6.46051L11.3 6.32051L11.45 5.94051L11.52 5.79051L11.72 5.43051L11.79 5.31051L12.09 4.89051L12.11 4.87051C12.35 4.57051 12.63 4.30051 12.93 4.06051L12.94 4.05051L13.4 3.73051L13.43 3.71051C14.2113 3.25663 15.0965 3.01207 16 3.00051C17.254 3.01555 18.4565 3.50126 19.3692 4.36133C20.2818 5.2214 20.838 6.39303 20.9273 7.64391C21.0167 8.89479 20.6327 10.1336 19.8516 11.1146C19.0704 12.0957 17.9491 12.7474 16.71 12.9405ZM15 4.00051H17V9.00051H15V4.00051ZM15 10.0005H17V12.0005H15V10.0005Z" fill="currentColor"/>
</svg>
