<svg  viewBox="0 0 24 24" fill="none" xmlns="http://www.w3.org/2000/svg">
    <path d="M23.365 22.095L1.90501 0.63501L0.63501 1.90501L5.02501 6.29501L7.23501 10.955L5.88501 13.405C5.72501 13.685 5.63501 14.015 5.63501 14.365C5.63501 15.465 6.53501 16.365 7.63501 16.365H15.095L16.475 17.745C15.975 18.105 15.645 18.695 15.645 19.365C15.645 20.465 16.535 21.365 17.635 21.365C18.305 21.365 18.895 21.035 19.255 20.525L22.095 23.365L23.365 22.095ZM8.05501 14.365C7.91501 14.365 7.80501 14.255 7.80501 14.115L7.83501 13.995L8.73501 12.365H11.095L13.095 14.365H8.05501ZM16.185 12.365C16.935 12.365 17.595 11.955 17.935 11.335L21.515 4.84501C21.595 4.70501 21.635 4.53501 21.635 4.36501C21.635 3.81501 21.185 3.36501 20.635 3.36501H7.17501L16.185 12.365ZM7.63501 17.365C6.53501 17.365 5.64501 18.265 5.64501 19.365C5.64501 20.465 6.53501 21.365 7.63501 21.365C8.73501 21.365 9.63501 20.465 9.63501 19.365C9.63501 18.265 8.73501 17.365 7.63501 17.365Z" fill="currentColor" />
</svg>
