<svg  viewBox="0 0 24 24" fill="none" xmlns="http://www.w3.org/2000/svg">
<path d="M11.365 6.64035H13.365V9.56035L20.275 16.4704L21.365 15.3704V7.91035L16.095 2.64035H8.63499L7.54499 3.74035L11.365 7.56035V6.64035ZM22.635 21.3704L2.63499 1.36035L1.36499 2.63035L5.00499 6.27035L3.36499 7.91035V15.3704L8.63499 20.6404H16.095L17.735 19.0104L21.365 22.6404L22.635 21.3704ZM12.365 16.9404C11.645 16.9404 11.065 16.3604 11.065 15.6404C11.065 14.9204 11.645 14.3404 12.365 14.3404C13.085 14.3404 13.665 14.9204 13.665 15.6404C13.665 16.3604 13.085 16.9404 12.365 16.9404Z" fill="currentColor"/>
</svg>
