<svg width="24" height="24" viewBox="0 0 24 24" fill="none" xmlns="http://www.w3.org/2000/svg">
    <path d="M8.44495 10.255C8.35495 10.585 8.30495 10.935 8.30495 11.295C8.30495 12.395 8.75495 13.395 9.47495 14.125L8.05495 15.545C6.97495 14.455 6.30495 12.955 6.30495 11.295C6.30495 10.365 6.51495 9.49498 6.88495 8.70498L5.41495 7.23498C4.70495 8.42498 4.30495 9.81498 4.30495 11.295C4.30495 13.505 5.20495 15.505 6.65495 16.945L5.23495 18.365C3.42495 16.555 2.30495 14.055 2.30495 11.295C2.30495 9.25498 2.91495 7.36498 3.96495 5.78498L1.69495 3.51498L3.10495 2.10498L21.4849 20.485L20.0749 21.895L8.44495 10.255ZM17.7249 13.885C18.0949 13.095 18.3049 12.225 18.3049 11.295C18.3049 9.63498 17.6349 8.13498 16.5449 7.05498L15.1249 8.47498C15.8549 9.19498 16.3049 10.195 16.3049 11.295C16.3049 11.655 16.2549 12.005 16.1649 12.335L17.7249 13.885ZM20.3049 11.295C20.3049 12.775 19.9049 14.165 19.1949 15.355L20.6449 16.805C21.6949 15.225 22.3049 13.335 22.3049 11.295C22.3049 8.53498 21.1849 6.03498 19.3749 4.22498L17.9549 5.64498C19.4049 7.08498 20.3049 9.08498 20.3049 11.295Z" fill="currentColor" />
</svg>
