<svg  viewBox="0 0 24 24" fill="none" xmlns="http://www.w3.org/2000/svg">
<path d="M18 16.1191C17.24 16.1191 16.56 16.4191 16.04 16.8891L8.91 12.7391C8.96 12.5091 9 12.2791 9 12.0391C9 11.7991 8.96 11.5691 8.91 11.3391L15.96 7.22906C16.5 7.72906 17.21 8.03906 18 8.03906C19.66 8.03906 21 6.69906 21 5.03906C21 3.37906 19.66 2.03906 18 2.03906C16.34 2.03906 15 3.37906 15 5.03906C15 5.27906 15.04 5.50906 15.09 5.73906L8.04 9.84906C7.5 9.34906 6.79 9.03906 6 9.03906C4.34 9.03906 3 10.3791 3 12.0391C3 13.6991 4.34 15.0391 6 15.0391C6.79 15.0391 7.5 14.7291 8.04 14.2291L15.16 18.3891C15.11 18.5991 15.08 18.8191 15.08 19.0391C15.08 20.6491 16.39 21.9591 18 21.9591C19.61 21.9591 20.92 20.6491 20.92 19.0391C20.92 17.4291 19.61 16.1191 18 16.1191Z" fill="currentColor"/>
</svg>
