<svg  viewBox="0 0 24 24" fill="none" xmlns="http://www.w3.org/2000/svg">
<path d="M14.0002 3.74805C14.0002 4.84805 13.1002 5.74805 12.0002 5.74805C10.9002 5.74805 10.0002 4.84805 10.0002 3.74805C10.0002 2.64805 10.9002 1.74805 12.0002 1.74805C13.1002 1.74805 14.0002 2.64805 14.0002 3.74805ZM22.8002 19.488C22.1202 21.588 19.8602 22.738 17.7602 22.058L1.00024 16.608L1.46024 15.178L5.39024 16.458L5.85024 15.028L1.93024 13.748L2.39024 12.318L4.00024 12.848V8.74805L9.47024 6.39805C9.86024 6.22805 10.3102 6.18805 10.7502 6.32805C11.7002 6.63805 12.2102 7.64805 11.9102 8.59805L10.8602 11.838L13.0002 11.498C13.8902 11.348 14.7602 11.818 15.1402 12.638L17.2202 17.148L19.1502 17.778L18.6902 19.208L15.3702 18.128L14.9002 19.548L18.2202 20.628C19.5302 21.058 20.9402 20.338 21.3702 19.018C21.8002 17.708 21.0802 16.298 19.7602 15.868L20.2202 14.438C22.3302 15.128 23.4902 17.388 22.8002 19.488ZM6.00024 13.498L7.01024 13.828C6.79024 13.408 6.73024 12.908 6.89024 12.428L7.92024 9.24805L6.00024 10.068V13.498ZM13.9402 17.658L7.28024 15.498L6.82024 16.928L13.4802 19.088L13.9402 17.658ZM14.6302 16.298L13.4502 13.738L9.48024 14.628L14.6302 16.298Z" fill="currentColor"/>
</svg>
