<svg  viewBox="0 0 24 24" fill="none" xmlns="http://www.w3.org/2000/svg">
<path d="M15.0362 12.81L6.54617 4.32C6.15617 3.93 5.52617 3.93 5.13617 4.32L2.30617 7.15C1.91617 7.54 1.91617 8.17 2.30617 8.56L10.7962 17.05C11.1862 17.44 11.8162 17.44 12.2062 17.05L15.0362 14.22C15.4262 13.83 15.4262 13.2 15.0362 12.81Z" fill="currentColor"/>
<path d="M15.7416 16.342L14.3274 17.7562L18.57 21.9988L19.9842 20.5846L15.7416 16.342Z" fill="currentColor"/>
<path d="M18.4862 9C20.4192 9 21.9862 7.433 21.9862 5.5C21.9862 3.567 20.4192 2 18.4862 2C16.5532 2 14.9862 3.567 14.9862 5.5C14.9862 7.433 16.5532 9 18.4862 9Z" fill="currentColor"/>
</svg>
