<svg  viewBox="0 0 24 24" fill="none" xmlns="http://www.w3.org/2000/svg">
<path d="M6.03503 3.98539C3.61503 5.81539 2.03503 8.70539 2.03503 11.9754C2.03503 13.4354 2.35503 14.8254 2.92503 16.0854L6.03503 14.2854V3.98539Z" fill="currentColor"/>
<path d="M11.035 11.3954V2.02539C9.97503 2.13539 8.96503 2.40539 8.03503 2.81539V13.1354L11.035 11.3954Z" fill="currentColor"/>
<path d="M12.035 13.1254L3.92503 17.8054C4.53503 18.6454 5.26503 19.3954 6.10503 20.0054L15.035 14.8654L12.035 13.1254Z" fill="currentColor"/>
<path d="M13.035 7.93539V11.3954L21.145 16.0754C21.565 15.1454 21.845 14.1454 21.965 13.0954L13.035 7.93539Z" fill="currentColor"/>
<path d="M8.10503 21.1754C9.31503 21.6854 10.635 21.9754 12.035 21.9754C15.375 21.9754 18.325 20.3254 20.145 17.8154L17.035 16.0154L8.10503 21.1754Z" fill="currentColor"/>
<path d="M21.955 10.7854C21.405 6.15539 17.695 2.48539 13.035 2.02539V5.62539L21.955 10.7854Z" fill="currentColor"/>
</svg>
