<svg viewBox="0 0 24 24" fill="none" xmlns="http://www.w3.org/2000/svg">
<path d="M2.79231 19.4L4.13231 19.96V10.93L1.70231 16.79C1.29231 17.81 1.78231 18.98 2.79231 19.4ZM22.2923 15.7L17.3323 3.73C17.0223 2.98 16.2923 2.52 15.5223 2.5C15.2623 2.5 14.9923 2.54 14.7323 2.65L7.36231 5.7C6.61231 6.01 6.15231 6.73 6.13231 7.5C6.12231 7.77 6.17231 8.04 6.28231 8.3L11.2423 20.27C11.5523 21.03 12.2923 21.49 13.0723 21.5C13.3323 21.5 13.5923 21.45 13.8423 21.35L21.2023 18.3C22.2223 17.88 22.7123 16.71 22.2923 15.7ZM8.14231 8.5C7.59231 8.5 7.14231 8.05 7.14231 7.5C7.14231 6.95 7.59231 6.5 8.14231 6.5C8.69231 6.5 9.14231 6.95 9.14231 7.5C9.14231 8.05 8.69231 8.5 8.14231 8.5ZM6.14231 19.5C6.14231 20.6 7.04231 21.5 8.14231 21.5H9.59231L6.14231 13.16V19.5Z" fill="currentColor"/>
</svg>
