<svg  viewBox="0 0 24 24" fill="none" xmlns="http://www.w3.org/2000/svg">
    <path d="M3.52229 12.1285C3.32229 11.2685 3.22229 10.3685 3.22229 9.44849C3.22229 6.60849 4.21229 3.99849 5.85229 1.94849L6.92229 3.01849C5.54229 4.79849 4.72229 7.02849 4.72229 9.44849C4.72229 10.3285 4.83229 11.1885 5.04229 12.0085L6.66229 10.3885L7.72229 11.4485L4.22229 14.9485L0.72229 11.4485L1.78229 10.3885L3.52229 12.1285ZM13.5723 11.5685L10.8923 6.19849C10.5223 5.45849 9.62229 5.15849 8.88229 5.52849C8.13229 5.90849 7.83229 6.80849 8.20229 7.54849L13.0123 17.1485L9.77229 17.9485C9.44229 18.0385 9.18229 18.2785 9.07229 18.6085L8.72229 19.7285L14.9123 21.9785C15.4123 22.1485 16.1923 21.9985 16.6623 21.7585L22.1723 19.0085C23.0623 18.5585 23.4923 17.5285 23.1723 16.5885L21.7423 12.3185C21.4723 11.4985 20.7023 10.9485 19.8423 10.9485H15.2823C14.9723 10.9485 14.6623 11.0185 14.3923 11.1585L13.5723 11.5685Z" fill="currentColor" />
</svg>
