<svg width="24" height="24" viewBox="0 0 24 24" fill="none" xmlns="http://www.w3.org/2000/svg">
    <path d="M1.78241 6.00849L0.722412 4.94849L4.22241 1.44849L7.72241 4.94849L6.66241 6.00849L5.04241 4.38849C4.83241 5.20849 4.72241 6.06849 4.72241 6.94849C4.72241 9.36849 5.54241 11.5985 6.92241 13.3785L5.85241 14.4485C4.21241 12.3985 3.22241 9.78849 3.22241 6.94849C3.22241 6.02849 3.32241 5.12849 3.52241 4.26849L1.78241 6.00849ZM13.5724 12.0685L10.8924 6.69849C10.5224 5.95849 9.62241 5.65849 8.88241 6.02849C8.13241 6.40849 7.83241 7.30849 8.20241 8.04849L13.0124 17.6485L9.77241 18.4485C9.44241 18.5385 9.18241 18.7785 9.07241 19.1085L8.72241 20.2285L14.9124 22.4785C15.4124 22.6485 16.1924 22.4985 16.6624 22.2585L22.1724 19.5085C23.0624 19.0585 23.4924 18.0285 23.1724 17.0885L21.7424 12.8185C21.4724 11.9985 20.7024 11.4485 19.8424 11.4485H15.2824C14.9724 11.4485 14.6624 11.5185 14.3924 11.6585L13.5724 12.0685Z" fill="currentColor" />
</svg>
