<svg width="24" height="24" viewBox="0 0 24 24" fill="none" xmlns="http://www.w3.org/2000/svg">
    <path d="M1.22229 3.44849H3.24229C1.35229 5.76849 0.22229 8.72849 0.22229 11.9485C0.22229 15.1685 1.35229 18.1285 3.24229 20.4485H1.22229V21.9485H6.22229V16.9485H4.72229V19.8585C2.86229 17.7485 1.72229 14.9785 1.72229 11.9485C1.72229 8.91849 2.86229 6.15849 4.72229 4.03849V6.94849H6.22229V1.94849H1.22229V3.44849ZM14.0723 11.5685L11.3923 6.19849C11.0223 5.45849 10.1223 5.15849 9.38229 5.52849C8.63229 5.90849 8.33229 6.80849 8.70229 7.54849L13.5123 17.1485L10.2723 17.9485C9.94229 18.0385 9.68229 18.2785 9.57229 18.6085L9.22229 19.7285L15.4123 21.9785C15.9123 22.1485 16.6923 21.9985 17.1623 21.7585L22.6723 19.0085C23.5623 18.5585 23.9923 17.5285 23.6723 16.5885L22.2423 12.3185C21.9723 11.4985 21.2023 10.9485 20.3423 10.9485H15.7823C15.4723 10.9485 15.1623 11.0185 14.8923 11.1585L14.0723 11.5685Z" fill="currentColor" />
</svg>
