<svg viewBox="0 0 24 24" fill="none" xmlns="http://www.w3.org/2000/svg">
<path d="M10.57 5.77969V3.68969C9.77 3.89969 9.02 4.22969 8.34 4.64969L9.8 6.10969C10.05 5.98969 10.3 5.86969 10.57 5.77969ZM3.43 4.83969L5.79 7.19969C5.02 8.41969 4.57 9.86969 4.57 11.4297C4.57 13.6397 5.48 15.6297 6.93 17.0697L4.57 19.4297H10.57V13.4297L8.33 15.6697C7.25 14.5797 6.57 13.0897 6.57 11.4297C6.57 10.4297 6.82 9.48969 7.25 8.65969L15.33 16.7397C15.08 16.8697 14.83 16.9897 14.56 17.0797V19.1697C15.36 18.9597 16.11 18.6297 16.79 18.2097L19.15 20.5697L20.42 19.2997L4.71 3.56969L3.43 4.83969ZM20.57 3.42969H14.57V9.42969L16.81 7.18969C17.89 8.27969 18.57 9.76969 18.57 11.4297C18.57 12.4297 18.32 13.3697 17.89 14.1997L19.35 15.6597C20.12 14.4397 20.57 12.9897 20.57 11.4297C20.57 9.21969 19.66 7.22969 18.21 5.78969L20.57 3.42969Z" fill="currentColor"/>
</svg>
