<svg  viewBox="0 0 24 24" fill="none" xmlns="http://www.w3.org/2000/svg">
<path d="M23 7.99434C22.9978 6.40674 22.456 4.86703 21.4636 3.6279C20.4711 2.38876 19.0869 1.5238 17.5381 1.17497C15.9893 0.826145 14.3679 1.01416 12.94 1.70817C11.5121 2.40219 10.3626 3.56096 9.68 4.99434H7V6.99434H4.5C4.18761 6.99387 3.88286 7.09093 3.6283 7.272C3.37373 7.45306 3.18205 7.70909 3.08 8.00434L1 13.9943V21.9943C1 22.2596 1.10536 22.5139 1.29289 22.7015C1.48043 22.889 1.73478 22.9943 2 22.9943H3C3.26522 22.9943 3.51957 22.889 3.70711 22.7015C3.89464 22.5139 4 22.2596 4 21.9943V20.9943H16V21.9943C16 22.2596 16.1054 22.5139 16.2929 22.7015C16.4804 22.889 16.7348 22.9943 17 22.9943H18C18.2652 22.9943 18.5196 22.889 18.7071 22.7015C18.8946 22.5139 19 22.2596 19 21.9943V14.3143C20.1954 13.746 21.2055 12.8508 21.9133 11.7324C22.6212 10.614 22.9979 9.31796 23 7.99434ZM4.5 8.49434H9.03C9.14474 10.1995 9.88551 11.8021 11.11 12.9943H3L4.5 8.49434ZM4.5 17.9943C4.10218 17.9943 3.72064 17.8363 3.43934 17.555C3.15804 17.2737 3 16.8922 3 16.4943C3 16.0965 3.15804 15.715 3.43934 15.4337C3.72064 15.1524 4.10218 14.9943 4.5 14.9943C4.89782 14.9943 5.27936 15.1524 5.56066 15.4337C5.84196 15.715 6 16.0965 6 16.4943C6 16.8922 5.84196 17.2737 5.56066 17.555C5.27936 17.8363 4.89782 17.9943 4.5 17.9943ZM15.5 17.9943C15.1022 17.9943 14.7206 17.8363 14.4393 17.555C14.158 17.2737 14 16.8922 14 16.4943C14 16.0965 14.158 15.715 14.4393 15.4337C14.7206 15.1524 15.1022 14.9943 15.5 14.9943C15.8978 14.9943 16.2794 15.1524 16.5607 15.4337C16.842 15.715 17 16.0965 17 16.4943C17 16.8922 16.842 17.2737 16.5607 17.555C16.2794 17.8363 15.8978 17.9943 15.5 17.9943ZM18.43 12.3643L18.22 12.4743L18.04 12.5643C17.9025 12.624 17.7623 12.6774 17.62 12.7243L17.4 12.7943L17.17 12.8543L16.97 12.9043C16.2866 13.0387 15.5826 13.0288 14.9032 12.8753C14.2239 12.7218 13.5841 12.428 13.0248 12.0128C12.4656 11.5976 11.9993 11.0702 11.6558 10.4643C11.3122 9.8584 11.0991 9.18741 11.03 8.49434C11.0097 8.32845 10.9997 8.16147 11 7.99434L11.02 7.52434L11.04 7.35434L11.08 7.07434L11.12 6.86434L11.17 6.65434L11.24 6.41434L11.29 6.28434C11.6857 5.17479 12.4612 4.24101 13.4792 3.64826C14.4972 3.05551 15.692 2.84203 16.8523 3.04558C18.0126 3.24914 19.0635 3.85662 19.8189 4.76049C20.5743 5.66437 20.9856 6.80636 20.98 7.98434C20.988 8.87624 20.7554 9.75381 20.3067 10.5246C19.8579 11.2955 19.2096 11.931 18.43 12.3643ZM15 3.99434H17V8.99434H15V3.99434ZM15 9.99434H17V11.9943H15V9.99434Z" fill="currentColor"/>
</svg>
