<svg viewBox="0 0 24 24" fill="none" xmlns="http://www.w3.org/2000/svg">
<path d="M19.665 4.55L18.245 5.97C16.695 4.74 14.745 4 12.625 4C10.795 4 9.095 4.55 7.675 5.48L9.135 6.94C10.155 6.35 11.355 6 12.625 6C16.495 6 19.625 9.13 19.625 13C19.625 14.27 19.275 15.47 18.685 16.49L20.135 17.94C21.075 16.53 21.625 14.83 21.625 13C21.625 10.88 20.885 8.93 19.655 7.39L21.075 5.97L19.665 4.55ZM15.625 1H9.625V3H15.625V1ZM11.625 9.44L13.625 11.44V8H11.625V9.44ZM3.645 4L2.375 5.27L5.125 8.03C4.175 9.45 3.625 11.16 3.625 13C3.625 17.97 7.645 22 12.625 22C14.465 22 16.175 21.45 17.605 20.5L20.105 23L21.375 21.73L3.645 4ZM12.625 20C8.755 20 5.625 16.87 5.625 13C5.625 11.72 5.975 10.52 6.575 9.48L16.135 19.04C15.105 19.65 13.905 20 12.625 20Z" fill="currentColor"/>
</svg>
