<svg viewBox="0 0 24 24" fill="none" xmlns="http://www.w3.org/2000/svg">
<path d="M13.9857 4.01367H15.9857V6.01367H13.9857V4.01367ZM12.9857 7.01367H14.9857V9.01367H12.9857V7.01367ZM10.9857 4.01367H12.9857V6.01367H10.9857V4.01367ZM17.9857 9.01367H15.9857V7.01367H17.9857V9.01367ZM18.9857 6.01367H16.9857V4.01367H18.9857V6.01367ZM20.9857 9.01367H18.9857V7.01367H20.9857V9.01367ZM21.9857 6.01367H19.9857V4.01367H21.9857V6.01367ZM14.6057 14.3937L12.0857 16.9137C9.5857 15.4837 7.5157 13.4137 6.0857 10.9137L8.6057 8.39367C8.8457 8.15367 8.9457 7.81367 8.8857 7.49367L8.1457 3.81367C8.0557 3.35367 7.6457 3.01367 7.1657 3.01367H3.0157C2.4557 3.01367 1.9857 3.48367 2.0157 4.04367C2.1857 6.93367 3.0357 9.64367 4.4157 12.0137C5.9957 14.7437 8.2657 17.0037 10.9857 18.5837C13.3557 19.9537 16.0657 20.8137 18.9557 20.9837C19.5157 21.0137 19.9857 20.5437 19.9857 19.9837V15.8337C19.9857 15.3537 19.6457 14.9437 19.1857 14.8537L15.5157 14.1237C15.1857 14.0537 14.8457 14.1537 14.6057 14.3937ZM13.9857 10.0137H15.9857V12.0137H13.9857V10.0137ZM10.9857 10.0137H12.9857V12.0137H10.9857V10.0137ZM18.9857 12.0137H16.9857V10.0137H18.9857V12.0137ZM21.9857 12.0137H19.9857V10.0137H21.9857V12.0137Z" fill="currentColor"/>
</svg>
