<svg viewBox="0 0 24 24" fill="none" xmlns="http://www.w3.org/2000/svg">
    <path d="M20.9993 10.12H14.2193L16.9593 7.3C14.2293 4.6 9.80927 4.5 7.07927 7.2C4.34927 9.91 4.34927 14.28 7.07927 16.99C9.80927 19.7 14.2293 19.7 16.9593 16.99C18.3193 15.65 18.9993 14.08 18.9993 12.1H20.9993C20.9993 14.08 20.1193 16.65 18.3593 18.39C14.8493 21.87 9.14927 21.87 5.63927 18.39C2.13927 14.92 2.10927 9.28 5.61927 5.81C9.12927 2.34 14.7593 2.34 18.2693 5.81L20.9993 3V10.12ZM12.4993 8V12.25L15.9993 14.33L15.2793 15.54L10.9993 13V8H12.4993Z" fill="currentColor" />
</svg>
