<svg  viewBox="0 0 24 24" fill="none" xmlns="http://www.w3.org/2000/svg">
<path d="M15.1 7.40039V11.4004H16.1V13.4004H13.1V5.40039H15.1L12.1 1.40039L9.1 5.40039H11.1V13.4004H8.1V11.3304C8.8 10.9604 9.3 10.2504 9.3 9.40039C9.3 8.19039 8.31 7.20039 7.1 7.20039C5.89 7.20039 4.9 8.19039 4.9 9.40039C4.9 10.2504 5.4 10.9604 6.1 11.3304V13.4004C6.1 14.5104 6.99 15.4004 8.1 15.4004H11.1V18.4504C10.39 18.8204 9.9 19.5504 9.9 20.4004C9.9 21.6204 10.89 22.6004 12.1 22.6004C13.31 22.6004 14.3 21.6204 14.3 20.4004C14.3 19.5504 13.81 18.8204 13.1 18.4504V15.4004H16.1C17.21 15.4004 18.1 14.5104 18.1 13.4004V11.4004H19.1V7.40039H15.1Z" fill="currentColor"/>
</svg>
