<svg  viewBox="0 0 24 24" fill="none" xmlns="http://www.w3.org/2000/svg">
<path d="M21.495 20.4796L3.11501 2.09961L1.69501 3.50961L3.60501 5.41961C2.84501 5.69961 2.30501 6.43961 2.30501 7.28961V15.2896C2.30501 16.3896 3.20501 17.2896 4.30501 17.2896H15.475L20.085 21.8996L21.495 20.4796ZM9.30501 12.2896V14.2896H7.30501V12.2896H5.30501V10.2896H7.30501V9.11961L10.475 12.2896H9.30501ZM21.005 17.1596C21.765 16.8796 22.305 16.1396 22.305 15.2896V7.28961C22.305 6.18961 21.405 5.28961 20.305 5.28961H9.13501L21.005 17.1596ZM17.805 8.28961C18.635 8.28961 19.305 8.95961 19.305 9.78961C19.305 10.6196 18.635 11.2896 17.805 11.2896C16.975 11.2896 16.305 10.6196 16.305 9.78961C16.305 8.95961 16.975 8.28961 17.805 8.28961Z" fill="currentColor"/>
</svg>
