<svg  viewBox="0 0 24 24" fill="none" xmlns="http://www.w3.org/2000/svg">
<path d="M23.0026 16.998C23.0026 20.308 20.3126 22.998 17.0026 22.998V21.498C19.4826 21.498 21.5026 19.478 21.5026 16.998H23.0026ZM1.00256 6.99805C1.00256 3.68805 3.69256 0.998047 7.00256 0.998047V2.49805C4.52256 2.49805 2.50256 4.51805 2.50256 6.99805H1.00256ZM8.01256 4.31805L3.41256 8.91805C0.192559 12.138 0.192559 17.368 3.41256 20.588C6.63256 23.808 11.8626 23.808 15.0826 20.588L22.1526 13.518C22.6426 13.028 22.6426 12.238 22.1526 11.748C21.6626 11.258 20.8726 11.258 20.3826 11.748L15.9626 16.168L15.2526 15.458L21.7926 8.91805C22.2826 8.42805 22.2826 7.63805 21.7926 7.14805C21.3026 6.65805 20.5126 6.65805 20.0226 7.14805L14.1926 12.978L13.4826 12.268L20.3726 5.37805C20.8626 4.88805 20.8626 4.09805 20.3726 3.60805C19.8826 3.11805 19.0926 3.11805 18.6026 3.60805L11.7126 10.498L11.0226 9.79805L16.5026 4.31805C16.9926 3.82805 16.9926 3.03805 16.5026 2.54805C16.0126 2.05805 15.2226 2.05805 14.7326 2.54805L7.11256 10.168C8.33256 11.738 8.22256 14.008 6.78256 15.448L6.07256 14.738C7.24256 13.568 7.24256 11.668 6.07256 10.498L5.72256 10.148L9.79256 6.07805C10.2826 5.58805 10.2826 4.79805 9.79256 4.30805C9.29256 3.82805 8.50256 3.82805 8.01256 4.31805Z" fill="currentColor"/>
</svg>
