<svg viewBox="0 0 24 24" fill="none" xmlns="http://www.w3.org/2000/svg">
<path d="M22.995 10.1045C19.155 6.26453 13.805 4.86453 8.84501 5.88453L11.365 8.40453C14.835 8.23453 18.355 9.45453 20.995 12.1045L22.995 10.1045ZM18.995 14.1045C17.705 12.8145 16.155 11.9745 14.505 11.5445L18.035 15.0745L18.995 14.1045ZM2.005 4.15453L5.07501 7.20453C3.60501 7.92453 2.225 8.88453 1.005 10.1045L2.995 12.1045C4.235 10.8645 5.665 9.94453 7.195 9.33453L9.43501 11.5745C7.81501 11.9945 6.275 12.8345 5.005 14.1045V14.1145L6.995 16.1045C8.355 14.7445 10.135 14.0645 11.915 14.0445L18.985 21.1045L20.255 19.8445L3.295 2.89453L2.005 4.15453ZM9.005 18.1045L12.005 21.1045L15.005 18.1045C13.355 16.4445 10.665 16.4445 9.005 18.1045Z" fill="currentColor"/>
</svg>
