<svg  viewBox="0 0 24 24" fill="none" xmlns="http://www.w3.org/2000/svg">
<path d="M15.9257 2.99902C13.7157 2.99902 11.7157 3.89902 10.2657 5.33902L11.3257 6.39902C12.5057 5.21902 14.1257 4.48902 15.9157 4.48902C17.7057 4.48902 19.3357 5.21902 20.5057 6.39902L21.5657 5.33902C20.1357 3.89902 18.1357 2.99902 15.9257 2.99902Z" fill="currentColor"/>
<path d="M19.4657 7.45902C18.5557 6.55902 17.3057 5.99902 15.9257 5.99902C14.5457 5.99902 13.2957 6.55902 12.3857 7.45902L13.4457 8.51902C14.0757 7.88902 14.9557 7.48902 15.9157 7.48902C16.8757 7.48902 17.7557 7.87902 18.3857 8.51902L19.4657 7.45902Z" fill="currentColor"/>
<path d="M14.5157 9.58902L15.9257 10.999L17.3357 9.58902C16.9757 9.21902 16.4757 8.99902 15.9257 8.99902C15.3757 8.99902 14.8757 9.21902 14.5157 9.58902Z" fill="currentColor"/>
<path d="M15.0657 14.399L12.5457 16.899C10.0457 15.469 7.97569 13.399 6.54569 10.899L9.04569 8.37902C9.27569 8.13902 9.37569 7.80902 9.31569 7.47902L8.56569 3.79902C8.47569 3.33902 8.06569 2.99902 7.58569 2.99902H3.43569C2.87569 2.99902 2.40569 3.46902 2.43569 4.02902C2.60569 6.91902 3.48569 9.62902 4.86569 11.999C6.44569 14.729 8.71569 16.989 11.4357 18.569C13.8057 19.939 16.5157 20.829 19.4057 20.999C19.9657 21.029 20.4357 20.559 20.4357 19.999V15.849C20.4357 15.369 20.0957 14.959 19.6357 14.869L15.9657 14.139C15.6357 14.069 15.2957 14.169 15.0657 14.399Z" fill="currentColor"/>
</svg>
