<svg  viewBox="0 0 24 24" fill="none" xmlns="http://www.w3.org/2000/svg">
<path d="M12.73 9.77047V3.03047C12.08 2.86047 11.41 2.77047 10.73 2.77047C6.52998 2.77047 2.72998 5.99047 2.72998 10.9705C2.72998 14.2905 5.39998 18.2205 10.73 22.7705C16.06 18.2205 18.73 14.2905 18.73 10.9705C18.73 10.5605 18.69 10.1605 18.64 9.77047H12.73ZM10.73 12.7705C9.62998 12.7705 8.72998 11.8705 8.72998 10.7705C8.72998 9.67047 9.62998 8.77047 10.73 8.77047C11.83 8.77047 12.73 9.67047 12.73 10.7705C12.73 11.8705 11.83 12.7705 10.73 12.7705Z" fill="currentColor"/>
<path d="M21.27 2.65047L19.85 1.23047L17.73 3.36047L15.61 1.23047L14.19 2.65047L16.32 4.77047L14.19 6.89047L15.61 8.31047L17.73 6.18047L19.85 8.31047L21.27 6.89047L19.14 4.77047L21.27 2.65047Z" fill="currentColor"/>
</svg>
