<svg  viewBox="0 0 24 24" fill="none" xmlns="http://www.w3.org/2000/svg">
<path d="M11.92 9.5H13.92V6.5H16.92V4.5H13.92V1.5H11.92V4.5H8.92001V6.5H11.92V9.5ZM7.92001 18.5C6.82001 18.5 5.93001 19.4 5.93001 20.5C5.93001 21.6 6.82001 22.5 7.92001 22.5C9.02001 22.5 9.92001 21.6 9.92001 20.5C9.92001 19.4 9.02001 18.5 7.92001 18.5ZM17.92 18.5C16.82 18.5 15.93 19.4 15.93 20.5C15.93 21.6 16.82 22.5 17.92 22.5C19.02 22.5 19.92 21.6 19.92 20.5C19.92 19.4 19.02 18.5 17.92 18.5ZM9.02001 13.5H16.47C17.22 13.5 17.88 13.09 18.22 12.47L22.08 5.46L20.34 4.5L16.47 11.5H9.45001L5.19001 2.5H1.92001V4.5H3.92001L7.52001 12.09L6.17001 14.53C5.44001 15.87 6.40001 17.5 7.92001 17.5H19.92V15.5H7.92001L9.02001 13.5Z" fill="currentColor"/>
</svg>
