<svg viewBox="0 0 24 24" fill="none" xmlns="http://www.w3.org/2000/svg">
<path d="M6.00079 6.75C6.31079 6.75 6.70079 6.9 6.90079 7.31C7.14079 7.81 6.92079 8.41 6.43079 8.65C6.29079 8.71 6.15079 8.75 6.00079 8.75C5.70079 8.75 5.30079 8.6 5.11079 8.19C4.94079 7.85 5.01079 7.56 5.06079 7.41C5.11079 7.27 5.24079 7.01 5.57079 6.85C5.71079 6.79 5.85079 6.75 6.00079 6.75ZM12.4708 8.86L19.1608 11.27C19.6808 11.46 20.0908 11.83 20.3108 12.32C20.5308 12.8 20.5608 13.35 20.3708 13.85L20.3608 13.87L11.7708 10.76L12.4708 8.86ZM10.0008 15.44L14.0008 16.88V17.25H10.0008V15.44ZM6.00079 4.75C5.56079 4.75 5.12079 4.85 4.70079 5.05C3.21079 5.76 2.58079 7.55 3.30079 9.05C3.81079 10.12 4.88079 10.75 6.00079 10.75C6.44079 10.75 6.88079 10.65 7.30079 10.45C8.79079 9.73 9.42079 7.94 8.71079 6.45C8.19079 5.38 7.12079 4.75 6.00079 4.75ZM11.2808 6.3L9.20079 11.96L21.5608 16.43L22.2508 14.54C23.0208 12.45 21.9408 10.15 19.8408 9.39L11.2808 6.3ZM2.19079 10.5L1.50079 12.39L8.00079 14.73V19.25H16.0008V17.62L20.5208 19.25L21.2108 17.36L2.19079 10.5Z" fill="currentColor"/>
</svg>
