<svg  viewBox="0 0 24 24" fill="none" xmlns="http://www.w3.org/2000/svg">
<path d="M10.5395 14.625L8.40952 12.495L7.34952 13.555L10.5295 16.735L16.5295 10.735L15.4695 9.675L10.5395 14.625ZM17.3365 1.905L21.9435 5.75L20.6635 7.285L16.0535 3.442L17.3365 1.905ZM6.66252 1.905L7.94452 3.441L3.33652 7.285L2.05652 5.749L6.66252 1.905ZM11.9995 4.095C7.02952 4.095 2.99952 8.125 2.99952 13.095C2.99952 18.065 7.02952 22.095 11.9995 22.095C16.9695 22.095 20.9995 18.065 20.9995 13.095C20.9995 8.125 16.9695 4.095 11.9995 4.095ZM11.9995 20.095C8.13952 20.095 4.99952 16.955 4.99952 13.095C4.99952 9.235 8.13952 6.095 11.9995 6.095C15.8595 6.095 18.9995 9.235 18.9995 13.095C18.9995 16.955 15.8595 20.095 11.9995 20.095Z" fill="currentColor"/>
</svg>
