<svg  viewBox="0 0 24 24" fill="none" xmlns="http://www.w3.org/2000/svg">
<path d="M17.3365 1.905L21.9435 5.75L20.6635 7.285L16.0535 3.442L17.3365 1.905ZM6.6625 1.905L7.9445 3.441L3.3365 7.285L2.0565 5.749L6.6625 1.905ZM11.9995 4.095C7.0295 4.095 2.9995 8.125 2.9995 13.095C2.9995 18.065 7.0295 22.095 11.9995 22.095C16.9695 22.095 20.9995 18.065 20.9995 13.095C20.9995 8.125 16.9695 4.095 11.9995 4.095ZM11.9995 20.095C8.1395 20.095 4.9995 16.955 4.9995 13.095C4.9995 9.235 8.1395 6.095 11.9995 6.095C15.8595 6.095 18.9995 9.235 18.9995 13.095C18.9995 16.955 15.8595 20.095 11.9995 20.095ZM12.9995 9.095H10.9995V12.095H7.9995V14.095H10.9995V17.095H12.9995V14.095H15.9995V12.095H12.9995V9.095Z" fill="currentColor"/>
</svg>
