<svg viewBox="0 0 24 24" fill="none" xmlns="http://www.w3.org/2000/svg">
<path d="M19.8049 7.19531L20.7449 5.13531L22.8049 4.19531L20.7449 3.25531L19.8049 1.19531L18.8649 3.25531L16.8049 4.19531L18.8649 5.13531L19.8049 7.19531Z" fill="currentColor"/>
<path d="M13.9749 8.61531L15.3849 10.0253L13.9249 11.4853L15.3349 12.8953L17.5049 10.7253C17.8949 10.3353 17.8949 9.70531 17.5049 9.31531L14.6749 6.48531C14.4849 6.29531 14.2349 6.19531 13.9749 6.19531C13.7149 6.19531 13.4649 6.29531 13.2649 6.48531L11.0949 8.65531L12.5049 10.0653L13.9749 8.61531Z" fill="currentColor"/>
<path d="M1.19495 4.41531L8.26495 11.4853L2.09495 17.6553C1.70495 18.0453 1.70495 18.6753 2.09495 19.0653L4.92495 21.8953C5.12495 22.0953 5.37495 22.1953 5.63495 22.1953C5.89495 22.1953 6.14495 22.0953 6.34495 21.9053L12.5149 15.7353L19.5849 22.8053L20.9949 21.3953L2.61495 3.00531L1.19495 4.41531ZM11.0949 14.3153L5.63495 19.7753L4.22495 18.3653L9.68495 12.9053L11.0949 14.3153Z" fill="currentColor"/>
</svg>
