<svg viewBox="0 0 24 24" fill="none" xmlns="http://www.w3.org/2000/svg">
<path d="M20.9963 19.572L19.5693 21L13.1272 14.558L14.5573 13.13L20.9963 19.572ZM13.1163 3.00195C10.5363 3.00195 7.95625 3.98195 5.97625 5.95195L5.96625 5.96195C2.01625 9.91195 2.01625 16.322 5.96625 20.272L20.2663 5.96195C18.2963 3.99195 15.7063 3.00195 13.1163 3.00195ZM6.13625 17.272C5.39625 16.032 4.99625 14.612 4.99625 13.122C4.99625 12.192 5.15625 11.302 5.45625 10.452C5.64625 12.362 6.34625 14.242 7.52625 15.892L6.13625 17.272ZM8.97625 14.432C7.62625 12.382 7.11625 9.93195 7.59625 7.60195C8.17625 7.48195 8.75625 7.42195 9.34625 7.42195C11.1463 7.42195 12.8963 7.97195 14.4263 8.98195L8.97625 14.432ZM10.4462 5.46195C11.2963 5.16195 12.1862 5.00195 13.1163 5.00195C14.6062 5.00195 16.0263 5.40195 17.2663 6.14195L15.8763 7.53195C14.2263 6.35195 12.3562 5.65195 10.4462 5.46195Z" fill="currentColor"/>
</svg>
