<svg width="24" height="24" viewBox="0 0 24 24" fill="none" xmlns="http://www.w3.org/2000/svg">
<path d="M22.6558 18.9896L13.5758 9.90961C14.5058 7.5696 14.0258 4.80961 12.1358 2.90961C9.83584 0.609605 6.25584 0.399605 3.70584 2.2596L7.54584 6.10961L6.12584 7.51961L2.29584 3.6896C0.435837 6.2296 0.645837 9.8196 2.94584 12.1096C4.80584 13.9696 7.51584 14.4596 9.83584 13.5896L18.9458 22.6996C19.3358 23.0896 19.9658 23.0896 20.3558 22.6996L22.6558 20.3996C23.0558 20.0196 23.0558 19.3896 22.6558 18.9896ZM19.6558 20.5896L10.1958 11.1296C9.58584 11.5796 8.90584 11.8496 8.19584 11.9496C6.83584 12.1496 5.40584 11.7396 4.36584 10.6996C3.41584 9.75961 2.97584 8.49961 3.04584 7.25961L6.13584 10.3496L10.3758 6.10961L7.28584 3.0196C8.52584 2.9496 9.77584 3.3896 10.7258 4.3296C11.8058 5.40961 12.2158 6.89961 11.9658 8.28961C11.8458 8.99961 11.5458 9.65961 11.0858 10.2496L20.5358 19.6996L19.6558 20.5896Z" fill="black"/>
</svg>
