<svg  viewBox="0 0 24 24" fill="none" xmlns="http://www.w3.org/2000/svg">
<path d="M5.03497 21.501H21.035V5.47104L5.03497 21.501ZM19.035 19.501H17.035V12.281L19.035 10.281V19.501ZM4.25497 6.72104L2.96497 5.43104C6.86497 1.52104 13.205 1.52104 17.115 5.43104L15.825 6.72104C12.635 3.53103 7.44497 3.53103 4.25497 6.72104ZM11.965 10.571L10.035 12.501L8.10497 10.571C9.17497 9.51104 10.895 9.51104 11.965 10.571ZM13.255 9.29104C11.475 7.52104 8.59497 7.52104 6.82497 9.29104L5.53497 8.00104C8.01497 5.52104 12.055 5.52104 14.535 8.00104L13.255 9.29104Z" fill="currentColor"/>
</svg>
