<svg  viewBox="0 0 24 24" fill="none" xmlns="http://www.w3.org/2000/svg">
<path d="M13.715 9.2901C13.715 8.7401 14.165 8.2901 14.715 8.2901H17.715C18.265 8.2901 18.715 8.7401 18.715 9.2901V10.2901H17.215V9.7901H15.215V10.7901L13.715 9.2901ZM17.215 12.7901L18.425 14.0001C18.605 13.8101 18.715 13.5601 18.715 13.2901V12.2901H17.215V12.7901ZM9.54498 5.2901H19.715V15.4601L21.695 17.4401C21.695 17.3901 21.715 17.3401 21.715 17.2801V5.2901C21.715 4.1901 20.815 3.2901 19.715 3.2901H7.54498L9.54498 5.2901ZM20.495 21.9001L17.885 19.2901H5.71498C4.60498 19.2901 3.71498 18.3901 3.71498 17.2901V5.2901C3.71498 5.2401 3.73498 5.1901 3.73498 5.1401L2.10498 3.5101L3.51498 2.1001L21.895 20.4801L20.495 21.9001ZM8.21498 12.7901H10.215V12.2901H10.885L8.38498 9.7901H8.21498V12.7901ZM15.885 17.2901L11.715 13.1201V13.2901C11.715 13.8401 11.265 14.2901 10.715 14.2901H7.71498C7.16498 14.2901 6.71498 13.8401 6.71498 13.2901V9.2901C6.71498 8.9701 6.87498 8.7001 7.11498 8.5101L5.71498 7.1201V17.2901H15.885Z" fill="currentColor"/>
</svg>
