<svg  viewBox="0 0 24 24" fill="none" xmlns="http://www.w3.org/2000/svg">
<path d="M19.485 15.3452H20.655V3.34521H7.48497L5.48497 1.34521H20.655C21.755 1.34521 22.655 2.24521 22.655 3.34521V18.5152L19.485 15.3452ZM18.655 5.34521H9.48497L11.485 7.34521H18.655V5.34521ZM18.655 8.34521H12.485L14.485 10.3452H18.655V8.34521ZM18.655 13.3452V11.3452H15.485L17.485 13.3452H18.655ZM22.555 21.2452L21.145 22.6552L15.825 17.3452H4.65497C3.55497 17.3452 2.65497 16.4452 2.65497 15.3452V4.17521L1.34497 2.85521L2.75497 1.44521L22.555 21.2452ZM13.825 15.3452L11.825 13.3452H6.65497V11.3452H9.82497L8.82497 10.3452H6.65497V8.34521H6.82497L4.65497 6.17521V15.3452H13.825Z" fill="currentColor"/>
</svg>
