<svg  viewBox="0 0 24 24" fill="none" xmlns="http://www.w3.org/2000/svg">
<path d="M10.4998 10.0119C11.3282 10.0119 11.9998 9.3403 11.9998 8.51188C11.9998 7.68345 11.3282 7.01188 10.4998 7.01188C9.67133 7.01188 8.99976 7.68345 8.99976 8.51188C8.99976 9.3403 9.67133 10.0119 10.4998 10.0119Z" fill="currentColor"/>
<path d="M8.49976 15.0119C9.32818 15.0119 9.99976 14.3403 9.99976 13.5119C9.99976 12.6834 9.32818 12.0119 8.49976 12.0119C7.67133 12.0119 6.99976 12.6834 6.99976 13.5119C6.99976 14.3403 7.67133 15.0119 8.49976 15.0119Z" fill="currentColor"/>
<path d="M14.9998 16.0119C15.552 16.0119 15.9998 15.5642 15.9998 15.0119C15.9998 14.4596 15.552 14.0119 14.9998 14.0119C14.4475 14.0119 13.9998 14.4596 13.9998 15.0119C13.9998 15.5642 14.4475 16.0119 14.9998 16.0119Z" fill="currentColor"/>
<path d="M21.9498 11.0019C20.1598 10.9719 18.2498 9.05188 19.2698 6.78188C16.2998 7.78188 13.4898 5.19188 14.0798 2.22188C7.10976 0.751877 1.99976 6.42188 1.99976 12.0119C1.99976 17.5319 6.47976 22.0119 11.9998 22.0119C17.8898 22.0119 22.5398 16.9319 21.9498 11.0019ZM11.9998 20.0119C7.58976 20.0119 3.99976 16.4219 3.99976 12.0119C3.99976 8.70188 6.72976 3.83188 12.0798 3.99188C12.4998 6.53188 14.5198 8.55188 17.0698 8.93188C17.1398 9.29188 17.5898 11.4819 19.9898 12.5619C19.6998 16.8719 16.0598 20.0119 11.9998 20.0119Z" fill="currentColor"/>
</svg>
