<svg  viewBox="0 0 24 24" fill="none" xmlns="http://www.w3.org/2000/svg">
<path d="M9.5 11.9941C9.5 12.5441 9.05 12.9941 8.5 12.9941C7.95 12.9941 7.5 12.5441 7.5 11.9941C7.5 11.4441 7.95 10.9941 8.5 10.9941C9.05 10.9941 9.5 11.4441 9.5 11.9941ZM13.75 9.99414C14.3 9.99414 14.75 9.54414 14.75 8.99414C14.75 8.44414 14.3 7.99414 13.75 7.99414C13.2 7.99414 12.75 8.44414 12.75 8.99414C12.75 9.54414 13.2 9.99414 13.75 9.99414ZM10.25 9.99414C10.8 9.99414 11.25 9.54414 11.25 8.99414C11.25 8.44414 10.8 7.99414 10.25 7.99414C9.7 7.99414 9.25 8.44414 9.25 8.99414C9.25 9.54414 9.7 9.99414 10.25 9.99414ZM10.25 13.9941C9.7 13.9941 9.25 14.4441 9.25 14.9941C9.25 15.5441 9.7 15.9941 10.25 15.9941C10.8 15.9941 11.25 15.5441 11.25 14.9941C11.25 14.4441 10.8 13.9941 10.25 13.9941ZM22 11.2441V12.7441C22 13.1541 21.66 13.4941 21.25 13.4941C20.84 13.4941 20.5 13.1541 20.5 12.7441H18.96C18.81 14.1141 18.27 15.3741 17.44 16.3941L18.53 17.4841L18.54 17.4741C18.83 17.1841 19.31 17.1841 19.6 17.4741C19.89 17.7641 19.89 18.2441 19.6 18.5341L18.54 19.5941C18.25 19.8841 17.77 19.8841 17.48 19.5941C17.19 19.3041 17.19 18.8341 17.47 18.5441L16.38 17.4541C15.36 18.2741 14.11 18.8141 12.74 18.9641V20.5041H12.75C13.16 20.5041 13.5 20.8441 13.5 21.2541C13.5 21.6641 13.16 22.0041 12.75 22.0041H11.25C10.84 22.0041 10.5 21.6641 10.5 21.2541C10.5 20.8441 10.83 20.5141 11.24 20.5041V18.9541C9.87 18.8041 8.62 18.2641 7.61 17.4441L6.52 18.5341L6.53 18.5441C6.82 18.8341 6.82 19.3141 6.53 19.6041C6.24 19.8941 5.76 19.8941 5.47 19.6041L4.4 18.5341C4.11 18.2441 4.11 17.7641 4.4 17.4741C4.69 17.1841 5.16 17.1841 5.45 17.4641L6.54 16.3741C5.72 15.3541 5.18 14.1141 5.04 12.7441H3.5C3.5 13.1541 3.16 13.4941 2.75 13.4941C2.34 13.4941 2 13.1541 2 12.7441V11.2441C2 10.8341 2.34 10.4941 2.75 10.4941C3.16 10.4941 3.5 10.8341 3.5 11.2441H5.04C5.19 9.87414 5.73 8.63414 6.54 7.61414L5.45 6.52414C5.16 6.80414 4.69 6.80414 4.4 6.51414C4.11 6.22414 4.11 5.74414 4.4 5.45414L5.46 4.39414C5.75 4.10414 6.23 4.10414 6.52 4.39414C6.81 4.68414 6.81 5.16414 6.52 5.45414L6.51 5.46414L7.6 6.55414C8.62 5.73414 9.86 5.19414 11.23 5.04414V3.49414C10.82 3.48414 10.49 3.15414 10.49 2.74414C10.5 2.33414 10.84 1.99414 11.25 1.99414H12.75C13.16 1.99414 13.5 2.33414 13.5 2.74414C13.5 3.15414 13.16 3.49414 12.75 3.49414H12.74V5.03414C14.11 5.17414 15.36 5.72414 16.38 6.54414L17.47 5.45414C17.18 5.16414 17.19 4.69414 17.48 4.40414C17.77 4.11414 18.25 4.11414 18.54 4.40414L19.6 5.46414C19.89 5.75414 19.89 6.23414 19.6 6.52414C19.31 6.81414 18.83 6.81414 18.54 6.52414L18.53 6.51414L17.44 7.59414C18.26 8.61414 18.81 9.86414 18.96 11.2441H20.5C20.5 10.8341 20.84 10.4941 21.25 10.4941C21.66 10.4941 22 10.8341 22 11.2441ZM17 11.9941C17 9.23414 14.76 6.99414 12 6.99414C9.24 6.99414 7 9.23414 7 11.9941C7 14.7541 9.24 16.9941 12 16.9941C14.76 16.9941 17 14.7541 17 11.9941ZM12 10.9941C11.45 10.9941 11 11.4441 11 11.9941C11 12.5441 11.45 12.9941 12 12.9941C12.55 12.9941 13 12.5441 13 11.9941C13 11.4441 12.55 10.9941 12 10.9941ZM15.5 10.9941C14.95 10.9941 14.5 11.4441 14.5 11.9941C14.5 12.5441 14.95 12.9941 15.5 12.9941C16.05 12.9941 16.5 12.5441 16.5 11.9941C16.5 11.4441 16.05 10.9941 15.5 10.9941ZM13.75 13.9941C13.2 13.9941 12.75 14.4441 12.75 14.9941C12.75 15.5441 13.2 15.9941 13.75 15.9941C14.3 15.9941 14.75 15.5441 14.75 14.9941C14.75 14.4441 14.3 13.9941 13.75 13.9941Z" fill="currentColor"/>
</svg>
