<svg width="24" height="24" viewBox="0 0 24 24" fill="none" xmlns="http://www.w3.org/2000/svg">
<path d="M7.48497 3.29502H20.655C21.765 3.29502 22.655 4.18502 22.655 5.29502V17.295C22.655 17.635 22.575 17.955 22.425 18.235L20.655 16.465V11.295H15.485L11.485 7.29502H20.655V5.29502H9.48497L7.48497 3.29502ZM21.145 22.605L17.825 19.295H4.65497C3.54497 19.295 2.65497 18.405 2.65497 17.295L2.66497 5.29502C2.66497 4.95502 2.74497 4.63502 2.89497 4.36502L1.34497 2.80502L2.75497 1.39502L22.555 21.195L21.145 22.605ZM4.65497 6.12502V7.29502H5.82497L4.65497 6.12502ZM15.825 17.295L9.82497 11.295H4.65497V17.295H15.825Z" fill="black"/>
</svg>
