<svg viewBox="0 0 24 24" fill="none" xmlns="http://www.w3.org/2000/svg">
<path d="M22.0143 10.9859L13.0143 1.98586C12.6243 1.59586 11.9943 1.59586 11.6043 1.98586L8.51434 5.07586L9.92434 6.48586L12.3043 4.11586L19.8843 11.6959L17.5043 14.0759L18.9143 15.4859L22.0043 12.3959C22.4043 12.0259 22.4043 11.3959 22.0143 10.9859Z" fill="currentColor"/>
<path d="M13.3043 7.19586V9.86586L15.4743 12.0359L16.8043 10.6959L13.3043 7.19586Z" fill="currentColor"/>
<path d="M1.69434 3.91586L5.68434 7.90586L2.59434 10.9959C2.20434 11.3859 2.20434 12.0159 2.59434 12.4059L11.5943 21.4059C11.9843 21.7959 12.6143 21.7959 13.0043 21.4059L16.0943 18.3159L20.0843 22.3059L21.4943 20.8959L3.11434 2.50586L1.69434 3.91586ZM8.33434 10.5459C8.32434 10.5959 8.29434 10.6459 8.29434 10.6959V14.6959H10.2943V12.5159L14.6743 16.8959L12.3043 19.2759L4.72434 11.6959L7.10434 9.31586L8.33434 10.5459Z" fill="currentColor"/>
</svg>
