<svg  viewBox="0 0 24 24" fill="none" xmlns="http://www.w3.org/2000/svg">
<path d="M22.4274 10.5938L13.4174 1.58383C12.6674 0.833834 11.3474 0.823834 10.5874 1.58383L1.58744 10.5838C0.807441 11.3638 0.807441 12.6238 1.58744 13.4038L10.5874 22.4038C10.9774 22.7938 11.4874 22.9838 11.9974 22.9838C12.5074 22.9838 13.0174 22.7938 13.4074 22.4038L22.3974 13.4138C23.1874 12.6538 23.1974 11.3938 22.4274 10.5938ZM12.0074 20.9938L3.00744 11.9938L12.0074 2.99383L21.0074 11.9938L12.0074 20.9938ZM7.99744 11.0038V15.0038H9.99744V12.0038H13.9974V14.5038L17.4974 11.0038L13.9974 7.50383V10.0038H8.99744C8.44744 10.0038 7.99744 10.4538 7.99744 11.0038Z" fill="currentColor"/>
</svg>
