<svg  viewBox="0 0 24 24" fill="none" xmlns="http://www.w3.org/2000/svg">
<path d="M13.0012 3V4H11.0012V3H13.0012ZM12.0012 10.11L17.3812 11.88L19.7712 12.66L18.6512 16.63C18.1112 16.33 17.7112 15.92 17.5112 15.69L16.0012 13.96L14.4912 15.68C14.1512 16.08 13.2112 17 12.0012 17C10.7912 17 9.85117 16.08 9.51117 15.68L8.00117 13.96L6.49117 15.68C6.29117 15.91 5.89117 16.31 5.35117 16.61L4.22117 12.65L6.62117 11.86L12.0012 10.11ZM15.0012 1H9.00117V4H6.00117C4.90117 4 4.00117 4.9 4.00117 6V10.62L2.71117 11.04C2.45117 11.12 2.23117 11.3 2.11117 11.54C1.99117 11.78 1.96117 12.06 2.05117 12.32L3.95117 19H4.00117C5.60117 19 7.02117 18.12 8.00117 17C8.98117 18.12 10.4012 19 12.0012 19C13.6012 19 15.0212 18.12 16.0012 17C16.9812 18.12 18.4012 19 20.0012 19H20.0512L21.9412 12.32C22.0212 12.06 22.0012 11.78 21.8812 11.54C21.7612 11.3 21.5412 11.12 21.2812 11.04L20.0012 10.62V6C20.0012 4.9 19.1012 4 18.0012 4H15.0012V1ZM6.00117 9.97V6H18.0012V9.97L12.0012 8L6.00117 9.97ZM16.0012 19.68C14.7812 20.53 13.3912 20.96 12.0012 20.96C10.6112 20.96 9.22117 20.53 8.00117 19.68C6.78117 20.53 5.39117 21 4.00117 21H2.00117V23H4.00117C5.38117 23 6.74117 22.65 8.00117 22.01C9.26117 22.65 10.6312 22.98 12.0012 22.98C13.3712 22.98 14.7412 22.66 16.0012 22.01C17.2612 22.66 18.6212 23 20.0012 23H22.0012V21H20.0012C18.6112 21 17.2212 20.53 16.0012 19.68Z" fill="currentColor"/>
</svg>
