<svg  viewBox="0 0 24 24" fill="none" xmlns="http://www.w3.org/2000/svg">
<path d="M19.7691 12.66L18.6491 16.63C17.8691 16.2 17.5791 15.77 15.9991 13.96C14.3991 15.78 13.5691 17 11.9991 17C10.4691 17 9.65908 15.85 7.99908 13.96C6.39908 15.78 6.12908 16.17 5.34908 16.61L4.21908 12.65L11.9991 10.11L19.7691 12.66ZM14.9991 1H8.99908V4H5.99908C4.89908 4 3.99908 4.9 3.99908 6V10.62L2.70908 11.04C2.07908 11.23 1.89908 11.88 2.04908 12.32L3.94908 19H3.99908C5.59908 19 7.01908 18.12 7.99908 17C8.97908 18.12 10.3991 19 11.9991 19C13.5991 19 15.0191 18.12 15.9991 17C16.9791 18.12 18.3991 19 19.9991 19H20.0491L21.9591 12.32C22.0691 11.95 21.9991 11.26 21.2991 11.04L19.9991 10.62V6C19.9991 4.9 19.0991 4 17.9991 4H14.9991V1ZM5.99908 9.97V6H17.9991V9.97L11.9991 8L5.99908 9.97ZM15.9991 19.68C14.7791 20.53 13.3891 20.96 11.9991 20.96C10.6091 20.96 9.21908 20.53 7.99908 19.68C6.77908 20.53 5.38908 21 3.99908 21H1.99908V23H3.99908C5.37908 23 6.73908 22.65 7.99908 22.01C9.25908 22.65 10.6291 22.98 11.9991 22.98C13.3691 22.98 14.7391 22.66 15.9991 22.01C17.2591 22.66 18.6191 23 19.9991 23H21.9991V21H19.9991C18.6091 21 17.2191 20.53 15.9991 19.68Z" fill="currentColor"/>
</svg>
