<svg  viewBox="0 0 24 24" fill="none" xmlns="http://www.w3.org/2000/svg">
<path d="M2.25497 0.845215L0.844971 2.25521L2.84497 4.25521V20.1552H18.745L21.745 23.1552L23.155 21.7452L2.25497 0.845215ZM6.84497 18.1552H4.84497V16.1552H6.84497V18.1552ZM6.84497 14.1552H4.84497V12.1552H6.84497V14.1552ZM4.84497 10.1552V8.15521H6.84497V10.1552H4.84497ZM10.845 18.1552H8.84497V16.1552H10.845V18.1552ZM8.84497 14.1552V12.1552H10.845V14.1552H8.84497ZM12.845 18.1552V16.1552H14.745L16.745 18.1552H12.845ZM8.84497 4.15521H10.845V6.15521H10.395L12.845 8.60521V8.15521H20.845V16.6052L22.845 18.6052V6.15521H12.845V2.15521H6.39497L8.84497 4.60521V4.15521ZM16.845 10.1552H18.845V12.1552H16.845V10.1552Z" fill="currentColor"/>
</svg>
