<svg  viewBox="0 0 24 24" fill="none" xmlns="http://www.w3.org/2000/svg">
<path d="M13.0249 5.08005C16.0849 5.52005 18.5049 7.94005 18.9449 11H21.9749C21.5049 6.28005 17.7449 2.52005 13.0249 2.05005V5.08005ZM18.9449 13C18.5049 16.06 16.0849 18.48 13.0249 18.92V21.9501C17.7449 21.4801 21.5049 17.72 21.9749 13H18.9449ZM11.0249 18.92C7.6349 18.43 5.0249 15.52 5.0249 12C5.0249 8.48005 7.6349 5.57005 11.0249 5.08005V2.05005C5.9749 2.55005 2.0249 6.81005 2.0249 12C2.0249 17.19 5.9749 21.4501 11.0249 21.9501V18.92Z" fill="currentColor"/>
</svg>
