<svg width="24" height="24" viewBox="0 0 24 24" fill="none" xmlns="http://www.w3.org/2000/svg">
<path d="M14.845 11H21.975C21.505 6.28005 17.745 2.52005 13.025 2.05005V9.18005C13.875 9.49005 14.535 10.15 14.845 11ZM15.025 4.58005C17.025 5.40005 18.625 7.00005 19.445 9.00005H16.015C15.735 8.63005 15.395 8.29005 15.025 8.01005V4.58005ZM2.025 12C2.025 17.19 5.975 21.4501 11.025 21.9501V14.82C9.865 14.4 9.025 13.3 9.025 12C9.025 10.7 9.865 9.60005 11.025 9.18005V2.05005C5.975 2.55005 2.025 6.81005 2.025 12ZM9.025 4.58005V8.02005C7.795 8.94005 7.025 10.41 7.025 12C7.025 13.59 7.795 15.06 9.025 15.99V19.43C6.065 18.24 4.025 15.35 4.025 12C4.025 8.65005 6.065 5.76005 9.025 4.58005ZM13.025 14.82V21.9501C17.745 21.4801 21.505 17.72 21.975 13H14.845C14.535 13.85 13.875 14.51 13.025 14.82ZM15.025 15.99C15.395 15.71 15.735 15.38 16.015 15H19.445C18.625 17 17.025 18.6 15.025 19.42V15.99Z" fill="black"/>
</svg>
