<svg  viewBox="0 0 24 24" fill="none" xmlns="http://www.w3.org/2000/svg">
<path d="M17.6688 5.40091L16.5988 4.33091L11.0488 9.88091V10.9609H12.1288L17.6688 5.40091ZM16.7888 1.94091C16.9274 1.80062 17.0924 1.68923 17.2744 1.61321C17.4563 1.53719 17.6516 1.49805 17.8488 1.49805C18.046 1.49805 18.2412 1.53719 18.4232 1.61321C18.6051 1.68923 18.7702 1.80062 18.9088 1.94091L20.0588 3.09091C20.6488 3.68091 20.6488 4.63091 20.0588 5.21091L12.7788 12.4909H9.49878V9.23091L16.7888 1.94091ZM13.2188 2.68091L11.3988 4.50091C8.09878 4.55091 5.49878 7.10091 5.49878 10.7009C5.49878 13.0409 7.44878 16.1409 11.4988 19.8409C15.5488 16.1409 17.4988 13.0509 17.4988 10.7009V10.6009L19.2988 8.80091C19.4288 9.40091 19.4988 10.0409 19.4988 10.7009C19.4988 14.0209 16.8288 17.9509 11.4988 22.5009C6.16878 17.9509 3.49878 14.0209 3.49878 10.7009C3.49878 5.72091 7.29878 2.50091 11.4988 2.50091C12.0788 2.50091 12.6588 2.56091 13.2188 2.68091Z" fill="currentColor"/>
</svg>
