<svg  viewBox="0 0 24 24" fill="none" xmlns="http://www.w3.org/2000/svg">
<path d="M10.4988 11.5005H12.6188L18.7788 5.34055L16.6588 3.22055L10.4988 9.38055V11.5005ZM20.2088 2.50055L19.4988 1.79055C19.1088 1.40055 18.4788 1.40055 18.0888 1.79055L17.3688 2.51055L19.4888 4.63055L20.2088 3.91055C20.5988 3.52055 20.5988 2.89055 20.2088 2.50055ZM17.3988 9.55055C17.4588 9.91055 17.4988 10.2905 17.4988 10.7005C17.4988 12.4105 16.4188 15.3405 11.4988 19.8405C6.57878 15.3505 5.49878 12.4105 5.49878 10.7005C5.49878 6.67055 8.58878 4.50055 11.4988 4.50055C11.8188 4.50055 12.1488 4.53055 12.4688 4.58055L14.1188 2.93055C13.2788 2.66055 12.3988 2.50055 11.4988 2.50055C7.29878 2.50055 3.49878 5.72055 3.49878 10.7005C3.49878 14.0205 6.16878 17.9505 11.4988 22.5005C16.8288 17.9505 19.4988 14.0205 19.4988 10.7005C19.4988 9.69055 19.3388 8.76055 19.0488 7.90055L17.3988 9.55055Z" fill="currentColor"/>
</svg>
