<svg width="24" height="24" viewBox="0 0 24 24" fill="none" xmlns="http://www.w3.org/2000/svg">
<path d="M14.77 8.30998L15.69 9.22998L14.58 10.34L15.99 11.75L18.51 9.22998L14.76 5.47998L12.24 7.99998L13.65 9.40998L14.77 8.30998ZM21.42 6.32998C21.81 5.93998 21.81 5.30998 21.42 4.91998L19.08 2.57998C18.88 2.37998 18.63 2.28998 18.37 2.28998C18.11 2.28998 17.86 2.38998 17.67 2.57998L15.84 4.40998L19.59 8.15998L21.42 6.32998ZM3.51998 2.09998L2.09998 3.50998L9.41998 10.83L3.70998 16.54V20.29H7.45998L13.17 14.58L20.49 21.9L21.9 20.49L3.51998 2.09998ZM6.62998 18.29H5.70998V17.37L10.84 12.24L11.76 13.16L6.62998 18.29Z" fill="black"/>
</svg>
