<svg  viewBox="0 0 24 24" fill="none" xmlns="http://www.w3.org/2000/svg">
<path d="M21.29 13.9L18 12L21.29 10.1C21.77 9.82 21.93 9.21 21.66 8.73L19.66 5.27C19.38 4.79 18.77 4.63 18.29 4.9L15 6.8V3C15 2.45 14.55 2 14 2H10C9.45 2 9 2.45 9 3V6.8L5.71 4.9C5.23 4.63 4.62 4.79 4.34 5.27L2.34 8.73C2.06 9.21 2.23 9.82 2.71 10.1L6 12L2.71 13.9C2.23 14.18 2.07 14.79 2.34 15.27L4.34 18.73C4.62 19.21 5.23 19.37 5.71 19.1L9 17.2V21C9 21.55 9.45 22 10 22H14C14.55 22 15 21.55 15 21V17.2L18.29 19.1C18.77 19.38 19.38 19.21 19.66 18.73L21.66 15.27C21.94 14.79 21.77 14.18 21.29 13.9ZM18.43 16.87L13.75 14.17C13.42 13.97 13 14.21 13 14.6V20H11V14.6C11 14.22 10.58 13.97 10.25 14.17L5.57 16.87L4.57 15.14L9.25 12.44C9.58 12.25 9.58 11.77 9.25 11.57L4.57 8.87L5.57 7.14L10.25 9.84C10.58 10.03 11 9.79 11 9.4V4H13V9.4C13 9.78 13.42 10.03 13.75 9.83L18.43 7.13L19.43 8.86L14.75 11.56C14.42 11.75 14.42 12.23 14.75 12.43L19.43 15.13L18.43 16.87Z" fill="currentColor"/>
</svg>
