<svg  viewBox="0 0 24 24" fill="none" xmlns="http://www.w3.org/2000/svg">
<path d="M12.0016 2.5C11.5416 2.5 11.0716 2.54 10.6016 2.64C7.84162 3.17 5.64162 5.4 5.12162 8.16C4.64162 10.77 5.60162 13.17 7.34162 14.72C7.77162 15.1 8.00162 15.63 8.00162 16.19V18.5C8.00162 19.6 8.90162 20.5 10.0016 20.5H10.2816C10.6316 21.1 11.2616 21.5 12.0016 21.5C12.7416 21.5 13.3816 21.1 13.7216 20.5H14.0016C15.1016 20.5 16.0016 19.6 16.0016 18.5V16.19C16.0016 15.64 16.2216 15.1 16.6416 14.73C18.0916 13.45 19.0016 11.58 19.0016 9.5C19.0016 5.63 15.8716 2.5 12.0016 2.5ZM14.0016 16.5H10.0016V15.5H14.0016V16.5ZM10.0016 18.5V17.5H14.0016V18.5H10.0016ZM15.3116 13.24C15.2216 13.32 15.1516 13.42 15.0716 13.5H8.92162C8.84162 13.41 8.77162 13.31 8.68162 13.23C7.36162 12.05 6.77162 10.29 7.09162 8.53C7.45162 6.59 9.05162 4.98 10.9816 4.6C11.3216 4.53 11.6616 4.5 12.0016 4.5C14.7616 4.5 17.0016 6.74 17.0016 9.5C17.0016 10.93 16.3916 12.29 15.3116 13.24Z" fill="currentColor"/>
<path d="M12.5016 10.5H11.5016V13.5H12.5016V10.5Z" fill="currentColor"/>
<path d="M10.3811 8.37372L9.67402 9.08082L11.7953 11.2021L12.5024 10.495L10.3811 8.37372Z" fill="currentColor"/>
<path d="M11.5026 10.5052L12.2097 11.2123L14.331 9.09098L13.6239 8.38388L11.5026 10.5052Z" fill="currentColor"/>
</svg>
