<svg  viewBox="0 0 24 24" fill="none" xmlns="http://www.w3.org/2000/svg">
<path d="M1.44495 4.16995L3.06495 5.78995C3.06495 5.83995 3.05495 5.88995 3.05495 5.94995V9.74995C5.75495 9.74995 6.05495 11.91 6.05495 12.45C6.05495 12.99 5.76495 15.15 3.05495 15.15V18.95C3.05495 20.05 3.95495 20.95 5.05495 20.95H8.85495C8.85495 18.24 11.0149 17.95 11.5549 17.95C12.0949 17.95 14.2549 18.24 14.2549 20.95H18.0549C18.1149 20.95 18.1649 20.95 18.2149 20.94L19.8249 22.55L21.2349 21.14L2.86495 2.75995L1.44495 4.16995ZM11.5549 15.95C10.0549 15.95 7.98495 16.78 7.18495 18.95H5.05495V16.82C7.22495 16.02 8.05495 13.95 8.05495 12.45C8.05495 11.76 7.87495 10.95 7.47495 10.2L13.8049 16.53C13.0549 16.13 12.2449 15.95 11.5549 15.95ZM8.88495 5.94995L6.88495 3.94995H9.05495C9.05495 2.56995 10.1749 1.44995 11.5549 1.44995C12.9349 1.44995 14.0549 2.56995 14.0549 3.94995H18.0549C19.1549 3.94995 20.0549 4.84995 20.0549 5.94995V9.94995C21.4349 9.94995 22.5549 11.07 22.5549 12.45C22.5549 13.83 21.4349 14.95 20.0549 14.95V17.12L18.0549 15.12V12.95H20.0549C20.3349 12.95 20.5549 12.73 20.5549 12.45C20.5549 12.17 20.3349 11.95 20.0549 11.95H18.0549V5.94995H12.0549V3.94995C12.0549 3.66995 11.8349 3.44995 11.5549 3.44995C11.2749 3.44995 11.0549 3.66995 11.0549 3.94995V5.94995H8.88495Z" fill="currentColor"/>
</svg>
