<svg  viewBox="0 0 24 24" fill="none" xmlns="http://www.w3.org/2000/svg">
<path d="M17 20.3899C16.71 20.3899 16.44 20.3299 16.24 20.2399C15.53 19.8699 15.03 19.3599 14.53 17.8599C14.02 16.2999 13.06 15.5699 12.14 14.8599C11.35 14.2499 10.53 13.6199 9.82 12.3299C9.29 11.3699 9 10.3199 9 9.38986C9 6.58986 11.2 4.38986 14 4.38986C16.8 4.38986 19 6.58986 19 9.38986H21C21 5.45986 17.93 2.38986 14 2.38986C10.07 2.38986 7 5.45986 7 9.38986C7 10.6499 7.38 12.0399 8.07 13.2899C8.98 14.9399 10.05 15.7699 10.92 16.4399C11.73 17.0599 12.31 17.5099 12.63 18.4899C13.23 20.3099 14 21.3299 15.36 22.0399C15.87 22.2699 16.43 22.3899 17 22.3899C19.21 22.3899 21 20.5999 21 18.3899H19C19 19.4899 18.1 20.3899 17 20.3899ZM7.64 3.02986L6.22 1.60986C4.23 3.59986 3 6.34986 3 9.38986C3 12.4299 4.23 15.1799 6.22 17.1699L7.63 15.7599C6.01 14.1299 5 11.8799 5 9.38986C5 6.89986 6.01 4.64986 7.64 3.02986ZM11.5 9.38986C11.5 10.7699 12.62 11.8899 14 11.8899C15.38 11.8899 16.5 10.7699 16.5 9.38986C16.5 8.00986 15.38 6.88986 14 6.88986C12.62 6.88986 11.5 8.00986 11.5 9.38986Z" fill="currentColor"/>
</svg>
