<svg  viewBox="0 0 24 24" fill="none" xmlns="http://www.w3.org/2000/svg">
<path d="M11.93 5.56453L17.67 10.0345L15.78 11.5045L17.21 12.9245L20.93 10.0345L11.93 3.03453L9.33999 5.05453L10.76 6.47453L11.93 5.56453ZM20.93 15.1045L19.3 13.8345L18.63 14.3545L20.06 15.7845L20.93 15.1045ZM3.33999 1.89453L1.92999 3.30453L6.14999 7.52453L2.92999 10.0345L11.93 17.0345L14.03 15.4045L15.45 16.8245L11.92 19.5745L4.54999 13.8445L2.92999 15.1045L11.93 22.1045L16.88 18.2545L20.66 22.0345L22.07 20.6245L3.33999 1.89453ZM11.93 14.5045L6.18999 10.0345L7.57999 8.95453L12.6 13.9745L11.93 14.5045Z" fill="currentColor"/>
</svg>
