<svg viewBox="0 0 24 24" fill="none" xmlns="http://www.w3.org/2000/svg">
<path d="M13.93 3.06969H11.93C11.93 4.41969 11.62 5.69969 11.09 6.83969L12.58 8.32969C13.44 6.76969 13.93 4.97969 13.93 3.06969ZM20.93 12.0697V10.0697C19.02 10.0697 17.23 10.5597 15.66 11.4197L17.15 12.9097C18.3 12.3797 19.58 12.0697 20.93 12.0697ZM20.93 16.0697V14.0697C20.14 14.0697 19.39 14.1997 18.69 14.4397L20.37 16.1197C20.56 16.1097 20.74 16.0697 20.93 16.0697ZM9.93 3.06969H7.93C7.93 3.25969 7.89 3.43969 7.87 3.62969L9.55 5.30969C9.8 4.60969 9.93 3.84969 9.93 3.06969ZM4.34 2.92969L2.93 4.33969L5.77 7.17969C4.96 7.73969 3.99 8.06969 2.93 8.06969V10.0697C4.54 10.0697 6.02 9.51969 7.2 8.60969L8.63 10.0397C7.07 11.3097 5.09 12.0697 2.93 12.0697V14.0697C5.65 14.0697 8.13 13.0797 10.04 11.4497L12.55 13.9597C10.92 15.8797 9.93 18.3597 9.93 21.0697H11.93C11.93 18.9097 12.69 16.9297 13.96 15.3697L15.39 16.7997C14.48 17.9797 13.93 19.4597 13.93 21.0697H15.93C15.93 20.0097 16.26 19.0397 16.82 18.2297L19.66 21.0697L21.07 19.6597L4.34 2.92969Z" fill="currentColor"/>
</svg>
