<svg  viewBox="0 0 24 24" fill="none" xmlns="http://www.w3.org/2000/svg">
<path d="M19.4818 12.6021C17.9118 8.52209 12.3218 8.30209 13.6718 2.37209C13.7718 1.93209 13.3018 1.59209 12.9218 1.82209C9.29183 3.96209 6.68183 8.25209 8.87183 13.8721C9.05183 14.3321 8.51183 14.7621 8.12183 14.4621C6.31183 13.0921 6.12183 11.1221 6.28183 9.71209C6.34183 9.19209 5.66183 8.94209 5.37183 9.37209C4.69183 10.4121 4.00183 12.0921 4.00183 14.6221C4.38183 20.2221 9.11183 21.9421 10.8118 22.1621C13.2418 22.4721 15.8718 22.0221 17.7618 20.2921C19.8418 18.3621 20.6018 15.2821 19.4818 12.6021ZM10.2018 17.6321C11.6418 17.2821 12.3818 16.2421 12.5818 15.3221C12.9118 13.8921 11.6218 12.4921 12.4918 10.2321C12.8218 12.1021 15.7618 13.2721 15.7618 15.3121C15.8418 17.8421 13.1018 20.0121 10.2018 17.6321Z" fill="currentColor"/>
</svg>
