<svg width="24" height="24" viewBox="0 0 24 24" fill="none" xmlns="http://www.w3.org/2000/svg">
<path d="M12.9301 4C15.6901 4 17.9301 6.24 17.9301 9C17.9301 10.06 17.5401 11.32 16.9301 12.62L18.4201 14.11C19.3001 12.36 19.9301 10.57 19.9301 9C19.9301 5.13 16.8001 2 12.9301 2C11.0901 2 9.43005 2.71 8.18005 3.86L9.61005 5.29C10.4901 4.5 11.6501 4 12.9301 4ZM12.9301 6.5C12.3401 6.5 11.8001 6.71 11.3701 7.06L14.8701 10.56C15.2201 10.13 15.4301 9.59 15.4301 9C15.4301 7.62 14.3101 6.5 12.9301 6.5ZM4.34005 2.86L2.93005 4.27L6.11005 7.45C6.00005 7.95 5.93005 8.47 5.93005 9C5.93005 14.25 12.9301 22 12.9301 22C12.9301 22 14.6001 20.15 16.3101 17.65L19.6601 21L21.0701 19.59L4.34005 2.86ZM12.9301 18.88C10.9201 16.3 8.13005 12.14 7.95005 9.29L14.8701 16.21C14.2201 17.19 13.5401 18.1 12.9301 18.88Z" fill="black"/>
</svg>
