<svg width="24" height="22" viewBox="0 0 24 22" fill="none" xmlns="http://www.w3.org/2000/svg">
<path d="M2 17.2222C2 18.2 2.9 19 4 19H20C21.1 19 22 18.2 22 17.2222V14.5556H2V17.2222ZM4 16.3333H20V17.2222H4V16.3333Z" fill="currentColor"/>
<path d="M18.66 10.5556C16.71 10.5556 16.57 11.4444 15.33 11.4444C14.14 11.4444 13.91 10.5556 12 10.5556C10.05 10.5556 9.91 11.4444 8.67 11.4444C7.48 11.4444 7.25 10.5556 5.34 10.5556C3.39 10.5556 3.25 11.4444 2.01 11.4444V13.2222C3.91 13.2222 4.18 12.3333 5.36 12.3333C6.55 12.3333 6.78 13.2222 8.69 13.2222C10.64 13.2222 10.78 12.3333 12.02 12.3333C13.21 12.3333 13.44 13.2222 15.35 13.2222C17.3 13.2222 17.44 12.3333 18.68 12.3333C19.87 12.3333 20.08 13.2044 22 13.2222L21.99 11.4622C20.38 11.1689 20.37 10.5556 18.66 10.5556Z" fill="currentColor"/>
<path d="M22 8.33333C22.02 4.77778 17.72 3 12 3C6.29 3 2 4.77778 2 8.33333V9.22222H22V8.33333ZM4.18 7.44444C5.01 5.49778 8.61 4.77778 12 4.77778C15.31 4.77778 17.93 5.42667 19.19 6.54667C19.49 6.82222 19.71 7.11556 19.84 7.44444H4.18Z" fill="currentColor"/>
</svg>
