<svg viewBox="0 0 24 24" fill="none" xmlns="http://www.w3.org/2000/svg">
<path d="M3.115 2.50531L1.695 3.91531L3.965 6.18531C2.915 7.76531 2.305 9.65531 2.305 11.6953C2.305 17.2153 6.785 21.6953 12.305 21.6953C14.345 21.6953 16.235 21.0853 17.815 20.0353L20.085 22.3053L21.495 20.8853L3.115 2.50531ZM12.305 19.6953C7.895 19.6953 4.305 16.1053 4.305 11.6953C4.305 10.2153 4.715 8.83531 5.425 7.63531L16.355 18.5753C15.165 19.2853 13.785 19.6953 12.305 19.6953Z" fill="currentColor"/>
<path d="M12.305 3.69531C16.715 3.69531 20.305 7.28531 20.305 11.6953C20.305 13.1753 19.895 14.5553 19.185 15.7453L20.635 17.1953C21.695 15.6253 22.305 13.7353 22.305 11.6953C22.305 6.17531 17.825 1.69531 12.305 1.69531C10.265 1.69531 8.375 2.30531 6.795 3.35531L8.245 4.80531C9.445 4.10531 10.825 3.69531 12.305 3.69531Z" fill="currentColor"/>
</svg>
