<svg  viewBox="0 0 24 24" fill="none" xmlns="http://www.w3.org/2000/svg">
<path d="M21.7137 13.1171L19.1337 15.6971L17.3237 13.8871L19.5037 11.6971L12.3037 4.49715L10.1137 6.68715L8.30373 4.86715L10.8837 2.28715C11.6637 1.50715 12.9337 1.50715 13.7137 2.28715L21.7137 10.2871C22.5037 11.0671 22.5037 12.3271 21.7137 13.1171ZM21.4937 20.8871L20.0837 22.2971L16.3037 18.5271L13.7237 21.1071C12.9437 21.8871 11.6737 21.8871 10.8937 21.1071L2.89373 13.1071C2.11373 12.3271 2.11373 11.0571 2.89373 10.2771L5.47373 7.69715L1.69373 3.91715L3.10373 2.50715L21.4937 20.8871ZM14.4937 16.7171L13.1037 15.3271L12.3037 16.1271L7.88373 11.6971L8.68373 10.8971L7.28373 9.50715L5.10373 11.6971L12.3037 18.8972L14.4937 16.7171ZM16.7237 11.6971L12.3037 7.27715L11.5037 8.07715L15.9237 12.4971L16.7237 11.6971Z" fill="currentColor"/>
</svg>
