<svg  viewBox="0 0 24 24" fill="none" xmlns="http://www.w3.org/2000/svg">
<path d="M21.105 17.5C18.635 17.5 14.535 16.17 12.425 12.07C10.095 7.56 11.925 3.59 12.955 2C7.59501 2.19 3.30501 6.58 3.30501 11.99C3.30501 12.13 3.32501 12.27 3.32501 12.41C3.93501 12.15 4.60501 11.99 5.30501 11.99C5.30501 8.9 7.03501 6.22 9.60501 4.89C9.10501 7.08 9.06501 9.93 10.645 12.99C12.215 16.03 14.825 17.94 17.445 18.85C16.215 19.59 14.795 20 13.315 20C12.815 20 12.315 19.95 11.835 19.86C11.465 20.56 10.895 21.13 10.195 21.5C11.175 21.82 12.225 22 13.305 22C16.805 22 19.885 20.2 21.675 17.48C21.505 17.49 21.305 17.5 21.105 17.5Z" fill="currentColor"/>
<path d="M8.32501 15.99H8.14501C7.72501 14.83 6.62501 13.99 5.32501 13.99C3.66501 13.99 2.32501 15.33 2.32501 16.99C2.32501 18.65 3.66501 19.99 5.32501 19.99C5.94501 19.99 7.81501 19.99 8.32501 19.99C9.42501 19.99 10.325 19.09 10.325 17.99C10.325 16.89 9.42501 15.99 8.32501 15.99Z" fill="currentColor"/>
</svg>
