<svg viewBox="0 0 24 24" fill="none" xmlns="http://www.w3.org/2000/svg">
<path d="M1.15997 20.8457H16.17V21.8257C16.17 22.3857 15.72 22.8357 15.16 22.8357H2.16997C1.60997 22.8357 1.15997 22.3857 1.15997 21.8257V20.8457ZM20.65 23.1557L16.16 18.6757V18.8457H1.15997V16.8457H14.33L12.33 14.8457H1.15997C1.15997 11.6057 3.61997 9.6757 6.53997 9.0557L0.839966 3.3557L2.25997 1.9457L22.06 21.7457L20.65 23.1557ZM10.33 12.8457L8.32997 10.8457C6.90997 10.9057 4.80997 11.4057 3.77997 12.8457H10.33ZM23.16 4.8457H18.16V0.845703H16.16V4.8457H11.16L11.39 6.8457H20.95L19.95 16.8157L21.78 18.6457L23.16 4.8457Z" fill="currentColor"/>
</svg>
