<svg viewBox="0 0 24 24" fill="none" xmlns="http://www.w3.org/2000/svg">
<path d="M9.56 5.36453L8.14 3.95453L9.66 2.29453H15.66L17.49 4.29453H20.66C21.76 4.29453 22.66 5.19453 22.66 6.29453V18.2945C22.66 18.3445 22.65 18.3945 22.64 18.4545L20.66 16.4645V6.29453H16.61L14.78 4.29453H10.54L9.56 5.36453ZM21.15 22.6045L18.83 20.2945H4.66C3.56 20.2945 2.66 19.3945 2.66 18.2945V6.29453C2.66 5.70453 2.93 5.17453 3.34 4.80453L1.34 2.80453L2.76 1.39453L22.56 21.1945L21.15 22.6045ZM9.85 11.3145C9.74 11.6245 9.66 11.9445 9.66 12.2945C9.66 13.9545 11 15.2945 12.66 15.2945C13.01 15.2945 13.33 15.2145 13.64 15.1045L9.85 11.3145ZM16.83 18.2945L15.15 16.6145C14.42 17.0445 13.57 17.2945 12.66 17.2945C9.9 17.2945 7.66 15.0545 7.66 12.2945C7.66 11.3845 7.91 10.5345 8.34 9.80453L4.83 6.29453H4.66V18.2945H16.83ZM15.47 11.2745L17.54 13.3445C17.62 13.0045 17.66 12.6545 17.66 12.2945C17.66 9.53453 15.42 7.29453 12.66 7.29453C12.3 7.29453 11.95 7.33453 11.6 7.41453L13.67 9.48453C14.51 9.78453 15.17 10.4445 15.47 11.2745Z" fill="currentColor"/>
</svg>
