<svg viewBox="0 0 24 24" fill="none" xmlns="http://www.w3.org/2000/svg">
<path d="M8.30501 19.2896C8.30501 20.3896 7.40501 21.2896 6.30501 21.2896C5.20501 21.2896 4.30501 20.3896 4.30501 19.2896C4.30501 18.1896 5.20501 17.2896 6.30501 17.2896C7.40501 17.2896 8.30501 18.1896 8.30501 19.2896ZM15.305 7.94961V11.4596L17.305 13.4596V5.55961C17.885 4.87961 18.275 4.28961 18.955 4.28961C19.725 4.28961 20.305 4.94961 20.305 5.76961V6.28961H22.305V5.76961C22.305 3.84961 20.825 2.28961 18.955 2.28961C17.295 2.28961 16.415 3.55961 15.775 4.31961L12.275 8.42961L13.695 9.84961L15.305 7.94961ZM20.085 21.8996L18.175 19.9896C17.885 20.7496 17.165 21.2896 16.305 21.2896C15.205 21.2896 14.305 20.3896 14.305 19.2896C14.305 18.4296 14.845 17.7096 15.605 17.4196L14.475 16.2896H7.73501C6.88501 16.2896 6.42501 15.2896 6.97501 14.6396L9.66501 11.4796L1.69501 3.50961L3.10501 2.09961L21.495 20.4896L20.085 21.8996ZM12.475 14.2896L11.085 12.8996L9.90501 14.2896H12.475ZM10.305 4.28961C10.595 4.28961 10.885 4.30961 11.165 4.33961L9.79501 5.95961L11.215 7.37961L14.605 3.38961C13.335 2.68961 11.865 2.28961 10.305 2.28961C9.07501 2.28961 7.90501 2.53961 6.83501 2.98961L8.40501 4.55961C9.01501 4.38961 9.65501 4.28961 10.305 4.28961Z" fill="currentColor"/>
</svg>
