<svg viewBox="0 0 24 24" fill="none" xmlns="http://www.w3.org/2000/svg">
<path d="M20.0007 5.5V4.5C20.0007 3.4 19.1007 2.5 18.0007 2.5C16.9007 2.5 16.0007 3.4 16.0007 4.5V5.5H15.0007V10.5H21.0007V5.5H20.0007ZM19.0007 5.5H17.0007V4.5C17.0007 3.95 17.4507 3.5 18.0007 3.5C18.5507 3.5 19.0007 3.95 19.0007 4.5V5.5Z" fill="currentColor"/>
<path d="M20.2007 15.37L16.5307 14.64C16.0307 14.54 15.7007 14.84 15.6307 14.91L13.1107 17.41C10.6107 15.98 8.54069 13.91 7.11069 11.41L9.61069 8.89C9.84069 8.65 9.94069 8.32 9.88069 7.99L9.13069 4.3C9.04069 3.84 8.63069 3.5 8.15069 3.5H4.00069C3.44069 3.5 2.97069 3.97 3.00069 4.53C3.17069 7.42 4.05069 10.13 5.43069 12.5C7.01069 15.23 9.28069 17.49 12.0007 19.07C14.3707 20.44 17.0807 21.33 19.9707 21.5C20.5207 21.53 21.0007 21.07 21.0007 20.5V16.35C21.0007 15.87 20.6607 15.46 20.2007 15.37ZM5.10069 5.5H7.33069L7.80069 7.85L6.17069 9.5C5.63069 8.2 5.27069 6.87 5.10069 5.5ZM19.0007 19.4C17.6307 19.22 16.3007 18.87 15.0007 18.33L16.6507 16.7L19.0007 17.17V19.4Z" fill="currentColor"/>
</svg>
