<svg  viewBox="0 0 24 24" fill="none" xmlns="http://www.w3.org/2000/svg">
<path d="M18.05 13.8301L16.62 12.4001C17.18 11.6701 17.67 10.9001 18.09 10.0801L15.89 7.8801C15.61 7.6001 15.53 7.2101 15.64 6.8601C16.01 5.7401 16.21 4.5401 16.21 3.2901C16.21 2.7401 16.66 2.2901 17.21 2.2901H20.71C21.26 2.2901 21.71 2.7401 21.71 3.2901C21.71 7.2701 20.34 10.9301 18.05 13.8301ZM15.23 16.6401C12.34 18.9301 8.67998 20.2901 4.70998 20.2901C4.15998 20.2901 3.70998 19.8401 3.70998 19.2901V15.8001C3.70998 15.2501 4.15998 14.8001 4.70998 14.8001C5.94998 14.8001 7.15998 14.6001 8.27998 14.2301C8.37998 14.1901 8.48998 14.1801 8.58998 14.1801C8.84998 14.1801 9.09998 14.2801 9.29998 14.4701L11.5 16.6701C12.31 16.2501 13.08 15.7701 13.8 15.2101L2.09998 3.5101L3.51998 2.1001L21.9 20.4901L20.49 21.9001L15.23 16.6401ZM8.30998 16.3101C7.45998 16.5501 6.58998 16.7001 5.70998 16.7601V18.2501C7.02998 18.1601 8.29998 17.9001 9.50998 17.5001L8.30998 16.3101ZM18.17 4.2901C18.11 5.1801 17.96 6.0501 17.72 6.8801L18.92 8.0801C19.33 6.8801 19.59 5.6101 19.68 4.2901H18.17Z" fill="currentColor"/>
</svg>
