<svg viewBox="0 0 24 24" fill="none" xmlns="http://www.w3.org/2000/svg">
<path d="M10.215 2.50586H8.21505V4.38586L10.215 6.38586V2.50586ZM16.215 8.50586V12.3859L18.015 14.1859L18.215 13.9859V8.50586C18.215 7.40586 17.315 6.50586 16.215 6.50586V2.50586H14.215V6.50586H10.335L12.335 8.50586H16.215ZM4.33505 3.34586L2.92505 4.75586L6.21505 8.04586V14.0059L9.71505 17.5059V20.5059H14.715V17.5059L15.195 17.0259L19.6651 21.4959L21.0751 20.0859L4.33505 3.34586ZM12.715 16.6759V18.5059H11.715V16.6759L8.21505 13.1559V10.0459L13.785 15.6159L12.715 16.6759Z" fill="currentColor"/>
</svg>
