<svg  viewBox="0 0 24 24" fill="none" xmlns="http://www.w3.org/2000/svg">
<path d="M19.9281 8.66683L16.3281 10.3468L13.9981 8.01683V6.61683L16.3281 4.28683L19.9281 5.96683C20.3081 6.14683 20.7481 5.97683 20.9281 5.60683C21.1081 5.22683 20.9381 4.78683 20.5681 4.60683L16.6481 2.77683C16.2681 2.59683 15.8181 2.67683 15.5181 2.97683L13.7781 4.71683C13.5981 4.47683 13.3181 4.31683 12.9981 4.31683C12.4481 4.31683 11.9981 4.76683 11.9981 5.31683V6.31683H8.81807C8.39807 5.15683 7.29807 4.31683 5.99807 4.31683C4.33807 4.31683 2.99807 5.65683 2.99807 7.31683C2.99807 8.41683 3.59807 9.36683 4.47807 9.89683L7.07807 18.3168H5.99807C4.89807 18.3168 3.99807 19.2168 3.99807 20.3168V21.3168H16.9981V20.3168C16.9981 19.2168 16.0981 18.3168 14.9981 18.3168H13.3781L8.40807 9.08683C8.57807 8.84683 8.71807 8.59683 8.81807 8.31683H11.9981V9.31683C11.9981 9.86683 12.4481 10.3168 12.9981 10.3168C13.3181 10.3168 13.5981 10.1568 13.7781 9.91683L15.5181 11.6568C15.8181 11.9568 16.2681 12.0368 16.6481 11.8568L20.5681 10.0268C20.9481 9.84683 21.1081 9.40683 20.9281 9.02683C20.7481 8.65683 20.3081 8.48683 19.9281 8.66683ZM5.99807 8.31683C5.44807 8.31683 4.99807 7.86683 4.99807 7.31683C4.99807 6.76683 5.44807 6.31683 5.99807 6.31683C6.54807 6.31683 6.99807 6.76683 6.99807 7.31683C6.99807 7.86683 6.54807 8.31683 5.99807 8.31683ZM11.1081 18.3168H9.16807L6.70807 10.3168H6.80807L11.1081 18.3168Z" fill="currentColor"/>
</svg>
