<svg  viewBox="0 0 24 24" fill="none" xmlns="http://www.w3.org/2000/svg">
<path d="M2.22995 0.819824L0.819946 2.22982L5.81995 7.21982C4.15995 7.21982 2.81995 8.55982 2.81995 10.2198V16.2198H6.81995V20.2198H18.8199L21.7699 23.1798L23.1799 21.7698L2.22995 0.819824ZM6.81995 14.2198H4.81995V10.2198C4.81995 9.66982 5.26995 9.21982 5.81995 9.21982H7.81995L10.8199 12.2198H6.81995V14.2198ZM8.81995 18.2198V14.2198H12.8199L16.8199 18.2198H8.81995ZM8.81995 4.21982H16.8199V7.21982H11.4799L13.4799 9.21982H19.8199C20.3699 9.21982 20.8199 9.66982 20.8199 10.2198V14.2198L18.8199 14.2298V12.2198H16.4799L20.4799 16.2198H22.8199V10.2198C22.8199 8.55982 21.4799 7.21982 19.8199 7.21982H18.8199V2.21982H6.81995V2.57982L8.81995 4.57982V4.21982Z" fill="currentColor"/>
<path d="M18.8199 11.7298C19.3722 11.7298 19.8199 11.2821 19.8199 10.7298C19.8199 10.1775 19.3722 9.72982 18.8199 9.72982C18.2677 9.72982 17.8199 10.1775 17.8199 10.7298C17.8199 11.2821 18.2677 11.7298 18.8199 11.7298Z" fill="currentColor"/>
</svg>
