<svg  viewBox="0 0 24 24" fill="none" xmlns="http://www.w3.org/2000/svg">
<path d="M15.8199 7.22L14.8199 7.62C14.6099 7.46 14.3899 7.33 14.1499 7.23L13.9999 6.17C13.9799 6.07 13.8999 6 13.7999 6H12.1999C12.0999 6 12.0199 6.07 12.0099 6.17L11.8599 7.23C11.6199 7.33 11.3899 7.46 11.1899 7.62L10.1899 7.22C10.0999 7.19 9.98988 7.22 9.94988 7.31L9.14988 8.69C9.09988 8.78 9.11988 8.89 9.19988 8.95L10.0499 9.61C10.0199 9.73 9.99988 9.87 9.99988 10C9.99988 10.13 10.0099 10.26 10.0299 10.39L9.18988 11.05C9.10988 11.11 9.08988 11.22 9.13988 11.3L9.93988 12.69C9.98988 12.78 10.0899 12.81 10.1899 12.78L11.1799 12.38C11.3899 12.54 11.6099 12.67 11.8599 12.77L11.9999 13.83C12.0199 13.93 12.0999 14 12.1999 14H13.7999C13.8999 14 13.9799 13.93 13.9999 13.83L14.1499 12.77C14.3899 12.67 14.6199 12.54 14.8199 12.38L15.8099 12.78C15.8999 12.82 16.0099 12.78 16.0499 12.69L16.8499 11.3C16.8999 11.21 16.8799 11.11 16.7999 11.05L15.9699 10.39C15.9899 10.26 15.9999 10.13 15.9999 10C15.9999 9.86 15.9899 9.73 15.9699 9.61L16.8199 8.95C16.8999 8.89 16.9199 8.78 16.8699 8.69L16.0699 7.31C16.0199 7.22 15.9099 7.19 15.8199 7.22ZM12.9999 11.43C12.2099 11.43 11.5699 10.79 11.5699 10C11.5699 9.21 12.2099 8.57 12.9999 8.57C13.7899 8.57 14.4299 9.21 14.4299 10C14.4299 10.79 13.7899 11.43 12.9999 11.43Z" fill="currentColor"/>
<path d="M19.9399 9.06C19.5099 5.79 16.7099 3.2 13.4099 3.01C13.2699 3 13.1399 3 12.9999 3C9.46988 3 6.56988 5.61 6.07988 9L4.14988 12.48C3.73988 13.14 4.21988 14 4.99988 14H5.99988V16C5.99988 17.1 6.89988 18 7.99988 18H8.99988V21H15.9999V16.32C18.6199 15.07 20.3499 12.24 19.9399 9.06ZM14.8899 14.63L13.9999 15.05V19H10.9999V16H7.99988V12H6.69988L8.02988 9.67C8.20988 7.06 10.3499 5 12.9999 5C15.7599 5 17.9999 7.24 17.9999 10C17.9999 12.09 16.7099 13.88 14.8899 14.63Z" fill="currentColor"/>
</svg>
