<svg viewBox="0 0 24 24" fill="none" xmlns="http://www.w3.org/2000/svg">
<path d="M17.715 13.6096L18.305 11.2496L19.065 14.2896H20.545L22.045 8.28961H20.545L19.805 11.2896L19.065 8.28961H17.545L16.805 11.2896L16.065 8.28961H14.565L15.285 11.1896L17.715 13.6096Z" fill="currentColor"/>
<path d="M1.95496 3.50961L6.73496 8.28961H3.56496V14.2896H5.06496V12.2896H6.16496L7.06496 14.2896H8.56496L7.66496 12.1896C8.16496 11.8896 8.56496 11.3896 8.56496 10.7896V10.1196L9.99496 11.5496L9.31496 14.2896H10.815L11.195 12.7896H11.235L20.345 21.8996L21.755 20.4896L3.37496 2.09961L1.95496 3.50961ZM7.06496 10.7896H5.06496V9.78961H7.06496V10.7896Z" fill="currentColor"/>
</svg>
