<svg  viewBox="0 0 24 24" fill="none" xmlns="http://www.w3.org/2000/svg">
    <path d="M21.5025 14.5013H23.5025C23.5025 19.4713 19.4725 23.5013 14.5025 23.5013V21.5013C18.3725 21.5013 21.5025 18.3713 21.5025 14.5013ZM14.5025 17.5013V19.5013C17.2625 19.5013 19.5025 17.2613 19.5025 14.5013H17.5025C17.5025 16.1613 16.1625 17.5013 14.5025 17.5013ZM18.7625 1.09128L22.3025 4.63128C23.0825 5.41128 23.0825 6.68128 22.3025 7.46128L19.1225 10.6413C18.3425 11.4213 17.0725 11.4213 16.2925 10.6413L15.0525 9.40128L14.3425 10.1013L15.5825 11.3413C16.3625 12.1213 16.3625 13.3913 15.5825 14.1713L14.1725 15.5813C13.3925 16.3613 12.1225 16.3613 11.3425 15.5813L10.1025 14.3413L9.3925 15.0513L10.6325 16.2913C11.4125 17.0713 11.4125 18.3413 10.6325 19.1213L7.4525 22.3013C6.6725 23.0813 5.4025 23.0813 4.6225 22.3013L1.0825 18.7613C0.302498 17.9813 0.302498 16.7113 1.0825 15.9313L4.2625 12.7513C5.0425 11.9713 6.3125 11.9713 7.0925 12.7513L8.3325 13.9913L9.0425 13.2813L7.8025 12.0513C7.0225 11.2713 7.0225 10.0013 7.8025 9.22128L9.2225 7.80128C10.0025 7.02128 11.2725 7.02128 12.0525 7.80128L13.2925 9.04128L14.0025 8.33128L12.7525 7.10128C11.9725 6.32128 11.9725 5.05128 12.7525 4.27128L15.9325 1.09128C16.7225 0.301279 17.9825 0.301279 18.7625 1.09128ZM3.5625 16.2913L2.5025 17.3513L6.0425 20.8913L7.1025 19.8313L3.5625 16.2913ZM5.6825 14.1713L4.6225 15.2313L8.1625 18.7713L9.2225 17.7113L5.6825 14.1713ZM10.6325 9.22128L9.2225 10.6313L12.7625 14.1713L14.1725 12.7613L10.6325 9.22128ZM15.2325 4.62128L14.1725 5.68128L17.7125 9.22128L18.7725 8.16128L15.2325 4.62128ZM17.3525 2.50128L16.2925 3.56128L19.8325 7.10128L20.8925 6.04128L17.3525 2.50128Z" fill="currentColor" />
</svg>
