<svg width="24" height="24" viewBox="0 0 24 24" fill="none" xmlns="http://www.w3.org/2000/svg">
<path d="M7.19995 18.2002C4.98995 18.2002 3.19995 16.4102 3.19995 14.2002C3.19995 11.9902 4.98995 10.2002 7.19995 10.2002C9.40995 10.2002 11.2 11.9902 11.2 14.2002C11.2 16.4102 9.40995 18.2002 7.19995 18.2002ZM7.19995 12.2002C6.09995 12.2002 5.19995 13.1002 5.19995 14.2002C5.19995 15.3002 6.09995 16.2002 7.19995 16.2002C8.29995 16.2002 9.19995 15.3002 9.19995 14.2002C9.19995 13.1002 8.29995 12.2002 7.19995 12.2002ZM11.2 10.2002C8.98995 10.2002 7.19995 8.4102 7.19995 6.2002C7.19995 3.9902 8.98995 2.2002 11.2 2.2002C13.41 2.2002 15.2 3.9902 15.2 6.2002C15.2 8.4102 13.41 10.2002 11.2 10.2002ZM11.2 4.2002C10.1 4.2002 9.19995 5.1002 9.19995 6.2002C9.19995 7.3002 10.1 8.2002 11.2 8.2002C12.3 8.2002 13.2 7.3002 13.2 6.2002C13.2 5.1002 12.3 4.2002 11.2 4.2002ZM16.8 21.8002C14.59 21.8002 12.8 20.0102 12.8 17.8002C12.8 15.5902 14.59 13.8002 16.8 13.8002C19.01 13.8002 20.8 15.5902 20.8 17.8002C20.8 20.0102 19.01 21.8002 16.8 21.8002ZM16.8 15.8002C15.7 15.8002 14.8 16.7002 14.8 17.8002C14.8 18.9002 15.7 19.8002 16.8 19.8002C17.9 19.8002 18.8 18.9002 18.8 17.8002C18.8 16.7002 17.9 15.8002 16.8 15.8002Z" fill="black"/>
</svg>
