<svg width="24" height="24" viewBox="0 0 24 24" fill="none" xmlns="http://www.w3.org/2000/svg">
<path d="M9.59003 13C10.14 13 10.59 13.45 10.59 14C10.59 14.55 10.14 15 9.59003 15C9.04003 15 8.59003 14.55 8.59003 14C8.59003 13.45 9.04003 13 9.59003 13ZM9.59003 11C7.93003 11 6.59003 12.34 6.59003 14C6.59003 15.66 7.93003 17 9.59003 17C11.25 17 12.59 15.66 12.59 14C12.59 12.34 11.25 11 9.59003 11ZM18.09 9L19.18 6.59L21.59 5.5L19.18 4.41L18.09 2L17 4.41L14.59 5.5L17 6.59L18.09 9ZM20.87 12.72L20.09 11L19.31 12.72L17.59 13.5L19.31 14.28L20.09 16L20.87 14.28L22.59 13.5L20.87 12.72ZM15.84 14C15.84 13.88 15.84 13.75 15.83 13.63L17.77 12.16L15.27 7.83L13.03 8.77C12.83 8.64 12.61 8.51 12.39 8.4L12.09 6H7.09003L6.79003 8.41C6.57003 8.52 6.36003 8.65 6.15003 8.78L3.91003 7.83L1.41003 12.16L3.35003 13.63C3.34003 13.75 3.34003 13.88 3.34003 14C3.34003 14.12 3.34003 14.25 3.35003 14.37L1.41003 15.84L3.91003 20.17L6.15003 19.23C6.35003 19.36 6.57003 19.49 6.79003 19.6L7.09003 22H12.09L12.39 19.59C12.61 19.48 12.82 19.36 13.03 19.22L15.27 20.16L17.77 15.83L15.83 14.36C15.84 14.25 15.84 14.12 15.84 14ZM14.42 17.64L12.69 16.91C12.13 17.51 11.39 17.95 10.56 18.14L10.32 20H8.86003L8.63003 18.14C7.80003 17.95 7.06003 17.51 6.50003 16.91L4.77003 17.64L4.04003 16.37L5.53003 15.24C5.41003 14.85 5.35003 14.44 5.35003 14.01C5.35003 13.58 5.41003 13.17 5.53003 12.78L4.04003 11.65L4.77003 10.38L6.50003 11.11C7.06003 10.51 7.80003 10.07 8.63003 9.88L8.86003 8H10.33L10.56 9.86C11.39 10.05 12.13 10.49 12.69 11.09L14.42 10.36L15.15 11.63L13.66 12.76C13.78 13.15 13.84 13.56 13.84 13.99C13.84 14.42 13.78 14.83 13.66 15.22L15.15 16.35L14.42 17.64Z" fill="black"/>
</svg>
