<svg  viewBox="0 0 24 24" fill="none" xmlns="http://www.w3.org/2000/svg">
<path d="M14.0004 3.74805C14.0004 4.84805 13.1004 5.74805 12.0004 5.74805C10.9004 5.74805 10.0004 4.84805 10.0004 3.74805C10.0004 2.64805 10.9004 1.74805 12.0004 1.74805C13.1004 1.74805 14.0004 2.64805 14.0004 3.74805ZM22.8004 19.488C22.1204 21.588 19.8604 22.738 17.7604 22.058L1.00037 16.608L1.46037 15.178L5.39037 16.458L5.85037 15.028L1.93037 13.748L2.39037 12.318L4.00037 12.848V8.74805L9.47037 6.39805C9.86037 6.22805 10.3104 6.18805 10.7504 6.32805C11.7004 6.63805 12.2104 7.64805 11.9104 8.59805L10.8604 11.838L13.0004 11.498C13.8904 11.348 14.7604 11.818 15.1404 12.638L17.2204 17.148L19.1504 17.778L18.6904 19.208L15.3704 18.128L14.9004 19.548L18.2204 20.628C19.5304 21.058 20.9404 20.338 21.3704 19.018C21.8004 17.708 21.0804 16.298 19.7604 15.868L20.2204 14.438C22.3304 15.128 23.4904 17.388 22.8004 19.488ZM6.00037 13.498L7.01037 13.828C6.79037 13.408 6.73037 12.908 6.89037 12.428L7.92037 9.24805L6.00037 10.068V13.498ZM13.9404 17.658L7.28037 15.498L6.82037 16.928L13.4804 19.088L13.9404 17.658ZM14.6304 16.298L13.4504 13.738L9.48037 14.628L14.6304 16.298Z" fill="currentColor"/>
</svg>
