<svg  viewBox="0 0 24 24" fill="none" xmlns="http://www.w3.org/2000/svg">
<path d="M13.999 3.25C13.999 2.15 14.899 1.25 15.999 1.25C17.099 1.25 17.999 2.15 17.999 3.25C17.999 4.35 17.099 5.25 15.999 5.25C14.899 5.25 13.999 4.35 13.999 3.25ZM21.399 20.34C21.169 20.29 20.939 20.36 20.759 20.51C20.069 21.11 19.119 21.39 18.159 21.18L16.999 20.94L15.999 14.75L12.679 12.08L14.479 9.19C15.629 11.03 17.679 12.25 19.999 12.25V10.25C18.149 10.25 16.559 9.13 15.869 7.53L15.349 6.32C15.159 5.89 14.609 5.25 13.699 5.25H7.99899L5.49899 9.25L7.19899 10.31L9.09899 7.25H11.449L8.93899 11.24C8.65899 11.69 8.56899 12.24 8.68899 12.76L9.49899 16.25L5.99899 18.6L5.52899 18.5C4.56899 18.3 3.81899 17.65 3.42899 16.83C3.32899 16.62 3.14899 16.46 2.91899 16.41C2.48899 16.32 2.09899 16.61 2.01899 16.99C1.97899 17.13 1.99899 17.3 2.06899 17.45C2.64899 18.69 3.77899 19.65 5.21899 19.96L17.849 22.65C19.289 22.96 20.709 22.54 21.749 21.64C21.879 21.53 21.959 21.38 21.989 21.23C22.059 20.85 21.829 20.43 21.399 20.34ZM8.72899 19.18L11.749 17.15L11.309 13.83L14.149 15.85L14.899 20.49L8.72899 19.18Z" fill="currentColor"/>
</svg>
