<svg  viewBox="0 0 24 24" fill="none" xmlns="http://www.w3.org/2000/svg">
<path d="M4 5.00586C4 3.90586 4.9 3.00586 6 3.00586C7.1 3.00586 8 3.90586 8 5.00586C8 6.10586 7.1 7.00586 6 7.00586C4.9 7.00586 4 6.10586 4 5.00586ZM8.78 8.58586C7.93 8.21586 6.99 8.00586 6 8.00586C5.01 8.00586 4.07 8.21586 3.22 8.58586C2.48 8.90586 2 9.62586 2 10.4359V11.0059H10V10.4359C10 9.62586 9.52 8.90586 8.78 8.58586ZM18 7.00586C19.1 7.00586 20 6.10586 20 5.00586C20 3.90586 19.1 3.00586 18 3.00586C16.9 3.00586 16 3.90586 16 5.00586C16 6.10586 16.9 7.00586 18 7.00586ZM20.78 8.58586C19.93 8.21586 18.99 8.00586 18 8.00586C17.01 8.00586 16.07 8.21586 15.22 8.58586C14.48 8.90586 14 9.62586 14 10.4359V11.0059H22V10.4359C22 9.62586 21.52 8.90586 20.78 8.58586ZM18.01 13.0159L16.6 14.4259L18.17 16.0059H5.83L7.41 14.4159L6 13.0059L2 17.0059L5.99 20.9959L7.4 19.5859L5.83 18.0059H18.17L16.59 19.5859L18 20.9959L22 17.0059L18.01 13.0159Z" fill="currentColor"/>
</svg>
