<svg  viewBox="0 0 24 24" fill="none" xmlns="http://www.w3.org/2000/svg">
    <path d="M20.93 3.33993V15.3399H19.59L21.5 17.2499C22.32 16.9999 22.93 16.2399 22.93 15.3399V3.33993C22.93 2.23993 22.03 1.33993 20.93 1.33993H5.58999L7.58999 3.33993H20.93ZM6.92999 11.3399H8.92999V13.3399H6.92999V11.3399ZM18.93 8.33993H12.59L14.59 10.3399H18.93V8.33993ZM18.93 5.33993H10.93V6.67993L11.59 7.33993H18.93V5.33993ZM2.33999 0.929932L0.929993 2.33993L2.93999 4.34993L2.92999 21.3399L6.92999 17.3399H15.93L21.66 23.0699L23.07 21.6599L2.33999 0.929932ZM6.09999 15.3399L4.92999 16.5099V6.33993L6.92999 8.33993V10.3399H8.92999L13.93 15.3399H6.09999Z" fill="currentColor" />
</svg>
