<svg  viewBox="0 0 24 24" fill="none" xmlns="http://www.w3.org/2000/svg">
<path d="M15.0413 12.79L6.54128 4.29C6.35128 4.1 6.09128 4 5.83128 4C5.57128 4 5.32128 4.1 5.13128 4.29L2.29128 7.13C1.90128 7.52 1.90128 8.16 2.29128 8.55L10.7913 17.05C10.9913 17.25 11.2413 17.34 11.5013 17.34C11.7613 17.34 12.0113 17.24 12.2113 17.05L15.0413 14.22C15.4313 13.82 15.4313 13.18 15.0413 12.79ZM11.5013 14.92L4.41128 7.83L5.83128 6.41L12.9213 13.5L11.5013 14.92Z" fill="currentColor"/>
<path d="M15.7567 16.342L14.3425 17.7562L18.5851 21.9988L19.9993 20.5846L15.7567 16.342Z" fill="currentColor"/>
<path d="M18.5013 2C16.5713 2 15.0013 3.57 15.0013 5.5C15.0013 7.43 16.5713 9 18.5013 9C20.4313 9 22.0013 7.43 22.0013 5.5C22.0013 3.57 20.4313 2 18.5013 2ZM18.5013 7C17.6713 7 17.0013 6.33 17.0013 5.5C17.0013 4.67 17.6713 4 18.5013 4C19.3313 4 20.0013 4.67 20.0013 5.5C20.0013 6.33 19.3313 7 18.5013 7Z" fill="currentColor"/>
</svg>
