<svg  viewBox="0 0 24 24" fill="none" xmlns="http://www.w3.org/2000/svg">
<path d="M16.475 5.18945C17.5796 5.18945 18.475 4.29402 18.475 3.18945C18.475 2.08488 17.5796 1.18945 16.475 1.18945C15.3705 1.18945 14.475 2.08488 14.475 3.18945C14.475 4.29402 15.3705 5.18945 16.475 5.18945Z" fill="currentColor"/>
<path d="M23.975 12.6895V7.98945L18.925 5.84945C17.955 5.43945 16.835 5.78945 16.275 6.68945L15.275 8.28945C14.605 9.46945 13.365 10.3495 11.865 10.6095L11.925 10.6695C12.615 11.3595 13.445 11.7395 14.385 11.8395C15.185 11.4195 15.905 10.8595 16.475 10.1995L17.075 13.1995L14.975 15.1895V22.6895H16.975V16.6895L19.075 14.6895L20.875 22.6895H22.975L20.795 11.6895L20.175 8.58945L21.975 9.28945V12.6895H23.975Z" fill="currentColor"/>
<path d="M10.265 8.89945C10.485 9.04945 10.735 9.13945 10.985 9.18945C11.115 9.20945 11.235 9.22945 11.365 9.22945C11.495 9.22945 11.625 9.21945 11.745 9.18945C11.875 9.16945 11.995 9.12945 12.115 9.07945C12.355 8.97945 12.585 8.83945 12.775 8.63945C13.265 8.14945 13.445 7.46945 13.325 6.83945C13.255 6.46945 13.075 6.09945 12.775 5.80945C12.585 5.61945 12.355 5.46945 12.115 5.36945C11.995 5.31945 11.875 5.27945 11.745 5.25945C11.615 5.23945 11.495 5.21945 11.365 5.21945C11.245 5.21945 11.135 5.22945 11.015 5.24945C10.875 5.26945 10.735 5.30945 10.605 5.35945C10.375 5.46945 10.145 5.61945 9.95502 5.80945C9.65502 6.09945 9.47502 6.46945 9.40502 6.83945C9.28502 7.46945 9.46502 8.14945 9.95502 8.63945C10.045 8.73945 10.155 8.81945 10.265 8.89945Z" fill="currentColor"/>
<path d="M11.215 11.3695L9.21502 9.36945C9.11502 9.26945 9.01502 9.18945 8.90502 9.10945C8.68502 8.96945 8.43502 8.86945 8.18502 8.82945C8.05502 8.79945 7.93502 8.78945 7.80502 8.78945C7.29502 8.78945 6.78502 8.98945 6.39502 9.37945L3.05502 12.7195C2.64502 13.1295 2.43502 13.6995 2.47502 14.2595C2.47502 14.4395 2.51502 14.6295 2.58502 14.8095L3.65502 17.7595L0.0250244 21.3895L1.43502 22.8095L5.67502 18.5695V16.3495L6.97502 17.5595V22.6895H8.97502V16.6895L6.85502 14.5695L9.21502 12.2095L9.92502 12.9195C11.215 14.1795 12.895 14.9595 14.955 14.9595L14.815 12.8895C13.315 12.8695 12.115 12.2695 11.215 11.3695Z" fill="currentColor"/>
</svg>
