<svg  viewBox="0 0 24 24" fill="none" xmlns="http://www.w3.org/2000/svg">
<path d="M20.31 3.69C19.99 3.36 18.37 3 16.26 3C13.23 3 9.17002 3.75 6.46002 6.46C1.87002 11.05 2.90002 19.52 3.69002 20.31C4.01002 20.64 5.63002 21 7.74002 21C10.77 21 14.83 20.25 17.54 17.54C22.13 12.95 21.1 4.48 20.31 3.69ZM7.74002 19C6.60002 19 5.72002 18.88 5.21002 18.77C5.03002 17.98 4.91002 16.56 5.04002 14.94L9.05002 18.95C8.53002 18.99 8.08002 19 7.74002 19ZM16.13 16.13C14.8 17.46 13.07 18.18 11.47 18.57L5.43002 12.53C5.85002 10.85 6.59002 9.16 7.88002 7.88C9.20002 6.56 10.93 5.84 12.52 5.45L18.57 11.5C18.15 13.17 17.4 14.85 16.13 16.13ZM18.96 9.09L14.93 5.06C15.45 5.01 15.91 5 16.26 5C17.4 5 18.28 5.12 18.79 5.23C18.97 6.02 19.09 7.45 18.96 9.09Z" fill="currentColor"/>
<path d="M14.0999 8.49996L8.49967 14.1002L9.89973 15.5002L15.5 9.90001L14.0999 8.49996Z" fill="currentColor"/>
</svg>
