<svg  viewBox="0 0 24 24" fill="none" xmlns="http://www.w3.org/2000/svg">
    <path d="M19.9741 10.5029L15.8242 10.5129C15.6642 10.5029 15.5142 10.5329 15.3742 10.5929L14.7842 10.8529L12.9542 6.75293C12.3941 5.49293 10.9142 4.92293 9.65415 5.48293C8.39415 6.04293 7.82415 7.52293 8.38415 8.78293L11.6842 16.2329L9.81415 16.6229C9.62415 16.6729 8.82415 16.8929 8.45415 17.8329L7.75415 19.6929L14.5342 22.3629C15.0241 22.5529 15.5842 22.5429 16.0641 22.3229L22.0541 19.6729C22.9441 19.2729 23.4242 18.2929 23.1842 17.3529L21.8242 12.0129C21.6042 11.1529 20.8541 10.5429 19.9741 10.5029ZM21.2442 17.8429L15.2542 20.5029L10.3342 18.5429L14.5142 17.6629L10.2142 7.96293C10.1042 7.71293 10.2142 7.41293 10.4642 7.30293C10.7142 7.19293 11.0142 7.30293 11.1242 7.55293L13.6242 13.2029L15.2341 12.4929L19.8841 12.5029L21.2442 17.8429ZM1.81415 6.06293L0.75415 5.00293L4.25415 1.50293L7.75415 5.00293L6.69415 6.06293L5.07415 4.44293C4.86415 5.26293 4.75415 6.12293 4.75415 7.00293C4.75415 9.42293 5.57415 11.6529 6.95415 13.4329L5.88415 14.5029C4.24415 12.4529 3.25415 9.84293 3.25415 7.00293C3.25415 6.08293 3.35415 5.18293 3.55415 4.32293L1.81415 6.06293Z" fill="currentColor" />
</svg>
