<svg viewBox="0 0 24 24" fill="none" xmlns="http://www.w3.org/2000/svg">
<path d="M15 1.50586H9V3.50586H15V1.50586ZM11 14.5059H13V8.50586H11V14.5059ZM19.03 7.88586L20.45 6.46586C20.02 5.95586 19.55 5.47586 19.04 5.05586L17.62 6.47586C16.07 5.23586 14.12 4.49586 12 4.49586C7.03 4.49586 3 8.52586 3 13.4959C3 18.4659 7.02 22.4959 12 22.4959C16.98 22.4959 21 18.4659 21 13.4959C21 11.3859 20.26 9.43586 19.03 7.88586ZM12 20.5059C8.13 20.5059 5 17.3759 5 13.5059C5 9.63586 8.13 6.50586 12 6.50586C15.87 6.50586 19 9.63586 19 13.5059C19 17.3759 15.87 20.5059 12 20.5059Z" fill="currentColor"/>
</svg>
