<svg viewBox="0 0 24 24" fill="none" xmlns="http://www.w3.org/2000/svg">
<path d="M15.9857 6.01367H13.9857V4.01367H15.9857V6.01367ZM17.9857 7.01367H15.9857V9.01367H17.9857V7.01367ZM18.9857 9.01367H20.9857V7.01367H18.9857V9.01367ZM18.9857 4.01367H16.9857V6.01367H18.9857V4.01367ZM14.9857 7.01367H12.9857V9.01367H14.9857V7.01367ZM18.9857 10.0137H16.9857V12.0137H18.9857V10.0137ZM15.9857 10.0137H13.9857V12.0137H15.9857V10.0137ZM12.9857 4.01367H10.9857V6.01367H12.9857V4.01367ZM19.9857 15.8337V19.9837C19.9857 20.5437 19.5157 21.0137 18.9557 20.9837C16.0657 20.8137 13.3557 19.9537 10.9857 18.5837C8.2557 17.0037 5.9957 14.7437 4.4157 12.0137C3.0357 9.64367 2.1857 6.93367 2.0157 4.04367C1.9857 3.48367 2.4557 3.01367 3.0157 3.01367H7.1657C7.6457 3.01367 8.0557 3.35367 8.1457 3.81367L8.8857 7.49367C8.9557 7.82367 8.8457 8.16367 8.6157 8.39367L6.0857 10.9137C7.5157 13.4137 9.5857 15.4837 12.0857 16.9137L14.6057 14.3937C14.8457 14.1537 15.1857 14.0537 15.5057 14.1237L19.1757 14.8537C19.6457 14.9437 19.9857 15.3537 19.9857 15.8337ZM5.1657 9.00367L6.8157 7.35367L6.3457 5.01367H4.1157C4.2857 6.38367 4.6457 7.72367 5.1657 9.00367ZM17.9857 16.6537L15.6457 16.1837L13.9957 17.8337C15.2757 18.3537 16.6257 18.7037 17.9857 18.8837V16.6537ZM19.9857 4.01367V6.01367H21.9857V4.01367H19.9857ZM19.9857 12.0137H21.9857V10.0137H19.9857V12.0137ZM12.9857 10.0137H10.9857V12.0137H12.9857V10.0137Z" fill="currentColor"/>
</svg>
