<svg viewBox="0 0 24 24" fill="none" xmlns="http://www.w3.org/2000/svg">
    <path d="M8.24495 4.81482L6.79495 3.35482C8.37495 2.30482 10.2649 1.69482 12.3049 1.69482C17.8249 1.69482 22.3049 6.17482 22.3049 11.6948C22.3049 13.7348 21.6949 15.6248 20.6449 17.2048L19.1849 15.7448C19.8949 14.5548 20.3049 13.1748 20.3049 11.6948C20.3049 7.28482 16.7149 3.69482 12.3049 3.69482C10.8249 3.69482 9.44495 4.10482 8.24495 4.81482ZM17.9649 9.22482L16.5549 7.81482L13.9049 10.4648L15.3149 11.8748L17.9649 9.22482ZM20.0849 22.3048L17.8149 20.0348C16.2349 21.0848 14.3449 21.6948 12.3049 21.6948C6.78495 21.6948 2.30495 17.2148 2.30495 11.6948C2.30495 9.65482 2.91495 7.76482 3.96495 6.18482L1.69495 3.91482L3.10495 2.50482L21.4849 20.8848L20.0849 22.3048ZM16.3649 18.5748L12.4849 14.6948L10.8949 16.2848L6.65495 12.0448L8.06495 10.6348L10.8949 13.4648L11.0749 13.2848L5.42495 7.63482C4.71495 8.83482 4.30495 10.2148 4.30495 11.6948C4.30495 16.1048 7.89495 19.6948 12.3049 19.6948C13.7849 19.6948 15.1649 19.2848 16.3649 18.5748Z" fill="currentColor" />
</svg>
