<svg viewBox="0 0 24 24" fill="none" xmlns="http://www.w3.org/2000/svg">
    <path d="M21.655 12.2901C21.505 13.6701 21.035 14.9601 20.325 16.0801L18.855 14.6101C19.235 13.9001 19.505 13.1201 19.625 12.2901H21.655ZM9.385 5.1301C10.375 4.6001 11.515 4.2901 12.715 4.2901C15.085 4.2901 17.185 5.4801 18.455 7.2901H15.715V9.2901H21.715V3.2901H19.715V5.6501C18.065 3.6101 15.545 2.2901 12.715 2.2901C10.955 2.2901 9.315 2.8001 7.935 3.6801L9.385 5.1301ZM11.715 6.2901V7.4601L13.715 9.4601V6.2901H11.715ZM20.495 21.9001L17.495 18.9001C16.105 19.7701 14.475 20.2901 12.715 20.2901C7.745 20.2901 3.715 16.2601 3.715 11.2901C3.715 9.5301 4.225 7.8901 5.105 6.5101L2.105 3.5101L3.515 2.1001L21.895 20.4801L20.495 21.9001ZM16.035 17.4401L6.555 7.9601C6.025 8.9501 5.715 10.0901 5.715 11.2901C5.715 15.1501 8.855 18.2901 12.715 18.2901C13.915 18.2901 15.055 17.9801 16.035 17.4401Z" fill="currentColor" />
</svg>
