<svg  viewBox="0 0 24 24" fill="none" xmlns="http://www.w3.org/2000/svg">
<path d="M9.98999 8.57018L7.98999 6.57018L3.83999 2.43018L2.42999 3.84018L5.15999 6.57018H4.42999C3.87999 6.57018 3.42999 7.02018 3.42999 7.57018V17.5702C3.42999 18.1202 3.87999 18.5702 4.42999 18.5702H16.43C16.64 18.5702 16.82 18.4902 16.98 18.3902L20.16 21.5702L21.57 20.1602L12.71 11.3002L9.98999 8.57018ZM5.42999 16.5702V8.57018H7.15999L15.16 16.5702H5.42999ZM15.43 8.57018V11.1802L21.43 17.1802V7.07018L17.43 11.0702V7.57018C17.43 7.02018 16.98 6.57018 16.43 6.57018H10.82L12.82 8.57018H15.43Z" fill="currentColor"/>
</svg>
