<svg viewBox="0 0 24 24" fill="none" xmlns="http://www.w3.org/2000/svg">
<path d="M4.99504 15H18.995V9H4.99504V15ZM6.99504 11H16.995V13H6.99504V11ZM10.995 1H12.995V4H10.995V1ZM20.455 5.01L19.035 3.6L17.245 5.39L18.655 6.8L20.455 5.01ZM10.995 20H12.995V23H10.995V20ZM17.235 18.71L19.025 20.51L20.445 19.09L18.645 17.3L17.235 18.71ZM4.95504 3.595L6.74304 5.385L5.33504 6.79L3.54804 5.003L4.95504 3.595ZM3.54504 19.08L4.95504 20.5L6.74504 18.7L5.33504 17.29L3.54504 19.08Z" fill="currentColor"/>
</svg>
